<svg xmlns="http://www.w3.org/2000/svg" width="383" height="403" viewBox="0 0 383 403">
  <g id="man" transform="translate(-323 -205)">
    <path id="Path_134" data-name="Path 134" d="M195.908,548.992v2.736a17.117,17.117,0,0,0,17.1,17.1H358.037a17.109,17.109,0,0,0,17.1-17.1v-2.736a16.98,16.98,0,0,0-3.968-10.945,17.6,17.6,0,0,0-2.887-2.736H293.062a3.422,3.422,0,0,1-3.42-3.421H213.01a17.126,17.126,0,0,0-17.1,17.1Z" transform="translate(186.006 -88.5)" fill="#ccc"/>
    <rect id="Rectangle_250" data-name="Rectangle 250" width="17.786" height="125.873" transform="translate(479.745 605.523) rotate(180)" fill="#ccc"/>
    <path id="Path_135" data-name="Path 135" d="M225.33,693.4c0,1.922,26.952.743,60.2.743s60.2,1.178,60.2-.743-26.952-17.162-60.2-17.162S225.33,691.477,225.33,693.4Z" transform="translate(186.006 -88.5)" fill="#ccc"/>
    <path id="Path_136" data-name="Path 136" d="M239.093,474.5h16.991l8.083-65.537H239.09Z" transform="translate(323 115)" fill="#a0616a"/>
    <path id="Path_137" data-name="Path 137" d="M371.753,672.452h33.463a21.325,21.325,0,0,1,21.324,21.323v.694l-54.786,0Z" transform="translate(186.006 -88.5)" fill="#2f2e41"/>
    <path id="Path_138" data-name="Path 138" d="M173.322,439.693l-13.766,9.96L114.588,401.3,134.9,386.6Z" transform="translate(323 115)" fill="#a0616a"/>
    <path id="Path_139" data-name="Path 139" d="M323.482,654,279.1,686.111l-.406-.561a21.325,21.325,0,0,1,4.775-29.776h0l27.109-19.615Z" transform="translate(186.006 -88.5)" fill="#2f2e41"/>
    <path id="Path_140" data-name="Path 140" d="M328.912,388.438s-17.827-13.353-37.1,0L278.47,499.709h40.057l5.934-35.607,13.352-53.409Z" transform="translate(186.006 -88.5)" fill="#ccc"/>
    <path id="Path_141" data-name="Path 141" d="M369.043,560.287,297.15,536.812l-34.273,27.2,36.409,55.662-19.043,24.974-.545-.62c-2.363-2.691-57.861-66.113-57.7-84.1.159-17.838,6.069-35.769,6.129-35.949l18.029-25.589,25.587-7.525,84.71,11.889.138.02L390.817,523.6a26.887,26.887,0,0,1,12.2,19.8c1.47,13.228,4.425,119.161,4.455,120.23l.019.694H370.529Z" transform="translate(186.006 -88.5)" fill="#2f2e41"/>
    <path id="Path_142" data-name="Path 142" d="M323.445,533.708c-12.5-5.553-28.453-27.236-31.083-30.893-5.141,2.8-42.636,22.838-53.206,17.686-1.535.847-8.475,4.988-9.725,11.237l-.313,1.568-.906-1.317c-.167-.243-16.452-24.457,4.615-39.507,19.209-13.72,24.377-27.581,24.918-29.167l-10.423-55.089.273-.254c.855-.794,21.145-19.462,39.658-21.683l11.42-2.013.5,43.477v55.66C308.4,482.254,323,385,323,385l7.629,2.8c1.971.378,24.123,4.8,30,13.621l.191.286-20.148,54.474-5.893,8.872V476.4l34.425,29.935-.489.512c-1.173,1.229-26.558,27.631-41.345,27.627a9.587,9.587,0,0,1-3.926-.771Z" transform="translate(186.006 -88.5)" fill="#3f3d56"/>
    <circle id="Ellipse_100" data-name="Ellipse 100" cx="33.19" cy="33.19" r="33.19" transform="translate(451.285 264.68) rotate(-61.337)" fill="#a0616a"/>
    <path id="Path_143" data-name="Path 143" d="M301.966,543.593a13,13,0,0,1,16.759-10.782l19.023-22.8,16.678,8.18-27.317,31.827a13.066,13.066,0,0,1-25.143-6.422Z" transform="translate(186.006 -88.5)" fill="#a0616a"/>
    <path id="Path_144" data-name="Path 144" d="M315.412,524.254l29.844-40.289-7.392-39.918,11.993-44.973.3-.129c.242-.1,5.982-2.523,10.351-.71a7,7,0,0,1,3.895,4.047c2.969,7.423,10.127,83.022,10.43,86.367-.061.611-1.53,15.03-4.519,21.006-2.974,5.949-30.106,35.966-31.259,37.242l-.477.527Z" transform="translate(186.006 -88.5)" fill="#3f3d56"/>
    <path id="Path_145" data-name="Path 145" d="M338.834,331.433c-11.048,13.895-29.983,11.349-45.134,6.264a48.012,48.012,0,0,1-8.542,31.344c1.957-7.881-6.286-9.45-11.1-12.381-1.852-2.344-.313-5.842-1.073-8.731-8.636-10.125-14.358-17.764-3.273-29.646,6.489-8.686,14.278-19.532,26.642-17.25,9.783-11.413,25.815-8.445,36.754-.461A78.142,78.142,0,0,1,346.441,313.1a53.053,53.053,0,0,1-6.923,17.391" transform="translate(186.006 -88.5)" fill="#2f2e41"/>
    <path id="Path_146" data-name="Path 146" d="M518.994,696.5h-381a1,1,0,0,1,0-2h381a1,1,0,0,1,0,2Z" transform="translate(186.006 -88.5)" fill="#3f3d56"/>
    <path id="Path_147" data-name="Path 147" d="M330.009,561.878H292.116c1.421-17.484,6-33.811,0-45.472h37.893Q340.711,539.142,330.009,561.878Z" transform="translate(186.006 -88.5)" fill="#6c63ff"/>
    <path id="Path_148" data-name="Path 148" d="M313.453,553.294a13,13,0,0,0-16.759-10.781l-19.023-22.8-16.678,8.18,27.317,31.827a13.066,13.066,0,0,0,25.143-6.422Z" transform="translate(186.006 -88.5)" fill="#a0616a"/>
    <path id="Path_149" data-name="Path 149" d="M276.581,549.209c-1.7-1.276-41.72-31.355-46.191-40.3-4.478-8.957-3.368-35.477-3.31-36.683.07-.417,7.037-41.863,12.93-56.6,6.115-15.286,21.495-9.341,21.649-9.279l.465.186-6.7,78.131,36.529,48.457-14.882,16.448Z" transform="translate(186.006 -88.5)" fill="#3f3d56"/>
  </g>
</svg>
