<?xml version="1.0" standalone="no"?>
<!DOCTYPE svg PUBLIC "-//W3C//DTD SVG 1.1//EN" "http://www.w3.org/Graphics/SVG/1.1/DTD/svg11.dtd" >
<svg xmlns="http://www.w3.org/2000/svg" xmlns:xlink="http://www.w3.org/1999/xlink" version="1.1">
<metadata>
Created by FontForge 20170731 at Tue Mar 20 17:49:38 2018
 By Aleksey,,,
Digitized data copyright 2012-2018 for FiraGO, bBox Type GmbH and HERE Europe B.V. All rights reserved, with Reserved Font Name "Fira" / Digitized data copyright 2012-2018 for Fira Sans The Mozilla Foundation, Telefonica S.A., Carrois Corporate GbR and bBox Type GmbH, with Reserved Font Name "Fira"
</metadata>
<defs>
<font id="FiraGO-ExtraLightItalic" horiz-adv-x="0" >
  <font-face 
    font-family="FiraGO ExtraLight"
    font-weight="200"
    font-style="italic"
    font-stretch="normal"
    units-per-em="1000"
    panose-1="2 11 4 3 5 0 0 2 0 4"
    ascent="800"
    descent="-200"
    x-height="522"
    cap-height="684"
    bbox="-759 -711 2501 1439"
    underline-thickness="50"
    underline-position="-150"
    slope="-8"
    unicode-range="U+000D-FEFF"
  />
<missing-glyph horiz-adv-x="664" 
d="M455 -350h-419l198 1400h419zM281 998l-183 -1296h310l183 1296h-310zM422.5 425.5q23.5 -25.5 23.5 -66.5q0 -8 -2 -26q-7 -52 -33 -80t-77 -35l-7 -47q-1 -10 -9 -16t-17 -6q-11 0 -18 7.5t-6 18.5l11 82q53 3 75 21t28 59q1 7 1 20q0 22 -11 34t-39 12q-17 0 -29 -2.5
t-25 -9.5l-13 -2q-12 0 -18.5 7.5t-4.5 18.5q2 18 32 27t63 9q52 0 75.5 -25.5zM315 111q9 -9 9 -23q0 -17 -11 -28.5t-26 -11.5t-23.5 9.5t-8.5 24.5q0 16 10.5 27t26.5 11q14 0 23 -9z" />
    <glyph glyph-name="fi" unicode="fi" horiz-adv-x="559" 
d="M414 0h-47l68 483h-245l-65 -470q-9 -67 -27.5 -105.5t-48 -61t-82.5 -46.5l-15 35q41 20 65 39t39.5 52t23.5 89l65 468h-90l6 39h89l13 91q9 61 52 94.5t114 33.5q72 0 135 -41l-20 -32q-58 35 -115 35q-54 0 -84 -23t-37 -71l-12 -87h292z" />
    <glyph glyph-name="fl" unicode="fl" horiz-adv-x="580" 
d="M501 38l10 -36q-28 -13 -56 -13q-36 0 -56 19t-20 57q0 6 2 24l83 588q-37 13 -68 19t-69 6q-106 0 -119 -93l-12 -87h141l-11 -39h-136l-65 -470q-9 -67 -27.5 -105.5t-48 -61t-82.5 -46.5l-15 35q41 20 65 39t39.5 52t23.5 89l65 468h-90l6 39h89l13 91q9 61 52 94.5
t113 33.5q77 0 143 -27l44 6l-89 -637q-1 -6 -1 -16q0 -19 8.5 -28t28.5 -9q15 0 39 8z" />
    <glyph glyph-name="uniFDF2" unicode="&#x627;&#xfedf;&#xfee0;&#xfeea;" horiz-adv-x="1092" arabic-form="isolated" 
d="M548 752l-6 156l31 3l6 -159h-31zM1007 3l-40 -6l-18 742l48 5zM469.5 601.5q-17.5 17.5 -17.5 52.5q0 32 11 60l25 -6q-7 -17 -7 -48q0 -45 35 -45q18 0 28.5 13.5t10.5 35.5v41h27v-43q0 -20 9 -32.5t26 -12.5q38 0 38 48q0 30 -14 63l26 9q17 -41 17 -80
q0 -34 -17 -52.5t-46 -18.5q-37 0 -53 33q-7 -16 -21 -25.5t-34 -9.5q-26 0 -43.5 17.5zM791 638l11 -550q-33 -88 -127 -88q-42 0 -71 17.5t-42 49.5q-14 -31 -40.5 -49t-67.5 -18q-48 0 -81.5 24t-44.5 66q-69 -52 -158 -52q-63 0 -103 28t-40 72q0 81 76 145t207 92
l-3 78l45 5l8 -310q1 -52 24 -77t70 -25q37 0 57 16t30 45l-15 430l45 5l10 -394q1 -54 23.5 -78t68.5 -24q63 0 87 49l-14 538zM255 94.5q34 14.5 65 37.5l-8 200q-76 -14 -132.5 -44.5t-86.5 -70.5t-30 -85q11 -25 39 -38.5t71 -13.5q48 0 82 14.5z" />
    <glyph glyph-name="uniFEF5" unicode="&#xfedf;&#xfe82;" horiz-adv-x="626" arabic-form="isolated" 
d="M547 64q-40 -34 -100 -49t-166 -15h-181l3 42q113 73 183.5 134t111.5 125q-72 84 -187 173l-142 109l48 19l131 -106q106 -86 170 -159q45 89 45 220q0 33 -1 51l-7 132l45 5l4 -140l1 -30q0 -154 -61 -269q91 -116 103 -242zM281 44q88 0 141.5 9.5t85.5 30.5
q-11 88 -86 186q-41 -61 -104 -116.5t-152 -109.5h115zM-3 705q10 27 29.5 43t43.5 16q13 0 23.5 -3t20.5 -7q22 -10 38 -10q15 0 26.5 4t29.5 15l14 -22q-19 -16 -37.5 -22.5t-38.5 -6.5q-17 0 -43 10q-20 9 -34 9q-30 0 -46 -34z" />
    <glyph glyph-name="uniFEF6" unicode="&#xfee0;&#xfe82;" horiz-adv-x="633" arabic-form="final" 
d="M653 23l-20 -23q-40 0 -71 21t-45 63q-32 -43 -92.5 -63.5t-153.5 -20.5h-190l-12 47h208q88 0 141 16l-304 486l53 9l29 -48q188 -307 252 -435q17 8 30 19.5t27 28.5l-18 617l46 6l10 -582q1 -63 24.5 -90t69.5 -27zM35 645q10 27 29.5 43t43.5 16q13 0 23.5 -3
t20.5 -7q22 -10 38 -10q15 0 26.5 4t29.5 15l14 -22q-19 -16 -37.5 -22.5t-38.5 -6.5q-17 0 -43 10q-20 9 -34 9q-30 0 -46 -34z" />
    <glyph glyph-name="uniFEF7" unicode="&#xfedf;&#xfe84;" horiz-adv-x="626" arabic-form="isolated" 
d="M547 64q-40 -34 -100 -49t-166 -15h-181l3 42q113 73 183.5 134t111.5 125q-72 84 -187 173l-142 109l48 19l131 -106q106 -86 170 -159q45 89 45 220q0 33 -1 51l-7 132l45 5l4 -140l1 -30q0 -154 -61 -269q91 -116 103 -242zM281 44q88 0 141.5 9.5t85.5 30.5
q-11 88 -86 186q-41 -61 -104 -116.5t-152 -109.5h115zM202 724l-190 -31l-1 27l68 11q-24 17 -37.5 37t-13.5 40q0 32 23 53.5t67 21.5q31 0 58 -15l-8 -28q-27 15 -52 15q-31 0 -45 -14t-14 -34q0 -18 14 -36.5t40 -34.5l90 15z" />
    <glyph glyph-name="uniFEF8" unicode="&#xfee0;&#xfe84;" horiz-adv-x="633" arabic-form="final" 
d="M653 23l-20 -23q-40 0 -71 21t-45 63q-32 -43 -92.5 -63.5t-153.5 -20.5h-190l-12 47h208q88 0 141 16l-304 486l53 9l29 -48q188 -307 252 -435q17 8 30 19.5t27 28.5l-18 617l46 6l10 -582q1 -63 24.5 -90t69.5 -27zM240 664l-190 -31l-1 27l68 11q-24 17 -37.5 37
t-13.5 40q0 32 23 53.5t67 21.5q31 0 58 -15l-8 -28q-27 15 -52 15q-31 0 -45 -14t-14 -34q0 -18 14 -36.5t40 -34.5l90 15z" />
    <glyph glyph-name="uniFEF9" unicode="&#xfedf;&#xfe88;" horiz-adv-x="626" arabic-form="isolated" 
d="M547 64q-40 -34 -100 -49t-166 -15h-181l3 42q113 73 183.5 134t111.5 125q-72 84 -187 173l-142 109l48 19l131 -106q106 -86 170 -159q45 89 45 220q0 33 -1 51l-7 132l45 5l4 -140l1 -30q0 -154 -61 -269q91 -116 103 -242zM281 44q88 0 141.5 9.5t85.5 30.5
q-11 88 -86 186q-41 -61 -104 -116.5t-152 -109.5h115zM287 -215l-190 -31l-1 27l68 11q-24 17 -37.5 37t-13.5 40q0 32 23 53.5t67 21.5q31 0 58 -15l-8 -28q-27 15 -52 15q-31 0 -45 -14t-14 -34q0 -18 14 -36.5t40 -34.5l90 15z" />
    <glyph glyph-name="uniFEFA" unicode="&#xfee0;&#xfe88;" horiz-adv-x="633" arabic-form="final" 
d="M653 23l-20 -23q-40 0 -71 21t-45 63q-32 -43 -92.5 -63.5t-153.5 -20.5h-190l-12 47h208q88 0 141 16l-304 486l53 9l29 -48q188 -307 252 -435q17 8 30 19.5t27 28.5l-18 617l46 6l10 -582q1 -63 24.5 -90t69.5 -27zM288 -215l-190 -31l-1 27l68 11q-24 17 -37.5 37
t-13.5 40q0 32 23 53.5t67 21.5q31 0 58 -15l-8 -28q-27 15 -52 15q-31 0 -45 -14t-14 -34q0 -18 14 -36.5t40 -34.5l90 15z" />
    <glyph glyph-name="uniFEFB" unicode="&#xfedf;&#xfe8e;" horiz-adv-x="626" arabic-form="isolated" 
d="M547 64q-40 -34 -100 -49t-166 -15h-181l3 42q113 73 183.5 134t111.5 125q-72 84 -187 173l-142 109l48 19l131 -106q106 -86 170 -159q45 89 45 220q0 33 -1 51l-7 132l45 5l4 -140l1 -30q0 -154 -61 -269q91 -116 103 -242zM281 44q88 0 141.5 9.5t85.5 30.5
q-11 88 -86 186q-41 -61 -104 -116.5t-152 -109.5h115z" />
    <glyph glyph-name="uniFEFC" unicode="&#xfee0;&#xfe8e;" horiz-adv-x="633" arabic-form="final" 
d="M653 23l-20 -23q-40 0 -71 21t-45 63q-32 -43 -92.5 -63.5t-153.5 -20.5h-190l-12 47h208q88 0 141 16l-304 486l53 9l29 -48q188 -307 252 -435q17 8 30 19.5t27 28.5l-18 617l46 6l10 -582q1 -63 24.5 -90t69.5 -27z" />
    <glyph glyph-name="f_f" unicode="ff" horiz-adv-x="609" 
d="M502 609l-12 -87h141l-11 -39h-136l-65 -470q-7 -57 -22 -92.5t-38.5 -58.5t-62.5 -45l-16 34q42 26 63.5 60.5t30.5 103.5l65 468h-248l-66 -470q-9 -67 -27.5 -105.5t-48 -61t-82.5 -46.5l-15 35q42 20 65.5 39t39 52t23.5 89l65 468h-90l6 39h90l11 81q8 61 52.5 94.5
t119.5 33.5q78 0 158 -39q41 49 121 49q60 0 116 -35l-20 -32q-26 15 -48 21.5t-47 6.5q-98 0 -112 -93zM457 613q4 25 14 48q-74 32 -136 32q-59 0 -90 -22.5t-38 -71.5l-11 -77h248z" />
    <glyph glyph-name="f_f_i" unicode="ffi" horiz-adv-x="853" 
d="M708 0h-47l68 483h-245l-65 -470q-7 -57 -22 -92.5t-38.5 -58.5t-62.5 -45l-16 34q42 26 63.5 60.5t30.5 103.5l65 468h-248l-66 -470q-9 -67 -27.5 -105.5t-48 -61t-82.5 -46.5l-15 35q42 20 65.5 39t39 52t23.5 89l65 468h-90l6 39h90l11 81q8 61 52.5 94.5t119.5 33.5
q80 0 158 -39q44 49 132 49q71 0 134 -41l-20 -32q-57 35 -115 35q-54 0 -84 -23t-37 -71l-12 -87h292zM457 613q5 27 15 48q-76 32 -137 32q-59 0 -90 -22.5t-38 -71.5l-11 -77h248z" />
    <glyph glyph-name="f_f_j" unicode="ffj" horiz-adv-x="857" 
d="M713 13q-8 -57 -22.5 -92.5t-38 -58.5t-62.5 -45l-16 34q42 25 63.5 60t30.5 104l66 468h-250l-65 -470q-7 -57 -22 -92.5t-38.5 -58.5t-62.5 -45l-16 34q42 26 63.5 60.5t30.5 103.5l65 468h-248l-66 -470q-9 -67 -27.5 -105.5t-48 -61t-82.5 -46.5l-15 35
q42 20 65.5 39t39 52t23.5 89l65 468h-90l6 39h90l11 81q8 61 52.5 94.5t119.5 33.5q80 0 158 -39q44 49 132 49q71 0 134 -41l-20 -32q-57 35 -115 35q-54 0 -84 -23t-37 -71l-12 -87h296zM457 613q5 27 15 48q-76 32 -137 32q-59 0 -90 -22.5t-38 -71.5l-11 -77h248z" />
    <glyph glyph-name="f_f_l" unicode="ffl" horiz-adv-x="874" 
d="M795 38l11 -36q-29 -13 -56 -13q-37 0 -57 19t-20 57q0 6 2 24l83 588q-38 13 -68 19t-69 6q-52 0 -82 -22.5t-37 -70.5l-12 -87h141l-11 -39h-136l-65 -470q-7 -57 -22 -92.5t-38.5 -58.5t-62.5 -45l-16 34q42 26 63.5 60.5t30.5 103.5l65 468h-248l-66 -470
q-9 -67 -27.5 -105.5t-48 -61t-82.5 -46.5l-15 35q42 20 65.5 39t39 52t23.5 89l65 468h-90l6 39h90l11 81q8 61 52.5 94.5t119.5 33.5q78 0 158 -39q44 49 130 49q77 0 143 -27l44 6l-89 -637q-1 -6 -1 -16q0 -19 8.5 -28t28.5 -9q15 0 39 8zM457 613q5 27 15 48
q-76 32 -137 32q-59 0 -90 -22.5t-38 -71.5l-11 -77h248z" />
    <glyph glyph-name="f_j" unicode="fj" horiz-adv-x="563" 
d="M419 13q-8 -57 -22.5 -92.5t-38 -58.5t-62.5 -45l-16 34q42 26 63.5 60.5t30.5 103.5l66 468h-250l-65 -470q-9 -67 -27.5 -105.5t-48 -61t-82.5 -46.5l-15 35q42 20 65.5 39t39 52t23.5 89l65 468h-90l6 39h89l13 91q9 61 52 94.5t114 33.5q72 0 135 -41l-20 -32
q-58 35 -115 35q-54 0 -84 -23t-37 -71l-12 -87h296z" />
    <glyph glyph-name="uni0E240E45" unicode="&#xe24;&#xe45;" horiz-adv-x="916" 
d="M788.5 542.5q43.5 -37.5 43.5 -111.5q0 -24 -2 -37h-2l-56 -395l-27 -195l-45 7l26 188l58 406h1q1 7 1 21q0 59 -31.5 86t-104.5 27q-69 0 -148 -21q34 -40 34 -103q0 -16 -3 -36l-34 -244l-19 -135l-28 -195l-44 7l26 188l53 379q3 20 3 35q0 60 -35 88t-103 28
q-122 0 -206 -87q76 -11 145 -44l-6 -39q-68 -7 -100 -41.5t-40 -94.5l-20 -139q-1 -5 -1 -13q0 -42 45 -42q21 0 37 5.5t19 6.5l8 -35q-38 -18 -73 -18q-39 0 -60.5 20.5t-21.5 58.5q0 6 2 20l19 139q9 64 45 105.5t102 49.5q-78 30 -150 36l6 34q107 118 252 118
q75 0 118 -27q101 37 182 37q91 0 134.5 -37.5z" />
    <glyph glyph-name="uni0E260E45" unicode="&#xe26;&#xe45;" horiz-adv-x="909" 
d="M780.5 542.5q43.5 -37.5 43.5 -111.5q0 -24 -2 -37h-2l-55 -395l-28 -195l-44 7l26 188l57 406h1q1 8 1 23q0 58 -31.5 84.5t-103.5 26.5q-69 0 -148 -21q34 -40 34 -103q0 -16 -3 -36l-35 -244l-19 -135l-27 -195l-45 7l26 188l54 379q3 20 3 35q0 60 -34.5 88
t-102.5 28q-118 0 -202 -87q76 -11 145 -44l-6 -40q-45 -7 -70 -26t-36 -46.5t-17 -70.5l-14 -102q-6 -41 -15.5 -66t-29.5 -39.5t-56 -14.5q-12 0 -21 1l1 35h10q25 0 37 9t17.5 27t10.5 57l15 103q9 65 36.5 103.5t93.5 51.5q-76 31 -151 37l6 34q38 44 98.5 81t149.5 37
q72 0 117 -27q99 37 181 37q91 0 134.5 -37.5z" />
    <glyph glyph-name="uni06440671" unicode="&#xfedf;&#xfb51;" horiz-adv-x="626" 
d="M547 64q-40 -34 -100 -49t-166 -15h-181l3 42q113 73 183.5 134t111.5 125q-72 84 -187 173l-142 109l48 19l131 -106q106 -86 170 -159q45 89 45 220q0 33 -1 51l-7 132l45 5l4 -140l1 -30q0 -154 -61 -269q91 -116 103 -242zM281 44q88 0 141.5 9.5t85.5 30.5
q-11 88 -86 186q-41 -61 -104 -116.5t-152 -109.5h115zM213.5 807.5q17.5 -17.5 17.5 -44.5q0 -36 -29 -54.5t-76 -18.5q-30 0 -85 17l-17 -40l-25 9l23 65q11 -4 33 -10q22 47 51 70.5t60 23.5q30 0 47.5 -17.5zM184 729q19 10 19 31q0 35 -40 35q-23 0 -45 -18.5
t-41 -50.5q28 -7 55 -7q33 0 52 10z" />
    <glyph glyph-name="uni06440671.fina" unicode="&#xfee0;&#xfb51;" horiz-adv-x="633" 
d="M653 23l-20 -23q-40 0 -71 21t-45 63q-32 -43 -92.5 -63.5t-153.5 -20.5h-190l-12 47h208q88 0 141 16l-304 486l53 9l29 -48q188 -307 252 -435q17 8 30 19.5t27 28.5l-18 617l46 6l10 -582q1 -63 24.5 -90t69.5 -27zM251.5 747.5q17.5 -17.5 17.5 -44.5
q0 -36 -29 -54.5t-76 -18.5q-30 0 -85 17l-17 -40l-25 9l23 65q11 -4 33 -10q22 47 51 70.5t60 23.5q30 0 47.5 -17.5zM222 669q19 10 19 31q0 35 -40 35q-23 0 -45 -18.5t-41 -50.5q28 -7 55 -7q33 0 52 10z" />
    <glyph glyph-name="uni0E1B0E31" unicode="&#xe1b;&#xe31;" horiz-adv-x="605" 
d="M555 666l-15 -105l-50 -361q-13 -98 -69.5 -153.5t-158.5 -55.5q-84 0 -126.5 44t-42.5 122q0 22 3 46l32 231q3 24 3 46q0 44 -12 78l43 3q17 -40 17 -81q0 -22 -4 -46l-33 -230q-3 -22 -3 -43q0 -63 31 -97t94 -34q156 0 181 177l49 354l14 101q-14 -1 -40 -1
q-50 0 -77 15.5t-27 51.5q0 29 15 64h38q-14 -36 -14 -58q0 -20 17 -29.5t55 -9.5q25 0 38 1l12 84l45 -6l-10 -74q72 9 132 25l3 -34q-66 -18 -140 -25z" />
    <glyph glyph-name="uni0E1B0E49" unicode="&#xe1b;&#xe49;" horiz-adv-x="605" 
d="M570 774l-30 -213l-50 -361q-13 -98 -69.5 -153.5t-158.5 -55.5q-84 0 -126.5 44t-42.5 122q0 22 3 46l32 231q3 24 3 46q0 44 -12 78l43 3q17 -40 17 -81q0 -22 -4 -46l-33 -230q-3 -22 -3 -43q0 -63 31 -97t94 -34q156 0 181 177l72 520q-42 -37 -104 -52t-161 -17
l-8 19q21 24 31 42t10 36q0 35 -41 35q-12 0 -39 -5l-2 30q24 8 48 8q33 0 54 -16.5t21 -46.5q0 -34 -28 -69q84 3 135.5 23.5t90.5 65.5h1z" />
    <glyph glyph-name="uni0E1B0E4A" unicode="&#xe1b;&#xe4a;" horiz-adv-x="605" 
d="M570 774l-30 -213l-50 -361q-13 -98 -69.5 -153.5t-158.5 -55.5q-84 0 -126.5 44t-42.5 122q0 22 3 46l32 231q3 24 3 46q0 44 -12 78l43 3q17 -40 17 -81q0 -22 -4 -46l-33 -230q-3 -22 -3 -43q0 -63 31 -97t94 -34q156 0 181 177l49 354l22 156q-29 -31 -63.5 -44
t-76.5 -13q-24 0 -42 5q17 47 17 80q0 44 -41 44q-28 0 -48 -24t-27 -65l-4 -22l-39 -4l4 30q2 18 2 25q0 29 -12 44.5t-35 15.5q-35 0 -49.5 -26t-14.5 -64q0 -24 1 -36h-36q-3 15 -3 37q0 56 25 89.5t73 33.5q39 0 56 -21t19 -49q10 29 33 49.5t60 20.5t56.5 -20t19.5 -53
q0 -26 -14 -60q46 0 84.5 23.5t63.5 66.5z" />
    <glyph glyph-name="uni0E1B0E4B" unicode="&#xe1b;&#xe4b;" horiz-adv-x="605" 
d="M570 774l-30 -213l-50 -361q-13 -98 -69.5 -153.5t-158.5 -55.5q-84 0 -126.5 44t-42.5 122q0 22 3 46l32 231q3 24 3 46q0 44 -12 78l43 3q17 -40 17 -81q0 -22 -4 -46l-33 -230q-3 -22 -3 -43q0 -63 31 -97t94 -34q156 0 181 177l49 354l31 219zM461 730h-73l-10 -67
h-39l10 67h-76l8 33h73l8 58l39 5l-9 -63h73z" />
    <glyph glyph-name="uni0E1B0E4C" unicode="&#xe1b;&#xe4c;" horiz-adv-x="605" 
d="M652 712h-91l-21 -151l-50 -361q-13 -98 -69.5 -153.5t-158.5 -55.5q-84 0 -126.5 44t-42.5 122q0 22 3 46l32 231q3 24 3 46q0 44 -12 78l43 3q17 -40 17 -81q0 -22 -4 -46l-33 -230q-3 -22 -3 -43q0 -63 31 -97t94 -34q156 0 181 177l49 354l21 151h-68
q-34 0 -47 -13.5t-13 -39.5q0 -21 1 -37h-38q-3 20 -3 38q0 86 99 86h74l5 34l45 -6l-4 -28h90z" />
    <glyph glyph-name="uni0E1B0E4D" unicode="&#xe1b;&#xe4d;" horiz-adv-x="605" 
d="M570 774l-30 -213l-50 -361q-13 -98 -69.5 -153.5t-158.5 -55.5q-84 0 -126.5 44t-42.5 122q0 22 3 46l32 231q3 24 3 46q0 44 -12 78l43 3q17 -40 17 -81q0 -22 -4 -46l-33 -230q-3 -22 -3 -43q0 -63 31 -97t94 -34q156 0 181 177l49 354l31 219zM312.5 678
q-21.5 20 -21.5 53q0 38 24.5 66.5t69.5 28.5q36 0 57.5 -20t21.5 -53q0 -37 -25 -66t-70 -29q-35 0 -56.5 20zM413 709.5q14 18.5 14 42.5q0 21 -11 31.5t-32 10.5q-29 0 -43 -18.5t-14 -43.5q0 -20 11.5 -30.5t31.5 -10.5q29 0 43 18.5z" />
    <glyph glyph-name="uni0E1D0E31" unicode="&#xe1d;&#xe31;" horiz-adv-x="728" 
d="M678 666l-15 -105l-50 -357q-16 -113 -60.5 -164t-110.5 -51q-51 0 -79.5 30.5t-27.5 91.5q-18 -60 -51 -91t-87 -31q-57 0 -88.5 37t-31.5 116q0 26 5 66l14 97q13 97 34 154t54.5 84t85.5 27q34 0 63 -13l-11 -33q-21 8 -51 8q-56 0 -84.5 -53.5t-45.5 -176.5l-13 -96
q-5 -42 -5 -65q0 -60 21 -85.5t59 -25.5q98 0 118 150l17 119l47 5l-19 -127q-4 -36 -4 -47q0 -53 21 -76.5t56 -23.5q103 0 128 176l50 355l14 101q-14 -1 -40 -1q-50 0 -77 15.5t-27 51.5q0 29 15 64h38q-14 -36 -14 -58q0 -20 17 -29.5t55 -9.5q25 0 38 1l12 84l45 -6
l-10 -74q74 9 132 25l3 -34q-66 -18 -140 -25z" />
    <glyph glyph-name="uni0E1D0E49" unicode="&#xe1d;&#xe49;" horiz-adv-x="728" 
d="M693 774l-30 -213l-50 -357q-16 -113 -60.5 -164t-110.5 -51q-51 0 -79.5 30.5t-27.5 91.5q-18 -60 -51 -91t-87 -31q-57 0 -88.5 37t-31.5 116q0 26 5 66l14 97q13 97 34 154t54.5 84t85.5 27q34 0 63 -13l-11 -33q-21 8 -51 8q-56 0 -84.5 -53.5t-45.5 -176.5l-13 -96
q-5 -42 -5 -65q0 -60 21 -85.5t59 -25.5q98 0 118 150l17 119l47 5l-19 -127q-4 -36 -4 -47q0 -53 21 -76.5t56 -23.5q103 0 128 176l50 355l24 166q-43 -36 -105 -51.5t-161 -17.5l-8 19q21 24 31 42t10 36q0 35 -41 35q-12 0 -39 -5l-2 30q24 8 48 8q33 0 54 -16.5
t21 -46.5q0 -34 -28 -69q84 3 135.5 23.5t90.5 65.5h1z" />
    <glyph glyph-name="uni0E1D0E4A" unicode="&#xe1d;&#xe4a;" horiz-adv-x="728" 
d="M693 774l-30 -213l-50 -357q-16 -113 -60.5 -164t-110.5 -51q-51 0 -79.5 30.5t-27.5 91.5q-18 -60 -51 -91t-87 -31q-57 0 -88.5 37t-31.5 116q0 26 5 66l14 97q13 97 34 154t54.5 84t85.5 27q34 0 63 -13l-11 -33q-21 8 -51 8q-56 0 -84.5 -53.5t-45.5 -176.5l-13 -96
q-5 -42 -5 -65q0 -60 21 -85.5t59 -25.5q98 0 118 150l17 119l47 5l-19 -127q-4 -36 -4 -47q0 -53 21 -76.5t56 -23.5q103 0 128 176l72 511q-29 -31 -63.5 -44t-76.5 -13q-23 0 -43 5q18 44 18 80q0 44 -41 44q-28 0 -48 -24t-27 -65l-4 -22l-39 -4l4 30q2 16 2 24
q0 29 -12 45t-35 16q-35 0 -49.5 -26t-14.5 -64q0 -24 1 -36h-36q-3 15 -3 37q0 56 25 89.5t73 33.5q39 0 56 -21t19 -49q10 29 33 49.5t60 20.5t56 -20t19 -53q0 -28 -13 -60q46 0 84.5 23.5t63.5 66.5z" />
    <glyph glyph-name="uni0E1D0E4B" unicode="&#xe1d;&#xe4b;" horiz-adv-x="728" 
d="M693 774l-30 -213l-50 -357q-16 -113 -60.5 -164t-110.5 -51q-51 0 -79.5 30.5t-27.5 91.5q-18 -60 -51 -91t-87 -31q-57 0 -88.5 37t-31.5 116q0 26 5 66l14 97q13 97 34 154t54.5 84t85.5 27q34 0 63 -13l-11 -33q-21 8 -51 8q-56 0 -84.5 -53.5t-45.5 -176.5l-13 -96
q-5 -42 -5 -65q0 -60 21 -85.5t59 -25.5q98 0 118 150l17 119l47 5l-19 -127q-4 -36 -4 -47q0 -53 21 -76.5t56 -23.5q103 0 128 176l50 355l31 219zM584 730h-73l-10 -67h-39l10 67h-76l8 33h73l8 58l39 5l-9 -63h73z" />
    <glyph glyph-name="uni0E1D0E4C" unicode="&#xe1d;&#xe4c;" horiz-adv-x="728" 
d="M774 712h-90l-21 -151l-50 -357q-16 -113 -60.5 -164t-110.5 -51q-51 0 -79.5 30.5t-27.5 91.5q-18 -60 -51 -91t-87 -31q-57 0 -88.5 37t-31.5 116q0 26 5 66l14 97q13 97 34 154t54.5 84t85.5 27q34 0 63 -13l-11 -33q-21 8 -51 8q-56 0 -84.5 -53.5t-45.5 -176.5
l-13 -96q-5 -42 -5 -65q0 -60 21 -85.5t59 -25.5q98 0 118 150l17 119l47 5l-19 -127q-4 -36 -4 -47q0 -53 21 -76.5t56 -23.5q103 0 128 176l50 355l21 151h-68q-34 0 -47 -13.5t-13 -39.5q0 -21 1 -37h-38q-3 20 -3 38q0 86 99 86h74l5 34l45 -6l-4 -28h90z" />
    <glyph glyph-name="uni0E1D0E4D" unicode="&#xe1d;&#xe4d;" horiz-adv-x="728" 
d="M693 774l-30 -213l-50 -357q-16 -113 -60.5 -164t-110.5 -51q-51 0 -79.5 30.5t-27.5 91.5q-18 -60 -51 -91t-87 -31q-57 0 -88.5 37t-31.5 116q0 26 5 66l14 97q13 97 34 154t54.5 84t85.5 27q34 0 63 -13l-11 -33q-21 8 -51 8q-56 0 -84.5 -53.5t-45.5 -176.5l-13 -96
q-5 -42 -5 -65q0 -60 21 -85.5t59 -25.5q98 0 118 150l17 119l47 5l-19 -127q-4 -36 -4 -47q0 -53 21 -76.5t56 -23.5q103 0 128 176l50 355l31 219zM435.5 678q-21.5 20 -21.5 53q0 38 24.5 66.5t69.5 28.5q36 0 57.5 -20t21.5 -53q0 -37 -25 -66t-70 -29q-35 0 -56.5 20z
M536 709.5q14 18.5 14 42.5q0 21 -11 31.5t-32 10.5q-29 0 -43 -18.5t-14 -43.5q0 -20 11.5 -30.5t31.5 -10.5q29 0 43 18.5z" />
    <glyph glyph-name="uni0E1F0E31" unicode="&#xe1f;&#xe31;" horiz-adv-x="762" 
d="M765 664l-33 -103l-181 -561h-60l-77 511l-220 -511h-58l-13 404q-2 59 -11 94.5t-25 61.5l41 7q17 -21 26.5 -60.5t11.5 -109.5l8 -353l222 517h52l78 -517l161 517l32 100h-24q-50 0 -77 15.5t-27 51.5q0 29 15 64h38q-14 -36 -14 -58q0 -20 16.5 -29.5t55.5 -9.5
q18 0 28 1l27 84h46l-26 -81q71 6 142 26l3 -34q-78 -21 -157 -27z" />
    <glyph glyph-name="uni0E1F0E49" unicode="&#xe1f;&#xe49;" horiz-adv-x="752" 
d="M803 780l-71 -219l-181 -561h-60l-77 511l-220 -511h-58l-13 404q-2 59 -11 94.5t-25 61.5l41 7q17 -21 26.5 -60.5t11.5 -109.5l8 -353l222 517h52l78 -517l161 517l29 92q11 32 24 67q-42 -32 -101 -46t-148 -16l-9 18q21 24 31 42t10 37q0 35 -41 35q-12 0 -39 -5
l-2 30q26 8 48 8q34 0 54.5 -16.5t20.5 -47.5q0 -36 -28 -67q79 3 130.5 23.5t90.5 64.5h46z" />
    <glyph glyph-name="uni0E1F0E4A" unicode="&#xe1f;&#xe4a;" horiz-adv-x="752" 
d="M803 780l-71 -219l-181 -561h-60l-77 511l-220 -511h-58l-13 404q-2 59 -11 94.5t-25 61.5l41 7q17 -21 26.5 -60.5t11.5 -109.5l8 -353l222 517h52l78 -517l161 517l28 87l19 55q-48 -43 -122 -43q-20 0 -42 5q18 44 18 80q0 44 -41 44q-29 0 -48.5 -23.5t-26.5 -65.5
l-4 -22l-39 -4l4 29q2 16 2 24q0 30 -12 46t-36 16q-63 0 -63 -96q0 -16 1 -30h-36q-3 17 -3 42q0 54 25.5 86t72.5 32q39 0 56 -21t19 -49q10 29 33 49.5t61 20.5q36 0 55 -20t19 -53q0 -28 -13 -60q45 0 83 23.5t60 66.5h46z" />
    <glyph glyph-name="uni0E1F0E4B" unicode="&#xe1f;&#xe4b;" horiz-adv-x="752" 
d="M803 780l-71 -219l-181 -561h-60l-77 511l-220 -511h-58l-13 404q-2 59 -11 94.5t-25 61.5l41 7q17 -21 26.5 -60.5t11.5 -109.5l8 -353l222 517h52l78 -517l161 517l70 219h46zM686 730h-73l-10 -67h-39l10 67h-76l8 33h73l8 58l39 5l-9 -63h73z" />
    <glyph glyph-name="uni0E1F0E4C" unicode="&#xe1f;&#xe4c;" horiz-adv-x="762" 
d="M878 712h-97l-49 -151l-181 -561h-60l-77 511l-220 -511h-58l-13 404q-2 59 -11 94.5t-25 61.5l41 7q17 -21 26.5 -60.5t11.5 -109.5l8 -353l222 517h52l78 -517l161 517l48 151h-62q-33 0 -46 -13.5t-13 -39.5q0 -21 1 -37h-39q-2 26 -2 38q0 86 99 86h73l11 34h46
l-11 -34h91z" />
    <glyph glyph-name="uni0E1F0E4D" unicode="&#xe1f;&#xe4d;" horiz-adv-x="752" 
d="M803 780l-71 -219l-181 -561h-60l-77 511l-220 -511h-58l-13 404q-2 59 -11 94.5t-25 61.5l41 7q17 -21 26.5 -60.5t11.5 -109.5l8 -353l222 517h52l78 -517l161 517l70 219h46zM537.5 678q-21.5 20 -21.5 53q0 38 24.5 66.5t69.5 28.5q36 0 57.5 -20t21.5 -53
q0 -37 -25 -66t-70 -29q-35 0 -56.5 20zM638 709.5q14 18.5 14 42.5q0 21 -11 31.5t-32 10.5q-29 0 -43 -18.5t-14 -43.5q0 -20 11.5 -30.5t31.5 -10.5q29 0 43 18.5z" />
    <glyph glyph-name="uni0E310E4A" unicode="&#xe31;&#xe4a;" 
d="M-417 729q0 35 15 63h38q-14 -35 -14 -58q0 -20 16 -29t52 -9q45 0 101 8.5t106 25.5l4 -35q-55 -18 -113 -26.5t-104 -8.5q-101 0 -101 69zM69 964q-34 -61 -76.5 -88.5t-109.5 -27.5q-20 0 -32 3q6 17 11 38t5 35q0 40 -37 40q-26 0 -44 -21.5t-23 -57.5l-3 -22l-36 -3
l4 27q2 16 2 22q0 55 -44 55q-30 0 -43 -22.5t-13 -55.5q0 -20 2 -36h-33q-3 27 -3 37q0 46 22.5 76.5t65.5 30.5q35 0 50 -18.5t17 -43.5q9 25 29.5 43.5t54.5 18.5q33 0 50.5 -18t17.5 -48q0 -26 -12 -53q55 1 88.5 28.5t57.5 71.5z" />
    <glyph glyph-name="uni0620.init" unicode="&#x620;" horiz-adv-x="254" 
d="M180.5 17.5q12.5 -18.5 12.5 -42.5q0 -32 -21 -53.5t-54 -21.5t-55 21.5t-22 53.5q0 14 5 29q-20 -4 -46 -4l-20 24l24 23q41 0 80.5 14t63.5 39q0 66 -15 137t-38 136l46 15q47 -145 47 -273q0 -21 -11 -39t-30 -32q21 -8 33.5 -26.5zM153 -59.5q12 12.5 12 34.5
q0 21 -13 33t-34 12q-22 0 -35 -12t-13 -33t12.5 -34t35.5 -13t35 12.5z" />
    <glyph glyph-name="uni0620.medi" unicode="&#x620;" horiz-adv-x="301" 
d="M133 41q22 -8 36 -27t14 -44q0 -31 -21 -52.5t-55 -21.5q-33 0 -55 21.5t-22 52.5q0 15 7 33q-19 -3 -38 -3l-19 22l23 25q43 0 79 14t52 41l-24 213h48l16 -208q16 -27 51.5 -43.5t79.5 -16.5l16 -24l-20 -23q-51 0 -88.5 18t-56.5 47q-8 -13 -23 -24zM141.5 3.5
q-13.5 12.5 -34.5 12.5q-22 0 -35 -12t-13 -34q0 -21 12.5 -33.5t35.5 -12.5t35.5 12.5t12.5 33.5t-13.5 33.5z" />
    <glyph glyph-name="uni0620.fina" unicode="&#x620;" horiz-adv-x="707" 
d="M707 0q-55 0 -119 27q30 -33 30 -87q0 -21 -32.5 -50t-91.5 -53t-135 -31q18 -21 18 -50q0 -31 -21 -52.5t-55 -21.5q-33 0 -55 21.5t-22 52.5q0 29 19 51q-96 13 -141.5 70t-45.5 147q0 91 40 179l32 -10q-15 -41 -23 -80t-8 -84q0 -179 207 -179q108 0 178 28.5
t100 55.5q-1 39 -16 64t-56 46t-121 44l27 39q64 -20 119 -40q61 -22 97 -31t79 -9l16 -24zM336.5 -277.5q12.5 12.5 12.5 33.5t-13.5 33.5t-34.5 12.5t-34.5 -12.5t-13.5 -33.5t13 -33.5t35 -12.5q23 0 35.5 12.5z" />
    <glyph glyph-name="uni063B.init" unicode="&#x63b;" horiz-adv-x="457" 
d="M399 700l-350 -232q119 -79 197.5 -169.5t96.5 -185.5q-16 -28 -63 -54t-119.5 -42.5t-160.5 -16.5l-20 23l24 24q112 0 184.5 22t108.5 52q-15 80 -95 164.5t-198 162.5l9 43l388 259zM39 738l33 41l39 -32l-33 -41zM-75 730l33 41l40 -32l-34 -41z" />
    <glyph glyph-name="uni063B.medi" unicode="&#x63b;" horiz-adv-x="531" 
d="M551 24l-20 -24q-50 0 -87 15.5t-71 48t-83 93.5q-34 -73 -103 -115t-187 -42l-20 23l24 24q98 0 163.5 36t97.5 105l-209 260l10 42l388 260l-3 -49l-354 -236l156 -194q84 -105 124 -148t74 -59.5t84 -16.5zM84 738l33 41l39 -32l-33 -41zM-30 730l33 41l40 -32
l-34 -41z" />
    <glyph glyph-name="uni063B.fina" unicode="&#x63b;" horiz-adv-x="960" 
d="M980 24l-20 -24q-49 0 -86 15.5t-71.5 48t-82.5 93.5q-36 -79 -124 -124.5t-266 -45.5q-143 0 -208.5 45t-65.5 139q0 77 36 150l32 -11q-27 -67 -27 -135q0 -73 55.5 -106.5t182.5 -33.5q156 0 241 39.5t118 114.5l-208 259l9 42l388 260l-3 -49l-354 -236l156 -194
q84 -105 124 -148t74.5 -59.5t84.5 -16.5zM502 738l33 41l39 -32l-33 -41zM388 730l33 41l40 -32l-34 -41z" />
    <glyph glyph-name="uni063C.init" unicode="&#x63c;" horiz-adv-x="457" 
d="M399 700l-350 -232q119 -79 197.5 -169.5t96.5 -185.5q-16 -28 -63 -54t-119.5 -42.5t-160.5 -16.5l-20 23l24 24q112 0 184.5 22t108.5 52q-15 80 -95 164.5t-198 162.5l9 43l388 259zM147 -139l32 39l37 -31l-32 -39zM37 -147l32 39l37 -31l-32 -39zM101 -233l31 39
l38 -31l-32 -39z" />
    <glyph glyph-name="uni063C.medi" unicode="&#x63c;" horiz-adv-x="531" 
d="M551 24l-20 -24q-50 0 -87 15.5t-71 48t-83 93.5q-34 -73 -103 -115t-187 -42l-20 23l24 24q98 0 163.5 36t97.5 105l-209 260l10 42l388 260l-3 -49l-354 -236l156 -194q84 -105 124 -148t74 -59.5t84 -16.5zM223 -139l32 39l37 -31l-32 -39zM113 -147l32 39l37 -31
l-32 -39zM177 -233l31 39l38 -31l-32 -39z" />
    <glyph glyph-name="uni063C.fina" unicode="&#x63c;" horiz-adv-x="960" 
d="M980 24l-20 -24q-49 0 -86 15.5t-71.5 48t-82.5 93.5q-36 -79 -124 -124.5t-266 -45.5q-143 0 -208.5 45t-65.5 139q0 77 36 150l32 -11q-27 -67 -27 -135q0 -73 55.5 -106.5t182.5 -33.5q156 0 241 39.5t118 114.5l-208 259l9 42l388 260l-3 -49l-354 -236l156 -194
q84 -105 124 -148t74.5 -59.5t84.5 -16.5zM384 -139l32 39l37 -31l-32 -39zM274 -147l32 39l37 -31l-32 -39zM338 -233l31 39l38 -31l-32 -39z" />
    <glyph glyph-name="uni066E.init" unicode="&#x66e;" horiz-adv-x="254" 
d="M-20 24l24 23q41 0 80.5 14t63.5 39q0 66 -15 137t-38 136l46 15q47 -145 47 -273q0 -33 -27.5 -59.5t-71 -41t-89.5 -14.5z" />
    <glyph glyph-name="uni066E.medi" unicode="&#x66e;" horiz-adv-x="301" 
d="M321 23l-20 -23q-51 0 -88.5 18t-56.5 47q-22 -34 -66.5 -49.5t-90.5 -15.5l-19 22l23 25q43 0 79 14t52 41l-24 213h48l16 -208q16 -27 51.5 -43.5t79.5 -16.5z" />
    <glyph glyph-name="uni066E.fina" unicode="&#x66e;" horiz-adv-x="891" 
d="M911 24l-20 -24q-107 0 -155 84q-72 -48 -170 -72.5t-236 -24.5q-143 0 -208.5 45t-65.5 139q0 77 36 150l32 -11q-27 -67 -27 -135q0 -73 55.5 -106.5t182.5 -33.5t226 24t159 66l-37 190h48l24 -157q8 -51 37.5 -81t103.5 -30z" />
    <glyph glyph-name="uni066F.init" unicode="&#x66f;" horiz-adv-x="451" 
d="M294.5 506q39.5 -33 64.5 -110.5t25 -203.5v-34q0 -37 -42.5 -73.5t-129.5 -60.5t-212 -24l-20 24l24 23q138 0 216.5 25t122.5 64q2 61 1 86q-21 -18 -51.5 -27t-64.5 -9q-51 0 -93.5 21.5t-67 58.5t-24.5 83q0 48 24 92t62 71t79 27q47 0 86.5 -33zM293.5 237
q27.5 7 49.5 19q-8 127 -45.5 181.5t-91.5 54.5q-30 0 -58.5 -20t-47 -52.5t-18.5 -67.5q0 -56 44 -89t114 -33q26 0 53.5 7z" />
    <glyph glyph-name="uni066F.medi" unicode="&#x66f;" horiz-adv-x="468" 
d="M488 23l-20 -23h-28q-50 0 -101.5 10.5t-96.5 29.5q-94 -40 -220 -40h-22l-20 23l24 24h23q90 0 164 19q-56 34 -88.5 80.5t-32.5 102.5q0 51 24 96.5t62.5 73t78.5 27.5q42 0 82 -27.5t65 -73.5t25 -98q0 -51 -29.5 -98t-84.5 -82q71 -20 147 -20h32zM146 151
q36 -41 97 -67q60 26 92 66.5t32 91.5q0 42 -19.5 78t-50 57.5t-61.5 21.5t-60 -21t-47.5 -57t-18.5 -77q0 -52 36 -93z" />
    <glyph glyph-name="uni066F.fina" unicode="&#x66f;" horiz-adv-x="750" 
d="M750 0h-98v-32q-1 -46 -36 -95t-103 -81.5t-161 -32.5q-162 0 -229 57.5t-67 163.5q0 89 40 179l32 -10q-15 -42 -23 -80.5t-8 -83.5q0 -85 57 -132t202 -47q96 0 159.5 36t93.5 86q1 26 1 72h-90q-95 0 -151.5 46.5t-56.5 122.5q0 47 24 90.5t62.5 70.5t78.5 27
q70 0 118 -70t56 -240h103l16 -24zM397.5 79q46.5 -32 133.5 -32h78q-11 263 -134 263q-30 0 -58.5 -20t-47 -52.5t-18.5 -66.5q0 -60 46.5 -92z" />
    <glyph glyph-name="uni0676.fina" unicode="&#x676;" horiz-adv-x="517" 
d="M433 552l-190 -31l-1 27l68 11q-24 17 -37.5 37t-13.5 40q0 32 23 53.5t67 21.5q31 0 58 -15l-8 -28q-27 15 -52 15q-31 0 -45 -14t-14 -34q0 -18 14 -36.5t40 -34.5l90 15zM517 0h-96q-39 -200 -348 -252l-17 47q150 24 226 76.5t96 128.5h-70q-72 0 -123.5 21t-78.5 58
t-27 84q0 48 24 92t63 71t79 27q43 0 85 -34.5t69 -101.5t27 -159v-11h95l16 -24zM386 47q0 86 -21.5 144.5t-53.5 86.5t-67 28q-30 0 -59 -20t-47.5 -53t-18.5 -68q0 -56 47.5 -87t139.5 -31h80z" />
    <glyph glyph-name="uni0677.fina" unicode="&#x677;" horiz-adv-x="517" 
d="M517 0h-96q-39 -200 -348 -252l-17 47q150 24 226 76.5t96 128.5h-70q-72 0 -123.5 21t-78.5 58t-27 84q0 48 24 92t63 71t79 27q43 0 85 -34.5t69 -101.5t27 -159v-11h95l16 -24zM386 47q0 86 -21.5 144.5t-53.5 86.5t-67 28q-30 0 -59 -20t-47.5 -53t-18.5 -68
q0 -56 47.5 -87t139.5 -31h80zM348 453l-190 -31l-1 27l68 11q-24 17 -37.5 37t-13.5 40q0 32 23 53.5t67 21.5q31 0 58 -15l-8 -28q-27 15 -52 15q-31 0 -45 -14t-14 -34q0 -18 14 -36.5t40 -34.5l90 15zM314.5 822.5q18.5 -21.5 18.5 -54.5q0 -42 -42 -82.5t-111 -66.5
l-12 25q52 18 89 46q-37 13 -54 34t-17 46q0 34 22 54t52 20q36 0 54.5 -21.5zM306 766q0 21 -11.5 35t-34.5 14q-20 0 -33 -12.5t-13 -33.5q0 -41 64 -60q28 28 28 57z" />
    <glyph glyph-name="uni0678.init" unicode="&#x678;" horiz-adv-x="254" 
d="M249 592l-190 -31l-1 27l68 11q-24 17 -37.5 37t-13.5 40q0 32 23 53.5t67 21.5q31 0 58 -15l-8 -28q-27 15 -52 15q-31 0 -45 -14t-14 -34q0 -18 14 -36.5t40 -34.5l90 15zM-20 24l24 23q41 0 80.5 14t63.5 39q0 66 -15 137t-38 136l46 15q47 -145 47 -273
q0 -33 -27.5 -59.5t-71 -41t-89.5 -14.5z" />
    <glyph glyph-name="uni0678.medi" unicode="&#x678;" horiz-adv-x="301" 
d="M293 522l-191 -31v27l67 11q-24 17 -37.5 37t-13.5 40q0 32 23 53.5t67 21.5q32 0 59 -15l-8 -28q-29 15 -52 15q-31 0 -45 -14t-14 -34q0 -18 14 -36.5t40 -34.5l90 15zM321 23l-20 -23q-51 0 -88.5 18t-56.5 47q-22 -34 -66.5 -49.5t-90.5 -15.5l-19 22l23 25
q43 0 79 14t52 41l-24 213h48l16 -208q16 -27 51.5 -43.5t79.5 -16.5z" />
    <glyph glyph-name="uni0678.fina" unicode="&#x678;" horiz-adv-x="707" 
d="M707 0q-55 0 -119 27q30 -33 30 -87q0 -24 -40.5 -57t-113 -56.5t-164.5 -23.5q-126 0 -185 59t-59 162q0 91 40 179l32 -10q-15 -41 -23 -80t-8 -84q0 -179 207 -179q108 0 178 28.5t100 55.5q-1 39 -16 64t-56 46t-121 44l27 39q64 -20 119 -40q61 -22 97 -31t79 -9
l16 -24zM577 303l-190 -31l-1 27l68 11q-24 17 -37.5 37t-13.5 40q0 32 23 53.5t67 21.5q31 0 58 -15l-8 -28q-27 15 -52 15q-31 0 -45 -14t-14 -34q0 -18 14 -36.5t40 -34.5l90 15z" />
    <glyph glyph-name="uni067C.init" unicode="&#x67c;" horiz-adv-x="254" 
d="M144 492l-39 32l33 41l39 -33zM31 483l-40 32l33 41l40 -32zM174 10.5q14 -18.5 14 -44.5q0 -32 -21 -53t-55 -21q-33 0 -54.5 21t-21.5 53q0 22 10 38q-20 -4 -46 -4l-20 24l24 23q41 0 80.5 14t63.5 39q0 66 -15 137t-38 136l46 15q47 -145 47 -273q0 -45 -51 -78
q23 -8 37 -26.5zM148 -68q12 12 12 34t-13 34t-35 12q-21 0 -34 -12.5t-13 -33.5t12.5 -33.5t34.5 -12.5q24 0 36 12z" />
    <glyph glyph-name="uni067C.medi" unicode="&#x67c;" horiz-adv-x="301" 
d="M168 419l-39 32l33 41l39 -33zM55 410l-40 32l33 41l40 -32zM134 41q23 -7 37.5 -26t14.5 -45q0 -31 -21 -52.5t-55 -21.5q-33 0 -55 21.5t-22 52.5q0 15 7 33q-21 -3 -41 -3l-19 22l23 25q43 0 79 14t52 41l-24 213h48l16 -208q16 -27 51.5 -43.5t79.5 -16.5l16 -24
l-20 -23q-51 0 -88.5 18t-56.5 47q-10 -14 -22 -24zM144.5 3.5q-13.5 12.5 -34.5 12.5q-22 0 -35 -12t-13 -34q0 -21 12.5 -33.5t35.5 -12.5t35.5 12.5t12.5 33.5t-13.5 33.5z" />
    <glyph glyph-name="uni067C.fina" unicode="&#x67c;" horiz-adv-x="891" 
d="M445 397l-39 32l33 41l39 -32zM331 389l-39 32l33 41l40 -32zM911 24l-20 -24q-107 0 -155 84q-61 -40 -139.5 -63.5t-183.5 -30.5q18 -21 18 -50q0 -32 -21 -53t-55 -21q-33 0 -55 21t-22 53q0 28 17 48q-124 5 -181.5 50t-57.5 133q0 77 36 150l32 -11
q-27 -67 -27 -135q0 -73 55.5 -106.5t182.5 -33.5t226 24t159 66l-37 190h48l24 -157q8 -51 37.5 -81t103.5 -30zM391 -94q12 12 12 34t-13 34t-35 12q-21 0 -34.5 -12.5t-13.5 -33.5t13 -33.5t35 -12.5q24 0 36 12z" />
    <glyph glyph-name="uni067D.init" unicode="&#x67d;" horiz-adv-x="254" 
d="M-20 24l24 23q41 0 80.5 14t63.5 39q0 66 -15 137t-38 136l46 15q47 -145 47 -273q0 -33 -27.5 -59.5t-71 -41t-89.5 -14.5zM125 614l32 39l37 -31l-32 -39zM15 606l32 38l37 -30l-32 -39zM79 520l31 39l38 -31l-32 -39z" />
    <glyph glyph-name="uni067D.medi" unicode="&#x67d;" horiz-adv-x="301" 
d="M321 23l-20 -23q-51 0 -88.5 18t-56.5 47q-22 -34 -66.5 -49.5t-90.5 -15.5l-19 22l23 25q43 0 79 14t52 41l-24 213h48l16 -208q16 -27 51.5 -43.5t79.5 -16.5zM149 541l32 39l37 -31l-32 -39zM39 533l32 38l37 -30l-32 -39zM103 447l31 39l38 -31l-32 -39z" />
    <glyph glyph-name="uni067D.fina" unicode="&#x67d;" horiz-adv-x="896" 
d="M911 24l-20 -24q-107 0 -155 84q-72 -48 -170 -72.5t-236 -24.5q-143 0 -208.5 45t-65.5 139q0 77 36 150l32 -11q-27 -67 -27 -135q0 -73 55.5 -106.5t182.5 -33.5t226 24t159 66l-37 190h48l24 -157q8 -51 37.5 -81t103.5 -30zM432 520l32 39l37 -31l-32 -39zM322 512
l32 38l37 -30l-32 -39zM386 426l31 39l38 -31l-32 -39z" />
    <glyph glyph-name="uni0681.init" unicode="&#x681;" horiz-adv-x="674" 
d="M327.5 403.5q52.5 -28.5 137.5 -90.5q37 -27 80 -56t82 -51l-6 -39l-25 -3q-66 -8 -128 -27.5t-150 -54.5q-99 -41 -170.5 -61.5t-147.5 -20.5l-20 24l24 23q72 0 135.5 17.5t158.5 54.5q82 31 138.5 49.5t124.5 31.5q-42 27 -107 72q-87 61 -136 87t-99 26
q-54 0 -101 -36l-20 40q29 23 58 33t65 10q54 0 106.5 -28.5zM314 526l-190 -31l-1 27l68 11q-24 17 -37.5 37t-13.5 40q0 32 23 53.5t67 21.5q31 0 58 -15l-8 -28q-27 15 -52 15q-31 0 -45 -14t-14 -34q0 -18 14 -36.5t40 -34.5l90 15z" />
    <glyph glyph-name="uni0681.medi" unicode="&#x681;" horiz-adv-x="753" 
d="M773 23l-20 -23q-93 0 -161.5 46.5t-92.5 144.5q-49 -11 -95 -32.5t-113 -58.5q-91 -50 -154.5 -75t-136.5 -25l-20 23l24 24q67 0 124 21.5t139 65.5q80 42 139 66.5t131 33.5q-45 17 -81.5 36.5t-82.5 47.5q-60 36 -96 51.5t-78 15.5q-54 0 -101 -36l-19 41
q29 22 57.5 32t64.5 10q46 0 86.5 -18.5t108.5 -60.5q56 -36 105 -62t109 -47l-6 -43l-38 -1q-11 0 -29 -2q26 -85 81.5 -118t138.5 -33zM314 527l-190 -31l-1 27l68 11q-24 17 -37.5 37t-13.5 40q0 32 23 53.5t67 21.5q31 0 58 -15l-8 -28q-27 15 -52 15q-31 0 -45 -14
t-14 -34q0 -18 14 -36.5t40 -34.5l90 15z" />
    <glyph glyph-name="uni0681.fina" unicode="&#x681;" horiz-adv-x="687" 
d="M270.5 123q-81.5 -48 -125.5 -113t-44 -136q0 -77 51 -126.5t160 -49.5q58 0 116.5 11.5t108.5 31.5l18 -42q-51 -23 -115 -36t-133 -13q-127 0 -186.5 63.5t-59.5 158.5q0 90 59.5 169.5t165 132.5t239.5 67l-78 46q-92 54 -139 75.5t-95 21.5q-28 0 -56.5 -9t-51.5 -26
l-19 40q56 42 125 42q52 0 102.5 -23.5t129.5 -73.5q97 -59 148 -85l-7 -40l-23 -2q-42 -4 -66 -8q18 -87 64.5 -119.5t132.5 -32.5l15 -24l-20 -23q-96 0 -153 45.5t-74 147.5q-108 -22 -189.5 -70zM321 526l-190 -31l-1 27l68 11q-24 17 -37.5 37t-13.5 40q0 32 23 53.5
t67 21.5q31 0 58 -15l-8 -28q-27 15 -52 15q-31 0 -45 -14t-14 -34q0 -18 14 -36.5t40 -34.5l90 15z" />
    <glyph glyph-name="uni0682.init" unicode="&#x682;" horiz-adv-x="674" 
d="M327.5 403.5q52.5 -28.5 137.5 -90.5q37 -27 80 -56t82 -51l-6 -39l-25 -3q-66 -8 -128 -27.5t-150 -54.5q-99 -41 -170.5 -61.5t-147.5 -20.5l-20 24l24 23q72 0 135.5 17.5t158.5 54.5q82 31 138.5 49.5t124.5 31.5q-42 27 -107 72q-87 61 -136 87t-99 26
q-54 0 -101 -36l-20 40q29 23 58 33t65 10q54 0 106.5 -28.5zM164 635l33 41l39 -33l-33 -40zM185 527l33 40l40 -32l-34 -40z" />
    <glyph glyph-name="uni0682.medi" unicode="&#x682;" horiz-adv-x="753" 
d="M773 23l-20 -23q-93 0 -161.5 46.5t-92.5 144.5q-49 -11 -95 -32.5t-113 -58.5q-91 -50 -154.5 -75t-136.5 -25l-20 23l24 24q67 0 124 21.5t139 65.5q80 42 139 66.5t131 33.5q-45 17 -81.5 36.5t-82.5 47.5q-60 36 -96 51.5t-78 15.5q-54 0 -101 -36l-19 41
q29 22 57.5 32t64.5 10q46 0 86.5 -18.5t108.5 -60.5q56 -36 105 -62t109 -47l-6 -43l-38 -1q-11 0 -29 -2q26 -85 81.5 -118t138.5 -33zM163 636l33 41l39 -33l-33 -40zM184 528l33 40l40 -32l-34 -40z" />
    <glyph glyph-name="uni0682.fina" unicode="&#x682;" horiz-adv-x="687" 
d="M270.5 123q-81.5 -48 -125.5 -113t-44 -136q0 -77 51 -126.5t160 -49.5q58 0 116.5 11.5t108.5 31.5l18 -42q-51 -23 -115 -36t-133 -13q-127 0 -186.5 63.5t-59.5 158.5q0 90 59.5 169.5t165 132.5t239.5 67l-78 46q-92 54 -139 75.5t-95 21.5q-28 0 -56.5 -9t-51.5 -26
l-19 40q56 42 125 42q52 0 102.5 -23.5t129.5 -73.5q97 -59 148 -85l-7 -40l-23 -2q-42 -4 -66 -8q18 -87 64.5 -119.5t132.5 -32.5l15 -24l-20 -23q-96 0 -153 45.5t-74 147.5q-108 -22 -189.5 -70zM171 635l33 41l39 -33l-33 -40zM192 527l33 40l40 -32l-34 -40z" />
    <glyph glyph-name="uni0685.init" unicode="&#x685;" horiz-adv-x="674" 
d="M327.5 403.5q52.5 -28.5 137.5 -90.5q37 -27 80 -56t82 -51l-6 -39l-25 -3q-66 -8 -128 -27.5t-150 -54.5q-99 -41 -170.5 -61.5t-147.5 -20.5l-20 24l24 23q72 0 135.5 17.5t158.5 54.5q82 31 138.5 49.5t124.5 31.5q-42 27 -107 72q-87 61 -136 87t-99 26
q-54 0 -101 -36l-20 40q29 23 58 33t65 10q54 0 106.5 -28.5zM235 657l-31 -39l-38 31l32 39zM299 572l-32 -39l-37 30l31 39zM189 564l-32 -40l-37 31l31 39z" />
    <glyph glyph-name="uni0685.medi" unicode="&#x685;" horiz-adv-x="753" 
d="M773 23l-20 -23q-93 0 -161.5 46.5t-92.5 144.5q-49 -11 -95 -32.5t-113 -58.5q-91 -50 -154.5 -75t-136.5 -25l-20 23l24 24q67 0 124 21.5t139 65.5q80 42 139 66.5t131 33.5q-45 17 -81.5 36.5t-82.5 47.5q-60 36 -96 51.5t-78 15.5q-54 0 -101 -36l-19 41
q29 22 57.5 32t64.5 10q46 0 86.5 -18.5t108.5 -60.5q56 -36 105 -62t109 -47l-6 -43l-38 -1q-11 0 -29 -2q26 -85 81.5 -118t138.5 -33zM235 658l-31 -39l-38 31l32 39zM299 573l-32 -39l-37 30l31 39zM189 565l-32 -40l-37 31l31 39z" />
    <glyph glyph-name="uni0685.fina" unicode="&#x685;" horiz-adv-x="687" 
d="M270.5 123q-81.5 -48 -125.5 -113t-44 -136q0 -77 51 -126.5t160 -49.5q58 0 116.5 11.5t108.5 31.5l18 -42q-51 -23 -115 -36t-133 -13q-127 0 -186.5 63.5t-59.5 158.5q0 90 59.5 169.5t165 132.5t239.5 67l-78 46q-92 54 -139 75.5t-95 21.5q-28 0 -56.5 -9t-51.5 -26
l-19 40q56 42 125 42q52 0 102.5 -23.5t129.5 -73.5q97 -59 148 -85l-7 -40l-23 -2q-42 -4 -66 -8q18 -87 64.5 -119.5t132.5 -32.5l15 -24l-20 -23q-96 0 -153 45.5t-74 147.5q-108 -22 -189.5 -70zM242 657l-31 -39l-38 31l32 39zM306 572l-32 -39l-37 30l31 39zM196 564
l-32 -40l-37 31l31 39z" />
    <glyph glyph-name="uni0689.fina" unicode="&#x689;" horiz-adv-x="513" 
d="M533 23l-20 -23q-44 0 -75 18t-48 49q-52 -56 -135 -73q22 -22 22 -53q0 -32 -21 -53.5t-55 -21.5q-33 0 -55 21.5t-22 53.5q0 28 17 48q-56 5 -114 25l17 46q67 -23 139 -23q58 0 107 17t83 48l-157 368l48 22l134 -347q21 -55 45.5 -76.5t72.5 -21.5zM236.5 -93
q12.5 13 12.5 34t-13 33t-35 12t-35 -12t-13 -33t13 -34t35 -13q23 0 35.5 13z" />
    <glyph glyph-name="uni068A.fina" unicode="&#x68a;" horiz-adv-x="513" 
d="M533 23l-20 -23q-44 0 -75 18t-48 49q-35 -38 -88.5 -59t-121.5 -21q-74 0 -153 27l17 46q67 -23 139 -23q58 0 107 17t83 48l-157 368l48 22l134 -347q21 -55 45.5 -76.5t72.5 -21.5zM167 -136l37 45l46 -38l-37 -46z" />
    <glyph glyph-name="uni068B.fina" unicode="&#x68b;" horiz-adv-x="513" 
d="M533 23l-20 -23q-44 0 -75 18t-48 49q-35 -38 -88.5 -59t-121.5 -21q-74 0 -153 27l17 46q67 -23 139 -23q58 0 107 17t83 48l-157 368l48 22l134 -347q21 -55 45.5 -76.5t72.5 -21.5zM167 -136l37 45l46 -38l-37 -46zM283 694q18 -23 18 -63q0 -13 -10 -28t-31 -25.5
t-51 -10.5h-132l3 27h21l17 28l-7 147h26v-117q24 34 47 49.5t50 15.5q31 0 49 -23zM278 623q0 35 -11.5 50.5t-35.5 15.5q-28 0 -54.5 -24t-52.5 -71h74q57 0 80 29z" />
    <glyph glyph-name="uni068F.fina" unicode="&#x68f;" horiz-adv-x="513" 
d="M533 23l-20 -23q-44 0 -75 18t-48 49q-35 -38 -88.5 -59t-121.5 -21q-74 0 -153 27l17 46q67 -23 139 -23q58 0 107 17t83 48l-157 368l48 22l134 -347q21 -55 45.5 -76.5t72.5 -21.5zM203 728l32 39l37 -31l-32 -39zM93 720l32 38l37 -30l-32 -39zM157 634l31 39l38 -31
l-32 -39z" />
    <glyph glyph-name="uni0690.fina" unicode="&#x690;" horiz-adv-x="513" 
d="M533 23l-20 -23q-44 0 -75 18t-48 49q-35 -38 -88.5 -59t-121.5 -21q-74 0 -153 27l17 46q67 -23 139 -23q58 0 107 17t83 48l-157 368l48 22l134 -347q21 -55 45.5 -76.5t72.5 -21.5zM176 703l31 38l37 -30l-31 -38zM70 695l31 38l37 -30l-31 -38zM196 599l31 38l37 -30
l-31 -38zM90 591l31 38l37 -30l-31 -38z" />
    <glyph glyph-name="uni0692.fina" unicode="&#x692;" horiz-adv-x="417" 
d="M417 0q-30 0 -50.5 5.5t-37.5 19.5q-36 -77 -126 -148t-227 -132l-21 48q137 57 222 122.5t123 133.5q-11 45 -33.5 111.5t-43.5 116.5l48 20q14 -39 55 -185q11 -39 32 -52t63 -13l16 -24zM231 409l68 116l23 -10l-77 -139h-29l-76 139l23 10z" />
    <glyph glyph-name="uni0693.fina" unicode="&#x693;" horiz-adv-x="417" 
d="M204 -122q27 -5 44.5 -25t17.5 -49q0 -31 -21 -52.5t-54 -21.5t-55 21.5t-22 52.5q0 8 1 12q-52 -32 -139 -71l-21 48q137 57 222 122.5t123 133.5q-11 45 -33.5 111.5t-43.5 116.5l48 20q14 -39 55 -185q11 -39 32 -52t63 -13l16 -24l-20 -23q-30 0 -50.5 5.5
t-37.5 19.5q-36 -76 -125 -147zM225 -162.5q-13 12.5 -34 12.5q-22 0 -35 -12t-13 -34q0 -21 12.5 -33.5t35.5 -12.5t35 12.5t12 33.5t-13 33.5z" />
    <glyph glyph-name="uni0694.fina" unicode="&#x694;" horiz-adv-x="417" 
d="M417 0q-30 0 -50.5 5.5t-37.5 19.5q-36 -77 -126 -148t-227 -132l-21 48q137 57 222 122.5t123 133.5q-11 45 -33.5 111.5t-43.5 116.5l48 20q14 -39 55 -185q11 -39 32 -52t63 -13l16 -24zM187 -306l37 45l46 -38l-37 -46z" />
    <glyph glyph-name="uni0695.fina" unicode="&#x695;" horiz-adv-x="417" 
d="M417 0q-30 0 -50.5 5.5t-37.5 19.5q-36 -77 -126 -148t-227 -132l-21 48q137 57 222 122.5t123 133.5q-11 45 -33.5 111.5t-43.5 116.5l48 20q14 -39 55 -185q11 -39 32 -52t63 -13l16 -24zM237 -355l68 116l23 -10l-77 -139h-29l-76 139l23 10z" />
    <glyph glyph-name="uni0696.fina" unicode="&#x696;" horiz-adv-x="417" 
d="M417 0q-30 0 -50.5 5.5t-37.5 19.5q-36 -77 -126 -148t-227 -132l-21 48q137 57 222 122.5t123 133.5q-11 45 -33.5 111.5t-43.5 116.5l48 20q14 -39 55 -185q11 -39 32 -52t63 -13l16 -24zM187 -306l37 45l46 -38l-37 -46zM179 447l36 45l46 -39l-36 -45z" />
    <glyph glyph-name="uni0697.fina" unicode="&#x697;" horiz-adv-x="417" 
d="M417 0q-30 0 -50.5 5.5t-37.5 19.5q-36 -77 -126 -148t-227 -132l-21 48q137 57 222 122.5t123 133.5q-11 45 -33.5 111.5t-43.5 116.5l48 20q14 -39 55 -185q11 -39 32 -52t63 -13l16 -24zM226 452l33 41l39 -32l-33 -41zM112 444l33 41l40 -32l-34 -41z" />
    <glyph glyph-name="uni0699.fina" unicode="&#x699;" horiz-adv-x="417" 
d="M417 0q-30 0 -50.5 5.5t-37.5 19.5q-36 -77 -126 -148t-227 -132l-21 48q137 57 222 122.5t123 133.5q-11 45 -33.5 111.5t-43.5 116.5l48 20q14 -39 55 -185q11 -39 32 -52t63 -13l16 -24zM219 518l31 38l37 -30l-31 -38zM113 510l31 38l37 -30l-31 -38zM239 414l31 38
l37 -30l-31 -38zM133 406l31 38l37 -30l-31 -38z" />
    <glyph glyph-name="uni069A.init" unicode="&#x69a;" horiz-adv-x="744" 
d="M662.5 252q15.5 -66 15.5 -147q0 -31 -20.5 -55t-53 -37t-65.5 -13q-46 0 -79.5 17t-51.5 46q-17 -32 -52 -47.5t-72 -15.5q-46 0 -78.5 17t-50.5 46q-34 -63 -156 -63l-19 22l23 25q55 0 87 13.5t42 41.5l-23 213h47l17 -208q17 -28 46 -44t69 -16q33 0 60 14t37 41
l-23 213h47l17 -208q16 -27 45.5 -43.5t70.5 -16.5q30 0 57 11.5t40 28.5q-1 80 -19 146t-50 137l47 17q30 -69 45.5 -135zM359 -136l37 45l46 -38l-37 -46zM333 445l36 45l46 -39l-36 -45z" />
    <glyph glyph-name="uni069A.medi" unicode="&#x69a;" horiz-adv-x="821" 
d="M821 0q-99 0 -162 53q-19 -25 -51 -39t-70 -14q-46 0 -79 17t-51 46q-17 -32 -52 -47.5t-72 -15.5q-46 0 -78.5 17t-50.5 46q-34 -63 -156 -63l-19 22l23 25q55 0 87 13.5t42 41.5l-23 213h47l17 -208q17 -28 46 -44t69 -16q33 0 60 14t37 41l-23 213h47l17 -208
q16 -27 45.5 -43.5t69.5 -16.5q30 0 56.5 11.5t39.5 28.5q-6 69 -17 135t-29 154l49 11q14 -78 22.5 -145t12.5 -149q29 -22 63 -34t87 -12l16 -24zM362 -136l37 45l46 -38l-37 -46zM333 445l36 45l46 -39l-36 -45z" />
    <glyph glyph-name="uni069A.fina" unicode="&#x69a;" horiz-adv-x="1224" 
d="M1223 0q-101 0 -162 53q-20 -26 -51 -39.5t-70 -13.5q-46 0 -79 17t-51 46q-17 -32 -52 -47.5t-72 -15.5h-1q-23 0 -46 7.5t-40 22.5q2 -28 2 -57q0 -56 -40 -105.5t-109 -79t-152 -29.5q-126 0 -185 59t-59 162q0 89 40 179l32 -10q-15 -42 -23 -80.5t-8 -83.5
q0 -179 207 -179q87 0 153.5 35.5t103.5 88.5q1 12 1 34q0 66 -13 122t-30 95t-46 97l47 20q48 -119 67 -188q13 -36 38.5 -49.5t64.5 -13.5q33 0 60 14t37 41l-24 213h48l16 -208q16 -27 46 -43.5t69 -16.5q31 0 57.5 11.5t39.5 28.5q-6 70 -16.5 134.5t-28.5 154.5l50 11
q13 -79 21 -145.5t13 -148.5q28 -22 61.5 -34t87.5 -12l16 -24zM767 -136l37 45l46 -38l-37 -46zM737 445l36 45l46 -39l-36 -45z" />
    <glyph glyph-name="uni069B.init" unicode="&#x69b;" horiz-adv-x="744" 
d="M662.5 252q15.5 -66 15.5 -147q0 -31 -20.5 -55t-53 -37t-65.5 -13q-46 0 -79.5 17t-51.5 46q-17 -32 -52 -47.5t-72 -15.5q-46 0 -78.5 17t-50.5 46q-34 -63 -156 -63l-19 22l23 25q55 0 87 13.5t42 41.5l-23 213h47l17 -208q17 -28 46 -44t69 -16q33 0 60 14t37 41
l-23 213h47l17 -208q16 -27 45.5 -43.5t70.5 -16.5q30 0 57 11.5t40 28.5q-1 80 -19 146t-50 137l47 17q30 -69 45.5 -135zM426 -139l32 39l37 -31l-32 -39zM316 -147l32 39l37 -31l-32 -39zM380 -233l31 39l38 -31l-32 -39z" />
    <glyph glyph-name="uni069B.medi" unicode="&#x69b;" horiz-adv-x="821" 
d="M821 0q-99 0 -162 53q-19 -25 -51 -39t-70 -14q-46 0 -79 17t-51 46q-17 -32 -52 -47.5t-72 -15.5q-46 0 -78.5 17t-50.5 46q-34 -63 -156 -63l-19 22l23 25q55 0 87 13.5t42 41.5l-23 213h47l17 -208q17 -28 46 -44t69 -16q33 0 60 14t37 41l-23 213h47l17 -208
q16 -27 45.5 -43.5t69.5 -16.5q30 0 56.5 11.5t39.5 28.5q-6 69 -17 135t-29 154l49 11q14 -78 22.5 -145t12.5 -149q29 -22 63 -34t87 -12l16 -24zM429 -139l32 39l37 -31l-32 -39zM319 -147l32 39l37 -31l-32 -39zM383 -233l31 39l38 -31l-32 -39z" />
    <glyph glyph-name="uni069B.fina" unicode="&#x69b;" horiz-adv-x="1224" 
d="M1223 0q-101 0 -162 53q-20 -26 -51 -39.5t-70 -13.5q-46 0 -79 17t-51 46q-17 -32 -52 -47.5t-72 -15.5h-1q-23 0 -46 7.5t-40 22.5q2 -28 2 -57q0 -56 -40 -105.5t-109 -79t-152 -29.5q-126 0 -185 59t-59 162q0 89 40 179l32 -10q-15 -42 -23 -80.5t-8 -83.5
q0 -179 207 -179q87 0 153.5 35.5t103.5 88.5q1 12 1 34q0 66 -13 122t-30 95t-46 97l47 20q48 -119 67 -188q13 -36 38.5 -49.5t64.5 -13.5q33 0 60 14t37 41l-24 213h48l16 -208q16 -27 46 -43.5t69 -16.5q31 0 57.5 11.5t39.5 28.5q-6 70 -16.5 134.5t-28.5 154.5l50 11
q13 -79 21 -145.5t13 -148.5q28 -22 61.5 -34t87.5 -12l16 -24zM834 -139l32 39l37 -31l-32 -39zM724 -147l32 39l37 -31l-32 -39zM788 -233l31 39l38 -31l-32 -39z" />
    <glyph glyph-name="uni069C.init" unicode="&#x69c;" horiz-adv-x="744" 
d="M662.5 252q15.5 -66 15.5 -147q0 -31 -20.5 -55t-53 -37t-65.5 -13q-46 0 -79.5 17t-51.5 46q-17 -32 -52 -47.5t-72 -15.5q-46 0 -78.5 17t-50.5 46q-34 -63 -156 -63l-19 22l23 25q55 0 87 13.5t42 41.5l-23 213h47l17 -208q17 -28 46 -44t69 -16q33 0 60 14t37 41
l-23 213h47l17 -208q16 -27 45.5 -43.5t70.5 -16.5q30 0 57 11.5t40 28.5q-1 80 -19 146t-50 137l47 17q30 -69 45.5 -135zM403 553l-31 -39l-38 31l32 39zM467 468l-32 -39l-37 30l31 39zM357 460l-32 -40l-37 31l31 39zM426 -139l32 39l37 -31l-32 -39zM316 -147l32 39
l37 -31l-32 -39zM380 -233l31 39l38 -31l-32 -39z" />
    <glyph glyph-name="uni069C.medi" unicode="&#x69c;" horiz-adv-x="821" 
d="M821 0q-99 0 -162 53q-19 -25 -51 -39t-70 -14q-46 0 -79 17t-51 46q-17 -32 -52 -47.5t-72 -15.5q-46 0 -78.5 17t-50.5 46q-34 -63 -156 -63l-19 22l23 25q55 0 87 13.5t42 41.5l-23 213h47l17 -208q17 -28 46 -44t69 -16q33 0 60 14t37 41l-23 213h47l17 -208
q16 -27 45.5 -43.5t69.5 -16.5q30 0 56.5 11.5t39.5 28.5q-6 69 -17 135t-29 154l49 11q14 -78 22.5 -145t12.5 -149q29 -22 63 -34t87 -12l16 -24zM403 553l-31 -39l-38 31l32 39zM467 468l-32 -39l-37 30l31 39zM357 460l-32 -40l-37 31l31 39zM429 -139l32 39l37 -31
l-32 -39zM319 -147l32 39l37 -31l-32 -39zM383 -233l31 39l38 -31l-32 -39z" />
    <glyph glyph-name="uni069C.fina" unicode="&#x69c;" horiz-adv-x="1224" 
d="M1223 0q-101 0 -162 53q-20 -26 -51 -39.5t-70 -13.5q-46 0 -79 17t-51 46q-17 -32 -52 -47.5t-72 -15.5h-1q-23 0 -46 7.5t-40 22.5q2 -28 2 -57q0 -56 -40 -105.5t-109 -79t-152 -29.5q-126 0 -185 59t-59 162q0 89 40 179l32 -10q-15 -42 -23 -80.5t-8 -83.5
q0 -179 207 -179q87 0 153.5 35.5t103.5 88.5q1 12 1 34q0 66 -13 122t-30 95t-46 97l47 20q48 -119 67 -188q13 -36 38.5 -49.5t64.5 -13.5q33 0 60 14t37 41l-24 213h48l16 -208q16 -27 46 -43.5t69 -16.5q31 0 57.5 11.5t39.5 28.5q-6 70 -16.5 134.5t-28.5 154.5l50 11
q13 -79 21 -145.5t13 -148.5q28 -22 61.5 -34t87.5 -12l16 -24zM805 553l-31 -39l-38 31l32 39zM869 468l-32 -39l-37 30l31 39zM759 460l-32 -40l-37 31l31 39zM834 -139l32 39l37 -31l-32 -39zM724 -147l32 39l37 -31l-32 -39zM788 -233l31 39l38 -31l-32 -39z" />
    <glyph glyph-name="uni069D.init" unicode="&#x69d;" horiz-adv-x="899" 
d="M787.5 344q45.5 -60 45.5 -187q0 -80 -95.5 -118.5t-303.5 -38.5h-141q-50 0 -87 18t-55 47q-21 -33 -64 -49t-88 -16l-19 22l23 25q41 0 76 14.5t50 40.5l-20 272h47l14 -261q12 -26 40 -43.5t65 -21.5q76 163 176 259.5t206 96.5q85 0 130.5 -60zM792 166
q0 101 -37 146t-95 45q-94 0 -179 -78.5t-166 -231.5h119q115 0 184 9t106 25t66 43q2 30 2 42zM171 -138l33 41l40 -32l-34 -41zM58 -146l33 40l39 -32l-33 -40z" />
    <glyph glyph-name="uni069D.medi" unicode="&#x69d;" horiz-adv-x="937" 
d="M957 23l-20 -23q-42 0 -75.5 22.5t-55.5 60.5q-37 -42 -128.5 -62.5t-243.5 -20.5h-141q-50 0 -87 18t-55 47q-21 -33 -64 -49t-88 -16l-19 22l23 25q41 0 76 14.5t50 40.5l-20 272h47l14 -261q12 -26 40 -43.5t65 -21.5q76 163 176 259.5t206 96.5q85 0 130.5 -60
t45.5 -187q0 -21 -6 -39q17 -31 48 -51t66 -20zM792 166q0 101 -37 146t-95 45q-94 0 -179 -78.5t-166 -231.5h119q115 0 184 9t106 25t66 43q2 30 2 42zM171 -138l33 41l40 -32l-34 -41zM58 -146l33 40l39 -32l-33 -40z" />
    <glyph glyph-name="uni069D.fina" unicode="&#x69d;" horiz-adv-x="1330" 
d="M1350 23l-20 -23q-42 0 -75 22t-55 61q-38 -42 -129 -62.5t-243 -20.5h-142q-56 0 -87 30q2 -28 2 -57q0 -56 -40 -105.5t-109 -79t-152 -29.5q-126 0 -185 59t-59 162q0 89 40 179l32 -10q-15 -42 -23 -80.5t-8 -83.5q0 -179 207 -179q87 0 153.5 35.5t103.5 88.5
q1 12 1 34q0 66 -13 122t-30 95t-46 97l47 20q48 -119 67 -188q11 -30 31.5 -44.5t50.5 -17.5q75 163 175.5 259.5t205.5 96.5q85 0 131 -60t46 -187q0 -22 -7 -40q18 -30 49 -50t66 -20zM1185 163q0 103 -37 148.5t-94 45.5q-94 0 -179 -78t-167 -232h120q115 0 183.5 9
t106 25t66.5 43q1 14 1 39zM330 -367l33 41l40 -32l-34 -41zM217 -375l33 40l39 -32l-33 -40z" />
    <glyph glyph-name="uni069E.init" unicode="&#x69e;" horiz-adv-x="899" 
d="M588 576l-38 31l32 39l37 -31zM614 521l32 39l37 -30l-32 -39zM541 482l-37 31l32 39l37 -30zM787.5 344q45.5 -60 45.5 -187q0 -80 -95.5 -118.5t-303.5 -38.5h-141q-50 0 -87 18t-55 47q-21 -33 -64 -49t-88 -16l-19 22l23 25q41 0 76 14.5t50 40.5l-20 272h47l14 -261
q12 -26 40 -43.5t65 -21.5q76 163 176 259.5t206 96.5q85 0 130.5 -60zM792 166q0 101 -37 146t-95 45q-94 0 -179 -78.5t-166 -231.5h119q115 0 184 9t106 25t66 43q2 30 2 42z" />
    <glyph glyph-name="uni069E.medi" unicode="&#x69e;" horiz-adv-x="937" 
d="M588 576l-38 31l32 39l37 -31zM614 521l32 39l37 -30l-32 -39zM541 482l-37 31l32 39l37 -30zM957 23l-20 -23q-42 0 -75.5 22.5t-55.5 60.5q-37 -42 -128.5 -62.5t-243.5 -20.5h-141q-50 0 -87 18t-55 47q-21 -33 -64 -49t-88 -16l-19 22l23 25q41 0 76 14.5t50 40.5
l-20 272h47l14 -261q12 -26 40 -43.5t65 -21.5q76 163 176 259.5t206 96.5q85 0 130.5 -60t45.5 -187q0 -21 -6 -39q17 -31 48 -51t66 -20zM792 166q0 101 -37 146t-95 45q-94 0 -179 -78.5t-166 -231.5h119q115 0 184 9t106 25t66 43q2 30 2 42z" />
    <glyph glyph-name="uni069E.fina" unicode="&#x69e;" horiz-adv-x="1330" 
d="M981 576l-37 31l31 39l38 -31zM1007 521l32 39l37 -30l-31 -39zM935 482l-38 31l32 39l38 -30zM1350 23l-20 -23q-42 0 -75 22t-55 61q-38 -42 -129 -62.5t-243 -20.5h-142q-56 0 -87 30q2 -28 2 -57q0 -56 -40 -105.5t-109 -79t-152 -29.5q-126 0 -185 59t-59 162
q0 89 40 179l32 -10q-15 -42 -23 -80.5t-8 -83.5q0 -179 207 -179q87 0 153.5 35.5t103.5 88.5q1 12 1 34q0 66 -13 122t-30 95t-46 97l47 20q48 -119 67 -188q11 -30 31.5 -44.5t50.5 -17.5q75 163 175.5 259.5t205.5 96.5q85 0 131 -60t46 -187q0 -22 -7 -40
q18 -30 49 -50t66 -20zM1185 163q0 103 -37 148.5t-94 45.5q-94 0 -179 -78t-167 -232h120q115 0 183.5 9t106 25t66.5 43q1 14 1 39z" />
    <glyph glyph-name="uni069F.init" unicode="&#x69f;" horiz-adv-x="756" 
d="M644 346q46 -58 46 -175q0 -90 -94.5 -130.5t-304.5 -40.5h-291l-20 23l24 24h128q20 43 49 95l-17 597l47 6l9 -541q66 95 141.5 147.5t152.5 52.5q84 0 130 -58zM616 308.5q-37 48.5 -99 48.5q-94 0 -179 -78.5t-166 -231.5h119q120 0 190.5 10.5t107.5 31.5t62 57
q2 114 -35 162.5zM479 618l-31 -39l-38 31l32 39zM543 533l-32 -39l-37 30l31 39zM433 525l-32 -40l-37 31l31 39z" />
    <glyph glyph-name="uni069F.medi" unicode="&#x69f;" horiz-adv-x="791" 
d="M811 23l-20 -23q-42 0 -75.5 22.5t-56.5 61.5q-38 -43 -127.5 -63.5t-240.5 -20.5h-291l-20 23l24 24h128q20 43 49 95l-17 597l47 6l9 -541q66 95 141.5 147.5t152.5 52.5q84 0 130 -58t46 -175q0 -29 -9 -52q17 -31 48 -51.5t66 -20.5zM481.5 57.5
q70.5 10.5 107.5 31.5t62 57q2 114 -35 162.5t-99 48.5q-94 0 -179 -78.5t-166 -231.5h119q120 0 190.5 10.5zM479 618l-31 -39l-38 31l32 39zM543 533l-32 -39l-37 30l31 39zM433 525l-32 -40l-37 31l31 39z" />
    <glyph glyph-name="uni069F.fina" unicode="&#x69f;" horiz-adv-x="801" 
d="M821 23l-20 -23q-42 0 -76 23t-56 61q-38 -43 -128 -63.5t-240 -20.5h-254l10 47h85q20 43 49 95l-17 597l47 6l9 -541q66 95 141.5 147.5t152.5 52.5q83 0 129.5 -58t46.5 -175q0 -28 -9 -52q17 -31 48 -51.5t66 -20.5zM491.5 57.5q70.5 10.5 107.5 31.5t62 57
q2 114 -35 162.5t-99 48.5q-94 0 -179 -78.5t-166 -231.5h119q120 0 190.5 10.5zM489 618l-31 -39l-38 31l32 39zM553 533l-32 -39l-37 30l31 39zM443 525l-32 -40l-37 31l31 39z" />
    <glyph glyph-name="uni06A0.init" unicode="&#x6a0;" horiz-adv-x="539" 
d="M517 52q-130 -31 -216 -41.5t-209 -10.5h-92l-20 23l24 24h79q53 0 125 2q-66 39 -100 93t-34 111q0 45 20.5 83t63 60.5t103.5 22.5q33 0 70 -9t68 -27l-15 -45q-30 16 -63 24.5t-60 8.5q-74 0 -109.5 -33t-35.5 -88q0 -114 155 -196q51 5 103 15t138 30zM278 644
l-31 -39l-38 31l32 39zM342 559l-32 -39l-37 30l31 39zM232 551l-32 -40l-37 31l31 39z" />
    <glyph glyph-name="uni06A0.medi" unicode="&#x6a0;" horiz-adv-x="540" 
d="M560 22l-20 -22h-23q-133 0 -231 89q-68 -41 -138.5 -65t-122.5 -24h-25l-20 22l24 25h13q51 0 113.5 19.5t122.5 53.5q-32 34 -38 42q-40 44 -75 77.5t-86 71.5l5 45q106 46 215 46q60 0 105 -12t69 -30t24 -37q0 -53 -40 -107.5t-107 -101.5q46 -37 89 -52t112 -15h18z
M161.5 273q26.5 -25 67.5 -67q40 -42 62 -62q61 40 100.5 87t46.5 93q-29 13 -72 22.5t-92 9.5q-87 0 -173 -32q34 -26 60.5 -51zM291 637l-31 -39l-38 31l32 39zM355 552l-32 -39l-37 30l31 39zM245 544l-32 -40l-37 31l31 39z" />
    <glyph glyph-name="uni06A0.fina" unicode="&#x6a0;" horiz-adv-x="551" 
d="M173.5 18.5q-41.5 -35.5 -64.5 -75t-23 -88.5q0 -40 22 -76t71 -58.5t127 -22.5q57 0 117 12t109 31l17 -42q-50 -22 -115 -35.5t-133 -13.5q-90 0 -147 29.5t-82.5 75t-25.5 97.5q0 83 51.5 146t155.5 131l-29 31q-34 38 -71 73.5t-91 77.5l5 46q54 22 103.5 33.5
t109.5 11.5t105.5 -11.5t70 -29.5t24.5 -36q0 -56 -39.5 -101.5t-119.5 -98.5q55 -46 96 -62t111 -16h26l17 -24l-20 -23h-31q-66 0 -120 23.5t-116 76.5q-69 -46 -110.5 -81.5zM175.5 267q29.5 -28 68.5 -68q7 -8 46 -47q71 47 110.5 88.5t45.5 84.5q-26 11 -70 21t-96 10
q-87 0 -172 -32q38 -29 67.5 -57zM309 636l-31 -39l-38 31l32 39zM373 551l-32 -39l-37 30l31 39zM263 543l-32 -40l-37 31l31 39z" />
    <glyph glyph-name="uni06A1.init" unicode="&#x6a1;" horiz-adv-x="451" 
d="M294.5 506q39.5 -33 64.5 -110.5t25 -203.5v-34q0 -37 -42.5 -73.5t-129.5 -60.5t-212 -24l-20 24l24 23q138 0 216.5 25t122.5 64q2 61 1 86q-21 -18 -51.5 -27t-64.5 -9q-51 0 -93.5 21.5t-67 58.5t-24.5 83q0 48 24 92t62 71t79 27q47 0 86.5 -33zM293.5 237
q27.5 7 49.5 19q-8 127 -45.5 181.5t-91.5 54.5q-30 0 -58.5 -20t-47 -52.5t-18.5 -67.5q0 -56 44 -89t114 -33q26 0 53.5 7z" />
    <glyph glyph-name="uni06A1.medi" unicode="&#x6a1;" horiz-adv-x="468" 
d="M488 23l-20 -23h-28q-50 0 -101.5 10.5t-96.5 29.5q-94 -40 -220 -40h-22l-20 23l24 24h23q90 0 164 19q-56 34 -88.5 80.5t-32.5 102.5q0 51 24 96.5t62.5 73t78.5 27.5q42 0 82 -27.5t65 -73.5t25 -98q0 -51 -29.5 -98t-84.5 -82q71 -20 147 -20h32zM146 151
q36 -41 97 -67q60 26 92 66.5t32 91.5q0 42 -19.5 78t-50 57.5t-61.5 21.5t-60 -21t-47.5 -57t-18.5 -77q0 -52 36 -93z" />
    <glyph glyph-name="uni06A1.fina" unicode="&#x6a1;" horiz-adv-x="928" 
d="M948 23l-20 -23h-28q-52 0 -105.5 11.5t-100.5 32.5q-135 -57 -341 -57h-23q-143 0 -208.5 45t-65.5 139q0 77 36 150l32 -11q-27 -67 -27 -135q0 -73 55.5 -106.5t182.5 -33.5h23q169 0 287 35q-54 34 -84.5 79.5t-30.5 99.5q0 51 24 96.5t62.5 73t78.5 27.5
q43 0 82.5 -27.5t64.5 -73.5t25 -98q0 -51 -31 -97t-91 -81q70 -22 155 -22h32zM603.5 153.5q33.5 -39.5 90.5 -65.5q66 28 99.5 67t33.5 87q0 42 -19.5 78t-50 57.5t-61.5 21.5t-60 -21t-47.5 -57t-18.5 -77q0 -51 33.5 -90.5z" />
    <glyph glyph-name="uni06A2.init" unicode="&#x6a2;" horiz-adv-x="451" 
d="M294.5 506q39.5 -33 64.5 -110.5t25 -203.5v-34q0 -37 -42.5 -73.5t-129.5 -60.5t-212 -24l-20 24l24 23q138 0 216.5 25t122.5 64q2 61 1 86q-21 -18 -51.5 -27t-64.5 -9q-51 0 -93.5 21.5t-67 58.5t-24.5 83q0 48 24 92t62 71t79 27q47 0 86.5 -33zM293.5 237
q27.5 7 49.5 19q-8 127 -45.5 181.5t-91.5 54.5q-30 0 -58.5 -20t-47 -52.5t-18.5 -67.5q0 -56 44 -89t114 -33q26 0 53.5 7zM151 -136l37 45l46 -38l-37 -46z" />
    <glyph glyph-name="uni06A2.medi" unicode="&#x6a2;" horiz-adv-x="468" 
d="M488 23l-20 -23h-28q-50 0 -101.5 10.5t-96.5 29.5q-94 -40 -220 -40h-22l-20 23l24 24h23q90 0 164 19q-56 34 -88.5 80.5t-32.5 102.5q0 51 24 96.5t62.5 73t78.5 27.5q42 0 82 -27.5t65 -73.5t25 -98q0 -51 -29.5 -98t-84.5 -82q71 -20 147 -20h32zM146 151
q36 -41 97 -67q60 26 92 66.5t32 91.5q0 42 -19.5 78t-50 57.5t-61.5 21.5t-60 -21t-47.5 -57t-18.5 -77q0 -52 36 -93zM189 -136l37 45l46 -38l-37 -46z" />
    <glyph glyph-name="uni06A2.fina" unicode="&#x6a2;" horiz-adv-x="928" 
d="M948 23l-20 -23h-28q-52 0 -105.5 11.5t-100.5 32.5q-135 -57 -341 -57h-23q-143 0 -208.5 45t-65.5 139q0 77 36 150l32 -11q-27 -67 -27 -135q0 -73 55.5 -106.5t182.5 -33.5h23q169 0 287 35q-54 34 -84.5 79.5t-30.5 99.5q0 51 24 96.5t62.5 73t78.5 27.5
q43 0 82.5 -27.5t64.5 -73.5t25 -98q0 -51 -31 -97t-91 -81q70 -22 155 -22h32zM603.5 153.5q33.5 -39.5 90.5 -65.5q66 28 99.5 67t33.5 87q0 42 -19.5 78t-50 57.5t-61.5 21.5t-60 -21t-47.5 -57t-18.5 -77q0 -51 33.5 -90.5zM652 -136l37 45l46 -38l-37 -46z" />
    <glyph glyph-name="uni06A3.init" unicode="&#x6a3;" horiz-adv-x="451" 
d="M294.5 506q39.5 -33 64.5 -110.5t25 -203.5v-34q0 -37 -42.5 -73.5t-129.5 -60.5t-212 -24l-20 24l24 23q138 0 216.5 25t122.5 64q2 61 1 86q-21 -18 -51.5 -27t-64.5 -9q-51 0 -93.5 21.5t-67 58.5t-24.5 83q0 48 24 92t62 71t79 27q47 0 86.5 -33zM293.5 237
q27.5 7 49.5 19q-8 127 -45.5 181.5t-91.5 54.5q-30 0 -58.5 -20t-47 -52.5t-18.5 -67.5q0 -56 44 -89t114 -33q26 0 53.5 7zM155 659l36 45l46 -39l-36 -45zM161 -136l37 45l46 -38l-37 -46z" />
    <glyph glyph-name="uni06A3.medi" unicode="&#x6a3;" horiz-adv-x="468" 
d="M488 23l-20 -23h-28q-50 0 -101.5 10.5t-96.5 29.5q-94 -40 -220 -40h-22l-20 23l24 24h23q90 0 164 19q-56 34 -88.5 80.5t-32.5 102.5q0 51 24 96.5t62.5 73t78.5 27.5q42 0 82 -27.5t65 -73.5t25 -98q0 -51 -29.5 -98t-84.5 -82q71 -20 147 -20h32zM146 151
q36 -41 97 -67q60 26 92 66.5t32 91.5q0 42 -19.5 78t-50 57.5t-61.5 21.5t-60 -21t-47.5 -57t-18.5 -77q0 -52 36 -93zM182 571l36 45l46 -39l-36 -45zM201 -136l37 45l46 -38l-37 -46z" />
    <glyph glyph-name="uni06A3.fina" unicode="&#x6a3;" horiz-adv-x="928" 
d="M948 23l-20 -23h-28q-52 0 -105.5 11.5t-100.5 32.5q-135 -57 -341 -57h-23q-143 0 -208.5 45t-65.5 139q0 77 36 150l32 -11q-27 -67 -27 -135q0 -73 55.5 -106.5t182.5 -33.5h23q169 0 287 35q-54 34 -84.5 79.5t-30.5 99.5q0 51 24 96.5t62.5 73t78.5 27.5
q43 0 82.5 -27.5t64.5 -73.5t25 -98q0 -51 -31 -97t-91 -81q70 -22 155 -22h32zM603.5 153.5q33.5 -39.5 90.5 -65.5q66 28 99.5 67t33.5 87q0 42 -19.5 78t-50 57.5t-61.5 21.5t-60 -21t-47.5 -57t-18.5 -77q0 -51 33.5 -90.5zM642 573l36 45l46 -39l-36 -45zM662 -136
l37 45l46 -38l-37 -46z" />
    <glyph glyph-name="uni06A5.init" unicode="&#x6a5;" horiz-adv-x="451" 
d="M294.5 506q39.5 -33 64.5 -110.5t25 -203.5v-34q0 -37 -42.5 -73.5t-129.5 -60.5t-212 -24l-20 24l24 23q138 0 216.5 25t122.5 64q2 61 1 86q-21 -18 -51.5 -27t-64.5 -9q-51 0 -93.5 21.5t-67 58.5t-24.5 83q0 48 24 92t62 71t79 27q47 0 86.5 -33zM293.5 237
q27.5 7 49.5 19q-8 127 -45.5 181.5t-91.5 54.5q-30 0 -58.5 -20t-47 -52.5t-18.5 -67.5q0 -56 44 -89t114 -33q26 0 53.5 7zM218 -139l32 39l37 -31l-32 -39zM108 -147l32 39l37 -31l-32 -39zM172 -233l31 39l38 -31l-32 -39z" />
    <glyph glyph-name="uni06A5.medi" unicode="&#x6a5;" horiz-adv-x="468" 
d="M488 23l-20 -23h-28q-50 0 -101.5 10.5t-96.5 29.5q-94 -40 -220 -40h-22l-20 23l24 24h23q90 0 164 19q-56 34 -88.5 80.5t-32.5 102.5q0 51 24 96.5t62.5 73t78.5 27.5q42 0 82 -27.5t65 -73.5t25 -98q0 -51 -29.5 -98t-84.5 -82q71 -20 147 -20h32zM146 151
q36 -41 97 -67q60 26 92 66.5t32 91.5q0 42 -19.5 78t-50 57.5t-61.5 21.5t-60 -21t-47.5 -57t-18.5 -77q0 -52 36 -93zM256 -139l32 39l37 -31l-32 -39zM146 -147l32 39l37 -31l-32 -39zM210 -233l31 39l38 -31l-32 -39z" />
    <glyph glyph-name="uni06A5.fina" unicode="&#x6a5;" horiz-adv-x="928" 
d="M948 23l-20 -23h-28q-52 0 -105.5 11.5t-100.5 32.5q-135 -57 -341 -57h-23q-143 0 -208.5 45t-65.5 139q0 77 36 150l32 -11q-27 -67 -27 -135q0 -73 55.5 -106.5t182.5 -33.5h23q169 0 287 35q-54 34 -84.5 79.5t-30.5 99.5q0 51 24 96.5t62.5 73t78.5 27.5
q43 0 82.5 -27.5t64.5 -73.5t25 -98q0 -51 -31 -97t-91 -81q70 -22 155 -22h32zM603.5 153.5q33.5 -39.5 90.5 -65.5q66 28 99.5 67t33.5 87q0 42 -19.5 78t-50 57.5t-61.5 21.5t-60 -21t-47.5 -57t-18.5 -77q0 -51 33.5 -90.5zM719 -139l32 39l37 -31l-32 -39zM609 -147
l32 39l37 -31l-32 -39zM673 -233l31 39l38 -31l-32 -39z" />
    <glyph glyph-name="uni06A7.init" unicode="&#x6a7;" horiz-adv-x="451" 
d="M294.5 506q39.5 -33 64.5 -110.5t25 -203.5v-34q0 -37 -42.5 -73.5t-129.5 -60.5t-212 -24l-20 24l24 23q138 0 216.5 25t122.5 64q2 61 1 86q-21 -18 -51.5 -27t-64.5 -9q-51 0 -93.5 21.5t-67 58.5t-24.5 83q0 48 24 92t62 71t79 27q47 0 86.5 -33zM293.5 237
q27.5 7 49.5 19q-8 127 -45.5 181.5t-91.5 54.5q-30 0 -58.5 -20t-47 -52.5t-18.5 -67.5q0 -56 44 -89t114 -33q26 0 53.5 7zM155 659l36 45l46 -39l-36 -45z" />
    <glyph glyph-name="uni06A7.medi" unicode="&#x6a7;" horiz-adv-x="468" 
d="M488 23l-20 -23h-28q-50 0 -101.5 10.5t-96.5 29.5q-94 -40 -220 -40h-22l-20 23l24 24h23q90 0 164 19q-56 34 -88.5 80.5t-32.5 102.5q0 51 24 96.5t62.5 73t78.5 27.5q42 0 82 -27.5t65 -73.5t25 -98q0 -51 -29.5 -98t-84.5 -82q71 -20 147 -20h32zM146 151
q36 -41 97 -67q60 26 92 66.5t32 91.5q0 42 -19.5 78t-50 57.5t-61.5 21.5t-60 -21t-47.5 -57t-18.5 -77q0 -52 36 -93zM182 571l36 45l46 -39l-36 -45z" />
    <glyph glyph-name="uni06A7.fina" unicode="&#x6a7;" horiz-adv-x="750" 
d="M750 0h-98v-32q-1 -46 -36 -95t-103 -81.5t-161 -32.5q-162 0 -229 57.5t-67 163.5q0 89 40 179l32 -10q-15 -42 -23 -80.5t-8 -83.5q0 -85 57 -132t202 -47q96 0 159.5 36t93.5 86q1 26 1 72h-90q-95 0 -151.5 46.5t-56.5 122.5q0 47 24 90.5t62.5 70.5t78.5 27
q70 0 118 -70t56 -240h103l16 -24zM397.5 79q46.5 -32 133.5 -32h78q-11 263 -134 263q-30 0 -58.5 -20t-47 -52.5t-18.5 -66.5q0 -60 46.5 -92zM424 474l36 45l46 -39l-36 -45z" />
    <glyph glyph-name="uni06A8.init" unicode="&#x6a8;" horiz-adv-x="451" 
d="M294.5 506q39.5 -33 64.5 -110.5t25 -203.5v-34q0 -37 -42.5 -73.5t-129.5 -60.5t-212 -24l-20 24l24 23q138 0 216.5 25t122.5 64q2 61 1 86q-21 -18 -51.5 -27t-64.5 -9q-51 0 -93.5 21.5t-67 58.5t-24.5 83q0 48 24 92t62 71t79 27q47 0 86.5 -33zM293.5 237
q27.5 7 49.5 19q-8 127 -45.5 181.5t-91.5 54.5q-30 0 -58.5 -20t-47 -52.5t-18.5 -67.5q0 -56 44 -89t114 -33q26 0 53.5 7zM225 767l-31 -39l-38 31l32 39zM289 682l-32 -39l-37 30l31 39zM179 674l-32 -40l-37 31l31 39z" />
    <glyph glyph-name="uni06A8.medi" unicode="&#x6a8;" horiz-adv-x="468" 
d="M488 23l-20 -23h-28q-50 0 -101.5 10.5t-96.5 29.5q-94 -40 -220 -40h-22l-20 23l24 24h23q90 0 164 19q-56 34 -88.5 80.5t-32.5 102.5q0 51 24 96.5t62.5 73t78.5 27.5q42 0 82 -27.5t65 -73.5t25 -98q0 -51 -29.5 -98t-84.5 -82q71 -20 147 -20h32zM146 151
q36 -41 97 -67q60 26 92 66.5t32 91.5q0 42 -19.5 78t-50 57.5t-61.5 21.5t-60 -21t-47.5 -57t-18.5 -77q0 -52 36 -93zM252 679l-31 -39l-38 31l32 39zM316 594l-32 -39l-37 30l31 39zM206 586l-32 -40l-37 31l31 39z" />
    <glyph glyph-name="uni06A8.fina" unicode="&#x6a8;" horiz-adv-x="750" 
d="M750 0h-98v-32q-1 -46 -36 -95t-103 -81.5t-161 -32.5q-162 0 -229 57.5t-67 163.5q0 89 40 179l32 -10q-15 -42 -23 -80.5t-8 -83.5q0 -85 57 -132t202 -47q96 0 159.5 36t93.5 86q1 26 1 72h-90q-95 0 -151.5 46.5t-56.5 122.5q0 47 24 90.5t62.5 70.5t78.5 27
q70 0 118 -70t56 -240h103l16 -24zM397.5 79q46.5 -32 133.5 -32h78q-11 263 -134 263q-30 0 -58.5 -20t-47 -52.5t-18.5 -66.5q0 -60 46.5 -92zM494 582l-31 -39l-38 31l32 39zM558 497l-32 -39l-37 30l31 39zM448 489l-32 -40l-37 31l31 39z" />
    <glyph glyph-name="uni06AA.init" unicode="&#x6aa;" horiz-adv-x="1161" 
d="M1026 282.5q69 -44.5 69 -132.5q0 -26 -28.5 -50t-72.5 -40q-77 -26 -221.5 -43t-368.5 -17h-404l-20 24l24 23h391q274 0 418 18.5t183 36t62 39.5q-2 72 -59 108.5t-187 36.5q-108 0 -272 -12q-139 -11 -229 -11q-138 0 -216 14l5 38q28 101 110.5 181t204.5 109
l-7 -48q-100 -26 -173 -91t-99 -151q77 -11 181 -11q93 0 232 11q162 12 263 12q145 0 214 -44.5z" />
    <glyph glyph-name="uni06AA.medi" unicode="&#x6aa;" horiz-adv-x="1177" 
d="M1197 23l-20 -23q-60 0 -102.5 18t-68.5 45v2q-8 -4 -12 -5q-77 -26 -221.5 -43t-368.5 -17h-404l-20 24l24 23h391q274 0 418 18.5t183 36t62 39.5q-2 72 -59 108.5t-187 36.5q-108 0 -272 -12q-139 -11 -229 -11q-138 0 -216 14l5 38q28 101 110.5 181t204.5 109
l-7 -48q-100 -26 -173 -91t-99 -151q77 -11 181 -11q93 0 232 11q162 12 263 12q145 0 214 -44.5t69 -132.5q0 -35 -51 -66q26 -18 58.5 -27.5t79.5 -9.5z" />
    <glyph glyph-name="uni06AA.fina" unicode="&#x6aa;" horiz-adv-x="1252" 
d="M1272 23l-20 -23q-60 0 -102.5 18t-69.5 45v1l-11 -4q-77 -26 -221.5 -43t-368.5 -17h-420l-13 47h424q273 0 417 18.5t182 35.5t64 40q-2 72 -59 108.5t-187 36.5q-108 0 -272 -12q-139 -11 -229 -11q-138 0 -216 14l5 38q28 101 110.5 181t204.5 109l-7 -48
q-100 -26 -173 -91t-99 -151q77 -11 181 -11q93 0 232 11q162 12 263 12q145 0 213.5 -44.5t68.5 -132.5q0 -18 -13.5 -35t-36.5 -31q26 -18 58.5 -27.5t79.5 -9.5z" />
    <glyph glyph-name="uni06AB.init" unicode="&#x6ab;" horiz-adv-x="457" 
d="M279.5 520q-21.5 21 -21.5 53q0 25 12 41l-221 -146q119 -79 197.5 -169.5t96.5 -185.5q-16 -28 -63 -54t-119.5 -42.5t-160.5 -16.5l-20 23l24 24q112 0 184.5 22t108.5 52q-15 80 -95 164.5t-198 162.5l9 43l388 259l-2 -50l-80 -53q4 1 15 1q33 0 54.5 -21t21.5 -54
q0 -32 -21 -53t-55 -21q-33 0 -54.5 21zM369 607q-13 12 -35 12q-21 0 -34 -12.5t-13 -33.5t12.5 -33.5t34.5 -12.5q24 0 36 12.5t12 33.5q0 22 -13 34z" />
    <glyph glyph-name="uni06AB.medi" unicode="&#x6ab;" horiz-adv-x="531" 
d="M551 24l-20 -24q-50 0 -87 15.5t-71 48t-83 93.5q-34 -73 -103 -115t-187 -42l-20 23l24 24q98 0 163.5 36t97.5 105l-209 260l10 42l388 260l-3 -49l-83 -55q25 -6 40.5 -26t15.5 -47q0 -32 -21 -53t-55 -21q-33 0 -54.5 21t-21.5 53q0 6 1 9l-176 -117l156 -194
q84 -105 124 -148t74 -59.5t84 -16.5zM383 607q-13 12 -35 12q-21 0 -34 -12.5t-13 -33.5t12.5 -33.5t34.5 -12.5q24 0 36 12.5t12 33.5q0 22 -13 34z" />
    <glyph glyph-name="uni06AB.fina" unicode="&#x6ab;" horiz-adv-x="960" 
d="M980 24l-20 -24q-49 0 -86 15.5t-71.5 48t-82.5 93.5q-36 -79 -124 -124.5t-266 -45.5q-143 0 -208.5 45t-65.5 139q0 77 36 150l32 -11q-27 -67 -27 -135q0 -73 55.5 -106.5t182.5 -33.5q156 0 241 39.5t118 114.5l-208 259l9 42l388 260l-3 -49l-82 -55q26 -5 43 -25
t17 -48q0 -32 -21 -53t-55 -21q-33 0 -54.5 21t-21.5 53q0 9 1 13l-181 -121l156 -194q84 -105 124 -148t74.5 -59.5t84.5 -16.5zM817 607q-13 12 -35 12q-21 0 -34 -12.5t-13 -33.5t12.5 -33.5t34.5 -12.5q24 0 36 12.5t12 33.5q0 22 -13 34z" />
    <glyph glyph-name="uni06AC.init" unicode="&#x6ac;" horiz-adv-x="457" 
d="M399 700l-350 -232q119 -79 197.5 -169.5t96.5 -185.5q-16 -28 -63 -54t-119.5 -42.5t-160.5 -16.5l-20 23l24 24q112 0 184.5 22t108.5 52q-15 80 -95 164.5t-198 162.5l9 43l388 259zM-9 733l36 45l46 -39l-36 -45z" />
    <glyph glyph-name="uni06AC.medi" unicode="&#x6ac;" horiz-adv-x="531" 
d="M551 24l-20 -24q-50 0 -87 15.5t-71 48t-83 93.5q-34 -73 -103 -115t-187 -42l-20 23l24 24q98 0 163.5 36t97.5 105l-209 260l10 42l388 260l-3 -49l-354 -236l156 -194q84 -105 124 -148t74 -59.5t84 -16.5zM36 733l36 45l46 -39l-36 -45z" />
    <glyph glyph-name="uni06AC.fina" unicode="&#x6ac;" horiz-adv-x="811" 
d="M831 24l-20 -24q-82 0 -125 84q-65 -48 -149.5 -72.5t-206.5 -24.5q-143 0 -208.5 45t-65.5 139q0 77 36 150l32 -11q-27 -67 -27 -135q0 -73 55.5 -106.5t182.5 -33.5q112 0 194 23.5t143 67.5l-6 613l47 5v-592q0 -42 24 -73.5t78 -31.5zM299 310q68 0 104.5 8t60.5 22
q-1 16 -42.5 43.5t-90.5 42.5l7 33l157 92l-2 -36l-124 -70q48 -21 84.5 -49t36.5 -51q0 -31 -55 -49t-131 -18zM638 869l36 45l46 -39l-36 -45z" />
    <glyph glyph-name="uni06AE.init" unicode="&#x6ae;" horiz-adv-x="457" 
d="M399 700l-350 -232q119 -79 197.5 -169.5t96.5 -185.5q-16 -28 -63 -54t-119.5 -42.5t-160.5 -16.5l-20 23l24 24q112 0 184.5 22t108.5 52q-15 80 -95 164.5t-198 162.5l9 43l388 259zM147 -139l32 39l37 -31l-32 -39zM37 -147l32 39l37 -31l-32 -39zM101 -233l31 39
l38 -31l-32 -39z" />
    <glyph glyph-name="uni06AE.medi" unicode="&#x6ae;" horiz-adv-x="531" 
d="M551 24l-20 -24q-50 0 -87 15.5t-71 48t-83 93.5q-34 -73 -103 -115t-187 -42l-20 23l24 24q98 0 163.5 36t97.5 105l-209 260l10 42l388 260l-3 -49l-354 -236l156 -194q84 -105 124 -148t74 -59.5t84 -16.5zM223 -139l32 39l37 -31l-32 -39zM113 -147l32 39l37 -31
l-32 -39zM177 -233l31 39l38 -31l-32 -39z" />
    <glyph glyph-name="uni06AE.fina" unicode="&#x6ae;" horiz-adv-x="811" 
d="M831 24l-20 -24q-82 0 -125 84q-65 -48 -149.5 -72.5t-206.5 -24.5q-143 0 -208.5 45t-65.5 139q0 77 36 150l32 -11q-27 -67 -27 -135q0 -73 55.5 -106.5t182.5 -33.5q112 0 194 23.5t143 67.5l-6 613l47 5v-592q0 -42 24 -73.5t78 -31.5zM299 310q68 0 104.5 8t60.5 22
q-1 16 -42.5 43.5t-90.5 42.5l7 33l157 92l-2 -36l-124 -70q48 -21 84.5 -49t36.5 -51q0 -31 -55 -49t-131 -18zM405 -139l32 39l37 -31l-32 -39zM295 -147l32 39l37 -31l-32 -39zM359 -233l31 39l38 -31l-32 -39z" />
    <glyph glyph-name="uni06B0.init" unicode="&#x6b0;" horiz-adv-x="457" 
d="M399 838l-382 -258l9 37l375 255zM397.5 636q21.5 -21 21.5 -54q0 -32 -21 -53.5t-55 -21.5q-33 0 -55 21.5t-22 53.5q0 20 9 35l-226 -149q119 -79 197.5 -169.5t96.5 -185.5q-16 -28 -63 -54t-119.5 -42.5t-160.5 -16.5l-20 23l24 24q112 0 184.5 22t108.5 52
q-15 80 -95 164.5t-198 162.5l9 43l388 259l-2 -50l-66 -44q4 1 10 1q33 0 54.5 -21zM378.5 548q12.5 13 12.5 34t-13.5 33.5t-34.5 12.5t-34.5 -12.5t-13.5 -33.5t13 -34t35 -13q23 0 35.5 13z" />
    <glyph glyph-name="uni06B0.medi" unicode="&#x6b0;" horiz-adv-x="531" 
d="M450 838l-382 -258l8 37l376 255zM551 24l-20 -24q-50 0 -87 15.5t-71 48t-83 93.5q-34 -73 -103 -115t-187 -42l-20 23l24 24q98 0 163.5 36t97.5 105l-209 260l10 42l388 260l-3 -49l-71 -47q24 -7 39 -26t15 -46q0 -32 -21 -53.5t-55 -21.5q-33 0 -54.5 21.5
t-21.5 53.5v7l-185 -124l156 -194q84 -105 124 -148t74 -59.5t84 -16.5zM332 622l-5 -4q-16 -11 -16 -36q0 -21 12.5 -34t34.5 -13q23 0 35.5 12.5t12.5 34.5t-13 34t-35 12q-16 0 -26 -6z" />
    <glyph glyph-name="uni06B0.fina" unicode="&#x6b0;" horiz-adv-x="960" 
d="M882 838l-382 -258l8 37l376 255zM980 24l-20 -24q-49 0 -86 15.5t-71.5 48t-82.5 93.5q-36 -79 -124 -124.5t-266 -45.5q-143 0 -208.5 45t-65.5 139q0 77 36 150l32 -11q-27 -67 -27 -135q0 -73 55.5 -106.5t182.5 -33.5q156 0 241 39.5t118 114.5l-208 259l9 42
l388 260l-3 -49l-80 -54q26 -5 42.5 -25t16.5 -48q0 -31 -21 -52.5t-55 -21.5q-33 0 -54.5 21.5t-21.5 52.5q0 8 1 12l-182 -121l156 -194q84 -105 124 -148t74.5 -59.5t84.5 -16.5zM818 608q-13 12 -35 12q-21 0 -34 -12.5t-13 -33.5t12.5 -33.5t34.5 -12.5q23 0 35.5 12.5
t12.5 33.5q0 22 -13 34z" />
    <glyph glyph-name="uni06B2.init" unicode="&#x6b2;" horiz-adv-x="457" 
d="M399 838l-382 -258l9 37l375 255zM13 491l388 259l-2 -50l-350 -232q119 -79 197.5 -169.5t96.5 -185.5q-16 -28 -63 -54t-119.5 -42.5t-160.5 -16.5l-20 23l24 24q112 0 184.5 22t108.5 52q-15 80 -95 164.5t-198 162.5zM147 -138l33 41l40 -32l-34 -41zM34 -146l33 40
l39 -32l-33 -40z" />
    <glyph glyph-name="uni06B2.medi" unicode="&#x6b2;" horiz-adv-x="531" 
d="M450 838l-382 -258l8 37l376 255zM551 24l-20 -24q-50 0 -87 15.5t-71 48t-83 93.5q-34 -73 -103 -115t-187 -42l-20 23l24 24q98 0 163.5 36t97.5 105l-209 260l10 42l388 260l-3 -49l-354 -236l156 -194q84 -105 124 -148t74 -59.5t84 -16.5zM223 -138l33 41l40 -32
l-34 -41zM110 -146l33 40l39 -32l-33 -40z" />
    <glyph glyph-name="uni06B2.fina" unicode="&#x6b2;" horiz-adv-x="960" 
d="M882 838l-382 -258l8 37l376 255zM980 24l-20 -24q-49 0 -86 15.5t-71.5 48t-82.5 93.5q-36 -79 -124 -124.5t-266 -45.5q-143 0 -208.5 45t-65.5 139q0 77 36 150l32 -11q-27 -67 -27 -135q0 -73 55.5 -106.5t182.5 -33.5q156 0 241 39.5t118 114.5l-208 259l9 42
l388 260l-3 -49l-354 -236l156 -194q84 -105 124 -148t74.5 -59.5t84.5 -16.5zM384 -138l33 41l40 -32l-34 -41zM271 -146l33 40l39 -32l-33 -40z" />
    <glyph glyph-name="uni06B4.init" unicode="&#x6b4;" horiz-adv-x="457" 
d="M399 838l-382 -258l9 37l375 255zM13 491l388 259l-2 -50l-350 -232q119 -79 197.5 -169.5t96.5 -185.5q-16 -28 -63 -54t-119.5 -42.5t-160.5 -16.5l-20 23l24 24q112 0 184.5 22t108.5 52q-15 80 -95 164.5t-198 162.5zM87 895l-31 -39l-38 31l32 39zM151 810l-32 -39
l-37 30l31 39zM41 802l-32 -40l-37 31l31 39z" />
    <glyph glyph-name="uni06B4.medi" unicode="&#x6b4;" horiz-adv-x="531" 
d="M450 838l-382 -258l8 37l376 255zM551 24l-20 -24q-50 0 -87 15.5t-71 48t-83 93.5q-34 -73 -103 -115t-187 -42l-20 23l24 24q98 0 163.5 36t97.5 105l-209 260l10 42l388 260l-3 -49l-354 -236l156 -194q84 -105 124 -148t74 -59.5t84 -16.5zM97 895l-31 -39l-38 31
l32 39zM161 810l-32 -39l-37 30l31 39zM51 802l-32 -40l-37 31l31 39z" />
    <glyph glyph-name="uni06B4.fina" unicode="&#x6b4;" horiz-adv-x="960" 
d="M882 838l-382 -258l8 37l376 255zM980 24l-20 -24q-49 0 -86 15.5t-71.5 48t-82.5 93.5q-36 -79 -124 -124.5t-266 -45.5q-143 0 -208.5 45t-65.5 139q0 77 36 150l32 -11q-27 -67 -27 -135q0 -73 55.5 -106.5t182.5 -33.5q156 0 241 39.5t118 114.5l-208 259l9 42
l388 260l-3 -49l-354 -236l156 -194q84 -105 124 -148t74.5 -59.5t84.5 -16.5zM564 895l-31 -39l-38 31l32 39zM628 810l-32 -39l-37 30l31 39zM518 802l-32 -40l-37 31l31 39z" />
    <glyph glyph-name="uni06B5.init" unicode="&#x6b5;" horiz-adv-x="217" 
d="M-20 23l24 24q26 0 49.5 12.5t37.5 36.5l-16 643l47 5l10 -656q-13 -37 -49.5 -62.5t-82.5 -25.5zM100 831l68 116l23 -10l-77 -139h-29l-76 139l23 10z" />
    <glyph glyph-name="uni06B5.medi" unicode="&#x6b5;" horiz-adv-x="242" 
d="M262 23l-21 -23q-89 0 -120 68q-16 -35 -47.5 -51.5t-73.5 -16.5l-20 23l24 24q62 0 97 56l-5 637l46 5v-596q0 -102 103 -102zM120 832l68 116l23 -10l-77 -139h-29l-76 139l23 10z" />
    <glyph glyph-name="uni06B5.fina" unicode="&#x6b5;" horiz-adv-x="697" 
d="M697 0q-33 0 -63.5 12t-53.5 31l1 -96q-33 -62 -107.5 -100.5t-173.5 -38.5q-126 0 -185 59t-59 162q0 89 40 179l32 -11q-15 -41 -23 -80t-8 -84q0 -178 207 -178q83 0 145.5 29.5t90.5 75.5l-16 779l46 5l9 -645q24 -24 53 -38t69 -14l16 -24zM548 830l68 116l23 -10
l-77 -139h-29l-76 139l23 10z" />
    <glyph glyph-name="uni06B6.init" unicode="&#x6b6;" horiz-adv-x="217" 
d="M-20 23l24 24q26 0 49.5 12.5t37.5 36.5l-16 643l47 5l10 -656q-13 -37 -49.5 -62.5t-82.5 -25.5zM47 869l36 45l46 -39l-36 -45z" />
    <glyph glyph-name="uni06B6.medi" unicode="&#x6b6;" horiz-adv-x="242" 
d="M262 23l-21 -23q-89 0 -120 68q-16 -35 -47.5 -51.5t-73.5 -16.5l-20 23l24 24q62 0 97 56l-5 637l46 5v-596q0 -102 103 -102zM67 870l36 45l46 -39l-36 -45z" />
    <glyph glyph-name="uni06B6.fina" unicode="&#x6b6;" horiz-adv-x="697" 
d="M697 0q-33 0 -63.5 12t-53.5 31l1 -96q-33 -62 -107.5 -100.5t-173.5 -38.5q-126 0 -185 59t-59 162q0 89 40 179l32 -11q-15 -41 -23 -80t-8 -84q0 -178 207 -178q83 0 145.5 29.5t90.5 75.5l-16 779l46 5l9 -645q24 -24 53 -38t69 -14l16 -24zM495 868l36 45l46 -39
l-36 -45z" />
    <glyph glyph-name="uni06B7.init" unicode="&#x6b7;" horiz-adv-x="217" 
d="M-20 23l24 24q26 0 49.5 12.5t37.5 36.5l-16 643l47 5l10 -656q-13 -37 -49.5 -62.5t-82.5 -25.5zM117 977l-31 -39l-38 31l32 39zM181 892l-32 -39l-37 30l31 39zM71 884l-32 -40l-37 31l31 39z" />
    <glyph glyph-name="uni06B7.medi" unicode="&#x6b7;" horiz-adv-x="242" 
d="M262 23l-21 -23q-89 0 -120 68q-16 -35 -47.5 -51.5t-73.5 -16.5l-20 23l24 24q62 0 97 56l-5 637l46 5v-596q0 -102 103 -102zM137 978l-31 -39l-38 31l32 39zM201 893l-32 -39l-37 30l31 39zM91 885l-32 -40l-37 31l31 39z" />
    <glyph glyph-name="uni06B7.fina" unicode="&#x6b7;" horiz-adv-x="697" 
d="M697 0q-33 0 -63.5 12t-53.5 31l1 -96q-33 -62 -107.5 -100.5t-173.5 -38.5q-126 0 -185 59t-59 162q0 89 40 179l32 -11q-15 -41 -23 -80t-8 -84q0 -178 207 -178q83 0 145.5 29.5t90.5 75.5l-16 779l46 5l9 -645q24 -24 53 -38t69 -14l16 -24zM565 976l-31 -39l-38 31
l32 39zM629 891l-32 -39l-37 30l31 39zM519 883l-32 -40l-37 31l31 39z" />
    <glyph glyph-name="uni06B8.init" unicode="&#x6b8;" horiz-adv-x="217" 
d="M-20 23l24 24q26 0 49.5 12.5t37.5 36.5l-16 643l47 5l10 -656q-13 -37 -49.5 -62.5t-82.5 -25.5zM127 -139l32 39l37 -31l-32 -39zM17 -147l32 39l37 -31l-32 -39zM81 -233l31 39l38 -31l-32 -39z" />
    <glyph glyph-name="uni06B8.medi" unicode="&#x6b8;" horiz-adv-x="242" 
d="M262 23l-21 -23q-89 0 -120 68q-16 -35 -47.5 -51.5t-73.5 -16.5l-20 23l24 24q62 0 97 56l-5 637l46 5v-596q0 -102 103 -102zM138 -139l32 39l37 -31l-32 -39zM28 -147l32 39l37 -31l-32 -39zM92 -233l31 39l38 -31l-32 -39z" />
    <glyph glyph-name="uni06B8.fina" unicode="&#x6b8;" horiz-adv-x="697" 
d="M697 0q-33 0 -63.5 12t-53.5 31l1 -96q-33 -62 -107.5 -100.5t-173.5 -38.5q-126 0 -185 59t-59 162q0 89 40 179l32 -11q-15 -41 -23 -80t-8 -84q0 -178 207 -178q83 0 145.5 29.5t90.5 75.5l-16 779l46 5l9 -645q24 -24 53 -38t69 -14l16 -24zM316 -329l32 39l37 -31
l-32 -39zM206 -337l32 39l37 -31l-32 -39zM270 -423l31 39l38 -31l-32 -39z" />
    <glyph glyph-name="uni06B9.init" unicode="&#x6b9;" horiz-adv-x="254" 
d="M-20 24l24 23q41 0 80.5 14t63.5 39q0 66 -15 137t-38 136l46 15q47 -145 47 -273q0 -33 -27.5 -59.5t-71 -41t-89.5 -14.5zM64 -136l37 45l46 -38l-37 -46zM57 518l36 45l46 -39l-36 -45z" />
    <glyph glyph-name="uni06B9.medi" unicode="&#x6b9;" horiz-adv-x="301" 
d="M321 23l-20 -23q-51 0 -88.5 18t-56.5 47q-22 -34 -66.5 -49.5t-90.5 -15.5l-19 22l23 25q43 0 79 14t52 41l-24 213h48l16 -208q16 -27 51.5 -43.5t79.5 -16.5zM110 -136l37 45l46 -38l-37 -46zM81 445l36 45l46 -39l-36 -45z" />
    <glyph glyph-name="uni06B9.fina" unicode="&#x6b9;" horiz-adv-x="686" 
d="M686 0q-56 0 -87 30q2 -28 2 -57q0 -56 -40 -105.5t-109 -79t-152 -29.5q-126 0 -185 59t-59 162q0 89 40 179l32 -10q-15 -42 -23 -80.5t-8 -83.5q0 -179 207 -179q87 0 153.5 35.5t103.5 88.5q1 12 1 34q0 66 -13 122t-30 95t-46 97l47 20q48 -119 67 -188
q13 -36 38.5 -49.5t64.5 -13.5l16 -24zM263 -365l37 45l46 -38l-37 -46zM262 371l36 45l46 -39l-36 -45z" />
    <glyph glyph-name="uni06BC.init" unicode="&#x6bc;" horiz-adv-x="254" 
d="M103 479l-46 39l37 45l46 -39zM174 10.5q14 -18.5 14 -44.5q0 -32 -21 -53t-55 -21q-33 0 -54.5 21t-21.5 53q0 22 10 38q-20 -4 -46 -4l-20 24l24 23q41 0 80.5 14t63.5 39q0 66 -15 137t-38 136l46 15q47 -145 47 -273q0 -45 -51 -78q23 -8 37 -26.5zM148 -68
q12 12 12 34t-13 34t-35 12q-21 0 -34 -12.5t-13 -33.5t12.5 -33.5t34.5 -12.5q24 0 36 12z" />
    <glyph glyph-name="uni06BC.medi" unicode="&#x6bc;" horiz-adv-x="301" 
d="M127 406l-46 39l37 45l46 -39zM134 41q23 -7 37.5 -26t14.5 -45q0 -31 -21 -52.5t-55 -21.5q-33 0 -55 21.5t-22 52.5q0 15 7 33q-21 -3 -41 -3l-19 22l23 25q43 0 79 14t52 41l-24 213h48l16 -208q16 -27 51.5 -43.5t79.5 -16.5l16 -24l-20 -23q-51 0 -88.5 18t-56.5 47
q-10 -14 -22 -24zM144.5 3.5q-13.5 12.5 -34.5 12.5q-22 0 -35 -12t-13 -34q0 -21 12.5 -33.5t35.5 -12.5t35.5 12.5t12.5 33.5t-13.5 33.5z" />
    <glyph glyph-name="uni06BC.fina" unicode="&#x6bc;" horiz-adv-x="686" 
d="M308 331l-46 39l37 46l46 -39zM686 0q-56 0 -87 30q2 -28 2 -57q0 -50 -32.5 -95.5t-89.5 -76t-128 -39.5q14 -19 14 -45q0 -32 -21 -53.5t-55 -21.5q-33 0 -55 21.5t-22 53.5q0 28 17 48q-89 16 -131 72t-42 143q0 89 40 179l32 -10q-15 -42 -23 -80.5t-8 -83.5
q0 -179 207 -179q87 0 153.5 35.5t103.5 88.5q1 12 1 34q0 66 -13 122t-30 95t-46 97l47 20q48 -119 67 -188q13 -36 38.5 -49.5t64.5 -13.5l16 -24zM330 -256.5q-7 10.5 -20 15.5h-10q-20 0 -30 1q-29 -10 -29 -43q0 -21 13 -34t35 -13q23 0 35.5 13t12.5 34q0 16 -7 26.5z
" />
    <glyph glyph-name="uni06BD.init" unicode="&#x6bd;" horiz-adv-x="254" 
d="M-20 24l24 23q41 0 80.5 14t63.5 39q0 66 -15 137t-38 136l46 15q47 -145 47 -273q0 -33 -27.5 -59.5t-71 -41t-89.5 -14.5zM127 626l-31 -39l-38 31l32 39zM191 541l-32 -39l-37 30l31 39zM81 533l-32 -40l-37 31l31 39z" />
    <glyph glyph-name="uni06BD.medi" unicode="&#x6bd;" horiz-adv-x="301" 
d="M321 23l-20 -23q-51 0 -88.5 18t-56.5 47q-22 -34 -66.5 -49.5t-90.5 -15.5l-19 22l23 25q43 0 79 14t52 41l-24 213h48l16 -208q16 -27 51.5 -43.5t79.5 -16.5zM151 553l-31 -39l-38 31l32 39zM215 468l-32 -39l-37 30l31 39zM105 460l-32 -40l-37 31l31 39z" />
    <glyph glyph-name="uni06BD.fina" unicode="&#x6bd;" horiz-adv-x="686" 
d="M686 0q-56 0 -87 30q2 -28 2 -57q0 -56 -40 -105.5t-109 -79t-152 -29.5q-126 0 -185 59t-59 162q0 89 40 179l32 -10q-15 -42 -23 -80.5t-8 -83.5q0 -179 207 -179q87 0 153.5 35.5t103.5 88.5q1 12 1 34q0 66 -13 122t-30 95t-46 97l47 20q48 -119 67 -188
q13 -36 38.5 -49.5t64.5 -13.5l16 -24zM332 479l-31 -39l-38 31l32 39zM396 394l-32 -39l-37 30l31 39zM286 386l-32 -40l-37 31l31 39z" />
    <glyph glyph-name="uni06BF.init" unicode="&#x6bf;" horiz-adv-x="674" 
d="M327.5 403.5q52.5 -28.5 137.5 -90.5q37 -27 80 -56t82 -51l-6 -39l-25 -3q-66 -8 -128 -27.5t-150 -54.5q-99 -41 -170.5 -61.5t-147.5 -20.5l-20 24l24 23q72 0 135.5 17.5t158.5 54.5q82 31 138.5 49.5t124.5 31.5q-42 27 -107 72q-87 61 -136 87t-99 26
q-54 0 -101 -36l-20 40q29 23 58 33t65 10q54 0 106.5 -28.5zM312 -139l32 39l37 -31l-32 -39zM202 -147l32 39l37 -31l-32 -39zM266 -233l31 39l38 -31l-32 -39zM165 549l36 45l46 -39l-36 -45z" />
    <glyph glyph-name="uni06BF.medi" unicode="&#x6bf;" horiz-adv-x="753" 
d="M773 23l-20 -23q-93 0 -161.5 46.5t-92.5 144.5q-49 -11 -95 -32.5t-113 -58.5q-91 -50 -154.5 -75t-136.5 -25l-20 23l24 24q67 0 124 21.5t139 65.5q80 42 139 66.5t131 33.5q-45 17 -81.5 36.5t-82.5 47.5q-60 36 -96 51.5t-78 15.5q-54 0 -101 -36l-19 41
q29 22 57.5 32t64.5 10q46 0 86.5 -18.5t108.5 -60.5q56 -36 105 -62t109 -47l-6 -43l-38 -1q-11 0 -29 -2q26 -85 81.5 -118t138.5 -33zM394 -89l32 39l37 -31l-32 -39zM284 -97l32 39l37 -31l-32 -39zM348 -183l31 39l38 -31l-32 -39zM165 550l36 45l46 -39l-36 -45z" />
    <glyph glyph-name="uni06BF.fina" unicode="&#x6bf;" horiz-adv-x="687" 
d="M270.5 123q-81.5 -48 -125.5 -113t-44 -136q0 -77 51 -126.5t160 -49.5q58 0 116.5 11.5t108.5 31.5l18 -42q-51 -23 -115 -36t-133 -13q-127 0 -186.5 63.5t-59.5 158.5q0 90 59.5 169.5t165 132.5t239.5 67l-78 46q-92 54 -139 75.5t-95 21.5q-28 0 -56.5 -9t-51.5 -26
l-19 40q56 42 125 42q52 0 102.5 -23.5t129.5 -73.5q97 -59 148 -85l-7 -40l-23 -2q-42 -4 -66 -8q18 -87 64.5 -119.5t132.5 -32.5l15 -24l-20 -23q-96 0 -153 45.5t-74 147.5q-108 -22 -189.5 -70zM377 -30l32 40l37 -31l-32 -39zM267 -38l32 39l37 -30l-32 -39zM331 -123
l31 39l38 -31l-32 -39zM172 549l36 45l46 -39l-36 -45z" />
    <glyph glyph-name="uni06C2.fina" unicode="&#x6c2;" horiz-adv-x="549" 
d="M27 -26q42 147 91 212.5t114 65.5q34 0 58 -12.5t40 -30.5t37 -49q26 -37 46.5 -59.5t55 -38t84.5 -15.5l16 -24l-20 -23q-59 0 -99 17.5t-62.5 42t-47.5 63.5q-27 42 -49 61.5t-59 19.5q-53 0 -88.5 -58t-72.5 -181zM328 347l-190 -31l-1 27l68 11q-24 17 -37.5 37
t-13.5 40q0 32 23 53.5t67 21.5q31 0 58 -15l-8 -28q-27 15 -52 15q-31 0 -45 -14t-14 -34q0 -18 14 -36.5t40 -34.5l90 15z" />
    <glyph glyph-name="uni06C3.fina" unicode="&#x6c3;" horiz-adv-x="549" 
d="M27 -26q42 147 91 212.5t114 65.5q34 0 58 -12.5t40 -30.5t37 -49q26 -37 46.5 -59.5t55 -38t84.5 -15.5l16 -24l-20 -23q-59 0 -99 17.5t-62.5 42t-47.5 63.5q-27 42 -49 61.5t-59 19.5q-53 0 -88.5 -58t-72.5 -181zM227 375l33 41l39 -32l-33 -41zM113 367l33 41
l40 -32l-34 -41z" />
    <glyph glyph-name="uni06C4.fina" unicode="&#x6c4;" horiz-adv-x="517" 
d="M517 0h-96q-39 -200 -348 -252l-17 47q34 5 61 12q-17 10 -26 26.5t-9 36.5q0 32 22 53.5t55 21.5q32 0 53.5 -21t21.5 -54q0 -14 -5 -27q121 55 149 157h-70q-72 0 -123.5 21t-78.5 58t-27 84q0 48 24 92t63 71t79 27q43 0 85 -34.5t69 -101.5t27 -159v-11h95l16 -24z
M386 47q0 86 -21.5 144.5t-53.5 86.5t-67 28q-30 0 -59 -20t-47.5 -53t-18.5 -68q0 -56 47.5 -87t139.5 -31h80zM124 -96q-13 -12 -13 -34q0 -21 12.5 -34t35.5 -13t35 12.5t12 34.5q0 21 -13 33.5t-34 12.5q-22 0 -35 -12z" />
    <glyph glyph-name="uni06CA.fina" unicode="&#x6ca;" horiz-adv-x="517" 
d="M517 0h-96q-39 -200 -348 -252l-17 47q150 24 226 76.5t96 128.5h-70q-72 0 -123.5 21t-78.5 58t-27 84q0 48 24 92t63 71t79 27q43 0 85 -34.5t69 -101.5t27 -159v-11h95l16 -24zM386 47q0 86 -21.5 144.5t-53.5 86.5t-67 28q-30 0 -59 -20t-47.5 -53t-18.5 -68
q0 -56 47.5 -87t139.5 -31h80zM247 481l33 41l39 -32l-33 -41zM133 473l33 41l40 -32l-34 -41z" />
    <glyph glyph-name="uni06CD.fina" unicode="&#x6cd;" horiz-adv-x="733" 
d="M733 0q-55 0 -119 27q30 -33 30 -87q0 -24 -40.5 -56.5t-113.5 -56.5t-164 -24q-126 0 -185 59t-59 162q0 55 15 112q-38 -19 -94 -30l-4 30q34 9 66 26t57 41l32 -10q-15 -41 -23 -80t-8 -84q0 -179 207 -179q108 0 178 28.5t100 55.5q-1 39 -16 64t-56 46t-121 44
l27 39q64 -20 119 -40q61 -22 97 -31t79 -9l16 -24z" />
    <glyph glyph-name="uni06CE.init" unicode="&#x6ce;" horiz-adv-x="254" 
d="M-20 24l24 23q41 0 80.5 14t63.5 39q0 66 -15 137t-38 136l46 15q47 -145 47 -273q0 -33 -27.5 -59.5t-71 -41t-89.5 -14.5zM131 -138l33 41l40 -32l-34 -41zM18 -146l33 40l39 -32l-33 -40zM110 480l68 116l23 -10l-77 -139h-29l-76 139l23 10z" />
    <glyph glyph-name="uni06CE.medi" unicode="&#x6ce;" horiz-adv-x="301" 
d="M321 23l-20 -23q-51 0 -88.5 18t-56.5 47q-22 -34 -66.5 -49.5t-90.5 -15.5l-19 22l23 25q43 0 79 14t52 41l-24 213h48l16 -208q16 -27 51.5 -43.5t79.5 -16.5zM177 -138l33 41l40 -32l-34 -41zM64 -146l33 40l39 -32l-33 -40zM134 407l68 116l23 -10l-77 -139h-29
l-76 139l23 10z" />
    <glyph glyph-name="uni06CE.fina" unicode="&#x6ce;" horiz-adv-x="707" 
d="M707 0q-55 0 -119 27q30 -33 30 -87q0 -24 -40.5 -57t-113 -56.5t-164.5 -23.5q-126 0 -185 59t-59 162q0 91 40 179l32 -10q-15 -41 -23 -80t-8 -84q0 -179 207 -179q108 0 178 28.5t100 55.5q-1 39 -16 64t-56 46t-121 44l27 39q64 -20 119 -40q61 -22 97 -31t79 -9
l16 -24zM139 326l68 116l23 -10l-77 -139h-29l-76 139l23 10z" />
    <glyph glyph-name="uni06CF.fina" unicode="&#x6cf;" horiz-adv-x="517" 
d="M517 0h-96q-39 -200 -348 -252l-17 47q150 24 226 76.5t96 128.5h-70q-72 0 -123.5 21t-78.5 58t-27 84q0 48 24 92t63 71t79 27q43 0 85 -34.5t69 -101.5t27 -159v-11h95l16 -24zM386 47q0 86 -21.5 144.5t-53.5 86.5t-67 28q-30 0 -59 -20t-47.5 -53t-18.5 -68
q0 -56 47.5 -87t139.5 -31h80zM200 476l36 45l46 -39l-36 -45z" />
    <glyph glyph-name="uni06D1.init" unicode="&#x6d1;" horiz-adv-x="254" 
d="M-20 24l24 23q41 0 80.5 14t63.5 39q0 66 -15 137t-38 136l46 15q47 -145 47 -273q0 -33 -27.5 -59.5t-71 -41t-89.5 -14.5zM131 -139l32 39l37 -31l-32 -39zM21 -147l32 39l37 -31l-32 -39zM85 -233l31 39l38 -31l-32 -39z" />
    <glyph glyph-name="uni06D1.medi" unicode="&#x6d1;" horiz-adv-x="301" 
d="M321 23l-20 -23q-51 0 -88.5 18t-56.5 47q-22 -34 -66.5 -49.5t-90.5 -15.5l-19 22l23 25q43 0 79 14t52 41l-24 213h48l16 -208q16 -27 51.5 -43.5t79.5 -16.5zM177 -139l32 39l37 -31l-32 -39zM67 -147l32 39l37 -31l-32 -39zM131 -233l31 39l38 -31l-32 -39z" />
    <glyph glyph-name="uni06D1.fina" unicode="&#x6d1;" horiz-adv-x="707" 
d="M707 0q-55 0 -119 27q30 -33 30 -87q0 -24 -40.5 -57t-113 -56.5t-164.5 -23.5q-126 0 -185 59t-59 162q0 91 40 179l32 -10q-15 -41 -23 -80t-8 -84q0 -179 207 -179q108 0 178 28.5t100 55.5q-1 39 -16 64t-56 46t-121 44l27 39q64 -20 119 -40q61 -22 97 -31t79 -9
l16 -24zM321 -326l32 39l37 -31l-32 -39zM211 -334l32 39l37 -31l-32 -39zM275 -420l31 39l38 -31l-32 -39z" />
    <glyph glyph-name="uni06D5.fina" unicode="&#x6d5;" horiz-adv-x="492" 
d="M512 23l-20 -23h-11q-54 0 -88.5 24t-46.5 69q-31 -26 -75 -40.5t-92 -14.5q-41 0 -76 14.5t-55.5 38.5t-20.5 50q0 59 42 108.5t110.5 83.5t150.5 51l-4 105l43 6l10 -331q1 -64 26 -90.5t80 -26.5h12zM108 99q32 -16 78 -16q90 0 153 50l-7 206q-113 -22 -189 -74
t-79 -127q12 -23 44 -39z" />
    <glyph glyph-name="uni06EE.fina" unicode="&#x6ee;" horiz-adv-x="513" 
d="M533 23l-20 -23q-44 0 -75 18t-48 49q-35 -38 -88.5 -59t-121.5 -21q-74 0 -153 27l17 46q67 -23 139 -23q58 0 107 17t83 48l-157 368l48 22l134 -347q21 -55 45.5 -76.5t72.5 -21.5zM97 581l76 139h29l77 -139l-23 -10l-68 115l-68 -115z" />
    <glyph glyph-name="uni06FA.init" unicode="&#x6fa;" horiz-adv-x="744" 
d="M662.5 252q15.5 -66 15.5 -147q0 -31 -20.5 -55t-53 -37t-65.5 -13q-46 0 -79.5 17t-51.5 46q-17 -32 -52 -47.5t-72 -15.5q-46 0 -78.5 17t-50.5 46q-34 -63 -156 -63l-19 22l23 25q55 0 87 13.5t42 41.5l-23 213h47l17 -208q17 -28 46 -44t69 -16q33 0 60 14t37 41
l-23 213h47l17 -208q16 -27 45.5 -43.5t70.5 -16.5q30 0 57 11.5t40 28.5q-1 80 -19 146t-50 137l47 17q30 -69 45.5 -135zM403 553l-31 -39l-38 31l32 39zM467 468l-32 -39l-37 30l31 39zM357 460l-32 -40l-37 31l31 39zM359 -136l37 45l46 -38l-37 -46z" />
    <glyph glyph-name="uni06FA.medi" unicode="&#x6fa;" horiz-adv-x="821" 
d="M821 0q-99 0 -162 53q-19 -25 -51 -39t-70 -14q-46 0 -79 17t-51 46q-17 -32 -52 -47.5t-72 -15.5q-46 0 -78.5 17t-50.5 46q-34 -63 -156 -63l-19 22l23 25q55 0 87 13.5t42 41.5l-23 213h47l17 -208q17 -28 46 -44t69 -16q33 0 60 14t37 41l-23 213h47l17 -208
q16 -27 45.5 -43.5t69.5 -16.5q30 0 56.5 11.5t39.5 28.5q-6 69 -17 135t-29 154l49 11q14 -78 22.5 -145t12.5 -149q29 -22 63 -34t87 -12l16 -24zM403 553l-31 -39l-38 31l32 39zM467 468l-32 -39l-37 30l31 39zM357 460l-32 -40l-37 31l31 39zM362 -136l37 45l46 -38
l-37 -46z" />
    <glyph glyph-name="uni06FA.fina" unicode="&#x6fa;" horiz-adv-x="1224" 
d="M1223 0q-101 0 -162 53q-20 -26 -51 -39.5t-70 -13.5q-46 0 -79 17t-51 46q-17 -32 -52 -47.5t-72 -15.5h-1q-23 0 -46 7.5t-40 22.5q2 -28 2 -57q0 -56 -40 -105.5t-109 -79t-152 -29.5q-126 0 -185 59t-59 162q0 89 40 179l32 -10q-15 -42 -23 -80.5t-8 -83.5
q0 -179 207 -179q87 0 153.5 35.5t103.5 88.5q1 12 1 34q0 66 -13 122t-30 95t-46 97l47 20q48 -119 67 -188q13 -36 38.5 -49.5t64.5 -13.5q33 0 60 14t37 41l-24 213h48l16 -208q16 -27 46 -43.5t69 -16.5q31 0 57.5 11.5t39.5 28.5q-6 70 -16.5 134.5t-28.5 154.5l50 11
q13 -79 21 -145.5t13 -148.5q28 -22 61.5 -34t87.5 -12l16 -24zM805 553l-31 -39l-38 31l32 39zM869 468l-32 -39l-37 30l31 39zM759 460l-32 -40l-37 31l31 39zM767 -136l37 45l46 -38l-37 -46z" />
    <glyph glyph-name="uni06FB.init" unicode="&#x6fb;" horiz-adv-x="899" 
d="M595 467l-46 39l37 46l46 -39zM787.5 344q45.5 -60 45.5 -187q0 -80 -95.5 -118.5t-303.5 -38.5h-141q-50 0 -87 18t-55 47q-21 -33 -64 -49t-88 -16l-19 22l23 25q41 0 76 14.5t50 40.5l-20 272h47l14 -261q12 -26 40 -43.5t65 -21.5q76 163 176 259.5t206 96.5
q85 0 130.5 -60zM792 166q0 101 -37 146t-95 45q-94 0 -179 -78.5t-166 -231.5h119q115 0 184 9t106 25t66 43q2 30 2 42zM456 -91l46 -38l-37 -46l-46 39z" />
    <glyph glyph-name="uni06FB.medi" unicode="&#x6fb;" horiz-adv-x="937" 
d="M595 467l-46 39l37 46l46 -39zM957 23l-20 -23q-42 0 -75.5 22.5t-55.5 60.5q-37 -42 -128.5 -62.5t-243.5 -20.5h-141q-50 0 -87 18t-55 47q-21 -33 -64 -49t-88 -16l-19 22l23 25q41 0 76 14.5t50 40.5l-20 272h47l14 -261q12 -26 40 -43.5t65 -21.5q76 163 176 259.5
t206 96.5q85 0 130.5 -60t45.5 -187q0 -21 -6 -39q17 -31 48 -51t66 -20zM792 166q0 101 -37 146t-95 45q-94 0 -179 -78.5t-166 -231.5h119q115 0 184 9t106 25t66 43q2 30 2 42zM456 -91l46 -38l-37 -46l-46 39z" />
    <glyph glyph-name="uni06FB.fina" unicode="&#x6fb;" horiz-adv-x="1330" 
d="M988 467l-45 39l36 46l46 -39zM1350 23l-20 -23q-42 0 -75 22t-55 61q-38 -42 -129 -62.5t-243 -20.5h-142q-56 0 -87 30q2 -28 2 -57q0 -56 -40 -105.5t-109 -79t-152 -29.5q-126 0 -185 59t-59 162q0 89 40 179l32 -10q-15 -42 -23 -80.5t-8 -83.5q0 -179 207 -179
q87 0 153.5 35.5t103.5 88.5q1 12 1 34q0 66 -13 122t-30 95t-46 97l47 20q48 -119 67 -188q11 -30 31.5 -44.5t50.5 -17.5q75 163 175.5 259.5t205.5 96.5q85 0 131 -60t46 -187q0 -22 -7 -40q18 -30 49 -50t66 -20zM1185 163q0 103 -37 148.5t-94 45.5q-94 0 -179 -78
t-167 -232h120q115 0 183.5 9t106 25t66.5 43q1 14 1 39zM849 -91l46 -38l-37 -46l-45 39z" />
    <glyph glyph-name="uni06FC.init" unicode="&#x6fc;" horiz-adv-x="539" 
d="M517 52q-130 -31 -216 -41.5t-209 -10.5h-92l-20 23l24 24h79q53 0 125 2q-66 39 -100 93t-34 111q0 45 20.5 83t63 60.5t103.5 22.5q33 0 70 -9t68 -27l-15 -45q-30 16 -63 24.5t-60 8.5q-74 0 -109.5 -33t-35.5 -88q0 -114 155 -196q51 5 103 15t138 30zM209 536l36 45
l46 -39l-36 -45zM210 -136l37 45l46 -38l-37 -46z" />
    <glyph glyph-name="uni06FC.medi" unicode="&#x6fc;" horiz-adv-x="540" 
d="M560 22l-20 -22h-23q-133 0 -231 89q-68 -41 -138.5 -65t-122.5 -24h-25l-20 22l24 25h13q51 0 113.5 19.5t122.5 53.5q-32 34 -38 42q-40 44 -75 77.5t-86 71.5l5 45q106 46 215 46q60 0 105 -12t69 -30t24 -37q0 -53 -40 -107.5t-107 -101.5q46 -37 89 -52t112 -15h18z
M161.5 273q26.5 -25 67.5 -67q40 -42 62 -62q61 40 100.5 87t46.5 93q-29 13 -72 22.5t-92 9.5q-87 0 -173 -32q34 -26 60.5 -51zM221 529l36 45l46 -39l-36 -45zM250 -136l37 45l46 -38l-37 -46z" />
    <glyph glyph-name="uni06FC.fina" unicode="&#x6fc;" horiz-adv-x="551" 
d="M173.5 18.5q-41.5 -35.5 -64.5 -75t-23 -88.5q0 -40 22 -76t71 -58.5t127 -22.5q57 0 117 12t109 31l17 -42q-50 -22 -115 -35.5t-133 -13.5q-90 0 -147 29.5t-82.5 75t-25.5 97.5q0 83 51.5 146t155.5 131l-29 31q-34 38 -71 73.5t-91 77.5l5 46q54 22 103.5 33.5
t109.5 11.5t105.5 -11.5t70 -29.5t24.5 -36q0 -56 -39.5 -101.5t-119.5 -98.5q55 -46 96 -62t111 -16h26l17 -24l-20 -23h-31q-66 0 -120 23.5t-116 76.5q-69 -46 -110.5 -81.5zM175.5 267q29.5 -28 68.5 -68q7 -8 46 -47q71 47 110.5 88.5t45.5 84.5q-26 11 -70 21t-96 10
q-87 0 -172 -32q38 -29 67.5 -57zM239 528l36 45l46 -39l-36 -45zM282 -108l37 45l46 -38l-37 -46z" />
    <glyph glyph-name="uni06FF.init" unicode="&#x6ff;" horiz-adv-x="627" 
d="M370 361.5q94 -69.5 142.5 -138.5t48.5 -143q0 -22 -20.5 -43.5t-57.5 -35.5t-83 -14q-99 0 -187 47q-83 -34 -192 -34h-21l-20 23l24 24h26q76 0 138 17q-49 36 -76.5 84t-27.5 103q0 42 18.5 79t50.5 60.5t73 26.5q-34 21 -102 59l23 40q149 -85 243 -154.5zM132 155
q31 -44 84 -74q59 26 90 69t31 97q0 56 -33.5 95t-83.5 39q-53 0 -86 -38t-33 -94q0 -50 31 -94zM475 43.5q32 10.5 52 28.5q-2 59 -44.5 118.5t-123.5 123.5q13 -30 13 -65q0 -56 -28 -105.5t-82 -84.5q64 -26 138 -26q43 0 75 10.5zM266 537l76 139h29l77 -139l-23 -10
l-68 115l-68 -115z" />
    <glyph glyph-name="uni06FF.medi" unicode="&#x6ff;" horiz-adv-x="486" 
d="M486 0h-142q90 -48 90 -157q0 -25 -16 -47.5t-46 -36.5t-68 -14q-59 0 -105.5 32.5t-73.5 90.5t-29 132h-96l-20 23l24 24h92q3 81 36 155t84 119.5t104 45.5q50 0 81.5 -39.5t31.5 -104.5q0 -52 -29.5 -100.5t-81.5 -75.5h168l16 -24zM232.5 282q-39.5 -37 -67 -100
t-31.5 -135h69q55 0 98 23.5t66.5 62t23.5 83.5t-22 74t-57 29q-40 0 -79.5 -37zM373.5 -77q-22.5 38 -61 57.5t-84.5 19.5h-25h-69q5 -96 49.5 -152t116.5 -56q39 0 64.5 13.5t31.5 26.5q0 53 -22.5 91zM225 427l76 139h29l77 -139l-23 -10l-68 115l-68 -115z" />
    <glyph glyph-name="uni06FF.fina" unicode="&#x6ff;" horiz-adv-x="564" 
d="M564 0h-142q90 -48 90 -157q0 -25 -16 -47.5t-45.5 -36.5t-68.5 -14q-58 0 -104.5 32.5t-73.5 90.5t-29 132q-81 1 -139 29l21 41q49 -22 118 -23q3 81 36 155t83.5 119.5t103.5 45.5q50 0 81.5 -39.5t31.5 -104.5q0 -52 -29.5 -100.5t-81.5 -75.5h168l16 -24zM311 282
q-40 -37 -67.5 -100t-31.5 -135h69q55 0 98 23.5t66.5 62t23.5 83.5t-22 74t-56 29q-40 0 -80 -37zM451.5 -77q-22.5 38 -61 57.5t-84.5 19.5h-94q5 -96 49.5 -152t116.5 -56q39 0 64.5 13.5t31.5 26.5q0 53 -22.5 91zM304 427l76 139h29l77 -139l-23 -10l-68 115l-68 -115z
" />
    <glyph glyph-name="uniFB51" unicode="&#x671;" horiz-adv-x="227" arabic-form="final" 
d="M80 705l46 5v-548q0 -63 24.5 -89t80.5 -26l16 -24l-20 -23q-140 0 -141 157zM211.5 893.5q17.5 -17.5 17.5 -44.5q0 -36 -29 -54.5t-76 -18.5q-30 0 -85 17l-17 -40l-25 9l23 65q11 -4 33 -10q22 47 51 70.5t60 23.5q30 0 47.5 -17.5zM182 815q19 10 19 31q0 35 -40 35
q-23 0 -45 -18.5t-41 -50.5q28 -7 55 -7q33 0 52 10z" />
    <glyph glyph-name="uniFB53" unicode="&#x67b;" horiz-adv-x="896" arabic-form="final" 
d="M911 24l-20 -24q-107 0 -155 84q-72 -48 -170 -72.5t-236 -24.5q-143 0 -208.5 45t-65.5 139q0 77 36 150l32 -11q-27 -67 -27 -135q0 -73 55.5 -106.5t182.5 -33.5t226 24t159 66l-37 190h48l24 -157q8 -51 37.5 -81t103.5 -30zM325 -135l33 41l39 -33l-32 -40z
M347 -243l33 40l39 -32l-33 -41z" />
    <glyph glyph-name="uniFB54" unicode="&#x67b;" horiz-adv-x="254" arabic-form="initial" 
d="M-20 24l24 23q41 0 80.5 14t63.5 39q0 66 -15 137t-38 136l46 15q47 -145 47 -273q0 -33 -27.5 -59.5t-71 -41t-89.5 -14.5zM75 -135l33 41l39 -33l-32 -40zM97 -243l33 40l39 -32l-33 -41z" />
    <glyph glyph-name="uniFB55" unicode="&#x67b;" horiz-adv-x="301" arabic-form="medial" 
d="M321 23l-20 -23q-51 0 -88.5 18t-56.5 47q-22 -34 -66.5 -49.5t-90.5 -15.5l-19 22l23 25q43 0 79 14t52 41l-24 213h48l16 -208q16 -27 51.5 -43.5t79.5 -16.5zM120 -135l33 41l39 -33l-32 -40zM142 -243l33 40l39 -32l-33 -41z" />
    <glyph glyph-name="uniFB57" unicode="&#x67e;" horiz-adv-x="896" arabic-form="final" 
d="M911 24l-20 -24q-107 0 -155 84q-72 -48 -170 -72.5t-236 -24.5q-143 0 -208.5 45t-65.5 139q0 77 36 150l32 -11q-27 -67 -27 -135q0 -73 55.5 -106.5t182.5 -33.5t226 24t159 66l-37 190h48l24 -157q8 -51 37.5 -81t103.5 -30zM381 -139l32 39l37 -31l-32 -39z
M271 -147l32 39l37 -31l-32 -39zM335 -233l31 39l38 -31l-32 -39z" />
    <glyph glyph-name="uniFB58" unicode="&#x67e;" horiz-adv-x="254" arabic-form="initial" 
d="M-20 24l24 23q41 0 80.5 14t63.5 39q0 66 -15 137t-38 136l46 15q47 -145 47 -273q0 -33 -27.5 -59.5t-71 -41t-89.5 -14.5zM131 -139l32 39l37 -31l-32 -39zM21 -147l32 39l37 -31l-32 -39zM85 -233l31 39l38 -31l-32 -39z" />
    <glyph glyph-name="uniFB59" unicode="&#x67e;" horiz-adv-x="301" arabic-form="medial" 
d="M321 23l-20 -23q-51 0 -88.5 18t-56.5 47q-22 -34 -66.5 -49.5t-90.5 -15.5l-19 22l23 25q43 0 79 14t52 41l-24 213h48l16 -208q16 -27 51.5 -43.5t79.5 -16.5zM177 -139l32 39l37 -31l-32 -39zM67 -147l32 39l37 -31l-32 -39zM131 -233l31 39l38 -31l-32 -39z" />
    <glyph glyph-name="uniFB5B" unicode="&#x680;" horiz-adv-x="896" arabic-form="final" 
d="M911 24l-20 -24q-107 0 -155 84q-72 -48 -170 -72.5t-236 -24.5q-143 0 -208.5 45t-65.5 139q0 77 36 150l32 -11q-27 -67 -27 -135q0 -73 55.5 -106.5t182.5 -33.5t226 24t159 66l-37 190h48l24 -157q8 -51 37.5 -81t103.5 -30zM377 -110l31 38l37 -30l-31 -38z
M272 -118l31 38l36 -30l-31 -38zM397 -214l31 38l37 -30l-31 -38zM292 -222l31 38l36 -30l-31 -38z" />
    <glyph glyph-name="uniFB5C" unicode="&#x680;" horiz-adv-x="254" arabic-form="initial" 
d="M-20 24l24 23q41 0 80.5 14t63.5 39q0 66 -15 137t-38 136l46 15q47 -145 47 -273q0 -33 -27.5 -59.5t-71 -41t-89.5 -14.5zM127 -110l31 38l37 -30l-31 -38zM22 -118l31 38l36 -30l-31 -38zM147 -214l31 38l37 -30l-31 -38zM42 -222l31 38l36 -30l-31 -38z" />
    <glyph glyph-name="uniFB5D" unicode="&#x680;" horiz-adv-x="301" arabic-form="medial" 
d="M321 23l-20 -23q-51 0 -88.5 18t-56.5 47q-22 -34 -66.5 -49.5t-90.5 -15.5l-19 22l23 25q43 0 79 14t52 41l-24 213h48l16 -208q16 -27 51.5 -43.5t79.5 -16.5zM173 -110l31 38l37 -30l-31 -38zM68 -118l31 38l36 -30l-31 -38zM193 -214l31 38l37 -30l-31 -38zM88 -222
l31 38l36 -30l-31 -38z" />
    <glyph glyph-name="uniFB5F" unicode="&#x67a;" horiz-adv-x="891" arabic-form="final" 
d="M911 24l-20 -24q-107 0 -155 84q-72 -48 -170 -72.5t-236 -24.5q-143 0 -208.5 45t-65.5 139q0 77 36 150l32 -11q-27 -67 -27 -135q0 -73 55.5 -106.5t182.5 -33.5t226 24t159 66l-37 190h48l24 -157q8 -51 37.5 -81t103.5 -30zM357 510l33 41l39 -33l-33 -40zM378 402
l33 40l40 -32l-34 -40z" />
    <glyph glyph-name="uniFB60" unicode="&#x67a;" horiz-adv-x="254" arabic-form="initial" 
d="M-20 24l24 23q41 0 80.5 14t63.5 39q0 66 -15 137t-38 136l46 15q47 -145 47 -273q0 -33 -27.5 -59.5t-71 -41t-89.5 -14.5zM56 604l33 41l39 -33l-33 -40zM77 496l33 40l40 -32l-34 -40z" />
    <glyph glyph-name="uniFB61" unicode="&#x67a;" horiz-adv-x="301" arabic-form="medial" 
d="M321 23l-20 -23q-51 0 -88.5 18t-56.5 47q-22 -34 -66.5 -49.5t-90.5 -15.5l-19 22l23 25q43 0 79 14t52 41l-24 213h48l16 -208q16 -27 51.5 -43.5t79.5 -16.5zM80 531l33 41l39 -33l-33 -40zM101 423l33 40l40 -32l-34 -40z" />
    <glyph glyph-name="uniFB63" unicode="&#x67f;" horiz-adv-x="891" arabic-form="final" 
d="M911 24l-20 -24q-107 0 -155 84q-72 -48 -170 -72.5t-236 -24.5q-143 0 -208.5 45t-65.5 139q0 77 36 150l32 -11q-27 -67 -27 -135q0 -73 55.5 -106.5t182.5 -33.5t226 24t159 66l-37 190h48l24 -157q8 -51 37.5 -81t103.5 -30zM399 495l31 38l37 -30l-31 -38zM293 487
l31 38l37 -30l-31 -38zM419 391l31 38l37 -30l-31 -38zM313 383l31 38l37 -30l-31 -38z" />
    <glyph glyph-name="uniFB64" unicode="&#x67f;" horiz-adv-x="254" arabic-form="initial" 
d="M-20 24l24 23q41 0 80.5 14t63.5 39q0 66 -15 137t-38 136l46 15q47 -145 47 -273q0 -33 -27.5 -59.5t-71 -41t-89.5 -14.5zM98 589l31 38l37 -30l-31 -38zM-8 581l31 38l37 -30l-31 -38zM118 485l31 38l37 -30l-31 -38zM12 477l31 38l37 -30l-31 -38z" />
    <glyph glyph-name="uniFB65" unicode="&#x67f;" horiz-adv-x="301" arabic-form="medial" 
d="M321 23l-20 -23q-51 0 -88.5 18t-56.5 47q-22 -34 -66.5 -49.5t-90.5 -15.5l-19 22l23 25q43 0 79 14t52 41l-24 213h48l16 -208q16 -27 51.5 -43.5t79.5 -16.5zM122 516l31 38l37 -30l-31 -38zM16 508l31 38l37 -30l-31 -38zM142 412l31 38l37 -30l-31 -38zM36 404
l31 38l37 -30l-31 -38z" />
    <glyph glyph-name="uniFB67" unicode="&#x679;" horiz-adv-x="891" arabic-form="final" 
d="M911 24l-20 -24q-107 0 -155 84q-72 -48 -170 -72.5t-236 -24.5q-143 0 -208.5 45t-65.5 139q0 77 36 150l32 -11q-27 -67 -27 -135q0 -73 55.5 -106.5t182.5 -33.5t226 24t159 66l-37 190h48l24 -157q8 -51 37.5 -81t103.5 -30zM506 486q18 -23 18 -63q0 -13 -10 -28
t-31 -25.5t-51 -10.5h-132l3 27h21l17 28l-7 147h26v-117q24 34 47 49.5t50 15.5q31 0 49 -23zM501 415q0 35 -11.5 50.5t-35.5 15.5q-28 0 -54.5 -24t-52.5 -71h74q57 0 80 29z" />
    <glyph glyph-name="uniFB68" unicode="&#x679;" horiz-adv-x="254" arabic-form="initial" 
d="M-20 24l24 23q41 0 80.5 14t63.5 39q0 66 -15 137t-38 136l46 15q47 -145 47 -273q0 -33 -27.5 -59.5t-71 -41t-89.5 -14.5zM205 580q18 -23 18 -63q0 -13 -10 -28t-31 -25.5t-51 -10.5h-132l3 27h21l17 28l-7 147h26v-117q24 34 47 49.5t50 15.5q31 0 49 -23zM200 509
q0 35 -11.5 50.5t-35.5 15.5q-28 0 -54.5 -24t-52.5 -71h74q57 0 80 29z" />
    <glyph glyph-name="uniFB69" unicode="&#x679;" horiz-adv-x="301" arabic-form="medial" 
d="M321 23l-20 -23q-51 0 -88.5 18t-56.5 47q-22 -34 -66.5 -49.5t-90.5 -15.5l-19 22l23 25q43 0 79 14t52 41l-24 213h48l16 -208q16 -27 51.5 -43.5t79.5 -16.5zM229 507q18 -23 18 -63q0 -13 -10 -28t-31 -25.5t-51 -10.5h-132l3 27h21l17 28l-7 147h26v-117
q24 34 47 49.5t50 15.5q31 0 49 -23zM224 436q0 35 -11.5 50.5t-35.5 15.5q-28 0 -54.5 -24t-52.5 -71h74q57 0 80 29z" />
    <glyph glyph-name="uniFB6B" unicode="&#x6a4;" horiz-adv-x="928" arabic-form="final" 
d="M948 23l-20 -23h-28q-52 0 -105.5 11.5t-100.5 32.5q-135 -57 -341 -57h-23q-143 0 -208.5 45t-65.5 139q0 77 36 150l32 -11q-27 -67 -27 -135q0 -73 55.5 -106.5t182.5 -33.5h23q169 0 287 35q-54 34 -84.5 79.5t-30.5 99.5q0 51 24 96.5t62.5 73t78.5 27.5
q43 0 82.5 -27.5t64.5 -73.5t25 -98q0 -51 -31 -97t-91 -81q70 -22 155 -22h32zM603.5 153.5q33.5 -39.5 90.5 -65.5q66 28 99.5 67t33.5 87q0 42 -19.5 78t-50 57.5t-61.5 21.5t-60 -21t-47.5 -57t-18.5 -77q0 -51 33.5 -90.5zM712 681l-31 -39l-38 31l32 39zM776 596
l-32 -39l-37 30l31 39zM666 588l-32 -40l-37 31l31 39z" />
    <glyph glyph-name="uniFB6C" unicode="&#x6a4;" horiz-adv-x="451" arabic-form="initial" 
d="M294.5 506q39.5 -33 64.5 -110.5t25 -203.5v-34q0 -37 -42.5 -73.5t-129.5 -60.5t-212 -24l-20 24l24 23q138 0 216.5 25t122.5 64q2 61 1 86q-21 -18 -51.5 -27t-64.5 -9q-51 0 -93.5 21.5t-67 58.5t-24.5 83q0 48 24 92t62 71t79 27q47 0 86.5 -33zM293.5 237
q27.5 7 49.5 19q-8 127 -45.5 181.5t-91.5 54.5q-30 0 -58.5 -20t-47 -52.5t-18.5 -67.5q0 -56 44 -89t114 -33q26 0 53.5 7zM225 767l-31 -39l-38 31l32 39zM289 682l-32 -39l-37 30l31 39zM179 674l-32 -40l-37 31l31 39z" />
    <glyph glyph-name="uniFB6D" unicode="&#x6a4;" horiz-adv-x="468" arabic-form="medial" 
d="M488 23l-20 -23h-28q-50 0 -101.5 10.5t-96.5 29.5q-94 -40 -220 -40h-22l-20 23l24 24h23q90 0 164 19q-56 34 -88.5 80.5t-32.5 102.5q0 51 24 96.5t62.5 73t78.5 27.5q42 0 82 -27.5t65 -73.5t25 -98q0 -51 -29.5 -98t-84.5 -82q71 -20 147 -20h32zM146 151
q36 -41 97 -67q60 26 92 66.5t32 91.5q0 42 -19.5 78t-50 57.5t-61.5 21.5t-60 -21t-47.5 -57t-18.5 -77q0 -52 36 -93zM252 679l-31 -39l-38 31l32 39zM316 594l-32 -39l-37 30l31 39zM206 586l-32 -40l-37 31l31 39z" />
    <glyph glyph-name="uniFB6F" unicode="&#x6a6;" horiz-adv-x="928" arabic-form="final" 
d="M948 23l-20 -23h-28q-52 0 -105.5 11.5t-100.5 32.5q-135 -57 -341 -57h-23q-143 0 -208.5 45t-65.5 139q0 77 36 150l32 -11q-27 -67 -27 -135q0 -73 55.5 -106.5t182.5 -33.5h23q169 0 287 35q-54 34 -84.5 79.5t-30.5 99.5q0 51 24 96.5t62.5 73t78.5 27.5
q43 0 82.5 -27.5t64.5 -73.5t25 -98q0 -51 -31 -97t-91 -81q70 -22 155 -22h32zM603.5 153.5q33.5 -39.5 90.5 -65.5q66 28 99.5 67t33.5 87q0 42 -19.5 78t-50 57.5t-61.5 21.5t-60 -21t-47.5 -57t-18.5 -77q0 -51 33.5 -90.5zM683 644l31 38l37 -30l-31 -38zM577 636
l31 38l37 -30l-31 -38zM703 540l31 38l37 -30l-31 -38zM597 532l31 38l37 -30l-31 -38z" />
    <glyph glyph-name="uniFB70" unicode="&#x6a6;" horiz-adv-x="451" arabic-form="initial" 
d="M294.5 506q39.5 -33 64.5 -110.5t25 -203.5v-34q0 -37 -42.5 -73.5t-129.5 -60.5t-212 -24l-20 24l24 23q138 0 216.5 25t122.5 64q2 61 1 86q-21 -18 -51.5 -27t-64.5 -9q-51 0 -93.5 21.5t-67 58.5t-24.5 83q0 48 24 92t62 71t79 27q47 0 86.5 -33zM293.5 237
q27.5 7 49.5 19q-8 127 -45.5 181.5t-91.5 54.5q-30 0 -58.5 -20t-47 -52.5t-18.5 -67.5q0 -56 44 -89t114 -33q26 0 53.5 7zM196 730l31 38l37 -30l-31 -38zM90 722l31 38l37 -30l-31 -38zM216 626l31 38l37 -30l-31 -38zM110 618l31 38l37 -30l-31 -38z" />
    <glyph glyph-name="uniFB71" unicode="&#x6a6;" horiz-adv-x="468" arabic-form="medial" 
d="M488 23l-20 -23h-28q-50 0 -101.5 10.5t-96.5 29.5q-94 -40 -220 -40h-22l-20 23l24 24h23q90 0 164 19q-56 34 -88.5 80.5t-32.5 102.5q0 51 24 96.5t62.5 73t78.5 27.5q42 0 82 -27.5t65 -73.5t25 -98q0 -51 -29.5 -98t-84.5 -82q71 -20 147 -20h32zM146 151
q36 -41 97 -67q60 26 92 66.5t32 91.5q0 42 -19.5 78t-50 57.5t-61.5 21.5t-60 -21t-47.5 -57t-18.5 -77q0 -52 36 -93zM223 642l31 38l37 -30l-31 -38zM117 634l31 38l37 -30l-31 -38zM243 538l31 38l37 -30l-31 -38zM137 530l31 38l37 -30l-31 -38z" />
    <glyph glyph-name="uniFB73" unicode="&#x684;" horiz-adv-x="687" arabic-form="final" 
d="M270.5 123q-81.5 -48 -125.5 -113t-44 -136q0 -77 51 -126.5t160 -49.5q58 0 116.5 11.5t108.5 31.5l18 -42q-51 -23 -115 -36t-133 -13q-127 0 -186.5 63.5t-59.5 158.5q0 90 59.5 169.5t165 132.5t239.5 67l-78 46q-92 54 -139 75.5t-95 21.5q-28 0 -56.5 -9t-51.5 -26
l-19 40q56 42 125 42q52 0 102.5 -23.5t129.5 -73.5q97 -59 148 -85l-7 -40l-23 -2q-42 -4 -66 -8q18 -87 64.5 -119.5t132.5 -32.5l15 -24l-20 -23q-96 0 -153 45.5t-74 147.5q-108 -22 -189.5 -70zM322 -21l33 41l39 -32l-33 -41zM343 -129l33 41l39 -32l-33 -41z" />
    <glyph glyph-name="uniFB74" unicode="&#x684;" horiz-adv-x="674" arabic-form="initial" 
d="M327.5 403.5q52.5 -28.5 137.5 -90.5q37 -27 80 -56t82 -51l-6 -39l-25 -3q-66 -8 -128 -27.5t-150 -54.5q-99 -41 -170.5 -61.5t-147.5 -20.5l-20 24l24 23q72 0 135.5 17.5t158.5 54.5q82 31 138.5 49.5t124.5 31.5q-42 27 -107 72q-87 61 -136 87t-99 26
q-54 0 -101 -36l-20 40q29 23 58 33t65 10q54 0 106.5 -28.5zM255 -135l33 41l39 -33l-32 -40zM277 -243l33 40l39 -32l-33 -41z" />
    <glyph glyph-name="uniFB75" unicode="&#x684;" horiz-adv-x="753" arabic-form="medial" 
d="M773 23l-20 -23q-93 0 -161.5 46.5t-92.5 144.5q-49 -11 -95 -32.5t-113 -58.5q-91 -50 -154.5 -75t-136.5 -25l-20 23l24 24q67 0 124 21.5t139 65.5q80 42 139 66.5t131 33.5q-45 17 -81.5 36.5t-82.5 47.5q-60 36 -96 51.5t-78 15.5q-54 0 -101 -36l-19 41
q29 22 57.5 32t64.5 10q46 0 86.5 -18.5t108.5 -60.5q56 -36 105 -62t109 -47l-6 -43l-38 -1q-11 0 -29 -2q26 -85 81.5 -118t138.5 -33zM338 -85l33 41l39 -33l-32 -40zM360 -193l33 40l39 -32l-33 -41z" />
    <glyph glyph-name="uniFB77" unicode="&#x683;" horiz-adv-x="687" arabic-form="final" 
d="M270.5 123q-81.5 -48 -125.5 -113t-44 -136q0 -77 51 -126.5t160 -49.5q58 0 116.5 11.5t108.5 31.5l18 -42q-51 -23 -115 -36t-133 -13q-127 0 -186.5 63.5t-59.5 158.5q0 90 59.5 169.5t165 132.5t239.5 67l-78 46q-92 54 -139 75.5t-95 21.5q-28 0 -56.5 -9t-51.5 -26
l-19 40q56 42 125 42q52 0 102.5 -23.5t129.5 -73.5q97 -59 148 -85l-7 -40l-23 -2q-42 -4 -66 -8q18 -87 64.5 -119.5t132.5 -32.5l15 -24l-20 -23q-96 0 -153 45.5t-74 147.5q-108 -22 -189.5 -70zM377 -68l33 41l40 -32l-34 -41zM264 -76l33 40l39 -32l-33 -40z" />
    <glyph glyph-name="uniFB78" unicode="&#x683;" horiz-adv-x="674" arabic-form="initial" 
d="M327.5 403.5q52.5 -28.5 137.5 -90.5q37 -27 80 -56t82 -51l-6 -39l-25 -3q-66 -8 -128 -27.5t-150 -54.5q-99 -41 -170.5 -61.5t-147.5 -20.5l-20 24l24 23q72 0 135.5 17.5t158.5 54.5q82 31 138.5 49.5t124.5 31.5q-42 27 -107 72q-87 61 -136 87t-99 26
q-54 0 -101 -36l-20 40q29 23 58 33t65 10q54 0 106.5 -28.5zM312 -138l33 41l40 -32l-34 -41zM199 -146l33 40l39 -32l-33 -40z" />
    <glyph glyph-name="uniFB79" unicode="&#x683;" horiz-adv-x="753" arabic-form="medial" 
d="M773 23l-20 -23q-93 0 -161.5 46.5t-92.5 144.5q-49 -11 -95 -32.5t-113 -58.5q-91 -50 -154.5 -75t-136.5 -25l-20 23l24 24q67 0 124 21.5t139 65.5q80 42 139 66.5t131 33.5q-45 17 -81.5 36.5t-82.5 47.5q-60 36 -96 51.5t-78 15.5q-54 0 -101 -36l-19 41
q29 22 57.5 32t64.5 10q46 0 86.5 -18.5t108.5 -60.5q56 -36 105 -62t109 -47l-6 -43l-38 -1q-11 0 -29 -2q26 -85 81.5 -118t138.5 -33zM394 -88l33 41l40 -32l-34 -41zM281 -96l33 40l39 -32l-33 -40z" />
    <glyph glyph-name="uniFB7B" unicode="&#x686;" horiz-adv-x="687" arabic-form="final" 
d="M270.5 123q-81.5 -48 -125.5 -113t-44 -136q0 -77 51 -126.5t160 -49.5q58 0 116.5 11.5t108.5 31.5l18 -42q-51 -23 -115 -36t-133 -13q-127 0 -186.5 63.5t-59.5 158.5q0 90 59.5 169.5t165 132.5t239.5 67l-78 46q-92 54 -139 75.5t-95 21.5q-28 0 -56.5 -9t-51.5 -26
l-19 40q56 42 125 42q52 0 102.5 -23.5t129.5 -73.5q97 -59 148 -85l-7 -40l-23 -2q-42 -4 -66 -8q18 -87 64.5 -119.5t132.5 -32.5l15 -24l-20 -23q-96 0 -153 45.5t-74 147.5q-108 -22 -189.5 -70zM377 -30l32 40l37 -31l-32 -39zM267 -38l32 39l37 -30l-32 -39zM331 -123
l31 39l38 -31l-32 -39z" />
    <glyph glyph-name="uniFB7C" unicode="&#x686;" horiz-adv-x="674" arabic-form="initial" 
d="M327.5 403.5q52.5 -28.5 137.5 -90.5q37 -27 80 -56t82 -51l-6 -39l-25 -3q-66 -8 -128 -27.5t-150 -54.5q-99 -41 -170.5 -61.5t-147.5 -20.5l-20 24l24 23q72 0 135.5 17.5t158.5 54.5q82 31 138.5 49.5t124.5 31.5q-42 27 -107 72q-87 61 -136 87t-99 26
q-54 0 -101 -36l-20 40q29 23 58 33t65 10q54 0 106.5 -28.5zM312 -139l32 39l37 -31l-32 -39zM202 -147l32 39l37 -31l-32 -39zM266 -233l31 39l38 -31l-32 -39z" />
    <glyph glyph-name="uniFB7D" unicode="&#x686;" horiz-adv-x="753" arabic-form="medial" 
d="M773 23l-20 -23q-93 0 -161.5 46.5t-92.5 144.5q-49 -11 -95 -32.5t-113 -58.5q-91 -50 -154.5 -75t-136.5 -25l-20 23l24 24q67 0 124 21.5t139 65.5q80 42 139 66.5t131 33.5q-45 17 -81.5 36.5t-82.5 47.5q-60 36 -96 51.5t-78 15.5q-54 0 -101 -36l-19 41
q29 22 57.5 32t64.5 10q46 0 86.5 -18.5t108.5 -60.5q56 -36 105 -62t109 -47l-6 -43l-38 -1q-11 0 -29 -2q26 -85 81.5 -118t138.5 -33zM394 -89l32 39l37 -31l-32 -39zM284 -97l32 39l37 -31l-32 -39zM348 -183l31 39l38 -31l-32 -39z" />
    <glyph glyph-name="uniFB7F" unicode="&#x687;" horiz-adv-x="687" arabic-form="final" 
d="M270.5 123q-81.5 -48 -125.5 -113t-44 -136q0 -77 51 -126.5t160 -49.5q58 0 116.5 11.5t108.5 31.5l18 -42q-51 -23 -115 -36t-133 -13q-127 0 -186.5 63.5t-59.5 158.5q0 90 59.5 169.5t165 132.5t239.5 67l-78 46q-92 54 -139 75.5t-95 21.5q-28 0 -56.5 -9t-51.5 -26
l-19 40q56 42 125 42q52 0 102.5 -23.5t129.5 -73.5q97 -59 148 -85l-7 -40l-23 -2q-42 -4 -66 -8q18 -87 64.5 -119.5t132.5 -32.5l15 -24l-20 -23q-96 0 -153 45.5t-74 147.5q-108 -22 -189.5 -70zM373 -10l31 38l37 -30l-31 -38zM268 -18l31 38l36 -30l-31 -38zM393 -115
l31 39l37 -30l-31 -39zM288 -123l31 39l36 -30l-31 -39z" />
    <glyph glyph-name="uniFB80" unicode="&#x687;" horiz-adv-x="674" arabic-form="initial" 
d="M327.5 403.5q52.5 -28.5 137.5 -90.5q37 -27 80 -56t82 -51l-6 -39l-25 -3q-66 -8 -128 -27.5t-150 -54.5q-99 -41 -170.5 -61.5t-147.5 -20.5l-20 24l24 23q72 0 135.5 17.5t158.5 54.5q82 31 138.5 49.5t124.5 31.5q-42 27 -107 72q-87 61 -136 87t-99 26
q-54 0 -101 -36l-20 40q29 23 58 33t65 10q54 0 106.5 -28.5zM308 -110l31 38l37 -30l-31 -38zM203 -118l31 38l36 -30l-31 -38zM328 -214l31 38l37 -30l-31 -38zM223 -222l31 38l36 -30l-31 -38z" />
    <glyph glyph-name="uniFB81" unicode="&#x687;" horiz-adv-x="753" arabic-form="medial" 
d="M773 23l-20 -23q-93 0 -161.5 46.5t-92.5 144.5q-49 -11 -95 -32.5t-113 -58.5q-91 -50 -154.5 -75t-136.5 -25l-20 23l24 24q67 0 124 21.5t139 65.5q80 42 139 66.5t131 33.5q-45 17 -81.5 36.5t-82.5 47.5q-60 36 -96 51.5t-78 15.5q-54 0 -101 -36l-19 41
q29 22 57.5 32t64.5 10q46 0 86.5 -18.5t108.5 -60.5q56 -36 105 -62t109 -47l-6 -43l-38 -1q-11 0 -29 -2q26 -85 81.5 -118t138.5 -33zM390 -60l31 38l37 -30l-31 -38zM285 -68l31 38l36 -30l-31 -38zM410 -164l31 38l37 -30l-31 -38zM305 -172l31 38l36 -30l-31 -38z" />
    <glyph glyph-name="uniFB83" unicode="&#x68d;" horiz-adv-x="513" arabic-form="final" 
d="M533 23l-20 -23q-44 0 -75 18t-48 49q-35 -38 -88.5 -59t-121.5 -21q-74 0 -153 27l17 46q67 -23 139 -23q58 0 107 17t83 48l-157 368l48 22l134 -347q21 -55 45.5 -76.5t72.5 -21.5zM234 -138l33 41l40 -32l-34 -41zM121 -146l33 40l39 -32l-33 -40z" />
    <glyph glyph-name="uniFB85" unicode="&#x68c;" horiz-adv-x="513" arabic-form="final" 
d="M533 23l-20 -23q-44 0 -75 18t-48 49q-35 -38 -88.5 -59t-121.5 -21q-74 0 -153 27l17 46q67 -23 139 -23q58 0 107 17t83 48l-157 368l48 22l134 -347q21 -55 45.5 -76.5t72.5 -21.5zM183 637l33 41l39 -32l-33 -41zM69 629l33 41l40 -32l-34 -41z" />
    <glyph glyph-name="uniFB87" unicode="&#x68e;" horiz-adv-x="513" arabic-form="final" 
d="M533 23l-20 -23q-44 0 -75 18t-48 49q-35 -38 -88.5 -59t-121.5 -21q-74 0 -153 27l17 46q67 -23 139 -23q58 0 107 17t83 48l-157 368l48 22l134 -347q21 -55 45.5 -76.5t72.5 -21.5zM205 740l-31 -39l-38 31l32 39zM269 655l-32 -39l-37 30l31 39zM159 647l-32 -40
l-37 31l31 39z" />
    <glyph glyph-name="uniFB89" unicode="&#x688;" horiz-adv-x="513" arabic-form="final" 
d="M533 23l-20 -23q-44 0 -75 18t-48 49q-35 -38 -88.5 -59t-121.5 -21q-74 0 -153 27l17 46q67 -23 139 -23q58 0 107 17t83 48l-157 368l48 22l134 -347q21 -55 45.5 -76.5t72.5 -21.5zM283 694q18 -23 18 -63q0 -13 -10 -28t-31 -25.5t-51 -10.5h-132l3 27h21l17 28
l-7 147h26v-117q24 34 47 49.5t50 15.5q31 0 49 -23zM278 623q0 35 -11.5 50.5t-35.5 15.5q-28 0 -54.5 -24t-52.5 -71h74q57 0 80 29z" />
    <glyph glyph-name="uniFB8B" unicode="&#x698;" horiz-adv-x="417" arabic-form="final" 
d="M417 0q-30 0 -50.5 5.5t-37.5 19.5q-36 -77 -126 -148t-227 -132l-21 48q137 57 222 122.5t123 133.5q-11 45 -33.5 111.5t-43.5 116.5l48 20q14 -39 55 -185q11 -39 32 -52t63 -13l16 -24zM248 555l-31 -39l-38 31l32 39zM312 470l-32 -39l-37 30l31 39zM202 462
l-32 -40l-37 31l31 39z" />
    <glyph glyph-name="uniFB8D" unicode="&#x691;" horiz-adv-x="417" arabic-form="final" 
d="M417 0q-30 0 -50.5 5.5t-37.5 19.5q-36 -77 -126 -148t-227 -132l-21 48q137 57 222 122.5t123 133.5q-11 45 -33.5 111.5t-43.5 116.5l48 20q14 -39 55 -185q11 -39 32 -52t63 -13l16 -24zM326 509q18 -23 18 -63q0 -13 -10 -28t-31 -25.5t-51 -10.5h-132l3 27h21l17 28
l-7 147h26v-117q24 34 47 49.5t50 15.5q31 0 49 -23zM321 438q0 35 -11.5 50.5t-35.5 15.5q-28 0 -54.5 -24t-52.5 -71h74q57 0 80 29z" />
    <glyph glyph-name="uniFB8F" unicode="&#x6a9;" horiz-adv-x="960" arabic-form="final" 
d="M980 24l-20 -24q-49 0 -86 15.5t-71.5 48t-82.5 93.5q-36 -79 -124 -124.5t-266 -45.5q-143 0 -208.5 45t-65.5 139q0 77 36 150l32 -11q-27 -67 -27 -135q0 -73 55.5 -106.5t182.5 -33.5q156 0 241 39.5t118 114.5l-208 259l9 42l388 260l-3 -49l-354 -236l156 -194
q84 -105 124 -148t74.5 -59.5t84.5 -16.5z" />
    <glyph glyph-name="uniFB90" unicode="&#x6a9;" horiz-adv-x="457" arabic-form="initial" 
d="M399 700l-350 -232q119 -79 197.5 -169.5t96.5 -185.5q-16 -28 -63 -54t-119.5 -42.5t-160.5 -16.5l-20 23l24 24q112 0 184.5 22t108.5 52q-15 80 -95 164.5t-198 162.5l9 43l388 259z" />
    <glyph glyph-name="uniFB91" unicode="&#x6a9;" horiz-adv-x="531" arabic-form="medial" 
d="M551 24l-20 -24q-50 0 -87 15.5t-71 48t-83 93.5q-34 -73 -103 -115t-187 -42l-20 23l24 24q98 0 163.5 36t97.5 105l-209 260l10 42l388 260l-3 -49l-354 -236l156 -194q84 -105 124 -148t74 -59.5t84 -16.5z" />
    <glyph glyph-name="uniFB93" unicode="&#x6af;" horiz-adv-x="960" arabic-form="final" 
d="M882 838l-382 -258l8 37l376 255zM980 24l-20 -24q-49 0 -86 15.5t-71.5 48t-82.5 93.5q-36 -79 -124 -124.5t-266 -45.5q-143 0 -208.5 45t-65.5 139q0 77 36 150l32 -11q-27 -67 -27 -135q0 -73 55.5 -106.5t182.5 -33.5q156 0 241 39.5t118 114.5l-208 259l9 42
l388 260l-3 -49l-354 -236l156 -194q84 -105 124 -148t74.5 -59.5t84.5 -16.5z" />
    <glyph glyph-name="uniFB94" unicode="&#x6af;" horiz-adv-x="457" arabic-form="initial" 
d="M399 838l-382 -258l9 37l375 255zM13 491l388 259l-2 -50l-350 -232q119 -79 197.5 -169.5t96.5 -185.5q-16 -28 -63 -54t-119.5 -42.5t-160.5 -16.5l-20 23l24 24q112 0 184.5 22t108.5 52q-15 80 -95 164.5t-198 162.5z" />
    <glyph glyph-name="uniFB95" unicode="&#x6af;" horiz-adv-x="531" arabic-form="medial" 
d="M450 838l-382 -258l8 37l376 255zM551 24l-20 -24q-50 0 -87 15.5t-71 48t-83 93.5q-34 -73 -103 -115t-187 -42l-20 23l24 24q98 0 163.5 36t97.5 105l-209 260l10 42l388 260l-3 -49l-354 -236l156 -194q84 -105 124 -148t74 -59.5t84 -16.5z" />
    <glyph glyph-name="uniFB97" unicode="&#x6b3;" horiz-adv-x="960" arabic-form="final" 
d="M882 838l-382 -258l8 37l376 255zM980 24l-20 -24q-49 0 -86 15.5t-71.5 48t-82.5 93.5q-36 -79 -124 -124.5t-266 -45.5q-143 0 -208.5 45t-65.5 139q0 77 36 150l32 -11q-27 -67 -27 -135q0 -73 55.5 -106.5t182.5 -33.5q156 0 241 39.5t118 114.5l-208 259l9 42
l388 260l-3 -49l-354 -236l156 -194q84 -105 124 -148t74.5 -59.5t84.5 -16.5zM328 -135l33 41l39 -33l-32 -40zM350 -243l33 40l39 -32l-33 -41z" />
    <glyph glyph-name="uniFB98" unicode="&#x6b3;" horiz-adv-x="457" arabic-form="initial" 
d="M399 838l-382 -258l9 37l375 255zM13 491l388 259l-2 -50l-350 -232q119 -79 197.5 -169.5t96.5 -185.5q-16 -28 -63 -54t-119.5 -42.5t-160.5 -16.5l-20 23l24 24q112 0 184.5 22t108.5 52q-15 80 -95 164.5t-198 162.5zM91 -135l33 41l39 -33l-32 -40zM113 -243l33 40
l39 -32l-33 -41z" />
    <glyph glyph-name="uniFB99" unicode="&#x6b3;" horiz-adv-x="531" arabic-form="medial" 
d="M450 838l-382 -258l8 37l376 255zM551 24l-20 -24q-50 0 -87 15.5t-71 48t-83 93.5q-34 -73 -103 -115t-187 -42l-20 23l24 24q98 0 163.5 36t97.5 105l-209 260l10 42l388 260l-3 -49l-354 -236l156 -194q84 -105 124 -148t74 -59.5t84 -16.5zM166 -135l33 41l39 -33
l-32 -40zM188 -243l33 40l39 -32l-33 -41z" />
    <glyph glyph-name="uniFB9B" unicode="&#x6b1;" horiz-adv-x="960" arabic-form="final" 
d="M882 838l-382 -258l8 37l376 255zM980 24l-20 -24q-49 0 -86 15.5t-71.5 48t-82.5 93.5q-36 -79 -124 -124.5t-266 -45.5q-143 0 -208.5 45t-65.5 139q0 77 36 150l32 -11q-27 -67 -27 -135q0 -73 55.5 -106.5t182.5 -33.5q156 0 241 39.5t118 114.5l-208 259l9 42
l388 260l-3 -49l-354 -236l156 -194q84 -105 124 -148t74.5 -59.5t84.5 -16.5zM542 792l33 41l39 -32l-33 -41zM428 784l33 41l40 -32l-34 -41z" />
    <glyph glyph-name="uniFB9C" unicode="&#x6b1;" horiz-adv-x="457" arabic-form="initial" 
d="M399 838l-382 -258l9 37l375 255zM13 491l388 259l-2 -50l-350 -232q119 -79 197.5 -169.5t96.5 -185.5q-16 -28 -63 -54t-119.5 -42.5t-160.5 -16.5l-20 23l24 24q112 0 184.5 22t108.5 52q-15 80 -95 164.5t-198 162.5zM65 792l33 41l39 -32l-33 -41zM-49 784l33 41
l40 -32l-34 -41z" />
    <glyph glyph-name="uniFB9D" unicode="&#x6b1;" horiz-adv-x="531" arabic-form="medial" 
d="M450 838l-382 -258l8 37l376 255zM551 24l-20 -24q-50 0 -87 15.5t-71 48t-83 93.5q-34 -73 -103 -115t-187 -42l-20 23l24 24q98 0 163.5 36t97.5 105l-209 260l10 42l388 260l-3 -49l-354 -236l156 -194q84 -105 124 -148t74 -59.5t84 -16.5zM75 792l33 41l39 -32
l-33 -41zM-39 784l33 41l40 -32l-34 -41z" />
    <glyph glyph-name="uniFB9F" unicode="&#x6ba;" horiz-adv-x="686" arabic-form="final" 
d="M686 0q-56 0 -87 30q2 -28 2 -57q0 -56 -40 -105.5t-109 -79t-152 -29.5q-126 0 -185 59t-59 162q0 89 40 179l32 -10q-15 -42 -23 -80.5t-8 -83.5q0 -179 207 -179q87 0 153.5 35.5t103.5 88.5q1 12 1 34q0 66 -13 122t-30 95t-46 97l47 20q48 -119 67 -188
q13 -36 38.5 -49.5t64.5 -13.5l16 -24z" />
    <glyph glyph-name="uniFBA1" unicode="&#x6bb;" horiz-adv-x="686" arabic-form="final" 
d="M686 0q-56 0 -87 30q2 -28 2 -57q0 -56 -40 -105.5t-109 -79t-152 -29.5q-126 0 -185 59t-59 162q0 89 40 179l32 -10q-15 -42 -23 -80.5t-8 -83.5q0 -179 207 -179q87 0 153.5 35.5t103.5 88.5q1 12 1 34q0 66 -13 122t-30 95t-46 97l47 20q48 -119 67 -188
q13 -36 38.5 -49.5t64.5 -13.5l16 -24zM410 433q18 -23 18 -63q0 -13 -10 -28t-31 -25.5t-51 -10.5h-132l3 27h21l17 28l-7 147h26v-117q24 34 47 49.5t50 15.5q31 0 49 -23zM405 362q0 35 -11.5 50.5t-35.5 15.5q-28 0 -54.5 -24t-52.5 -71h74q57 0 80 29z" />
    <glyph glyph-name="uniFBA2" unicode="&#x6bb;" horiz-adv-x="254" arabic-form="initial" 
d="M-20 24l24 23q41 0 80.5 14t63.5 39q0 66 -15 137t-38 136l46 15q47 -145 47 -273q0 -33 -27.5 -59.5t-71 -41t-89.5 -14.5zM205 580q18 -23 18 -63q0 -13 -10 -28t-31 -25.5t-51 -10.5h-132l3 27h21l17 28l-7 147h26v-117q24 34 47 49.5t50 15.5q31 0 49 -23zM200 509
q0 35 -11.5 50.5t-35.5 15.5q-28 0 -54.5 -24t-52.5 -71h74q57 0 80 29z" />
    <glyph glyph-name="uniFBA3" unicode="&#x6bb;" horiz-adv-x="301" arabic-form="medial" 
d="M321 23l-20 -23q-51 0 -88.5 18t-56.5 47q-22 -34 -66.5 -49.5t-90.5 -15.5l-19 22l23 25q43 0 79 14t52 41l-24 213h48l16 -208q16 -27 51.5 -43.5t79.5 -16.5zM229 507q18 -23 18 -63q0 -13 -10 -28t-31 -25.5t-51 -10.5h-132l3 27h21l17 28l-7 147h26v-117
q24 34 47 49.5t50 15.5q31 0 49 -23zM224 436q0 35 -11.5 50.5t-35.5 15.5q-28 0 -54.5 -24t-52.5 -71h74q57 0 80 29z" />
    <glyph glyph-name="uniFBA5" unicode="&#x6c0;" horiz-adv-x="492" arabic-form="final" 
d="M512 23l-20 -23h-11q-54 0 -88.5 24t-46.5 69q-31 -26 -75 -40.5t-92 -14.5q-41 0 -76 14.5t-55.5 38.5t-20.5 50q0 59 42 108.5t110.5 83.5t150.5 51l-4 105l43 6l10 -331q1 -64 26 -90.5t80 -26.5h12zM108 99q32 -16 78 -16q90 0 153 50l-7 206q-113 -22 -189 -74
t-79 -127q12 -23 44 -39zM445 599l-190 -31l-1 27l68 11q-24 17 -37.5 37t-13.5 40q0 32 23 53.5t67 21.5q31 0 58 -15l-8 -28q-27 15 -52 15q-31 0 -45 -14t-14 -34q0 -18 14 -36.5t40 -34.5l90 15z" />
    <glyph glyph-name="uniFBA7" unicode="&#x6c1;" horiz-adv-x="549" arabic-form="final" 
d="M27 -26q42 147 91 212.5t114 65.5q34 0 58 -12.5t40 -30.5t37 -49q26 -37 46.5 -59.5t55 -38t84.5 -15.5l16 -24l-20 -23q-59 0 -99 17.5t-62.5 42t-47.5 63.5q-27 42 -49 61.5t-59 19.5q-53 0 -88.5 -58t-72.5 -181z" />
    <glyph glyph-name="uniFBA8" unicode="&#x6c1;" horiz-adv-x="254" arabic-form="initial" 
d="M-20 24l24 23q41 0 80.5 14t63.5 39q0 66 -15 137t-38 136l46 15q47 -145 47 -273q0 -33 -27.5 -59.5t-71 -41t-89.5 -14.5zM47 -240q9 113 70 197l27 -5q-24 -52 -36.5 -97.5t-15.5 -106.5z" />
    <glyph glyph-name="uniFBA9" unicode="&#x6c1;" horiz-adv-x="551" arabic-form="medial" 
d="M571 23l-20 -23h-25q-73 0 -115 -45t-42 -143q0 -47 8 -95l-34 -13q-155 154 -160 347q0 22 1 32q-50 -83 -158 -83h-26l-20 23l24 24h27q63 0 109 45.5t75 154.5l13 49l51 -12q-23 -82 -33.5 -129t-10.5 -93q0 -77 21 -143t79 -142q-2 30 -2 44q0 116 52 171t146 55h25z
" />
    <glyph glyph-name="uniFBAB" unicode="&#x6be;" horiz-adv-x="564" arabic-form="final" 
d="M564 0h-142q90 -48 90 -157q0 -25 -16 -47.5t-45.5 -36.5t-68.5 -14q-58 0 -104.5 32.5t-73.5 90.5t-29 132q-81 1 -139 29l21 41q49 -22 118 -23q3 81 36 155t83.5 119.5t103.5 45.5q50 0 81.5 -39.5t31.5 -104.5q0 -52 -29.5 -100.5t-81.5 -75.5h168l16 -24zM311 282
q-40 -37 -67.5 -100t-31.5 -135h69q55 0 98 23.5t66.5 62t23.5 83.5t-22 74t-56 29q-40 0 -80 -37zM451.5 -77q-22.5 38 -61 57.5t-84.5 19.5h-94q5 -96 49.5 -152t116.5 -56q39 0 64.5 13.5t31.5 26.5q0 53 -22.5 91z" />
    <glyph glyph-name="uniFBAC" unicode="&#x6be;" horiz-adv-x="627" arabic-form="initial" 
d="M370 361.5q94 -69.5 142.5 -138.5t48.5 -143q0 -22 -20.5 -43.5t-57.5 -35.5t-83 -14q-99 0 -187 47q-83 -34 -192 -34h-21l-20 23l24 24h26q76 0 138 17q-49 36 -76.5 84t-27.5 103q0 42 18.5 79t50.5 60.5t73 26.5q-34 21 -102 59l23 40q149 -85 243 -154.5zM132 155
q31 -44 84 -74q59 26 90 69t31 97q0 56 -33.5 95t-83.5 39q-53 0 -86 -38t-33 -94q0 -50 31 -94zM475 43.5q32 10.5 52 28.5q-2 59 -44.5 118.5t-123.5 123.5q13 -30 13 -65q0 -56 -28 -105.5t-82 -84.5q64 -26 138 -26q43 0 75 10.5z" />
    <glyph glyph-name="uniFBAD" unicode="&#x6be;" horiz-adv-x="486" arabic-form="medial" 
d="M486 0h-142q90 -48 90 -157q0 -25 -16 -47.5t-46 -36.5t-68 -14q-59 0 -105.5 32.5t-73.5 90.5t-29 132h-96l-20 23l24 24h92q3 81 36 155t84 119.5t104 45.5q50 0 81.5 -39.5t31.5 -104.5q0 -52 -29.5 -100.5t-81.5 -75.5h168l16 -24zM232.5 282q-39.5 -37 -67 -100
t-31.5 -135h69q55 0 98 23.5t66.5 62t23.5 83.5t-22 74t-57 29q-40 0 -79.5 -37zM373.5 -77q-22.5 38 -61 57.5t-84.5 19.5h-25h-69q5 -96 49.5 -152t116.5 -56q39 0 64.5 13.5t31.5 26.5q0 53 -22.5 91z" />
    <glyph glyph-name="uniFBAF" unicode="&#x6d2;" horiz-adv-x="738" arabic-form="final" 
d="M204 -248q-82 0 -123 27t-41 75q0 46 43.5 90.5t134.5 74t227 29.5h297l16 -25l-20 -23h-303q-120 0 -200 -21.5t-117 -53.5t-37 -66q0 -31 26 -46t87 -15h526l-15 -46h-501z" />
    <glyph glyph-name="uniFBB1" unicode="&#x6d3;" horiz-adv-x="738" arabic-form="final" 
d="M204 -248q-82 0 -123 27t-41 75q0 46 43.5 90.5t134.5 74t227 29.5h297l16 -25l-20 -23h-303q-120 0 -200 -21.5t-117 -53.5t-37 -66q0 -31 26 -46t87 -15h526l-15 -46h-501zM326 213l-190 -31l-1 27l68 11q-24 17 -37.5 37t-13.5 40q0 32 23 53.5t67 21.5q31 0 58 -15
l-8 -28q-27 15 -52 15q-31 0 -45 -14t-14 -34q0 -18 14 -36.5t40 -34.5l90 15z" />
    <glyph glyph-name="uniFBD4" unicode="&#x6ad;" horiz-adv-x="811" arabic-form="final" 
d="M831 24l-20 -24q-82 0 -125 84q-65 -48 -149.5 -72.5t-206.5 -24.5q-143 0 -208.5 45t-65.5 139q0 77 36 150l32 -11q-27 -67 -27 -135q0 -73 55.5 -106.5t182.5 -33.5q112 0 194 23.5t143 67.5l-6 613l47 5v-592q0 -42 24 -73.5t78 -31.5zM299 310q68 0 104.5 8t60.5 22
q-1 16 -42.5 43.5t-90.5 42.5l7 33l157 92l-2 -36l-124 -70q48 -21 84.5 -49t36.5 -51q0 -31 -55 -49t-131 -18zM708 977l-31 -39l-38 31l32 39zM772 892l-32 -39l-37 30l31 39zM662 884l-32 -40l-37 31l31 39z" />
    <glyph glyph-name="uniFBD5" unicode="&#x6ad;" horiz-adv-x="457" arabic-form="initial" 
d="M399 700l-350 -232q119 -79 197.5 -169.5t96.5 -185.5q-16 -28 -63 -54t-119.5 -42.5t-160.5 -16.5l-20 23l24 24q112 0 184.5 22t108.5 52q-15 80 -95 164.5t-198 162.5l9 43l388 259zM61 841l-31 -39l-38 31l32 39zM125 756l-32 -39l-37 30l31 39zM15 748l-32 -40
l-37 31l31 39z" />
    <glyph glyph-name="uniFBD6" unicode="&#x6ad;" horiz-adv-x="531" arabic-form="medial" 
d="M551 24l-20 -24q-50 0 -87 15.5t-71 48t-83 93.5q-34 -73 -103 -115t-187 -42l-20 23l24 24q98 0 163.5 36t97.5 105l-209 260l10 42l388 260l-3 -49l-354 -236l156 -194q84 -105 124 -148t74 -59.5t84 -16.5zM106 841l-31 -39l-38 31l32 39zM170 756l-32 -39l-37 30
l31 39zM60 748l-32 -40l-37 31l31 39z" />
    <glyph glyph-name="uniFBD8" unicode="&#x6c7;" horiz-adv-x="517" arabic-form="final" 
d="M517 0h-96q-39 -200 -348 -252l-17 47q150 24 226 76.5t96 128.5h-70q-72 0 -123.5 21t-78.5 58t-27 84q0 48 24 92t63 71t79 27q43 0 85 -34.5t69 -101.5t27 -159v-11h95l16 -24zM386 47q0 86 -21.5 144.5t-53.5 86.5t-67 28q-30 0 -59 -20t-47.5 -53t-18.5 -68
q0 -56 47.5 -87t139.5 -31h80zM316.5 603.5q18.5 -21.5 18.5 -54.5q0 -42 -42 -82.5t-111 -66.5l-12 25q52 18 89 46q-37 13 -54 34t-17 46q0 34 22 54t52 20q36 0 54.5 -21.5zM308 547q0 21 -11.5 35t-34.5 14q-20 0 -33 -12.5t-13 -33.5q0 -41 64 -60q28 28 28 57z" />
    <glyph glyph-name="uniFBDA" unicode="&#x6c6;" horiz-adv-x="517" arabic-form="final" 
d="M517 0h-96q-39 -200 -348 -252l-17 47q150 24 226 76.5t96 128.5h-70q-72 0 -123.5 21t-78.5 58t-27 84q0 48 24 92t63 71t79 27q43 0 85 -34.5t69 -101.5t27 -159v-11h95l16 -24zM386 47q0 86 -21.5 144.5t-53.5 86.5t-67 28q-30 0 -59 -20t-47.5 -53t-18.5 -68
q0 -56 47.5 -87t139.5 -31h80zM252 438l68 116l23 -10l-77 -139h-29l-76 139l23 10z" />
    <glyph glyph-name="uniFBDC" unicode="&#x6c8;" horiz-adv-x="517" arabic-form="final" 
d="M517 0h-96q-39 -200 -348 -252l-17 47q150 24 226 76.5t96 128.5h-70q-72 0 -123.5 21t-78.5 58t-27 84q0 48 24 92t63 71t79 27q43 0 85 -34.5t69 -101.5t27 -159v-11h95l16 -24zM386 47q0 86 -21.5 144.5t-53.5 86.5t-67 28q-30 0 -59 -20t-47.5 -53t-18.5 -68
q0 -56 47.5 -87t139.5 -31h80zM264 576l6 -159h-31l-6 156z" />
    <glyph glyph-name="uniFBDF" unicode="&#x6cb;" horiz-adv-x="517" arabic-form="final" 
d="M517 0h-96q-39 -200 -348 -252l-17 47q150 24 226 76.5t96 128.5h-70q-72 0 -123.5 21t-78.5 58t-27 84q0 48 24 92t63 71t79 27q43 0 85 -34.5t69 -101.5t27 -159v-11h95l16 -24zM386 47q0 86 -21.5 144.5t-53.5 86.5t-67 28q-30 0 -59 -20t-47.5 -53t-18.5 -68
q0 -56 47.5 -87t139.5 -31h80zM269 584l-31 -39l-38 31l32 39zM333 499l-32 -39l-37 30l31 39zM223 491l-32 -40l-37 31l31 39z" />
    <glyph glyph-name="uniFBE1" unicode="&#x6c5;" horiz-adv-x="517" arabic-form="final" 
d="M517 0h-96q-39 -200 -348 -252l-17 47q150 25 228 77l-189 5l-17 34l242 -9q44 41 58 98h-70q-72 0 -123.5 21t-78.5 58t-27 84q0 48 24 92t63 71t79 27q43 0 85 -34.5t69 -101.5t27 -159v-11h95l16 -24zM386 47q0 86 -21.5 144.5t-53.5 86.5t-67 28q-30 0 -59 -20
t-47.5 -53t-18.5 -68q0 -56 47.5 -87t139.5 -31h80z" />
    <glyph glyph-name="uniFBE3" unicode="&#x6c9;" horiz-adv-x="517" arabic-form="final" 
d="M517 0h-96q-39 -200 -348 -252l-17 47q150 24 226 76.5t96 128.5h-70q-72 0 -123.5 21t-78.5 58t-27 84q0 48 24 92t63 71t79 27q43 0 85 -34.5t69 -101.5t27 -159v-11h95l16 -24zM386 47q0 86 -21.5 144.5t-53.5 86.5t-67 28q-30 0 -59 -20t-47.5 -53t-18.5 -68
q0 -56 47.5 -87t139.5 -31h80zM161 425l76 139h29l77 -139l-23 -10l-68 115l-68 -115z" />
    <glyph glyph-name="uniFBE5" unicode="&#x6d0;" horiz-adv-x="707" arabic-form="final" 
d="M707 0q-55 0 -119 27q30 -33 30 -87q0 -24 -40.5 -57t-113 -56.5t-164.5 -23.5q-126 0 -185 59t-59 162q0 91 40 179l32 -10q-15 -41 -23 -80t-8 -84q0 -179 207 -179q108 0 178 28.5t100 55.5q-1 39 -16 64t-56 46t-121 44l27 39q64 -20 119 -40q61 -22 97 -31t79 -9
l16 -24zM265 -322l33 41l39 -33l-32 -40zM287 -430l33 40l39 -32l-33 -41z" />
    <glyph glyph-name="uniFBE6" unicode="&#x6d0;" horiz-adv-x="254" arabic-form="initial" 
d="M-20 24l24 23q41 0 80.5 14t63.5 39q0 66 -15 137t-38 136l46 15q47 -145 47 -273q0 -33 -27.5 -59.5t-71 -41t-89.5 -14.5zM75 -135l33 41l39 -33l-32 -40zM97 -243l33 40l39 -32l-33 -41z" />
    <glyph glyph-name="uniFBE7" unicode="&#x6d0;" horiz-adv-x="301" arabic-form="medial" 
d="M321 23l-20 -23q-51 0 -88.5 18t-56.5 47q-22 -34 -66.5 -49.5t-90.5 -15.5l-19 22l23 25q43 0 79 14t52 41l-24 213h48l16 -208q16 -27 51.5 -43.5t79.5 -16.5zM120 -135l33 41l39 -33l-32 -40zM142 -243l33 40l39 -32l-33 -41z" />
    <glyph glyph-name="uniFBE8" unicode="&#x649;" horiz-adv-x="254" arabic-form="initial" 
d="M-20 24l24 23q41 0 80.5 14t63.5 39q0 66 -15 137t-38 136l46 15q47 -145 47 -273q0 -33 -27.5 -59.5t-71 -41t-89.5 -14.5z" />
    <glyph glyph-name="uniFBE9" unicode="&#x649;" horiz-adv-x="301" arabic-form="medial" 
d="M321 23l-20 -23q-51 0 -88.5 18t-56.5 47q-22 -34 -66.5 -49.5t-90.5 -15.5l-19 22l23 25q43 0 79 14t52 41l-24 213h48l16 -208q16 -27 51.5 -43.5t79.5 -16.5z" />
    <glyph glyph-name="uniFBFD" unicode="&#x6cc;" horiz-adv-x="707" arabic-form="final" 
d="M707 0q-55 0 -119 27q30 -33 30 -87q0 -24 -40.5 -57t-113 -56.5t-164.5 -23.5q-126 0 -185 59t-59 162q0 91 40 179l32 -10q-15 -41 -23 -80t-8 -84q0 -179 207 -179q108 0 178 28.5t100 55.5q-1 39 -16 64t-56 46t-121 44l27 39q64 -20 119 -40q61 -22 97 -31t79 -9
l16 -24z" />
    <glyph glyph-name="uniFBFE" unicode="&#x6cc;" horiz-adv-x="254" arabic-form="initial" 
d="M-20 24l24 23q41 0 80.5 14t63.5 39q0 66 -15 137t-38 136l46 15q47 -145 47 -273q0 -33 -27.5 -59.5t-71 -41t-89.5 -14.5zM131 -138l33 41l40 -32l-34 -41zM18 -146l33 40l39 -32l-33 -40z" />
    <glyph glyph-name="uniFBFF" unicode="&#x6cc;" horiz-adv-x="301" arabic-form="medial" 
d="M321 23l-20 -23q-51 0 -88.5 18t-56.5 47q-22 -34 -66.5 -49.5t-90.5 -15.5l-19 22l23 25q43 0 79 14t52 41l-24 213h48l16 -208q16 -27 51.5 -43.5t79.5 -16.5zM177 -138l33 41l40 -32l-34 -41zM64 -146l33 40l39 -32l-33 -40z" />
    <glyph glyph-name="uniFC5B" unicode="&#xfc5b;" horiz-adv-x="457" arabic-form="isolated" 
d="M27 8l15 48q73 -19 146 -19q63 0 109.5 19.5t67.5 51.5q-2 99 -54.5 183.5t-137.5 165.5l37 35q191 -195 191 -363q0 -46 -32.5 -78t-81.5 -48t-100 -16q-88 0 -160 21zM106 628l36 45l46 -39l-36 -45zM154 908l6 -159h-31l-6 156z" />
    <glyph glyph-name="uniFC5C" unicode="&#xfc5c;" horiz-adv-x="398" arabic-form="isolated" 
d="M-45 -207q79 33 150 79.5t120.5 89.5t68.5 68q1 61 -18.5 122t-65.5 166l48 21l7 -20q35 -96 51 -153t16 -114q0 -37 -51 -94t-133.5 -115t-171.5 -98zM226 577l6 -159h-31l-6 156z" />
    <glyph glyph-name="uniFC61" unicode="&#xfc61;" arabic-form="isolated" 
d="M249 665q0 -34 -17 -52.5t-46 -18.5q-37 0 -53 33q-17 -35 -54 -35q-26 0 -44 17.5t-18 52.5q0 27 11 60l25 -6q-7 -23 -7 -48q0 -44 35 -44q18 0 28.5 13t10.5 35v41h27v-43q0 -20 9.5 -32.5t26.5 -12.5q37 0 37 48q0 30 -14 63l26 9q17 -41 17 -80zM197.5 964.5
q18.5 -21.5 18.5 -54.5q0 -42 -42 -82.5t-111 -66.5l-12 25q52 18 89 46q-37 13 -54 34t-17 46q0 34 22 54t52 20q36 0 54.5 -21.5zM189 908q0 21 -11.5 35t-34.5 14q-20 0 -33 -12.5t-13 -33.5q0 -41 64 -60q28 28 28 57z" />
    <glyph glyph-name="uniFC63" unicode="&#xfc63;" arabic-form="isolated" 
d="M249 665q0 -34 -17 -52.5t-46 -18.5q-37 0 -53 33q-17 -35 -54 -35q-26 0 -44 17.5t-18 52.5q0 27 11 60l25 -6q-7 -23 -7 -48q0 -44 35 -44q18 0 28.5 13t10.5 35v41h27v-43q0 -20 9.5 -32.5t26.5 -12.5q37 0 37 48q0 30 -14 63l26 9q17 -41 17 -80zM145 937l6 -159h-31
l-6 156z" />
    <glyph glyph-name="uniFD3C" unicode="&#xfd3c;" horiz-adv-x="227" arabic-form="final" 
d="M80 705l46 5v-548q0 -63 24.5 -89t80.5 -26l16 -24l-20 -23q-140 0 -141 157zM-1 865l210 41l-2 -27l-210 -41zM-1 788l210 41l-2 -27l-210 -41z" />
    <glyph glyph-name="uniFD3D" unicode="&#xfd3d;" horiz-adv-x="212" arabic-form="isolated" 
d="M86 -3l-17 628l48 5l10 -627zM-9 787l210 41l-2 -27l-210 -41zM-9 710l210 41l-2 -27l-210 -41z" />
    <glyph glyph-name="uniFE70" unicode="&#xfe70;" horiz-adv-x="600" arabic-form="isolated" 
d="M39 681l210 41l-2 -27l-210 -41zM39 604l210 41l-2 -27l-210 -41z" />
    <glyph glyph-name="uniFE72" unicode="&#xfe72;" horiz-adv-x="600" arabic-form="isolated" 
d="M294 771q19 -22 19 -51q0 -41 -39.5 -81t-102.5 -68l-26 12q-1 34 -8 51t-22 17q-19 0 -45 -29l-17 19q33 38 61 38q24 0 39.5 -20.5t17.5 -58.5q38 18 68 42q-37 13 -54 34t-17 45q0 32 21 52t51 20q35 0 54 -22zM286 717q0 18 -12 32t-34 14q-19 0 -31.5 -12.5
t-12.5 -30.5q0 -40 64 -58q26 28 26 55z" />
    <glyph glyph-name="uniFE74" unicode="&#xfe74;" horiz-adv-x="600" arabic-form="isolated" 
d="M39 -92l210 41l-2 -27l-210 -41zM39 -167l210 41l-2 -27l-210 -41z" />
    <glyph glyph-name="uniFE76" unicode="&#xfe76;" horiz-adv-x="600" arabic-form="isolated" 
d="M39 618l210 41l-2 -27l-210 -41z" />
    <glyph glyph-name="uniFE78" unicode="&#xfe78;" horiz-adv-x="600" arabic-form="isolated" 
d="M165.5 779.5q18.5 -21.5 18.5 -54.5q0 -42 -42 -82.5t-111 -66.5l-12 25q52 18 89 46q-37 13 -54 34t-17 46q0 34 22 54t52 20q36 0 54.5 -21.5zM157 723q0 21 -11.5 35t-34.5 14q-20 0 -33 -12.5t-13 -33.5q0 -41 64 -60q28 28 28 57z" />
    <glyph glyph-name="uniFE7C" unicode="&#xfe7c;" horiz-adv-x="600" arabic-form="isolated" 
d="M249 665q0 -34 -17 -52.5t-46 -18.5q-37 0 -53 33q-17 -35 -54 -35q-26 0 -44 17.5t-18 52.5q0 27 11 60l25 -6q-7 -23 -7 -48q0 -44 35 -44q18 0 28.5 13t10.5 35v41h27v-43q0 -20 9.5 -32.5t26.5 -12.5q37 0 37 48q0 30 -14 63l26 9q17 -41 17 -80z" />
    <glyph glyph-name="uniFE7E" unicode="&#xfe7e;" horiz-adv-x="600" arabic-form="isolated" 
d="M166.5 607q-26.5 -25 -66.5 -25t-66.5 25t-26.5 66t26.5 66t66.5 25t66.5 -25t26.5 -66t-26.5 -66zM146.5 717.5q-17.5 17.5 -46.5 17.5t-46.5 -17.5t-17.5 -44.5t17.5 -44.5t46.5 -17.5t46.5 17.5t17.5 44.5t-17.5 44.5z" />
    <glyph glyph-name="uniFE82" unicode="&#x622;" horiz-adv-x="227" arabic-form="final" 
d="M80 705l46 5v-548q0 -63 24.5 -89t80.5 -26l16 -24l-20 -23q-140 0 -141 157zM-4 792q10 27 29.5 43t43.5 16q13 0 23.5 -3t20.5 -7q22 -10 38 -10q15 0 26.5 4t29.5 15l14 -22q-19 -16 -37.5 -22.5t-38.5 -6.5q-17 0 -43 10q-20 9 -34 9q-30 0 -46 -34z" />
    <glyph glyph-name="uniFE84" unicode="&#x623;" horiz-adv-x="227" arabic-form="final" 
d="M80 705l46 5v-548q0 -63 24.5 -89t80.5 -26l16 -24l-20 -23q-140 0 -141 157zM200 811l-190 -31l-1 27l68 11q-24 17 -37.5 37t-13.5 40q0 32 23 53.5t67 21.5q31 0 58 -15l-8 -28q-27 15 -52 15q-31 0 -45 -14t-14 -34q0 -18 14 -36.5t40 -34.5l90 15z" />
    <glyph glyph-name="uniFE86" unicode="&#x624;" horiz-adv-x="517" arabic-form="final" 
d="M517 0h-96q-39 -200 -348 -252l-17 47q150 24 226 76.5t96 128.5h-70q-72 0 -123.5 21t-78.5 58t-27 84q0 48 24 92t63 71t79 27q43 0 85 -34.5t69 -101.5t27 -159v-11h95l16 -24zM386 47q0 86 -21.5 144.5t-53.5 86.5t-67 28q-30 0 -59 -20t-47.5 -53t-18.5 -68
q0 -56 47.5 -87t139.5 -31h80zM348 453l-190 -31l-1 27l68 11q-24 17 -37.5 37t-13.5 40q0 32 23 53.5t67 21.5q31 0 58 -15l-8 -28q-27 15 -52 15q-31 0 -45 -14t-14 -34q0 -18 14 -36.5t40 -34.5l90 15z" />
    <glyph glyph-name="uniFE88" unicode="&#x625;" horiz-adv-x="218" arabic-form="final" 
d="M69 739l47 5l10 -584q1 -64 21.5 -88.5t74.5 -24.5l16 -24l-20 -23q-68 0 -98.5 38t-32.5 119zM232 -215l-190 -31l-1 27l68 11q-24 17 -37.5 37t-13.5 40q0 32 23 53.5t67 21.5q31 0 58 -15l-8 -28q-27 15 -52 15q-31 0 -45 -14t-14 -34q0 -18 14 -36.5t40 -34.5l90 15z
" />
    <glyph glyph-name="uniFE8A" unicode="&#x626;" horiz-adv-x="707" arabic-form="final" 
d="M707 0q-55 0 -119 27q30 -33 30 -87q0 -24 -40.5 -57t-113 -56.5t-164.5 -23.5q-126 0 -185 59t-59 162q0 91 40 179l32 -10q-15 -41 -23 -80t-8 -84q0 -179 207 -179q108 0 178 28.5t100 55.5q-1 39 -16 64t-56 46t-121 44l27 39q64 -20 119 -40q61 -22 97 -31t79 -9
l16 -24zM235 341l-190 -31l-1 27l68 11q-24 17 -37.5 37t-13.5 40q0 32 23 53.5t67 21.5q31 0 58 -15l-8 -28q-27 15 -52 15q-31 0 -45 -14t-14 -34q0 -18 14 -36.5t40 -34.5l90 15z" />
    <glyph glyph-name="uniFE8B" unicode="&#x626;" horiz-adv-x="254" arabic-form="initial" 
d="M-20 24l24 23q41 0 80.5 14t63.5 39q0 66 -15 137t-38 136l46 15q47 -145 47 -273q0 -33 -27.5 -59.5t-71 -41t-89.5 -14.5zM206 495l-190 -31l-1 27l68 11q-24 17 -37.5 37t-13.5 40q0 32 23 53.5t67 21.5q31 0 58 -15l-8 -28q-27 15 -52 15q-31 0 -45 -14t-14 -34
q0 -18 14 -36.5t40 -34.5l90 15z" />
    <glyph glyph-name="uniFE8C" unicode="&#x626;" horiz-adv-x="301" arabic-form="medial" 
d="M321 23l-20 -23q-51 0 -88.5 18t-56.5 47q-22 -34 -66.5 -49.5t-90.5 -15.5l-19 22l23 25q43 0 79 14t52 41l-24 213h48l16 -208q16 -27 51.5 -43.5t79.5 -16.5zM230 422l-190 -31l-1 27l68 11q-24 17 -37.5 37t-13.5 40q0 32 23 53.5t67 21.5q31 0 58 -15l-8 -28
q-27 15 -52 15q-31 0 -45 -14t-14 -34q0 -18 14 -36.5t40 -34.5l90 15z" />
    <glyph glyph-name="uniFE8E" unicode="&#x627;" horiz-adv-x="218" arabic-form="final" 
d="M69 739l47 5l10 -584q1 -64 21.5 -88.5t74.5 -24.5l16 -24l-20 -23q-68 0 -98.5 38t-32.5 119z" />
    <glyph glyph-name="uniFE90" unicode="&#x628;" horiz-adv-x="896" arabic-form="final" 
d="M911 24l-20 -24q-107 0 -155 84q-72 -48 -170 -72.5t-236 -24.5q-143 0 -208.5 45t-65.5 139q0 77 36 150l32 -11q-27 -67 -27 -135q0 -73 55.5 -106.5t182.5 -33.5t226 24t159 66l-37 190h48l24 -157q8 -51 37.5 -81t103.5 -30zM314 -136l37 45l46 -38l-37 -46z" />
    <glyph glyph-name="uniFE91" unicode="&#x628;" horiz-adv-x="254" arabic-form="initial" 
d="M-20 24l24 23q41 0 80.5 14t63.5 39q0 66 -15 137t-38 136l46 15q47 -145 47 -273q0 -33 -27.5 -59.5t-71 -41t-89.5 -14.5zM64 -136l37 45l46 -38l-37 -46z" />
    <glyph glyph-name="uniFE92" unicode="&#x628;" horiz-adv-x="301" arabic-form="medial" 
d="M321 23l-20 -23q-51 0 -88.5 18t-56.5 47q-22 -34 -66.5 -49.5t-90.5 -15.5l-19 22l23 25q43 0 79 14t52 41l-24 213h48l16 -208q16 -27 51.5 -43.5t79.5 -16.5zM110 -136l37 45l46 -38l-37 -46z" />
    <glyph glyph-name="uniFE94" unicode="&#x629;" horiz-adv-x="492" arabic-form="final" 
d="M512 23l-20 -23h-11q-54 0 -88.5 24t-46.5 69q-31 -26 -75 -40.5t-92 -14.5q-41 0 -76 14.5t-55.5 38.5t-20.5 50q0 59 42 108.5t110.5 83.5t150.5 51l-4 105l43 6l10 -331q1 -64 26 -90.5t80 -26.5h12zM108 99q32 -16 78 -16q90 0 153 50l-7 206q-113 -22 -189 -74
t-79 -127q12 -23 44 -39zM344 627l33 41l39 -32l-33 -41zM230 619l33 41l40 -32l-34 -41z" />
    <glyph glyph-name="uniFE96" unicode="&#x62a;" horiz-adv-x="891" arabic-form="final" 
d="M911 24l-20 -24q-107 0 -155 84q-72 -48 -170 -72.5t-236 -24.5q-143 0 -208.5 45t-65.5 139q0 77 36 150l32 -11q-27 -67 -27 -135q0 -73 55.5 -106.5t182.5 -33.5t226 24t159 66l-37 190h48l24 -157q8 -51 37.5 -81t103.5 -30zM406 429l33 41l39 -32l-33 -41zM292 421
l33 41l40 -32l-34 -41z" />
    <glyph glyph-name="uniFE97" unicode="&#x62a;" horiz-adv-x="254" arabic-form="initial" 
d="M-20 24l24 23q41 0 80.5 14t63.5 39q0 66 -15 137t-38 136l46 15q47 -145 47 -273q0 -33 -27.5 -59.5t-71 -41t-89.5 -14.5zM105 523l33 41l39 -32l-33 -41zM-9 515l33 41l40 -32l-34 -41z" />
    <glyph glyph-name="uniFE98" unicode="&#x62a;" horiz-adv-x="301" arabic-form="medial" 
d="M321 23l-20 -23q-51 0 -88.5 18t-56.5 47q-22 -34 -66.5 -49.5t-90.5 -15.5l-19 22l23 25q43 0 79 14t52 41l-24 213h48l16 -208q16 -27 51.5 -43.5t79.5 -16.5zM129 450l33 41l39 -32l-33 -41zM15 442l33 41l40 -32l-34 -41z" />
    <glyph glyph-name="uniFE9A" unicode="&#x62b;" horiz-adv-x="896" arabic-form="final" 
d="M911 24l-20 -24q-107 0 -155 84q-72 -48 -170 -72.5t-236 -24.5q-143 0 -208.5 45t-65.5 139q0 77 36 150l32 -11q-27 -67 -27 -135q0 -73 55.5 -106.5t182.5 -33.5t226 24t159 66l-37 190h48l24 -157q8 -51 37.5 -81t103.5 -30zM434 532l-31 -39l-38 31l32 39zM498 447
l-32 -39l-37 30l31 39zM388 439l-32 -40l-37 31l31 39z" />
    <glyph glyph-name="uniFE9B" unicode="&#x62b;" horiz-adv-x="254" arabic-form="initial" 
d="M-20 24l24 23q41 0 80.5 14t63.5 39q0 66 -15 137t-38 136l46 15q47 -145 47 -273q0 -33 -27.5 -59.5t-71 -41t-89.5 -14.5zM127 626l-31 -39l-38 31l32 39zM191 541l-32 -39l-37 30l31 39zM81 533l-32 -40l-37 31l31 39z" />
    <glyph glyph-name="uniFE9C" unicode="&#x62b;" horiz-adv-x="301" arabic-form="medial" 
d="M321 23l-20 -23q-51 0 -88.5 18t-56.5 47q-22 -34 -66.5 -49.5t-90.5 -15.5l-19 22l23 25q43 0 79 14t52 41l-24 213h48l16 -208q16 -27 51.5 -43.5t79.5 -16.5zM151 553l-31 -39l-38 31l32 39zM215 468l-32 -39l-37 30l31 39zM105 460l-32 -40l-37 31l31 39z" />
    <glyph glyph-name="uniFE9E" unicode="&#x62c;" horiz-adv-x="687" arabic-form="final" 
d="M270.5 123q-81.5 -48 -125.5 -113t-44 -136q0 -77 51 -126.5t160 -49.5q58 0 116.5 11.5t108.5 31.5l18 -42q-51 -23 -115 -36t-133 -13q-127 0 -186.5 63.5t-59.5 158.5q0 90 59.5 169.5t165 132.5t239.5 67l-78 46q-92 54 -139 75.5t-95 21.5q-28 0 -56.5 -9t-51.5 -26
l-19 40q56 42 125 42q52 0 102.5 -23.5t129.5 -73.5q97 -59 148 -85l-7 -40l-23 -2q-42 -4 -66 -8q18 -87 64.5 -119.5t132.5 -32.5l15 -24l-20 -23q-96 0 -153 45.5t-74 147.5q-108 -22 -189.5 -70zM316 -72l37 45l46 -38l-37 -46z" />
    <glyph glyph-name="uniFE9F" unicode="&#x62c;" horiz-adv-x="674" arabic-form="initial" 
d="M327.5 403.5q52.5 -28.5 137.5 -90.5q37 -27 80 -56t82 -51l-6 -39l-25 -3q-66 -8 -128 -27.5t-150 -54.5q-99 -41 -170.5 -61.5t-147.5 -20.5l-20 24l24 23q72 0 135.5 17.5t158.5 54.5q82 31 138.5 49.5t124.5 31.5q-42 27 -107 72q-87 61 -136 87t-99 26
q-54 0 -101 -36l-20 40q29 23 58 33t65 10q54 0 106.5 -28.5zM245 -136l37 45l46 -38l-37 -46z" />
    <glyph glyph-name="uniFEA0" unicode="&#x62c;" horiz-adv-x="753" arabic-form="medial" 
d="M773 23l-20 -23q-93 0 -161.5 46.5t-92.5 144.5q-49 -11 -95 -32.5t-113 -58.5q-91 -50 -154.5 -75t-136.5 -25l-20 23l24 24q67 0 124 21.5t139 65.5q80 42 139 66.5t131 33.5q-45 17 -81.5 36.5t-82.5 47.5q-60 36 -96 51.5t-78 15.5q-54 0 -101 -36l-19 41
q29 22 57.5 32t64.5 10q46 0 86.5 -18.5t108.5 -60.5q56 -36 105 -62t109 -47l-6 -43l-38 -1q-11 0 -29 -2q26 -85 81.5 -118t138.5 -33zM327 -86l37 45l46 -38l-37 -46z" />
    <glyph glyph-name="uniFEA2" unicode="&#x62d;" horiz-adv-x="687" arabic-form="final" 
d="M270.5 123q-81.5 -48 -125.5 -113t-44 -136q0 -77 51 -126.5t160 -49.5q58 0 116.5 11.5t108.5 31.5l18 -42q-51 -23 -115 -36t-133 -13q-127 0 -186.5 63.5t-59.5 158.5q0 90 59.5 169.5t165 132.5t239.5 67l-78 46q-92 54 -139 75.5t-95 21.5q-28 0 -56.5 -9t-51.5 -26
l-19 40q56 42 125 42q52 0 102.5 -23.5t129.5 -73.5q97 -59 148 -85l-7 -40l-23 -2q-42 -4 -66 -8q18 -87 64.5 -119.5t132.5 -32.5l15 -24l-20 -23q-96 0 -153 45.5t-74 147.5q-108 -22 -189.5 -70z" />
    <glyph glyph-name="uniFEA3" unicode="&#x62d;" horiz-adv-x="674" arabic-form="initial" 
d="M327.5 403.5q52.5 -28.5 137.5 -90.5q37 -27 80 -56t82 -51l-6 -39l-25 -3q-66 -8 -128 -27.5t-150 -54.5q-99 -41 -170.5 -61.5t-147.5 -20.5l-20 24l24 23q72 0 135.5 17.5t158.5 54.5q82 31 138.5 49.5t124.5 31.5q-42 27 -107 72q-87 61 -136 87t-99 26
q-54 0 -101 -36l-20 40q29 23 58 33t65 10q54 0 106.5 -28.5z" />
    <glyph glyph-name="uniFEA4" unicode="&#x62d;" horiz-adv-x="753" arabic-form="medial" 
d="M773 23l-20 -23q-93 0 -161.5 46.5t-92.5 144.5q-49 -11 -95 -32.5t-113 -58.5q-91 -50 -154.5 -75t-136.5 -25l-20 23l24 24q67 0 124 21.5t139 65.5q80 42 139 66.5t131 33.5q-45 17 -81.5 36.5t-82.5 47.5q-60 36 -96 51.5t-78 15.5q-54 0 -101 -36l-19 41
q29 22 57.5 32t64.5 10q46 0 86.5 -18.5t108.5 -60.5q56 -36 105 -62t109 -47l-6 -43l-38 -1q-11 0 -29 -2q26 -85 81.5 -118t138.5 -33z" />
    <glyph glyph-name="uniFEA6" unicode="&#x62e;" horiz-adv-x="687" arabic-form="final" 
d="M270.5 123q-81.5 -48 -125.5 -113t-44 -136q0 -77 51 -126.5t160 -49.5q58 0 116.5 11.5t108.5 31.5l18 -42q-51 -23 -115 -36t-133 -13q-127 0 -186.5 63.5t-59.5 158.5q0 90 59.5 169.5t165 132.5t239.5 67l-78 46q-92 54 -139 75.5t-95 21.5q-28 0 -56.5 -9t-51.5 -26
l-19 40q56 42 125 42q52 0 102.5 -23.5t129.5 -73.5q97 -59 148 -85l-7 -40l-23 -2q-42 -4 -66 -8q18 -87 64.5 -119.5t132.5 -32.5l15 -24l-20 -23q-96 0 -153 45.5t-74 147.5q-108 -22 -189.5 -70zM172 549l36 45l46 -39l-36 -45z" />
    <glyph glyph-name="uniFEA7" unicode="&#x62e;" horiz-adv-x="674" arabic-form="initial" 
d="M327.5 403.5q52.5 -28.5 137.5 -90.5q37 -27 80 -56t82 -51l-6 -39l-25 -3q-66 -8 -128 -27.5t-150 -54.5q-99 -41 -170.5 -61.5t-147.5 -20.5l-20 24l24 23q72 0 135.5 17.5t158.5 54.5q82 31 138.5 49.5t124.5 31.5q-42 27 -107 72q-87 61 -136 87t-99 26
q-54 0 -101 -36l-20 40q29 23 58 33t65 10q54 0 106.5 -28.5zM165 549l36 45l46 -39l-36 -45z" />
    <glyph glyph-name="uniFEA8" unicode="&#x62e;" horiz-adv-x="753" arabic-form="medial" 
d="M773 23l-20 -23q-93 0 -161.5 46.5t-92.5 144.5q-49 -11 -95 -32.5t-113 -58.5q-91 -50 -154.5 -75t-136.5 -25l-20 23l24 24q67 0 124 21.5t139 65.5q80 42 139 66.5t131 33.5q-45 17 -81.5 36.5t-82.5 47.5q-60 36 -96 51.5t-78 15.5q-54 0 -101 -36l-19 41
q29 22 57.5 32t64.5 10q46 0 86.5 -18.5t108.5 -60.5q56 -36 105 -62t109 -47l-6 -43l-38 -1q-11 0 -29 -2q26 -85 81.5 -118t138.5 -33zM165 550l36 45l46 -39l-36 -45z" />
    <glyph glyph-name="uniFEAA" unicode="&#x62f;" horiz-adv-x="513" arabic-form="final" 
d="M533 23l-20 -23q-44 0 -75 18t-48 49q-35 -38 -88.5 -59t-121.5 -21q-74 0 -153 27l17 46q67 -23 139 -23q58 0 107 17t83 48l-157 368l48 22l134 -347q21 -55 45.5 -76.5t72.5 -21.5z" />
    <glyph glyph-name="uniFEAC" unicode="&#x630;" horiz-adv-x="513" arabic-form="final" 
d="M533 23l-20 -23q-44 0 -75 18t-48 49q-35 -38 -88.5 -59t-121.5 -21q-74 0 -153 27l17 46q67 -23 139 -23q58 0 107 17t83 48l-157 368l48 22l134 -347q21 -55 45.5 -76.5t72.5 -21.5zM135 632l36 45l46 -39l-36 -45z" />
    <glyph glyph-name="uniFEAE" unicode="&#x631;" horiz-adv-x="417" arabic-form="final" 
d="M417 0q-30 0 -50.5 5.5t-37.5 19.5q-36 -77 -126 -148t-227 -132l-21 48q137 57 222 122.5t123 133.5q-11 45 -33.5 111.5t-43.5 116.5l48 20q14 -39 55 -185q11 -39 32 -52t63 -13l16 -24z" />
    <glyph glyph-name="uniFEB0" unicode="&#x632;" horiz-adv-x="417" arabic-form="final" 
d="M417 0q-30 0 -50.5 5.5t-37.5 19.5q-36 -77 -126 -148t-227 -132l-21 48q137 57 222 122.5t123 133.5q-11 45 -33.5 111.5t-43.5 116.5l48 20q14 -39 55 -185q11 -39 32 -52t63 -13l16 -24zM179 447l36 45l46 -39l-36 -45z" />
    <glyph glyph-name="uniFEB2" unicode="&#x633;" horiz-adv-x="1223" arabic-form="final" 
d="M1223 0q-101 0 -162 53q-20 -26 -51 -39.5t-70 -13.5q-46 0 -79 17t-51 46q-17 -32 -52 -47.5t-72 -15.5h-1q-23 0 -46 7.5t-40 22.5q2 -28 2 -57q0 -56 -40 -105.5t-109 -79t-152 -29.5q-126 0 -185 59t-59 162q0 89 40 179l32 -10q-15 -42 -23 -80.5t-8 -83.5
q0 -179 207 -179q87 0 153.5 35.5t103.5 88.5q1 12 1 34q0 66 -13 122t-30 95t-46 97l47 20q48 -119 67 -188q13 -36 38.5 -49.5t64.5 -13.5q33 0 60 14t37 41l-24 213h48l16 -208q16 -27 46 -43.5t69 -16.5q31 0 57.5 11.5t39.5 28.5q-6 70 -16.5 134.5t-28.5 154.5l50 11
q13 -79 21 -145.5t13 -148.5q28 -22 61.5 -34t87.5 -12l16 -24z" />
    <glyph glyph-name="uniFEB3" unicode="&#x633;" horiz-adv-x="744" arabic-form="initial" 
d="M662.5 252q15.5 -66 15.5 -147q0 -31 -20.5 -55t-53 -37t-65.5 -13q-46 0 -79.5 17t-51.5 46q-17 -32 -52 -47.5t-72 -15.5q-46 0 -78.5 17t-50.5 46q-34 -63 -156 -63l-19 22l23 25q55 0 87 13.5t42 41.5l-23 213h47l17 -208q17 -28 46 -44t69 -16q33 0 60 14t37 41
l-23 213h47l17 -208q16 -27 45.5 -43.5t70.5 -16.5q30 0 57 11.5t40 28.5q-1 80 -19 146t-50 137l47 17q30 -69 45.5 -135z" />
    <glyph glyph-name="uniFEB4" unicode="&#x633;" horiz-adv-x="821" arabic-form="medial" 
d="M821 0q-99 0 -162 53q-19 -25 -51 -39t-70 -14q-46 0 -79 17t-51 46q-17 -32 -52 -47.5t-72 -15.5q-46 0 -78.5 17t-50.5 46q-34 -63 -156 -63l-19 22l23 25q55 0 87 13.5t42 41.5l-23 213h47l17 -208q17 -28 46 -44t69 -16q33 0 60 14t37 41l-23 213h47l17 -208
q16 -27 45.5 -43.5t69.5 -16.5q30 0 56.5 11.5t39.5 28.5q-6 69 -17 135t-29 154l49 11q14 -78 22.5 -145t12.5 -149q29 -22 63 -34t87 -12l16 -24z" />
    <glyph glyph-name="uniFEB6" unicode="&#x634;" horiz-adv-x="1223" arabic-form="final" 
d="M1223 0q-101 0 -162 53q-20 -26 -51 -39.5t-70 -13.5q-46 0 -79 17t-51 46q-17 -32 -52 -47.5t-72 -15.5h-1q-23 0 -46 7.5t-40 22.5q2 -28 2 -57q0 -56 -40 -105.5t-109 -79t-152 -29.5q-126 0 -185 59t-59 162q0 89 40 179l32 -10q-15 -42 -23 -80.5t-8 -83.5
q0 -179 207 -179q87 0 153.5 35.5t103.5 88.5q1 12 1 34q0 66 -13 122t-30 95t-46 97l47 20q48 -119 67 -188q13 -36 38.5 -49.5t64.5 -13.5q33 0 60 14t37 41l-24 213h48l16 -208q16 -27 46 -43.5t69 -16.5q31 0 57.5 11.5t39.5 28.5q-6 70 -16.5 134.5t-28.5 154.5l50 11
q13 -79 21 -145.5t13 -148.5q28 -22 61.5 -34t87.5 -12l16 -24zM805 553l-31 -39l-38 31l32 39zM869 468l-32 -39l-37 30l31 39zM759 460l-32 -40l-37 31l31 39z" />
    <glyph glyph-name="uniFEB7" unicode="&#x634;" horiz-adv-x="744" arabic-form="initial" 
d="M662.5 252q15.5 -66 15.5 -147q0 -31 -20.5 -55t-53 -37t-65.5 -13q-46 0 -79.5 17t-51.5 46q-17 -32 -52 -47.5t-72 -15.5q-46 0 -78.5 17t-50.5 46q-34 -63 -156 -63l-19 22l23 25q55 0 87 13.5t42 41.5l-23 213h47l17 -208q17 -28 46 -44t69 -16q33 0 60 14t37 41
l-23 213h47l17 -208q16 -27 45.5 -43.5t70.5 -16.5q30 0 57 11.5t40 28.5q-1 80 -19 146t-50 137l47 17q30 -69 45.5 -135zM403 553l-31 -39l-38 31l32 39zM467 468l-32 -39l-37 30l31 39zM357 460l-32 -40l-37 31l31 39z" />
    <glyph glyph-name="uniFEB8" unicode="&#x634;" horiz-adv-x="821" arabic-form="medial" 
d="M821 0q-99 0 -162 53q-19 -25 -51 -39t-70 -14q-46 0 -79 17t-51 46q-17 -32 -52 -47.5t-72 -15.5q-46 0 -78.5 17t-50.5 46q-34 -63 -156 -63l-19 22l23 25q55 0 87 13.5t42 41.5l-23 213h47l17 -208q17 -28 46 -44t69 -16q33 0 60 14t37 41l-23 213h47l17 -208
q16 -27 45.5 -43.5t69.5 -16.5q30 0 56.5 11.5t39.5 28.5q-6 69 -17 135t-29 154l49 11q14 -78 22.5 -145t12.5 -149q29 -22 63 -34t87 -12l16 -24zM403 553l-31 -39l-38 31l32 39zM467 468l-32 -39l-37 30l31 39zM357 460l-32 -40l-37 31l31 39z" />
    <glyph glyph-name="uniFEBA" unicode="&#x635;" horiz-adv-x="1330" arabic-form="final" 
d="M1350 23l-20 -23q-42 0 -75 22t-55 61q-38 -42 -129 -62.5t-243 -20.5h-142q-56 0 -87 30q2 -28 2 -57q0 -56 -40 -105.5t-109 -79t-152 -29.5q-126 0 -185 59t-59 162q0 89 40 179l32 -10q-15 -42 -23 -80.5t-8 -83.5q0 -179 207 -179q87 0 153.5 35.5t103.5 88.5
q1 12 1 34q0 66 -13 122t-30 95t-46 97l47 20q48 -119 67 -188q11 -30 31.5 -44.5t50.5 -17.5q75 163 175.5 259.5t205.5 96.5q85 0 131 -60t46 -187q0 -22 -7 -40q18 -30 49 -50t66 -20zM1185 163q0 103 -37 148.5t-94 45.5q-94 0 -179 -78t-167 -232h120q115 0 183.5 9
t106 25t66.5 43q1 14 1 39z" />
    <glyph glyph-name="uniFEBB" unicode="&#x635;" horiz-adv-x="899" arabic-form="initial" 
d="M787.5 344q45.5 -60 45.5 -187q0 -80 -95.5 -118.5t-303.5 -38.5h-141q-50 0 -87 18t-55 47q-21 -33 -64 -49t-88 -16l-19 22l23 25q41 0 76 14.5t50 40.5l-20 272h47l14 -261q12 -26 40 -43.5t65 -21.5q76 163 176 259.5t206 96.5q85 0 130.5 -60zM792 166
q0 101 -37 146t-95 45q-94 0 -179 -78.5t-166 -231.5h119q115 0 184 9t106 25t66 43q2 30 2 42z" />
    <glyph glyph-name="uniFEBC" unicode="&#x635;" horiz-adv-x="937" arabic-form="medial" 
d="M957 23l-20 -23q-42 0 -75.5 22.5t-55.5 60.5q-37 -42 -128.5 -62.5t-243.5 -20.5h-141q-50 0 -87 18t-55 47q-21 -33 -64 -49t-88 -16l-19 22l23 25q41 0 76 14.5t50 40.5l-20 272h47l14 -261q12 -26 40 -43.5t65 -21.5q76 163 176 259.5t206 96.5q85 0 130.5 -60
t45.5 -187q0 -21 -6 -39q17 -31 48 -51t66 -20zM792 166q0 101 -37 146t-95 45q-94 0 -179 -78.5t-166 -231.5h119q115 0 184 9t106 25t66 43q2 30 2 42z" />
    <glyph glyph-name="uniFEBE" unicode="&#x636;" horiz-adv-x="1330" arabic-form="final" 
d="M988 467l-45 39l36 46l46 -39zM1350 23l-20 -23q-42 0 -75 22t-55 61q-38 -42 -129 -62.5t-243 -20.5h-142q-56 0 -87 30q2 -28 2 -57q0 -56 -40 -105.5t-109 -79t-152 -29.5q-126 0 -185 59t-59 162q0 89 40 179l32 -10q-15 -42 -23 -80.5t-8 -83.5q0 -179 207 -179
q87 0 153.5 35.5t103.5 88.5q1 12 1 34q0 66 -13 122t-30 95t-46 97l47 20q48 -119 67 -188q11 -30 31.5 -44.5t50.5 -17.5q75 163 175.5 259.5t205.5 96.5q85 0 131 -60t46 -187q0 -22 -7 -40q18 -30 49 -50t66 -20zM1185 163q0 103 -37 148.5t-94 45.5q-94 0 -179 -78
t-167 -232h120q115 0 183.5 9t106 25t66.5 43q1 14 1 39z" />
    <glyph glyph-name="uniFEBF" unicode="&#x636;" horiz-adv-x="899" arabic-form="initial" 
d="M595 467l-46 39l37 46l46 -39zM787.5 344q45.5 -60 45.5 -187q0 -80 -95.5 -118.5t-303.5 -38.5h-141q-50 0 -87 18t-55 47q-21 -33 -64 -49t-88 -16l-19 22l23 25q41 0 76 14.5t50 40.5l-20 272h47l14 -261q12 -26 40 -43.5t65 -21.5q76 163 176 259.5t206 96.5
q85 0 130.5 -60zM792 166q0 101 -37 146t-95 45q-94 0 -179 -78.5t-166 -231.5h119q115 0 184 9t106 25t66 43q2 30 2 42z" />
    <glyph glyph-name="uniFEC0" unicode="&#x636;" horiz-adv-x="937" arabic-form="medial" 
d="M595 467l-46 39l37 46l46 -39zM957 23l-20 -23q-42 0 -75.5 22.5t-55.5 60.5q-37 -42 -128.5 -62.5t-243.5 -20.5h-141q-50 0 -87 18t-55 47q-21 -33 -64 -49t-88 -16l-19 22l23 25q41 0 76 14.5t50 40.5l-20 272h47l14 -261q12 -26 40 -43.5t65 -21.5q76 163 176 259.5
t206 96.5q85 0 130.5 -60t45.5 -187q0 -21 -6 -39q17 -31 48 -51t66 -20zM792 166q0 101 -37 146t-95 45q-94 0 -179 -78.5t-166 -231.5h119q115 0 184 9t106 25t66 43q2 30 2 42z" />
    <glyph glyph-name="uniFEC2" unicode="&#x637;" horiz-adv-x="801" arabic-form="final" 
d="M821 23l-20 -23q-42 0 -76 23t-56 61q-38 -43 -128 -63.5t-240 -20.5h-254l10 47h85q20 43 49 95l-17 597l47 6l9 -541q66 95 141.5 147.5t152.5 52.5q83 0 129.5 -58t46.5 -175q0 -28 -9 -52q17 -31 48 -51.5t66 -20.5zM491.5 57.5q70.5 10.5 107.5 31.5t62 57
q2 114 -35 162.5t-99 48.5q-94 0 -179 -78.5t-166 -231.5h119q120 0 190.5 10.5z" />
    <glyph glyph-name="uniFEC3" unicode="&#x637;" horiz-adv-x="756" arabic-form="initial" 
d="M644 346q46 -58 46 -175q0 -90 -94.5 -130.5t-304.5 -40.5h-291l-20 23l24 24h128q20 43 49 95l-17 597l47 6l9 -541q66 95 141.5 147.5t152.5 52.5q84 0 130 -58zM616 308.5q-37 48.5 -99 48.5q-94 0 -179 -78.5t-166 -231.5h119q120 0 190.5 10.5t107.5 31.5t62 57
q2 114 -35 162.5z" />
    <glyph glyph-name="uniFEC4" unicode="&#x637;" horiz-adv-x="791" arabic-form="medial" 
d="M811 23l-20 -23q-42 0 -75.5 22.5t-56.5 61.5q-38 -43 -127.5 -63.5t-240.5 -20.5h-291l-20 23l24 24h128q20 43 49 95l-17 597l47 6l9 -541q66 95 141.5 147.5t152.5 52.5q84 0 130 -58t46 -175q0 -29 -9 -52q17 -31 48 -51.5t66 -20.5zM481.5 57.5
q70.5 10.5 107.5 31.5t62 57q2 114 -35 162.5t-99 48.5q-94 0 -179 -78.5t-166 -231.5h119q120 0 190.5 10.5z" />
    <glyph glyph-name="uniFEC6" unicode="&#x638;" horiz-adv-x="801" arabic-form="final" 
d="M821 23l-20 -23q-42 0 -76 23t-56 61q-38 -43 -128 -63.5t-240 -20.5h-254l10 47h85q20 43 49 95l-17 597l47 6l9 -541q66 95 141.5 147.5t152.5 52.5q83 0 129.5 -58t46.5 -175q0 -28 -9 -52q17 -31 48 -51.5t66 -20.5zM491.5 57.5q70.5 10.5 107.5 31.5t62 57
q2 114 -35 162.5t-99 48.5q-94 0 -179 -78.5t-166 -231.5h119q120 0 190.5 10.5zM419 510l36 45l46 -39l-36 -45z" />
    <glyph glyph-name="uniFEC7" unicode="&#x638;" horiz-adv-x="756" arabic-form="initial" 
d="M644 346q46 -58 46 -175q0 -90 -94.5 -130.5t-304.5 -40.5h-291l-20 23l24 24h128q20 43 49 95l-17 597l47 6l9 -541q66 95 141.5 147.5t152.5 52.5q84 0 130 -58zM616 308.5q-37 48.5 -99 48.5q-94 0 -179 -78.5t-166 -231.5h119q120 0 190.5 10.5t107.5 31.5t62 57
q2 114 -35 162.5zM409 510l36 45l46 -39l-36 -45z" />
    <glyph glyph-name="uniFEC8" unicode="&#x638;" horiz-adv-x="791" arabic-form="medial" 
d="M811 23l-20 -23q-42 0 -75.5 22.5t-56.5 61.5q-38 -43 -127.5 -63.5t-240.5 -20.5h-291l-20 23l24 24h128q20 43 49 95l-17 597l47 6l9 -541q66 95 141.5 147.5t152.5 52.5q84 0 130 -58t46 -175q0 -29 -9 -52q17 -31 48 -51.5t66 -20.5zM481.5 57.5
q70.5 10.5 107.5 31.5t62 57q2 114 -35 162.5t-99 48.5q-94 0 -179 -78.5t-166 -231.5h119q120 0 190.5 10.5zM409 510l36 45l46 -39l-36 -45z" />
    <glyph glyph-name="uniFECA" unicode="&#x639;" horiz-adv-x="551" arabic-form="final" 
d="M173.5 18.5q-41.5 -35.5 -64.5 -75t-23 -88.5q0 -40 22 -76t71 -58.5t127 -22.5q57 0 117 12t109 31l17 -42q-50 -22 -115 -35.5t-133 -13.5q-90 0 -147 29.5t-82.5 75t-25.5 97.5q0 83 51.5 146t155.5 131l-29 31q-34 38 -71 73.5t-91 77.5l5 46q54 22 103.5 33.5
t109.5 11.5t105.5 -11.5t70 -29.5t24.5 -36q0 -56 -39.5 -101.5t-119.5 -98.5q55 -46 96 -62t111 -16h26l17 -24l-20 -23h-31q-66 0 -120 23.5t-116 76.5q-69 -46 -110.5 -81.5zM175.5 267q29.5 -28 68.5 -68q7 -8 46 -47q71 47 110.5 88.5t45.5 84.5q-26 11 -70 21t-96 10
q-87 0 -172 -32q38 -29 67.5 -57z" />
    <glyph glyph-name="uniFECB" unicode="&#x639;" horiz-adv-x="539" arabic-form="initial" 
d="M517 52q-130 -31 -216 -41.5t-209 -10.5h-92l-20 23l24 24h79q53 0 125 2q-66 39 -100 93t-34 111q0 45 20.5 83t63 60.5t103.5 22.5q33 0 70 -9t68 -27l-15 -45q-30 16 -63 24.5t-60 8.5q-74 0 -109.5 -33t-35.5 -88q0 -114 155 -196q51 5 103 15t138 30z" />
    <glyph glyph-name="uniFECC" unicode="&#x639;" horiz-adv-x="540" arabic-form="medial" 
d="M560 22l-20 -22h-23q-133 0 -231 89q-68 -41 -138.5 -65t-122.5 -24h-25l-20 22l24 25h13q51 0 113.5 19.5t122.5 53.5q-32 34 -38 42q-40 44 -75 77.5t-86 71.5l5 45q106 46 215 46q60 0 105 -12t69 -30t24 -37q0 -53 -40 -107.5t-107 -101.5q46 -37 89 -52t112 -15h18z
M161.5 273q26.5 -25 67.5 -67q40 -42 62 -62q61 40 100.5 87t46.5 93q-29 13 -72 22.5t-92 9.5q-87 0 -173 -32q34 -26 60.5 -51z" />
    <glyph glyph-name="uniFECE" unicode="&#x63a;" horiz-adv-x="551" arabic-form="final" 
d="M173.5 18.5q-41.5 -35.5 -64.5 -75t-23 -88.5q0 -40 22 -76t71 -58.5t127 -22.5q57 0 117 12t109 31l17 -42q-50 -22 -115 -35.5t-133 -13.5q-90 0 -147 29.5t-82.5 75t-25.5 97.5q0 83 51.5 146t155.5 131l-29 31q-34 38 -71 73.5t-91 77.5l5 46q54 22 103.5 33.5
t109.5 11.5t105.5 -11.5t70 -29.5t24.5 -36q0 -56 -39.5 -101.5t-119.5 -98.5q55 -46 96 -62t111 -16h26l17 -24l-20 -23h-31q-66 0 -120 23.5t-116 76.5q-69 -46 -110.5 -81.5zM175.5 267q29.5 -28 68.5 -68q7 -8 46 -47q71 47 110.5 88.5t45.5 84.5q-26 11 -70 21t-96 10
q-87 0 -172 -32q38 -29 67.5 -57zM239 528l36 45l46 -39l-36 -45z" />
    <glyph glyph-name="uniFECF" unicode="&#x63a;" horiz-adv-x="539" arabic-form="initial" 
d="M517 52q-130 -31 -216 -41.5t-209 -10.5h-92l-20 23l24 24h79q53 0 125 2q-66 39 -100 93t-34 111q0 45 20.5 83t63 60.5t103.5 22.5q33 0 70 -9t68 -27l-15 -45q-30 16 -63 24.5t-60 8.5q-74 0 -109.5 -33t-35.5 -88q0 -114 155 -196q51 5 103 15t138 30zM209 536l36 45
l46 -39l-36 -45z" />
    <glyph glyph-name="uniFED0" unicode="&#x63a;" horiz-adv-x="540" arabic-form="medial" 
d="M560 22l-20 -22h-23q-133 0 -231 89q-68 -41 -138.5 -65t-122.5 -24h-25l-20 22l24 25h13q51 0 113.5 19.5t122.5 53.5q-32 34 -38 42q-40 44 -75 77.5t-86 71.5l5 45q106 46 215 46q60 0 105 -12t69 -30t24 -37q0 -53 -40 -107.5t-107 -101.5q46 -37 89 -52t112 -15h18z
M161.5 273q26.5 -25 67.5 -67q40 -42 62 -62q61 40 100.5 87t46.5 93q-29 13 -72 22.5t-92 9.5q-87 0 -173 -32q34 -26 60.5 -51zM221 529l36 45l46 -39l-36 -45z" />
    <glyph glyph-name="uniFED2" unicode="&#x641;" horiz-adv-x="928" arabic-form="final" 
d="M948 23l-20 -23h-28q-52 0 -105.5 11.5t-100.5 32.5q-135 -57 -341 -57h-23q-143 0 -208.5 45t-65.5 139q0 77 36 150l32 -11q-27 -67 -27 -135q0 -73 55.5 -106.5t182.5 -33.5h23q169 0 287 35q-54 34 -84.5 79.5t-30.5 99.5q0 51 24 96.5t62.5 73t78.5 27.5
q43 0 82.5 -27.5t64.5 -73.5t25 -98q0 -51 -31 -97t-91 -81q70 -22 155 -22h32zM603.5 153.5q33.5 -39.5 90.5 -65.5q66 28 99.5 67t33.5 87q0 42 -19.5 78t-50 57.5t-61.5 21.5t-60 -21t-47.5 -57t-18.5 -77q0 -51 33.5 -90.5zM642 573l36 45l46 -39l-36 -45z" />
    <glyph glyph-name="uniFED3" unicode="&#x641;" horiz-adv-x="451" arabic-form="initial" 
d="M294.5 506q39.5 -33 64.5 -110.5t25 -203.5v-34q0 -37 -42.5 -73.5t-129.5 -60.5t-212 -24l-20 24l24 23q138 0 216.5 25t122.5 64q2 61 1 86q-21 -18 -51.5 -27t-64.5 -9q-51 0 -93.5 21.5t-67 58.5t-24.5 83q0 48 24 92t62 71t79 27q47 0 86.5 -33zM293.5 237
q27.5 7 49.5 19q-8 127 -45.5 181.5t-91.5 54.5q-30 0 -58.5 -20t-47 -52.5t-18.5 -67.5q0 -56 44 -89t114 -33q26 0 53.5 7zM155 659l36 45l46 -39l-36 -45z" />
    <glyph glyph-name="uniFED4" unicode="&#x641;" horiz-adv-x="468" arabic-form="medial" 
d="M488 23l-20 -23h-28q-50 0 -101.5 10.5t-96.5 29.5q-94 -40 -220 -40h-22l-20 23l24 24h23q90 0 164 19q-56 34 -88.5 80.5t-32.5 102.5q0 51 24 96.5t62.5 73t78.5 27.5q42 0 82 -27.5t65 -73.5t25 -98q0 -51 -29.5 -98t-84.5 -82q71 -20 147 -20h32zM146 151
q36 -41 97 -67q60 26 92 66.5t32 91.5q0 42 -19.5 78t-50 57.5t-61.5 21.5t-60 -21t-47.5 -57t-18.5 -77q0 -52 36 -93zM182 571l36 45l46 -39l-36 -45z" />
    <glyph glyph-name="uniFED6" unicode="&#x642;" horiz-adv-x="750" arabic-form="final" 
d="M750 0h-98v-32q-1 -46 -36 -95t-103 -81.5t-161 -32.5q-162 0 -229 57.5t-67 163.5q0 89 40 179l32 -10q-15 -42 -23 -80.5t-8 -83.5q0 -85 57 -132t202 -47q96 0 159.5 36t93.5 86q1 26 1 72h-90q-95 0 -151.5 46.5t-56.5 122.5q0 47 24 90.5t62.5 70.5t78.5 27
q70 0 118 -70t56 -240h103l16 -24zM397.5 79q46.5 -32 133.5 -32h78q-11 263 -134 263q-30 0 -58.5 -20t-47 -52.5t-18.5 -66.5q0 -60 46.5 -92zM472 479l33 41l39 -32l-33 -41zM358 471l33 41l40 -32l-34 -41z" />
    <glyph glyph-name="uniFED7" unicode="&#x642;" horiz-adv-x="451" arabic-form="initial" 
d="M294.5 506q39.5 -33 64.5 -110.5t25 -203.5v-34q0 -37 -42.5 -73.5t-129.5 -60.5t-212 -24l-20 24l24 23q138 0 216.5 25t122.5 64q2 61 1 86q-21 -18 -51.5 -27t-64.5 -9q-51 0 -93.5 21.5t-67 58.5t-24.5 83q0 48 24 92t62 71t79 27q47 0 86.5 -33zM293.5 237
q27.5 7 49.5 19q-8 127 -45.5 181.5t-91.5 54.5q-30 0 -58.5 -20t-47 -52.5t-18.5 -67.5q0 -56 44 -89t114 -33q26 0 53.5 7zM203 664l33 41l39 -32l-33 -41zM89 656l33 41l40 -32l-34 -41z" />
    <glyph glyph-name="uniFED8" unicode="&#x642;" horiz-adv-x="468" arabic-form="medial" 
d="M488 23l-20 -23h-28q-50 0 -101.5 10.5t-96.5 29.5q-94 -40 -220 -40h-22l-20 23l24 24h23q90 0 164 19q-56 34 -88.5 80.5t-32.5 102.5q0 51 24 96.5t62.5 73t78.5 27.5q42 0 82 -27.5t65 -73.5t25 -98q0 -51 -29.5 -98t-84.5 -82q71 -20 147 -20h32zM146 151
q36 -41 97 -67q60 26 92 66.5t32 91.5q0 42 -19.5 78t-50 57.5t-61.5 21.5t-60 -21t-47.5 -57t-18.5 -77q0 -52 36 -93zM230 576l33 41l39 -32l-33 -41zM116 568l33 41l40 -32l-34 -41z" />
    <glyph glyph-name="uniFEDA" unicode="&#x643;" horiz-adv-x="811" arabic-form="final" 
d="M831 24l-20 -24q-82 0 -125 84q-65 -48 -149.5 -72.5t-206.5 -24.5q-143 0 -208.5 45t-65.5 139q0 77 36 150l32 -11q-27 -67 -27 -135q0 -73 55.5 -106.5t182.5 -33.5q112 0 194 23.5t143 67.5l-6 613l47 5v-592q0 -42 24 -73.5t78 -31.5zM299 310q68 0 104.5 8t60.5 22
q-1 16 -42.5 43.5t-90.5 42.5l7 33l157 92l-2 -36l-124 -70q48 -21 84.5 -49t36.5 -51q0 -31 -55 -49t-131 -18z" />
    <glyph glyph-name="uniFEDB" unicode="&#x643;" horiz-adv-x="457" arabic-form="initial" 
d="M399 700l-350 -232q119 -79 197.5 -169.5t96.5 -185.5q-16 -28 -63 -54t-119.5 -42.5t-160.5 -16.5l-20 23l24 24q112 0 184.5 22t108.5 52q-15 80 -95 164.5t-198 162.5l9 43l388 259z" />
    <glyph glyph-name="uniFEDC" unicode="&#x643;" horiz-adv-x="531" arabic-form="medial" 
d="M551 24l-20 -24q-50 0 -87 15.5t-71 48t-83 93.5q-34 -73 -103 -115t-187 -42l-20 23l24 24q98 0 163.5 36t97.5 105l-209 260l10 42l388 260l-3 -49l-354 -236l156 -194q84 -105 124 -148t74 -59.5t84 -16.5z" />
    <glyph glyph-name="uniFEDE" unicode="&#x644;" horiz-adv-x="697" arabic-form="final" 
d="M697 0q-33 0 -63.5 12t-53.5 31l1 -96q-33 -62 -107.5 -100.5t-173.5 -38.5q-126 0 -185 59t-59 162q0 89 40 179l32 -11q-15 -41 -23 -80t-8 -84q0 -178 207 -178q83 0 145.5 29.5t90.5 75.5l-16 779l46 5l9 -645q24 -24 53 -38t69 -14l16 -24z" />
    <glyph glyph-name="uniFEDF" unicode="&#x644;" horiz-adv-x="217" arabic-form="initial" 
d="M-20 23l24 24q26 0 49.5 12.5t37.5 36.5l-16 643l47 5l10 -656q-13 -37 -49.5 -62.5t-82.5 -25.5z" />
    <glyph glyph-name="uniFEE0" unicode="&#x644;" horiz-adv-x="242" arabic-form="medial" 
d="M262 23l-21 -23q-89 0 -120 68q-16 -35 -47.5 -51.5t-73.5 -16.5l-20 23l24 24q62 0 97 56l-5 637l46 5v-596q0 -102 103 -102z" />
    <glyph glyph-name="uniFEE2" unicode="&#x645;" horiz-adv-x="678" arabic-form="final" 
d="M678 0q-44 0 -80.5 16t-60.5 39q-16 -30 -50.5 -49t-79.5 -19q-53 0 -95 16t-94 45q-29 15 -43 21.5t-25 6.5q-27 0 -39 -24t-12 -77q0 -52 12.5 -119.5t38.5 -181.5l-49 -22q-23 104 -34 179.5t-11 140.5q0 156 87 156q15 0 34 -8q40 100 71.5 157t64.5 83.5t76 26.5
t80 -34.5t58.5 -99.5t21.5 -152v-2v0q26 -25 57 -38.5t77 -13.5l15 -24zM494 214q-16 59 -44.5 91.5t-63.5 32.5q-34 0 -59.5 -22.5t-51.5 -71.5t-65 -142q6 -3 40.5 -23t74 -31.5t77.5 -11.5q71 0 107 41q1 78 -15 137z" />
    <glyph glyph-name="uniFEE3" unicode="&#x645;" horiz-adv-x="582" arabic-form="initial" 
d="M436 353q36 -34 58 -99t22 -155q0 -28 -17 -53.5t-49.5 -42t-78.5 -16.5q-54 0 -108.5 17t-117.5 58q-28 -35 -61.5 -48.5t-76.5 -13.5h-7l-20 23l24 24h10q36 0 60 11t45 38.5t46 81.5q41 85 67.5 128t55.5 62t70 19q42 0 78 -34zM459.5 218.5q-17.5 59.5 -45.5 90
t-60 30.5q-30 0 -53 -16.5t-48.5 -59t-62.5 -125.5q-5 -11 -22 -43q60 -36 105.5 -47.5t94.5 -11.5q42 0 65.5 11t42.5 30q1 82 -16.5 141.5z" />
    <glyph glyph-name="uniFEE4" unicode="&#x645;" horiz-adv-x="644" arabic-form="medial" 
d="M644 0q-43 0 -79 15t-61 38q-16 -29 -50.5 -47.5t-82.5 -18.5q-54 0 -108.5 17t-117.5 58q-28 -35 -61.5 -48.5t-76.5 -13.5h-7l-20 23l24 24h10q36 0 60 11t45 38.5t46 81.5q41 85 67.5 128t55.5 62t70 19q42 0 78 -34t58 -99t22 -155v-1q25 -24 55.5 -37.5t76.5 -13.5
l16 -24zM459.5 218.5q-17.5 59.5 -45.5 90t-60 30.5q-30 0 -53 -16.5t-48.5 -59t-62.5 -125.5q-5 -11 -22 -43q60 -36 105.5 -47.5t94.5 -11.5q42 0 65.5 11t42.5 30q1 82 -16.5 141.5z" />
    <glyph glyph-name="uniFEE6" unicode="&#x646;" horiz-adv-x="686" arabic-form="final" 
d="M686 0q-56 0 -87 30q2 -28 2 -57q0 -56 -40 -105.5t-109 -79t-152 -29.5q-126 0 -185 59t-59 162q0 89 40 179l32 -10q-15 -42 -23 -80.5t-8 -83.5q0 -179 207 -179q87 0 153.5 35.5t103.5 88.5q1 12 1 34q0 66 -13 122t-30 95t-46 97l47 20q48 -119 67 -188
q13 -36 38.5 -49.5t64.5 -13.5l16 -24zM262 371l36 45l46 -39l-36 -45z" />
    <glyph glyph-name="uniFEE7" unicode="&#x646;" horiz-adv-x="254" arabic-form="initial" 
d="M-20 24l24 23q41 0 80.5 14t63.5 39q0 66 -15 137t-38 136l46 15q47 -145 47 -273q0 -33 -27.5 -59.5t-71 -41t-89.5 -14.5zM57 518l36 45l46 -39l-36 -45z" />
    <glyph glyph-name="uniFEE8" unicode="&#x646;" horiz-adv-x="301" arabic-form="medial" 
d="M321 23l-20 -23q-51 0 -88.5 18t-56.5 47q-22 -34 -66.5 -49.5t-90.5 -15.5l-19 22l23 25q43 0 79 14t52 41l-24 213h48l16 -208q16 -27 51.5 -43.5t79.5 -16.5zM81 445l36 45l46 -39l-36 -45z" />
    <glyph glyph-name="uniFEEA" unicode="&#x647;" horiz-adv-x="492" arabic-form="final" 
d="M512 23l-20 -23h-11q-54 0 -88.5 24t-46.5 69q-31 -26 -75 -40.5t-92 -14.5q-41 0 -76 14.5t-55.5 38.5t-20.5 50q0 59 42 108.5t110.5 83.5t150.5 51l-4 105l43 6l10 -331q1 -64 26 -90.5t80 -26.5h12zM108 99q32 -16 78 -16q90 0 153 50l-7 206q-113 -22 -189 -74
t-79 -127q12 -23 44 -39z" />
    <glyph glyph-name="uniFEEB" unicode="&#x647;" horiz-adv-x="627" arabic-form="initial" 
d="M370 361.5q94 -69.5 142.5 -138.5t48.5 -143q0 -22 -20.5 -43.5t-57.5 -35.5t-83 -14q-99 0 -187 47q-83 -34 -192 -34h-21l-20 23l24 24h26q76 0 138 17q-49 36 -76.5 84t-27.5 103q0 42 18.5 79t50.5 60.5t73 26.5q-34 21 -102 59l23 40q149 -85 243 -154.5zM132 155
q31 -44 84 -74q59 26 90 69t31 97q0 56 -33.5 95t-83.5 39q-53 0 -86 -38t-33 -94q0 -50 31 -94zM475 43.5q32 10.5 52 28.5q-2 59 -44.5 118.5t-123.5 123.5q13 -30 13 -65q0 -56 -28 -105.5t-82 -84.5q64 -26 138 -26q43 0 75 10.5z" />
    <glyph glyph-name="uniFEEC" unicode="&#x647;" horiz-adv-x="486" arabic-form="medial" 
d="M486 0h-142q90 -48 90 -157q0 -25 -16 -47.5t-46 -36.5t-68 -14q-59 0 -105.5 32.5t-73.5 90.5t-29 132h-96l-20 23l24 24h92q3 81 36 155t84 119.5t104 45.5q50 0 81.5 -39.5t31.5 -104.5q0 -52 -29.5 -100.5t-81.5 -75.5h168l16 -24zM232.5 282q-39.5 -37 -67 -100
t-31.5 -135h69q55 0 98 23.5t66.5 62t23.5 83.5t-22 74t-57 29q-40 0 -79.5 -37zM373.5 -77q-22.5 38 -61 57.5t-84.5 19.5h-25h-69q5 -96 49.5 -152t116.5 -56q39 0 64.5 13.5t31.5 26.5q0 53 -22.5 91z" />
    <glyph glyph-name="uniFEEE" unicode="&#x648;" horiz-adv-x="517" arabic-form="final" 
d="M517 0h-96q-39 -200 -348 -252l-17 47q150 24 226 76.5t96 128.5h-70q-72 0 -123.5 21t-78.5 58t-27 84q0 48 24 92t63 71t79 27q43 0 85 -34.5t69 -101.5t27 -159v-11h95l16 -24zM386 47q0 86 -21.5 144.5t-53.5 86.5t-67 28q-30 0 -59 -20t-47.5 -53t-18.5 -68
q0 -56 47.5 -87t139.5 -31h80z" />
    <glyph glyph-name="uniFEF0" unicode="&#x649;" horiz-adv-x="707" arabic-form="final" 
d="M707 0q-55 0 -119 27q30 -33 30 -87q0 -24 -40.5 -57t-113 -56.5t-164.5 -23.5q-126 0 -185 59t-59 162q0 91 40 179l32 -10q-15 -41 -23 -80t-8 -84q0 -179 207 -179q108 0 178 28.5t100 55.5q-1 39 -16 64t-56 46t-121 44l27 39q64 -20 119 -40q61 -22 97 -31t79 -9
l16 -24z" />
    <glyph glyph-name="uniFEF2" unicode="&#x64a;" horiz-adv-x="707" arabic-form="final" 
d="M707 0q-55 0 -119 27q30 -33 30 -87q0 -24 -40.5 -57t-113 -56.5t-164.5 -23.5q-126 0 -185 59t-59 162q0 91 40 179l32 -10q-15 -41 -23 -80t-8 -84q0 -179 207 -179q108 0 178 28.5t100 55.5q-1 39 -16 64t-56 46t-121 44l27 39q64 -20 119 -40q61 -22 97 -31t79 -9
l16 -24zM321 -325l33 41l40 -32l-34 -41zM208 -333l33 40l39 -32l-33 -40z" />
    <glyph glyph-name="uniFEF3" unicode="&#x64a;" horiz-adv-x="254" arabic-form="initial" 
d="M-20 24l24 23q41 0 80.5 14t63.5 39q0 66 -15 137t-38 136l46 15q47 -145 47 -273q0 -33 -27.5 -59.5t-71 -41t-89.5 -14.5zM131 -138l33 41l40 -32l-34 -41zM18 -146l33 40l39 -32l-33 -40z" />
    <glyph glyph-name="uniFEF4" unicode="&#x64a;" horiz-adv-x="301" arabic-form="medial" 
d="M321 23l-20 -23q-51 0 -88.5 18t-56.5 47q-22 -34 -66.5 -49.5t-90.5 -15.5l-19 22l23 25q43 0 79 14t52 41l-24 213h48l16 -208q16 -27 51.5 -43.5t79.5 -16.5zM177 -138l33 41l40 -32l-34 -41zM64 -146l33 40l39 -32l-33 -40z" />
    <glyph glyph-name=".notdef" horiz-adv-x="664" 
d="M455 -350h-419l198 1400h419zM281 998l-183 -1296h310l183 1296h-310zM422.5 425.5q23.5 -25.5 23.5 -66.5q0 -8 -2 -26q-7 -52 -33 -80t-77 -35l-7 -47q-1 -10 -9 -16t-17 -6q-11 0 -18 7.5t-6 18.5l11 82q53 3 75 21t28 59q1 7 1 20q0 22 -11 34t-39 12q-17 0 -29 -2.5
t-25 -9.5l-13 -2q-12 0 -18.5 7.5t-4.5 18.5q2 18 32 27t63 9q52 0 75.5 -25.5zM315 111q9 -9 9 -23q0 -17 -11 -28.5t-26 -11.5t-23.5 9.5t-8.5 24.5q0 16 10.5 27t26.5 11q14 0 23 -9z" />
    <glyph glyph-name=".null" 
 />
    <glyph glyph-name="nonmarkingreturn" unicode="&#xd;" horiz-adv-x="282" 
 />
    <glyph glyph-name="space" unicode=" " horiz-adv-x="282" 
 />
    <glyph glyph-name="exclam" unicode="!" horiz-adv-x="239" 
d="M154 684h48l-68 -470h-43zM60.5 0q-10.5 11 -10.5 26q0 19 12.5 31t30.5 12q17 0 27 -10.5t10 -26.5q0 -18 -12 -30.5t-31 -12.5q-16 0 -26.5 11z" />
    <glyph glyph-name="quotedbl" unicode="&#x22;" horiz-adv-x="348" 
d="M133 684h50l-42 -248h-36zM283 684h50l-42 -248h-36z" />
    <glyph glyph-name="numbersign" unicode="#" horiz-adv-x="497" 
d="M430 454l-63 -229h73l-6 -39h-77l-51 -186h-46l51 186h-187l-51 -186h-45l51 186h-75l6 39h79l63 229h-73l5 39h78l47 171h45l-47 -171h187l47 171h46l-47 -171h74l-5 -39h-79zM321 225l63 229h-187l-63 -229h187z" />
    <glyph glyph-name="dollar" unicode="$" horiz-adv-x="521" 
d="M193 600q-43 -34 -43 -97q0 -47 31 -76t106 -53q84 -27 126 -67t42 -105q0 -51 -22 -97.5t-70.5 -78t-121.5 -36.5l-19 -139h-41l19 138q-56 3 -102 25t-81 58l30 27q67 -69 169 -69q65 0 108 23.5t63.5 62t20.5 83.5q0 49 -32.5 80t-107.5 56q-87 29 -126 67.5t-39 98.5
q0 75 52 121.5t141 50.5l21 144h41l-21 -145q47 -4 84 -22t70 -50l-29 -29q-66 63 -153 63q-73 0 -116 -34z" />
    <glyph glyph-name="percent" unicode="%" horiz-adv-x="780" 
d="M109 1l33 -22l560 699l-33 23zM124.5 390q-34.5 36 -34.5 96q0 43 17.5 86.5t55 73t93.5 29.5q58 0 92.5 -35.5t34.5 -95.5q0 -42 -17 -86t-54.5 -74t-94.5 -30q-58 0 -92.5 36zM289.5 416q27.5 26 39 62t11.5 68q0 42 -20 68t-63 26q-46 0 -73.5 -26t-38.5 -61.5
t-11 -68.5q0 -43 20 -68.5t63 -25.5q45 0 72.5 26zM451.5 25q-34.5 36 -34.5 96q0 43 17.5 87t54.5 73.5t94 29.5q58 0 92.5 -36t34.5 -96q0 -42 -17 -86t-54.5 -74t-94.5 -30q-58 0 -92.5 36zM616.5 51.5q27.5 26.5 39 62.5t11.5 67q0 42 -20 68t-63 26q-46 0 -73.5 -26
t-38.5 -61.5t-11 -68.5q0 -43 20 -68.5t63 -25.5q45 0 72.5 26.5z" />
    <glyph glyph-name="ampersand" unicode="&#x26;" horiz-adv-x="719" 
d="M461 657.5q43 -36.5 43 -93.5q0 -41 -18 -73t-58 -62t-110 -66l185 -201q48 78 92 180l41 -16q-50 -112 -106 -193l107 -117l-38 -26l-98 110q-47 -54 -104 -82.5t-131 -28.5q-83 0 -132.5 45t-49.5 118q0 66 37.5 117.5t131.5 101.5q-40 44 -59 82t-19 80t20.5 79
t60.5 59.5t94 22.5q68 0 111 -36.5zM254.5 620q-33.5 -37 -33.5 -87q0 -33 15.5 -66.5t54.5 -76.5q65 33 101 59.5t51 53.5t15 61q0 43 -30.5 68t-77.5 25q-62 0 -95.5 -37zM163 255.5q-32 -45.5 -32 -103.5q0 -56 36 -89.5t101 -33.5q63 0 113 25.5t93 74.5l-196 214
q-83 -42 -115 -87.5z" />
    <glyph glyph-name="quotesingle" unicode="'" horiz-adv-x="198" 
d="M133 684h50l-42 -248h-36z" />
    <glyph glyph-name="parenleft" unicode="(" horiz-adv-x="322" 
d="M342 814q-82 -100 -132 -186t-76 -181.5t-26 -213.5q0 -101 26 -177.5t78 -172.5l-32 -16q-40 68 -64 119t-39 113t-15 137q0 124 28.5 223t82 185.5t141.5 191.5z" />
    <glyph glyph-name="parenright" unicode=")" horiz-adv-x="322" 
d="M231 713.5q23 -49.5 38.5 -111.5t15.5 -137q0 -125 -28 -224t-81.5 -186t-142.5 -191l-28 22q82 101 132 186.5t76 181.5t26 215q0 100 -26 177t-77 171l32 16q40 -70 63 -119.5z" />
    <glyph glyph-name="asterisk" unicode="*" horiz-adv-x="433" 
d="M283 547l80 -125l-39 -27l-69 132l-106 -132l-34 27l115 124l-146 43l18 40l142 -54l17 160h46l-29 -158l154 54l9 -42z" />
    <glyph glyph-name="plus" unicode="+" horiz-adv-x="489" 
d="M280 351h151l-6 -41h-151l-21 -153h-45l21 153h-151l6 41h151l22 153h45z" />
    <glyph glyph-name="comma" unicode="," horiz-adv-x="195" 
d="M94 58.5q10 -10.5 10 -26.5q0 -11 -4.5 -22.5t-14.5 -30.5l-70 -125h-35l61 141q-17 9 -17 32q0 17 12.5 29.5t30.5 12.5q17 0 27 -10.5z" />
    <glyph glyph-name="hyphen" unicode="-" horiz-adv-x="398" 
d="M80 334h258l-6 -42h-258z" />
    <glyph glyph-name="period" unicode="." horiz-adv-x="196" 
d="M35.5 0q-10.5 11 -10.5 26q0 19 12.5 31t30.5 12q17 0 27 -10.5t10 -26.5q0 -18 -12 -30.5t-31 -12.5q-16 0 -26.5 11z" />
    <glyph glyph-name="slash" unicode="/" horiz-adv-x="518" 
d="M470 791l-357 -889l-39 11l356 889z" />
    <glyph glyph-name="zero" unicode="0" horiz-adv-x="545" 
d="M183.5 604.5q-58.5 -70.5 -85.5 -175t-27 -207.5q0 -114 42 -173.5t122 -59.5q88 0 146.5 70.5t85.5 175t27 208.5q0 115 -41.5 173.5t-121.5 58.5q-89 0 -147.5 -70.5zM447 450q0 -99 -22.5 -196t-70.5 -161t-118 -64q-118 0 -118 187q0 98 23 194.5t71 161t118 64.5
q117 0 117 -186z" />
    <glyph glyph-name="one" unicode="1" horiz-adv-x="404" 
d="M243 0h-46l86 608l-181 -104l-17 38l212 122h39z" />
    <glyph glyph-name="two" unicode="2" horiz-adv-x="471" 
d="M394.5 633.5q43.5 -41.5 43.5 -111.5q0 -58 -28 -113t-105 -138t-235 -230l317 1l-13 -42h-367l5 42q168 157 247 242t105 134.5t26 102.5q0 54 -31.5 84t-86.5 30q-48 0 -85.5 -19.5t-75.5 -58.5l-31 28q45 47 91.5 68.5t103.5 21.5q76 0 119.5 -41.5z" />
    <glyph glyph-name="three" unicode="3" horiz-adv-x="480" 
d="M391.5 634.5q41.5 -40.5 41.5 -106.5q0 -39 -17 -76.5t-52.5 -64t-87.5 -34.5q58 -2 94 -39.5t36 -104.5q0 -51 -25 -101.5t-77.5 -84.5t-130.5 -34q-58 0 -101.5 22t-75.5 65l33 25q29 -39 63.5 -55t80.5 -16q65 0 106.5 28t60 70t18.5 85q0 119 -135 119h-43l11 38h32
q52 0 89 22.5t55.5 59t18.5 76.5q0 51 -30.5 80t-82.5 29q-44 0 -82 -16t-81 -51l-23 31q45 38 90 56t99 18q74 0 115.5 -40.5z" />
    <glyph glyph-name="four" unicode="4" horiz-adv-x="512" 
d="M463 178h-91l-25 -178h-45l25 178h-292l6 36l265 461l39 -16l-254 -441h242l33 200h40l-28 -200h91z" />
    <glyph glyph-name="five" unicode="5" horiz-adv-x="480" 
d="M450 624h-272l-34 -238q56 33 118 33q76 0 119 -47t43 -128q0 -57 -25 -116t-78.5 -99t-135.5 -40q-58 0 -100 20.5t-75 59.5l32 27q28 -34 62 -50t82 -16q66 0 109 34t62.5 84t19.5 97q0 65 -33.5 100.5t-89.5 35.5q-35 0 -61.5 -8t-61.5 -27h-37l44 318h325z" />
    <glyph glyph-name="six" unicode="6" horiz-adv-x="519" 
d="M421.5 388q42.5 -43 42.5 -123q0 -61 -24 -125t-74.5 -107.5t-124.5 -43.5q-90 0 -131.5 58.5t-41.5 160.5q0 113 34.5 221t101 177t156.5 69q36 0 63 -10t53 -29l-25 -32q-41 32 -92 32q-85 0 -147.5 -85t-87.5 -223q78 103 188 103q67 0 109.5 -43zM342 68
q40 39 57.5 93.5t17.5 102.5q0 64 -30 96t-81 32q-54 0 -101.5 -32t-87.5 -89q-3 -37 -3 -68q0 -174 127 -174q61 0 101 39z" />
    <glyph glyph-name="seven" unicode="7" horiz-adv-x="433" 
d="M447 627l-353 -634l-43 15l345 616h-313l5 40h364z" />
    <glyph glyph-name="eight" unicode="8" horiz-adv-x="532" 
d="M434 284.5q31 -36.5 31 -89.5q0 -61 -30 -108t-83.5 -72.5t-122.5 -25.5q-87 0 -137.5 45t-50.5 118q0 66 41 120t135 87q-49 24 -73.5 57.5t-24.5 80.5q0 53 27.5 93.5t74 62.5t100.5 22q68 0 115.5 -38t47.5 -105q0 -63 -34.5 -104.5t-111.5 -77.5q65 -29 96 -65.5z
M188 428q24 -28 81 -50l34 -13q73 36 104.5 75t31.5 92q0 50 -32.5 77.5t-86.5 27.5q-67 0 -111.5 -39t-44.5 -100q0 -42 24 -70zM365 73.5q53 44.5 53 123.5q0 46 -30 75.5t-98 56.5l-34 14q-96 -34 -131.5 -82.5t-35.5 -108.5q0 -57 38 -90t103 -33q82 0 135 44.5z" />
    <glyph glyph-name="nine" unicode="9" horiz-adv-x="514" 
d="M432.5 622.5q42.5 -52.5 42.5 -146.5q0 -177 -84.5 -307t-305.5 -188l-9 37q145 45 228.5 120.5t111.5 208.5q-37 -46 -83 -71.5t-98 -25.5q-69 0 -112 48.5t-43 128.5q0 58 24 115.5t74.5 95t125.5 37.5q86 0 128.5 -52.5zM337.5 318q44.5 28 86.5 82q4 39 4 75
q0 80 -30 120.5t-95 40.5q-63 0 -102.5 -33.5t-56.5 -82t-17 -95.5q0 -63 30.5 -99t84.5 -36q51 0 95.5 28z" />
    <glyph glyph-name="colon" unicode=":" horiz-adv-x="196" 
d="M35.5 0q-10.5 11 -10.5 26q0 19 12.5 31t30.5 12q17 0 27 -10.5t10 -26.5q0 -18 -12 -30.5t-31 -12.5q-16 0 -26.5 11zM91.5 398q-10.5 11 -10.5 26q0 19 12.5 31t30.5 12q17 0 27 -10.5t10 -26.5q0 -18 -12 -30.5t-31 -12.5q-16 0 -26.5 11z" />
    <glyph glyph-name="semicolon" unicode=";" horiz-adv-x="197" 
d="M94 58.5q10 -10.5 10 -26.5q0 -11 -4.5 -22.5t-14.5 -30.5l-70 -125h-35l61 141q-17 9 -17 32q0 17 12.5 29.5t30.5 12.5q17 0 27 -10.5zM92.5 398q-10.5 11 -10.5 26q0 19 12.5 31t30.5 12q17 0 27 -10.5t10 -26.5q0 -18 -12 -30.5t-31 -12.5q-16 0 -26.5 11z" />
    <glyph glyph-name="less" unicode="&#x3c;" horiz-adv-x="494" 
d="M458 481l-336 -149l292 -152l-22 -38l-316 171l5 40l363 168z" />
    <glyph glyph-name="equal" unicode="=" horiz-adv-x="491" 
d="M97 436h347l-6 -42h-347zM72 267h347l-6 -42h-347z" />
    <glyph glyph-name="greater" unicode="&#x3e;" horiz-adv-x="494" 
d="M439 353l-6 -40l-364 -171l-13 39l336 154l-293 147l23 39z" />
    <glyph glyph-name="question" unicode="?" horiz-adv-x="442" 
d="M400 659q39 -35 39 -89q0 -44 -17.5 -75.5t-43 -51.5t-66.5 -46q-36 -23 -56 -38.5t-34 -38t-14 -51.5q0 -19 6 -45l-42 -9q-10 30 -10 56q0 37 16 64.5t39 46t62 42.5q38 24 60 41.5t37 43t15 60.5q0 39 -27.5 62.5t-75.5 23.5q-47 0 -85.5 -18.5t-79.5 -58.5l-30 27
q46 47 93 68t105 21q70 0 109 -35zM154.5 -0.5q-10.5 10.5 -10.5 25.5q0 19 12.5 31.5t30.5 12.5q17 0 27 -10.5t10 -26.5q0 -19 -12 -31t-31 -12q-16 0 -26.5 10.5z" />
    <glyph glyph-name="at" unicode="@" horiz-adv-x="1018" 
d="M772 650q82 -44 124 -120.5t42 -173.5q0 -82 -23 -160.5t-72 -130.5t-123 -52q-48 0 -75.5 30.5t-30.5 80.5q-62 -109 -161 -109q-63 0 -103 44.5t-40 125.5q0 68 25.5 136.5t80 114.5t136.5 46q67 0 137 -36l-36 -265q-3 -19 -3 -40q0 -90 69 -90q59 0 98 47t57 117.5
t18 141.5q0 89 -37 156t-109.5 104t-173.5 37q-152 0 -252 -74t-146.5 -184t-46.5 -219q0 -101 43 -178t121 -119t181 -42q54 0 100 8.5t93 24.5l9 -39q-52 -17 -98 -26t-106 -9q-113 0 -201.5 47t-138 133t-49.5 200q0 118 51.5 237t162 199.5t278.5 80.5q117 0 199 -44z
M547 88.5q40 34.5 61 82.5l36 251q-23 11 -44 16.5t-47 5.5q-70 0 -114.5 -41.5t-63.5 -102t-19 -119.5q0 -62 27 -94.5t75 -32.5q49 0 89 34.5z" />
    <glyph glyph-name="A" unicode="A" horiz-adv-x="560" 
d="M418 192h-296l-90 -192h-49l327 684h59l134 -684h-49zM410 234l-76 411l-192 -411h268z" />
    <glyph glyph-name="B" unicode="B" horiz-adv-x="592" 
d="M490.5 319.5q38.5 -34.5 38.5 -102.5q0 -56 -25 -105t-84.5 -80.5t-155.5 -31.5h-187l97 684h162q96 0 150.5 -38t54.5 -112q0 -70 -42 -115.5t-112 -56.5q65 -8 103.5 -42.5zM215 643l-36 -263h142q82 0 127 43.5t45 109.5q0 110 -154 110h-124zM430.5 92
q48.5 51 48.5 126q0 62 -40.5 92t-111.5 30h-154l-41 -299h136q114 0 162.5 51z" />
    <glyph glyph-name="C" unicode="C" horiz-adv-x="545" 
d="M493.5 678.5q38.5 -15.5 71.5 -46.5l-28 -29q-32 27 -62.5 38.5t-72.5 11.5q-97 0 -159.5 -61t-90.5 -151.5t-28 -180.5q0 -112 50 -169.5t134 -57.5q50 0 86.5 14.5t74.5 43.5l25 -35q-85 -67 -189 -67q-105 0 -167.5 71t-62.5 201q0 100 34 199.5t107.5 166.5t184.5 67
q54 0 92.5 -15.5z" />
    <glyph glyph-name="D" unicode="D" horiz-adv-x="626" 
d="M500 628.5q74 -55.5 74 -199.5q0 -114 -35.5 -211t-115 -157.5t-204.5 -60.5h-142l97 684h131q121 0 195 -55.5zM215 643l-83 -602h94q107 0 174 56.5t96.5 144.5t29.5 188q0 125 -60.5 169t-160.5 44h-90z" />
    <glyph glyph-name="E" unicode="E" horiz-adv-x="502" 
d="M500 643h-285l-37 -266h247l-6 -41h-246l-42 -295h298l-7 -41h-345l97 684h338z" />
    <glyph glyph-name="F" unicode="F" horiz-adv-x="475" 
d="M495 643h-280l-38 -279h241l-6 -40h-241l-46 -324h-48l97 684h332z" />
    <glyph glyph-name="G" unicode="G" horiz-adv-x="612" 
d="M503 678q43 -16 80 -49l-31 -28q-33 27 -67 39.5t-79 12.5q-92 0 -155.5 -58.5t-95 -150t-31.5 -189.5q0 -112 50.5 -168t141.5 -56q82 0 153 38l37 254h-137v42h190l-45 -321q-97 -55 -202 -55q-111 0 -174 69.5t-63 201.5q0 106 37.5 206t112.5 164t181 64q54 0 97 -16
z" />
    <glyph glyph-name="H" unicode="H" horiz-adv-x="665" 
d="M77 0l97 684h47l-42 -303h341l42 303h48l-96 -684h-48l48 339h-341l-48 -339h-48z" />
    <glyph glyph-name="I" unicode="I" horiz-adv-x="277" 
d="M125 0h-48l97 684h47z" />
    <glyph glyph-name="J" unicode="J" horiz-adv-x="285" 
d="M152 89q-9 -58 -27 -93.5t-52 -60t-95 -48.5l-11 36q49 22 76 43t41 51t20 78l83 589h48z" />
    <glyph glyph-name="K" unicode="K" horiz-adv-x="531" 
d="M174 684h48l-97 -684h-48zM181 367l335 317h58l-338 -319l258 -365h-56z" />
    <glyph glyph-name="L" unicode="L" horiz-adv-x="465" 
d="M132 44h286l-13 -44h-328l97 684h47z" />
    <glyph glyph-name="M" unicode="M" horiz-adv-x="766" 
d="M658 0h-46l13 335q8 230 15 305l-259 -558h-46l-107 557q-12 -63 -68 -302l-80 -337h-45l163 684h65l102 -546l250 546h70z" />
    <glyph glyph-name="N" unicode="N" horiz-adv-x="667" 
d="M516 0h-60l-250 639q-3 -78 -26 -235l-57 -404h-46l97 684h61l250 -638q5 87 21 209l61 429h45z" />
    <glyph glyph-name="O" unicode="O" horiz-adv-x="689" 
d="M575 624.5q62 -69.5 62 -199.5q0 -100 -32.5 -200t-106.5 -168t-189 -68q-109 0 -171.5 71t-62.5 201q0 97 33.5 196.5t107.5 168t188 68.5q109 0 171 -69.5zM241.5 590.5q-62.5 -62.5 -90 -153.5t-27.5 -178q0 -113 49.5 -170.5t136.5 -57.5q101 0 163.5 63t88.5 154
t26 179q0 113 -48.5 169.5t-137.5 56.5q-98 0 -160.5 -62.5z" />
    <glyph glyph-name="P" unicode="P" horiz-adv-x="565" 
d="M492 642q57 -42 57 -128q0 -105 -65.5 -174t-216.5 -69h-104l-38 -271h-48l97 684h152q109 0 166 -42zM448 369.5q52 56.5 52 144.5q0 69 -45 99t-133 30h-107l-46 -330h102q125 0 177 56.5z" />
    <glyph glyph-name="Q" unicode="Q" horiz-adv-x="676" 
d="M615 259q-22 -84 -72 -151t-127 -92q117 -5 183 -68l-35 -38q-46 46 -103 62.5t-152 16.5q-109 0 -171.5 71t-62.5 201q0 97 33.5 196.5t107.5 168t188 68.5q109 0 171 -69.5t62 -199.5q0 -82 -22 -166zM173.5 88q49.5 -57 136.5 -57q101 0 163.5 63.5t88.5 154.5t26 181
q0 111 -48.5 167t-137.5 56q-99 0 -161 -63t-89.5 -154t-27.5 -180q0 -111 49.5 -168z" />
    <glyph glyph-name="R" unicode="R" horiz-adv-x="583" 
d="M502.5 396.5q-44.5 -57.5 -137.5 -77.5l145 -319h-53l-140 313h-148l-44 -313h-48l97 684h165q208 0 208 -157q0 -73 -44.5 -130.5zM299 353q105 0 151.5 51.5t46.5 122.5q0 59 -38.5 87.5t-123.5 28.5h-120l-41 -290h125z" />
    <glyph glyph-name="S" unicode="S" horiz-adv-x="535" 
d="M426 675q44 -19 80 -56l-31 -29q-33 33 -68.5 48t-82.5 15q-76 0 -122.5 -37.5t-46.5 -97.5q0 -50 31.5 -78.5t110.5 -53.5q88 -28 130 -69.5t42 -113.5q0 -53 -26.5 -102t-82.5 -80.5t-139 -31.5q-66 0 -115.5 22.5t-88.5 64.5l32 29q34 -36 75 -55t97 -19q68 0 113 25
t65.5 64t20.5 82q0 54 -32.5 86.5t-110.5 59.5q-92 30 -131 67t-39 101q0 47 25.5 87.5t75 65.5t116.5 25q58 0 102 -19z" />
    <glyph glyph-name="T" unicode="T" horiz-adv-x="486" 
d="M523 640h-203l-90 -640h-48l90 640h-204l6 44h461z" />
    <glyph glyph-name="U" unicode="U" horiz-adv-x="647" 
d="M535 210q-14 -101 -77 -161t-170 -60q-97 0 -145.5 47.5t-48.5 130.5q0 14 4 46l66 471h47l-65 -470q-3 -24 -3 -44q0 -66 36 -102t110 -36q88 0 137.5 49.5t61.5 135.5l66 467h47z" />
    <glyph glyph-name="V" unicode="V" horiz-adv-x="541" 
d="M261 0h-55l-127 684h49l111 -636l291 636h50z" />
    <glyph glyph-name="W" unicode="W" horiz-adv-x="802" 
d="M579 0h-58l-68 632l-246 -632h-58l-57 684h47l47 -636l246 636h55l68 -638l228 638h46z" />
    <glyph glyph-name="X" unicode="X" horiz-adv-x="504" 
d="M292 370l162 -370h-51l-142 336l-233 -336h-53l260 369l-142 315h52l122 -282l201 282h53z" />
    <glyph glyph-name="Y" unicode="Y" horiz-adv-x="512" 
d="M282 269l-38 -269h-48l38 268l-159 416h51l136 -371l239 371h54z" />
    <glyph glyph-name="Z" unicode="Z" horiz-adv-x="512" 
d="M6 41l456 600h-334l6 43h389l-5 -40l-455 -601h362l-13 -43h-412z" />
    <glyph glyph-name="bracketleft" unicode="[" horiz-adv-x="314" 
d="M314 766h-110l-119 -840h110l-5 -37h-152l129 914h152z" />
    <glyph glyph-name="backslash" unicode="\" horiz-adv-x="518" 
d="M345 -88l-41 -10l-106 889l41 10z" />
    <glyph glyph-name="bracketright" unicode="]" horiz-adv-x="314" 
d="M171 -111h-152l5 37h110l118 840h-109l5 37h152z" />
    <glyph glyph-name="asciicircum" unicode="^" horiz-adv-x="526" 
d="M502 527h-53l-111 254l-184 -254h-54l225 303h37z" />
    <glyph glyph-name="underscore" unicode="_" horiz-adv-x="518" 
d="M-15 -73h455l-6 -42h-454z" />
    <glyph glyph-name="grave" unicode="`" horiz-adv-x="262" 
d="M291 675l-17 -27l-178 84l26 44z" />
    <glyph glyph-name="a" unicode="a" horiz-adv-x="556" 
d="M410.5 521.5q36.5 -10.5 76.5 -31.5l-55 -378q-3 -19 -3 -34q0 -21 7.5 -34.5t26.5 -20.5l-13 -34q-31 9 -47 27t-16 55l1 15q-31 -45 -72.5 -71t-90.5 -26q-77 0 -120.5 54t-43.5 149q0 78 27.5 156.5t87 131t150.5 52.5q48 0 84.5 -10.5zM203.5 447
q-48.5 -47 -71 -116.5t-22.5 -137.5q0 -80 31.5 -122t88.5 -42q48 0 87.5 29.5t74.5 86.5l46 322q-48 27 -111 27q-75 0 -123.5 -47z" />
    <glyph glyph-name="b" unicode="b" horiz-adv-x="569" 
d="M467 482q41 -50 41 -145q0 -80 -26 -159.5t-86 -134t-154 -54.5q-43 0 -80 8t-87 26l101 712l47 6l-41 -290q76 81 169 81q75 0 116 -50zM254.5 469.5q-39.5 -23.5 -79.5 -69.5l-48 -348q27 -12 53.5 -17.5t62.5 -5.5q78 0 127 49.5t70 120.5t21 140q0 77 -30.5 115.5
t-86.5 38.5q-50 0 -89.5 -23.5z" />
    <glyph glyph-name="c" unicode="c" horiz-adv-x="465" 
d="M457 480l-27 -29q-23 21 -49.5 31.5t-61.5 10.5q-73 0 -120 -46.5t-68 -115t-21 -134.5q0 -83 37 -124.5t103 -41.5t131 45l21 -33q-70 -54 -154 -54q-86 0 -136 55t-50 155q0 75 27 152t85 129t146 52q84 0 137 -52z" />
    <glyph glyph-name="d" unicode="d" horiz-adv-x="574" 
d="M532 735l-104 -735h-39l9 113q-71 -124 -178 -124q-74 0 -116.5 54.5t-42.5 150.5q0 76 25 154t80 131t140 53q94 0 140 -74l40 283zM196.5 446q-45.5 -47 -66 -116t-20.5 -137q0 -79 30.5 -121.5t85.5 -42.5q56 0 97 38t85 113l32 232q-43 81 -128 81q-70 0 -115.5 -47z
" />
    <glyph glyph-name="e" unicode="e" horiz-adv-x="512" 
d="M382.5 268.5q-95.5 -47.5 -272.5 -59.5v-10q0 -86 37.5 -127.5t102.5 -41.5q42 0 76.5 13t73.5 41l22 -33q-42 -31 -84 -46.5t-90 -15.5q-88 0 -137 54.5t-49 154.5q0 79 29 156t88.5 127.5t147.5 50.5q70 0 110.5 -34.5t40.5 -88.5q0 -93 -95.5 -140.5zM216.5 457.5
q-45.5 -35.5 -71 -91.5t-32.5 -119q159 11 238 50t79 110q0 38 -26 62t-77 24q-65 0 -110.5 -35.5z" />
    <glyph glyph-name="f" unicode="f" horiz-adv-x="315" 
d="M243 679q-28 -23 -35 -70l-12 -87h141l-11 -39h-136l-65 -470q-9 -67 -27.5 -105.5t-48 -61t-82.5 -46.5l-15 35q41 20 65 39t39.5 52t23.5 89l65 468h-90l6 39h89l13 91q8 60 49 94t102 34q35 0 63 -8.5t58 -26.5l-20 -32q-26 15 -49 21.5t-50 6.5q-45 0 -73 -23z" />
    <glyph glyph-name="g" unicode="g" horiz-adv-x="562" 
d="M414 521.5q37 -10.5 77 -31.5l-71 -488q-16 -109 -71.5 -157t-139.5 -48q-87 0 -170 48l19 35q36 -20 72 -31.5t78 -11.5q65 0 109.5 38t56.5 124l14 95q-30 -44 -71.5 -69t-89.5 -25q-77 0 -121 55t-44 149q0 75 28 150.5t88 126.5t150 51q49 0 86 -10.5zM205 448
q-49 -46 -72 -113.5t-22 -133.5q0 -77 32 -119t89 -42q94 0 164 114l45 313q-48 27 -112 27q-75 0 -124 -46z" />
    <glyph glyph-name="h" unicode="h" horiz-adv-x="580" 
d="M463 500q31 -32 31 -92q0 -17 -3 -38l-52 -370h-46l52 367q3 20 3 37q0 89 -83 89q-58 0 -108 -48t-96 -133l-43 -312h-46l104 735l46 6l-50 -357q38 70 90 109t110 39q60 0 91 -32z" />
    <glyph glyph-name="i" unicode="i" horiz-adv-x="263" 
d="M118 0h-46l74 522h46zM169 682.5q-9 8.5 -9 22.5q0 17 11 28t28 11q15 0 23.5 -8.5t8.5 -22.5q0 -17 -11 -28t-27 -11q-15 0 -24 8.5z" />
    <glyph glyph-name="j" unicode="j" horiz-adv-x="265" 
d="M-51 -166q41 20 64.5 39.5t39 52.5t23.5 89l71 507h46l-72 -509q-9 -67 -28 -105.5t-48.5 -61.5t-82.5 -46zM170 682.5q-9 8.5 -9 22.5q0 17 11 28t28 11q15 0 23.5 -8.5t8.5 -22.5q0 -17 -11 -28t-27 -11q-15 0 -24 8.5z" />
    <glyph glyph-name="k" unicode="k" horiz-adv-x="514" 
d="M171 381q82 151 201 151q53 0 85 -29t32 -80q0 -64 -45 -111.5t-131 -74.5l119 -237h-51l-124 253q184 50 184 167q0 35 -18.5 54.5t-58.5 19.5q-57 0 -109 -50.5t-95 -142.5l-42 -301h-46l104 735l46 6z" />
    <glyph glyph-name="l" unicode="l" horiz-adv-x="279" 
d="M124 83q-1 -5 -1 -15q0 -19 8.5 -28.5t28.5 -9.5q17 0 39 8l11 -36q-29 -13 -56 -13q-37 0 -57 19.5t-20 57.5q0 7 2 23l91 646l47 6z" />
    <glyph glyph-name="m" unicode="m" horiz-adv-x="847" 
d="M733.5 499.5q28.5 -32.5 28.5 -91.5q0 -17 -3 -37l-53 -371h-46l52 367q3 21 3 39q0 44 -19 65.5t-53 21.5q-50 0 -95.5 -47.5t-91.5 -131.5l-44 -314h-46l52 367q3 21 3 37q0 89 -72 89q-50 0 -95.5 -47.5t-92.5 -133.5l-43 -312h-46l74 522h39l-16 -140q85 150 190 150
q53 0 82 -36.5t25 -102.5q41 68 88.5 103.5t99.5 35.5q51 0 79.5 -32.5z" />
    <glyph glyph-name="n" unicode="n" horiz-adv-x="579" 
d="M462.5 499.5q31.5 -32.5 31.5 -92.5q0 -18 -3 -38l-52 -369h-46l52 367q3 20 3 35q0 91 -83 91q-106 0 -203 -181l-44 -312h-46l74 522h39l-16 -140q41 72 93 111t111 39q58 0 89.5 -32.5z" />
    <glyph glyph-name="o" unicode="o" horiz-adv-x="566" 
d="M111 44.5q-49 55.5 -49 154.5q0 75 26 151.5t84 129t148 52.5q88 0 136.5 -54t48.5 -153q0 -74 -25.5 -151.5t-83.5 -131t-149 -53.5q-87 0 -136 55.5zM369 77q47 47 67.5 115.5t20.5 134.5q0 81 -36 123.5t-102 42.5q-75 0 -121.5 -48t-67 -116t-20.5 -133
q0 -81 36 -123.5t102 -42.5q74 0 121 47z" />
    <glyph glyph-name="p" unicode="p" horiz-adv-x="568" 
d="M146 522h39l-6 -74q78 84 171 84q75 0 116 -50t41 -145q0 -80 -26 -159.5t-85.5 -134t-153.5 -54.5q-64 0 -123 23l-30 -209l-46 -6zM369.5 78.5q48.5 49.5 69.5 120.5t21 140q0 154 -117 154q-50 0 -88.5 -23.5t-79.5 -69.5l-49 -348q27 -11 54 -17t63 -6
q78 0 126.5 49.5z" />
    <glyph glyph-name="q" unicode="q" horiz-adv-x="562" 
d="M387 82q-29 -42 -71 -67.5t-91 -25.5q-77 0 -120.5 54t-43.5 149q0 78 27.5 156.5t87 131t150.5 52.5q48 0 86 -10.5t79 -31.5l-98 -687l-46 -6zM395 145l46 322q-48 27 -114 27q-75 0 -123.5 -47t-71 -116.5t-22.5 -137.5q0 -80 31.5 -122t88.5 -42q93 0 165 116z" />
    <glyph glyph-name="r" unicode="r" horiz-adv-x="367" 
d="M390 525l-13 -42q-22 6 -41 6q-57 0 -97 -46t-78 -138l-43 -305h-46l74 522h39l-16 -134q62 144 171 144q29 0 50 -7z" />
    <glyph glyph-name="s" unicode="s" horiz-adv-x="453" 
d="M341 518q38 -14 71 -43l-26 -28q-30 23 -61 34.5t-70 11.5q-59 0 -94.5 -25.5t-35.5 -70.5q0 -35 25.5 -58t91.5 -43q79 -25 112.5 -59t33.5 -90q0 -69 -51.5 -113.5t-146.5 -44.5q-59 0 -102.5 18.5t-78.5 50.5l27 28q34 -28 70.5 -42t83.5 -14q69 0 109.5 30t40.5 84
q0 43 -25.5 68t-96.5 47q-78 24 -109 56t-31 81q0 38 22 69t62.5 49t93.5 18q47 0 85 -14z" />
    <glyph glyph-name="t" unicode="t" horiz-adv-x="333" 
d="M134 125q-2 -20 -2 -27q0 -68 67 -68q38 0 88 25l17 -34q-53 -32 -110 -32q-50 0 -79 27.5t-29 78.5q0 19 2 29l51 359h-88l6 39h88l27 128l36 4l-18 -132h137l-11 -39h-132z" />
    <glyph glyph-name="u" unicode="u" horiz-adv-x="575" 
d="M118 22.5q-32 33.5 -32 93.5q0 23 2 35l52 371h46l-52 -370q-2 -12 -2 -33q0 -90 83 -90q59 0 109 49t89 131l44 313h46l-74 -522h-37l16 146q-35 -72 -86 -114.5t-114 -42.5q-58 0 -90 33.5z" />
    <glyph glyph-name="v" unicode="v" horiz-adv-x="461" 
d="M226 0h-58l-114 522h50l98 -481l227 481h52z" />
    <glyph glyph-name="w" unicode="w" horiz-adv-x="690" 
d="M496 0h-61l-57 478l-192 -478h-62l-59 522h45l52 -484l195 484h55l58 -485l184 485h46z" />
    <glyph glyph-name="x" unicode="x" horiz-adv-x="448" 
d="M254 276l145 -276h-52l-124 249l-193 -249h-55l224 281l-125 241h50l106 -214l165 214h54z" />
    <glyph glyph-name="y" unicode="y" horiz-adv-x="458" 
d="M226 -4q-42 -89 -91.5 -133t-139.5 -64l-3 37q54 14 86 33.5t53.5 48.5t49.5 82h-18l-109 522h49l96 -487l229 487h50z" />
    <glyph glyph-name="z" unicode="z" horiz-adv-x="405" 
d="M408 485l-357 -444h290l-10 -41h-345l6 37l357 444h-270l6 41h328z" />
    <glyph glyph-name="braceleft" unicode="{" horiz-adv-x="326" 
d="M331 790q-45 0 -68 -20.5t-30 -63.5l-36 -258q-6 -49 -26 -69.5t-62 -30.5q32 -7 47 -23t15 -49q0 -18 -2 -28l-37 -258q-1 -8 -1 -21q0 -32 17 -46.5t56 -14.5l-2 -35q-55 0 -84.5 23.5t-29.5 71.5q0 6 2 24l38 266q1 6 1 16q0 30 -17.5 42.5t-52.5 12.5l5 40
q79 0 90 75l37 266q9 61 42.5 88.5t99.5 27.5z" />
    <glyph glyph-name="bar" unicode="|" horiz-adv-x="407" 
d="M175 -100h-44l126 903h44z" />
    <glyph glyph-name="braceright" unicode="}" horiz-adv-x="325" 
d="M19 -92q46 0 68.5 20.5t29.5 64.5l36 258q6 49 26.5 69t62.5 30q-32 7 -47.5 23t-15.5 50q0 17 2 28l37 258q2 16 2 23q0 30 -17.5 44t-56.5 14l2 36q54 0 84 -24t30 -72q0 -7 -2 -23l-38 -266q-1 -6 -1 -17q0 -30 17.5 -42t53.5 -12l-5 -41q-80 0 -91 -74l-37 -266
q-9 -61 -43.5 -88.5t-98.5 -27.5z" />
    <glyph glyph-name="asciitilde" unicode="~" horiz-adv-x="464" 
d="M273.5 276q-18.5 8 -42.5 23q-20 13 -34.5 19.5t-28.5 6.5q-24 0 -40.5 -11t-37.5 -34l-28 19q26 33 50 50t58 17q22 0 39.5 -8t42.5 -23q20 -13 34 -19t29 -6q23 0 39 11t36 33l28 -19q-25 -33 -49 -50t-56 -17q-21 0 -39.5 8z" />
    <glyph glyph-name="uni00A0" unicode="&#xa0;" horiz-adv-x="283" 
 />
    <glyph glyph-name="exclamdown" unicode="&#xa1;" horiz-adv-x="239" 
d="M117 398.5q-10 10.5 -10 25.5q0 19 12.5 31.5t30.5 12.5q17 0 27 -10.5t10 -26.5q0 -19 -12 -31t-31 -12q-17 0 -27 10.5zM83 -195h-48l65 445h43z" />
    <glyph glyph-name="cent" unicode="&#xa2;" horiz-adv-x="465" 
d="M199 446.5q-47 -46.5 -68 -115t-21 -134.5q0 -83 37 -124.5t103 -41.5t131 45l21 -33q-67 -53 -148 -54l-20 -138h-40l19 141q-71 11 -111 64.5t-40 142.5q0 70 24 143t75 126t129 62l21 149h40l-21 -147q77 -3 127 -52l-27 -29q-23 21 -49.5 31.5t-61.5 10.5
q-73 0 -120 -46.5z" />
    <glyph glyph-name="sterling" unicode="&#xa3;" horiz-adv-x="504" 
d="M443.5 656.5q35.5 -18.5 62.5 -55.5l-32 -23q-23 30 -49 43.5t-65 13.5q-60 0 -97 -37t-46 -98l-18 -129h216l-6 -36h-215l-24 -177q-7 -48 -25.5 -73t-58.5 -44h329l-12 -41h-386l5 40q51 22 73 47t29 73l24 175h-65l5 36h66l18 132q11 76 59.5 124t127.5 48
q49 0 84.5 -18.5z" />
    <glyph glyph-name="currency" unicode="&#xa4;" horiz-adv-x="560" 
d="M424 214l80 -78l-29 -30l-81 80q-47 -36 -114 -36q-66 0 -114 37l-81 -81l-29 30l81 80q-41 52 -41 125t41 123l-81 80l29 30l81 -81q48 38 114 38q68 0 115 -36l80 79l29 -30l-79 -78q41 -52 41 -125q0 -74 -42 -127zM177 231q36 -41 104 -41t104 41t36 110t-36 110
t-104 41t-104 -41t-36 -110t36 -110z" />
    <glyph glyph-name="yen" unicode="&#xa5;" horiz-adv-x="502" 
d="M303 336h117l-5 -37h-133l-16 -107h134l-5 -38h-134l-22 -154h-48l22 154h-134l5 38h134l16 107h-135l6 37h117l-150 328h53l139 -320l227 320h51z" />
    <glyph glyph-name="brokenbar" unicode="&#xa6;" horiz-adv-x="407" 
d="M251 443h-44l50 360h44zM175 -100h-44l50 362h44z" />
    <glyph glyph-name="section" unicode="&#xa7;" horiz-adv-x="531" 
d="M229.5 608.5q-30.5 -27.5 -30.5 -68.5q0 -36 24 -58.5t92 -46.5q71 -26 102 -57t31 -78q0 -44 -23 -76t-77 -63q45 -33 45 -89q0 -37 -19.5 -68.5t-60.5 -51t-103 -19.5q-88 0 -157 46l23 33q56 -40 135 -40q72 0 103.5 28.5t31.5 70.5q0 34 -24 56t-87 45
q-77 29 -108.5 58.5t-31.5 76.5q0 44 24.5 77.5t78.5 63.5q-24 18 -34.5 39.5t-10.5 50.5q0 59 46.5 97.5t126.5 38.5q47 0 83 -12.5t70 -35.5l-23 -30q-31 20 -61.5 30t-68.5 10q-66 0 -96.5 -27.5zM379.5 354q-22.5 24 -81.5 45q-35 12 -71 31q-47 -29 -66.5 -56.5
t-19.5 -63.5q0 -34 23.5 -56.5t86.5 -45.5q38 -13 68 -29q48 30 65.5 57t17.5 61q0 33 -22.5 57z" />
    <glyph glyph-name="dieresis" unicode="&#xa8;" horiz-adv-x="309" 
d="M100.5 674q-8.5 8 -8.5 21q0 16 10.5 26.5t26.5 10.5q14 0 22.5 -8t8.5 -21q0 -16 -11 -26.5t-27 -10.5q-13 0 -21.5 8zM281.5 674q-8.5 8 -8.5 21q0 16 10.5 26.5t26.5 10.5q14 0 22.5 -8t8.5 -21q0 -16 -10.5 -26.5t-26.5 -10.5q-14 0 -22.5 8z" />
    <glyph glyph-name="copyright" unicode="&#xa9;" horiz-adv-x="810" 
d="M578.5 694q66.5 -38 104.5 -105.5t38 -153.5q0 -85 -38 -153t-104.5 -106t-148.5 -38t-148.5 38t-104.5 105.5t-38 153.5q0 85 38 153t104.5 106t148.5 38t148.5 -38zM300.5 664q-57.5 -33 -90 -93t-32.5 -136q0 -77 32.5 -136.5t90 -92.5t130.5 -33q71 0 128.5 33t90 93
t32.5 136q0 77 -32.5 136.5t-89.5 92.5t-129 33q-73 0 -130.5 -33zM483.5 604q22.5 -8 44.5 -24l-21 -28q-17 13 -34 18.5t-41 5.5q-40 0 -70.5 -33.5t-30.5 -106.5q0 -69 28 -105t74 -36q26 0 45 7.5t38 21.5l19 -29q-44 -37 -103 -37q-64 0 -104 48t-40 130
q0 58 20.5 97.5t53.5 59t69 19.5q30 0 52.5 -8z" />
    <glyph glyph-name="ordfeminine" unicode="&#xaa;" horiz-adv-x="505" 
d="M130.5 305q-30.5 30 -30.5 78q0 60 47.5 98.5t140.5 38.5h84l5 37q2 16 2 23q0 35 -20 50t-61 15q-55 0 -118 -23l-11 36q75 26 135 26q59 0 89.5 -25t30.5 -75q0 -7 -2 -25l-25 -188q-1 -5 -2 -11.5t-1 -13.5q0 -30 26 -40l-13 -31q-26 6 -39 20t-15 45
q-28 -34 -62 -49.5t-76 -15.5q-54 0 -84.5 30zM295 332q34 19 58 53l14 100h-79q-72 0 -106.5 -27t-34.5 -74q0 -34 19.5 -52.5t54.5 -18.5q40 0 74 19zM49 42h346l-5 -42h-347z" />
    <glyph glyph-name="guillemotleft" unicode="&#xab;" horiz-adv-x="547" 
d="M298 495l-167 -207l109 -207l-31 -19l-130 210l3 31l187 211zM503 495l-167 -207l109 -207l-31 -19l-130 210l3 31l187 211z" />
    <glyph glyph-name="logicalnot" unicode="&#xac;" horiz-adv-x="498" 
d="M415 178h-47l17 121h-308l5 41h355z" />
    <glyph glyph-name="uni00AD" unicode="&#xad;" horiz-adv-x="398" 
d="M80 334h258l-6 -42h-258z" />
    <glyph glyph-name="registered" unicode="&#xae;" horiz-adv-x="639" 
d="M472 701.5q54 -30.5 85.5 -84t31.5 -118.5q0 -64 -31.5 -118t-85.5 -86t-119 -32t-119 30.5t-85 84t-31 118.5q0 64 31 118t85 86t119 32t119 -30.5zM454 322q46 27 72.5 73.5t26.5 103.5t-26 103t-72 72t-102 26q-55 0 -100.5 -27t-72.5 -74t-27 -103q0 -57 26.5 -103
t72.5 -72t101 -26t101 27zM386 484l74 -118h-44l-66 113h-40v-113h-37v270h66q56 0 83 -19.5t27 -60.5q0 -55 -63 -72zM310 510h42q60 0 60 46q0 27 -16.5 38t-50.5 11h-35v-95z" />
    <glyph glyph-name="macron" unicode="&#xaf;" horiz-adv-x="289" 
d="M88 679l7 39h228l-6 -39h-229z" />
    <glyph glyph-name="degree" unicode="&#xb0;" horiz-adv-x="518" 
d="M147.5 433q-35.5 33 -35.5 93q0 48 22.5 86.5t59.5 60t79 21.5q57 0 92.5 -33t35.5 -92q0 -49 -23 -87.5t-60 -60t-79 -21.5q-56 0 -91.5 33zM324 473.5q34 36.5 34 95.5q0 42 -22.5 65t-62.5 23q-51 0 -85 -36t-34 -96q0 -42 23 -65t63 -23q50 0 84 36.5z" />
    <glyph glyph-name="plusminus" unicode="&#xb1;" horiz-adv-x="490" 
d="M41 42h347l-6 -42h-347zM281 357h151l-6 -41h-151l-21 -153h-45l21 153h-151l6 41h151l22 153h45z" />
    <glyph glyph-name="uni00B2" unicode="&#xb2;" horiz-adv-x="398" 
d="M341 713q29 -28 29 -73q0 -42 -24 -81.5t-62 -75.5t-109 -95q-32 -26 -34 -28h202l-12 -37h-245l5 36l39 33q72 62 110.5 99t62.5 74.5t24 74.5q0 31 -18.5 48t-50.5 17q-30 0 -54.5 -12.5t-48.5 -35.5l-27 25q32 31 64 45t69 14q51 0 80 -28z" />
    <glyph glyph-name="uni00B3" unicode="&#xb3;" horiz-adv-x="398" 
d="M345 717.5q29 -25.5 29 -66.5q0 -43 -27.5 -72t-72.5 -37q36 -2 59.5 -24.5t23.5 -60.5q0 -62 -44 -102t-112 -40q-74 0 -120 57l29 20q19 -22 41 -31.5t50 -9.5q52 0 83 30t31 77q0 65 -84 65h-30l11 34h18q43 0 72.5 26.5t29.5 66.5q0 28 -19 43t-51 15q-28 0 -52 -9
t-52 -29l-21 27q31 23 61.5 34.5t66.5 11.5q51 0 80 -25.5z" />
    <glyph glyph-name="acute" unicode="&#xb4;" horiz-adv-x="265" 
d="M301 732l-201 -84l-13 27l197 101z" />
    <glyph glyph-name="uni00B5" unicode="&#xb5;" horiz-adv-x="581" 
d="M445 87q0 -41 9 -88l-41 -6q-8 32 -10 55.5t-1 57.5q-39 -54 -82.5 -85.5t-99.5 -31.5q-76 0 -102 58q0 -50 -11 -123l-17 -119l-46 -5l102 722h46l-53 -376q-2 -10 -2 -29q0 -46 24 -66.5t64 -20.5q98 0 179 127l51 365h46l-49 -348q-7 -46 -7 -87z" />
    <glyph glyph-name="paragraph" unicode="&#xb6;" horiz-adv-x="698" 
d="M603 684l-124 -879l-44 -8l119 847h-135l-117 -839l-45 -8l71 501q-101 4 -147.5 47.5t-46.5 115.5q0 105 69 164t186 59h214z" />
    <glyph glyph-name="periodcentered" unicode="&#xb7;" horiz-adv-x="195" 
d="M76.5 292q-10.5 11 -10.5 26q0 19 12.5 31t30.5 12q17 0 27 -10.5t10 -26.5q0 -18 -12 -30.5t-31 -12.5q-16 0 -26.5 11z" />
    <glyph glyph-name="cedilla" unicode="&#xb8;" horiz-adv-x="236" 
d="M65 -67q84 -6 84 -70q0 -39 -30.5 -62.5t-77.5 -23.5q-45 0 -76 22l19 29q24 -15 57 -15q29 0 47 12.5t18 36.5q0 23 -18 33t-64 10l23 111h33z" />
    <glyph glyph-name="uni00B9" unicode="&#xb9;" horiz-adv-x="398" 
d="M260 323h-42l52 366l-112 -61l-16 30l141 78h35z" />
    <glyph glyph-name="ordmasculine" unicode="&#xba;" horiz-adv-x="498" 
d="M419 642.5q40 -41.5 40 -119.5q0 -69 -24.5 -125.5t-71.5 -89.5t-110 -33q-73 0 -112.5 42.5t-39.5 119.5q0 68 25 124.5t71.5 89.5t108.5 33q73 0 113 -41.5zM188.5 584.5q-40.5 -60.5 -40.5 -149.5q0 -59 27.5 -90.5t78.5 -31.5q77 0 117.5 62t40.5 151q0 59 -27 89
t-79 30q-77 0 -117.5 -60.5zM45 42h347l-6 -42h-347z" />
    <glyph glyph-name="guillemotright" unicode="&#xbb;" horiz-adv-x="547" 
d="M270 303l-3 -31l-188 -210l-28 19l167 207l-109 207l31 19zM475 303l-3 -31l-188 -210l-28 19l167 207l-109 207l31 19z" />
    <glyph glyph-name="onequarter" unicode="&#xbc;" horiz-adv-x="904" 
d="M253 271h-42l52 366l-112 -61l-16 30l141 78h35zM738 730l-519 -798l-32 16l519 798zM825 106h-56l-15 -106h-42l16 106h-189l4 31l170 283l34 -14l-159 -265h145l21 119h37l-17 -119h56z" />
    <glyph glyph-name="onehalf" unicode="&#xbd;" horiz-adv-x="904" 
d="M253 271h-42l52 366l-112 -61l-16 30l141 78h35zM738 730l-519 -798l-32 16l519 798zM801 390q29 -28 29 -73q0 -42 -24 -81.5t-62 -75.5t-109 -95q-32 -26 -34 -28h202l-12 -37h-245l5 36l39 33q72 62 110.5 99t62.5 74.5t24 74.5q0 31 -18.5 48t-50.5 17
q-30 0 -54.5 -12.5t-48.5 -35.5l-27 25q32 31 64 45t69 14q51 0 80 -28z" />
    <glyph glyph-name="threequarters" unicode="&#xbe;" horiz-adv-x="904" 
d="M338 665.5q29 -25.5 29 -66.5q0 -43 -27.5 -72t-72.5 -37q36 -2 59.5 -24.5t23.5 -60.5q0 -62 -44 -102t-112 -40q-74 0 -120 57l29 20q19 -22 41 -31.5t50 -9.5q52 0 83 30t31 77q0 65 -84 65h-30l11 34h18q43 0 72.5 26.5t29.5 66.5q0 28 -19 43t-51 15q-28 0 -52 -9
t-52 -29l-21 27q31 23 61.5 34.5t66.5 11.5q51 0 80 -25.5zM738 730l-519 -798l-32 16l519 798zM825 106h-56l-15 -106h-42l16 106h-189l4 31l170 283l34 -14l-159 -265h145l21 119h37l-17 -119h56z" />
    </font>
</defs>
</svg>
