<?xml version="1.0" standalone="no"?>
<!DOCTYPE svg PUBLIC "-//W3C//DTD SVG 1.1//EN" "http://www.w3.org/Graphics/SVG/1.1/DTD/svg11.dtd" >
<svg xmlns="http://www.w3.org/2000/svg" xmlns:xlink="http://www.w3.org/1999/xlink" version="1.1">
<metadata>
Created by FontForge 20170731 at Tue Mar 20 17:50:31 2018
 By Aleksey,,,
Digitized data copyright 2012-2018 for FiraGO, bBox Type GmbH and HERE Europe B.V. All rights reserved, with Reserved Font Name "Fira" / Digitized data copyright 2012-2018 for Fira Sans The Mozilla Foundation, Telefonica S.A., Carrois Corporate GbR and bBox Type GmbH, with Reserved Font Name "Fira"
</metadata>
<defs>
<font id="FiraGO-SemiBoldItalic" horiz-adv-x="0" >
  <font-face 
    font-family="FiraGO SemiBold"
    font-weight="600"
    font-style="italic"
    font-stretch="normal"
    units-per-em="1000"
    panose-1="2 11 7 3 5 0 0 2 0 4"
    ascent="800"
    descent="-200"
    x-height="530"
    cap-height="692"
    bbox="-782 -694 2603 1461"
    underline-thickness="50"
    underline-position="-150"
    slope="-8"
    unicode-range="U+000D-FEFF"
  />
<missing-glyph horiz-adv-x="657" 
d="M449 -350h-414l197 1400h414zM280 998l-183 -1296h306l183 1296h-306zM417.5 425.5q23.5 -25.5 23.5 -66.5q0 -9 -2 -27q-7 -52 -32.5 -79.5t-75.5 -34.5l-8 -47q-1 -11 -8.5 -16.5t-16.5 -5.5q-11 0 -18 7.5t-6 18.5l10 82q53 3 75 21t28 60q2 14 2 20q0 22 -11 33.5
t-39 11.5q-29 0 -54 -13l-12 -1q-12 0 -18.5 8t-4.5 19q2 17 31 26t62 9q51 0 74.5 -25.5zM313.5 109q9.5 -11 7.5 -28q-2 -14 -12.5 -23.5t-24.5 -9.5q-16 0 -25 12t-6 29q1 13 11 22t24 9q16 0 25.5 -11z" />
    <glyph glyph-name="fi" unicode="fi" horiz-adv-x="583" 
d="M479 0h-141l60 429h-150l-53 -378q-11 -80 -42 -131.5t-77 -82.5t-116 -57l-36 104q61 24 91 58t40 105l53 382h-82l14 101h82l8 55q10 77 68.5 124.5t153.5 47.5q49 0 89.5 -11t79.5 -33l-50 -91q-55 28 -107 28q-45 0 -67.5 -17.5t-27.5 -55.5l-7 -47h291z" />
    <glyph glyph-name="fl" unicode="fl" horiz-adv-x="606" 
d="M553 103l18 -100q-44 -19 -93 -19q-57 0 -87.5 29.5t-30.5 86.5q0 16 3 34l72 509q-36 11 -78 11t-62.5 -19t-25.5 -58l-7 -47h106l-30 -101h-90l-53 -378q-11 -80 -42 -131.5t-77 -82.5t-116 -57l-36 104q61 24 91 58t40 105l53 382h-82l14 101h82l8 55q10 77 66 124.5
t148 47.5q66 0 123 -20l122 13l-86 -615q-1 -5 -1 -13q0 -13 5.5 -18.5t17.5 -5.5q11 0 28 5z" />
    <glyph glyph-name="uniFDF2" unicode="&#x627;&#xfedf;&#xfee0;&#xfeea;" horiz-adv-x="1139" arabic-form="isolated" 
d="M541 765l-7 173l70 8l7 -181h-70zM1081 5l-112 -10l-30 767l132 15zM472.5 618q-21.5 19 -21.5 55q0 34 16 69l53 -13q-6 -22 -6 -39q0 -25 19 -25q21 0 21 29v29h54v-31q0 -11 5 -17.5t14 -6.5q21 0 21 29q0 23 -11 50l55 18q9 -20 14.5 -44t5.5 -42q0 -36 -20 -57
t-56 -21q-38 0 -55 27q-20 -29 -59 -29q-28 0 -49.5 19zM847 669l10 -549q-16 -57 -56 -88.5t-103 -31.5q-40 0 -72 17.5t-52 48.5q-17 -30 -47.5 -48t-69.5 -18q-42 0 -75.5 17.5t-54.5 50.5q-60 -42 -149 -42q-40 0 -76 16.5t-58 47t-22 70.5q0 84 72 148.5t186 94.5
l-4 67l117 15l10 -267q2 -50 14.5 -69t45.5 -19q20 0 34.5 9t22.5 23l-20 395l119 15l10 -359q1 -46 15 -64.5t47 -18.5q21 0 34.5 9t19.5 22l-17 493zM249.5 147.5q21.5 4.5 44.5 14.5l-7 127q-71 -15 -115 -47.5t-51 -70.5q9 -13 31 -20.5t49 -7.5t48.5 4.5z" />
    <glyph glyph-name="uniFEF5" unicode="&#xfedf;&#xfe82;" horiz-adv-x="636" arabic-form="isolated" 
d="M553 238.5q26 -66.5 30 -146.5q-37 -46 -111.5 -69t-207.5 -23h-179l11 125q107 82 162.5 128.5t90.5 90.5q-60 62 -123 107l-181 131l134 54l146 -120q52 -43 80 -71q16 49 16 114q0 41 -6 90l-15 113l122 14l8 -137q1 -14 1 -42q0 -129 -54 -229q50 -63 76 -129.5z
M477 161q-7 38 -65 113q-53 -62 -145 -134h33q146 0 177 21zM3 720q12 43 39.5 67.5t60.5 24.5q16 0 26 -3t22 -9q20 -10 35 -10q11 0 20 3t26 12l29 -50q-40 -40 -84 -40q-15 0 -27 5t-14 6q-20 9 -32 9q-14 0 -24 -8t-19 -25z" />
    <glyph glyph-name="uniFEF6" unicode="&#xfee0;&#xfe82;" horiz-adv-x="657" arabic-form="final" 
d="M677 61l-20 -61q-43 0 -80 22t-58 66q-46 -50 -118.5 -69t-196.5 -19h-122l-26 144h155q97 0 152 9l-298 433l146 21l29 -49q68 -112 127 -221t81 -164q17 8 26.5 15.5t11.5 8.5l-31 565l126 15l10 -529q1 -60 16 -82.5t61 -22.5zM6 679q12 43 39.5 67.5t60.5 24.5
q16 0 26 -3t22 -9q20 -10 35 -10q11 0 20 3t26 12l29 -50q-40 -40 -84 -40q-15 0 -27 5t-14 6q-20 9 -32 9q-14 0 -24 -8t-19 -25z" />
    <glyph glyph-name="uniFEF7" unicode="&#xfedf;&#xfe84;" horiz-adv-x="636" arabic-form="isolated" 
d="M553 238.5q26 -66.5 30 -146.5q-37 -46 -111.5 -69t-207.5 -23h-179l11 125q107 82 162.5 128.5t90.5 90.5q-60 62 -123 107l-181 131l134 54l146 -120q52 -43 80 -71q16 49 16 114q0 41 -6 90l-15 113l122 14l8 -137q1 -14 1 -42q0 -129 -54 -229q50 -63 76 -129.5z
M477 161q-7 38 -65 113q-53 -62 -145 -134h33q146 0 177 21zM239 730l-217 -35l-3 60l61 10q-38 31 -38 66q0 37 25.5 61.5t74.5 24.5q39 0 73 -18l-23 -68q-15 9 -25.5 12.5t-21.5 3.5q-16 0 -23 -8t-7 -19q0 -19 29 -45l92 15z" />
    <glyph glyph-name="uniFEF8" unicode="&#xfee0;&#xfe84;" horiz-adv-x="657" arabic-form="final" 
d="M677 61l-20 -61q-43 0 -80 22t-58 66q-46 -50 -118.5 -69t-196.5 -19h-122l-26 144h155q97 0 152 9l-298 433l146 21l29 -49q68 -112 127 -221t81 -164q17 8 26.5 15.5t11.5 8.5l-31 565l126 15l10 -529q1 -60 16 -82.5t61 -22.5zM242 689l-217 -35l-3 60l61 10
q-38 31 -38 66q0 37 25.5 61.5t74.5 24.5q39 0 73 -18l-23 -68q-15 9 -25.5 12.5t-21.5 3.5q-16 0 -23 -8t-7 -19q0 -19 29 -45l92 15z" />
    <glyph glyph-name="uniFEF9" unicode="&#xfedf;&#xfe88;" horiz-adv-x="636" arabic-form="isolated" 
d="M553 238.5q26 -66.5 30 -146.5q-37 -46 -111.5 -69t-207.5 -23h-179l11 125q107 82 162.5 128.5t90.5 90.5q-60 62 -123 107l-181 131l134 54l146 -120q52 -43 80 -71q16 49 16 114q0 41 -6 90l-15 113l122 14l8 -137q1 -14 1 -42q0 -129 -54 -229q50 -63 76 -129.5z
M477 161q-7 38 -65 113q-53 -62 -145 -134h33q146 0 177 21zM302 -228l-217 -35l-3 60l61 10q-38 31 -38 66q0 37 25.5 61.5t74.5 24.5q39 0 73 -18l-23 -68q-15 9 -25.5 12.5t-21.5 3.5q-16 0 -23 -8t-7 -19q0 -19 29 -45l92 15z" />
    <glyph glyph-name="uniFEFA" unicode="&#xfee0;&#xfe88;" horiz-adv-x="657" arabic-form="final" 
d="M677 61l-20 -61q-43 0 -80 22t-58 66q-46 -50 -118.5 -69t-196.5 -19h-122l-26 144h155q97 0 152 9l-298 433l146 21l29 -49q68 -112 127 -221t81 -164q17 8 26.5 15.5t11.5 8.5l-31 565l126 15l10 -529q1 -60 16 -82.5t61 -22.5zM305 -228l-217 -35l-3 60l61 10
q-38 31 -38 66q0 37 25.5 61.5t74.5 24.5q39 0 73 -18l-23 -68q-15 9 -25.5 12.5t-21.5 3.5q-16 0 -23 -8t-7 -19q0 -19 29 -45l92 15z" />
    <glyph glyph-name="uniFEFB" unicode="&#xfedf;&#xfe8e;" horiz-adv-x="636" arabic-form="isolated" 
d="M553 238.5q26 -66.5 30 -146.5q-37 -46 -111.5 -69t-207.5 -23h-179l11 125q107 82 162.5 128.5t90.5 90.5q-60 62 -123 107l-181 131l134 54l146 -120q52 -43 80 -71q16 49 16 114q0 41 -6 90l-15 113l122 14l8 -137q1 -14 1 -42q0 -129 -54 -229q50 -63 76 -129.5z
M477 161q-7 38 -65 113q-53 -62 -145 -134h33q146 0 177 21z" />
    <glyph glyph-name="uniFEFC" unicode="&#xfee0;&#xfe8e;" horiz-adv-x="657" arabic-form="final" 
d="M677 61l-20 -61q-43 0 -80 22t-58 66q-46 -50 -118.5 -69t-196.5 -19h-122l-26 144h155q97 0 152 9l-298 433l146 21l29 -49q68 -112 127 -221t81 -164q17 8 26.5 15.5t11.5 8.5l-31 565l126 15l10 -529q1 -60 16 -82.5t61 -22.5z" />
    <glyph glyph-name="f_f" unicode="ff" horiz-adv-x="635" 
d="M585.5 632.5q-19.5 -17.5 -24.5 -55.5l-7 -47h125l-29 -101h-110l-53 -378q-14 -102 -60 -158t-129 -94l-40 103q40 23 60.5 55.5t28.5 88.5l53 383h-152l-53 -378q-11 -80 -42 -131.5t-77 -82.5t-116 -57l-36 104q61 24 91 58t40 105l54 382h-83l14 101h83l6 45
q11 78 68.5 124t151.5 46q81 0 145 -30q54 42 137 42q77 0 142 -43l-49 -86q-35 22 -82 22q-37 0 -56.5 -17.5zM422 585q3 20 11 44q-39 11 -79 11q-39 0 -60 -17t-26 -52l-6 -41h152z" />
    <glyph glyph-name="f_f_i" unicode="ffi" horiz-adv-x="875" 
d="M771 0h-140l60 429h-151l-53 -378q-14 -102 -60 -158t-129 -94l-40 103q40 23 60.5 55.5t28.5 88.5l53 383h-152l-53 -378q-11 -80 -42 -131.5t-77 -82.5t-116 -57l-36 104q61 24 91 58t40 105l54 382h-83l14 101h83l6 45q11 78 68.5 124t151.5 46q80 0 148 -31
q59 43 148 43q48 0 88.5 -11t79.5 -33l-50 -91q-53 28 -107 28q-45 0 -67.5 -17.5t-27.5 -55.5l-7 -47h291zM422 585q3 21 11 44q-39 11 -77 11q-40 0 -61.5 -17t-26.5 -52l-6 -41h152z" />
    <glyph glyph-name="f_f_j" unicode="ffj" horiz-adv-x="877" 
d="M780 51q-15 -102 -61 -158t-129 -94l-39 103q39 24 60 56t28 88l54 383h-153l-53 -378q-14 -102 -60 -158t-129 -94l-40 103q40 23 60.5 55.5t28.5 88.5l53 383h-152l-53 -378q-11 -80 -42 -131.5t-77 -82.5t-116 -57l-36 104q61 24 91 58t40 105l54 382h-83l14 101h83
l6 45q11 78 68.5 124t151.5 46q80 0 148 -31q59 43 148 43q48 0 88.5 -11t79.5 -33l-50 -91q-53 28 -107 28q-45 0 -67.5 -17.5t-27.5 -55.5l-7 -47h293zM422 585q3 21 11 44q-39 11 -79 11q-39 0 -60 -17t-26 -52l-6 -41h152z" />
    <glyph glyph-name="f_f_l" unicode="ffl" horiz-adv-x="898" 
d="M845 103l19 -100q-46 -19 -94 -19q-57 0 -87.5 29.5t-30.5 86.5q0 16 3 34l72 509q-36 11 -78 11q-41 0 -62 -19t-26 -58l-7 -47h106l-29 -101h-91l-53 -378q-14 -102 -60 -158t-129 -94l-40 103q40 23 60.5 55.5t28.5 88.5l53 383h-152l-53 -378q-11 -80 -42 -131.5
t-77 -82.5t-116 -57l-36 104q61 24 91 58t40 105l54 382h-83l14 101h83l6 45q11 78 69 125t151 47q80 0 148 -31q55 41 139 41q66 0 123 -20l122 13l-86 -615l-1 -11q0 -26 23 -26q13 0 28 5zM422 585q3 21 11 44q-39 11 -77 11q-40 0 -61.5 -17t-26.5 -52l-6 -41h152z" />
    <glyph glyph-name="f_j" unicode="fj" horiz-adv-x="584" 
d="M487 51q-14 -102 -60 -158t-129 -94l-40 103q40 23 60.5 55.5t28.5 88.5l54 383h-153l-53 -378q-11 -80 -42 -131.5t-77 -82.5t-116 -57l-36 104q61 24 91 58t40 105l53 382h-82l14 101h82l8 55q10 77 68.5 124.5t153.5 47.5q49 0 89.5 -11t79.5 -33l-50 -91
q-55 28 -107 28q-45 0 -67.5 -17.5t-27.5 -55.5l-7 -47h293z" />
    <glyph glyph-name="uni0E240E45" unicode="&#xe24;&#xe45;" horiz-adv-x="945" 
d="M840.5 551q47.5 -39 47.5 -118q0 -20 -3 -43l-55 -392l-29 -208l-138 16l27 192l54 392q2 20 2 27q0 37 -19 52t-60 15q-53 0 -113 -16q10 -29 10 -68q0 -20 -3 -43l-33 -232l-17 -125l-30 -208l-137 15l26 193l51 362q3 20 3 35q0 43 -22 62t-73 19q-89 0 -151 -52
q61 -14 132 -41l-14 -83q-57 -4 -79.5 -29t-29.5 -70l-10 -69q-1 -5 -1 -13q0 -15 6.5 -22t20.5 -7q20 0 35 6l14 -95q-46 -19 -90 -19q-57 0 -87.5 28t-30.5 82q0 19 2 30l12 80q7 57 39.5 93t100.5 47q-67 22 -139 28l11 81q115 127 282 127q96 0 150 -40q100 50 192 50
q99 0 146.5 -39z" />
    <glyph glyph-name="uni0E260E45" unicode="&#xe26;&#xe45;" horiz-adv-x="946" 
d="M841 551q47 -39 47 -118q0 -20 -3 -43h1l-55 -392l-29 -208l-138 16l27 192l54 392q2 18 2 25q0 38 -19.5 53.5t-60.5 15.5q-52 0 -112 -15q10 -30 10 -69q0 -20 -3 -43l-33 -232l-18 -125l-29 -208l-138 15l27 193l51 362q3 21 3 37q0 42 -21.5 60.5t-69.5 18.5
q-88 0 -148 -52q72 -16 132 -41l-13 -83q-32 -4 -49 -16t-24.5 -32.5t-13.5 -58.5l-10 -73q-9 -61 -44.5 -96t-113.5 -35q-17 0 -41 3l9 97h7q25 0 35.5 12t15.5 46l11 71q7 52 34 82.5t87 41.5q-67 22 -140 28l10 81q45 48 109.5 87.5t169.5 39.5q93 0 146 -39
q99 49 192 49q99 0 146 -39z" />
    <glyph glyph-name="uni06440671" unicode="&#xfedf;&#xfb51;" horiz-adv-x="636" 
d="M553 238.5q26 -66.5 30 -146.5q-37 -46 -111.5 -69t-207.5 -23h-179l11 125q107 82 162.5 128.5t90.5 90.5q-60 62 -123 107l-181 131l134 54l146 -120q52 -43 80 -71q16 49 16 114q0 41 -6 90l-15 113l122 14l8 -137q1 -14 1 -42q0 -129 -54 -229q50 -63 76 -129.5z
M477 161q-7 38 -65 113q-53 -62 -145 -134h33q146 0 177 21zM244.5 852.5q23.5 -19.5 23.5 -55.5q0 -91 -120 -91q-29 0 -66 11l-17 -31l-55 18l29 83q28 -8 31 -9q22 49 55 71.5t66 22.5q30 0 53.5 -19.5zM207 791q0 19 -23 19q-17 0 -34 -12.5t-30 -29.5q20 -3 38 -3
q49 0 49 26z" />
    <glyph glyph-name="uni06440671.fina" unicode="&#xfee0;&#xfb51;" horiz-adv-x="657" 
d="M677 61l-20 -61q-43 0 -80 22t-58 66q-46 -50 -118.5 -69t-196.5 -19h-122l-26 144h155q97 0 152 9l-298 433l146 21l29 -49q68 -112 127 -221t81 -164q17 8 26.5 15.5t11.5 8.5l-31 565l126 15l10 -529q1 -60 16 -82.5t61 -22.5zM247.5 811.5q23.5 -19.5 23.5 -55.5
q0 -91 -120 -91q-29 0 -66 11l-17 -31l-55 18l29 83q28 -8 31 -9q22 49 55 71.5t66 22.5q30 0 53.5 -19.5zM210 750q0 19 -23 19q-17 0 -34 -12.5t-30 -29.5q20 -3 38 -3q49 0 49 26z" />
    <glyph glyph-name="uni0E1B0E31" unicode="&#xe1b;&#xe31;" horiz-adv-x="626" 
d="M602 642l-11 -75l-49 -350q-15 -110 -85 -171.5t-188 -61.5q-103 0 -158 50t-55 140q0 23 3 47l29 196q4 35 4 66q0 41 -10 74l132 13q19 -40 19 -96q0 -22 -5 -57l-28 -195q-3 -22 -3 -42q0 -91 81 -91q106 0 125 137l47 341l10 69q-81 1 -121 24.5t-40 76.5
q0 20 5.5 43t12.5 40h95q-10 -38 -10 -56q0 -21 15.5 -29.5t54.5 -9.5l10 71l139 -16l-7 -47q53 5 106 15l2 -89q-51 -10 -120 -17z" />
    <glyph glyph-name="uni0E1B0E49" unicode="&#xe1b;&#xe49;" horiz-adv-x="626" 
d="M621 780l-30 -213l-49 -350q-15 -110 -85 -171.5t-188 -61.5q-103 0 -158 50t-55 140q0 23 3 47l29 196q4 35 4 66q0 41 -10 74l132 13q19 -40 19 -96q0 -22 -5 -57l-28 -195q-3 -22 -3 -42q0 -91 81 -91q106 0 125 137l47 341l17 119q-44 -24 -103 -35.5t-140 -13.5
l-25 38q27 37 27 67q0 16 -10 22.5t-29 6.5q-16 0 -44 -6l-4 77q35 11 80 11q52 0 82.5 -20.5t30.5 -59.5q0 -29 -15 -54q58 6 97 24.5t67 52.5h1z" />
    <glyph glyph-name="uni0E1B0E4A" unicode="&#xe1b;&#xe4a;" horiz-adv-x="626" 
d="M621 780l-30 -213l-49 -350q-15 -110 -85 -171.5t-188 -61.5q-103 0 -158 50t-55 140q0 23 3 47l29 196q4 35 4 66q0 41 -10 74l132 13q19 -40 19 -96q0 -22 -5 -57l-28 -195q-3 -22 -3 -42q0 -91 81 -91q106 0 125 137l47 341l16 111q-53 -40 -134 -40q-33 0 -57 7
q16 50 16 93q0 17 -6 24.5t-19 7.5q-16 0 -29 -17t-17 -50l-5 -35l-92 -8l7 48q2 18 2 23q0 39 -28 39q-44 0 -44 -92q0 -25 1 -38h-94q-3 23 -3 46q0 167 127 167q47 0 68.5 -23.5t23.5 -57.5q12 35 40 58t74 23q45 0 70 -22t25 -58q0 -23 -13 -56q39 6 65 27.5t38 51.5z
" />
    <glyph glyph-name="uni0E1B0E4B" unicode="&#xe1b;&#xe4b;" horiz-adv-x="626" 
d="M621 780l-30 -213l-49 -350q-15 -110 -85 -171.5t-188 -61.5q-103 0 -158 50t-55 140q0 23 3 47l29 196q4 35 4 66q0 41 -10 74l132 13q19 -40 19 -96q0 -22 -5 -57l-28 -195q-3 -22 -3 -42q0 -91 81 -91q106 0 125 137l47 341l32 229zM420 705l-74 1l-7 -63h-108l11 63
l-79 -1l20 84l71 -1l6 58l109 10l-11 -68l73 1z" />
    <glyph glyph-name="uni0E1B0E4C" unicode="&#xe1b;&#xe4c;" horiz-adv-x="626" 
d="M686 671h-80l-15 -104l-49 -350q-15 -110 -85 -171.5t-188 -61.5q-103 0 -158 50t-55 140q0 23 3 47l29 196q4 35 4 66q0 41 -10 74l132 13q19 -40 19 -96q0 -22 -5 -57l-28 -195q-3 -22 -3 -42q0 -91 81 -91q106 0 125 137l47 341l15 104h-31q-29 0 -40.5 -10.5
t-11.5 -30.5t1 -33h-100q-3 29 -3 45q0 56 31.5 86t109.5 30h56l5 38l139 -16l-3 -22h80z" />
    <glyph glyph-name="uni0E1B0E4D" unicode="&#xe1b;&#xe4d;" horiz-adv-x="626" 
d="M621 780l-30 -213l-49 -350q-15 -110 -85 -171.5t-188 -61.5q-103 0 -158 50t-55 140q0 23 3 47l29 196q4 35 4 66q0 41 -10 74l132 13q19 -40 19 -96q0 -22 -5 -57l-28 -195q-3 -22 -3 -42q0 -91 81 -91q106 0 125 137l47 341l32 229zM227.5 662q-28.5 28 -28.5 71
q0 30 13.5 59t43 48t73.5 19q50 0 78.5 -28t28.5 -71q0 -49 -32.5 -87.5t-97.5 -38.5q-50 0 -78.5 28zM343 723q10 14 10 32q0 14 -8.5 22t-22.5 8q-20 0 -30 -14t-10 -33q0 -13 8.5 -21t22.5 -8q20 0 30 14z" />
    <glyph glyph-name="uni0E1D0E31" unicode="&#xe1d;&#xe31;" horiz-adv-x="764" 
d="M740 642l-11 -75l-50 -359q-31 -224 -196 -224q-121 0 -130 118q-45 -118 -152 -118q-147 0 -147 165q0 25 5 63l10 78q14 100 33 160.5t57.5 95t106.5 34.5q26 0 50.5 -5.5t39.5 -11.5l-25 -92q-18 6 -41 6q-25 0 -39.5 -17.5t-22.5 -49.5t-17 -95l-15 -106
q-5 -38 -5 -57q0 -33 11 -47t34 -14q26 0 42.5 22.5t23.5 73.5l17 119l126 15l-19 -137q-3 -21 -3 -36q0 -57 42 -57q29 0 47 25.5t27 92.5l49 358l10 69q-81 1 -121 24.5t-40 76.5q0 20 5.5 43t12.5 40h95q-10 -38 -10 -56q0 -21 15.5 -29.5t54.5 -9.5l10 71l139 -16
l-7 -47q53 5 106 15l2 -89q-51 -10 -120 -17z" />
    <glyph glyph-name="uni0E1D0E49" unicode="&#xe1d;&#xe49;" horiz-adv-x="764" 
d="M759 780l-30 -213l-50 -359q-31 -224 -196 -224q-121 0 -130 118q-45 -118 -152 -118q-147 0 -147 165q0 25 5 63l10 78q14 100 33 160.5t57.5 95t106.5 34.5q26 0 50.5 -5.5t39.5 -11.5l-25 -92q-18 6 -41 6q-25 0 -39.5 -17.5t-22.5 -49.5t-17 -95l-15 -106
q-5 -38 -5 -57q0 -33 11 -47t34 -14q26 0 42.5 22.5t23.5 73.5l17 119l126 15l-19 -137q-3 -21 -3 -36q0 -57 42 -57q29 0 47 25.5t27 92.5l49 358l17 119q-44 -24 -103 -35.5t-140 -13.5l-25 38q27 37 27 67q0 16 -10 22.5t-29 6.5q-16 0 -44 -6l-4 77q35 11 80 11
q52 0 82 -20.5t30 -59.5q0 -29 -14 -54q58 6 97 24.5t67 52.5h1z" />
    <glyph glyph-name="uni0E1D0E4A" unicode="&#xe1d;&#xe4a;" horiz-adv-x="764" 
d="M759 780l-30 -213l-50 -359q-31 -224 -196 -224q-121 0 -130 118q-45 -118 -152 -118q-147 0 -147 165q0 25 5 63l10 78q14 100 33 160.5t57.5 95t106.5 34.5q26 0 50.5 -5.5t39.5 -11.5l-25 -92q-18 6 -41 6q-25 0 -39.5 -17.5t-22.5 -49.5t-17 -95l-15 -106
q-5 -38 -5 -57q0 -33 11 -47t34 -14q26 0 42.5 22.5t23.5 73.5l17 119l126 15l-19 -137q-3 -21 -3 -36q0 -57 42 -57q29 0 47 25.5t27 92.5l49 358l16 111q-53 -40 -134 -40q-33 0 -57 7q16 50 16 93q0 17 -6 24.5t-19 7.5q-16 0 -29 -17t-17 -50l-5 -35l-92 -8l7 48
q2 18 2 23q0 39 -28 39q-44 0 -44 -92q0 -25 1 -38h-94q-3 23 -3 46q0 167 127 167q47 0 68.5 -23.5t23.5 -57.5q12 35 40 58t74 23q45 0 70 -22t25 -58q0 -23 -13 -56q39 6 65 27.5t38 51.5z" />
    <glyph glyph-name="uni0E1D0E4B" unicode="&#xe1d;&#xe4b;" horiz-adv-x="764" 
d="M759 780l-30 -213l-50 -359q-31 -224 -196 -224q-121 0 -130 118q-45 -118 -152 -118q-147 0 -147 165q0 25 5 63l10 78q14 100 33 160.5t57.5 95t106.5 34.5q26 0 50.5 -5.5t39.5 -11.5l-25 -92q-18 6 -41 6q-25 0 -39.5 -17.5t-22.5 -49.5t-17 -95l-15 -106
q-5 -38 -5 -57q0 -33 11 -47t34 -14q26 0 42.5 22.5t23.5 73.5l17 119l126 15l-19 -137q-3 -21 -3 -36q0 -57 42 -57q29 0 47 25.5t27 92.5l49 358l32 229zM558 705l-74 1l-7 -63h-108l11 63l-79 -1l20 84l71 -1l6 58l109 10l-11 -68l73 1z" />
    <glyph glyph-name="uni0E1D0E4C" unicode="&#xe1d;&#xe4c;" horiz-adv-x="764" 
d="M824 671h-80l-15 -104l-50 -359q-31 -224 -196 -224q-121 0 -130 118q-45 -118 -152 -118q-147 0 -147 165q0 25 5 63l10 78q14 100 33 160.5t57.5 95t106.5 34.5q26 0 50.5 -5.5t39.5 -11.5l-25 -92q-18 6 -41 6q-25 0 -39.5 -17.5t-22.5 -49.5t-17 -95l-15 -106
q-5 -38 -5 -57q0 -33 11 -47t34 -14q26 0 42.5 22.5t23.5 73.5l17 119l126 15l-19 -137q-3 -21 -3 -36q0 -57 42 -57q29 0 47 25.5t27 92.5l49 358l15 104h-31q-29 0 -40.5 -10.5t-11.5 -30.5t1 -33h-100q-3 29 -3 45q0 56 31.5 86t109.5 30h56l5 38l139 -16l-3 -22h80z" />
    <glyph glyph-name="uni0E1D0E4D" unicode="&#xe1d;&#xe4d;" horiz-adv-x="764" 
d="M759 780l-30 -213l-50 -359q-31 -224 -196 -224q-121 0 -130 118q-45 -118 -152 -118q-147 0 -147 165q0 25 5 63l10 78q14 100 33 160.5t57.5 95t106.5 34.5q26 0 50.5 -5.5t39.5 -11.5l-25 -92q-18 6 -41 6q-25 0 -39.5 -17.5t-22.5 -49.5t-17 -95l-15 -106
q-5 -38 -5 -57q0 -33 11 -47t34 -14q26 0 42.5 22.5t23.5 73.5l17 119l126 15l-19 -137q-3 -21 -3 -36q0 -57 42 -57q29 0 47 25.5t27 92.5l49 358l32 229zM365.5 662q-28.5 28 -28.5 71q0 30 13.5 59t43 48t73.5 19q50 0 78.5 -28t28.5 -71q0 -49 -32.5 -87.5t-97.5 -38.5
q-50 0 -78.5 28zM481 723q10 14 10 32q0 14 -8.5 22t-22.5 8q-20 0 -30 -14t-10 -33q0 -13 8.5 -21t22.5 -8q20 0 30 14z" />
    <glyph glyph-name="uni0E1F0E31" unicode="&#xe1f;&#xe31;" horiz-adv-x="775" 
d="M796 641l-23 -74l-178 -567h-184l-10 440l-142 -440h-174l-8 355q-4 138 -30 201l120 18q16 -27 26.5 -78.5t9.5 -130.5l-3 -266l149 468h146l13 -468l133 468l19 69q-77 2 -115.5 25.5t-38.5 75.5q0 39 19 83h95q-10 -38 -10 -56q0 -21 16.5 -29.5t57.5 -9.5l20 71h141
l-20 -63q53 6 103 15l2 -89q-54 -11 -134 -18z" />
    <glyph glyph-name="uni0E1F0E49" unicode="&#xe1f;&#xe49;" horiz-adv-x="761" 
d="M845 795l-72 -228l-178 -567h-184l-10 440l-142 -440h-174l-8 355q-4 138 -30 201l120 18q16 -27 26.5 -78.5t9.5 -130.5l-3 -266l149 468h146l13 -468l133 468l13 45q13 43 25 73q-44 -24 -100 -35t-127 -13l-24 38q27 35 27 67q0 16 -10 22.5t-30 6.5q-15 0 -43 -6
l-4 77q35 11 80 11q52 0 82 -20.5t30 -60.5q0 -29 -14 -52q52 7 90.5 25.5t66.5 51.5l5 -1z" />
    <glyph glyph-name="uni0E1F0E4A" unicode="&#xe1f;&#xe4a;" horiz-adv-x="761" 
d="M845 795l-72 -228l-178 -567h-184l-10 440l-142 -440h-174l-8 355q-4 138 -30 201l120 18q16 -27 26.5 -78.5t9.5 -130.5l-3 -266l149 468h146l13 -468l133 468l12 40q10 33 21 60q-44 -29 -113 -29q-33 0 -57 7q17 58 17 93q0 32 -24 32q-18 0 -31 -17t-17 -50l-5 -35
l-92 -8l7 47q2 18 2 23q0 40 -28 40q-44 0 -44 -95q0 -20 1 -35h-94q-3 29 -3 57q0 72 30 114t97 42q48 0 69 -23.5t23 -57.5q12 35 40 58t75 23q45 0 69.5 -22t24.5 -58q0 -27 -13 -55q37 6 61.5 27t36.5 51z" />
    <glyph glyph-name="uni0E1F0E4B" unicode="&#xe1f;&#xe4b;" horiz-adv-x="760" 
d="M845 796l-250 -796h-184l-10 440l-142 -440h-174l-8 355q-4 138 -30 201l120 18q16 -27 26.5 -78.5t9.5 -130.5l-3 -266l149 468h146l13 -468l133 468l63 229h141zM632 705l-74 1l-7 -63h-108l11 63l-79 -1l20 84l71 -1l6 58l109 10l-11 -68l73 1z" />
    <glyph glyph-name="uni0E1F0E4C" unicode="&#xe1f;&#xe4c;" horiz-adv-x="775" 
d="M894 671h-88l-33 -104l-178 -567h-184l-10 440l-142 -440h-174l-8 355q-4 138 -30 201l120 18q16 -27 26.5 -78.5t9.5 -130.5l-3 -266l149 468h146l13 -468l133 468l29 104h-29q-29 0 -40 -10.5t-11 -30.5t1 -33h-100q-3 29 -3 45q0 56 31.5 86t109.5 30h65l10 38h141
l-12 -38h73z" />
    <glyph glyph-name="uni0E1F0E4D" unicode="&#xe1f;&#xe4d;" horiz-adv-x="760" 
d="M845 796l-250 -796h-184l-10 440l-142 -440h-174l-8 355q-4 138 -30 201l120 18q16 -27 26.5 -78.5t9.5 -130.5l-3 -266l149 468h146l13 -468l133 468l63 229h141zM439.5 662q-28.5 28 -28.5 71q0 30 13.5 59t43 48t73.5 19q50 0 78.5 -28t28.5 -71q0 -49 -32.5 -87.5
t-97.5 -38.5q-50 0 -78.5 28zM555 723q10 14 10 32q0 14 -8.5 22t-22.5 8q-20 0 -30 -14t-10 -33q0 -13 8.5 -21t22.5 -8q20 0 30 14z" />
    <glyph glyph-name="uni0E310E4A" unicode="&#xe31;&#xe4a;" 
d="M-497 738q0 21 6 44t14 38h94q-10 -32 -10 -52q0 -16 13.5 -22t46.5 -6q45 0 101.5 11t112.5 32l11 -91q-129 -48 -252 -48q-137 0 -137 94zM80 1046q-26 -53 -56.5 -87t-76.5 -53t-114 -19q-28 0 -48 5q15 56 15 86q0 15 -6 21.5t-19 6.5q-31 0 -40 -59l-4 -33l-83 -7
l7 44q1 7 1 19q0 36 -26 36q-20 0 -29 -22t-9 -50q0 -36 2 -45h-86q-3 21 -3 48q0 144 114 144q43 0 62 -21t22 -52q10 30 35 51.5t68 21.5q40 0 62 -20t22 -53q0 -24 -12 -53q50 8 75.5 37.5t43.5 73.5z" />
    <glyph glyph-name="uni0620.init" unicode="&#x620;" horiz-adv-x="312" 
d="M225 -18q0 -38 -25.5 -63t-63.5 -25t-64 25t-26 63q0 6 2 20q-30 -2 -48 -2l-20 65l31 79q84 0 138 29q-3 43 -18.5 92t-43.5 117l135 39q39 -129 39 -225q0 -100 -64 -148q28 -26 28 -66zM161.5 -41.5q9.5 9.5 9.5 23.5t-9.5 23t-25.5 9t-25.5 -9t-9.5 -23
q0 -13 9.5 -23t25.5 -10t25.5 9.5z" />
    <glyph glyph-name="uni0620.medi" unicode="&#x620;" horiz-adv-x="314" 
d="M166 55q20 -12 32 -32t12 -45q0 -38 -25.5 -62.5t-63.5 -24.5t-64 24.5t-26 62.5q0 12 3 23q-11 -1 -34 -1l-20 63l31 81q70 0 104 22l-26 172h122l12 -159q15 -19 39 -27t63 -8l9 -81l-20 -63q-50 0 -83 14.5t-57 47.5zM147 -45q9 9 9 23t-9.5 23.5t-25.5 9.5
t-25.5 -9.5t-9.5 -23.5q0 -13 9.5 -22.5t25.5 -9.5q17 0 26 9z" />
    <glyph glyph-name="uni0620.fina" unicode="&#x620;" horiz-adv-x="713" 
d="M713 0q-32 0 -76 18q15 -27 15 -50q0 -42 -31.5 -80t-91 -65.5t-139.5 -37.5q10 -20 10 -41q0 -38 -25.5 -62.5t-63.5 -24.5t-64 24.5t-26 62.5q0 24 11 44q-98 18 -145 82t-47 168q0 59 16 111.5t38 92.5l87 -25q-28 -77 -28 -157q0 -66 40.5 -100.5t130.5 -34.5
q85 0 144.5 13.5t95.5 33.5q-15 71 -184 101l64 117q25 -5 44.5 -9t33.5 -7q76 -16 118.5 -23t83.5 -7l9 -82zM336 -278.5q9 9.5 9 22.5q0 14 -9 23.5t-25 9.5t-25.5 -9.5t-9.5 -23.5q0 -13 9.5 -22.5t25.5 -9.5t25 9.5z" />
    <glyph glyph-name="uni063B.init" unicode="&#x63b;" horiz-adv-x="461" 
d="M421 632l-281 -154q117 -84 176.5 -165.5t75.5 -181.5q-95 -131 -392 -131l-20 62l31 82q105 0 154 6.5t92 25.5q-21 51 -78.5 107.5t-180.5 140.5l26 120l404 225zM59 765l68 86l86 -70l-69 -86zM-95 761l67 85l86 -70l-68 -85z" />
    <glyph glyph-name="uni063B.medi" unicode="&#x63b;" horiz-adv-x="529" 
d="M549 65l-20 -65q-77 0 -130 24.5t-107 86.5q-43 -54 -106.5 -82.5t-185.5 -28.5l-20 62l31 82q83 1 129 12.5t74 45.5l-182 226l26 115l404 226l-7 -131l-306 -169l160 -196q47 -58 76.5 -84t63 -35.5t92.5 -9.5zM85 765l68 86l86 -70l-69 -86zM-69 761l67 85l86 -70
l-68 -85z" />
    <glyph glyph-name="uni063B.fina" unicode="&#x63b;" horiz-adv-x="970" 
d="M990 65l-20 -65q-77 0 -130 24.5t-107 86.5q-41 -53 -110.5 -85.5t-205.5 -40.5l-1 -2h-43h-37l-1 2q-117 5 -180.5 28t-89 66.5t-25.5 117.5q0 39 10.5 81.5t28.5 80.5l86 -27q-17 -66 -17 -106q0 -38 18.5 -58.5t67 -29.5t143.5 -11q117 2 181.5 19.5t96.5 56.5
l-182 225l25 115l405 226l-7 -131l-307 -170l160 -195q47 -58 76.5 -84t63 -35.5t92.5 -9.5zM526 765l68 86l86 -70l-69 -86zM372 761l67 85l86 -70l-68 -85z" />
    <glyph glyph-name="uni063C.init" unicode="&#x63c;" horiz-adv-x="461" 
d="M421 632l-281 -154q117 -84 176.5 -165.5t75.5 -181.5q-95 -131 -392 -131l-20 62l31 82q105 0 154 6.5t92 25.5q-21 51 -78.5 107.5t-180.5 140.5l26 120l404 225zM117 -137l64 80l79 -65l-64 -80zM-26 -141l63 79l80 -64l-64 -80zM56 -263l64 80l80 -65l-64 -80z" />
    <glyph glyph-name="uni063C.medi" unicode="&#x63c;" horiz-adv-x="529" 
d="M549 65l-20 -65q-77 0 -130 24.5t-107 86.5q-43 -54 -106.5 -82.5t-185.5 -28.5l-20 62l31 82q83 1 129 12.5t74 45.5l-182 226l26 115l404 226l-7 -131l-306 -169l160 -196q47 -58 76.5 -84t63 -35.5t92.5 -9.5zM144 -137l64 80l79 -65l-64 -80zM1 -141l63 79l80 -64
l-64 -80zM83 -263l64 80l80 -65l-64 -80z" />
    <glyph glyph-name="uni063C.fina" unicode="&#x63c;" horiz-adv-x="970" 
d="M990 65l-20 -65q-77 0 -130 24.5t-107 86.5q-41 -53 -110.5 -85.5t-205.5 -40.5l-1 -2h-43h-37l-1 2q-117 5 -180.5 28t-89 66.5t-25.5 117.5q0 39 10.5 81.5t28.5 80.5l86 -27q-17 -66 -17 -106q0 -38 18.5 -58.5t67 -29.5t143.5 -11q117 2 181.5 19.5t96.5 56.5
l-182 225l25 115l405 226l-7 -131l-307 -170l160 -195q47 -58 76.5 -84t63 -35.5t92.5 -9.5zM362 -137l64 80l79 -65l-64 -80zM219 -141l63 79l80 -64l-64 -80zM301 -263l64 80l80 -65l-64 -80z" />
    <glyph glyph-name="uni066E.init" unicode="&#x66e;" horiz-adv-x="312" 
d="M-20 65l31 79q84 0 138 29q-3 43 -18.5 92t-43.5 117l135 39q39 -129 39 -225q0 -101 -64.5 -148.5t-196.5 -47.5z" />
    <glyph glyph-name="uni066E.medi" unicode="&#x66e;" horiz-adv-x="314" 
d="M334 63l-20 -63q-50 0 -83 14.5t-57 47.5q-30 -32 -72.5 -47t-101.5 -15l-20 63l31 81q70 0 104 22l-26 172h122l12 -159q15 -19 39 -27t63 -8z" />
    <glyph glyph-name="uni066E.fina" unicode="&#x66e;" horiz-adv-x="944" 
d="M964 65l-20 -65q-76 0 -120 16.5t-75 63.5q-73 -44 -148 -66.5t-184 -28.5l-1 -2h-42h-38l-1 2q-117 5 -180.5 28t-89 66.5t-25.5 117.5q0 39 10.5 81.5t28.5 80.5l86 -27q-17 -66 -17 -106q0 -39 19 -59t68 -29t146 -11q222 5 326 64l-43 154h128l12 -83q8 -52 20 -75.5
t41 -33t90 -9.5z" />
    <glyph glyph-name="uni066F.init" unicode="&#x66f;" horiz-adv-x="475" 
d="M311 561q49 -39 81.5 -121.5t32.5 -203.5q0 -86 -42 -137.5t-135 -75t-248 -23.5l-20 63l31 81q152 0 216 8t96 29q2 34 2 47q-38 -30 -111 -30q-52 0 -94.5 23.5t-67 64.5t-24.5 92q0 55 27.5 106.5t71 83.5t87.5 32q48 0 97 -39zM155.5 336q30.5 -18 86.5 -18
q42 0 76 7q-12 70 -43 108.5t-68 38.5q-30 0 -56 -26.5t-26 -59.5q0 -32 30.5 -50z" />
    <glyph glyph-name="uni066F.medi" unicode="&#x66f;" horiz-adv-x="516" 
d="M536 62l-20 -62h-64q-44 0 -92.5 12.5t-94.5 35.5q-96 -48 -210 -48h-55l-20 62l31 82h91l35 -3q-64 71 -64 146q0 57 28 108.5t73 83t91 31.5q49 0 93.5 -31t72 -82.5t27.5 -107.5q0 -36 -17 -74.5t-49 -73.5l36 3h99zM221.5 363q-20.5 -14 -34 -38.5t-13.5 -52.5
q0 -37 25.5 -66t68.5 -45q40 16 63 44t23 67q0 29 -13 53.5t-34 38t-43 13.5t-42.5 -14z" />
    <glyph glyph-name="uni066F.fina" unicode="&#x66f;" horiz-adv-x="807" 
d="M807 0h-90q-10 -118 -93.5 -190t-249.5 -72q-174 0 -254 65t-80 195q0 59 15.5 110.5t36.5 90.5l87 -25q-25 -67 -25 -153q0 -49 21.5 -79t72 -45t138.5 -15q82 0 135 20t91 50q2 34 2 48h-106q-52 0 -94.5 23.5t-67 65t-24.5 92.5q0 55 27.5 107t71 84t87.5 32
q41 0 82 -27t74 -85.5t46 -147.5h108l9 -83zM449 141.5q30 -16.5 87 -16.5q38 0 69 3q-13 73 -43 110t-61 37q-30 0 -56 -26.5t-26 -59.5q0 -31 30 -47.5z" />
    <glyph glyph-name="uni0676.fina" unicode="&#x676;" horiz-adv-x="539" 
d="M476 539l-217 -35l-3 60l61 10q-38 31 -38 66q0 37 25.5 61.5t74.5 24.5q39 0 73 -18l-23 -68q-15 9 -25.5 12.5t-21.5 3.5q-16 0 -23 -8t-7 -19q0 -19 29 -45l92 15zM539 0h-67q-21 -105 -112 -170.5t-269 -107.5l-51 132q151 31 221 64.5t100 81.5h-38q-76 0 -130.5 24
t-82.5 66t-28 94q0 56 27.5 107.5t71 83.5t87.5 32q41 0 84.5 -30.5t76.5 -90t44 -142.5h78l8 -83zM375 135q-10 48 -29.5 80t-42 47.5t-42.5 15.5q-31 0 -56.5 -25t-25.5 -57q0 -30 26.5 -45.5t85.5 -15.5h84z" />
    <glyph glyph-name="uni0677.fina" unicode="&#x677;" horiz-adv-x="539" 
d="M539 0h-67q-21 -105 -112 -170.5t-269 -107.5l-51 132q151 31 221 64.5t100 81.5h-38q-76 0 -130.5 24t-82.5 66t-28 94q0 56 27.5 107.5t71 83.5t87.5 32q41 0 84.5 -30.5t76.5 -90t44 -142.5h78l8 -83zM375 135q-10 48 -29.5 80t-42 47.5t-42.5 15.5q-31 0 -56.5 -25
t-25.5 -57q0 -30 26.5 -45.5t85.5 -15.5h84zM382 486l-217 -35l-3 60l61 10q-38 31 -38 66q0 37 25.5 61.5t74.5 24.5q39 0 73 -18l-23 -68q-15 9 -25.5 12.5t-21.5 3.5q-16 0 -23 -8t-7 -19q0 -19 29 -45l92 15zM345.5 897q20.5 -23 20.5 -58q0 -47 -36.5 -90.5
t-122.5 -73.5l-29 58q45 13 74 31q-27 14 -40 33.5t-13 40.5q0 38 25.5 60t60.5 22q40 0 60.5 -23zM268 849q-6 -6 -6 -18q0 -21 29 -36q16 19 16 36q0 11 -6 17.5t-17 6.5q-10 0 -16 -6z" />
    <glyph glyph-name="uni0678.init" unicode="&#x678;" horiz-adv-x="312" 
d="M260 579l-217 -35l-3 60l61 10q-38 31 -38 66q0 37 25.5 61.5t74.5 24.5q39 0 73 -18l-23 -68q-15 9 -25.5 12.5t-21.5 3.5q-16 0 -23 -8t-7 -19q0 -19 29 -45l92 15zM-20 65l31 79q84 0 138 29q-3 43 -18.5 92t-43.5 117l135 39q39 -129 39 -225q0 -101 -64.5 -148.5
t-196.5 -47.5z" />
    <glyph glyph-name="uni0678.medi" unicode="&#x678;" horiz-adv-x="314" 
d="M78 534l60 10q-38 31 -38 66q0 37 26 61.5t75 24.5q38 0 72 -18l-23 -68q-14 9 -24.5 12.5t-22.5 3.5q-16 0 -23 -8t-7 -19q0 -19 29 -45l92 15l4 -60l-218 -35zM334 63l-20 -63q-50 0 -83 14.5t-57 47.5q-30 -32 -72.5 -47t-101.5 -15l-20 63l31 81q70 0 104 22l-26 172
h122l12 -159q15 -19 39 -27t63 -8z" />
    <glyph glyph-name="uni0678.fina" unicode="&#x678;" horiz-adv-x="713" 
d="M713 0q-32 0 -76 18q15 -27 15 -50q0 -49 -42 -92t-119.5 -69t-178.5 -26q-138 0 -205 67t-67 190q0 59 16 111.5t38 92.5l87 -25q-28 -77 -28 -157q0 -66 40.5 -100.5t130.5 -34.5q85 0 144.5 13.5t95.5 33.5q-15 71 -184 101l64 117q25 -5 44.5 -9t33.5 -7
q76 -16 118.5 -23t83.5 -7l9 -82zM639 304l-217 -35l-3 60l61 10q-38 31 -38 66q0 37 25.5 61.5t74.5 24.5q39 0 73 -18l-23 -68q-15 9 -25.5 12.5t-21.5 3.5q-16 0 -23 -8t-7 -19q0 -19 29 -45l92 15z" />
    <glyph glyph-name="uni067C.init" unicode="&#x67c;" horiz-adv-x="312" 
d="M203 473l-85 70l68 85l86 -70zM49 468l-85 70l68 85l85 -69zM192 45q33 -26 33 -70q0 -38 -25.5 -62.5t-63.5 -24.5t-64 24.5t-26 62.5q0 16 4 27q-32 -2 -50 -2l-20 65l31 79q84 0 138 29q-3 43 -18.5 92t-43.5 117l135 39q39 -129 39 -225q0 -104 -69 -151z
M161.5 -47.5q9.5 9.5 9.5 22.5q0 15 -9.5 24t-25.5 9t-25.5 -9t-9.5 -24q0 -13 9.5 -22.5t25.5 -9.5t25.5 9.5z" />
    <glyph glyph-name="uni067C.medi" unicode="&#x67c;" horiz-adv-x="314" 
d="M227 402l-85 70l68 86l86 -70zM73 397l-85 70l67 85l86 -69zM165 54q20 -12 32 -31.5t12 -44.5q0 -38 -25.5 -62.5t-64.5 -24.5q-38 0 -64 24.5t-26 62.5q0 12 3 23q-10 -1 -32 -1l-20 63l31 81q70 0 104 22l-26 172h122l12 -159q15 -19 39 -27t63 -8l9 -81l-20 -63
q-50 0 -83 14.5t-57 47.5zM145 -45q9 9 9 23t-9.5 23.5t-25.5 9.5q-15 0 -24.5 -9.5t-9.5 -23.5q0 -13 9 -22.5t25 -9.5q17 0 26 9z" />
    <glyph glyph-name="uni067C.fina" unicode="&#x67c;" horiz-adv-x="944" 
d="M519 369l-85 70l68 85l86 -70zM365 364l-85 70l68 85l85 -69zM964 65l-20 -65q-76 0 -120 16.5t-75 63.5q-67 -41 -136 -63.5t-165 -29.5q8 -18 8 -38q0 -38 -25.5 -63t-63.5 -25t-64 25t-26 63q0 21 9 39q-97 8 -150 32t-74.5 66.5t-21.5 110.5q0 39 10.5 81.5
t28.5 80.5l86 -27q-17 -66 -17 -106q0 -39 19 -59t68 -29t146 -11q222 5 326 64l-43 154h128l12 -83q8 -52 20 -75.5t41 -33t90 -9.5zM392 -74.5q9 9.5 9 23.5t-9 23t-25 9t-25.5 -9t-9.5 -23q0 -13 9.5 -23t25.5 -10t25 9.5z" />
    <glyph glyph-name="uni067D.init" unicode="&#x67d;" horiz-adv-x="312" 
d="M-20 65l31 79q84 0 138 29q-3 43 -18.5 92t-43.5 117l135 39q39 -129 39 -225q0 -101 -64.5 -148.5t-196.5 -47.5zM118 660l64 80l80 -65l-65 -80zM-25 656l63 79l80 -64l-64 -80zM58 534l63 80l80 -65l-64 -80z" />
    <glyph glyph-name="uni067D.medi" unicode="&#x67d;" horiz-adv-x="314" 
d="M334 63l-20 -63q-50 0 -83 14.5t-57 47.5q-30 -32 -72.5 -47t-101.5 -15l-20 63l31 81q70 0 104 22l-26 172h122l12 -159q15 -19 39 -27t63 -8zM141 589l64 80l80 -65l-65 -80zM-2 585l63 79l80 -64l-64 -80zM81 463l63 80l80 -65l-64 -80z" />
    <glyph glyph-name="uni067D.fina" unicode="&#x67d;" horiz-adv-x="955" 
d="M964 65l-20 -65q-76 0 -120 16.5t-75 63.5q-73 -44 -148 -66.5t-184 -28.5l-1 -2h-42h-38l-1 2q-117 5 -180.5 28t-89 66.5t-25.5 117.5q0 39 10.5 81.5t28.5 80.5l86 -27q-17 -66 -17 -106q0 -39 19 -59t68 -29t146 -11q222 5 326 64l-43 154h128l12 -83q8 -52 20 -75.5
t41 -33t90 -9.5zM444 556l64 80l80 -65l-65 -80zM301 552l63 79l80 -64l-64 -80zM384 430l63 80l80 -65l-64 -80z" />
    <glyph glyph-name="uni0681.init" unicode="&#x681;" horiz-adv-x="699" 
d="M298.5 473q41.5 -12 77.5 -30.5t98 -52.5q58 -33 100 -55t90 -41l-16 -128l-42 -3q-57 -5 -118 -24t-149 -53q-114 -43 -188.5 -64.5t-150.5 -21.5l-20 62l31 82q78 0 148 16.5t180 52.5q105 33 150 46q-90 49 -153 69.5t-116 20.5q-32 0 -63 -11.5t-58 -30.5l-53 119
q35 28 78.5 43.5t87.5 15.5q45 0 86.5 -12zM341 564l-217 -35l-3 60l61 10q-38 31 -38 66q0 37 25.5 61.5t74.5 24.5q39 0 73 -18l-23 -68q-15 9 -25.5 12.5t-21.5 3.5q-16 0 -23 -8t-7 -19q0 -19 29 -45l92 15z" />
    <glyph glyph-name="uni0681.medi" unicode="&#x681;" horiz-adv-x="743" 
d="M763 60l-20 -60q-107 0 -175 43.5t-101 134.5q-54 -20 -152 -72q-69 -36 -113.5 -56.5t-96.5 -35t-105 -14.5l-20 62l31 82q66 0 125 17t144 51q105 44 184 63l-56 22q-70 28 -112 40t-86 12q-64 0 -121 -42l-54 119q35 28 79 43.5t87 15.5q63 0 117.5 -18t137.5 -55
q61 -27 104 -43.5t91 -29.5l-16 -131l-50 -3h-2q12 -30 29.5 -42.5t46.5 -15.5t96 -3zM326 565l-217 -35l-3 60l61 10q-38 31 -38 66q0 37 25.5 61.5t74.5 24.5q39 0 73 -18l-23 -68q-15 9 -25.5 12.5t-21.5 3.5q-16 0 -23 -8t-7 -19q0 -19 29 -45l92 15z" />
    <glyph glyph-name="uni0681.fina" unicode="&#x681;" horiz-adv-x="683" 
d="M270 115.5q-72 -44.5 -105.5 -99.5t-33.5 -111t47.5 -92.5t156.5 -36.5q55 0 114.5 12.5t103.5 32.5l49 -126q-53 -29 -126.5 -46.5t-143.5 -17.5q-163 0 -232.5 74t-69.5 178q0 92 45.5 171.5t134.5 138t216 87.5q-78 38 -123.5 52t-92.5 14q-32 0 -62.5 -10.5
t-55.5 -28.5l-53 118q31 26 73 42t83 16q57 0 107 -18t126 -58q59 -30 101.5 -49.5t94.5 -36.5l-13 -118l-56 -5q6 -25 19 -36t38.5 -14t81.5 -4l9 -84l-20 -60q-96 0 -158.5 46t-74.5 136q-108 -22 -180 -66.5zM342 565l-217 -35l-3 60l61 10q-38 31 -38 66q0 37 25.5 61.5
t74.5 24.5q39 0 73 -18l-23 -68q-15 9 -25.5 12.5t-21.5 3.5q-16 0 -23 -8t-7 -19q0 -19 29 -45l92 15z" />
    <glyph glyph-name="uni0682.init" unicode="&#x682;" horiz-adv-x="699" 
d="M298.5 473q41.5 -12 77.5 -30.5t98 -52.5q58 -33 100 -55t90 -41l-16 -128l-42 -3q-57 -5 -118 -24t-149 -53q-114 -43 -188.5 -64.5t-150.5 -21.5l-20 62l31 82q78 0 148 16.5t180 52.5q105 33 150 46q-90 49 -153 69.5t-116 20.5q-32 0 -63 -11.5t-58 -30.5l-53 119
q35 28 78.5 43.5t87.5 15.5q45 0 86.5 -12zM121 732l65 83l83 -68l-66 -83zM158 586l66 83l84 -68l-67 -83z" />
    <glyph glyph-name="uni0682.medi" unicode="&#x682;" horiz-adv-x="743" 
d="M763 60l-20 -60q-107 0 -175 43.5t-101 134.5q-54 -20 -152 -72q-69 -36 -113.5 -56.5t-96.5 -35t-105 -14.5l-20 62l31 82q66 0 125 17t144 51q105 44 184 63l-56 22q-70 28 -112 40t-86 12q-64 0 -121 -42l-54 119q35 28 79 43.5t87 15.5q63 0 117.5 -18t137.5 -55
q61 -27 104 -43.5t91 -29.5l-16 -131l-50 -3h-2q12 -30 29.5 -42.5t46.5 -15.5t96 -3zM106 733l65 83l83 -68l-66 -83zM143 587l66 83l84 -68l-67 -83z" />
    <glyph glyph-name="uni0682.fina" unicode="&#x682;" horiz-adv-x="683" 
d="M270 115.5q-72 -44.5 -105.5 -99.5t-33.5 -111t47.5 -92.5t156.5 -36.5q55 0 114.5 12.5t103.5 32.5l49 -126q-53 -29 -126.5 -46.5t-143.5 -17.5q-163 0 -232.5 74t-69.5 178q0 92 45.5 171.5t134.5 138t216 87.5q-78 38 -123.5 52t-92.5 14q-32 0 -62.5 -10.5
t-55.5 -28.5l-53 118q31 26 73 42t83 16q57 0 107 -18t126 -58q59 -30 101.5 -49.5t94.5 -36.5l-13 -118l-56 -5q6 -25 19 -36t38.5 -14t81.5 -4l9 -84l-20 -60q-96 0 -158.5 46t-74.5 136q-108 -22 -180 -66.5zM122 733l65 83l83 -68l-66 -83zM159 587l66 83l84 -68
l-67 -83z" />
    <glyph glyph-name="uni0685.init" unicode="&#x685;" horiz-adv-x="699" 
d="M298.5 473q41.5 -12 77.5 -30.5t98 -52.5q58 -33 100 -55t90 -41l-16 -128l-42 -3q-57 -5 -118 -24t-149 -53q-114 -43 -188.5 -64.5t-150.5 -21.5l-20 62l31 82q78 0 148 16.5t180 52.5q105 33 150 46q-90 49 -153 69.5t-116 20.5q-32 0 -63 -11.5t-58 -30.5l-53 119
q35 28 78.5 43.5t87.5 15.5q45 0 86.5 -12zM287 743l-63 -80l-80 65l63 80zM370 621l-63 -79l-80 64l64 80zM227 617l-64 -80l-80 65l65 80z" />
    <glyph glyph-name="uni0685.medi" unicode="&#x685;" horiz-adv-x="743" 
d="M763 60l-20 -60q-107 0 -175 43.5t-101 134.5q-54 -20 -152 -72q-69 -36 -113.5 -56.5t-96.5 -35t-105 -14.5l-20 62l31 82q66 0 125 17t144 51q105 44 184 63l-56 22q-70 28 -112 40t-86 12q-64 0 -121 -42l-54 119q35 28 79 43.5t87 15.5q63 0 117.5 -18t137.5 -55
q61 -27 104 -43.5t91 -29.5l-16 -131l-50 -3h-2q12 -30 29.5 -42.5t46.5 -15.5t96 -3zM272 744l-63 -80l-80 65l63 80zM355 622l-63 -79l-80 64l64 80zM212 618l-64 -80l-80 65l65 80z" />
    <glyph glyph-name="uni0685.fina" unicode="&#x685;" horiz-adv-x="683" 
d="M270 115.5q-72 -44.5 -105.5 -99.5t-33.5 -111t47.5 -92.5t156.5 -36.5q55 0 114.5 12.5t103.5 32.5l49 -126q-53 -29 -126.5 -46.5t-143.5 -17.5q-163 0 -232.5 74t-69.5 178q0 92 45.5 171.5t134.5 138t216 87.5q-78 38 -123.5 52t-92.5 14q-32 0 -62.5 -10.5
t-55.5 -28.5l-53 118q31 26 73 42t83 16q57 0 107 -18t126 -58q59 -30 101.5 -49.5t94.5 -36.5l-13 -118l-56 -5q6 -25 19 -36t38.5 -14t81.5 -4l9 -84l-20 -60q-96 0 -158.5 46t-74.5 136q-108 -22 -180 -66.5zM288 744l-63 -80l-80 65l63 80zM371 622l-63 -79l-80 64
l64 80zM228 618l-64 -80l-80 65l65 80z" />
    <glyph glyph-name="uni0689.fina" unicode="&#x689;" horiz-adv-x="532" 
d="M552 64l-20 -64q-39 0 -74.5 16.5t-60.5 44.5q-55 -50 -123 -65q12 -20 12 -45q0 -38 -25.5 -62.5t-63.5 -24.5t-64 24.5t-26 62.5q0 20 8 38q-49 5 -93 18l40 140q60 -17 128 -17q87 0 147 33l-163 310l137 62l109 -287q17 -44 31.5 -65.5t35 -30t56.5 -8.5z
M222.5 -72.5q9.5 9.5 9.5 23.5t-9.5 23.5t-25.5 9.5t-25.5 -9.5t-9.5 -23.5q0 -13 9.5 -23t25.5 -10t25.5 9.5z" />
    <glyph glyph-name="uni068A.fina" unicode="&#x68a;" horiz-adv-x="532" 
d="M552 64l-20 -64q-39 0 -74.5 16.5t-60.5 44.5q-42 -39 -93.5 -57t-125.5 -18q-86 0 -156 21l40 140q60 -17 128 -17q87 0 147 33l-163 310l137 62l109 -287q17 -44 31.5 -65.5t35 -30t56.5 -8.5zM141 -150l77 97l98 -81l-76 -96z" />
    <glyph glyph-name="uni068B.fina" unicode="&#x68b;" horiz-adv-x="532" 
d="M552 64l-20 -64q-39 0 -74.5 16.5t-60.5 44.5q-42 -39 -93.5 -57t-125.5 -18q-86 0 -156 21l40 140q60 -17 128 -17q87 0 147 33l-163 310l137 62l109 -287q17 -44 31.5 -65.5t35 -30t56.5 -8.5zM141 -150l77 97l98 -81l-76 -96zM338 722q19 -25 19 -63q0 -30 -23 -57
t-71 -27h-142l7 61h28l3 5l-11 148h59v-80q19 21 37 29.5t40 8.5q35 0 54 -25zM307 647q0 22 -6.5 30.5t-24.5 8.5q-37 0 -77 -50h44q46 0 64 11z" />
    <glyph glyph-name="uni068F.fina" unicode="&#x68f;" horiz-adv-x="532" 
d="M552 64l-20 -64q-39 0 -74.5 16.5t-60.5 44.5q-42 -39 -93.5 -57t-125.5 -18q-86 0 -156 21l40 140q60 -17 128 -17q87 0 147 33l-163 310l137 62l109 -287q17 -44 31.5 -65.5t35 -30t56.5 -8.5zM227 773l64 80l80 -65l-65 -80zM84 769l63 79l80 -64l-64 -80zM167 647
l63 80l80 -65l-64 -80z" />
    <glyph glyph-name="uni0690.fina" unicode="&#x690;" horiz-adv-x="532" 
d="M552 64l-20 -64q-39 0 -74.5 16.5t-60.5 44.5q-42 -39 -93.5 -57t-125.5 -18q-86 0 -156 21l40 140q60 -17 128 -17q87 0 147 33l-163 310l137 62l109 -287q17 -44 31.5 -65.5t35 -30t56.5 -8.5zM188 743l56 70l71 -57l-57 -71zM68 738l54 71l71 -58l-56 -70zM222 619
l56 70l69 -57l-54 -70zM100 615l57 70l70 -57l-56 -70z" />
    <glyph glyph-name="uni0692.fina" unicode="&#x692;" horiz-adv-x="445" 
d="M445 0q-58 0 -87 16q-44 -93 -131 -158.5t-233 -123.5l-64 137q132 46 208 87.5t139 107.5q-49 135 -113 238l135 65q1 -4 3 -8.5t4 -10.5q33 -88 39 -110q13 -41 26.5 -61t32.5 -27.5t52 -7.5l9 -82zM187 502l51 86l61 -26l-80 -143h-65l-79 143l61 26z" />
    <glyph glyph-name="uni0693.fina" unicode="&#x693;" horiz-adv-x="445" 
d="M245 -129q21 -11 33 -31t12 -46q0 -38 -25.5 -63t-63.5 -25q-36 0 -61.5 22.5t-28.5 57.5q-48 -25 -117 -52l-64 137q132 46 208 87.5t139 107.5q-49 135 -113 238l135 65q1 -4 3 -8.5t4 -10.5q33 -88 39 -110q13 -41 26.5 -61t32.5 -27.5t52 -7.5l9 -82l-20 -62
q-58 0 -87 16q-40 -82 -113 -145zM226 -229.5q9 9.5 9 23.5t-9 23t-25 9t-25.5 -9t-9.5 -23q0 -13 9.5 -23t25.5 -10t25 9.5z" />
    <glyph glyph-name="uni0694.fina" unicode="&#x694;" horiz-adv-x="445" 
d="M445 0q-58 0 -87 16q-44 -93 -131 -158.5t-233 -123.5l-64 137q132 46 208 87.5t139 107.5q-49 135 -113 238l135 65q1 -4 3 -8.5t4 -10.5q33 -88 39 -110q13 -41 26.5 -61t32.5 -27.5t52 -7.5l9 -82zM184 -332l77 97l98 -81l-76 -96z" />
    <glyph glyph-name="uni0695.fina" unicode="&#x695;" horiz-adv-x="445" 
d="M445 0q-58 0 -87 16q-44 -93 -131 -158.5t-233 -123.5l-64 137q132 46 208 87.5t139 107.5q-49 135 -113 238l135 65q1 -4 3 -8.5t4 -10.5q33 -88 39 -110q13 -41 26.5 -61t32.5 -27.5t52 -7.5l9 -82zM272 -322l51 86l61 -26l-80 -143h-65l-79 143l61 26z" />
    <glyph glyph-name="uni0696.fina" unicode="&#x696;" horiz-adv-x="445" 
d="M445 0q-58 0 -87 16q-44 -93 -131 -158.5t-233 -123.5l-64 137q132 46 208 87.5t139 107.5q-49 135 -113 238l135 65q1 -4 3 -8.5t4 -10.5q33 -88 39 -110q13 -41 26.5 -61t32.5 -27.5t52 -7.5l9 -82zM184 -332l77 97l98 -81l-76 -96zM90 514l76 97l98 -81l-76 -96z" />
    <glyph glyph-name="uni0697.fina" unicode="&#x697;" horiz-adv-x="445" 
d="M445 0q-58 0 -87 16q-44 -93 -131 -158.5t-233 -123.5l-64 137q132 46 208 87.5t139 107.5q-49 135 -113 238l135 65q1 -4 3 -8.5t4 -10.5q33 -88 39 -110q13 -41 26.5 -61t32.5 -27.5t52 -7.5l9 -82zM179 512l68 86l86 -70l-69 -86zM25 508l67 85l86 -70l-68 -85z" />
    <glyph glyph-name="uni0699.fina" unicode="&#x699;" horiz-adv-x="445" 
d="M445 0q-58 0 -87 16q-44 -93 -131 -158.5t-233 -123.5l-64 137q132 46 208 87.5t139 107.5q-49 135 -113 238l135 65q1 -4 3 -8.5t4 -10.5q33 -88 39 -110q13 -41 26.5 -61t32.5 -27.5t52 -7.5l9 -82zM139 600l56 70l71 -57l-57 -71zM19 595l54 71l71 -58l-56 -70z
M173 476l56 70l69 -57l-54 -70zM51 472l57 70l70 -57l-56 -70z" />
    <glyph glyph-name="uni069A.init" unicode="&#x69a;" horiz-adv-x="772" 
d="M712 291.5q10 -54.5 10 -113.5q0 -58 -25.5 -98.5t-64 -60t-79.5 -19.5q-45 0 -76.5 14.5t-55.5 46.5q-51 -61 -124 -61q-42 0 -71.5 15t-52.5 46q-60 -61 -173 -61l-20 63l31 81q41 0 65 4t39 14l-25 176h122l12 -159q27 -35 74 -35q35 0 63 18l-25 176h122l12 -159
q27 -35 77 -35q19 0 36.5 7t29.5 21q-2 35 -17 94t-38 120l121 39q23 -79 33 -133.5zM342 -150l77 97l98 -81l-76 -96zM300 474l76 97l98 -81l-76 -96z" />
    <glyph glyph-name="uni069A.medi" unicode="&#x69a;" horiz-adv-x="830" 
d="M850 64l-20 -64q-104 0 -150 56q-26 -26 -60 -41t-70 -15q-43 0 -74 14.5t-55 46.5q-51 -61 -124 -61q-42 0 -71.5 15t-52.5 46q-60 -61 -173 -61l-20 63l31 81q41 0 65 4t39 14l-25 176h122l12 -159q27 -35 74 -35q35 0 63 18l-25 176h122l12 -159q27 -35 74 -35
q43 0 65 27q-2 31 -14 94t-28 128l127 28q21 -133 23 -247q44 -30 125 -30zM339 -150l77 97l98 -81l-76 -96zM300 474l76 97l98 -81l-76 -96z" />
    <glyph glyph-name="uni069A.fina" unicode="&#x69a;" horiz-adv-x="1248" 
d="M1265 64l-20 -64q-104 0 -150 56q-26 -26 -60 -41t-70 -15q-44 0 -74.5 14.5t-55.5 47.5q-27 -31 -62 -46.5t-71 -15.5q-44 0 -73 23q1 -7 1 -24q0 -84 -43.5 -142.5t-115.5 -87t-159 -28.5q-138 0 -205 67t-67 190q0 103 54 204l87 -26q-28 -77 -28 -156
q0 -66 40.5 -101t130.5 -35q123 0 202 68q2 15 2 44q0 80 -25 148.5t-65 140.5l120 50q11 -31 25 -69.5t26 -59.5q20 -38 44 -50t60 -12q35 0 63 18l-25 176h122l12 -159q27 -35 74 -35q43 0 65 27q-2 32 -13.5 95.5t-25.5 126.5l127 28q19 -125 20 -247q45 -30 125 -30z
M798 -150l77 97l98 -81l-76 -96zM716 474l76 97l98 -81l-76 -96z" />
    <glyph glyph-name="uni069B.init" unicode="&#x69b;" horiz-adv-x="772" 
d="M712 291.5q10 -54.5 10 -113.5q0 -58 -25.5 -98.5t-64 -60t-79.5 -19.5q-45 0 -76.5 14.5t-55.5 46.5q-51 -61 -124 -61q-42 0 -71.5 15t-52.5 46q-60 -61 -173 -61l-20 63l31 81q41 0 65 4t39 14l-25 176h122l12 -159q27 -35 74 -35q35 0 63 18l-25 176h122l12 -159
q27 -35 77 -35q19 0 36.5 7t29.5 21q-2 35 -17 94t-38 120l121 39q23 -79 33 -133.5zM425 -137l64 80l79 -65l-64 -80zM282 -141l63 79l80 -64l-64 -80zM364 -263l64 80l80 -65l-64 -80z" />
    <glyph glyph-name="uni069B.medi" unicode="&#x69b;" horiz-adv-x="830" 
d="M850 64l-20 -64q-104 0 -150 56q-26 -26 -60 -41t-70 -15q-43 0 -74 14.5t-55 46.5q-51 -61 -124 -61q-42 0 -71.5 15t-52.5 46q-60 -61 -173 -61l-20 63l31 81q41 0 65 4t39 14l-25 176h122l12 -159q27 -35 74 -35q35 0 63 18l-25 176h122l12 -159q27 -35 74 -35
q43 0 65 27q-2 31 -14 94t-28 128l127 28q21 -133 23 -247q44 -30 125 -30zM422 -137l64 80l79 -65l-64 -80zM279 -141l63 79l80 -64l-64 -80zM361 -263l64 80l80 -65l-64 -80z" />
    <glyph glyph-name="uni069B.fina" unicode="&#x69b;" horiz-adv-x="1248" 
d="M1265 64l-20 -64q-104 0 -150 56q-26 -26 -60 -41t-70 -15q-44 0 -74.5 14.5t-55.5 47.5q-27 -31 -62 -46.5t-71 -15.5q-44 0 -73 23q1 -7 1 -24q0 -84 -43.5 -142.5t-115.5 -87t-159 -28.5q-138 0 -205 67t-67 190q0 103 54 204l87 -26q-28 -77 -28 -156
q0 -66 40.5 -101t130.5 -35q123 0 202 68q2 15 2 44q0 80 -25 148.5t-65 140.5l120 50q11 -31 25 -69.5t26 -59.5q20 -38 44 -50t60 -12q35 0 63 18l-25 176h122l12 -159q27 -35 74 -35q43 0 65 27q-2 32 -13.5 95.5t-25.5 126.5l127 28q19 -125 20 -247q45 -30 125 -30z
M881 -137l64 80l79 -65l-64 -80zM738 -141l63 79l80 -64l-64 -80zM820 -263l64 80l80 -65l-64 -80z" />
    <glyph glyph-name="uni069C.init" unicode="&#x69c;" horiz-adv-x="772" 
d="M712 291.5q10 -54.5 10 -113.5q0 -58 -25.5 -98.5t-64 -60t-79.5 -19.5q-45 0 -76.5 14.5t-55.5 46.5q-51 -61 -124 -61q-42 0 -71.5 15t-52.5 46q-60 -61 -173 -61l-20 63l31 81q41 0 65 4t39 14l-25 176h122l12 -159q27 -35 74 -35q35 0 63 18l-25 176h122l12 -159
q27 -35 77 -35q19 0 36.5 7t29.5 21q-2 35 -17 94t-38 120l121 39q23 -79 33 -133.5zM450 604l-63 -80l-80 65l63 80zM533 482l-63 -79l-80 64l64 80zM390 478l-64 -80l-80 65l65 80zM425 -137l64 80l79 -65l-64 -80zM282 -141l63 79l80 -64l-64 -80zM364 -263l64 80l80 -65
l-64 -80z" />
    <glyph glyph-name="uni069C.medi" unicode="&#x69c;" horiz-adv-x="830" 
d="M850 64l-20 -64q-104 0 -150 56q-26 -26 -60 -41t-70 -15q-43 0 -74 14.5t-55 46.5q-51 -61 -124 -61q-42 0 -71.5 15t-52.5 46q-60 -61 -173 -61l-20 63l31 81q41 0 65 4t39 14l-25 176h122l12 -159q27 -35 74 -35q35 0 63 18l-25 176h122l12 -159q27 -35 74 -35
q43 0 65 27q-2 31 -14 94t-28 128l127 28q21 -133 23 -247q44 -30 125 -30zM450 604l-63 -80l-80 65l63 80zM533 482l-63 -79l-80 64l64 80zM390 478l-64 -80l-80 65l65 80zM422 -137l64 80l79 -65l-64 -80zM279 -141l63 79l80 -64l-64 -80zM361 -263l64 80l80 -65l-64 -80z
" />
    <glyph glyph-name="uni069C.fina" unicode="&#x69c;" horiz-adv-x="1248" 
d="M1265 64l-20 -64q-104 0 -150 56q-26 -26 -60 -41t-70 -15q-44 0 -74.5 14.5t-55.5 47.5q-27 -31 -62 -46.5t-71 -15.5q-44 0 -73 23q1 -7 1 -24q0 -84 -43.5 -142.5t-115.5 -87t-159 -28.5q-138 0 -205 67t-67 190q0 103 54 204l87 -26q-28 -77 -28 -156
q0 -66 40.5 -101t130.5 -35q123 0 202 68q2 15 2 44q0 80 -25 148.5t-65 140.5l120 50q11 -31 25 -69.5t26 -59.5q20 -38 44 -50t60 -12q35 0 63 18l-25 176h122l12 -159q27 -35 74 -35q43 0 65 27q-2 32 -13.5 95.5t-25.5 126.5l127 28q19 -125 20 -247q45 -30 125 -30z
M863 604l-63 -80l-80 65l63 80zM946 482l-63 -79l-80 64l64 80zM803 478l-64 -80l-80 65l65 80zM881 -137l64 80l79 -65l-64 -80zM738 -141l63 79l80 -64l-64 -80zM820 -263l64 80l80 -65l-64 -80z" />
    <glyph glyph-name="uni069D.init" unicode="&#x69d;" horiz-adv-x="891" 
d="M740.5 437.5q46.5 -28.5 73.5 -85.5t27 -138q0 -89 -50 -136t-135 -62.5t-214 -15.5h-135q-48 0 -81 14.5t-58 47.5q-28 -32 -69.5 -47t-98.5 -15l-20 63l31 81q68 0 98 22l-23 231h122l10 -211q16 -29 54 -38q177 318 365 318q57 0 103.5 -28.5zM712.5 301
q-32.5 30 -78.5 30q-62 0 -121.5 -42.5t-144.5 -144.5h89q93 0 139 2.5t79.5 11.5t65.5 29q4 84 -28.5 114zM157 -139l68 85l86 -70l-69 -85zM3 -144l68 85l85 -69l-68 -86z" />
    <glyph glyph-name="uni069D.medi" unicode="&#x69d;" horiz-adv-x="924" 
d="M944 60l-20 -60q-41 0 -75.5 19.5t-60.5 55.5q-48 -44 -133 -59.5t-213 -15.5h-135q-48 0 -81 14.5t-58 47.5q-28 -32 -69.5 -47t-98.5 -15l-20 63l31 81q68 0 98 22l-23 231h122l10 -211q16 -29 54 -38q177 318 365 318q57 0 103.5 -28.5t73.5 -85.5t27 -138
q0 -20 -3 -37q37 -33 97 -33zM712.5 301q-32.5 30 -78.5 30q-62 0 -121.5 -42.5t-144.5 -144.5h89q93 0 139 2.5t79.5 11.5t65.5 29q4 84 -28.5 114zM157 -139l68 85l86 -70l-69 -85zM3 -144l68 85l85 -69l-68 -86z" />
    <glyph glyph-name="uni069D.fina" unicode="&#x69d;" horiz-adv-x="1319" 
d="M1339 60l-20 -60q-81 0 -136 75q-47 -44 -132 -59.5t-214 -15.5h-135q-44 0 -73 23q1 -7 1 -24q0 -84 -43.5 -142.5t-115.5 -87t-159 -28.5q-138 0 -205 67t-67 190q0 103 54 204l87 -26q-28 -77 -28 -156q0 -66 40.5 -101t130.5 -35q123 0 202 68q2 15 2 44
q0 80 -25 148.5t-65 140.5l120 50q11 -31 25 -69.5t26 -59.5q25 -45 59 -56q177 316 364 316q57 0 103.5 -28.5t73.5 -85.5t27 -138q0 -13 -2 -37q37 -33 97 -33zM1107.5 301q-32.5 30 -78.5 30q-62 0 -121.5 -42.5t-143.5 -144.5h88q94 0 140 2.5t79.5 11.5t64.5 29
q4 84 -28.5 114zM317 -386l68 85l86 -70l-69 -85zM163 -391l68 85l85 -69l-68 -86z" />
    <glyph glyph-name="uni069E.init" unicode="&#x69e;" horiz-adv-x="891" 
d="M598 635l-80 65l64 80l80 -65zM601 578l64 80l79 -65l-63 -79zM537 509l-80 65l65 80l79 -65zM740.5 437.5q46.5 -28.5 73.5 -85.5t27 -138q0 -89 -50 -136t-135 -62.5t-214 -15.5h-135q-48 0 -81 14.5t-58 47.5q-28 -32 -69.5 -47t-98.5 -15l-20 63l31 81q68 0 98 22
l-23 231h122l10 -211q16 -29 54 -38q177 318 365 318q57 0 103.5 -28.5zM712.5 301q-32.5 30 -78.5 30q-62 0 -121.5 -42.5t-144.5 -144.5h89q93 0 139 2.5t79.5 11.5t65.5 29q4 84 -28.5 114z" />
    <glyph glyph-name="uni069E.medi" unicode="&#x69e;" horiz-adv-x="924" 
d="M598 635l-80 65l64 80l80 -65zM601 578l64 80l79 -65l-63 -79zM537 509l-80 65l65 80l79 -65zM944 60l-20 -60q-41 0 -75.5 19.5t-60.5 55.5q-48 -44 -133 -59.5t-213 -15.5h-135q-48 0 -81 14.5t-58 47.5q-28 -32 -69.5 -47t-98.5 -15l-20 63l31 81q68 0 98 22l-23 231
h122l10 -211q16 -29 54 -38q177 318 365 318q57 0 103.5 -28.5t73.5 -85.5t27 -138q0 -20 -3 -37q37 -33 97 -33zM712.5 301q-32.5 30 -78.5 30q-62 0 -121.5 -42.5t-144.5 -144.5h89q93 0 139 2.5t79.5 11.5t65.5 29q4 84 -28.5 114z" />
    <glyph glyph-name="uni069E.fina" unicode="&#x69e;" horiz-adv-x="1319" 
d="M993 635l-80 65l64 80l80 -65zM996 578l64 80l79 -65l-63 -79zM932 509l-79 65l64 80l79 -65zM1339 60l-20 -60q-81 0 -136 75q-47 -44 -132 -59.5t-214 -15.5h-135q-44 0 -73 23q1 -7 1 -24q0 -84 -43.5 -142.5t-115.5 -87t-159 -28.5q-138 0 -205 67t-67 190
q0 103 54 204l87 -26q-28 -77 -28 -156q0 -66 40.5 -101t130.5 -35q123 0 202 68q2 15 2 44q0 80 -25 148.5t-65 140.5l120 50q11 -31 25 -69.5t26 -59.5q25 -45 59 -56q177 316 364 316q57 0 103.5 -28.5t73.5 -85.5t27 -138q0 -13 -2 -37q37 -33 97 -33zM1107.5 301
q-32.5 30 -78.5 30q-62 0 -121.5 -42.5t-143.5 -144.5h88q94 0 140 2.5t79.5 11.5t64.5 29q4 84 -28.5 114z" />
    <glyph glyph-name="uni069F.init" unicode="&#x69f;" horiz-adv-x="765" 
d="M614.5 437.5q46.5 -28.5 73.5 -85.5t27 -138q0 -89 -50 -136t-135 -62.5t-214 -15.5h-316l-20 61l31 83h123l23 40l-28 578l126 14l8 -446q123 136 248 136q57 0 103.5 -28.5zM586.5 301q-32.5 30 -78.5 30q-63 0 -125 -43t-145 -144h92q94 0 140 2.5t79.5 11.5t65.5 29
q4 84 -28.5 114zM528 720l-63 -80l-80 65l63 80zM611 598l-63 -79l-80 64l64 80zM468 594l-64 -80l-80 65l65 80z" />
    <glyph glyph-name="uni069F.medi" unicode="&#x69f;" horiz-adv-x="811" 
d="M831 60l-20 -60q-43 0 -79 21.5t-63 61.5q-46 -49 -133 -66t-220 -17h-316l-20 61l31 83h123l23 40l-28 578l126 14l8 -446q123 136 248 136q57 0 103.5 -28.5t73.5 -85.5t27 -138q0 -17 -1 -26q40 -44 108 -44zM586.5 301q-32.5 30 -78.5 30q-63 0 -125 -43t-145 -144
h92q94 0 140 2.5t79.5 11.5t65.5 29q4 84 -28.5 114zM528 720l-63 -80l-80 65l63 80zM611 598l-63 -79l-80 64l64 80zM468 594l-64 -80l-80 65l65 80z" />
    <glyph glyph-name="uni069F.fina" unicode="&#x69f;" horiz-adv-x="848" 
d="M868 60l-20 -60q-43 0 -79 21.5t-63 61.5q-45 -49 -132 -66t-221 -17h-311l29 144h101l23 39l-28 579l126 14l8 -446q123 136 247 136q57 0 103.5 -28.5t73.5 -85.5t27 -138q0 -17 -1 -26q40 -44 109 -44zM623.5 301q-32.5 30 -78.5 30q-62 0 -124 -43t-145 -144h92
q94 0 140 2.5t79.5 11.5t64.5 29q4 84 -28.5 114zM565 720l-63 -80l-80 65l63 80zM648 598l-63 -79l-80 64l64 80zM505 594l-64 -80l-80 65l65 80z" />
    <glyph glyph-name="uni06A0.init" unicode="&#x6a0;" horiz-adv-x="566" 
d="M553 53q-129 -33 -218 -43t-188 -10h-147l-20 61l31 83h110h12q-33 35 -49.5 74.5t-16.5 77.5q0 49 26 92.5t77 70t123 26.5q36 0 77 -9t79 -30l-43 -134q-29 16 -59.5 24t-55.5 8q-104 0 -104 -79q0 -64 76 -118q60 4 118 15t157 35zM345 744l-63 -80l-80 65l63 80z
M428 622l-63 -79l-80 64l64 80zM285 618l-64 -80l-80 65l65 80z" />
    <glyph glyph-name="uni06A0.medi" unicode="&#x6a0;" horiz-adv-x="604" 
d="M624 62l-20 -62h-46q-69 0 -125.5 17.5t-108.5 58.5q-65 -36 -136 -56t-140 -20h-48l-20 64l31 80h19q111 0 201 23q-34 35 -70 66.5t-90 66.5l16 127q47 17 106 28.5t121 11.5q112 0 168.5 -38t56.5 -104q0 -41 -27.5 -86.5t-76.5 -87.5q19 -5 42 -6t67 -1h71zM343 209
q75 41 102 99q-15 16 -44 24.5t-83 8.5q-58 0 -124 -15q64 -42 149 -117zM363 732l-63 -80l-80 65l63 80zM446 610l-63 -79l-80 64l64 80zM303 606l-64 -80l-80 65l65 80z" />
    <glyph glyph-name="uni06A0.fina" unicode="&#x6a0;" horiz-adv-x="586" 
d="M207.5 6.5q-34.5 -26.5 -55.5 -57t-21 -67.5q0 -106 185 -106q52 0 113.5 12.5t104.5 32.5l49 -126q-52 -28 -127 -46t-143 -18q-106 0 -169 34.5t-88.5 86.5t-25.5 109q0 86 53 153.5t154 133.5q-40 42 -78.5 76.5t-99.5 75.5l17 131q45 16 104 26t124 10
q220 0 220 -140q0 -51 -27.5 -92.5t-83.5 -84.5q32 -6 136 -6h48l9 -81l-20 -63h-65q-65 0 -113.5 17.5t-98.5 60.5q-67 -45 -101.5 -71.5zM326 204q52 34 79.5 58.5t37.5 50.5q-49 23 -135 23q-64 0 -123 -14q44 -31 141 -118zM369 732l-63 -80l-80 65l63 80zM452 610
l-63 -79l-80 64l64 80zM309 606l-64 -80l-80 65l65 80z" />
    <glyph glyph-name="uni06A1.init" unicode="&#x6a1;" horiz-adv-x="475" 
d="M311 561q49 -39 81.5 -121.5t32.5 -203.5q0 -86 -42 -137.5t-135 -75t-248 -23.5l-20 63l31 81q152 0 216 8t96 29q2 34 2 47q-38 -30 -111 -30q-52 0 -94.5 23.5t-67 64.5t-24.5 92q0 55 27.5 106.5t71 83.5t87.5 32q48 0 97 -39zM155.5 336q30.5 -18 86.5 -18
q42 0 76 7q-12 70 -43 108.5t-68 38.5q-30 0 -56 -26.5t-26 -59.5q0 -32 30.5 -50z" />
    <glyph glyph-name="uni06A1.medi" unicode="&#x6a1;" horiz-adv-x="516" 
d="M536 62l-20 -62h-64q-44 0 -92.5 12.5t-94.5 35.5q-96 -48 -210 -48h-55l-20 62l31 82h91l35 -3q-64 71 -64 146q0 57 28 108.5t73 83t91 31.5q49 0 93.5 -31t72 -82.5t27.5 -107.5q0 -36 -17 -74.5t-49 -73.5l36 3h99zM221.5 363q-20.5 -14 -34 -38.5t-13.5 -52.5
q0 -37 25.5 -66t68.5 -45q40 16 63 44t23 67q0 29 -13 53.5t-34 38t-43 13.5t-42.5 -14z" />
    <glyph glyph-name="uni06A1.fina" unicode="&#x6a1;" horiz-adv-x="957" 
d="M977 62l-20 -62h-64q-45 0 -94.5 13t-96.5 37q-124 -61 -286 -67h-16h-10h-54l-1 2q-117 5 -180.5 28t-89 66.5t-25.5 117.5q0 39 10.5 81.5t28.5 80.5l86 -27q-17 -66 -17 -106q0 -41 21 -61.5t75.5 -28.5t163.5 -9q93 0 175 10q-69 72 -69 150q0 57 28 108.5t72.5 83
t91.5 31.5q49 0 93.5 -31t71.5 -82.5t27 -107.5q0 -37 -17.5 -75t-50.5 -73q6 0 16 0.5t23 2.5h99zM638.5 208q23.5 -28 64.5 -45q92 35 92 109q0 29 -13 53.5t-34 38t-43 13.5t-43 -14t-34 -38.5t-13 -52.5q0 -36 23.5 -64z" />
    <glyph glyph-name="uni06A2.init" unicode="&#x6a2;" horiz-adv-x="475" 
d="M311 561q49 -39 81.5 -121.5t32.5 -203.5q0 -86 -42 -137.5t-135 -75t-248 -23.5l-20 63l31 81q152 0 216 8t96 29q2 34 2 47q-38 -30 -111 -30q-52 0 -94.5 23.5t-67 64.5t-24.5 92q0 55 27.5 106.5t71 83.5t87.5 32q48 0 97 -39zM155.5 336q30.5 -18 86.5 -18
q42 0 76 7q-12 70 -43 108.5t-68 38.5q-30 0 -56 -26.5t-26 -59.5q0 -32 30.5 -50zM122 -150l77 97l98 -81l-76 -96z" />
    <glyph glyph-name="uni06A2.medi" unicode="&#x6a2;" horiz-adv-x="516" 
d="M536 62l-20 -62h-64q-44 0 -92.5 12.5t-94.5 35.5q-96 -48 -210 -48h-55l-20 62l31 82h91l35 -3q-64 71 -64 146q0 57 28 108.5t73 83t91 31.5q49 0 93.5 -31t72 -82.5t27.5 -107.5q0 -36 -17 -74.5t-49 -73.5l36 3h99zM221.5 363q-20.5 -14 -34 -38.5t-13.5 -52.5
q0 -37 25.5 -66t68.5 -45q40 16 63 44t23 67q0 29 -13 53.5t-34 38t-43 13.5t-42.5 -14zM177 -150l77 97l98 -81l-76 -96z" />
    <glyph glyph-name="uni06A2.fina" unicode="&#x6a2;" horiz-adv-x="957" 
d="M977 62l-20 -62h-64q-45 0 -94.5 13t-96.5 37q-124 -61 -286 -67h-16h-10h-54l-1 2q-117 5 -180.5 28t-89 66.5t-25.5 117.5q0 39 10.5 81.5t28.5 80.5l86 -27q-17 -66 -17 -106q0 -41 21 -61.5t75.5 -28.5t163.5 -9q93 0 175 10q-69 72 -69 150q0 57 28 108.5t72.5 83
t91.5 31.5q49 0 93.5 -31t71.5 -82.5t27 -107.5q0 -37 -17.5 -75t-50.5 -73q6 0 16 0.5t23 2.5h99zM638.5 208q23.5 -28 64.5 -45q92 35 92 109q0 29 -13 53.5t-34 38t-43 13.5t-43 -14t-34 -38.5t-13 -52.5q0 -36 23.5 -64zM619 -150l77 97l98 -81l-76 -96z" />
    <glyph glyph-name="uni06A3.init" unicode="&#x6a3;" horiz-adv-x="475" 
d="M311 561q49 -39 81.5 -121.5t32.5 -203.5q0 -86 -42 -137.5t-135 -75t-248 -23.5l-20 63l31 81q152 0 216 8t96 29q2 34 2 47q-38 -30 -111 -30q-52 0 -94.5 23.5t-67 64.5t-24.5 92q0 55 27.5 106.5t71 83.5t87.5 32q48 0 97 -39zM155.5 336q30.5 -18 86.5 -18
q42 0 76 7q-12 70 -43 108.5t-68 38.5q-30 0 -56 -26.5t-26 -59.5q0 -32 30.5 -50zM118 728l76 97l98 -81l-76 -96zM116 -150l77 97l98 -81l-76 -96z" />
    <glyph glyph-name="uni06A3.medi" unicode="&#x6a3;" horiz-adv-x="516" 
d="M536 62l-20 -62h-64q-44 0 -92.5 12.5t-94.5 35.5q-96 -48 -210 -48h-55l-20 62l31 82h91l35 -3q-64 71 -64 146q0 57 28 108.5t73 83t91 31.5q49 0 93.5 -31t72 -82.5t27.5 -107.5q0 -36 -17 -74.5t-49 -73.5l36 3h99zM221.5 363q-20.5 -14 -34 -38.5t-13.5 -52.5
q0 -37 25.5 -66t68.5 -45q40 16 63 44t23 67q0 29 -13 53.5t-34 38t-43 13.5t-42.5 -14zM167 635l76 97l98 -81l-76 -96zM178 -150l77 97l98 -81l-76 -96z" />
    <glyph glyph-name="uni06A3.fina" unicode="&#x6a3;" horiz-adv-x="957" 
d="M977 62l-20 -62h-64q-45 0 -94.5 13t-96.5 37q-124 -61 -286 -67h-16h-10h-54l-1 2q-117 5 -180.5 28t-89 66.5t-25.5 117.5q0 39 10.5 81.5t28.5 80.5l86 -27q-17 -66 -17 -106q0 -41 21 -61.5t75.5 -28.5t163.5 -9q93 0 175 10q-69 72 -69 150q0 57 28 108.5t72.5 83
t91.5 31.5q49 0 93.5 -31t71.5 -82.5t27 -107.5q0 -37 -17.5 -75t-50.5 -73q6 0 16 0.5t23 2.5h99zM638.5 208q23.5 -28 64.5 -45q92 35 92 109q0 29 -13 53.5t-34 38t-43 13.5t-43 -14t-34 -38.5t-13 -52.5q0 -36 23.5 -64zM608 632l76 97l98 -81l-76 -96zM623 -150l77 97
l98 -81l-76 -96z" />
    <glyph glyph-name="uni06A5.init" unicode="&#x6a5;" horiz-adv-x="475" 
d="M311 561q49 -39 81.5 -121.5t32.5 -203.5q0 -86 -42 -137.5t-135 -75t-248 -23.5l-20 63l31 81q152 0 216 8t96 29q2 34 2 47q-38 -30 -111 -30q-52 0 -94.5 23.5t-67 64.5t-24.5 92q0 55 27.5 106.5t71 83.5t87.5 32q48 0 97 -39zM155.5 336q30.5 -18 86.5 -18
q42 0 76 7q-12 70 -43 108.5t-68 38.5q-30 0 -56 -26.5t-26 -59.5q0 -32 30.5 -50zM205 -137l64 80l79 -65l-64 -80zM62 -141l63 79l80 -64l-64 -80zM144 -263l64 80l80 -65l-64 -80z" />
    <glyph glyph-name="uni06A5.medi" unicode="&#x6a5;" horiz-adv-x="516" 
d="M536 62l-20 -62h-64q-44 0 -92.5 12.5t-94.5 35.5q-96 -48 -210 -48h-55l-20 62l31 82h91l35 -3q-64 71 -64 146q0 57 28 108.5t73 83t91 31.5q49 0 93.5 -31t72 -82.5t27.5 -107.5q0 -36 -17 -74.5t-49 -73.5l36 3h99zM221.5 363q-20.5 -14 -34 -38.5t-13.5 -52.5
q0 -37 25.5 -66t68.5 -45q40 16 63 44t23 67q0 29 -13 53.5t-34 38t-43 13.5t-42.5 -14zM260 -137l64 80l79 -65l-64 -80zM117 -141l63 79l80 -64l-64 -80zM199 -263l64 80l80 -65l-64 -80z" />
    <glyph glyph-name="uni06A5.fina" unicode="&#x6a5;" horiz-adv-x="957" 
d="M977 62l-20 -62h-64q-45 0 -94.5 13t-96.5 37q-124 -61 -286 -67h-16h-10h-54l-1 2q-117 5 -180.5 28t-89 66.5t-25.5 117.5q0 39 10.5 81.5t28.5 80.5l86 -27q-17 -66 -17 -106q0 -41 21 -61.5t75.5 -28.5t163.5 -9q93 0 175 10q-69 72 -69 150q0 57 28 108.5t72.5 83
t91.5 31.5q49 0 93.5 -31t71.5 -82.5t27 -107.5q0 -37 -17.5 -75t-50.5 -73q6 0 16 0.5t23 2.5h99zM638.5 208q23.5 -28 64.5 -45q92 35 92 109q0 29 -13 53.5t-34 38t-43 13.5t-43 -14t-34 -38.5t-13 -52.5q0 -36 23.5 -64zM702 -137l64 80l79 -65l-64 -80zM559 -141l63 79
l80 -64l-64 -80zM641 -263l64 80l80 -65l-64 -80z" />
    <glyph glyph-name="uni06A7.init" unicode="&#x6a7;" horiz-adv-x="475" 
d="M311 561q49 -39 81.5 -121.5t32.5 -203.5q0 -86 -42 -137.5t-135 -75t-248 -23.5l-20 63l31 81q152 0 216 8t96 29q2 34 2 47q-38 -30 -111 -30q-52 0 -94.5 23.5t-67 64.5t-24.5 92q0 55 27.5 106.5t71 83.5t87.5 32q48 0 97 -39zM155.5 336q30.5 -18 86.5 -18
q42 0 76 7q-12 70 -43 108.5t-68 38.5q-30 0 -56 -26.5t-26 -59.5q0 -32 30.5 -50zM118 728l76 97l98 -81l-76 -96z" />
    <glyph glyph-name="uni06A7.medi" unicode="&#x6a7;" horiz-adv-x="516" 
d="M536 62l-20 -62h-64q-44 0 -92.5 12.5t-94.5 35.5q-96 -48 -210 -48h-55l-20 62l31 82h91l35 -3q-64 71 -64 146q0 57 28 108.5t73 83t91 31.5q49 0 93.5 -31t72 -82.5t27.5 -107.5q0 -36 -17 -74.5t-49 -73.5l36 3h99zM221.5 363q-20.5 -14 -34 -38.5t-13.5 -52.5
q0 -37 25.5 -66t68.5 -45q40 16 63 44t23 67q0 29 -13 53.5t-34 38t-43 13.5t-42.5 -14zM167 635l76 97l98 -81l-76 -96z" />
    <glyph glyph-name="uni06A7.fina" unicode="&#x6a7;" horiz-adv-x="807" 
d="M807 0h-90q-10 -118 -93.5 -190t-249.5 -72q-174 0 -254 65t-80 195q0 59 15.5 110.5t36.5 90.5l87 -25q-25 -67 -25 -153q0 -49 21.5 -79t72 -45t138.5 -15q82 0 135 20t91 50q2 34 2 48h-106q-52 0 -94.5 23.5t-67 65t-24.5 92.5q0 55 27.5 107t71 84t87.5 32
q41 0 82 -27t74 -85.5t46 -147.5h108l9 -83zM449 141.5q30 -16.5 87 -16.5q38 0 69 3q-13 73 -43 110t-61 37q-30 0 -56 -26.5t-26 -59.5q0 -31 30 -47.5zM413 531l76 97l98 -81l-76 -96z" />
    <glyph glyph-name="uni06A8.init" unicode="&#x6a8;" horiz-adv-x="475" 
d="M311 561q49 -39 81.5 -121.5t32.5 -203.5q0 -86 -42 -137.5t-135 -75t-248 -23.5l-20 63l31 81q152 0 216 8t96 29q2 34 2 47q-38 -30 -111 -30q-52 0 -94.5 23.5t-67 64.5t-24.5 92q0 55 27.5 106.5t71 83.5t87.5 32q48 0 97 -39zM155.5 336q30.5 -18 86.5 -18
q42 0 76 7q-12 70 -43 108.5t-68 38.5q-30 0 -56 -26.5t-26 -59.5q0 -32 30.5 -50zM268 858l-63 -80l-80 65l63 80zM351 736l-63 -79l-80 64l64 80zM208 732l-64 -80l-80 65l65 80z" />
    <glyph glyph-name="uni06A8.medi" unicode="&#x6a8;" horiz-adv-x="516" 
d="M536 62l-20 -62h-64q-44 0 -92.5 12.5t-94.5 35.5q-96 -48 -210 -48h-55l-20 62l31 82h91l35 -3q-64 71 -64 146q0 57 28 108.5t73 83t91 31.5q49 0 93.5 -31t72 -82.5t27.5 -107.5q0 -36 -17 -74.5t-49 -73.5l36 3h99zM221.5 363q-20.5 -14 -34 -38.5t-13.5 -52.5
q0 -37 25.5 -66t68.5 -45q40 16 63 44t23 67q0 29 -13 53.5t-34 38t-43 13.5t-42.5 -14zM317 765l-63 -80l-80 65l63 80zM400 643l-63 -79l-80 64l64 80zM257 639l-64 -80l-80 65l65 80z" />
    <glyph glyph-name="uni06A8.fina" unicode="&#x6a8;" horiz-adv-x="807" 
d="M807 0h-90q-10 -118 -93.5 -190t-249.5 -72q-174 0 -254 65t-80 195q0 59 15.5 110.5t36.5 90.5l87 -25q-25 -67 -25 -153q0 -49 21.5 -79t72 -45t138.5 -15q82 0 135 20t91 50q2 34 2 48h-106q-52 0 -94.5 23.5t-67 65t-24.5 92.5q0 55 27.5 107t71 84t87.5 32
q41 0 82 -27t74 -85.5t46 -147.5h108l9 -83zM449 141.5q30 -16.5 87 -16.5q38 0 69 3q-13 73 -43 110t-61 37q-30 0 -56 -26.5t-26 -59.5q0 -31 30 -47.5zM562 661l-63 -80l-80 65l63 80zM645 539l-63 -79l-80 64l64 80zM502 535l-64 -80l-80 65l65 80z" />
    <glyph glyph-name="uni06AA.init" unicode="&#x6aa;" horiz-adv-x="1173" 
d="M1050.5 355q72.5 -44 72.5 -151q0 -39 -28 -74.5t-74 -56.5q-75 -34 -251 -53.5t-449 -19.5h-321l-20 73l31 71q34 0 128 -2q189 -3 239 -3q238 0 371 10t180.5 21.5t88.5 28.5q0 39 -38.5 59t-131.5 20q-100 0 -278 -12q-172 -12 -255 -12q-72 0 -135.5 5.5t-96.5 13.5
l14 106q43 110 142 193.5t231 107.5l-22 -146q-81 -17 -145 -57t-104 -97q72 -5 130 -5q110 0 272 13q20 1 97.5 6t142.5 5q137 0 209.5 -44z" />
    <glyph glyph-name="uni06AA.medi" unicode="&#x6aa;" horiz-adv-x="1180" 
d="M1200 64l-20 -64q-117 0 -161 71v1q-76 -33 -251.5 -52.5t-446.5 -19.5h-321l-20 73l31 71q34 0 128 -2q189 -3 239 -3q238 0 371 10t180.5 21.5t88.5 28.5q0 39 -38.5 59t-131.5 20q-100 0 -278 -12q-172 -12 -255 -12q-72 0 -135.5 5.5t-96.5 13.5l14 106
q43 110 142 193.5t231 107.5l-22 -146q-81 -17 -145 -57t-104 -97q72 -5 130 -5q110 0 272 13q20 1 97.5 6t142.5 5q137 0 209.5 -44t72.5 -151q0 -26 -12 -50q34 -10 81 -10z" />
    <glyph glyph-name="uni06AA.fina" unicode="&#x6aa;" horiz-adv-x="1253" 
d="M1273 64l-20 -64q-68 0 -106 21t-55 50v1q-77 -33 -252.5 -52.5t-445.5 -19.5h-321l-40 144l91 -3q170 -6 312 -6q244 0 380 11t182.5 22.5t92.5 30.5q0 39 -38.5 59t-131.5 20q-98 0 -278 -12q-172 -12 -256 -12q-72 0 -135.5 5.5t-95.5 13.5l13 106q44 110 143 193.5
t231 107.5l-23 -146q-80 -17 -144.5 -57t-104.5 -97q73 -5 131 -5q110 0 272 13q20 1 97.5 6t142.5 5q136 0 209 -44t73 -151q0 -26 -12 -50q34 -10 80 -10z" />
    <glyph glyph-name="uni06AB.init" unicode="&#x6ab;" horiz-adv-x="461" 
d="M286 481q-26 25 -26 62l-120 -65q117 -84 176.5 -165.5t75.5 -181.5q-95 -131 -392 -131l-20 62l31 82q105 0 154 6.5t92 25.5q-21 51 -78.5 107.5t-180.5 140.5l26 120l404 225l-7 -137l-23 -13q19 -12 30 -31.5t11 -43.5q0 -38 -25.5 -63t-63.5 -25t-64 25z
M375.5 520.5q9.5 9.5 9.5 23.5t-9.5 23t-25.5 9t-25.5 -9t-9.5 -23q0 -13 9.5 -23t25.5 -10t25.5 9.5z" />
    <glyph glyph-name="uni06AB.medi" unicode="&#x6ab;" horiz-adv-x="529" 
d="M549 65l-20 -65q-77 0 -130 24.5t-107 86.5q-43 -54 -106.5 -82.5t-185.5 -28.5l-20 62l31 82q83 1 129 12.5t74 45.5l-182 226l26 115l404 226l-7 -131l-47 -26q32 -26 32 -68q0 -38 -26 -63t-64 -25q-34 0 -59 21t-29 54l-113 -62l160 -196q47 -58 76.5 -84t63 -35.5
t92.5 -9.5zM342 575l-19 -10q-7 -8 -7 -21q0 -14 9 -23.5t25 -9.5t25.5 9.5t9.5 23.5t-9.5 23t-25.5 9q-6 0 -8 -1z" />
    <glyph glyph-name="uni06AB.fina" unicode="&#x6ab;" horiz-adv-x="970" 
d="M990 65l-20 -65q-77 0 -130 24.5t-107 86.5q-41 -53 -110.5 -85.5t-205.5 -40.5l-1 -2h-43h-37l-1 2q-117 5 -180.5 28t-89 66.5t-25.5 117.5q0 39 10.5 81.5t28.5 80.5l86 -27q-17 -66 -17 -106q0 -38 18.5 -58.5t67 -29.5t143.5 -11q117 2 181.5 19.5t96.5 56.5
l-182 225l25 115l405 226l-7 -131l-44 -24q34 -26 34 -70q0 -38 -26 -63t-64 -25q-35 0 -60 21.5t-29 55.5l-118 -65l160 -195q47 -58 76.5 -84t63 -35.5t92.5 -9.5zM821.5 520.5q9.5 9.5 9.5 23.5t-9.5 23t-25.5 9t-25 -9t-9 -23t9 -23.5t25 -9.5t25.5 9.5z" />
    <glyph glyph-name="uni06AC.init" unicode="&#x6ac;" horiz-adv-x="461" 
d="M421 632l-281 -154q117 -84 176.5 -165.5t75.5 -181.5q-95 -131 -392 -131l-20 62l31 82q105 0 154 6.5t92 25.5q-21 51 -78.5 107.5t-180.5 140.5l26 120l404 225zM-30 767l76 97l98 -81l-76 -96z" />
    <glyph glyph-name="uni06AC.medi" unicode="&#x6ac;" horiz-adv-x="529" 
d="M549 65l-20 -65q-77 0 -130 24.5t-107 86.5q-43 -54 -106.5 -82.5t-185.5 -28.5l-20 62l31 82q83 1 129 12.5t74 45.5l-182 226l26 115l404 226l-7 -131l-306 -169l160 -196q47 -58 76.5 -84t63 -35.5t92.5 -9.5zM-3 767l76 97l98 -81l-76 -96z" />
    <glyph glyph-name="uni06AC.fina" unicode="&#x6ac;" horiz-adv-x="842" 
d="M862 65l-20 -65q-57 0 -95 15.5t-67 57.5q-56 -37 -119 -58.5t-144 -28.5l-1 -3q-32 0 -47 1q-11 -1 -33 -1l-1 2q-117 5 -180.5 28t-89 66.5t-25.5 117.5q0 39 10.5 81.5t28.5 80.5l86 -27q-17 -66 -17 -106q0 -38 18.5 -58.5t67 -29.5t143.5 -11q76 2 135 15t117 40
l-11 580l122 15v-527q0 -43 8.5 -65t32.5 -31.5t72 -9.5zM288 338q77 0 104.5 1.5t51.5 7.5q-5 15 -36.5 29t-90.5 29l15 74l171 100l-5 -86l-93 -49q99 -39 99 -100q0 -48 -61.5 -64.5t-142.5 -16.5zM584 897l76 97l98 -81l-76 -96z" />
    <glyph glyph-name="uni06AE.init" unicode="&#x6ae;" horiz-adv-x="461" 
d="M421 632l-281 -154q117 -84 176.5 -165.5t75.5 -181.5q-95 -131 -392 -131l-20 62l31 82q105 0 154 6.5t92 25.5q-21 51 -78.5 107.5t-180.5 140.5l26 120l404 225zM117 -137l64 80l79 -65l-64 -80zM-26 -141l63 79l80 -64l-64 -80zM56 -263l64 80l80 -65l-64 -80z" />
    <glyph glyph-name="uni06AE.medi" unicode="&#x6ae;" horiz-adv-x="529" 
d="M549 65l-20 -65q-77 0 -130 24.5t-107 86.5q-43 -54 -106.5 -82.5t-185.5 -28.5l-20 62l31 82q83 1 129 12.5t74 45.5l-182 226l26 115l404 226l-7 -131l-306 -169l160 -196q47 -58 76.5 -84t63 -35.5t92.5 -9.5zM144 -137l64 80l79 -65l-64 -80zM1 -141l63 79l80 -64
l-64 -80zM83 -263l64 80l80 -65l-64 -80z" />
    <glyph glyph-name="uni06AE.fina" unicode="&#x6ae;" horiz-adv-x="842" 
d="M862 65l-20 -65q-57 0 -95 15.5t-67 57.5q-56 -37 -119 -58.5t-144 -28.5l-1 -3q-32 0 -47 1q-11 -1 -33 -1l-1 2q-117 5 -180.5 28t-89 66.5t-25.5 117.5q0 39 10.5 81.5t28.5 80.5l86 -27q-17 -66 -17 -106q0 -38 18.5 -58.5t67 -29.5t143.5 -11q76 2 135 15t117 40
l-11 580l122 15v-527q0 -43 8.5 -65t32.5 -31.5t72 -9.5zM288 338q77 0 104.5 1.5t51.5 7.5q-5 15 -36.5 29t-90.5 29l15 74l171 100l-5 -86l-93 -49q99 -39 99 -100q0 -48 -61.5 -64.5t-142.5 -16.5zM373 -137l64 80l79 -65l-64 -80zM230 -141l63 79l80 -64l-64 -80z
M312 -263l64 80l80 -65l-64 -80z" />
    <glyph glyph-name="uni06B0.init" unicode="&#x6b0;" horiz-adv-x="461" 
d="M424 821l-395 -220l21 84l378 214zM291 483.5q-26 24.5 -26 62.5l-125 -68q117 -84 176.5 -165.5t75.5 -181.5q-95 -131 -392 -131l-20 62l31 82q105 0 154 6.5t92 25.5q-21 51 -78.5 107.5t-180.5 140.5l26 120l404 225l-7 -137l-19 -10q19 -12 30.5 -31.5t11.5 -44.5
q0 -38 -25.5 -62.5t-63.5 -24.5t-64 24.5zM380.5 523.5q9.5 9.5 9.5 22.5q0 15 -9.5 24t-25.5 9t-25.5 -9t-9.5 -24q0 -13 9.5 -22.5t25.5 -9.5t25.5 9.5z" />
    <glyph glyph-name="uni06B0.medi" unicode="&#x6b0;" horiz-adv-x="529" 
d="M453 821l-395 -220l20 84l379 214zM549 65l-20 -65q-77 0 -130 24.5t-107 86.5q-43 -54 -106.5 -82.5t-185.5 -28.5l-20 62l31 82q83 1 129 12.5t74 45.5l-182 226l26 115l404 226l-7 -131l-42 -23q32 -27 32 -69q0 -38 -25.5 -62.5t-63.5 -24.5q-35 0 -60 20.5t-29 54.5
l-118 -65l160 -196q47 -58 76.5 -84t63 -35.5t92.5 -9.5zM347 578l-18 -10q-8 -10 -8 -22q0 -13 9.5 -22.5t25.5 -9.5t25 9.5t9 22.5q0 15 -9 24t-25 9q-6 0 -9 -1z" />
    <glyph glyph-name="uni06B0.fina" unicode="&#x6b0;" horiz-adv-x="970" 
d="M899 821l-395 -220l21 84l379 214zM990 65l-20 -65q-77 0 -130 24.5t-107 86.5q-41 -53 -110.5 -85.5t-205.5 -40.5l-1 -2h-43h-37l-1 2q-117 5 -180.5 28t-89 66.5t-25.5 117.5q0 39 10.5 81.5t28.5 80.5l86 -27q-17 -66 -17 -106q0 -38 18.5 -58.5t67 -29.5t143.5 -11
q117 2 181.5 19.5t96.5 56.5l-182 225l25 115l405 226l-7 -131l-39 -22q34 -24 34 -70q0 -38 -25.5 -62.5t-63.5 -24.5q-35 0 -60.5 22t-29.5 56l-123 -69l160 -195q47 -58 76.5 -84t63 -35.5t92.5 -9.5zM827 523.5q9 9.5 9 22.5q0 15 -9 24t-25 9t-25.5 -9t-9.5 -24
q0 -13 9.5 -22.5t25.5 -9.5t25 9.5z" />
    <glyph glyph-name="uni06B2.init" unicode="&#x6b2;" horiz-adv-x="461" 
d="M424 821l-395 -220l21 84l378 214zM24 544l404 225l-7 -137l-281 -154q117 -84 176.5 -165.5t75.5 -181.5q-95 -131 -392 -131l-20 62l31 82q105 0 154 6.5t92 25.5q-21 51 -78.5 107.5t-180.5 140.5zM117 -139l68 85l86 -70l-69 -85zM-37 -144l68 85l85 -69l-68 -86z
" />
    <glyph glyph-name="uni06B2.medi" unicode="&#x6b2;" horiz-adv-x="529" 
d="M453 821l-395 -220l20 84l379 214zM549 65l-20 -65q-77 0 -130 24.5t-107 86.5q-43 -54 -106.5 -82.5t-185.5 -28.5l-20 62l31 82q83 1 129 12.5t74 45.5l-182 226l26 115l404 226l-7 -131l-306 -169l160 -196q47 -58 76.5 -84t63 -35.5t92.5 -9.5zM144 -139l68 85
l86 -70l-69 -85zM-10 -144l68 85l85 -69l-68 -86z" />
    <glyph glyph-name="uni06B2.fina" unicode="&#x6b2;" horiz-adv-x="970" 
d="M899 821l-395 -220l21 84l379 214zM990 65l-20 -65q-77 0 -130 24.5t-107 86.5q-41 -53 -110.5 -85.5t-205.5 -40.5l-1 -2h-43h-37l-1 2q-117 5 -180.5 28t-89 66.5t-25.5 117.5q0 39 10.5 81.5t28.5 80.5l86 -27q-17 -66 -17 -106q0 -38 18.5 -58.5t67 -29.5t143.5 -11
q117 2 181.5 19.5t96.5 56.5l-182 225l25 115l405 226l-7 -131l-307 -170l160 -195q47 -58 76.5 -84t63 -35.5t92.5 -9.5zM362 -139l68 85l86 -70l-69 -85zM208 -144l68 85l85 -69l-68 -86z" />
    <glyph glyph-name="uni06B4.init" unicode="&#x6b4;" horiz-adv-x="461" 
d="M424 821l-395 -220l21 84l378 214zM24 544l404 225l-7 -137l-281 -154q117 -84 176.5 -165.5t75.5 -181.5q-95 -131 -392 -131l-20 62l31 82q105 0 154 6.5t92 25.5q-21 51 -78.5 107.5t-180.5 140.5zM113 971l-63 -80l-80 65l63 80zM196 849l-63 -79l-80 64l64 80z
M53 845l-64 -80l-80 65l65 80z" />
    <glyph glyph-name="uni06B4.medi" unicode="&#x6b4;" horiz-adv-x="529" 
d="M453 821l-395 -220l20 84l379 214zM549 65l-20 -65q-77 0 -130 24.5t-107 86.5q-43 -54 -106.5 -82.5t-185.5 -28.5l-20 62l31 82q83 1 129 12.5t74 45.5l-182 226l26 115l404 226l-7 -131l-306 -169l160 -196q47 -58 76.5 -84t63 -35.5t92.5 -9.5zM110 970l-63 -80
l-80 65l63 80zM193 848l-63 -79l-80 64l64 80zM50 844l-64 -80l-80 65l65 80z" />
    <glyph glyph-name="uni06B4.fina" unicode="&#x6b4;" horiz-adv-x="970" 
d="M899 821l-395 -220l21 84l379 214zM990 65l-20 -65q-77 0 -130 24.5t-107 86.5q-41 -53 -110.5 -85.5t-205.5 -40.5l-1 -2h-43h-37l-1 2q-117 5 -180.5 28t-89 66.5t-25.5 117.5q0 39 10.5 81.5t28.5 80.5l86 -27q-17 -66 -17 -106q0 -38 18.5 -58.5t67 -29.5t143.5 -11
q117 2 181.5 19.5t96.5 56.5l-182 225l25 115l405 226l-7 -131l-307 -170l160 -195q47 -58 76.5 -84t63 -35.5t92.5 -9.5zM587 971l-63 -80l-80 65l63 80zM670 849l-63 -79l-80 64l64 80zM527 845l-64 -80l-80 65l65 80z" />
    <glyph glyph-name="uni06B5.init" unicode="&#x6b5;" horiz-adv-x="244" 
d="M-20 62l31 82q21 0 38 6.5t27 16.5l-22 595l122 14l10 -643q-21 -60 -68.5 -96.5t-117.5 -36.5zM115 888l51 86l61 -26l-80 -143h-65l-79 143l61 26z" />
    <glyph glyph-name="uni06B5.medi" unicode="&#x6b5;" horiz-adv-x="264" 
d="M284 63l-20 -63q-87 0 -131 59q-24 -33 -56.5 -46t-76.5 -13l-20 62l31 82q19 0 38.5 5.5t29.5 17.5l-11 595l121 15v-551q0 -47 19 -64.5t68 -17.5zM129 885l51 86l61 -26l-80 -143h-65l-79 143l61 26z" />
    <glyph glyph-name="uni06B5.fina" unicode="&#x6b5;" horiz-adv-x="728" 
d="M728 0q-53 0 -95 28l1 -71q-20 -46 -63 -86t-108.5 -65t-147.5 -25q-140 0 -207.5 66.5t-67.5 190.5q0 59 16 111.5t38 92.5l87 -25q-28 -77 -28 -157q0 -66 40.5 -100.5t130.5 -34.5q65 0 119 19t81 48l-27 770l126 14l8 -593q18 -20 44 -29.5t65 -9.5l8 -80zM563 885
l51 86l61 -26l-80 -143h-65l-79 143l61 26z" />
    <glyph glyph-name="uni06B6.init" unicode="&#x6b6;" horiz-adv-x="244" 
d="M-20 62l31 82q21 0 38 6.5t27 16.5l-22 595l122 14l10 -643q-21 -60 -68.5 -96.5t-117.5 -36.5zM19 900l76 97l98 -81l-76 -96z" />
    <glyph glyph-name="uni06B6.medi" unicode="&#x6b6;" horiz-adv-x="264" 
d="M284 63l-20 -63q-87 0 -131 59q-24 -33 -56.5 -46t-76.5 -13l-20 62l31 82q19 0 38.5 5.5t29.5 17.5l-11 595l121 15v-551q0 -47 19 -64.5t68 -17.5zM32 897l76 97l98 -81l-76 -96z" />
    <glyph glyph-name="uni06B6.fina" unicode="&#x6b6;" horiz-adv-x="728" 
d="M728 0q-53 0 -95 28l1 -71q-20 -46 -63 -86t-108.5 -65t-147.5 -25q-140 0 -207.5 66.5t-67.5 190.5q0 59 16 111.5t38 92.5l87 -25q-28 -77 -28 -157q0 -66 40.5 -100.5t130.5 -34.5q65 0 119 19t81 48l-27 770l126 14l8 -593q18 -20 44 -29.5t65 -9.5l8 -80zM467 897
l76 97l98 -81l-76 -96z" />
    <glyph glyph-name="uni06B7.init" unicode="&#x6b7;" horiz-adv-x="244" 
d="M-20 62l31 82q21 0 38 6.5t27 16.5l-22 595l122 14l10 -643q-21 -60 -68.5 -96.5t-117.5 -36.5zM168 1030l-63 -80l-80 65l63 80zM251 908l-63 -79l-80 64l64 80zM108 904l-64 -80l-80 65l65 80z" />
    <glyph glyph-name="uni06B7.medi" unicode="&#x6b7;" horiz-adv-x="264" 
d="M284 63l-20 -63q-87 0 -131 59q-24 -33 -56.5 -46t-76.5 -13l-20 62l31 82q19 0 38.5 5.5t29.5 17.5l-11 595l121 15v-551q0 -47 19 -64.5t68 -17.5zM182 1027l-63 -80l-80 65l63 80zM265 905l-63 -79l-80 64l64 80zM122 901l-64 -80l-80 65l65 80z" />
    <glyph glyph-name="uni06B7.fina" unicode="&#x6b7;" horiz-adv-x="728" 
d="M728 0q-53 0 -95 28l1 -71q-20 -46 -63 -86t-108.5 -65t-147.5 -25q-140 0 -207.5 66.5t-67.5 190.5q0 59 16 111.5t38 92.5l87 -25q-28 -77 -28 -157q0 -66 40.5 -100.5t130.5 -34.5q65 0 119 19t81 48l-27 770l126 14l8 -593q18 -20 44 -29.5t65 -9.5l8 -80zM616 1027
l-63 -80l-80 65l63 80zM699 905l-63 -79l-80 64l64 80zM556 901l-64 -80l-80 65l65 80z" />
    <glyph glyph-name="uni06B8.init" unicode="&#x6b8;" horiz-adv-x="244" 
d="M-20 62l31 82q21 0 38 6.5t27 16.5l-22 595l122 14l10 -643q-21 -60 -68.5 -96.5t-117.5 -36.5zM123 -137l64 80l79 -65l-64 -80zM-20 -141l63 79l80 -64l-64 -80zM62 -263l64 80l80 -65l-64 -80z" />
    <glyph glyph-name="uni06B8.medi" unicode="&#x6b8;" horiz-adv-x="264" 
d="M284 63l-20 -63q-87 0 -131 59q-24 -33 -56.5 -46t-76.5 -13l-20 62l31 82q19 0 38.5 5.5t29.5 17.5l-11 595l121 15v-551q0 -47 19 -64.5t68 -17.5zM127 -137l64 80l79 -65l-64 -80zM-16 -141l63 79l80 -64l-64 -80zM66 -263l64 80l80 -65l-64 -80z" />
    <glyph glyph-name="uni06B8.fina" unicode="&#x6b8;" horiz-adv-x="728" 
d="M728 0q-53 0 -95 28l1 -71q-20 -46 -63 -86t-108.5 -65t-147.5 -25q-140 0 -207.5 66.5t-67.5 190.5q0 59 16 111.5t38 92.5l87 -25q-28 -77 -28 -157q0 -66 40.5 -100.5t130.5 -34.5q65 0 119 19t81 48l-27 770l126 14l8 -593q18 -20 44 -29.5t65 -9.5l8 -80zM308 -353
l64 80l79 -65l-64 -80zM165 -357l63 79l80 -64l-64 -80zM247 -479l64 80l80 -65l-64 -80z" />
    <glyph glyph-name="uni06B9.init" unicode="&#x6b9;" horiz-adv-x="312" 
d="M-20 65l31 79q84 0 138 29q-3 43 -18.5 92t-43.5 117l135 39q39 -129 39 -225q0 -101 -64.5 -148.5t-196.5 -47.5zM56 -150l77 97l98 -81l-76 -96zM30 544l76 97l98 -81l-76 -96z" />
    <glyph glyph-name="uni06B9.medi" unicode="&#x6b9;" horiz-adv-x="314" 
d="M334 63l-20 -63q-50 0 -83 14.5t-57 47.5q-30 -32 -72.5 -47t-101.5 -15l-20 63l31 81q70 0 104 22l-26 172h122l12 -159q15 -19 39 -27t63 -8zM79 -150l77 97l98 -81l-76 -96zM53 474l76 97l98 -81l-76 -96z" />
    <glyph glyph-name="uni06B9.fina" unicode="&#x6b9;" horiz-adv-x="702" 
d="M702 0q-44 0 -73 23q1 -7 1 -24q0 -84 -43.5 -142.5t-115.5 -87t-159 -28.5q-138 0 -205 67t-67 190q0 103 54 204l87 -26q-28 -77 -28 -156q0 -66 40.5 -101t130.5 -35q123 0 202 68q2 15 2 44q0 80 -25 148.5t-65 140.5l120 50q11 -31 25 -69.5t26 -59.5q20 -38 44 -50
t60 -12l9 -82zM234 -397l77 97l98 -81l-76 -96zM224 394l76 97l98 -81l-76 -96z" />
    <glyph glyph-name="uni06BC.init" unicode="&#x6bc;" horiz-adv-x="312" 
d="M128 464l-98 81l76 96l98 -80zM225 -25q0 -38 -25.5 -62.5t-63.5 -24.5t-64 24.5t-26 62.5q0 16 4 27q-32 -2 -50 -2l-20 65l31 79q84 0 138 29q-3 43 -18.5 92t-43.5 117l135 39q39 -129 39 -225q0 -104 -69 -151q33 -26 33 -70zM161.5 -47.5q9.5 9.5 9.5 22.5
q0 15 -9.5 24t-25.5 9t-25.5 -9t-9.5 -24q0 -13 9.5 -22.5t25.5 -9.5t25.5 9.5z" />
    <glyph glyph-name="uni06BC.medi" unicode="&#x6bc;" horiz-adv-x="314" 
d="M151 394l-98 80l77 96l98 -80zM166 54q20 -12 31.5 -31.5t11.5 -44.5q0 -38 -25.5 -62.5t-63.5 -24.5t-64 24.5t-26 62.5q0 12 3 23q-11 -1 -33 -1l-20 63l31 81q70 0 104 22l-26 172h122l12 -159q15 -19 39 -27t63 -8l9 -81l-20 -63q-50 0 -83 14.5t-57 47.5
q-5 -3 -8 -8zM145 -44.5q9 9.5 9 22.5q0 14 -9 23.5t-25 9.5t-25.5 -9.5t-9.5 -23.5q0 -13 9.5 -22.5t25.5 -9.5t25 9.5z" />
    <glyph glyph-name="uni06BC.fina" unicode="&#x6bc;" horiz-adv-x="702" 
d="M322 314l-98 81l76 96l98 -81zM702 0q-44 0 -73 23q1 -7 1 -24q0 -105 -66.5 -169t-171.5 -82q7 -19 7 -36q0 -38 -25.5 -62.5t-63.5 -24.5t-64 24.5t-26 62.5q0 19 8 37q-95 19 -141.5 83t-46.5 166q0 103 54 204l87 -26q-28 -77 -28 -156q0 -66 40.5 -101t130.5 -35
q123 0 202 68q2 15 2 44q0 80 -25 148.5t-65 140.5l120 50q11 -31 25 -69.5t26 -59.5q20 -38 44 -50t60 -12l9 -82zM327 -259h-15h-19q-8 -4 -13 -11.5t-5 -17.5q0 -14 9.5 -23t25.5 -9t25 9.5t9 22.5q0 21 -17 29z" />
    <glyph glyph-name="uni06BD.init" unicode="&#x6bd;" horiz-adv-x="312" 
d="M-20 65l31 79q84 0 138 29q-3 43 -18.5 92t-43.5 117l135 39q39 -129 39 -225q0 -101 -64.5 -148.5t-196.5 -47.5zM180 674l-63 -80l-80 65l63 80zM263 552l-63 -79l-80 64l64 80zM120 548l-64 -80l-80 65l65 80z" />
    <glyph glyph-name="uni06BD.medi" unicode="&#x6bd;" horiz-adv-x="314" 
d="M334 63l-20 -63q-50 0 -83 14.5t-57 47.5q-30 -32 -72.5 -47t-101.5 -15l-20 63l31 81q70 0 104 22l-26 172h122l12 -159q15 -19 39 -27t63 -8zM203 604l-63 -80l-80 65l63 80zM286 482l-63 -79l-80 64l64 80zM143 478l-64 -80l-80 65l65 80z" />
    <glyph glyph-name="uni06BD.fina" unicode="&#x6bd;" horiz-adv-x="702" 
d="M702 0q-44 0 -73 23q1 -7 1 -24q0 -84 -43.5 -142.5t-115.5 -87t-159 -28.5q-138 0 -205 67t-67 190q0 103 54 204l87 -26q-28 -77 -28 -156q0 -66 40.5 -101t130.5 -35q123 0 202 68q2 15 2 44q0 80 -25 148.5t-65 140.5l120 50q11 -31 25 -69.5t26 -59.5q20 -38 44 -50
t60 -12l9 -82zM374 524l-63 -80l-80 65l63 80zM457 402l-63 -79l-80 64l64 80zM314 398l-64 -80l-80 65l65 80z" />
    <glyph glyph-name="uni06BF.init" unicode="&#x6bf;" horiz-adv-x="699" 
d="M298.5 473q41.5 -12 77.5 -30.5t98 -52.5q58 -33 100 -55t90 -41l-16 -128l-42 -3q-57 -5 -118 -24t-149 -53q-114 -43 -188.5 -64.5t-150.5 -21.5l-20 62l31 82q78 0 148 16.5t180 52.5q105 33 150 46q-90 49 -153 69.5t-116 20.5q-32 0 -63 -11.5t-58 -30.5l-53 119
q35 28 78.5 43.5t87.5 15.5q45 0 86.5 -12zM301 -137l64 80l79 -65l-64 -80zM158 -141l63 79l80 -64l-64 -80zM240 -263l64 80l80 -65l-64 -80zM138 613l76 97l98 -81l-76 -96z" />
    <glyph glyph-name="uni06BF.medi" unicode="&#x6bf;" horiz-adv-x="743" 
d="M763 60l-20 -60q-107 0 -175 43.5t-101 134.5q-54 -20 -152 -72q-69 -36 -113.5 -56.5t-96.5 -35t-105 -14.5l-20 62l31 82q66 0 125 17t144 51q105 44 184 63l-56 22q-70 28 -112 40t-86 12q-64 0 -121 -42l-54 119q35 28 79 43.5t87 15.5q63 0 117.5 -18t137.5 -55
q61 -27 104 -43.5t91 -29.5l-16 -131l-50 -3h-2q12 -30 29.5 -42.5t46.5 -15.5t96 -3zM390 -87l64 80l79 -65l-64 -80zM247 -91l63 79l80 -64l-64 -80zM329 -213l64 80l80 -65l-64 -80zM123 614l76 97l98 -81l-76 -96z" />
    <glyph glyph-name="uni06BF.fina" unicode="&#x6bf;" horiz-adv-x="683" 
d="M524.5 46q-62.5 46 -74.5 136q-108 -22 -180 -66.5t-105.5 -99.5t-33.5 -111t47.5 -92.5t156.5 -36.5q55 0 114.5 12.5t103.5 32.5l49 -126q-53 -29 -126.5 -46.5t-143.5 -17.5q-163 0 -232.5 74t-69.5 178q0 92 45.5 171.5t134.5 138t216 87.5q-78 38 -123.5 52
t-92.5 14q-32 0 -62.5 -10.5t-55.5 -28.5l-53 118q31 26 73 42t83 16q57 0 107 -18t126 -58q59 -30 101.5 -49.5t94.5 -36.5l-13 -118l-56 -5q6 -25 19 -36t38.5 -14t81.5 -4l9 -84l-20 -60q-96 0 -158.5 46zM492 8l-60 -74l-74 61l59 74zM358 5l-59 -75l-74 61l59 73z
M361 -48l74 -61l-59 -74l-74 60zM138 614l76 97l98 -81l-76 -96z" />
    <glyph glyph-name="uni06C2.fina" unicode="&#x6c2;" horiz-adv-x="589" 
d="M22 -32q40 199 101 281.5t146 82.5q40 0 68 -12t45 -29.5t40 -47.5q24 -33 43.5 -52.5t52.5 -33t82 -13.5l9 -84l-20 -60q-74 0 -120.5 18.5t-70 43.5t-48.5 64q-21 32 -37 46.5t-41 14.5q-48 0 -80 -55t-62 -187zM375 402l-217 -35l-3 60l61 10q-38 31 -38 66
q0 37 25.5 61.5t74.5 24.5q39 0 73 -18l-23 -68q-15 9 -25.5 12.5t-21.5 3.5q-16 0 -23 -8t-7 -19q0 -19 29 -45l92 15z" />
    <glyph glyph-name="uni06C3.fina" unicode="&#x6c3;" horiz-adv-x="589" 
d="M22 -32q40 199 101 281.5t146 82.5q40 0 68 -12t45 -29.5t40 -47.5q24 -33 43.5 -52.5t52.5 -33t82 -13.5l9 -84l-20 -60q-74 0 -120.5 18.5t-70 43.5t-48.5 64q-21 32 -37 46.5t-41 14.5q-48 0 -80 -55t-62 -187zM260 449l68 86l86 -70l-69 -86zM106 445l67 85l86 -70
l-68 -85z" />
    <glyph glyph-name="uni06C4.fina" unicode="&#x6c4;" horiz-adv-x="539" 
d="M539 0h-67q-21 -105 -112 -170.5t-269 -107.5l-51 132l29 6q-13 21 -13 45q0 35 23.5 57.5t57.5 22.5t57.5 -22.5t23.5 -57.5v-4q58 21 91 44.5t52 54.5h-38q-76 0 -130.5 24t-82.5 66t-28 94q0 56 27.5 107.5t71 83.5t87.5 32q41 0 84.5 -30.5t76.5 -90t44 -142.5h78
l8 -83zM375 135q-10 48 -29.5 80t-42 47.5t-42.5 15.5q-31 0 -56.5 -25t-25.5 -57q0 -30 26.5 -45.5t85.5 -15.5h84zM114 -115q8 -8 22 -9l20 6q12 7 12 23q0 13 -8.5 21.5t-22.5 8.5t-22.5 -8.5t-8.5 -21.5q0 -12 8 -20z" />
    <glyph glyph-name="uni06CA.fina" unicode="&#x6ca;" horiz-adv-x="539" 
d="M539 0h-67q-21 -105 -112 -170.5t-269 -107.5l-51 132q151 31 221 64.5t100 81.5h-38q-76 0 -130.5 24t-82.5 66t-28 94q0 56 27.5 107.5t71 83.5t87.5 32q41 0 84.5 -30.5t76.5 -90t44 -142.5h78l8 -83zM375 135q-10 48 -29.5 80t-42 47.5t-42.5 15.5q-31 0 -56.5 -25
t-25.5 -57q0 -30 26.5 -45.5t85.5 -15.5h84zM267 533l68 86l86 -70l-69 -86zM113 529l67 85l86 -70l-68 -85z" />
    <glyph glyph-name="uni06CD.fina" unicode="&#x6cd;" horiz-adv-x="767" 
d="M767 0q-32 0 -76 18q16 -26 16 -50q0 -49 -42 -92t-119.5 -69t-178.5 -26q-138 0 -205 67t-67 190q0 22 4 58q-46 -13 -88 -17l-15 85q78 23 152 78l87 -25q-28 -77 -28 -157q0 -66 40.5 -100.5t130.5 -34.5q85 0 144.5 13.5t95.5 33.5q-15 70 -183 101l64 117
q-9 2 79 -16q75 -16 117 -23t83 -7l9 -82z" />
    <glyph glyph-name="uni06CE.init" unicode="&#x6ce;" horiz-adv-x="312" 
d="M-20 65l31 79q84 0 138 29q-3 43 -18.5 92t-43.5 117l135 39q39 -129 39 -225q0 -101 -64.5 -148.5t-196.5 -47.5zM139 -139l68 85l86 -70l-69 -85zM-15 -144l68 85l85 -69l-68 -86zM127 532l51 86l61 -26l-80 -143h-65l-79 143l61 26z" />
    <glyph glyph-name="uni06CE.medi" unicode="&#x6ce;" horiz-adv-x="314" 
d="M334 63l-20 -63q-50 0 -83 14.5t-57 47.5q-30 -32 -72.5 -47t-101.5 -15l-20 63l31 81q70 0 104 22l-26 172h122l12 -159q15 -19 39 -27t63 -8zM162 -139l68 85l86 -70l-69 -85zM8 -144l68 85l85 -69l-68 -86zM150 462l51 86l61 -26l-80 -143h-65l-79 143l61 26z" />
    <glyph glyph-name="uni06CE.fina" unicode="&#x6ce;" horiz-adv-x="713" 
d="M713 0q-32 0 -76 18q15 -27 15 -50q0 -49 -42 -92t-119.5 -69t-178.5 -26q-138 0 -205 67t-67 190q0 59 16 111.5t38 92.5l87 -25q-28 -77 -28 -157q0 -66 40.5 -100.5t130.5 -34.5q85 0 144.5 13.5t95.5 33.5q-15 71 -184 101l64 117q25 -5 44.5 -9t33.5 -7
q76 -16 118.5 -23t83.5 -7l9 -82zM152 373l51 86l61 -26l-80 -143h-65l-79 143l61 26z" />
    <glyph glyph-name="uni06CF.fina" unicode="&#x6cf;" horiz-adv-x="539" 
d="M539 0h-67q-21 -105 -112 -170.5t-269 -107.5l-51 132q151 31 221 64.5t100 81.5h-38q-76 0 -130.5 24t-82.5 66t-28 94q0 56 27.5 107.5t71 83.5t87.5 32q41 0 84.5 -30.5t76.5 -90t44 -142.5h78l8 -83zM375 135q-10 48 -29.5 80t-42 47.5t-42.5 15.5q-31 0 -56.5 -25
t-25.5 -57q0 -30 26.5 -45.5t85.5 -15.5h84zM179 535l76 97l98 -81l-76 -96z" />
    <glyph glyph-name="uni06D1.init" unicode="&#x6d1;" horiz-adv-x="312" 
d="M-20 65l31 79q84 0 138 29q-3 43 -18.5 92t-43.5 117l135 39q39 -129 39 -225q0 -101 -64.5 -148.5t-196.5 -47.5zM139 -137l64 80l79 -65l-64 -80zM-4 -141l63 79l80 -64l-64 -80zM78 -263l64 80l80 -65l-64 -80z" />
    <glyph glyph-name="uni06D1.medi" unicode="&#x6d1;" horiz-adv-x="314" 
d="M334 63l-20 -63q-50 0 -83 14.5t-57 47.5q-30 -32 -72.5 -47t-101.5 -15l-20 63l31 81q70 0 104 22l-26 172h122l12 -159q15 -19 39 -27t63 -8zM162 -137l64 80l79 -65l-64 -80zM19 -141l63 79l80 -64l-64 -80zM101 -263l64 80l80 -65l-64 -80z" />
    <glyph glyph-name="uni06D1.fina" unicode="&#x6d1;" horiz-adv-x="713" 
d="M713 0q-32 0 -76 18q15 -27 15 -50q0 -49 -42 -92t-119.5 -69t-178.5 -26q-138 0 -205 67t-67 190q0 59 16 111.5t38 92.5l87 -25q-28 -77 -28 -157q0 -66 40.5 -100.5t130.5 -34.5q85 0 144.5 13.5t95.5 33.5q-15 71 -184 101l64 117q25 -5 44.5 -9t33.5 -7
q76 -16 118.5 -23t83.5 -7l9 -82zM312 -349l64 80l79 -65l-64 -80zM169 -353l63 79l80 -64l-64 -80zM251 -475l64 80l80 -65l-64 -80z" />
    <glyph glyph-name="uni06D5.fina" unicode="&#x6d5;" horiz-adv-x="520" 
d="M540 61l-20 -61h-22q-49 0 -88 19.5t-61 57.5q-28 -25 -70.5 -39.5t-85.5 -14.5q-54 0 -93 19.5t-58.5 51t-19.5 68.5q0 61 41 115t107.5 93t141.5 58l-5 83l118 14l9 -281q2 -59 19.5 -79.5t56.5 -20.5h21zM215 151q59 0 111 27l-7 127q-70 -13 -125 -45.5t-70 -80.5
q22 -28 91 -28z" />
    <glyph glyph-name="uni06EE.fina" unicode="&#x6ee;" horiz-adv-x="532" 
d="M552 64l-20 -64q-39 0 -74.5 16.5t-60.5 44.5q-42 -39 -93.5 -57t-125.5 -18q-86 0 -156 21l40 140q60 -17 128 -17q87 0 147 33l-163 310l137 62l109 -287q17 -44 31.5 -65.5t35 -30t56.5 -8.5zM124 598l79 143h65l80 -143l-61 -26l-51 86l-51 -86z" />
    <glyph glyph-name="uni06FA.init" unicode="&#x6fa;" horiz-adv-x="772" 
d="M712 291.5q10 -54.5 10 -113.5q0 -58 -25.5 -98.5t-64 -60t-79.5 -19.5q-45 0 -76.5 14.5t-55.5 46.5q-51 -61 -124 -61q-42 0 -71.5 15t-52.5 46q-60 -61 -173 -61l-20 63l31 81q41 0 65 4t39 14l-25 176h122l12 -159q27 -35 74 -35q35 0 63 18l-25 176h122l12 -159
q27 -35 77 -35q19 0 36.5 7t29.5 21q-2 35 -17 94t-38 120l121 39q23 -79 33 -133.5zM450 604l-63 -80l-80 65l63 80zM533 482l-63 -79l-80 64l64 80zM390 478l-64 -80l-80 65l65 80zM342 -150l77 97l98 -81l-76 -96z" />
    <glyph glyph-name="uni06FA.medi" unicode="&#x6fa;" horiz-adv-x="830" 
d="M850 64l-20 -64q-104 0 -150 56q-26 -26 -60 -41t-70 -15q-43 0 -74 14.5t-55 46.5q-51 -61 -124 -61q-42 0 -71.5 15t-52.5 46q-60 -61 -173 -61l-20 63l31 81q41 0 65 4t39 14l-25 176h122l12 -159q27 -35 74 -35q35 0 63 18l-25 176h122l12 -159q27 -35 74 -35
q43 0 65 27q-2 31 -14 94t-28 128l127 28q21 -133 23 -247q44 -30 125 -30zM450 604l-63 -80l-80 65l63 80zM533 482l-63 -79l-80 64l64 80zM390 478l-64 -80l-80 65l65 80zM339 -150l77 97l98 -81l-76 -96z" />
    <glyph glyph-name="uni06FA.fina" unicode="&#x6fa;" horiz-adv-x="1248" 
d="M1265 64l-20 -64q-104 0 -150 56q-26 -26 -60 -41t-70 -15q-44 0 -74.5 14.5t-55.5 47.5q-27 -31 -62 -46.5t-71 -15.5q-44 0 -73 23q1 -7 1 -24q0 -84 -43.5 -142.5t-115.5 -87t-159 -28.5q-138 0 -205 67t-67 190q0 103 54 204l87 -26q-28 -77 -28 -156
q0 -66 40.5 -101t130.5 -35q123 0 202 68q2 15 2 44q0 80 -25 148.5t-65 140.5l120 50q11 -31 25 -69.5t26 -59.5q20 -38 44 -50t60 -12q35 0 63 18l-25 176h122l12 -159q27 -35 74 -35q43 0 65 27q-2 32 -13.5 95.5t-25.5 126.5l127 28q19 -125 20 -247q45 -30 125 -30z
M863 604l-63 -80l-80 65l63 80zM946 482l-63 -79l-80 64l64 80zM803 478l-64 -80l-80 65l65 80zM798 -150l77 97l98 -81l-76 -96z" />
    <glyph glyph-name="uni06FB.init" unicode="&#x6fb;" horiz-adv-x="891" 
d="M610 505l-99 80l77 96l98 -80zM740.5 437.5q46.5 -28.5 73.5 -85.5t27 -138q0 -89 -50 -136t-135 -62.5t-214 -15.5h-135q-48 0 -81 14.5t-58 47.5q-28 -32 -69.5 -47t-98.5 -15l-20 63l31 81q68 0 98 22l-23 231h122l10 -211q16 -29 54 -38q177 318 365 318
q57 0 103.5 -28.5zM712.5 301q-32.5 30 -78.5 30q-62 0 -121.5 -42.5t-144.5 -144.5h89q93 0 139 2.5t79.5 11.5t65.5 29q4 84 -28.5 114zM457 -53l98 -81l-76 -96l-98 80z" />
    <glyph glyph-name="uni06FB.medi" unicode="&#x6fb;" horiz-adv-x="924" 
d="M610 505l-99 80l77 96l98 -80zM944 60l-20 -60q-41 0 -75.5 19.5t-60.5 55.5q-48 -44 -133 -59.5t-213 -15.5h-135q-48 0 -81 14.5t-58 47.5q-28 -32 -69.5 -47t-98.5 -15l-20 63l31 81q68 0 98 22l-23 231h122l10 -211q16 -29 54 -38q177 318 365 318q57 0 103.5 -28.5
t73.5 -85.5t27 -138q0 -20 -3 -37q37 -33 97 -33zM712.5 301q-32.5 30 -78.5 30q-62 0 -121.5 -42.5t-144.5 -144.5h89q93 0 139 2.5t79.5 11.5t65.5 29q4 84 -28.5 114zM457 -53l98 -81l-76 -96l-98 80z" />
    <glyph glyph-name="uni06FB.fina" unicode="&#x6fb;" horiz-adv-x="1319" 
d="M1005 505l-98 80l76 96l98 -80zM1339 60l-20 -60q-81 0 -136 75q-47 -44 -132 -59.5t-214 -15.5h-135q-44 0 -73 23q1 -7 1 -24q0 -84 -43.5 -142.5t-115.5 -87t-159 -28.5q-138 0 -205 67t-67 190q0 103 54 204l87 -26q-28 -77 -28 -156q0 -66 40.5 -101t130.5 -35
q123 0 202 68q2 15 2 44q0 80 -25 148.5t-65 140.5l120 50q11 -31 25 -69.5t26 -59.5q25 -45 59 -56q177 316 364 316q57 0 103.5 -28.5t73.5 -85.5t27 -138q0 -13 -2 -37q37 -33 97 -33zM1107.5 301q-32.5 30 -78.5 30q-62 0 -121.5 -42.5t-143.5 -144.5h88q94 0 140 2.5
t79.5 11.5t64.5 29q4 84 -28.5 114zM852 -53l98 -81l-76 -96l-98 80z" />
    <glyph glyph-name="uni06FC.init" unicode="&#x6fc;" horiz-adv-x="566" 
d="M553 53q-129 -33 -218 -43t-188 -10h-147l-20 61l31 83h110h12q-33 35 -49.5 74.5t-16.5 77.5q0 49 26 92.5t77 70t123 26.5q36 0 77 -9t79 -30l-43 -134q-29 16 -59.5 24t-55.5 8q-104 0 -104 -79q0 -64 76 -118q60 4 118 15t157 35zM196 614l76 97l98 -81l-76 -96z
M172 -150l77 97l98 -81l-76 -96z" />
    <glyph glyph-name="uni06FC.medi" unicode="&#x6fc;" horiz-adv-x="604" 
d="M624 62l-20 -62h-46q-69 0 -125.5 17.5t-108.5 58.5q-65 -36 -136 -56t-140 -20h-48l-20 64l31 80h19q111 0 201 23q-34 35 -70 66.5t-90 66.5l16 127q47 17 106 28.5t121 11.5q112 0 168.5 -38t56.5 -104q0 -41 -27.5 -86.5t-76.5 -87.5q19 -5 42 -6t67 -1h71zM343 209
q75 41 102 99q-15 16 -44 24.5t-83 8.5q-58 0 -124 -15q64 -42 149 -117zM213 602l76 97l98 -81l-76 -96zM243 -150l77 97l98 -81l-76 -96z" />
    <glyph glyph-name="uni06FC.fina" unicode="&#x6fc;" horiz-adv-x="586" 
d="M207.5 6.5q-34.5 -26.5 -55.5 -57t-21 -67.5q0 -106 185 -106q52 0 113.5 12.5t104.5 32.5l49 -126q-52 -28 -127 -46t-143 -18q-106 0 -169 34.5t-88.5 86.5t-25.5 109q0 86 53 153.5t154 133.5q-40 42 -78.5 76.5t-99.5 75.5l17 131q45 16 104 26t124 10
q220 0 220 -140q0 -51 -27.5 -92.5t-83.5 -84.5q32 -6 136 -6h48l9 -81l-20 -63h-65q-65 0 -113.5 17.5t-98.5 60.5q-67 -45 -101.5 -71.5zM326 204q52 34 79.5 58.5t37.5 50.5q-49 23 -135 23q-64 0 -123 -14q44 -31 141 -118zM220 602l76 97l98 -81l-76 -96zM248 -84
l77 97l98 -81l-76 -96z" />
    <glyph glyph-name="uni06FF.init" unicode="&#x6ff;" horiz-adv-x="651" 
d="M435 389q94 -73 130 -128t36 -117q0 -47 -24 -83.5t-65.5 -57t-92.5 -20.5q-107 0 -195 47q-77 -30 -175 -30h-49l-20 60l31 84h90q-38 61 -38 130q0 50 22.5 91.5t61.5 64.5l-58 35l68 112q184 -115 278 -188zM295 199q23 31 23 73q0 36 -26 61t-62 25
q-34 0 -58.5 -23.5t-24.5 -59.5q0 -38 22.5 -69.5t63.5 -52.5q39 15 62 46zM508 131q-3 28 -27 59t-79 73q-5 -83 -55 -146q27 -4 62 -4q62 0 99 18zM276 570l79 143h65l80 -143l-61 -26l-51 86l-51 -86z" />
    <glyph glyph-name="uni06FF.medi" unicode="&#x6ff;" horiz-adv-x="505" 
d="M505 0h-93q33 -25 49.5 -59t16.5 -72q0 -70 -44.5 -108.5t-110.5 -38.5q-63 0 -118.5 35t-91.5 98t-44 145h-69l-20 61l31 83h60q12 86 51.5 160t94.5 118t110 44q47 0 81.5 -24t52.5 -63t18 -83t-20.5 -84t-57.5 -68h116l8 -82zM256 309q-30 -23 -55 -66t-36 -99h33v-2
q18 -3 34 -3q62 0 101 34t39 85q0 30 -16.5 52t-44.5 22q-25 0 -55 -23zM377 -126q0 34 -17.5 64.5t-51 49.5t-77.5 19q-29 0 -43 -1l-2 -6h-26q12 -72 52 -109t94 -37q49 0 71 20zM212 525l79 143h65l80 -143l-61 -26l-51 86l-51 -86z" />
    <glyph glyph-name="uni06FF.fina" unicode="&#x6ff;" horiz-adv-x="596" 
d="M596 0h-93q33 -25 49 -59t16 -72q0 -70 -44 -108.5t-111 -38.5q-63 0 -118 35t-91 98.5t-44 145.5q-92 4 -145 37l54 128q33 -18 94 -21q12 86 51.5 159.5t94 117.5t109.5 44q47 0 81.5 -24t52.5 -63t18 -83t-20.5 -84t-57.5 -68h115l9 -82zM346.5 309
q-29.5 -23 -54.5 -66t-36 -99h24q20 -4 43 -4q62 0 100.5 34t38.5 84q0 30 -16.5 52t-44.5 22q-25 0 -54.5 -23zM468 -126q0 34 -18 64.5t-51 49.5t-77 19q-33 0 -71 -3q11 -74 51 -112t95 -38q49 0 71 20zM303 525l79 143h65l80 -143l-61 -26l-51 86l-51 -86z" />
    <glyph glyph-name="uniFB51" unicode="&#x671;" horiz-adv-x="257" arabic-form="final" 
d="M49 630l121 15v-403q0 -57 22 -77.5t76 -20.5l9 -81l-20 -63q-99 0 -147.5 52.5t-51.5 177.5zM225.5 838.5q23.5 -19.5 23.5 -55.5q0 -91 -120 -91q-29 0 -66 11l-17 -31l-55 18l29 83q28 -8 31 -9q22 49 55 71.5t66 22.5q30 0 53.5 -19.5zM188 777q0 19 -23 19
q-17 0 -34 -12.5t-30 -29.5q20 -3 38 -3q49 0 49 26z" />
    <glyph glyph-name="uniFB53" unicode="&#x67b;" horiz-adv-x="955" arabic-form="final" 
d="M964 65l-20 -65q-76 0 -120 16.5t-75 63.5q-73 -44 -148 -66.5t-184 -28.5l-1 -2h-42h-38l-1 2q-117 5 -180.5 28t-89 66.5t-25.5 117.5q0 39 10.5 81.5t28.5 80.5l86 -27q-17 -66 -17 -106q0 -39 19 -59t68 -29t146 -11q222 5 326 64l-43 154h128l12 -83q8 -52 20 -75.5
t41 -33t90 -9.5zM297 -133l65 83l83 -69l-66 -83zM334 -279l66 83l84 -68l-67 -83z" />
    <glyph glyph-name="uniFB54" unicode="&#x67b;" horiz-adv-x="312" arabic-form="initial" 
d="M-20 65l31 79q84 0 138 29q-3 43 -18.5 92t-43.5 117l135 39q39 -129 39 -225q0 -101 -64.5 -148.5t-196.5 -47.5zM61 -133l65 83l83 -69l-66 -83zM98 -279l66 83l84 -68l-67 -83z" />
    <glyph glyph-name="uniFB55" unicode="&#x67b;" horiz-adv-x="314" arabic-form="medial" 
d="M334 63l-20 -63q-50 0 -83 14.5t-57 47.5q-30 -32 -72.5 -47t-101.5 -15l-20 63l31 81q70 0 104 22l-26 172h122l12 -159q15 -19 39 -27t63 -8zM84 -133l65 83l83 -69l-66 -83zM121 -279l66 83l84 -68l-67 -83z" />
    <glyph glyph-name="uniFB57" unicode="&#x67e;" horiz-adv-x="955" arabic-form="final" 
d="M964 65l-20 -65q-76 0 -120 16.5t-75 63.5q-73 -44 -148 -66.5t-184 -28.5l-1 -2h-42h-38l-1 2q-117 5 -180.5 28t-89 66.5t-25.5 117.5q0 39 10.5 81.5t28.5 80.5l86 -27q-17 -66 -17 -106q0 -39 19 -59t68 -29t146 -11q222 5 326 64l-43 154h128l12 -83q8 -52 20 -75.5
t41 -33t90 -9.5zM375 -137l64 80l79 -65l-64 -80zM232 -141l63 79l80 -64l-64 -80zM314 -263l64 80l80 -65l-64 -80z" />
    <glyph glyph-name="uniFB58" unicode="&#x67e;" horiz-adv-x="312" arabic-form="initial" 
d="M-20 65l31 79q84 0 138 29q-3 43 -18.5 92t-43.5 117l135 39q39 -129 39 -225q0 -101 -64.5 -148.5t-196.5 -47.5zM139 -137l64 80l79 -65l-64 -80zM-4 -141l63 79l80 -64l-64 -80zM78 -263l64 80l80 -65l-64 -80z" />
    <glyph glyph-name="uniFB59" unicode="&#x67e;" horiz-adv-x="314" arabic-form="medial" 
d="M334 63l-20 -63q-50 0 -83 14.5t-57 47.5q-30 -32 -72.5 -47t-101.5 -15l-20 63l31 81q70 0 104 22l-26 172h122l12 -159q15 -19 39 -27t63 -8zM162 -137l64 80l79 -65l-64 -80zM19 -141l63 79l80 -64l-64 -80zM101 -263l64 80l80 -65l-64 -80z" />
    <glyph glyph-name="uniFB5B" unicode="&#x680;" horiz-adv-x="955" arabic-form="final" 
d="M964 65l-20 -65q-76 0 -120 16.5t-75 63.5q-73 -44 -148 -66.5t-184 -28.5l-1 -2h-42h-38l-1 2q-117 5 -180.5 28t-89 66.5t-25.5 117.5q0 39 10.5 81.5t28.5 80.5l86 -27q-17 -66 -17 -106q0 -39 19 -59t68 -29t146 -11q222 5 326 64l-43 154h128l12 -83q8 -52 20 -75.5
t41 -33t90 -9.5zM372 -107l56 70l71 -57l-57 -70zM252 -111l54 70l71 -57l-56 -70zM406 -230l56 70l69 -57l-54 -71zM284 -235l57 71l70 -58l-56 -70z" />
    <glyph glyph-name="uniFB5C" unicode="&#x680;" horiz-adv-x="312" arabic-form="initial" 
d="M-20 65l31 79q84 0 138 29q-3 43 -18.5 92t-43.5 117l135 39q39 -129 39 -225q0 -101 -64.5 -148.5t-196.5 -47.5zM136 -107l56 70l71 -57l-57 -70zM16 -111l54 70l71 -57l-56 -70zM170 -230l56 70l69 -57l-54 -71zM48 -235l57 71l70 -58l-56 -70z" />
    <glyph glyph-name="uniFB5D" unicode="&#x680;" horiz-adv-x="314" arabic-form="medial" 
d="M334 63l-20 -63q-50 0 -83 14.5t-57 47.5q-30 -32 -72.5 -47t-101.5 -15l-20 63l31 81q70 0 104 22l-26 172h122l12 -159q15 -19 39 -27t63 -8zM159 -107l56 70l71 -57l-57 -70zM39 -111l54 70l71 -57l-56 -70zM193 -230l56 70l69 -57l-54 -71zM71 -235l57 71l70 -58
l-56 -70z" />
    <glyph glyph-name="uniFB5F" unicode="&#x67a;" horiz-adv-x="944" arabic-form="final" 
d="M964 65l-20 -65q-76 0 -120 16.5t-75 63.5q-73 -44 -148 -66.5t-184 -28.5l-1 -2h-42h-38l-1 2q-117 5 -180.5 28t-89 66.5t-25.5 117.5q0 39 10.5 81.5t28.5 80.5l86 -27q-17 -66 -17 -106q0 -39 19 -59t68 -29t146 -11q222 5 326 64l-43 154h128l12 -83q8 -52 20 -75.5
t41 -33t90 -9.5zM330 559l65 83l83 -68l-66 -83zM367 413l66 83l84 -68l-67 -83z" />
    <glyph glyph-name="uniFB60" unicode="&#x67a;" horiz-adv-x="312" arabic-form="initial" 
d="M-20 65l31 79q84 0 138 29q-3 43 -18.5 92t-43.5 117l135 39q39 -129 39 -225q0 -101 -64.5 -148.5t-196.5 -47.5zM14 663l65 83l83 -68l-66 -83zM51 517l66 83l84 -68l-67 -83z" />
    <glyph glyph-name="uniFB61" unicode="&#x67a;" horiz-adv-x="314" arabic-form="medial" 
d="M334 63l-20 -63q-50 0 -83 14.5t-57 47.5q-30 -32 -72.5 -47t-101.5 -15l-20 63l31 81q70 0 104 22l-26 172h122l12 -159q15 -19 39 -27t63 -8zM37 593l65 83l83 -68l-66 -83zM74 447l66 83l84 -68l-67 -83z" />
    <glyph glyph-name="uniFB63" unicode="&#x67f;" horiz-adv-x="944" arabic-form="final" 
d="M964 65l-20 -65q-76 0 -120 16.5t-75 63.5q-73 -44 -148 -66.5t-184 -28.5l-1 -2h-42h-38l-1 2q-117 5 -180.5 28t-89 66.5t-25.5 117.5q0 39 10.5 81.5t28.5 80.5l86 -27q-17 -66 -17 -106q0 -39 19 -59t68 -29t146 -11q222 5 326 64l-43 154h128l12 -83q8 -52 20 -75.5
t41 -33t90 -9.5zM394 526l56 70l71 -57l-57 -71zM274 521l54 71l71 -58l-56 -70zM428 402l56 70l69 -57l-54 -70zM306 398l57 70l70 -57l-56 -70z" />
    <glyph glyph-name="uniFB64" unicode="&#x67f;" horiz-adv-x="312" arabic-form="initial" 
d="M-20 65l31 79q84 0 138 29q-3 43 -18.5 92t-43.5 117l135 39q39 -129 39 -225q0 -101 -64.5 -148.5t-196.5 -47.5zM79 630l56 70l71 -57l-57 -71zM-41 625l54 71l71 -58l-56 -70zM113 506l56 70l69 -57l-54 -70zM-9 502l57 70l70 -57l-56 -70z" />
    <glyph glyph-name="uniFB65" unicode="&#x67f;" horiz-adv-x="314" arabic-form="medial" 
d="M334 63l-20 -63q-50 0 -83 14.5t-57 47.5q-30 -32 -72.5 -47t-101.5 -15l-20 63l31 81q70 0 104 22l-26 172h122l12 -159q15 -19 39 -27t63 -8zM102 560l56 70l71 -57l-57 -71zM-18 555l54 71l71 -58l-56 -70zM136 436l56 70l69 -57l-54 -70zM14 432l57 70l70 -57
l-56 -70z" />
    <glyph glyph-name="uniFB67" unicode="&#x679;" horiz-adv-x="944" arabic-form="final" 
d="M964 65l-20 -65q-76 0 -120 16.5t-75 63.5q-73 -44 -148 -66.5t-184 -28.5l-1 -2h-42h-38l-1 2q-117 5 -180.5 28t-89 66.5t-25.5 117.5q0 39 10.5 81.5t28.5 80.5l86 -27q-17 -66 -17 -106q0 -39 19 -59t68 -29t146 -11q222 5 326 64l-43 154h128l12 -83q8 -52 20 -75.5
t41 -33t90 -9.5zM544 505q19 -25 19 -63q0 -30 -23 -57t-71 -27h-142l7 61h28l3 5l-11 148h59v-80q19 21 37 29.5t40 8.5q35 0 54 -25zM513 430q0 22 -6.5 30.5t-24.5 8.5q-37 0 -77 -50h44q46 0 64 11z" />
    <glyph glyph-name="uniFB68" unicode="&#x679;" horiz-adv-x="312" arabic-form="initial" 
d="M-20 65l31 79q84 0 138 29q-3 43 -18.5 92t-43.5 117l135 39q39 -129 39 -225q0 -101 -64.5 -148.5t-196.5 -47.5zM228 609q19 -25 19 -63q0 -30 -23 -57t-71 -27h-142l7 61h28l3 5l-11 148h59v-80q19 21 37 29.5t40 8.5q35 0 54 -25zM197 534q0 22 -6.5 30.5t-24.5 8.5
q-37 0 -77 -50h44q46 0 64 11z" />
    <glyph glyph-name="uniFB69" unicode="&#x679;" horiz-adv-x="314" arabic-form="medial" 
d="M334 63l-20 -63q-50 0 -83 14.5t-57 47.5q-30 -32 -72.5 -47t-101.5 -15l-20 63l31 81q70 0 104 22l-26 172h122l12 -159q15 -19 39 -27t63 -8zM251 539q19 -25 19 -63q0 -30 -23 -57t-71 -27h-142l7 61h28l3 5l-11 148h59v-80q19 21 37 29.5t40 8.5q35 0 54 -25z
M220 464q0 22 -6.5 30.5t-24.5 8.5q-37 0 -77 -50h44q46 0 64 11z" />
    <glyph glyph-name="uniFB6B" unicode="&#x6a4;" horiz-adv-x="957" arabic-form="final" 
d="M977 62l-20 -62h-64q-45 0 -94.5 13t-96.5 37q-124 -61 -286 -67h-16h-10h-54l-1 2q-117 5 -180.5 28t-89 66.5t-25.5 117.5q0 39 10.5 81.5t28.5 80.5l86 -27q-17 -66 -17 -106q0 -41 21 -61.5t75.5 -28.5t163.5 -9q93 0 175 10q-69 72 -69 150q0 57 28 108.5t72.5 83
t91.5 31.5q49 0 93.5 -31t71.5 -82.5t27 -107.5q0 -37 -17.5 -75t-50.5 -73q6 0 16 0.5t23 2.5h99zM638.5 208q23.5 -28 64.5 -45q92 35 92 109q0 29 -13 53.5t-34 38t-43 13.5t-43 -14t-34 -38.5t-13 -52.5q0 -36 23.5 -64zM757 762l-63 -80l-80 65l63 80zM840 640l-63 -79
l-80 64l64 80zM697 636l-64 -80l-80 65l65 80z" />
    <glyph glyph-name="uniFB6C" unicode="&#x6a4;" horiz-adv-x="475" arabic-form="initial" 
d="M311 561q49 -39 81.5 -121.5t32.5 -203.5q0 -86 -42 -137.5t-135 -75t-248 -23.5l-20 63l31 81q152 0 216 8t96 29q2 34 2 47q-38 -30 -111 -30q-52 0 -94.5 23.5t-67 64.5t-24.5 92q0 55 27.5 106.5t71 83.5t87.5 32q48 0 97 -39zM155.5 336q30.5 -18 86.5 -18
q42 0 76 7q-12 70 -43 108.5t-68 38.5q-30 0 -56 -26.5t-26 -59.5q0 -32 30.5 -50zM268 858l-63 -80l-80 65l63 80zM351 736l-63 -79l-80 64l64 80zM208 732l-64 -80l-80 65l65 80z" />
    <glyph glyph-name="uniFB6D" unicode="&#x6a4;" horiz-adv-x="516" arabic-form="medial" 
d="M536 62l-20 -62h-64q-44 0 -92.5 12.5t-94.5 35.5q-96 -48 -210 -48h-55l-20 62l31 82h91l35 -3q-64 71 -64 146q0 57 28 108.5t73 83t91 31.5q49 0 93.5 -31t72 -82.5t27.5 -107.5q0 -36 -17 -74.5t-49 -73.5l36 3h99zM221.5 363q-20.5 -14 -34 -38.5t-13.5 -52.5
q0 -37 25.5 -66t68.5 -45q40 16 63 44t23 67q0 29 -13 53.5t-34 38t-43 13.5t-42.5 -14zM317 765l-63 -80l-80 65l63 80zM400 643l-63 -79l-80 64l64 80zM257 639l-64 -80l-80 65l65 80z" />
    <glyph glyph-name="uniFB6F" unicode="&#x6a6;" horiz-adv-x="957" arabic-form="final" 
d="M977 62l-20 -62h-64q-45 0 -94.5 13t-96.5 37q-124 -61 -286 -67h-16h-10h-54l-1 2q-117 5 -180.5 28t-89 66.5t-25.5 117.5q0 39 10.5 81.5t28.5 80.5l86 -27q-17 -66 -17 -106q0 -41 21 -61.5t75.5 -28.5t163.5 -9q93 0 175 10q-69 72 -69 150q0 57 28 108.5t72.5 83
t91.5 31.5q49 0 93.5 -31t71.5 -82.5t27 -107.5q0 -37 -17.5 -75t-50.5 -73q6 0 16 0.5t23 2.5h99zM638.5 208q23.5 -28 64.5 -45q92 35 92 109q0 29 -13 53.5t-34 38t-43 13.5t-43 -14t-34 -38.5t-13 -52.5q0 -36 23.5 -64zM656 718l56 70l71 -57l-57 -71zM536 713l54 71
l71 -58l-56 -70zM690 594l56 70l69 -57l-54 -70zM568 590l57 70l70 -57l-56 -70z" />
    <glyph glyph-name="uniFB70" unicode="&#x6a6;" horiz-adv-x="475" arabic-form="initial" 
d="M311 561q49 -39 81.5 -121.5t32.5 -203.5q0 -86 -42 -137.5t-135 -75t-248 -23.5l-20 63l31 81q152 0 216 8t96 29q2 34 2 47q-38 -30 -111 -30q-52 0 -94.5 23.5t-67 64.5t-24.5 92q0 55 27.5 106.5t71 83.5t87.5 32q48 0 97 -39zM155.5 336q30.5 -18 86.5 -18
q42 0 76 7q-12 70 -43 108.5t-68 38.5q-30 0 -56 -26.5t-26 -59.5q0 -32 30.5 -50zM167 814l56 70l71 -57l-57 -71zM47 809l54 71l71 -58l-56 -70zM201 690l56 70l69 -57l-54 -70zM79 686l57 70l70 -57l-56 -70z" />
    <glyph glyph-name="uniFB71" unicode="&#x6a6;" horiz-adv-x="516" arabic-form="medial" 
d="M536 62l-20 -62h-64q-44 0 -92.5 12.5t-94.5 35.5q-96 -48 -210 -48h-55l-20 62l31 82h91l35 -3q-64 71 -64 146q0 57 28 108.5t73 83t91 31.5q49 0 93.5 -31t72 -82.5t27.5 -107.5q0 -36 -17 -74.5t-49 -73.5l36 3h99zM221.5 363q-20.5 -14 -34 -38.5t-13.5 -52.5
q0 -37 25.5 -66t68.5 -45q40 16 63 44t23 67q0 29 -13 53.5t-34 38t-43 13.5t-42.5 -14zM216 721l56 70l71 -57l-57 -71zM96 716l54 71l71 -58l-56 -70zM250 597l56 70l69 -57l-54 -70zM128 593l57 70l70 -57l-56 -70z" />
    <glyph glyph-name="uniFB73" unicode="&#x684;" horiz-adv-x="683" arabic-form="final" 
d="M270 115.5q-72 -44.5 -105.5 -99.5t-33.5 -111t47.5 -92.5t156.5 -36.5q55 0 114.5 12.5t103.5 32.5l49 -126q-53 -29 -126.5 -46.5t-143.5 -17.5q-163 0 -232.5 74t-69.5 178q0 92 45.5 171.5t134.5 138t216 87.5q-78 38 -123.5 52t-92.5 14q-32 0 -62.5 -10.5
t-55.5 -28.5l-53 118q31 26 73 42t83 16q57 0 107 -18t126 -58q59 -30 101.5 -49.5t94.5 -36.5l-13 -118l-56 -5q6 -25 19 -36t38.5 -14t81.5 -4l9 -84l-20 -60q-96 0 -158.5 46t-74.5 136q-108 -22 -180 -66.5zM289 12l66 83l83 -68l-66 -83zM327 -134l66 83l84 -68
l-67 -83z" />
    <glyph glyph-name="uniFB74" unicode="&#x684;" horiz-adv-x="699" arabic-form="initial" 
d="M298.5 473q41.5 -12 77.5 -30.5t98 -52.5q58 -33 100 -55t90 -41l-16 -128l-42 -3q-57 -5 -118 -24t-149 -53q-114 -43 -188.5 -64.5t-150.5 -21.5l-20 62l31 82q78 0 148 16.5t180 52.5q105 33 150 46q-90 49 -153 69.5t-116 20.5q-32 0 -63 -11.5t-58 -30.5l-53 119
q35 28 78.5 43.5t87.5 15.5q45 0 86.5 -12zM223 -133l65 83l83 -69l-66 -83zM260 -279l66 83l84 -68l-67 -83z" />
    <glyph glyph-name="uniFB75" unicode="&#x684;" horiz-adv-x="743" arabic-form="medial" 
d="M763 60l-20 -60q-107 0 -175 43.5t-101 134.5q-54 -20 -152 -72q-69 -36 -113.5 -56.5t-96.5 -35t-105 -14.5l-20 62l31 82q66 0 125 17t144 51q105 44 184 63l-56 22q-70 28 -112 40t-86 12q-64 0 -121 -42l-54 119q35 28 79 43.5t87 15.5q63 0 117.5 -18t137.5 -55
q61 -27 104 -43.5t91 -29.5l-16 -131l-50 -3h-2q12 -30 29.5 -42.5t46.5 -15.5t96 -3zM312 -83l65 83l83 -69l-66 -83zM349 -229l66 83l84 -68l-67 -83z" />
    <glyph glyph-name="uniFB77" unicode="&#x683;" horiz-adv-x="683" arabic-form="final" 
d="M270 115.5q-72 -44.5 -105.5 -99.5t-33.5 -111t47.5 -92.5t156.5 -36.5q55 0 114.5 12.5t103.5 32.5l49 -126q-53 -29 -126.5 -46.5t-143.5 -17.5q-163 0 -232.5 74t-69.5 178q0 92 45.5 171.5t134.5 138t216 87.5q-78 38 -123.5 52t-92.5 14q-32 0 -62.5 -10.5
t-55.5 -28.5l-53 118q31 26 73 42t83 16q57 0 107 -18t126 -58q59 -30 101.5 -49.5t94.5 -36.5l-13 -118l-56 -5q6 -25 19 -36t38.5 -14t81.5 -4l9 -84l-20 -60q-96 0 -158.5 46t-74.5 136q-108 -22 -180 -66.5zM366 -48l68 85l86 -70l-69 -85zM212 -53l68 85l85 -70
l-68 -85z" />
    <glyph glyph-name="uniFB78" unicode="&#x683;" horiz-adv-x="699" arabic-form="initial" 
d="M298.5 473q41.5 -12 77.5 -30.5t98 -52.5q58 -33 100 -55t90 -41l-16 -128l-42 -3q-57 -5 -118 -24t-149 -53q-114 -43 -188.5 -64.5t-150.5 -21.5l-20 62l31 82q78 0 148 16.5t180 52.5q105 33 150 46q-90 49 -153 69.5t-116 20.5q-32 0 -63 -11.5t-58 -30.5l-53 119
q35 28 78.5 43.5t87.5 15.5q45 0 86.5 -12zM301 -139l68 85l86 -70l-69 -85zM147 -144l68 85l85 -69l-68 -86z" />
    <glyph glyph-name="uniFB79" unicode="&#x683;" horiz-adv-x="743" arabic-form="medial" 
d="M763 60l-20 -60q-107 0 -175 43.5t-101 134.5q-54 -20 -152 -72q-69 -36 -113.5 -56.5t-96.5 -35t-105 -14.5l-20 62l31 82q66 0 125 17t144 51q105 44 184 63l-56 22q-70 28 -112 40t-86 12q-64 0 -121 -42l-54 119q35 28 79 43.5t87 15.5q63 0 117.5 -18t137.5 -55
q61 -27 104 -43.5t91 -29.5l-16 -131l-50 -3h-2q12 -30 29.5 -42.5t46.5 -15.5t96 -3zM390 -89l68 85l86 -70l-69 -85zM236 -94l68 85l85 -69l-68 -86z" />
    <glyph glyph-name="uniFB7B" unicode="&#x686;" horiz-adv-x="683" arabic-form="final" 
d="M524.5 46q-62.5 46 -74.5 136q-108 -22 -180 -66.5t-105.5 -99.5t-33.5 -111t47.5 -92.5t156.5 -36.5q55 0 114.5 12.5t103.5 32.5l49 -126q-53 -29 -126.5 -46.5t-143.5 -17.5q-163 0 -232.5 74t-69.5 178q0 92 45.5 171.5t134.5 138t216 87.5q-78 38 -123.5 52
t-92.5 14q-32 0 -62.5 -10.5t-55.5 -28.5l-53 118q31 26 73 42t83 16q57 0 107 -18t126 -58q59 -30 101.5 -49.5t94.5 -36.5l-13 -118l-56 -5q6 -25 19 -36t38.5 -14t81.5 -4l9 -84l-20 -60q-96 0 -158.5 46zM492 8l-60 -74l-74 61l59 74zM358 5l-59 -75l-74 61l59 73z
M361 -48l74 -61l-59 -74l-74 60z" />
    <glyph glyph-name="uniFB7C" unicode="&#x686;" horiz-adv-x="699" arabic-form="initial" 
d="M298.5 473q41.5 -12 77.5 -30.5t98 -52.5q58 -33 100 -55t90 -41l-16 -128l-42 -3q-57 -5 -118 -24t-149 -53q-114 -43 -188.5 -64.5t-150.5 -21.5l-20 62l31 82q78 0 148 16.5t180 52.5q105 33 150 46q-90 49 -153 69.5t-116 20.5q-32 0 -63 -11.5t-58 -30.5l-53 119
q35 28 78.5 43.5t87.5 15.5q45 0 86.5 -12zM301 -137l64 80l79 -65l-64 -80zM158 -141l63 79l80 -64l-64 -80zM240 -263l64 80l80 -65l-64 -80z" />
    <glyph glyph-name="uniFB7D" unicode="&#x686;" horiz-adv-x="743" arabic-form="medial" 
d="M763 60l-20 -60q-107 0 -175 43.5t-101 134.5q-54 -20 -152 -72q-69 -36 -113.5 -56.5t-96.5 -35t-105 -14.5l-20 62l31 82q66 0 125 17t144 51q105 44 184 63l-56 22q-70 28 -112 40t-86 12q-64 0 -121 -42l-54 119q35 28 79 43.5t87 15.5q63 0 117.5 -18t137.5 -55
q61 -27 104 -43.5t91 -29.5l-16 -131l-50 -3h-2q12 -30 29.5 -42.5t46.5 -15.5t96 -3zM390 -87l64 80l79 -65l-64 -80zM247 -91l63 79l80 -64l-64 -80zM329 -213l64 80l80 -65l-64 -80z" />
    <glyph glyph-name="uniFB7F" unicode="&#x687;" horiz-adv-x="683" arabic-form="final" 
d="M683 0q-96 0 -158.5 46t-74.5 136q-108 -22 -180 -66.5t-105.5 -99.5t-33.5 -111t47.5 -92.5t156.5 -36.5q55 0 114.5 12.5t103.5 32.5l49 -126q-53 -29 -126.5 -46.5t-143.5 -17.5q-163 0 -232.5 74t-69.5 178q0 92 45.5 171.5t134.5 138t216 87.5q-78 38 -123.5 52
t-92.5 14q-32 0 -62.5 -10.5t-55.5 -28.5l-53 118q31 26 73 42t83 16q57 0 107 -18t126 -58q59 -30 101.5 -49.5t94.5 -36.5l-13 -118l-56 -5q6 -25 19 -36t38.5 -14t81.5 -4l9 -84zM430 -40l-66 53l53 65l65 -53zM303 74l66 -53l-52 -65l-65 53zM461 -155l-65 53l52 66
l64 -54zM348 -159l-65 53l52 66l65 -54z" />
    <glyph glyph-name="uniFB80" unicode="&#x687;" horiz-adv-x="699" arabic-form="initial" 
d="M298.5 473q41.5 -12 77.5 -30.5t98 -52.5q58 -33 100 -55t90 -41l-16 -128l-42 -3q-57 -5 -118 -24t-149 -53q-114 -43 -188.5 -64.5t-150.5 -21.5l-20 62l31 82q78 0 148 16.5t180 52.5q105 33 150 46q-90 49 -153 69.5t-116 20.5q-32 0 -63 -11.5t-58 -30.5l-53 119
q35 28 78.5 43.5t87.5 15.5q45 0 86.5 -12zM298 -107l56 70l71 -57l-57 -70zM178 -111l54 70l71 -57l-56 -70zM332 -230l56 70l69 -57l-54 -71zM210 -235l57 71l70 -58l-56 -70z" />
    <glyph glyph-name="uniFB81" unicode="&#x687;" horiz-adv-x="743" arabic-form="medial" 
d="M763 60l-20 -60q-107 0 -175 43.5t-101 134.5q-54 -20 -152 -72q-69 -36 -113.5 -56.5t-96.5 -35t-105 -14.5l-20 62l31 82q66 0 125 17t144 51q105 44 184 63l-56 22q-70 28 -112 40t-86 12q-64 0 -121 -42l-54 119q35 28 79 43.5t87 15.5q63 0 117.5 -18t137.5 -55
q61 -27 104 -43.5t91 -29.5l-16 -131l-50 -3h-2q12 -30 29.5 -42.5t46.5 -15.5t96 -3zM387 -57l56 70l71 -57l-57 -70zM267 -61l54 70l71 -57l-56 -70zM421 -180l56 70l69 -57l-54 -71zM299 -185l57 71l70 -58l-56 -70z" />
    <glyph glyph-name="uniFB83" unicode="&#x68d;" horiz-adv-x="532" arabic-form="final" 
d="M552 64l-20 -64q-39 0 -74.5 16.5t-60.5 44.5q-42 -39 -93.5 -57t-125.5 -18q-86 0 -156 21l40 140q60 -17 128 -17q87 0 147 33l-163 310l137 62l109 -287q17 -44 31.5 -65.5t35 -30t56.5 -8.5zM224 -139l68 85l86 -70l-69 -85zM70 -144l68 85l85 -69l-68 -86z" />
    <glyph glyph-name="uniFB85" unicode="&#x68c;" horiz-adv-x="532" arabic-form="final" 
d="M552 64l-20 -64q-39 0 -74.5 16.5t-60.5 44.5q-42 -39 -93.5 -57t-125.5 -18q-86 0 -156 21l40 140q60 -17 128 -17q87 0 147 33l-163 310l137 62l109 -287q17 -44 31.5 -65.5t35 -30t56.5 -8.5zM228 655l68 86l86 -70l-69 -86zM74 651l67 85l86 -70l-68 -85z" />
    <glyph glyph-name="uniFB87" unicode="&#x68e;" horiz-adv-x="532" arabic-form="final" 
d="M552 64l-20 -64q-39 0 -74.5 16.5t-60.5 44.5q-42 -39 -93.5 -57t-125.5 -18q-86 0 -156 21l40 140q60 -17 128 -17q87 0 147 33l-163 310l137 62l109 -287q17 -44 31.5 -65.5t35 -30t56.5 -8.5zM289 787l-63 -80l-80 65l63 80zM372 665l-63 -79l-80 64l64 80zM229 661
l-64 -80l-80 65l65 80z" />
    <glyph glyph-name="uniFB89" unicode="&#x688;" horiz-adv-x="532" arabic-form="final" 
d="M552 64l-20 -64q-39 0 -74.5 16.5t-60.5 44.5q-42 -39 -93.5 -57t-125.5 -18q-86 0 -156 21l40 140q60 -17 128 -17q87 0 147 33l-163 310l137 62l109 -287q17 -44 31.5 -65.5t35 -30t56.5 -8.5zM338 722q19 -25 19 -63q0 -30 -23 -57t-71 -27h-142l7 61h28l3 5l-11 148
h59v-80q19 21 37 29.5t40 8.5q35 0 54 -25zM307 647q0 22 -6.5 30.5t-24.5 8.5q-37 0 -77 -50h44q46 0 64 11z" />
    <glyph glyph-name="uniFB8B" unicode="&#x698;" horiz-adv-x="445" arabic-form="final" 
d="M445 0q-58 0 -87 16q-44 -93 -131 -158.5t-233 -123.5l-64 137q132 46 208 87.5t139 107.5q-49 135 -113 238l135 65q1 -4 3 -8.5t4 -10.5q33 -88 39 -110q13 -41 26.5 -61t32.5 -27.5t52 -7.5l9 -82zM240 644l-63 -80l-80 65l63 80zM323 522l-63 -79l-80 64l64 80z
M180 518l-64 -80l-80 65l65 80z" />
    <glyph glyph-name="uniFB8D" unicode="&#x691;" horiz-adv-x="445" arabic-form="final" 
d="M445 0q-58 0 -87 16q-44 -93 -131 -158.5t-233 -123.5l-64 137q132 46 208 87.5t139 107.5q-49 135 -113 238l135 65q1 -4 3 -8.5t4 -10.5q33 -88 39 -110q13 -41 26.5 -61t32.5 -27.5t52 -7.5l9 -82zM288 579q19 -25 19 -63q0 -30 -23 -57t-71 -27h-142l7 61h28l3 5
l-11 148h59v-80q19 21 37 29.5t40 8.5q35 0 54 -25zM257 504q0 22 -6.5 30.5t-24.5 8.5q-37 0 -77 -50h44q46 0 64 11z" />
    <glyph glyph-name="uniFB8F" unicode="&#x6a9;" horiz-adv-x="970" arabic-form="final" 
d="M990 65l-20 -65q-77 0 -130 24.5t-107 86.5q-41 -53 -110.5 -85.5t-205.5 -40.5l-1 -2h-43h-37l-1 2q-117 5 -180.5 28t-89 66.5t-25.5 117.5q0 39 10.5 81.5t28.5 80.5l86 -27q-17 -66 -17 -106q0 -38 18.5 -58.5t67 -29.5t143.5 -11q117 2 181.5 19.5t96.5 56.5
l-182 225l25 115l405 226l-7 -131l-307 -170l160 -195q47 -58 76.5 -84t63 -35.5t92.5 -9.5z" />
    <glyph glyph-name="uniFB90" unicode="&#x6a9;" horiz-adv-x="461" arabic-form="initial" 
d="M421 632l-281 -154q117 -84 176.5 -165.5t75.5 -181.5q-95 -131 -392 -131l-20 62l31 82q105 0 154 6.5t92 25.5q-21 51 -78.5 107.5t-180.5 140.5l26 120l404 225z" />
    <glyph glyph-name="uniFB91" unicode="&#x6a9;" horiz-adv-x="529" arabic-form="medial" 
d="M549 65l-20 -65q-77 0 -130 24.5t-107 86.5q-43 -54 -106.5 -82.5t-185.5 -28.5l-20 62l31 82q83 1 129 12.5t74 45.5l-182 226l26 115l404 226l-7 -131l-306 -169l160 -196q47 -58 76.5 -84t63 -35.5t92.5 -9.5z" />
    <glyph glyph-name="uniFB93" unicode="&#x6af;" horiz-adv-x="970" arabic-form="final" 
d="M899 821l-395 -220l21 84l379 214zM990 65l-20 -65q-77 0 -130 24.5t-107 86.5q-41 -53 -110.5 -85.5t-205.5 -40.5l-1 -2h-43h-37l-1 2q-117 5 -180.5 28t-89 66.5t-25.5 117.5q0 39 10.5 81.5t28.5 80.5l86 -27q-17 -66 -17 -106q0 -38 18.5 -58.5t67 -29.5t143.5 -11
q117 2 181.5 19.5t96.5 56.5l-182 225l25 115l405 226l-7 -131l-307 -170l160 -195q47 -58 76.5 -84t63 -35.5t92.5 -9.5z" />
    <glyph glyph-name="uniFB94" unicode="&#x6af;" horiz-adv-x="461" arabic-form="initial" 
d="M424 821l-395 -220l21 84l378 214zM24 544l404 225l-7 -137l-281 -154q117 -84 176.5 -165.5t75.5 -181.5q-95 -131 -392 -131l-20 62l31 82q105 0 154 6.5t92 25.5q-21 51 -78.5 107.5t-180.5 140.5z" />
    <glyph glyph-name="uniFB95" unicode="&#x6af;" horiz-adv-x="529" arabic-form="medial" 
d="M453 821l-395 -220l20 84l379 214zM549 65l-20 -65q-77 0 -130 24.5t-107 86.5q-43 -54 -106.5 -82.5t-185.5 -28.5l-20 62l31 82q83 1 129 12.5t74 45.5l-182 226l26 115l404 226l-7 -131l-306 -169l160 -196q47 -58 76.5 -84t63 -35.5t92.5 -9.5z" />
    <glyph glyph-name="uniFB97" unicode="&#x6b3;" horiz-adv-x="970" arabic-form="final" 
d="M899 821l-395 -220l21 84l379 214zM990 65l-20 -65q-77 0 -130 24.5t-107 86.5q-41 -53 -110.5 -85.5t-205.5 -40.5l-1 -2h-43h-37l-1 2q-117 5 -180.5 28t-89 66.5t-25.5 117.5q0 39 10.5 81.5t28.5 80.5l86 -27q-17 -66 -17 -106q0 -38 18.5 -58.5t67 -29.5t143.5 -11
q117 2 181.5 19.5t96.5 56.5l-182 225l25 115l405 226l-7 -131l-307 -170l160 -195q47 -58 76.5 -84t63 -35.5t92.5 -9.5zM284 -133l65 83l83 -69l-66 -83zM321 -279l66 83l84 -68l-67 -83z" />
    <glyph glyph-name="uniFB98" unicode="&#x6b3;" horiz-adv-x="461" arabic-form="initial" 
d="M424 821l-395 -220l21 84l378 214zM24 544l404 225l-7 -137l-281 -154q117 -84 176.5 -165.5t75.5 -181.5q-95 -131 -392 -131l-20 62l31 82q105 0 154 6.5t92 25.5q-21 51 -78.5 107.5t-180.5 140.5zM39 -133l65 83l83 -69l-66 -83zM76 -279l66 83l84 -68l-67 -83z" />
    <glyph glyph-name="uniFB99" unicode="&#x6b3;" horiz-adv-x="529" arabic-form="medial" 
d="M453 821l-395 -220l20 84l379 214zM549 65l-20 -65q-77 0 -130 24.5t-107 86.5q-43 -54 -106.5 -82.5t-185.5 -28.5l-20 62l31 82q83 1 129 12.5t74 45.5l-182 226l26 115l404 226l-7 -131l-306 -169l160 -196q47 -58 76.5 -84t63 -35.5t92.5 -9.5zM67 -133l65 83l83 -69
l-66 -83zM104 -279l66 83l84 -68l-67 -83z" />
    <glyph glyph-name="uniFB9B" unicode="&#x6b1;" horiz-adv-x="970" arabic-form="final" 
d="M899 821l-395 -220l21 84l379 214zM990 65l-20 -65q-77 0 -130 24.5t-107 86.5q-41 -53 -110.5 -85.5t-205.5 -40.5l-1 -2h-43h-37l-1 2q-117 5 -180.5 28t-89 66.5t-25.5 117.5q0 39 10.5 81.5t28.5 80.5l86 -27q-17 -66 -17 -106q0 -38 18.5 -58.5t67 -29.5t143.5 -11
q117 2 181.5 19.5t96.5 56.5l-182 225l25 115l405 226l-7 -131l-307 -170l160 -195q47 -58 76.5 -84t63 -35.5t92.5 -9.5zM526 839l68 86l86 -70l-69 -86zM372 835l67 85l86 -70l-68 -85z" />
    <glyph glyph-name="uniFB9C" unicode="&#x6b1;" horiz-adv-x="461" arabic-form="initial" 
d="M424 821l-395 -220l21 84l378 214zM24 544l404 225l-7 -137l-281 -154q117 -84 176.5 -165.5t75.5 -181.5q-95 -131 -392 -131l-20 62l31 82q105 0 154 6.5t92 25.5q-21 51 -78.5 107.5t-180.5 140.5zM52 839l68 86l86 -70l-69 -86zM-102 835l67 85l86 -70l-68 -85z" />
    <glyph glyph-name="uniFB9D" unicode="&#x6b1;" horiz-adv-x="529" arabic-form="medial" 
d="M453 821l-395 -220l20 84l379 214zM549 65l-20 -65q-77 0 -130 24.5t-107 86.5q-43 -54 -106.5 -82.5t-185.5 -28.5l-20 62l31 82q83 1 129 12.5t74 45.5l-182 226l26 115l404 226l-7 -131l-306 -169l160 -196q47 -58 76.5 -84t63 -35.5t92.5 -9.5zM49 838l68 86l86 -70
l-69 -86zM-105 834l67 85l86 -70l-68 -85z" />
    <glyph glyph-name="uniFB9F" unicode="&#x6ba;" horiz-adv-x="702" arabic-form="final" 
d="M702 0q-44 0 -73 23q1 -7 1 -24q0 -84 -43.5 -142.5t-115.5 -87t-159 -28.5q-138 0 -205 67t-67 190q0 103 54 204l87 -26q-28 -77 -28 -156q0 -66 40.5 -101t130.5 -35q123 0 202 68q2 15 2 44q0 80 -25 148.5t-65 140.5l120 50q11 -31 25 -69.5t26 -59.5q20 -38 44 -50
t60 -12l9 -82z" />
    <glyph glyph-name="uniFBA1" unicode="&#x6bb;" horiz-adv-x="702" arabic-form="final" 
d="M702 0q-44 0 -73 23q1 -7 1 -24q0 -84 -43.5 -142.5t-115.5 -87t-159 -28.5q-138 0 -205 67t-67 190q0 103 54 204l87 -26q-28 -77 -28 -156q0 -66 40.5 -101t130.5 -35q123 0 202 68q2 15 2 44q0 80 -25 148.5t-65 140.5l120 50q11 -31 25 -69.5t26 -59.5q20 -38 44 -50
t60 -12l9 -82zM422 459q19 -25 19 -63q0 -30 -23 -57t-71 -27h-142l7 61h28l3 5l-11 148h59v-80q19 21 37 29.5t40 8.5q35 0 54 -25zM391 384q0 22 -6.5 30.5t-24.5 8.5q-37 0 -77 -50h44q46 0 64 11z" />
    <glyph glyph-name="uniFBA2" unicode="&#x6bb;" horiz-adv-x="312" arabic-form="initial" 
d="M-20 65l31 79q84 0 138 29q-3 43 -18.5 92t-43.5 117l135 39q39 -129 39 -225q0 -101 -64.5 -148.5t-196.5 -47.5zM228 609q19 -25 19 -63q0 -30 -23 -57t-71 -27h-142l7 61h28l3 5l-11 148h59v-80q19 21 37 29.5t40 8.5q35 0 54 -25zM197 534q0 22 -6.5 30.5t-24.5 8.5
q-37 0 -77 -50h44q46 0 64 11z" />
    <glyph glyph-name="uniFBA3" unicode="&#x6bb;" horiz-adv-x="314" arabic-form="medial" 
d="M334 63l-20 -63q-50 0 -83 14.5t-57 47.5q-30 -32 -72.5 -47t-101.5 -15l-20 63l31 81q70 0 104 22l-26 172h122l12 -159q15 -19 39 -27t63 -8zM251 539q19 -25 19 -63q0 -30 -23 -57t-71 -27h-142l7 61h28l3 5l-11 148h59v-80q19 21 37 29.5t40 8.5q35 0 54 -25z
M220 464q0 22 -6.5 30.5t-24.5 8.5q-37 0 -77 -50h44q46 0 64 11z" />
    <glyph glyph-name="uniFBA5" unicode="&#x6c0;" horiz-adv-x="520" arabic-form="final" 
d="M540 61l-20 -61h-22q-49 0 -88 19.5t-61 57.5q-28 -25 -70.5 -39.5t-85.5 -14.5q-54 0 -93 19.5t-58.5 51t-19.5 68.5q0 61 41 115t107.5 93t141.5 58l-5 83l118 14l9 -281q2 -59 19.5 -79.5t56.5 -20.5h21zM215 151q59 0 111 27l-7 127q-70 -13 -125 -45.5t-70 -80.5
q22 -28 91 -28zM480 604l-217 -35l-3 60l61 10q-38 31 -38 66q0 37 25.5 61.5t74.5 24.5q39 0 73 -18l-23 -68q-15 9 -25.5 12.5t-21.5 3.5q-16 0 -23 -8t-7 -19q0 -19 29 -45l92 15z" />
    <glyph glyph-name="uniFBA7" unicode="&#x6c1;" horiz-adv-x="589" arabic-form="final" 
d="M22 -32q40 199 101 281.5t146 82.5q40 0 68 -12t45 -29.5t40 -47.5q24 -33 43.5 -52.5t52.5 -33t82 -13.5l9 -84l-20 -60q-74 0 -120.5 18.5t-70 43.5t-48.5 64q-21 32 -37 46.5t-41 14.5q-48 0 -80 -55t-62 -187z" />
    <glyph glyph-name="uniFBA8" unicode="&#x6c1;" horiz-adv-x="312" arabic-form="initial" 
d="M-20 65l31 79q84 0 138 29q-3 43 -18.5 92t-43.5 117l135 39q39 -129 39 -225q0 -101 -64.5 -148.5t-196.5 -47.5zM56 -240q1 49 25 105.5t63 98.5l65 -12q-46 -112 -47 -222z" />
    <glyph glyph-name="uniFBA9" unicode="&#x6c1;" horiz-adv-x="612" arabic-form="medial" 
d="M632 62l-20 -62h-34q-156 0 -156 -141q0 -52 22 -142l-87 -34q-89 89 -136.5 175.5t-57.5 184.5q-22 -23 -53 -33t-76 -10h-34l-20 62l31 82h36q43 0 71.5 17.5t52 58.5t47.5 117l7 24l121 -30q-48 -150 -48 -241q0 -62 9.5 -103t40.5 -99q0 127 59.5 191.5t184.5 64.5
h31z" />
    <glyph glyph-name="uniFBAB" unicode="&#x6be;" horiz-adv-x="596" arabic-form="final" 
d="M596 0h-93q33 -25 49 -59t16 -72q0 -70 -44 -108.5t-111 -38.5q-63 0 -118 35t-91 98.5t-44 145.5q-92 4 -145 37l54 128q33 -18 94 -21q12 86 51.5 159.5t94 117.5t109.5 44q47 0 81.5 -24t52.5 -63t18 -83t-20.5 -84t-57.5 -68h115l9 -82zM346.5 309
q-29.5 -23 -54.5 -66t-36 -99h24q20 -4 43 -4q62 0 100.5 34t38.5 84q0 30 -16.5 52t-44.5 22q-25 0 -54.5 -23zM468 -126q0 34 -18 64.5t-51 49.5t-77 19q-33 0 -71 -3q11 -74 51 -112t95 -38q49 0 71 20z" />
    <glyph glyph-name="uniFBAC" unicode="&#x6be;" horiz-adv-x="651" arabic-form="initial" 
d="M435 389q94 -73 130 -128t36 -117q0 -47 -24 -83.5t-65.5 -57t-92.5 -20.5q-107 0 -195 47q-77 -30 -175 -30h-49l-20 60l31 84h90q-38 61 -38 130q0 50 22.5 91.5t61.5 64.5l-58 35l68 112q184 -115 278 -188zM295 199q23 31 23 73q0 36 -26 61t-62 25
q-34 0 -58.5 -23.5t-24.5 -59.5q0 -38 22.5 -69.5t63.5 -52.5q39 15 62 46zM508 131q-3 28 -27 59t-79 73q-5 -83 -55 -146q27 -4 62 -4q62 0 99 18z" />
    <glyph glyph-name="uniFBAD" unicode="&#x6be;" horiz-adv-x="505" arabic-form="medial" 
d="M505 0h-93q33 -25 49.5 -59t16.5 -72q0 -70 -44.5 -108.5t-110.5 -38.5q-63 0 -118.5 35t-91.5 98t-44 145h-69l-20 61l31 83h60q12 86 51.5 160t94.5 118t110 44q47 0 81.5 -24t52.5 -63t18 -83t-20.5 -84t-57.5 -68h116l8 -82zM256 309q-30 -23 -55 -66t-36 -99h33v-2
q18 -3 34 -3q62 0 101 34t39 85q0 30 -16.5 52t-44.5 22q-25 0 -55 -23zM377 -126q0 34 -17.5 64.5t-51 49.5t-77.5 19q-29 0 -43 -1l-2 -6h-26q12 -72 52 -109t94 -37q49 0 71 20z" />
    <glyph glyph-name="uniFBAF" unicode="&#x6d2;" horiz-adv-x="787" arabic-form="final" 
d="M229 -293q-70 0 -116.5 22.5t-68.5 58t-22 75.5q0 69 51 133.5t152.5 106t246.5 41.5h326l9 -82l-20 -62h-338q-106 0 -179.5 -16t-109.5 -42.5t-36 -57.5q0 -21 13.5 -31.5t50.5 -10.5h588l-42 -135h-505z" />
    <glyph glyph-name="uniFBB1" unicode="&#x6d3;" horiz-adv-x="787" arabic-form="final" 
d="M229 -293q-70 0 -116.5 22.5t-68.5 58t-22 75.5q0 69 51 133.5t152.5 106t246.5 41.5h326l9 -82l-20 -62h-338q-106 0 -179.5 -16t-109.5 -42.5t-36 -57.5q0 -21 13.5 -31.5t50.5 -10.5h588l-42 -135h-505zM367 251l-217 -35l-3 60l61 10q-38 31 -38 66q0 37 25.5 61.5
t74.5 24.5q39 0 73 -18l-23 -68q-15 9 -25.5 12.5t-21.5 3.5q-16 0 -23 -8t-7 -19q0 -19 29 -45l92 15z" />
    <glyph glyph-name="uniFBD4" unicode="&#x6ad;" horiz-adv-x="842" arabic-form="final" 
d="M862 65l-20 -65q-57 0 -95 15.5t-67 57.5q-56 -37 -119 -58.5t-144 -28.5l-1 -3q-32 0 -47 1q-11 -1 -33 -1l-1 2q-117 5 -180.5 28t-89 66.5t-25.5 117.5q0 39 10.5 81.5t28.5 80.5l86 -27q-17 -66 -17 -106q0 -38 18.5 -58.5t67 -29.5t143.5 -11q76 2 135 15t117 40
l-11 580l122 15v-527q0 -43 8.5 -65t32.5 -31.5t72 -9.5zM288 338q77 0 104.5 1.5t51.5 7.5q-5 15 -36.5 29t-90.5 29l15 74l171 100l-5 -86l-93 -49q99 -39 99 -100q0 -48 -61.5 -64.5t-142.5 -16.5zM734 1027l-63 -80l-80 65l63 80zM817 905l-63 -79l-80 64l64 80z
M674 901l-64 -80l-80 65l65 80z" />
    <glyph glyph-name="uniFBD5" unicode="&#x6ad;" horiz-adv-x="461" arabic-form="initial" 
d="M421 632l-281 -154q117 -84 176.5 -165.5t75.5 -181.5q-95 -131 -392 -131l-20 62l31 82q105 0 154 6.5t92 25.5q-21 51 -78.5 107.5t-180.5 140.5l26 120l404 225zM120 897l-63 -80l-80 65l63 80zM203 775l-63 -79l-80 64l64 80zM60 771l-64 -80l-80 65l65 80z" />
    <glyph glyph-name="uniFBD6" unicode="&#x6ad;" horiz-adv-x="529" arabic-form="medial" 
d="M549 65l-20 -65q-77 0 -130 24.5t-107 86.5q-43 -54 -106.5 -82.5t-185.5 -28.5l-20 62l31 82q83 1 129 12.5t74 45.5l-182 226l26 115l404 226l-7 -131l-306 -169l160 -196q47 -58 76.5 -84t63 -35.5t92.5 -9.5zM146 897l-63 -80l-80 65l63 80zM229 775l-63 -79l-80 64
l64 80zM86 771l-64 -80l-80 65l65 80z" />
    <glyph glyph-name="uniFBD8" unicode="&#x6c7;" horiz-adv-x="539" arabic-form="final" 
d="M539 0h-67q-21 -105 -112 -170.5t-269 -107.5l-51 132q151 31 221 64.5t100 81.5h-38q-76 0 -130.5 24t-82.5 66t-28 94q0 56 27.5 107.5t71 83.5t87.5 32q41 0 84.5 -30.5t76.5 -90t44 -142.5h78l8 -83zM375 135q-10 48 -29.5 80t-42 47.5t-42.5 15.5q-31 0 -56.5 -25
t-25.5 -57q0 -30 26.5 -45.5t85.5 -15.5h84zM348.5 655q20.5 -23 20.5 -58q0 -47 -36.5 -90.5t-122.5 -73.5l-29 58q45 13 74 31q-27 14 -40 33.5t-13 40.5q0 38 25.5 60t60.5 22q40 0 60.5 -23zM271 607q-6 -6 -6 -18q0 -21 29 -36q16 19 16 36q0 11 -6 17.5t-17 6.5
q-10 0 -16 -6z" />
    <glyph glyph-name="uniFBDA" unicode="&#x6c6;" horiz-adv-x="539" arabic-form="final" 
d="M539 0h-67q-21 -105 -112 -170.5t-269 -107.5l-51 132q151 31 221 64.5t100 81.5h-38q-76 0 -130.5 24t-82.5 66t-28 94q0 56 27.5 107.5t71 83.5t87.5 32q41 0 84.5 -30.5t76.5 -90t44 -142.5h78l8 -83zM375 135q-10 48 -29.5 80t-42 47.5t-42.5 15.5q-31 0 -56.5 -25
t-25.5 -57q0 -30 26.5 -45.5t85.5 -15.5h84zM275 523l51 86l61 -26l-80 -143h-65l-79 143l61 26z" />
    <glyph glyph-name="uniFBDC" unicode="&#x6c8;" horiz-adv-x="539" arabic-form="final" 
d="M539 0h-67q-21 -105 -112 -170.5t-269 -107.5l-51 132q151 31 221 64.5t100 81.5h-38q-76 0 -130.5 24t-82.5 66t-28 94q0 56 27.5 107.5t71 83.5t87.5 32q41 0 84.5 -30.5t76.5 -90t44 -142.5h78l8 -83zM375 135q-10 48 -29.5 80t-42 47.5t-42.5 15.5q-31 0 -56.5 -25
t-25.5 -57q0 -30 26.5 -45.5t85.5 -15.5h84zM306 639l7 -182h-70l-6 173z" />
    <glyph glyph-name="uniFBDF" unicode="&#x6cb;" horiz-adv-x="539" arabic-form="final" 
d="M539 0h-67q-21 -105 -112 -170.5t-269 -107.5l-51 132q151 31 221 64.5t100 81.5h-38q-76 0 -130.5 24t-82.5 66t-28 94q0 56 27.5 107.5t71 83.5t87.5 32q41 0 84.5 -30.5t76.5 -90t44 -142.5h78l8 -83zM375 135q-10 48 -29.5 80t-42 47.5t-42.5 15.5q-31 0 -56.5 -25
t-25.5 -57q0 -30 26.5 -45.5t85.5 -15.5h84zM328 665l-63 -80l-80 65l63 80zM411 543l-63 -79l-80 64l64 80zM268 539l-64 -80l-80 65l65 80z" />
    <glyph glyph-name="uniFBE1" unicode="&#x6c5;" horiz-adv-x="539" arabic-form="final" 
d="M539 0h-67q-21 -105 -112 -170.5t-269 -107.5l-51 132q113 23 183 49l-141 3l-36 59l273 -11q26 19 42 46h-38q-76 0 -130.5 24t-82.5 66t-28 94q0 56 27.5 107.5t71 83.5t87.5 32q41 0 84.5 -30.5t76.5 -90t44 -142.5h78l8 -83zM375 135q-10 48 -29.5 80t-42 47.5
t-42.5 15.5q-31 0 -56.5 -25t-25.5 -57q0 -30 26.5 -45.5t85.5 -15.5h84z" />
    <glyph glyph-name="uniFBE3" unicode="&#x6c9;" horiz-adv-x="539" arabic-form="final" 
d="M539 0h-67q-21 -105 -112 -170.5t-269 -107.5l-51 132q151 31 221 64.5t100 81.5h-38q-76 0 -130.5 24t-82.5 66t-28 94q0 56 27.5 107.5t71 83.5t87.5 32q41 0 84.5 -30.5t76.5 -90t44 -142.5h78l8 -83zM375 135q-10 48 -29.5 80t-42 47.5t-42.5 15.5q-31 0 -56.5 -25
t-25.5 -57q0 -30 26.5 -45.5t85.5 -15.5h84zM163 476l79 143h65l80 -143l-61 -26l-51 86l-51 -86z" />
    <glyph glyph-name="uniFBE5" unicode="&#x6d0;" horiz-adv-x="713" arabic-form="final" 
d="M713 0q-32 0 -76 18q15 -27 15 -50q0 -49 -42 -92t-119.5 -69t-178.5 -26q-138 0 -205 67t-67 190q0 59 16 111.5t38 92.5l87 -25q-28 -77 -28 -157q0 -66 40.5 -100.5t130.5 -34.5q85 0 144.5 13.5t95.5 33.5q-15 71 -184 101l64 117q25 -5 44.5 -9t33.5 -7
q76 -16 118.5 -23t83.5 -7l9 -82zM234 -345l65 83l83 -69l-66 -83zM271 -491l66 83l84 -68l-67 -83z" />
    <glyph glyph-name="uniFBE6" unicode="&#x6d0;" horiz-adv-x="312" arabic-form="initial" 
d="M-20 65l31 79q84 0 138 29q-3 43 -18.5 92t-43.5 117l135 39q39 -129 39 -225q0 -101 -64.5 -148.5t-196.5 -47.5zM61 -133l65 83l83 -69l-66 -83zM98 -279l66 83l84 -68l-67 -83z" />
    <glyph glyph-name="uniFBE7" unicode="&#x6d0;" horiz-adv-x="314" arabic-form="medial" 
d="M334 63l-20 -63q-50 0 -83 14.5t-57 47.5q-30 -32 -72.5 -47t-101.5 -15l-20 63l31 81q70 0 104 22l-26 172h122l12 -159q15 -19 39 -27t63 -8zM84 -133l65 83l83 -69l-66 -83zM121 -279l66 83l84 -68l-67 -83z" />
    <glyph glyph-name="uniFBE8" unicode="&#x649;" horiz-adv-x="312" arabic-form="initial" 
d="M-20 65l31 79q84 0 138 29q-3 43 -18.5 92t-43.5 117l135 39q39 -129 39 -225q0 -101 -64.5 -148.5t-196.5 -47.5z" />
    <glyph glyph-name="uniFBE9" unicode="&#x649;" horiz-adv-x="314" arabic-form="medial" 
d="M334 63l-20 -63q-50 0 -83 14.5t-57 47.5q-30 -32 -72.5 -47t-101.5 -15l-20 63l31 81q70 0 104 22l-26 172h122l12 -159q15 -19 39 -27t63 -8z" />
    <glyph glyph-name="uniFBFD" unicode="&#x6cc;" horiz-adv-x="713" arabic-form="final" 
d="M713 0q-32 0 -76 18q15 -27 15 -50q0 -49 -42 -92t-119.5 -69t-178.5 -26q-138 0 -205 67t-67 190q0 59 16 111.5t38 92.5l87 -25q-28 -77 -28 -157q0 -66 40.5 -100.5t130.5 -34.5q85 0 144.5 13.5t95.5 33.5q-15 71 -184 101l64 117q25 -5 44.5 -9t33.5 -7
q76 -16 118.5 -23t83.5 -7l9 -82z" />
    <glyph glyph-name="uniFBFE" unicode="&#x6cc;" horiz-adv-x="312" arabic-form="initial" 
d="M-20 65l31 79q84 0 138 29q-3 43 -18.5 92t-43.5 117l135 39q39 -129 39 -225q0 -101 -64.5 -148.5t-196.5 -47.5zM139 -139l68 85l86 -70l-69 -85zM-15 -144l68 85l85 -69l-68 -86z" />
    <glyph glyph-name="uniFBFF" unicode="&#x6cc;" horiz-adv-x="314" arabic-form="medial" 
d="M334 63l-20 -63q-50 0 -83 14.5t-57 47.5q-30 -32 -72.5 -47t-101.5 -15l-20 63l31 81q70 0 104 22l-26 172h122l12 -159q15 -19 39 -27t63 -8zM162 -139l68 85l86 -70l-69 -85zM8 -144l68 85l85 -69l-68 -86z" />
    <glyph glyph-name="uniFC5B" unicode="&#xfc5b;" horiz-adv-x="478" arabic-form="isolated" 
d="M88 -10.5q-42 6.5 -66 15.5l40 141q62 -18 130 -18q85 0 133 30q0 70 -54.5 145.5t-138.5 142.5l114 94q73 -76 132 -170.5t59 -193.5q0 -77 -44.5 -120t-103 -58t-112.5 -15q-47 0 -89 6.5zM67 656l76 97l98 -81l-76 -96zM175 1004l7 -182h-70l-6 173z" />
    <glyph glyph-name="uniFC5C" unicode="&#xfc5c;" horiz-adv-x="427" arabic-form="isolated" 
d="M-70 -129q121 38 209 85t128 88q-3 67 -24 130t-70 151l133 64q35 -88 53 -157.5t18 -140.5q0 -70 -51.5 -137.5t-138.5 -123.5t-193 -96zM228 627l7 -182h-70l-6 173z" />
    <glyph glyph-name="uniFC61" unicode="&#xfc61;" arabic-form="isolated" 
d="M267 709.5q6 -24.5 6 -42.5q0 -36 -20.5 -57t-55.5 -21q-38 0 -55 27q-20 -29 -60 -29q-27 0 -48.5 19t-21.5 55q0 34 16 69l53 -13q-6 -22 -6 -39q0 -25 19 -25q21 0 21 29v29h54v-31q0 -11 5 -17.5t14 -6.5q20 0 20 29q0 22 -10 50l55 18q8 -19 14 -43.5zM214.5 970
q20.5 -23 20.5 -58q0 -47 -36.5 -90.5t-122.5 -73.5l-29 58q45 13 74 31q-27 14 -40 33.5t-13 40.5q0 38 25.5 60t60.5 22q40 0 60.5 -23zM137 922q-6 -6 -6 -18q0 -21 29 -36q16 19 16 36q0 11 -6 17.5t-17 6.5q-10 0 -16 -6z" />
    <glyph glyph-name="uniFC63" unicode="&#xfc63;" arabic-form="isolated" 
d="M267 709.5q6 -24.5 6 -42.5q0 -36 -20.5 -57t-55.5 -21q-38 0 -55 27q-20 -29 -60 -29q-27 0 -48.5 19t-21.5 55q0 34 16 69l53 -13q-6 -22 -6 -39q0 -25 19 -25q21 0 21 29v29h54v-31q0 -11 5 -17.5t14 -6.5q20 0 20 29q0 22 -10 50l55 18q8 -19 14 -43.5zM173 955
l7 -182h-70l-6 173z" />
    <glyph glyph-name="uniFD3C" unicode="&#xfd3c;" horiz-adv-x="257" arabic-form="final" 
d="M49 630l121 15v-403q0 -57 22 -77.5t76 -20.5l9 -81l-20 -63q-99 0 -147.5 52.5t-51.5 177.5zM0 842l226 43l-2 -58l-226 -44zM0 740l226 43l-2 -58l-226 -44z" />
    <glyph glyph-name="uniFD3D" unicode="&#xfd3d;" horiz-adv-x="234" arabic-form="isolated" 
d="M61 -5l-28 635l132 15l10 -640zM-8 843l226 43l-2 -58l-226 -44zM-8 741l226 43l-2 -58l-226 -44z" />
    <glyph glyph-name="uniFE70" unicode="&#xfe70;" horiz-adv-x="600" arabic-form="isolated" 
d="M28 743l226 43l-2 -58l-226 -44zM28 641l226 43l-2 -58l-226 -44z" />
    <glyph glyph-name="uniFE72" unicode="&#xfe72;" horiz-adv-x="600" arabic-form="isolated" 
d="M298.5 784.5q20.5 -23.5 20.5 -58.5q0 -43 -34 -89.5t-103 -77.5l-53 25q0 40 -17 40q-13 0 -32 -20l-33 39q33 42 67 42q24 0 40 -16.5t21 -45.5q18 10 39 26q-61 28 -61 77q0 38 25.5 60t60.5 22q39 0 59.5 -23.5zM222 736.5q-6 -6.5 -6 -18.5q0 -22 30 -37
q14 20 14 37q0 11 -6 18t-16 7t-16 -6.5z" />
    <glyph glyph-name="uniFE74" unicode="&#xfe74;" horiz-adv-x="600" arabic-form="isolated" 
d="M31 -99l226 43l-2 -58l-226 -44zM32 -197l226 43l-2 -58l-226 -44z" />
    <glyph glyph-name="uniFE76" unicode="&#xfe76;" horiz-adv-x="600" arabic-form="isolated" 
d="M28 635l226 43l-2 -58l-226 -44z" />
    <glyph glyph-name="uniFE78" unicode="&#xfe78;" horiz-adv-x="600" arabic-form="isolated" 
d="M171.5 786q20.5 -23 20.5 -58q0 -47 -36.5 -90.5t-122.5 -73.5l-29 58q45 13 74 31q-27 14 -40 33.5t-13 40.5q0 38 25.5 60t60.5 22q40 0 60.5 -23zM94 738q-6 -6 -6 -18q0 -21 29 -36q16 19 16 36q0 11 -6 17.5t-17 6.5q-10 0 -16 -6z" />
    <glyph glyph-name="uniFE7C" unicode="&#xfe7c;" horiz-adv-x="600" arabic-form="isolated" 
d="M267 709.5q6 -24.5 6 -42.5q0 -36 -20.5 -57t-55.5 -21q-38 0 -55 27q-20 -29 -60 -29q-27 0 -48.5 19t-21.5 55q0 34 16 69l53 -13q-6 -22 -6 -39q0 -25 19 -25q21 0 21 29v29h54v-31q0 -11 5 -17.5t14 -6.5q20 0 20 29q0 22 -10 50l55 18q8 -19 14 -43.5z" />
    <glyph glyph-name="uniFE7E" unicode="&#xfe7e;" horiz-adv-x="600" arabic-form="isolated" 
d="M170 603q-29 -27 -70 -27t-70 27t-29 70t29 70t70 27t70 -27t29 -70t-29 -70zM129.5 700.5q-10.5 10.5 -29.5 10.5t-29.5 -10.5t-10.5 -27.5t10.5 -27.5t29.5 -10.5t29.5 10.5t10.5 27.5t-10.5 27.5z" />
    <glyph glyph-name="uniFE82" unicode="&#x622;" horiz-adv-x="257" arabic-form="final" 
d="M49 630l121 15v-403q0 -57 22 -77.5t76 -20.5l9 -81l-20 -63q-99 0 -147.5 52.5t-51.5 177.5zM-16 706q12 43 39.5 67.5t60.5 24.5q16 0 26 -3t22 -9q20 -10 35 -10q11 0 20 3t26 12l29 -50q-40 -40 -84 -40q-15 0 -27 5t-14 6q-20 9 -32 9q-14 0 -24 -8t-19 -25z" />
    <glyph glyph-name="uniFE84" unicode="&#x623;" horiz-adv-x="257" arabic-form="final" 
d="M49 630l121 15v-403q0 -57 22 -77.5t76 -20.5l9 -81l-20 -63q-99 0 -147.5 52.5t-51.5 177.5zM220 716l-217 -35l-3 60l61 10q-38 31 -38 66q0 37 25.5 61.5t74.5 24.5q39 0 73 -18l-23 -68q-15 9 -25.5 12.5t-21.5 3.5q-16 0 -23 -8t-7 -19q0 -19 29 -45l92 15z" />
    <glyph glyph-name="uniFE86" unicode="&#x624;" horiz-adv-x="539" arabic-form="final" 
d="M539 0h-67q-21 -105 -112 -170.5t-269 -107.5l-51 132q151 31 221 64.5t100 81.5h-38q-76 0 -130.5 24t-82.5 66t-28 94q0 56 27.5 107.5t71 83.5t87.5 32q41 0 84.5 -30.5t76.5 -90t44 -142.5h78l8 -83zM375 135q-10 48 -29.5 80t-42 47.5t-42.5 15.5q-31 0 -56.5 -25
t-25.5 -57q0 -30 26.5 -45.5t85.5 -15.5h84zM382 486l-217 -35l-3 60l61 10q-38 31 -38 66q0 37 25.5 61.5t74.5 24.5q39 0 73 -18l-23 -68q-15 9 -25.5 12.5t-21.5 3.5q-16 0 -23 -8t-7 -19q0 -19 29 -45l92 15z" />
    <glyph glyph-name="uniFE88" unicode="&#x625;" horiz-adv-x="257" arabic-form="final" 
d="M40 762l120 14l10 -537q1 -39 11 -59.5t30 -28t57 -7.5l9 -81l-20 -63q-99 0 -146.5 52.5t-51.5 177.5zM243 -228l-217 -35l-3 60l61 10q-38 31 -38 66q0 37 25.5 61.5t74.5 24.5q39 0 73 -18l-23 -68q-15 9 -25.5 12.5t-21.5 3.5q-16 0 -23 -8t-7 -19q0 -19 29 -45
l92 15z" />
    <glyph glyph-name="uniFE8A" unicode="&#x626;" horiz-adv-x="713" arabic-form="final" 
d="M713 0q-32 0 -76 18q15 -27 15 -50q0 -49 -42 -92t-119.5 -69t-178.5 -26q-138 0 -205 67t-67 190q0 59 16 111.5t38 92.5l87 -25q-28 -77 -28 -157q0 -66 40.5 -100.5t130.5 -34.5q85 0 144.5 13.5t95.5 33.5q-15 71 -184 101l64 117q25 -5 44.5 -9t33.5 -7
q76 -16 118.5 -23t83.5 -7l9 -82zM259 336l-217 -35l-3 60l61 10q-38 31 -38 66q0 37 25.5 61.5t74.5 24.5q39 0 73 -18l-23 -68q-15 9 -25.5 12.5t-21.5 3.5q-16 0 -23 -8t-7 -19q0 -19 29 -45l92 15z" />
    <glyph glyph-name="uniFE8B" unicode="&#x626;" horiz-adv-x="312" arabic-form="initial" 
d="M-20 65l31 79q84 0 138 29q-3 43 -18.5 92t-43.5 117l135 39q39 -129 39 -225q0 -101 -64.5 -148.5t-196.5 -47.5zM234 495l-217 -35l-3 60l61 10q-38 31 -38 66q0 37 25.5 61.5t74.5 24.5q39 0 73 -18l-23 -68q-15 9 -25.5 12.5t-21.5 3.5q-16 0 -23 -8t-7 -19
q0 -19 29 -45l92 15z" />
    <glyph glyph-name="uniFE8C" unicode="&#x626;" horiz-adv-x="314" arabic-form="medial" 
d="M334 63l-20 -63q-50 0 -83 14.5t-57 47.5q-30 -32 -72.5 -47t-101.5 -15l-20 63l31 81q70 0 104 22l-26 172h122l12 -159q15 -19 39 -27t63 -8zM257 425l-217 -35l-3 60l61 10q-38 31 -38 66q0 37 25.5 61.5t74.5 24.5q39 0 73 -18l-23 -68q-15 9 -25.5 12.5t-21.5 3.5
q-16 0 -23 -8t-7 -19q0 -19 29 -45l92 15z" />
    <glyph glyph-name="uniFE8E" unicode="&#x627;" horiz-adv-x="257" arabic-form="final" 
d="M40 762l120 14l10 -537q1 -39 11 -59.5t30 -28t57 -7.5l9 -81l-20 -63q-99 0 -146.5 52.5t-51.5 177.5z" />
    <glyph glyph-name="uniFE90" unicode="&#x628;" horiz-adv-x="955" arabic-form="final" 
d="M964 65l-20 -65q-76 0 -120 16.5t-75 63.5q-73 -44 -148 -66.5t-184 -28.5l-1 -2h-42h-38l-1 2q-117 5 -180.5 28t-89 66.5t-25.5 117.5q0 39 10.5 81.5t28.5 80.5l86 -27q-17 -66 -17 -106q0 -39 19 -59t68 -29t146 -11q222 5 326 64l-43 154h128l12 -83q8 -52 20 -75.5
t41 -33t90 -9.5zM292 -150l77 97l98 -81l-76 -96z" />
    <glyph glyph-name="uniFE91" unicode="&#x628;" horiz-adv-x="312" arabic-form="initial" 
d="M-20 65l31 79q84 0 138 29q-3 43 -18.5 92t-43.5 117l135 39q39 -129 39 -225q0 -101 -64.5 -148.5t-196.5 -47.5zM56 -150l77 97l98 -81l-76 -96z" />
    <glyph glyph-name="uniFE92" unicode="&#x628;" horiz-adv-x="314" arabic-form="medial" 
d="M334 63l-20 -63q-50 0 -83 14.5t-57 47.5q-30 -32 -72.5 -47t-101.5 -15l-20 63l31 81q70 0 104 22l-26 172h122l12 -159q15 -19 39 -27t63 -8zM79 -150l77 97l98 -81l-76 -96z" />
    <glyph glyph-name="uniFE94" unicode="&#x629;" horiz-adv-x="520" arabic-form="final" 
d="M540 61l-20 -61h-22q-49 0 -88 19.5t-61 57.5q-28 -25 -70.5 -39.5t-85.5 -14.5q-54 0 -93 19.5t-58.5 51t-19.5 68.5q0 61 41 115t107.5 93t141.5 58l-5 83l118 14l9 -281q2 -59 19.5 -79.5t56.5 -20.5h21zM215 151q59 0 111 27l-7 127q-70 -13 -125 -45.5t-70 -80.5
q22 -28 91 -28zM365 651l68 86l86 -70l-69 -86zM211 647l67 85l86 -70l-68 -85z" />
    <glyph glyph-name="uniFE96" unicode="&#x62a;" horiz-adv-x="944" arabic-form="final" 
d="M964 65l-20 -65q-76 0 -120 16.5t-75 63.5q-73 -44 -148 -66.5t-184 -28.5l-1 -2h-42h-38l-1 2q-117 5 -180.5 28t-89 66.5t-25.5 117.5q0 39 10.5 81.5t28.5 80.5l86 -27q-17 -66 -17 -106q0 -39 19 -59t68 -29t146 -11q222 5 326 64l-43 154h128l12 -83q8 -52 20 -75.5
t41 -33t90 -9.5zM434 438l68 86l86 -70l-69 -86zM280 434l67 85l86 -70l-68 -85z" />
    <glyph glyph-name="uniFE97" unicode="&#x62a;" horiz-adv-x="312" arabic-form="initial" 
d="M-20 65l31 79q84 0 138 29q-3 43 -18.5 92t-43.5 117l135 39q39 -129 39 -225q0 -101 -64.5 -148.5t-196.5 -47.5zM119 542l68 86l86 -70l-69 -86zM-35 538l67 85l86 -70l-68 -85z" />
    <glyph glyph-name="uniFE98" unicode="&#x62a;" horiz-adv-x="314" arabic-form="medial" 
d="M334 63l-20 -63q-50 0 -83 14.5t-57 47.5q-30 -32 -72.5 -47t-101.5 -15l-20 63l31 81q70 0 104 22l-26 172h122l12 -159q15 -19 39 -27t63 -8zM142 472l68 86l86 -70l-69 -86zM-12 468l67 85l86 -70l-68 -85z" />
    <glyph glyph-name="uniFE9A" unicode="&#x62b;" horiz-adv-x="955" arabic-form="final" 
d="M964 65l-20 -65q-76 0 -120 16.5t-75 63.5q-73 -44 -148 -66.5t-184 -28.5l-1 -2h-42h-38l-1 2q-117 5 -180.5 28t-89 66.5t-25.5 117.5q0 39 10.5 81.5t28.5 80.5l86 -27q-17 -66 -17 -106q0 -39 19 -59t68 -29t146 -11q222 5 326 64l-43 154h128l12 -83q8 -52 20 -75.5
t41 -33t90 -9.5zM506 570l-63 -80l-80 65l63 80zM589 448l-63 -79l-80 64l64 80zM446 444l-64 -80l-80 65l65 80z" />
    <glyph glyph-name="uniFE9B" unicode="&#x62b;" horiz-adv-x="312" arabic-form="initial" 
d="M-20 65l31 79q84 0 138 29q-3 43 -18.5 92t-43.5 117l135 39q39 -129 39 -225q0 -101 -64.5 -148.5t-196.5 -47.5zM180 674l-63 -80l-80 65l63 80zM263 552l-63 -79l-80 64l64 80zM120 548l-64 -80l-80 65l65 80z" />
    <glyph glyph-name="uniFE9C" unicode="&#x62b;" horiz-adv-x="314" arabic-form="medial" 
d="M334 63l-20 -63q-50 0 -83 14.5t-57 47.5q-30 -32 -72.5 -47t-101.5 -15l-20 63l31 81q70 0 104 22l-26 172h122l12 -159q15 -19 39 -27t63 -8zM203 604l-63 -80l-80 65l63 80zM286 482l-63 -79l-80 64l64 80zM143 478l-64 -80l-80 65l65 80z" />
    <glyph glyph-name="uniFE9E" unicode="&#x62c;" horiz-adv-x="683" arabic-form="final" 
d="M270 115.5q-72 -44.5 -105.5 -99.5t-33.5 -111t47.5 -92.5t156.5 -36.5q55 0 114.5 12.5t103.5 32.5l49 -126q-53 -29 -126.5 -46.5t-143.5 -17.5q-163 0 -232.5 74t-69.5 178q0 92 45.5 171.5t134.5 138t216 87.5q-78 38 -123.5 52t-92.5 14q-32 0 -62.5 -10.5
t-55.5 -28.5l-53 118q31 26 73 42t83 16q57 0 107 -18t126 -58q59 -30 101.5 -49.5t94.5 -36.5l-13 -118l-56 -5q6 -25 19 -36t38.5 -14t81.5 -4l9 -84l-20 -60q-96 0 -158.5 46t-74.5 136q-108 -22 -180 -66.5zM282 -51l77 97l98 -81l-76 -96z" />
    <glyph glyph-name="uniFE9F" unicode="&#x62c;" horiz-adv-x="699" arabic-form="initial" 
d="M298.5 473q41.5 -12 77.5 -30.5t98 -52.5q58 -33 100 -55t90 -41l-16 -128l-42 -3q-57 -5 -118 -24t-149 -53q-114 -43 -188.5 -64.5t-150.5 -21.5l-20 62l31 82q78 0 148 16.5t180 52.5q105 33 150 46q-90 49 -153 69.5t-116 20.5q-32 0 -63 -11.5t-58 -30.5l-53 119
q35 28 78.5 43.5t87.5 15.5q45 0 86.5 -12zM218 -150l77 97l98 -81l-76 -96z" />
    <glyph glyph-name="uniFEA0" unicode="&#x62c;" horiz-adv-x="743" arabic-form="medial" 
d="M763 60l-20 -60q-107 0 -175 43.5t-101 134.5q-54 -20 -152 -72q-69 -36 -113.5 -56.5t-96.5 -35t-105 -14.5l-20 62l31 82q66 0 125 17t144 51q105 44 184 63l-56 22q-70 28 -112 40t-86 12q-64 0 -121 -42l-54 119q35 28 79 43.5t87 15.5q63 0 117.5 -18t137.5 -55
q61 -27 104 -43.5t91 -29.5l-16 -131l-50 -3h-2q12 -30 29.5 -42.5t46.5 -15.5t96 -3zM307 -100l77 97l98 -81l-76 -96z" />
    <glyph glyph-name="uniFEA2" unicode="&#x62d;" horiz-adv-x="683" arabic-form="final" 
d="M270 115.5q-72 -44.5 -105.5 -99.5t-33.5 -111t47.5 -92.5t156.5 -36.5q55 0 114.5 12.5t103.5 32.5l49 -126q-53 -29 -126.5 -46.5t-143.5 -17.5q-163 0 -232.5 74t-69.5 178q0 92 45.5 171.5t134.5 138t216 87.5q-78 38 -123.5 52t-92.5 14q-32 0 -62.5 -10.5
t-55.5 -28.5l-53 118q31 26 73 42t83 16q57 0 107 -18t126 -58q59 -30 101.5 -49.5t94.5 -36.5l-13 -118l-56 -5q6 -25 19 -36t38.5 -14t81.5 -4l9 -84l-20 -60q-96 0 -158.5 46t-74.5 136q-108 -22 -180 -66.5z" />
    <glyph glyph-name="uniFEA3" unicode="&#x62d;" horiz-adv-x="699" arabic-form="initial" 
d="M298.5 473q41.5 -12 77.5 -30.5t98 -52.5q58 -33 100 -55t90 -41l-16 -128l-42 -3q-57 -5 -118 -24t-149 -53q-114 -43 -188.5 -64.5t-150.5 -21.5l-20 62l31 82q78 0 148 16.5t180 52.5q105 33 150 46q-90 49 -153 69.5t-116 20.5q-32 0 -63 -11.5t-58 -30.5l-53 119
q35 28 78.5 43.5t87.5 15.5q45 0 86.5 -12z" />
    <glyph glyph-name="uniFEA4" unicode="&#x62d;" horiz-adv-x="743" arabic-form="medial" 
d="M763 60l-20 -60q-107 0 -175 43.5t-101 134.5q-54 -20 -152 -72q-69 -36 -113.5 -56.5t-96.5 -35t-105 -14.5l-20 62l31 82q66 0 125 17t144 51q105 44 184 63l-56 22q-70 28 -112 40t-86 12q-64 0 -121 -42l-54 119q35 28 79 43.5t87 15.5q63 0 117.5 -18t137.5 -55
q61 -27 104 -43.5t91 -29.5l-16 -131l-50 -3h-2q12 -30 29.5 -42.5t46.5 -15.5t96 -3z" />
    <glyph glyph-name="uniFEA6" unicode="&#x62e;" horiz-adv-x="683" arabic-form="final" 
d="M270 115.5q-72 -44.5 -105.5 -99.5t-33.5 -111t47.5 -92.5t156.5 -36.5q55 0 114.5 12.5t103.5 32.5l49 -126q-53 -29 -126.5 -46.5t-143.5 -17.5q-163 0 -232.5 74t-69.5 178q0 92 45.5 171.5t134.5 138t216 87.5q-78 38 -123.5 52t-92.5 14q-32 0 -62.5 -10.5
t-55.5 -28.5l-53 118q31 26 73 42t83 16q57 0 107 -18t126 -58q59 -30 101.5 -49.5t94.5 -36.5l-13 -118l-56 -5q6 -25 19 -36t38.5 -14t81.5 -4l9 -84l-20 -60q-96 0 -158.5 46t-74.5 136q-108 -22 -180 -66.5zM138 614l76 97l98 -81l-76 -96z" />
    <glyph glyph-name="uniFEA7" unicode="&#x62e;" horiz-adv-x="699" arabic-form="initial" 
d="M298.5 473q41.5 -12 77.5 -30.5t98 -52.5q58 -33 100 -55t90 -41l-16 -128l-42 -3q-57 -5 -118 -24t-149 -53q-114 -43 -188.5 -64.5t-150.5 -21.5l-20 62l31 82q78 0 148 16.5t180 52.5q105 33 150 46q-90 49 -153 69.5t-116 20.5q-32 0 -63 -11.5t-58 -30.5l-53 119
q35 28 78.5 43.5t87.5 15.5q45 0 86.5 -12zM138 613l76 97l98 -81l-76 -96z" />
    <glyph glyph-name="uniFEA8" unicode="&#x62e;" horiz-adv-x="743" arabic-form="medial" 
d="M763 60l-20 -60q-107 0 -175 43.5t-101 134.5q-54 -20 -152 -72q-69 -36 -113.5 -56.5t-96.5 -35t-105 -14.5l-20 62l31 82q66 0 125 17t144 51q105 44 184 63l-56 22q-70 28 -112 40t-86 12q-64 0 -121 -42l-54 119q35 28 79 43.5t87 15.5q63 0 117.5 -18t137.5 -55
q61 -27 104 -43.5t91 -29.5l-16 -131l-50 -3h-2q12 -30 29.5 -42.5t46.5 -15.5t96 -3zM123 614l76 97l98 -81l-76 -96z" />
    <glyph glyph-name="uniFEAA" unicode="&#x62f;" horiz-adv-x="532" arabic-form="final" 
d="M552 64l-20 -64q-39 0 -74.5 16.5t-60.5 44.5q-42 -39 -93.5 -57t-125.5 -18q-86 0 -156 21l40 140q60 -17 128 -17q87 0 147 33l-163 310l137 62l109 -287q17 -44 31.5 -65.5t35 -30t56.5 -8.5z" />
    <glyph glyph-name="uniFEAC" unicode="&#x630;" horiz-adv-x="532" arabic-form="final" 
d="M552 64l-20 -64q-39 0 -74.5 16.5t-60.5 44.5q-42 -39 -93.5 -57t-125.5 -18q-86 0 -156 21l40 140q60 -17 128 -17q87 0 147 33l-163 310l137 62l109 -287q17 -44 31.5 -65.5t35 -30t56.5 -8.5zM140 657l76 97l98 -81l-76 -96z" />
    <glyph glyph-name="uniFEAE" unicode="&#x631;" horiz-adv-x="445" arabic-form="final" 
d="M445 0q-58 0 -87 16q-44 -93 -131 -158.5t-233 -123.5l-64 137q132 46 208 87.5t139 107.5q-49 135 -113 238l135 65q1 -4 3 -8.5t4 -10.5q33 -88 39 -110q13 -41 26.5 -61t32.5 -27.5t52 -7.5l9 -82z" />
    <glyph glyph-name="uniFEB0" unicode="&#x632;" horiz-adv-x="445" arabic-form="final" 
d="M445 0q-58 0 -87 16q-44 -93 -131 -158.5t-233 -123.5l-64 137q132 46 208 87.5t139 107.5q-49 135 -113 238l135 65q1 -4 3 -8.5t4 -10.5q33 -88 39 -110q13 -41 26.5 -61t32.5 -27.5t52 -7.5l9 -82zM90 514l76 97l98 -81l-76 -96z" />
    <glyph glyph-name="uniFEB2" unicode="&#x633;" horiz-adv-x="1245" arabic-form="final" 
d="M1265 64l-20 -64q-104 0 -150 56q-26 -26 -60 -41t-70 -15q-44 0 -74.5 14.5t-55.5 47.5q-27 -31 -62 -46.5t-71 -15.5q-44 0 -73 23q1 -7 1 -24q0 -84 -43.5 -142.5t-115.5 -87t-159 -28.5q-138 0 -205 67t-67 190q0 103 54 204l87 -26q-28 -77 -28 -156
q0 -66 40.5 -101t130.5 -35q123 0 202 68q2 15 2 44q0 80 -25 148.5t-65 140.5l120 50q11 -31 25 -69.5t26 -59.5q20 -38 44 -50t60 -12q35 0 63 18l-25 176h122l12 -159q27 -35 74 -35q43 0 65 27q-2 32 -13.5 95.5t-25.5 126.5l127 28q19 -125 20 -247q45 -30 125 -30z
" />
    <glyph glyph-name="uniFEB3" unicode="&#x633;" horiz-adv-x="772" arabic-form="initial" 
d="M712 291.5q10 -54.5 10 -113.5q0 -58 -25.5 -98.5t-64 -60t-79.5 -19.5q-45 0 -76.5 14.5t-55.5 46.5q-51 -61 -124 -61q-42 0 -71.5 15t-52.5 46q-60 -61 -173 -61l-20 63l31 81q41 0 65 4t39 14l-25 176h122l12 -159q27 -35 74 -35q35 0 63 18l-25 176h122l12 -159
q27 -35 77 -35q19 0 36.5 7t29.5 21q-2 35 -17 94t-38 120l121 39q23 -79 33 -133.5z" />
    <glyph glyph-name="uniFEB4" unicode="&#x633;" horiz-adv-x="830" arabic-form="medial" 
d="M850 64l-20 -64q-104 0 -150 56q-26 -26 -60 -41t-70 -15q-43 0 -74 14.5t-55 46.5q-51 -61 -124 -61q-42 0 -71.5 15t-52.5 46q-60 -61 -173 -61l-20 63l31 81q41 0 65 4t39 14l-25 176h122l12 -159q27 -35 74 -35q35 0 63 18l-25 176h122l12 -159q27 -35 74 -35
q43 0 65 27q-2 31 -14 94t-28 128l127 28q21 -133 23 -247q44 -30 125 -30z" />
    <glyph glyph-name="uniFEB6" unicode="&#x634;" horiz-adv-x="1245" arabic-form="final" 
d="M1265 64l-20 -64q-104 0 -150 56q-26 -26 -60 -41t-70 -15q-44 0 -74.5 14.5t-55.5 47.5q-27 -31 -62 -46.5t-71 -15.5q-44 0 -73 23q1 -7 1 -24q0 -84 -43.5 -142.5t-115.5 -87t-159 -28.5q-138 0 -205 67t-67 190q0 103 54 204l87 -26q-28 -77 -28 -156
q0 -66 40.5 -101t130.5 -35q123 0 202 68q2 15 2 44q0 80 -25 148.5t-65 140.5l120 50q11 -31 25 -69.5t26 -59.5q20 -38 44 -50t60 -12q35 0 63 18l-25 176h122l12 -159q27 -35 74 -35q43 0 65 27q-2 32 -13.5 95.5t-25.5 126.5l127 28q19 -125 20 -247q45 -30 125 -30z
M863 604l-63 -80l-80 65l63 80zM946 482l-63 -79l-80 64l64 80zM803 478l-64 -80l-80 65l65 80z" />
    <glyph glyph-name="uniFEB7" unicode="&#x634;" horiz-adv-x="772" arabic-form="initial" 
d="M712 291.5q10 -54.5 10 -113.5q0 -58 -25.5 -98.5t-64 -60t-79.5 -19.5q-45 0 -76.5 14.5t-55.5 46.5q-51 -61 -124 -61q-42 0 -71.5 15t-52.5 46q-60 -61 -173 -61l-20 63l31 81q41 0 65 4t39 14l-25 176h122l12 -159q27 -35 74 -35q35 0 63 18l-25 176h122l12 -159
q27 -35 77 -35q19 0 36.5 7t29.5 21q-2 35 -17 94t-38 120l121 39q23 -79 33 -133.5zM450 604l-63 -80l-80 65l63 80zM533 482l-63 -79l-80 64l64 80zM390 478l-64 -80l-80 65l65 80z" />
    <glyph glyph-name="uniFEB8" unicode="&#x634;" horiz-adv-x="830" arabic-form="medial" 
d="M850 64l-20 -64q-104 0 -150 56q-26 -26 -60 -41t-70 -15q-43 0 -74 14.5t-55 46.5q-51 -61 -124 -61q-42 0 -71.5 15t-52.5 46q-60 -61 -173 -61l-20 63l31 81q41 0 65 4t39 14l-25 176h122l12 -159q27 -35 74 -35q35 0 63 18l-25 176h122l12 -159q27 -35 74 -35
q43 0 65 27q-2 31 -14 94t-28 128l127 28q21 -133 23 -247q44 -30 125 -30zM450 604l-63 -80l-80 65l63 80zM533 482l-63 -79l-80 64l64 80zM390 478l-64 -80l-80 65l65 80z" />
    <glyph glyph-name="uniFEBA" unicode="&#x635;" horiz-adv-x="1319" arabic-form="final" 
d="M1339 60l-20 -60q-81 0 -136 75q-47 -44 -132 -59.5t-214 -15.5h-135q-44 0 -73 23q1 -7 1 -24q0 -84 -43.5 -142.5t-115.5 -87t-159 -28.5q-138 0 -205 67t-67 190q0 103 54 204l87 -26q-28 -77 -28 -156q0 -66 40.5 -101t130.5 -35q123 0 202 68q2 15 2 44
q0 80 -25 148.5t-65 140.5l120 50q11 -31 25 -69.5t26 -59.5q25 -45 59 -56q177 316 364 316q57 0 103.5 -28.5t73.5 -85.5t27 -138q0 -13 -2 -37q37 -33 97 -33zM1107.5 301q-32.5 30 -78.5 30q-62 0 -121.5 -42.5t-143.5 -144.5h88q94 0 140 2.5t79.5 11.5t64.5 29
q4 84 -28.5 114z" />
    <glyph glyph-name="uniFEBB" unicode="&#x635;" horiz-adv-x="891" arabic-form="initial" 
d="M740.5 437.5q46.5 -28.5 73.5 -85.5t27 -138q0 -89 -50 -136t-135 -62.5t-214 -15.5h-135q-48 0 -81 14.5t-58 47.5q-28 -32 -69.5 -47t-98.5 -15l-20 63l31 81q68 0 98 22l-23 231h122l10 -211q16 -29 54 -38q177 318 365 318q57 0 103.5 -28.5zM712.5 301
q-32.5 30 -78.5 30q-62 0 -121.5 -42.5t-144.5 -144.5h89q93 0 139 2.5t79.5 11.5t65.5 29q4 84 -28.5 114z" />
    <glyph glyph-name="uniFEBC" unicode="&#x635;" horiz-adv-x="924" arabic-form="medial" 
d="M944 60l-20 -60q-41 0 -75.5 19.5t-60.5 55.5q-48 -44 -133 -59.5t-213 -15.5h-135q-48 0 -81 14.5t-58 47.5q-28 -32 -69.5 -47t-98.5 -15l-20 63l31 81q68 0 98 22l-23 231h122l10 -211q16 -29 54 -38q177 318 365 318q57 0 103.5 -28.5t73.5 -85.5t27 -138
q0 -20 -3 -37q37 -33 97 -33zM712.5 301q-32.5 30 -78.5 30q-62 0 -121.5 -42.5t-144.5 -144.5h89q93 0 139 2.5t79.5 11.5t65.5 29q4 84 -28.5 114z" />
    <glyph glyph-name="uniFEBE" unicode="&#x636;" horiz-adv-x="1319" arabic-form="final" 
d="M1005 505l-98 80l76 96l98 -80zM1339 60l-20 -60q-81 0 -136 75q-47 -44 -132 -59.5t-214 -15.5h-135q-44 0 -73 23q1 -7 1 -24q0 -84 -43.5 -142.5t-115.5 -87t-159 -28.5q-138 0 -205 67t-67 190q0 103 54 204l87 -26q-28 -77 -28 -156q0 -66 40.5 -101t130.5 -35
q123 0 202 68q2 15 2 44q0 80 -25 148.5t-65 140.5l120 50q11 -31 25 -69.5t26 -59.5q25 -45 59 -56q177 316 364 316q57 0 103.5 -28.5t73.5 -85.5t27 -138q0 -13 -2 -37q37 -33 97 -33zM1107.5 301q-32.5 30 -78.5 30q-62 0 -121.5 -42.5t-143.5 -144.5h88q94 0 140 2.5
t79.5 11.5t64.5 29q4 84 -28.5 114z" />
    <glyph glyph-name="uniFEBF" unicode="&#x636;" horiz-adv-x="891" arabic-form="initial" 
d="M610 505l-99 80l77 96l98 -80zM740.5 437.5q46.5 -28.5 73.5 -85.5t27 -138q0 -89 -50 -136t-135 -62.5t-214 -15.5h-135q-48 0 -81 14.5t-58 47.5q-28 -32 -69.5 -47t-98.5 -15l-20 63l31 81q68 0 98 22l-23 231h122l10 -211q16 -29 54 -38q177 318 365 318
q57 0 103.5 -28.5zM712.5 301q-32.5 30 -78.5 30q-62 0 -121.5 -42.5t-144.5 -144.5h89q93 0 139 2.5t79.5 11.5t65.5 29q4 84 -28.5 114z" />
    <glyph glyph-name="uniFEC0" unicode="&#x636;" horiz-adv-x="924" arabic-form="medial" 
d="M610 505l-99 80l77 96l98 -80zM944 60l-20 -60q-41 0 -75.5 19.5t-60.5 55.5q-48 -44 -133 -59.5t-213 -15.5h-135q-48 0 -81 14.5t-58 47.5q-28 -32 -69.5 -47t-98.5 -15l-20 63l31 81q68 0 98 22l-23 231h122l10 -211q16 -29 54 -38q177 318 365 318q57 0 103.5 -28.5
t73.5 -85.5t27 -138q0 -20 -3 -37q37 -33 97 -33zM712.5 301q-32.5 30 -78.5 30q-62 0 -121.5 -42.5t-144.5 -144.5h89q93 0 139 2.5t79.5 11.5t65.5 29q4 84 -28.5 114z" />
    <glyph glyph-name="uniFEC2" unicode="&#x637;" horiz-adv-x="848" arabic-form="final" 
d="M868 60l-20 -60q-43 0 -79 21.5t-63 61.5q-45 -49 -132 -66t-221 -17h-311l29 144h101l23 39l-28 579l126 14l8 -446q123 136 247 136q57 0 103.5 -28.5t73.5 -85.5t27 -138q0 -17 -1 -26q40 -44 109 -44zM623.5 301q-32.5 30 -78.5 30q-62 0 -124 -43t-145 -144h92
q94 0 140 2.5t79.5 11.5t64.5 29q4 84 -28.5 114z" />
    <glyph glyph-name="uniFEC3" unicode="&#x637;" horiz-adv-x="765" arabic-form="initial" 
d="M614.5 437.5q46.5 -28.5 73.5 -85.5t27 -138q0 -89 -50 -136t-135 -62.5t-214 -15.5h-316l-20 61l31 83h123l23 40l-28 578l126 14l8 -446q123 136 248 136q57 0 103.5 -28.5zM586.5 301q-32.5 30 -78.5 30q-63 0 -125 -43t-145 -144h92q94 0 140 2.5t79.5 11.5t65.5 29
q4 84 -28.5 114z" />
    <glyph glyph-name="uniFEC4" unicode="&#x637;" horiz-adv-x="811" arabic-form="medial" 
d="M831 60l-20 -60q-43 0 -79 21.5t-63 61.5q-46 -49 -133 -66t-220 -17h-316l-20 61l31 83h123l23 40l-28 578l126 14l8 -446q123 136 248 136q57 0 103.5 -28.5t73.5 -85.5t27 -138q0 -17 -1 -26q40 -44 108 -44zM586.5 301q-32.5 30 -78.5 30q-63 0 -125 -43t-145 -144
h92q94 0 140 2.5t79.5 11.5t65.5 29q4 84 -28.5 114z" />
    <glyph glyph-name="uniFEC6" unicode="&#x638;" horiz-adv-x="848" arabic-form="final" 
d="M868 60l-20 -60q-43 0 -79 21.5t-63 61.5q-45 -49 -132 -66t-221 -17h-311l29 144h101l23 39l-28 579l126 14l8 -446q123 136 247 136q57 0 103.5 -28.5t73.5 -85.5t27 -138q0 -17 -1 -26q40 -44 109 -44zM623.5 301q-32.5 30 -78.5 30q-62 0 -124 -43t-145 -144h92
q94 0 140 2.5t79.5 11.5t64.5 29q4 84 -28.5 114zM416 590l76 97l98 -81l-76 -96z" />
    <glyph glyph-name="uniFEC7" unicode="&#x638;" horiz-adv-x="765" arabic-form="initial" 
d="M614.5 437.5q46.5 -28.5 73.5 -85.5t27 -138q0 -89 -50 -136t-135 -62.5t-214 -15.5h-316l-20 61l31 83h123l23 40l-28 578l126 14l8 -446q123 136 248 136q57 0 103.5 -28.5zM586.5 301q-32.5 30 -78.5 30q-63 0 -125 -43t-145 -144h92q94 0 140 2.5t79.5 11.5t65.5 29
q4 84 -28.5 114zM378 590l76 97l98 -81l-76 -96z" />
    <glyph glyph-name="uniFEC8" unicode="&#x638;" horiz-adv-x="811" arabic-form="medial" 
d="M831 60l-20 -60q-43 0 -79 21.5t-63 61.5q-46 -49 -133 -66t-220 -17h-316l-20 61l31 83h123l23 40l-28 578l126 14l8 -446q123 136 248 136q57 0 103.5 -28.5t73.5 -85.5t27 -138q0 -17 -1 -26q40 -44 108 -44zM586.5 301q-32.5 30 -78.5 30q-63 0 -125 -43t-145 -144
h92q94 0 140 2.5t79.5 11.5t65.5 29q4 84 -28.5 114zM378 590l76 97l98 -81l-76 -96z" />
    <glyph glyph-name="uniFECA" unicode="&#x639;" horiz-adv-x="586" arabic-form="final" 
d="M207.5 6.5q-34.5 -26.5 -55.5 -57t-21 -67.5q0 -106 185 -106q52 0 113.5 12.5t104.5 32.5l49 -126q-52 -28 -127 -46t-143 -18q-106 0 -169 34.5t-88.5 86.5t-25.5 109q0 86 53 153.5t154 133.5q-40 42 -78.5 76.5t-99.5 75.5l17 131q45 16 104 26t124 10
q220 0 220 -140q0 -51 -27.5 -92.5t-83.5 -84.5q32 -6 136 -6h48l9 -81l-20 -63h-65q-65 0 -113.5 17.5t-98.5 60.5q-67 -45 -101.5 -71.5zM326 204q52 34 79.5 58.5t37.5 50.5q-49 23 -135 23q-64 0 -123 -14q44 -31 141 -118z" />
    <glyph glyph-name="uniFECB" unicode="&#x639;" horiz-adv-x="566" arabic-form="initial" 
d="M553 53q-129 -33 -218 -43t-188 -10h-147l-20 61l31 83h110h12q-33 35 -49.5 74.5t-16.5 77.5q0 49 26 92.5t77 70t123 26.5q36 0 77 -9t79 -30l-43 -134q-29 16 -59.5 24t-55.5 8q-104 0 -104 -79q0 -64 76 -118q60 4 118 15t157 35z" />
    <glyph glyph-name="uniFECC" unicode="&#x639;" horiz-adv-x="604" arabic-form="medial" 
d="M624 62l-20 -62h-46q-69 0 -125.5 17.5t-108.5 58.5q-65 -36 -136 -56t-140 -20h-48l-20 64l31 80h19q111 0 201 23q-34 35 -70 66.5t-90 66.5l16 127q47 17 106 28.5t121 11.5q112 0 168.5 -38t56.5 -104q0 -41 -27.5 -86.5t-76.5 -87.5q19 -5 42 -6t67 -1h71zM343 209
q75 41 102 99q-15 16 -44 24.5t-83 8.5q-58 0 -124 -15q64 -42 149 -117z" />
    <glyph glyph-name="uniFECE" unicode="&#x63a;" horiz-adv-x="586" arabic-form="final" 
d="M207.5 6.5q-34.5 -26.5 -55.5 -57t-21 -67.5q0 -106 185 -106q52 0 113.5 12.5t104.5 32.5l49 -126q-52 -28 -127 -46t-143 -18q-106 0 -169 34.5t-88.5 86.5t-25.5 109q0 86 53 153.5t154 133.5q-40 42 -78.5 76.5t-99.5 75.5l17 131q45 16 104 26t124 10
q220 0 220 -140q0 -51 -27.5 -92.5t-83.5 -84.5q32 -6 136 -6h48l9 -81l-20 -63h-65q-65 0 -113.5 17.5t-98.5 60.5q-67 -45 -101.5 -71.5zM326 204q52 34 79.5 58.5t37.5 50.5q-49 23 -135 23q-64 0 -123 -14q44 -31 141 -118zM220 602l76 97l98 -81l-76 -96z" />
    <glyph glyph-name="uniFECF" unicode="&#x63a;" horiz-adv-x="566" arabic-form="initial" 
d="M553 53q-129 -33 -218 -43t-188 -10h-147l-20 61l31 83h110h12q-33 35 -49.5 74.5t-16.5 77.5q0 49 26 92.5t77 70t123 26.5q36 0 77 -9t79 -30l-43 -134q-29 16 -59.5 24t-55.5 8q-104 0 -104 -79q0 -64 76 -118q60 4 118 15t157 35zM196 614l76 97l98 -81l-76 -96z" />
    <glyph glyph-name="uniFED0" unicode="&#x63a;" horiz-adv-x="604" arabic-form="medial" 
d="M624 62l-20 -62h-46q-69 0 -125.5 17.5t-108.5 58.5q-65 -36 -136 -56t-140 -20h-48l-20 64l31 80h19q111 0 201 23q-34 35 -70 66.5t-90 66.5l16 127q47 17 106 28.5t121 11.5q112 0 168.5 -38t56.5 -104q0 -41 -27.5 -86.5t-76.5 -87.5q19 -5 42 -6t67 -1h71zM343 209
q75 41 102 99q-15 16 -44 24.5t-83 8.5q-58 0 -124 -15q64 -42 149 -117zM213 602l76 97l98 -81l-76 -96z" />
    <glyph glyph-name="uniFED2" unicode="&#x641;" horiz-adv-x="957" arabic-form="final" 
d="M977 62l-20 -62h-64q-45 0 -94.5 13t-96.5 37q-124 -61 -286 -67h-16h-10h-54l-1 2q-117 5 -180.5 28t-89 66.5t-25.5 117.5q0 39 10.5 81.5t28.5 80.5l86 -27q-17 -66 -17 -106q0 -41 21 -61.5t75.5 -28.5t163.5 -9q93 0 175 10q-69 72 -69 150q0 57 28 108.5t72.5 83
t91.5 31.5q49 0 93.5 -31t71.5 -82.5t27 -107.5q0 -37 -17.5 -75t-50.5 -73q6 0 16 0.5t23 2.5h99zM638.5 208q23.5 -28 64.5 -45q92 35 92 109q0 29 -13 53.5t-34 38t-43 13.5t-43 -14t-34 -38.5t-13 -52.5q0 -36 23.5 -64zM608 632l76 97l98 -81l-76 -96z" />
    <glyph glyph-name="uniFED3" unicode="&#x641;" horiz-adv-x="475" arabic-form="initial" 
d="M311 561q49 -39 81.5 -121.5t32.5 -203.5q0 -86 -42 -137.5t-135 -75t-248 -23.5l-20 63l31 81q152 0 216 8t96 29q2 34 2 47q-38 -30 -111 -30q-52 0 -94.5 23.5t-67 64.5t-24.5 92q0 55 27.5 106.5t71 83.5t87.5 32q48 0 97 -39zM155.5 336q30.5 -18 86.5 -18
q42 0 76 7q-12 70 -43 108.5t-68 38.5q-30 0 -56 -26.5t-26 -59.5q0 -32 30.5 -50zM118 728l76 97l98 -81l-76 -96z" />
    <glyph glyph-name="uniFED4" unicode="&#x641;" horiz-adv-x="516" arabic-form="medial" 
d="M536 62l-20 -62h-64q-44 0 -92.5 12.5t-94.5 35.5q-96 -48 -210 -48h-55l-20 62l31 82h91l35 -3q-64 71 -64 146q0 57 28 108.5t73 83t91 31.5q49 0 93.5 -31t72 -82.5t27.5 -107.5q0 -36 -17 -74.5t-49 -73.5l36 3h99zM221.5 363q-20.5 -14 -34 -38.5t-13.5 -52.5
q0 -37 25.5 -66t68.5 -45q40 16 63 44t23 67q0 29 -13 53.5t-34 38t-43 13.5t-42.5 -14zM167 635l76 97l98 -81l-76 -96z" />
    <glyph glyph-name="uniFED6" unicode="&#x642;" horiz-adv-x="807" arabic-form="final" 
d="M807 0h-90q-10 -118 -93.5 -190t-249.5 -72q-174 0 -254 65t-80 195q0 59 15.5 110.5t36.5 90.5l87 -25q-25 -67 -25 -153q0 -49 21.5 -79t72 -45t138.5 -15q82 0 135 20t91 50q2 34 2 48h-106q-52 0 -94.5 23.5t-67 65t-24.5 92.5q0 55 27.5 107t71 84t87.5 32
q41 0 82 -27t74 -85.5t46 -147.5h108l9 -83zM449 141.5q30 -16.5 87 -16.5q38 0 69 3q-13 73 -43 110t-61 37q-30 0 -56 -26.5t-26 -59.5q0 -31 30 -47.5zM501 529l68 86l86 -70l-69 -86zM347 525l67 85l86 -70l-68 -85z" />
    <glyph glyph-name="uniFED7" unicode="&#x642;" horiz-adv-x="475" arabic-form="initial" 
d="M311 561q49 -39 81.5 -121.5t32.5 -203.5q0 -86 -42 -137.5t-135 -75t-248 -23.5l-20 63l31 81q152 0 216 8t96 29q2 34 2 47q-38 -30 -111 -30q-52 0 -94.5 23.5t-67 64.5t-24.5 92q0 55 27.5 106.5t71 83.5t87.5 32q48 0 97 -39zM155.5 336q30.5 -18 86.5 -18
q42 0 76 7q-12 70 -43 108.5t-68 38.5q-30 0 -56 -26.5t-26 -59.5q0 -32 30.5 -50zM207 726l68 86l86 -70l-69 -86zM53 722l67 85l86 -70l-68 -85z" />
    <glyph glyph-name="uniFED8" unicode="&#x642;" horiz-adv-x="516" arabic-form="medial" 
d="M536 62l-20 -62h-64q-44 0 -92.5 12.5t-94.5 35.5q-96 -48 -210 -48h-55l-20 62l31 82h91l35 -3q-64 71 -64 146q0 57 28 108.5t73 83t91 31.5q49 0 93.5 -31t72 -82.5t27.5 -107.5q0 -36 -17 -74.5t-49 -73.5l36 3h99zM221.5 363q-20.5 -14 -34 -38.5t-13.5 -52.5
q0 -37 25.5 -66t68.5 -45q40 16 63 44t23 67q0 29 -13 53.5t-34 38t-43 13.5t-42.5 -14zM256 633l68 86l86 -70l-69 -86zM102 629l67 85l86 -70l-68 -85z" />
    <glyph glyph-name="uniFEDA" unicode="&#x643;" horiz-adv-x="842" arabic-form="final" 
d="M862 65l-20 -65q-57 0 -95 15.5t-67 57.5q-56 -37 -119 -58.5t-144 -28.5l-1 -3q-32 0 -47 1q-11 -1 -33 -1l-1 2q-117 5 -180.5 28t-89 66.5t-25.5 117.5q0 39 10.5 81.5t28.5 80.5l86 -27q-17 -66 -17 -106q0 -38 18.5 -58.5t67 -29.5t143.5 -11q76 2 135 15t117 40
l-11 580l122 15v-527q0 -43 8.5 -65t32.5 -31.5t72 -9.5zM288 338q77 0 104.5 1.5t51.5 7.5q-5 15 -36.5 29t-90.5 29l15 74l171 100l-5 -86l-93 -49q99 -39 99 -100q0 -48 -61.5 -64.5t-142.5 -16.5z" />
    <glyph glyph-name="uniFEDB" unicode="&#x643;" horiz-adv-x="461" arabic-form="initial" 
d="M421 632l-281 -154q117 -84 176.5 -165.5t75.5 -181.5q-95 -131 -392 -131l-20 62l31 82q105 0 154 6.5t92 25.5q-21 51 -78.5 107.5t-180.5 140.5l26 120l404 225z" />
    <glyph glyph-name="uniFEDC" unicode="&#x643;" horiz-adv-x="529" arabic-form="medial" 
d="M549 65l-20 -65q-77 0 -130 24.5t-107 86.5q-43 -54 -106.5 -82.5t-185.5 -28.5l-20 62l31 82q83 1 129 12.5t74 45.5l-182 226l26 115l404 226l-7 -131l-306 -169l160 -196q47 -58 76.5 -84t63 -35.5t92.5 -9.5z" />
    <glyph glyph-name="uniFEDE" unicode="&#x644;" horiz-adv-x="728" arabic-form="final" 
d="M728 0q-53 0 -95 28l1 -71q-20 -46 -63 -86t-108.5 -65t-147.5 -25q-140 0 -207.5 66.5t-67.5 190.5q0 59 16 111.5t38 92.5l87 -25q-28 -77 -28 -157q0 -66 40.5 -100.5t130.5 -34.5q65 0 119 19t81 48l-27 770l126 14l8 -593q18 -20 44 -29.5t65 -9.5l8 -80z" />
    <glyph glyph-name="uniFEDF" unicode="&#x644;" horiz-adv-x="244" arabic-form="initial" 
d="M-20 62l31 82q21 0 38 6.5t27 16.5l-22 595l122 14l10 -643q-21 -60 -68.5 -96.5t-117.5 -36.5z" />
    <glyph glyph-name="uniFEE0" unicode="&#x644;" horiz-adv-x="264" arabic-form="medial" 
d="M284 63l-20 -63q-87 0 -131 59q-24 -33 -56.5 -46t-76.5 -13l-20 62l31 82q19 0 38.5 5.5t29.5 17.5l-11 595l121 15v-551q0 -47 19 -64.5t68 -17.5z" />
    <glyph glyph-name="uniFEE2" unicode="&#x645;" horiz-adv-x="732" arabic-form="final" 
d="M752 64l-20 -64q-44 0 -76.5 14.5t-52.5 36.5q-38 -68 -122 -68q-53 0 -98 16.5t-101 44.5q-32 16 -47.5 22.5t-27.5 6.5q-31 0 -40 -23t-9 -65q0 -51 15 -125t39 -166l-131 -56q-20 102 -30.5 178.5t-10.5 155.5q0 113 32 183t104 70q19 0 43 -8q39 89 68.5 137.5
t65 72.5t86.5 24q48 0 91.5 -33t71 -95t27.5 -144q38 -35 114 -35zM530 144q0 49 -14 87t-37 59t-49 21q-27 0 -45.5 -13.5t-35.5 -41.5t-43 -84q42 -23 77 -35.5t74 -12.5q44 0 73 20z" />
    <glyph glyph-name="uniFEE3" unicode="&#x645;" horiz-adv-x="578" arabic-form="initial" 
d="M433 415.5q44 -35.5 69.5 -99.5t25.5 -147q0 -82 -35.5 -134t-112.5 -52q-54 0 -108.5 22.5t-117.5 64.5q-29 -39 -62 -54.5t-72 -15.5h-20l-20 61l31 83h15q20 0 33 6t27 25t34 58q42 84 72 129.5t64 67t80 21.5q53 0 97 -35.5zM428 144q0 48 -13.5 86.5t-36.5 60
t-49 21.5q-24 0 -42 -12t-37.5 -43t-46.5 -92q48 -26 83 -33.5t71 -7.5q45 0 71 20z" />
    <glyph glyph-name="uniFEE4" unicode="&#x645;" horiz-adv-x="626" arabic-form="medial" 
d="M646 64l-20 -64q-79 0 -126 47q-38 -64 -120 -64q-54 0 -108.5 22.5t-117.5 64.5q-29 -39 -62 -54.5t-72 -15.5h-20l-20 61l31 83h15q20 0 33 6t27 25t34 58q42 84 72 129.5t64 67t80 21.5q52 0 95.5 -34.5t69.5 -97t27 -143.5q20 -17 46.5 -24.5t63.5 -7.5zM428 144
q0 48 -13.5 86.5t-36.5 60t-49 21.5q-24 0 -42 -12t-37.5 -43t-46.5 -92q48 -26 83 -33.5t71 -7.5q45 0 71 20z" />
    <glyph glyph-name="uniFEE6" unicode="&#x646;" horiz-adv-x="702" arabic-form="final" 
d="M702 0q-44 0 -73 23q1 -7 1 -24q0 -84 -43.5 -142.5t-115.5 -87t-159 -28.5q-138 0 -205 67t-67 190q0 103 54 204l87 -26q-28 -77 -28 -156q0 -66 40.5 -101t130.5 -35q123 0 202 68q2 15 2 44q0 80 -25 148.5t-65 140.5l120 50q11 -31 25 -69.5t26 -59.5q20 -38 44 -50
t60 -12l9 -82zM224 394l76 97l98 -81l-76 -96z" />
    <glyph glyph-name="uniFEE7" unicode="&#x646;" horiz-adv-x="312" arabic-form="initial" 
d="M-20 65l31 79q84 0 138 29q-3 43 -18.5 92t-43.5 117l135 39q39 -129 39 -225q0 -101 -64.5 -148.5t-196.5 -47.5zM30 544l76 97l98 -81l-76 -96z" />
    <glyph glyph-name="uniFEE8" unicode="&#x646;" horiz-adv-x="314" arabic-form="medial" 
d="M334 63l-20 -63q-50 0 -83 14.5t-57 47.5q-30 -32 -72.5 -47t-101.5 -15l-20 63l31 81q70 0 104 22l-26 172h122l12 -159q15 -19 39 -27t63 -8zM53 474l76 97l98 -81l-76 -96z" />
    <glyph glyph-name="uniFEEA" unicode="&#x647;" horiz-adv-x="520" arabic-form="final" 
d="M540 61l-20 -61h-22q-49 0 -88 19.5t-61 57.5q-28 -25 -70.5 -39.5t-85.5 -14.5q-54 0 -93 19.5t-58.5 51t-19.5 68.5q0 61 41 115t107.5 93t141.5 58l-5 83l118 14l9 -281q2 -59 19.5 -79.5t56.5 -20.5h21zM215 151q59 0 111 27l-7 127q-70 -13 -125 -45.5t-70 -80.5
q22 -28 91 -28z" />
    <glyph glyph-name="uniFEEB" unicode="&#x647;" horiz-adv-x="651" arabic-form="initial" 
d="M435 389q94 -73 130 -128t36 -117q0 -47 -24 -83.5t-65.5 -57t-92.5 -20.5q-107 0 -195 47q-77 -30 -175 -30h-49l-20 60l31 84h90q-38 61 -38 130q0 50 22.5 91.5t61.5 64.5l-58 35l68 112q184 -115 278 -188zM295 199q23 31 23 73q0 36 -26 61t-62 25
q-34 0 -58.5 -23.5t-24.5 -59.5q0 -38 22.5 -69.5t63.5 -52.5q39 15 62 46zM508 131q-3 28 -27 59t-79 73q-5 -83 -55 -146q27 -4 62 -4q62 0 99 18z" />
    <glyph glyph-name="uniFEEC" unicode="&#x647;" horiz-adv-x="505" arabic-form="medial" 
d="M505 0h-93q33 -25 49.5 -59t16.5 -72q0 -70 -44.5 -108.5t-110.5 -38.5q-63 0 -118.5 35t-91.5 98t-44 145h-69l-20 61l31 83h60q12 86 51.5 160t94.5 118t110 44q47 0 81.5 -24t52.5 -63t18 -83t-20.5 -84t-57.5 -68h116l8 -82zM256 309q-30 -23 -55 -66t-36 -99h33v-2
q18 -3 34 -3q62 0 101 34t39 85q0 30 -16.5 52t-44.5 22q-25 0 -55 -23zM377 -126q0 34 -17.5 64.5t-51 49.5t-77.5 19q-29 0 -43 -1l-2 -6h-26q12 -72 52 -109t94 -37q49 0 71 20z" />
    <glyph glyph-name="uniFEEE" unicode="&#x648;" horiz-adv-x="539" arabic-form="final" 
d="M539 0h-67q-21 -105 -112 -170.5t-269 -107.5l-51 132q151 31 221 64.5t100 81.5h-38q-76 0 -130.5 24t-82.5 66t-28 94q0 56 27.5 107.5t71 83.5t87.5 32q41 0 84.5 -30.5t76.5 -90t44 -142.5h78l8 -83zM375 135q-10 48 -29.5 80t-42 47.5t-42.5 15.5q-31 0 -56.5 -25
t-25.5 -57q0 -30 26.5 -45.5t85.5 -15.5h84z" />
    <glyph glyph-name="uniFEF0" unicode="&#x649;" horiz-adv-x="713" arabic-form="final" 
d="M713 0q-32 0 -76 18q15 -27 15 -50q0 -49 -42 -92t-119.5 -69t-178.5 -26q-138 0 -205 67t-67 190q0 59 16 111.5t38 92.5l87 -25q-28 -77 -28 -157q0 -66 40.5 -100.5t130.5 -34.5q85 0 144.5 13.5t95.5 33.5q-15 71 -184 101l64 117q25 -5 44.5 -9t33.5 -7
q76 -16 118.5 -23t83.5 -7l9 -82z" />
    <glyph glyph-name="uniFEF2" unicode="&#x64a;" horiz-adv-x="713" arabic-form="final" 
d="M713 0q-32 0 -76 18q15 -27 15 -50q0 -49 -42 -92t-119.5 -69t-178.5 -26q-138 0 -205 67t-67 190q0 59 16 111.5t38 92.5l87 -25q-28 -77 -28 -157q0 -66 40.5 -100.5t130.5 -34.5q85 0 144.5 13.5t95.5 33.5q-15 71 -184 101l64 117q25 -5 44.5 -9t33.5 -7
q76 -16 118.5 -23t83.5 -7l9 -82zM312 -351l68 85l86 -70l-69 -85zM158 -356l68 85l85 -69l-68 -86z" />
    <glyph glyph-name="uniFEF3" unicode="&#x64a;" horiz-adv-x="312" arabic-form="initial" 
d="M-20 65l31 79q84 0 138 29q-3 43 -18.5 92t-43.5 117l135 39q39 -129 39 -225q0 -101 -64.5 -148.5t-196.5 -47.5zM139 -139l68 85l86 -70l-69 -85zM-15 -144l68 85l85 -69l-68 -86z" />
    <glyph glyph-name="uniFEF4" unicode="&#x64a;" horiz-adv-x="314" arabic-form="medial" 
d="M334 63l-20 -63q-50 0 -83 14.5t-57 47.5q-30 -32 -72.5 -47t-101.5 -15l-20 63l31 81q70 0 104 22l-26 172h122l12 -159q15 -19 39 -27t63 -8zM162 -139l68 85l86 -70l-69 -85zM8 -144l68 85l85 -69l-68 -86z" />
    <glyph glyph-name=".notdef" horiz-adv-x="657" 
d="M449 -350h-414l197 1400h414zM280 998l-183 -1296h306l183 1296h-306zM417.5 425.5q23.5 -25.5 23.5 -66.5q0 -9 -2 -27q-7 -52 -32.5 -79.5t-75.5 -34.5l-8 -47q-1 -11 -8.5 -16.5t-16.5 -5.5q-11 0 -18 7.5t-6 18.5l10 82q53 3 75 21t28 60q2 14 2 20q0 22 -11 33.5
t-39 11.5q-29 0 -54 -13l-12 -1q-12 0 -18.5 8t-4.5 19q2 17 31 26t62 9q51 0 74.5 -25.5zM313.5 109q9.5 -11 7.5 -28q-2 -14 -12.5 -23.5t-24.5 -9.5q-16 0 -25 12t-6 29q1 13 11 22t24 9q16 0 25.5 -11z" />
    <glyph glyph-name=".null" 
 />
    <glyph glyph-name="nonmarkingreturn" unicode="&#xd;" horiz-adv-x="235" 
 />
    <glyph glyph-name="space" unicode=" " horiz-adv-x="235" 
 />
    <glyph glyph-name="exclam" unicode="!" horiz-adv-x="232" 
d="M100 692h150l-80 -443h-115zM29.5 6q-21.5 22 -21.5 55q0 39 27.5 66.5t66.5 27.5q33 0 54 -21.5t21 -54.5q0 -39 -27 -67t-66 -28q-33 0 -54.5 22z" />
    <glyph glyph-name="quotedbl" unicode="&#x22;" horiz-adv-x="421" 
d="M108 692h130l-56 -275h-96zM304 692h130l-56 -275h-96z" />
    <glyph glyph-name="numbersign" unicode="#" horiz-adv-x="539" 
d="M479 442l-53 -198h59l-14 -96h-71l-40 -148h-117l40 148h-111l-40 -148h-117l40 148h-57l13 96h70l53 198h-58l13 96h71l37 136h117l-37 -136h111l37 136h117l-37 -136h58l-13 -96h-71zM362 442h-111l-53 -198h111z" />
    <glyph glyph-name="dollar" unicode="$" horiz-adv-x="536" 
d="M457.5 331q43.5 -46 43.5 -118q0 -81 -54 -143t-163 -77l-22 -153h-104l21 151q-120 13 -191 94l82 77q64 -66 159 -66q55 0 90 26t35 74q0 35 -23 56.5t-82 43.5q-89 32 -131 77t-42 109q0 80 54.5 135t150.5 66l20 146h105l-22 -149q92 -16 159 -81l-75 -75
q-67 55 -141 55q-49 0 -77 -20t-28 -59q0 -32 23.5 -52.5t87.5 -42.5q81 -28 124.5 -74z" />
    <glyph glyph-name="percent" unicode="%" horiz-adv-x="842" 
d="M116 19l80 -57l554 699l-81 57zM109.5 374q-42.5 41 -42.5 109q0 48 21.5 95t65.5 78t108 31q67 0 109 -40.5t42 -107.5q0 -48 -20.5 -95.5t-64.5 -79t-109 -31.5q-67 0 -109.5 41zM291 456.5q19 36.5 19 80.5q0 63 -54 63q-48 0 -67 -37t-19 -78q0 -65 55 -65
q47 0 66 36.5zM491 25q-42 41 -42 109q0 48 21 95t65.5 78t108.5 31q67 0 109 -40.5t42 -107.5q0 -48 -20.5 -95.5t-64.5 -79t-110 -31.5q-67 0 -109 41zM672 107.5q19 36.5 19 80.5q0 64 -53 64q-48 0 -67 -37t-19 -79q0 -65 55 -65q46 0 65 36.5z" />
    <glyph glyph-name="ampersand" unicode="&#x26;" horiz-adv-x="748" 
d="M498.5 666q52.5 -42 52.5 -109q0 -58 -38.5 -101.5t-121.5 -93.5l124 -136q41 67 68 137l114 -39q-47 -95 -112 -175l97 -103l-116 -62l-71 80q-51 -41 -105 -60.5t-118 -19.5q-65 0 -114 23t-75 63t-26 91q0 66 35.5 116t121.5 100q-39 44 -56 79t-17 76q0 44 22.5 84
t71 66t121.5 26q90 0 142.5 -42zM295.5 592q-21.5 -22 -21.5 -58q0 -24 11 -46.5t35 -49.5q52 32 75.5 58.5t23.5 59.5q0 27 -18 42.5t-47 15.5q-37 0 -58.5 -22zM221.5 236.5q-16.5 -30.5 -16.5 -67.5q0 -38 24 -60t68 -22q67 0 131 49l-144 161q-46 -30 -62.5 -60.5z" />
    <glyph glyph-name="quotesingle" unicode="'" horiz-adv-x="225" 
d="M108 692h130l-56 -275h-96z" />
    <glyph glyph-name="parenleft" unicode="(" horiz-adv-x="316" 
d="M375 793q-108 -132 -159.5 -270t-51.5 -300q0 -94 20.5 -168.5t63.5 -153.5l-96 -55q-42 74 -67.5 127t-42.5 119.5t-17 146.5q0 127 30.5 229.5t86.5 191.5t148 197z" />
    <glyph glyph-name="parenright" unicode=")" horiz-adv-x="316" 
d="M254.5 727q25.5 -53 42.5 -120t17 -147q0 -126 -30.5 -228.5t-87 -192t-147.5 -196.5l-84 64q108 133 159 270.5t51 298.5q0 95 -20.5 169.5t-63.5 153.5l96 55q42 -74 67.5 -127z" />
    <glyph glyph-name="asterisk" unicode="*" horiz-adv-x="438" 
d="M321 515l86 -104l-108 -74l-52 128l-85 -129l-90 74l114 106l-139 25l52 114l124 -61l-2 147h130l-42 -147l135 64l23 -117z" />
    <glyph glyph-name="plus" unicode="+" horiz-adv-x="513" 
d="M333 387h148l-16 -111h-148l-22 -154h-118l22 154h-147l15 111h148l21 155h118z" />
    <glyph glyph-name="comma" unicode="," horiz-adv-x="241" 
d="M156.5 133.5q21.5 -21.5 21.5 -53.5q0 -23 -8.5 -45t-32.5 -64l-85 -146h-83l68 176q-28 20 -28 59t27 67t66 28q33 0 54.5 -21.5z" />
    <glyph glyph-name="hyphen" unicode="-" horiz-adv-x="398" 
d="M60 369h306l-15 -112h-306z" />
    <glyph glyph-name="period" unicode="." horiz-adv-x="240" 
d="M29.5 6q-21.5 22 -21.5 55q0 39 27.5 66.5t66.5 27.5q33 0 54 -21.5t21 -54.5q0 -39 -27 -67t-66 -28q-33 0 -54.5 22z" />
    <glyph glyph-name="slash" unicode="/" horiz-adv-x="511" 
d="M505 786l-355 -896l-120 30l356 895z" />
    <glyph glyph-name="zero" unicode="0" horiz-adv-x="570" 
d="M167 617q-67 -70 -95.5 -172.5t-28.5 -206.5q0 -123 53 -188.5t152 -65.5q107 0 174 71t95.5 174t28.5 206q0 122 -52.5 187t-151.5 65q-108 0 -175 -70zM388.5 554q18.5 -27 18.5 -90q0 -82 -16 -168.5t-50 -145.5t-85 -59q-36 0 -54 28t-18 91q0 82 15.5 168
t49.5 144.5t86 58.5q35 0 53.5 -27z" />
    <glyph glyph-name="one" unicode="1" horiz-adv-x="447" 
d="M324 0h-138l74 524l-158 -90l-48 105l239 135h125z" />
    <glyph glyph-name="two" unicode="2" horiz-adv-x="503" 
d="M435 638q54 -49 54 -127q0 -52 -24 -102.5t-93.5 -122.5t-203.5 -177l279 2l-31 -111h-423l14 104q152 136 220 203.5t92 108t24 83.5q0 38 -21.5 58t-58.5 20q-36 0 -67 -17t-68 -54l-79 74q51 53 108.5 80t127.5 27q96 0 150 -49z" />
    <glyph glyph-name="three" unicode="3" horiz-adv-x="506" 
d="M432 642q51 -45 51 -115q0 -58 -37 -104t-116 -67q57 -6 93 -41.5t36 -97.5q0 -54 -29.5 -107.5t-91 -89.5t-153.5 -36q-70 0 -123 26.5t-87 74.5l87 72q27 -33 57 -48t69 -15q57 0 93 36t36 97q0 41 -25 58t-75 17h-56l29 100h36q59 0 88.5 31.5t29.5 75.5q0 35 -21 53
t-59 18q-37 0 -71 -15t-70 -45l-63 82q53 43 108 64t119 21q94 0 145 -45z" />
    <glyph glyph-name="four" unicode="4" horiz-adv-x="548" 
d="M510 150h-77l-21 -150h-137l20 150h-282l13 96l249 443l117 -45l-212 -386h131l39 165h121l-23 -165h77z" />
    <glyph glyph-name="five" unicode="5" horiz-adv-x="519" 
d="M483 571h-246l-22 -155q47 23 102 23q75 0 119.5 -48t44.5 -136q0 -61 -29.5 -123.5t-94 -105t-161.5 -42.5q-70 0 -120 26t-86 72l86 73q25 -31 55 -46.5t69 -15.5q67 0 102.5 46.5t35.5 109.5q0 91 -82 91q-24 0 -45 -5.5t-46 -18.5h-98l50 358h396z" />
    <glyph glyph-name="six" unicode="6" horiz-adv-x="548" 
d="M473 403.5q45 -47.5 45 -133.5q0 -62 -27.5 -128.5t-87 -112t-148.5 -45.5q-109 0 -161.5 63.5t-52.5 177.5q0 120 40.5 226t117 171t179.5 65q85 0 143 -45l-62 -85q-37 27 -87 27q-60 0 -105 -52t-65 -145q70 64 153 64q73 0 118 -47.5zM329.5 117q26.5 29 37.5 70
t11 80q0 45 -17 64.5t-50 19.5q-32 0 -63.5 -17t-58.5 -47q-6 -51 -6 -83q0 -62 18 -89t59 -27q43 0 69.5 29z" />
    <glyph glyph-name="seven" unicode="7" horiz-adv-x="453" 
d="M478 576l-325 -591l-125 43l302 537h-274l15 109h420z" />
    <glyph glyph-name="eight" unicode="8" horiz-adv-x="565" 
d="M523 203q0 -61 -35 -111t-98 -79t-146 -29q-70 0 -121 23.5t-77.5 64.5t-26.5 93q0 57 35.5 105.5t116.5 80.5q-79 50 -79 138q0 52 28.5 97.5t83.5 73t131 27.5q91 0 149.5 -42.5t58.5 -115.5q0 -53 -31 -95t-100 -75q111 -55 111 -156zM251 561q-24 -29 -24 -67
q0 -33 18.5 -53t58.5 -36l18 -7q50 30 67.5 60t17.5 63q0 32 -20 50.5t-58 18.5q-54 0 -78 -29zM348 122q34 34 34 84q0 32 -22 52.5t-75 41.5l-28 10q-96 -47 -96 -137q0 -40 25.5 -62.5t69.5 -22.5q58 0 92 34z" />
    <glyph glyph-name="nine" unicode="9" horiz-adv-x="543" 
d="M479 628.5q56 -58.5 56 -157.5q0 -175 -100.5 -311t-364.5 -187l-18 102q134 33 209 85.5t106 144.5q-62 -69 -148 -69q-47 0 -84 22.5t-58.5 64t-21.5 97.5q0 65 28.5 126t87.5 101t147 40q105 0 161 -58.5zM329.5 356q30.5 18 57.5 51q6 44 6 72q0 56 -20 80.5
t-61 24.5q-63 0 -90 -49.5t-27 -110.5q0 -44 19 -65t52 -21t63.5 18z" />
    <glyph glyph-name="colon" unicode=":" horiz-adv-x="240" 
d="M29.5 6q-21.5 22 -21.5 55q0 39 27.5 66.5t66.5 27.5q33 0 54 -21.5t21 -54.5q0 -39 -27 -67t-66 -28q-33 0 -54.5 22zM78.5 357q-21.5 22 -21.5 55q0 39 27.5 66.5t66.5 27.5q33 0 54 -21.5t21 -54.5q0 -39 -27 -67t-66 -28q-33 0 -54.5 22z" />
    <glyph glyph-name="semicolon" unicode=";" horiz-adv-x="243" 
d="M157.5 133.5q21.5 -21.5 21.5 -53.5q0 -23 -8.5 -45t-32.5 -64l-85 -146h-83l68 176q-28 20 -28 59t27 67t66 28q33 0 54.5 -21.5zM81.5 357q-21.5 22 -21.5 55q0 39 27.5 66.5t66.5 27.5q33 0 54 -21.5t21 -54.5q0 -39 -27 -67t-66 -28q-33 0 -54.5 22z" />
    <glyph glyph-name="less" unicode="&#x3c;" horiz-adv-x="507" 
d="M502 461l-338 -129l296 -131l-60 -105l-362 172l17 129l410 173z" />
    <glyph glyph-name="equal" unicode="=" horiz-adv-x="506" 
d="M81 490h406l-16 -112h-405zM53 284h406l-16 -112h-405z" />
    <glyph glyph-name="greater" unicode="&#x3e;" horiz-adv-x="505" 
d="M487 397l-19 -129l-409 -172l-34 111l336 130l-295 130l58 103z" />
    <glyph glyph-name="question" unicode="?" horiz-adv-x="467" 
d="M441 665.5q49 -42.5 49 -107.5q0 -50 -19 -84t-46.5 -54t-70.5 -43q-50 -26 -73.5 -47.5t-23.5 -57.5q0 -11 3 -23l-125 -20q-8 26 -8 50q0 46 17.5 76.5t42.5 49t65 40.5q47 26 68.5 46t21.5 54q0 24 -17 37t-47 13q-68 0 -133 -65l-81 74q101 104 236 104
q92 0 141 -42.5zM131 6q-21 22 -21 55q0 39 27.5 66.5t66.5 27.5q33 0 54 -21.5t21 -54.5q0 -39 -27.5 -67t-66.5 -28q-33 0 -54 22z" />
    <glyph glyph-name="at" unicode="@" horiz-adv-x="1011" 
d="M784 661q89 -47 135.5 -128t46.5 -183q0 -78 -26.5 -157.5t-81.5 -133.5t-137 -54q-55 0 -88 29.5t-40 70.5q-53 -96 -150 -96q-73 0 -114 47t-41 127q0 73 26 145.5t85.5 122t152.5 49.5q41 0 83.5 -11.5t79.5 -33.5l-38 -291q-2 -16 -2 -22q0 -45 40 -45q41 0 69 40.5
t41.5 100t13.5 116.5q0 120 -70.5 184t-206.5 64q-138 0 -224.5 -64.5t-124 -160.5t-37.5 -194q0 -87 35 -154t103.5 -104.5t165.5 -37.5q46 0 96.5 10t93.5 25l23 -101q-113 -41 -224 -41q-127 0 -223 51.5t-148 143t-52 209.5q0 119 56 240t174.5 202.5t294.5 81.5
q124 0 213 -47zM555 164l34 235q-21 9 -47 9q-69 0 -98 -70t-29 -160q0 -78 55 -78q50 0 85 64z" />
    <glyph glyph-name="A" unicode="A" horiz-adv-x="577" 
d="M379 155h-215l-60 -155h-151l307 692h177l112 -692h-153zM367 264l-35 326l-126 -326h161z" />
    <glyph glyph-name="B" unicode="B" horiz-adv-x="606" 
d="M531.5 321q37.5 -33 37.5 -101q0 -100 -75 -160t-245 -60h-214l97 692h200q119 0 185.5 -37.5t66.5 -119.5q0 -69 -43.5 -111.5t-109.5 -57.5q63 -12 100.5 -45zM262 586l-24 -175h69q62 0 94.5 29.5t32.5 80.5q0 36 -25.5 50.5t-74.5 14.5h-72zM384.5 140.5
q34.5 31.5 34.5 89.5q0 81 -112 81h-83l-28 -202h65q89 0 123.5 31.5z" />
    <glyph glyph-name="C" unicode="C" horiz-adv-x="563" 
d="M595 628l-79 -77q-28 23 -56 34.5t-62 11.5q-72 0 -117.5 -52t-65.5 -128t-20 -150q0 -85 34 -126t95 -41q39 0 72 15t72 43l58 -89q-99 -85 -222 -85q-78 0 -136.5 33t-91 97t-32.5 155q0 104 36.5 204.5t115 167.5t198.5 67q126 0 201 -80z" />
    <glyph glyph-name="D" unicode="D" horiz-adv-x="641" 
d="M536 634.5q85 -57.5 85 -204.5q0 -120 -38.5 -216.5t-125 -155t-225.5 -58.5h-197l97 692h178q141 0 226 -57.5zM262 584l-66 -476h58q117 0 167 96t50 226q0 89 -39.5 121.5t-111.5 32.5h-58z" />
    <glyph glyph-name="E" unicode="E" horiz-adv-x="520" 
d="M509 584h-247l-25 -179h214l-13 -106h-215l-27 -191h264l-16 -108h-409l97 692h407z" />
    <glyph glyph-name="F" unicode="F" horiz-adv-x="480" 
d="M498 584h-236l-27 -195h206l-15 -107h-206l-39 -282h-146l97 692h397z" />
    <glyph glyph-name="G" unicode="G" horiz-adv-x="632" 
d="M629 622l-83 -74q-33 27 -63 39t-70 12q-78 0 -127.5 -53.5t-71 -134.5t-21.5 -166q0 -80 30.5 -115t93.5 -35q55 0 104 25l25 168h-96l1 107h251l-47 -339q-55 -35 -118.5 -53.5t-130.5 -18.5q-129 0 -196 70t-67 205q0 111 39.5 213.5t123 169t209.5 66.5
q131 0 214 -86z" />
    <glyph glyph-name="H" unicode="H" horiz-adv-x="660" 
d="M35 0l97 692h146l-39 -273h224l39 273h145l-97 -692h-145l42 303h-224l-43 -303h-145z" />
    <glyph glyph-name="I" unicode="I" horiz-adv-x="291" 
d="M181 0h-146l97 692h146z" />
    <glyph glyph-name="J" unicode="J" horiz-adv-x="308" 
d="M216 101q-11 -80 -45.5 -131.5t-83.5 -81t-116 -50.5l-27 106q46 17 71.5 39.5t37.5 52t18 75.5l82 581h146z" />
    <glyph glyph-name="K" unicode="K" horiz-adv-x="613" 
d="M132 692h146l-97 -692h-146zM238 369l269 323h158l-274 -321l195 -371h-167z" />
    <glyph glyph-name="L" unicode="L" horiz-adv-x="502" 
d="M197 119h270l-32 -119h-400l97 692h146z" />
    <glyph glyph-name="M" unicode="M" horiz-adv-x="774" 
d="M697 0h-142l24 283q13 160 34 289l-184 -498h-139l-55 497q-6 -126 -39 -296l-52 -275h-142l150 692h179l47 -485l172 485h191z" />
    <glyph glyph-name="N" unicode="N" horiz-adv-x="659" 
d="M550 0h-186l-143 569v-41q0 -132 -18 -266l-37 -262h-131l97 692h184l146 -569q-2 58 -2 83q0 85 14 190l42 296h131z" />
    <glyph glyph-name="O" unicode="O" horiz-adv-x="682" 
d="M592.5 634q68.5 -74 68.5 -209q0 -104 -35 -204.5t-115 -168.5t-206 -68q-124 0 -192.5 74t-68.5 208q0 103 35 204t115.5 169.5t206.5 68.5q123 0 191.5 -74zM274 542q-44 -56 -62 -134t-18 -151q0 -85 30.5 -123.5t89.5 -38.5q74 0 118 56t61.5 134t17.5 152
q0 84 -30 122.5t-90 38.5q-73 0 -117 -56z" />
    <glyph glyph-name="P" unicode="P" horiz-adv-x="587" 
d="M529.5 643.5q66.5 -48.5 66.5 -142.5q0 -68 -31 -128t-99 -98.5t-174 -38.5h-78l-33 -236h-146l97 692h210q121 0 187.5 -48.5zM409.5 388.5q34.5 44.5 34.5 107.5q0 90 -115 90h-67l-33 -242h63q83 0 117.5 44.5z" />
    <glyph glyph-name="Q" unicode="Q" horiz-adv-x="681" 
d="M613.5 197.5q-47.5 -107.5 -149.5 -156.5q63 -2 106.5 -18t80.5 -46l-103 -115q-48 61 -102 91.5t-141 30.5q-124 0 -192.5 74t-68.5 208q0 103 35 204t115.5 169.5t206.5 68.5q123 0 191.5 -74t68.5 -209q0 -120 -47.5 -227.5zM314 95q74 0 118 56.5t61.5 136
t17.5 157.5q0 79 -30 116t-90 37q-73 0 -117.5 -56.5t-62 -135.5t-17.5 -155q0 -156 120 -156z" />
    <glyph glyph-name="R" unicode="R" horiz-adv-x="605" 
d="M557.5 384.5q-36.5 -55.5 -125.5 -89.5l133 -295h-160l-109 271h-78l-37 -271h-146l97 692h213q123 0 186 -47t63 -134q0 -71 -36.5 -126.5zM233 375h78q70 0 101 38.5t31 91.5q0 43 -27 62t-86 19h-68z" />
    <glyph glyph-name="S" unicode="S" horiz-adv-x="557" 
d="M559 619l-80 -79q-31 30 -65.5 44t-75.5 14q-50 0 -81.5 -23t-31.5 -63q0 -22 10.5 -37t35.5 -28t73 -29q88 -28 133 -73t45 -122q0 -61 -30 -115.5t-95 -89t-165 -34.5q-81 0 -142 27t-102 72l85 84q33 -34 72.5 -51.5t90.5 -17.5q61 0 97 28t36 76q0 37 -24.5 59
t-88.5 44q-97 33 -140 77.5t-43 113.5q0 54 29.5 102.5t88.5 79t143 30.5q139 0 225 -89z" />
    <glyph glyph-name="T" unicode="T" horiz-adv-x="526" 
d="M552 577h-173l-81 -577h-145l81 577h-181l16 115h515z" />
    <glyph glyph-name="U" unicode="U" horiz-adv-x="645" 
d="M577 226q-10 -71 -47 -125.5t-99.5 -85.5t-145.5 -31q-114 0 -172.5 54.5t-58.5 147.5q0 22 3 44l65 462h146l-65 -459q-3 -22 -3 -40q0 -49 23 -72.5t72 -23.5q61 0 94 34.5t43 105.5l65 455h145z" />
    <glyph glyph-name="V" unicode="V" horiz-adv-x="558" 
d="M333 0h-176l-106 692h151l59 -570l215 570h151z" />
    <glyph glyph-name="W" unicode="W" horiz-adv-x="833" 
d="M662 0h-189l-19 540l-174 -540h-184l-21 692h142l-3 -578l184 578h155l18 -578l169 578h139z" />
    <glyph glyph-name="X" unicode="X" horiz-adv-x="563" 
d="M379 373l148 -373h-157l-88 278l-164 -278h-158l246 368l-133 324h156l74 -235l146 235h157z" />
    <glyph glyph-name="Y" unicode="Y" horiz-adv-x="574" 
d="M360 261l-37 -261h-146l37 260l-159 432h156l91 -314l181 314h156z" />
    <glyph glyph-name="Z" unicode="Z" horiz-adv-x="530" 
d="M-3 112l376 464h-277l16 116h444l-15 -113l-372 -460h310l-31 -119h-466z" />
    <glyph glyph-name="bracketleft" unicode="[" horiz-adv-x="315" 
d="M349 713h-114l-103 -727h115l-15 -107h-248l133 942h248z" />
    <glyph glyph-name="backslash" unicode="\" horiz-adv-x="511" 
d="M383 -82l-125 -28l-105 896l123 27z" />
    <glyph glyph-name="bracketright" unicode="]" horiz-adv-x="315" 
d="M222 -121h-247l15 108h114l103 726h-115l15 108h248z" />
    <glyph glyph-name="asciicircum" unicode="^" horiz-adv-x="545" 
d="M560 527h-139l-82 207l-138 -207h-142l231 316h128z" />
    <glyph glyph-name="underscore" unicode="_" horiz-adv-x="511" 
d="M-34 -51h490l-15 -113h-491z" />
    <glyph glyph-name="grave" unicode="`" horiz-adv-x="323" 
d="M352 697l-40 -69l-218 90l62 109z" />
    <glyph glyph-name="a" unicode="a" horiz-adv-x="571" 
d="M540 493l-50 -348q-2 -18 -2 -24q0 -16 6.5 -25.5t22.5 -16.5l-40 -93q-98 10 -116 88q-65 -90 -158 -90q-82 0 -127 56.5t-45 152.5q0 83 31 164t98.5 135t170.5 54q110 0 209 -53zM242 405q-34 -38 -49.5 -95.5t-15.5 -116.5q0 -103 68 -103q31 0 57 20t53 59l38 262
q-29 12 -65 12q-52 0 -86 -38z" />
    <glyph glyph-name="b" unicode="b" horiz-adv-x="579" 
d="M505 492q42 -54 42 -153q0 -86 -28.5 -166.5t-96.5 -134.5t-179 -54q-54 0 -104 10.5t-106 31.5l101 715l141 16l-38 -273q32 30 70 46t77 16q79 0 121 -54zM222 375l-37 -272q33 -13 73 -13q50 0 82 38.5t47 95.5t15 115q0 55 -18.5 78t-51.5 23q-57 0 -110 -65z" />
    <glyph glyph-name="c" unicode="c" horiz-adv-x="471" 
d="M489 481l-70 -83q-22 20 -44.5 28.5t-50.5 8.5q-77 0 -110.5 -71t-33.5 -160q0 -57 23 -81.5t66 -24.5q28 0 52.5 9t56.5 29l53 -93q-85 -59 -179 -59q-103 0 -161 60.5t-58 165.5q0 76 30.5 153.5t95.5 130t164 52.5t166 -65z" />
    <glyph glyph-name="d" unicode="d" horiz-adv-x="584" 
d="M584 741l-104 -741h-124l1 78q-29 -43 -68.5 -68.5t-89.5 -25.5q-82 0 -124.5 56.5t-42.5 156.5q0 79 27 159.5t83.5 135t141.5 54.5q39 0 71 -15t54 -40l37 265zM234.5 401.5q-30.5 -39.5 -43.5 -96.5t-13 -111q0 -56 17 -80t48 -24q34 0 63.5 27t60.5 76l29 204
q-33 44 -82 44t-79.5 -39.5z" />
    <glyph glyph-name="e" unicode="e" horiz-adv-x="529" 
d="M422.5 255.5q-93.5 -46.5 -247.5 -61.5q5 -103 99 -103q35 0 67 12t70 37l52 -86q-97 -70 -206 -70t-166.5 59.5t-57.5 162.5q0 80 30 158t96 130t168 52q90 0 139.5 -40.5t49.5 -102.5q0 -101 -93.5 -147.5zM327.5 321.5q46.5 29.5 46.5 75.5q0 21 -13.5 36t-43.5 15
q-57 0 -90 -47t-45 -117q99 8 145.5 37.5z" />
    <glyph glyph-name="f" unicode="f" horiz-adv-x="342" 
d="M293.5 632.5q-19.5 -17.5 -24.5 -55.5l-7 -47h125l-30 -101h-109l-53 -378q-11 -80 -42 -131.5t-77 -82.5t-116 -57l-36 104q61 24 91 58t40 105l53 382h-82l14 101h81l8 55q11 77 65.5 124.5t144.5 47.5q76 0 142 -43l-50 -86q-34 22 -81 22q-37 0 -56.5 -17.5z" />
    <glyph glyph-name="g" unicode="g" horiz-adv-x="574" 
d="M546 493l-67 -459q-20 -135 -85.5 -195t-185.5 -60q-48 0 -100.5 15t-94.5 41l48 96q76 -42 144 -42q54 0 89 26.5t46 101.5l8 55q-29 -33 -65 -52.5t-78 -19.5q-82 0 -127.5 55.5t-45.5 148.5q0 82 31.5 160.5t99.5 130t173 51.5q111 0 210 -53zM245 407
q-35 -36 -51 -90t-16 -110q0 -100 70 -100q56 0 113 79l38 245q-31 12 -66 12q-53 0 -88 -36z" />
    <glyph glyph-name="h" unicode="h" horiz-adv-x="565" 
d="M491.5 512q32.5 -34 32.5 -95q0 -22 -2 -34l-54 -383h-140l50 355q2 20 2 25q0 49 -38 49q-63 0 -131 -131l-41 -298h-140l104 741l141 15l-44 -317q30 49 74.5 78t95.5 29q58 0 90.5 -34z" />
    <glyph glyph-name="i" unicode="i" horiz-adv-x="274" 
d="M170 0h-140l74 530h140zM136 658q-21 21 -21 53q0 40 27 66t67 26q35 0 56 -20.5t21 -53.5q0 -40 -27 -66t-67 -26q-35 0 -56 21z" />
    <glyph glyph-name="j" unicode="j" horiz-adv-x="275" 
d="M-93 -118q41 17 66.5 36t41.5 49.5t23 79.5l67 483h140l-67 -479q-11 -80 -42 -131.5t-77 -82.5t-116 -57zM138 658q-21 21 -21 53q0 40 27 66t67 26q35 0 56 -20.5t21 -53.5q0 -40 -27 -66t-67 -26q-35 0 -56 21z" />
    <glyph glyph-name="k" unicode="k" horiz-adv-x="560" 
d="M234 455q74 91 176 91q63 0 101.5 -34.5t38.5 -90.5q0 -63 -37.5 -110t-111.5 -76l103 -235h-154l-103 257q86 26 122.5 60t36.5 81q0 22 -12.5 34.5t-35.5 12.5q-36 0 -73.5 -30t-69.5 -89l-45 -326h-140l104 741l142 16z" />
    <glyph glyph-name="l" unicode="l" horiz-adv-x="284" 
d="M182 133q-1 -5 -1 -13q0 -12 5.5 -17t16.5 -5q12 0 29 5l18 -100q-44 -19 -93 -19q-57 0 -87.5 29.5t-30.5 86.5q0 16 3 34l85 607l142 16z" />
    <glyph glyph-name="m" unicode="m" horiz-adv-x="830" 
d="M757 511.5q32 -34.5 32 -94.5q0 -21 -2 -33l-54 -384h-140l50 355q2 11 2 28q0 26 -9.5 36t-26.5 10q-28 0 -58 -34t-57 -91l-43 -304h-140l50 355q2 10 2 27q0 27 -9.5 37t-26.5 10q-29 0 -59 -35.5t-56 -94.5l-42 -299h-140l74 530h122l-4 -90q72 106 167 106
q47 0 78.5 -26.5t38.5 -75.5q32 48 75.5 75t89.5 27q54 0 86 -34.5z" />
    <glyph glyph-name="n" unicode="n" horiz-adv-x="565" 
d="M492 511.5q32 -34.5 32 -95.5q0 -23 -2 -35l-54 -381h-140l50 355q2 20 2 25q0 27 -10 38t-29 11q-61 0 -129 -131l-42 -298h-140l74 530h122l-4 -96q35 52 81.5 82t99.5 30q57 0 89 -34.5z" />
    <glyph glyph-name="o" unicode="o" horiz-adv-x="575" 
d="M90 43.5q-57 59.5 -57 164.5q0 80 29 157.5t94.5 129t167.5 51.5q103 0 160 -59t57 -162q0 -80 -28 -158t-93 -130.5t-169 -52.5t-161 59.5zM365 167q31 76 32 165q0 56 -20.5 82t-61.5 26q-52 0 -82.5 -39.5t-42.5 -95t-12 -107.5q0 -55 20.5 -81t61.5 -26q74 0 105 76z
" />
    <glyph glyph-name="p" unicode="p" horiz-adv-x="579" 
d="M104 530h123v-60q72 76 157 76q79 0 121 -54t42 -153q0 -84 -28 -165.5t-91.5 -135.5t-161.5 -54q-53 0 -97 16l-30 -205l-140 -16zM340.5 128.5q32.5 38.5 47.5 95.5t15 115q0 101 -70 101q-56 0 -110 -64l-38 -273q35 -13 73 -13q50 0 82.5 38.5z" />
    <glyph glyph-name="q" unicode="q" horiz-adv-x="571" 
d="M341 51q-20 -27 -57.5 -47t-81.5 -20q-81 0 -126 56.5t-45 152.5q0 85 31 165.5t99 134t171 53.5q111 0 211 -53l-99 -698l-141 -16zM303.5 110q26.5 20 53.5 59l38 262q-31 12 -66 12q-52 0 -86 -38t-50 -95.5t-16 -116.5q0 -103 69 -103q31 0 57.5 20z" />
    <glyph glyph-name="r" unicode="r" horiz-adv-x="388" 
d="M426 537l-40 -138q-22 7 -44 7q-47 0 -78.5 -39.5t-57.5 -113.5l-36 -253h-140l74 530h122l-3 -101q27 57 66.5 86.5t83.5 29.5q27 0 53 -8z" />
    <glyph glyph-name="s" unicode="s" horiz-adv-x="468" 
d="M373 528q48 -18 85 -49l-63 -79q-28 21 -61 32t-65 11q-38 0 -58.5 -13.5t-20.5 -36.5q0 -15 9.5 -25.5t30 -19.5t63.5 -23q71 -22 106 -60.5t35 -99.5q0 -52 -27 -93t-79.5 -64.5t-126.5 -23.5q-67 0 -123 23.5t-92 61.5l72 75q65 -56 145 -56q45 0 67.5 18t22.5 43
q0 20 -9 32t-30.5 22t-66.5 25q-71 24 -104 59.5t-33 92.5q0 44 25 82t74.5 61t119.5 23q56 0 104 -18z" />
    <glyph glyph-name="t" unicode="t" horiz-adv-x="371" 
d="M207 167q-2 -20 -2 -25q0 -24 10 -34t30 -10q26 0 64 18l38 -93q-31 -19 -67.5 -29t-70.5 -10q-71 0 -108.5 37.5t-37.5 107.5q0 18 3 39l37 261h-78l14 101h84l33 119l119 14l-18 -133h122l-29 -101h-107z" />
    <glyph glyph-name="u" unicode="u" horiz-adv-x="560" 
d="M74 18.5q-33 34.5 -33 96.5q0 18 3 37l53 378h140l-50 -358q-2 -20 -2 -26q0 -27 10.5 -38t31.5 -11q54 0 116 93l47 340h140l-74 -530h-121l5 83q-37 -48 -79 -73.5t-91 -25.5q-63 0 -96 34.5z" />
    <glyph glyph-name="v" unicode="v" horiz-adv-x="499" 
d="M300 0h-168l-97 530h151l45 -418l160 418h149z" />
    <glyph glyph-name="w" unicode="w" horiz-adv-x="732" 
d="M576 0h-170l-18 403l-132 -403h-169l-40 530h140l5 -425l146 425h140l18 -425l130 425h135z" />
    <glyph glyph-name="x" unicode="x" horiz-adv-x="498" 
d="M336 278l131 -278h-153l-73 201l-128 -201h-157l210 283l-118 247h153l58 -177l105 177h154z" />
    <glyph glyph-name="y" unicode="y" horiz-adv-x="502" 
d="M306 -3q-45 -100 -122 -154.5t-195 -62.5l-4 102q77 10 117 36t72 82h-50l-89 530h147l44 -435l170 435h147z" />
    <glyph glyph-name="z" unicode="z" horiz-adv-x="436" 
d="M442 428l-279 -318h238l-28 -110h-399l14 102l279 319h-212l15 109h385z" />
    <glyph glyph-name="braceleft" unicode="{" horiz-adv-x="315" 
d="M354 738q-45 0 -64.5 -15t-24.5 -49l-28 -198q-8 -60 -34.5 -87t-78.5 -42q40 -9 60 -30t20 -65q0 -20 -2 -32l-29 -199q-1 -6 -1 -16q0 -24 15.5 -33.5t54.5 -9.5l-11 -101q-98 0 -144.5 32.5t-46.5 98.5q0 21 2 32l27 189q2 11 2 30q0 26 -13 37t-46 11l17 117
q38 0 55.5 19t23.5 64l26 189q8 57 31 91t70.5 51t129.5 17z" />
    <glyph glyph-name="bar" unicode="|" horiz-adv-x="374" 
d="M200 -104h-130l128 913h130z" />
    <glyph glyph-name="braceright" unicode="}" horiz-adv-x="315" 
d="M-15 -38q45 0 64.5 14.5t24.5 49.5l28 198q8 60 34.5 87t78.5 42q-40 9 -60 30t-20 65q0 20 2 32l28 199q1 6 1 17q0 23 -15.5 32.5t-54.5 9.5l11 101q99 0 145 -32.5t46 -98.5q0 -21 -2 -32l-26 -189q-3 -18 -3 -30q0 -26 13 -37t46 -11l-16 -117q-38 0 -56 -19.5
t-24 -63.5l-26 -189q-8 -57 -30.5 -91t-70 -51t-130.5 -17z" />
    <glyph glyph-name="asciitilde" unicode="~" horiz-adv-x="499" 
d="M274.5 246q-21.5 10 -45.5 27q-17 12 -29 18t-26 6q-26 0 -44 -14.5t-35 -41.5l-73 45q74 118 168 118q30 0 51 -9.5t44 -26.5q20 -14 31 -19.5t26 -5.5q25 0 42.5 14t34.5 39l73 -45q-32 -51 -71.5 -83t-93.5 -32q-31 0 -52.5 10z" />
    <glyph glyph-name="uni00A0" unicode="&#xa0;" horiz-adv-x="235" 
 />
    <glyph glyph-name="exclamdown" unicode="&#xa1;" horiz-adv-x="230" 
d="M77 357q-21 22 -21 55q0 39 27 66.5t66 27.5q34 0 55 -21.5t21 -54.5q0 -39 -27.5 -67t-66.5 -28q-33 0 -54 22zM127 -204h-150l80 442h115z" />
    <glyph glyph-name="cent" unicode="&#xa2;" horiz-adv-x="471" 
d="M431 43q-73 -50 -147 -57l-21 -145h-104l22 152q-71 19 -109.5 75.5t-38.5 141.5q0 67 23.5 136t74 122.5t127.5 70.5l21 151h103l-20 -147q74 -11 127 -62l-70 -83q-22 20 -44.5 28.5t-50.5 8.5q-77 0 -110.5 -71t-33.5 -160q0 -57 23 -81.5t66 -24.5q28 0 52.5 9
t56.5 29z" />
    <glyph glyph-name="sterling" unicode="&#xa3;" horiz-adv-x="526" 
d="M221.5 156q-16.5 -27 -55.5 -47h305l-32 -109h-447l14 105q38 11 58 26.5t28.5 37.5t13.5 59l12 85h-66l11 77h66l14 102q12 90 71 142.5t156 52.5q64 0 109.5 -24t76.5 -73l-92 -61q-17 28 -37 39t-50 11q-84 0 -96 -92l-14 -97h187l-11 -77h-186l-12 -83
q-7 -47 -23.5 -74z" />
    <glyph glyph-name="currency" unicode="&#xa4;" horiz-adv-x="560" 
d="M465 222l76 -75l-67 -67l-78 76q-52 -30 -117 -30q-64 0 -114 31l-79 -77l-66 67l76 76q-33 53 -33 118t33 117l-76 79l66 67l79 -79q50 31 114 31t118 -30l77 78l67 -67l-76 -77q34 -53 34 -119t-34 -119zM357 255.5q26 30.5 26 86.5t-26 86t-76 30q-51 0 -77.5 -30.5
t-26.5 -85.5q0 -56 26.5 -86.5t77.5 -30.5q50 0 76 30.5z" />
    <glyph glyph-name="yen" unicode="&#xa5;" horiz-adv-x="552" 
d="M392 351h99l-11 -78h-132l-10 -76h131l-10 -77h-132l-17 -120h-141l17 120h-132l11 77h132l10 76h-132l11 78h99l-132 323h148l93 -284l173 284h147z" />
    <glyph glyph-name="brokenbar" unicode="&#xa6;" horiz-adv-x="374" 
d="M277 443h-131l52 366h130zM200 -104h-130l51 366h131z" />
    <glyph glyph-name="section" unicode="&#xa7;" horiz-adv-x="537" 
d="M454.5 400.5q33.5 -32.5 33.5 -83.5q0 -47 -25 -81t-74 -61q23 -19 33.5 -41.5t10.5 -52.5q0 -43 -23.5 -79.5t-74.5 -59.5t-129 -23q-53 0 -100 15.5t-82 41.5l56 84q59 -40 126 -40q92 0 92 56q0 17 -8.5 28.5t-30 22t-66.5 25.5q-69 22 -101.5 53t-32.5 83
q0 85 102 140q-45 39 -45 96q0 75 60 118.5t157 43.5q55 0 103 -16.5t85 -43.5l-58 -79q-60 39 -126 39q-86 0 -86 -56q0 -24 20.5 -39.5t82.5 -35.5q67 -22 100.5 -54.5zM317 217q23 20 34 38t11 37q0 23 -18 40t-63 33q-37 13 -55 22q-21 -19 -30 -37t-9 -38
q0 -23 14.5 -39.5t51.5 -29.5q44 -16 64 -26z" />
    <glyph glyph-name="dieresis" unicode="&#xa8;" horiz-adv-x="435" 
d="M112 662.5q-19 18.5 -19 47.5q0 35 24 58t60 23q31 0 50 -18t19 -47q0 -35 -24.5 -58.5t-59.5 -23.5q-31 0 -50 18.5zM336 662.5q-19 18.5 -19 47.5q0 35 24 58t60 23q31 0 49.5 -18t18.5 -47q0 -35 -24.5 -58.5t-59.5 -23.5q-30 0 -49 18.5z" />
    <glyph glyph-name="copyright" unicode="&#xa9;" horiz-adv-x="810" 
d="M597 720q76 -42 120 -117.5t44 -169.5t-44 -169.5t-120 -117.5t-167 -42q-92 0 -168.5 42t-121 117.5t-44.5 169.5t44.5 169.5t121 117.5t168.5 42q91 0 167 -42zM302.5 656.5q-56.5 -32.5 -89 -90.5t-32.5 -133t32 -133t89 -90t128 -32q70 0 126.5 32t88.5 90t32 133
t-32 133t-88.5 90.5t-126.5 32.5q-71 0 -127.5 -32.5zM559 581l-45 -58q-18 14 -35.5 19.5t-37.5 5.5q-36 0 -57 -27.5t-21 -86.5q0 -58 20.5 -86t56.5 -28q23 0 42.5 7.5t38.5 22.5l41 -61q-54 -51 -129 -51q-81 0 -128 51t-47 145q0 60 22.5 104t62 67.5t89.5 23.5
q73 0 127 -48z" />
    <glyph glyph-name="ordfeminine" unicode="&#xaa;" horiz-adv-x="484" 
d="M96.5 299.5q-33.5 33.5 -33.5 83.5q0 62 49.5 103t165.5 41h43l2 15q1 6 1 17q0 22 -12.5 31t-43.5 9q-47 0 -118 -21l-20 84q84 30 166 30q76 0 114 -30t38 -95q0 -10 -2 -34l-18 -135q-2 -12 -2 -17q0 -21 23 -29l-36 -84q-36 3 -59.5 16.5t-35.5 39.5
q-49 -58 -130 -58q-58 0 -91.5 33.5zM302 394l9 63h-31q-86 0 -86 -62q0 -37 38 -37q42 0 70 36zM23 112h395l-15 -112h-396z" />
    <glyph glyph-name="guillemotleft" unicode="&#xab;" horiz-adv-x="607" 
d="M340 493l-158 -208l99 -208l-92 -58l-154 220l12 91l212 221zM601 493l-158 -208l99 -208l-92 -58l-154 220l12 91l212 221z" />
    <glyph glyph-name="logicalnot" unicode="&#xac;" horiz-adv-x="514" 
d="M444 120h-125l21 151h-289l16 112h414z" />
    <glyph glyph-name="uni00AD" unicode="&#xad;" horiz-adv-x="398" 
d="M60 369h306l-15 -112h-306z" />
    <glyph glyph-name="registered" unicode="&#xae;" horiz-adv-x="638" 
d="M488.5 721.5q61.5 -35.5 96.5 -97.5t35 -138t-35 -137t-96.5 -96t-137.5 -35t-137.5 35t-97 96t-35.5 137t35.5 138t97 97.5t137.5 35.5t137.5 -35.5zM453.5 306.5q44.5 25.5 69.5 72t25 107.5t-25 108.5t-70 73.5t-102 26t-102 -26t-70 -73.5t-25 -108.5t25 -107.5
t70 -72t102 -25.5q58 0 102.5 25.5zM447 500q-16 -20 -44 -30l74 -117h-79l-58 104h-22v-104h-68v281h82q131 0 131 -87q0 -27 -16 -47zM318 511h29q46 0 46 38q0 34 -47 34h-28v-72z" />
    <glyph glyph-name="macron" unicode="&#xaf;" horiz-adv-x="354" 
d="M86 658l13 100h294l-14 -100h-293z" />
    <glyph glyph-name="degree" unicode="&#xb0;" horiz-adv-x="512" 
d="M121.5 411q-42.5 39 -42.5 107q0 55 25.5 98.5t69.5 67.5t96 24q68 0 110.5 -39t42.5 -107q0 -55 -25.5 -98t-69.5 -67.5t-96 -24.5q-68 0 -110.5 39zM300.5 484.5q23.5 28.5 23.5 74.5q0 32 -15.5 48.5t-43.5 16.5q-40 0 -63.5 -28.5t-23.5 -74.5q0 -32 15 -48.5
t44 -16.5q40 0 63.5 28.5z" />
    <glyph glyph-name="plusminus" unicode="&#xb1;" horiz-adv-x="514" 
d="M33 112h406l-16 -112h-405zM342 448h148l-16 -111h-148l-22 -154h-118l22 154h-147l15 111h148l21 155h118z" />
    <glyph glyph-name="uni00B2" unicode="&#xb2;" horiz-adv-x="391" 
d="M358 718q36 -32 36 -81q0 -41 -23.5 -77t-61 -68t-111.5 -88h174l-22 -83h-287l10 78l41 34q90 74 129.5 116t39.5 80q0 19 -11.5 29t-32.5 10q-23 0 -42 -10.5t-42 -33.5l-60 53q70 73 163 73q64 0 100 -32z" />
    <glyph glyph-name="uni00B3" unicode="&#xb3;" horiz-adv-x="391" 
d="M359.5 721.5q35.5 -28.5 35.5 -72.5q0 -41 -28 -68t-77 -39q41 -3 66 -25t25 -62q0 -42 -24.5 -75.5t-66.5 -51.5t-92 -18q-100 0 -147 67l64 53q35 -39 83 -39q33 0 53.5 18.5t20.5 51.5q0 23 -14.5 32.5t-46.5 9.5h-38l23 74h23q31 0 50 15.5t19 41.5q0 36 -46 36
q-44 0 -92 -35l-47 59q71 56 157 56q64 0 99.5 -28.5z" />
    <glyph glyph-name="acute" unicode="&#xb4;" horiz-adv-x="324" 
d="M360 718l-239 -92l-32 73l226 128z" />
    <glyph glyph-name="uni00B5" unicode="&#xb5;" horiz-adv-x="574" 
d="M478 77q0 -40 7 -79l-130 -12q-7 22 -9 39.5t-2 46.5q-53 -83 -128 -83q-43 0 -67 27q6 -28 6 -52q0 -30 -7 -75l-13 -93l-136 -15l105 749h140l-52 -371q-1 -6 -1 -17q0 -48 46 -48q28 0 55.5 17t51.5 55l51 364h140l-49 -350q-8 -62 -8 -103z" />
    <glyph glyph-name="paragraph" unicode="&#xb6;" horiz-adv-x="766" 
d="M705 692l-126 -896l-124 -17l113 811h-99l-110 -794l-124 -17l68 489q-101 4 -153 52t-52 128q0 76 36.5 131.5t102.5 84t152 28.5h316z" />
    <glyph glyph-name="periodcentered" unicode="&#xb7;" horiz-adv-x="239" 
d="M62.5 245q-21.5 22 -21.5 55q0 39 27.5 66.5t66.5 27.5q33 0 54 -21.5t21 -54.5q0 -39 -27 -67t-66 -28q-33 0 -54.5 22z" />
    <glyph glyph-name="cedilla" unicode="&#xb8;" horiz-adv-x="306" 
d="M130 -50q43 -4 66 -27.5t23 -60.5q0 -30 -16.5 -57t-51 -44.5t-85.5 -17.5q-63 0 -105 31l42 65q27 -16 61 -16q23 0 37 9t14 26q1 19 -18 26t-67 7l31 125h80z" />
    <glyph glyph-name="uni00B9" unicode="&#xb9;" horiz-adv-x="391" 
d="M295 321h-105l44 317l-99 -56l-37 72l160 87h96z" />
    <glyph glyph-name="ordmasculine" unicode="&#xba;" horiz-adv-x="491" 
d="M436.5 646.5q47.5 -45.5 47.5 -128.5q0 -73 -29 -130t-82.5 -89.5t-123.5 -32.5q-86 0 -134 45.5t-48 127.5q0 73 29.5 130.5t83 90t123.5 32.5q86 0 133.5 -45.5zM222 550q-24 -48 -24 -114q0 -76 58 -76q50 0 73.5 48.5t23.5 115.5q0 38 -14 56t-43 18q-50 0 -74 -48z
M21 112h406l-16 -112h-406z" />
    <glyph glyph-name="guillemotright" unicode="&#xbb;" horiz-adv-x="607" 
d="M316 330l-12 -91l-212 -220l-81 58l158 208l-99 208l92 58zM577 330l-12 -91l-212 -220l-81 58l158 208l-99 208l92 58z" />
    <glyph glyph-name="onequarter" unicode="&#xbc;" horiz-adv-x="934" 
d="M288 272h-105l44 317l-99 -56l-37 72l160 87h96zM773 715l-515 -799l-79 42l516 799zM880 87h-47l-12 -87h-101l12 87h-188l10 73l158 269l86 -33l-132 -229h78l31 97h83l-14 -97h48z" />
    <glyph glyph-name="onehalf" unicode="&#xbd;" horiz-adv-x="934" 
d="M288 272h-105l44 317l-99 -56l-37 72l160 87h96zM773 715l-515 -799l-79 42l516 799zM855 397q36 -32 36 -81q0 -41 -23.5 -77t-61 -68t-111.5 -88h174l-22 -83h-287l10 78l41 34q90 74 129.5 116t39.5 80q0 19 -11.5 29t-32.5 10q-23 0 -42 -10.5t-42 -33.5l-60 53
q70 73 163 73q64 0 100 -32z" />
    <glyph glyph-name="threequarters" unicode="&#xbe;" horiz-adv-x="934" 
d="M352.5 672.5q35.5 -28.5 35.5 -72.5q0 -41 -28 -68t-77 -39q41 -3 66 -25t25 -62q0 -42 -24.5 -75.5t-66.5 -51.5t-92 -18q-100 0 -147 67l64 53q35 -39 83 -39q33 0 53.5 18.5t20.5 51.5q0 23 -14.5 32.5t-46.5 9.5h-38l23 74h23q31 0 50 15.5t19 41.5q0 36 -46 36
q-44 0 -92 -35l-47 59q71 56 157 56q64 0 99.5 -28.5zM773 715l-515 -799l-79 42l516 799zM880 87h-47l-12 -87h-101l12 87h-188l10 73l158 269l86 -33l-132 -229h78l31 97h83l-14 -97h48z" />
    <glyph glyph-name="questiondown" unicode="&#xbf;" horiz-adv-x="467" 
d="M329.5 486q21.5 -22 21.5 -55q0 -39 -27.5 -66.5t-66.5 -27.5q-33 0 -54 21.5t-21 54.5q0 39 27 67t66 28q33 0 54.5 -22zM20 -179.5q-49 41.5 -49 104.5q0 51 19 85t46 54t71 43q34 18 53 30.5t31.5 31.5t12.5 45q0 12 -3 24l125 19q8 -24 8 -49q0 -44 -17.5 -74.5
t-42.5 -49.5t-64 -40q-47 -26 -69 -47t-22 -56q0 -24 16.5 -36.5t48.5 -12.5q67 0 132 65l81 -75q-101 -103 -236 -103q-92 0 -141 41.5z" />
    <glyph glyph-name="Agrave" unicode="&#xc0;" horiz-adv-x="577" 
d="M379 155h-215l-60 -155h-151l307 692h177l112 -692h-153zM367 264l-35 326l-126 -326h161zM502 820l-38 -71l-218 81l60 109z" />
    <glyph glyph-name="Aacute" unicode="&#xc1;" horiz-adv-x="577" 
d="M379 155h-215l-60 -155h-151l307 692h177l112 -692h-153zM367 264l-35 326l-126 -326h161zM510 831l-239 -82l-30 71l225 120z" />
    <glyph glyph-name="Acircumflex" unicode="&#xc2;" horiz-adv-x="577" 
d="M379 155h-215l-60 -155h-151l307 692h177l112 -692h-153zM367 264l-35 326l-126 -326h161zM179 816l156 125h86l121 -125l-57 -60l-118 84l-140 -84z" />
    <glyph glyph-name="Atilde" unicode="&#xc3;" horiz-adv-x="577" 
d="M379 155h-215l-60 -155h-151l307 692h177l112 -692h-153zM367 264l-35 326l-126 -326h161zM387.5 773q-15.5 7 -34.5 20q-13 9 -21.5 13.5t-17.5 4.5q-18 0 -31 -11t-30 -35l-68 39q26 49 61 79.5t74 30.5q22 0 37 -7t34 -21q12 -9 20 -13.5t17 -4.5q16 0 29.5 10.5
t30.5 34.5l68 -39q-26 -50 -61 -79t-72 -29q-20 0 -35.5 7z" />
    <glyph glyph-name="Adieresis" unicode="&#xc4;" horiz-adv-x="577" 
d="M379 155h-215l-60 -155h-151l307 692h177l112 -692h-153zM367 264l-35 326l-126 -326h161zM200 788.5q-19 18.5 -19 47.5q0 35 24 58t60 23q31 0 50 -18t19 -47q0 -35 -24.5 -58.5t-59.5 -23.5q-31 0 -50 18.5zM424 788.5q-19 18.5 -19 47.5q0 35 24 58t60 23
q31 0 49.5 -18t18.5 -47q0 -35 -24.5 -58.5t-59.5 -23.5q-30 0 -49 18.5z" />
    <glyph glyph-name="Aring" unicode="&#xc5;" horiz-adv-x="577" 
d="M379 155h-215l-60 -155h-151l307 692h177l112 -692h-153zM367 264l-35 326l-126 -326h161zM474 954q32 -32 32 -81q0 -37 -19 -68.5t-52.5 -50.5t-75.5 -19q-54 0 -86 32t-32 81q0 36 19 68t52.5 51t75.5 19q54 0 86 -32zM340.5 894q-15.5 -19 -15.5 -43q0 -20 10.5 -31
t29.5 -11q26 0 41.5 18.5t15.5 42.5q0 21 -10.5 32t-29.5 11q-26 0 -41.5 -19z" />
    <glyph glyph-name="AE" unicode="&#xc6;" horiz-adv-x="826" 
d="M505 584l14 -181h243l-13 -106h-222l15 -189h226l-15 -108h-342l-8 155h-229l-74 -155h-156l359 692h510l-31 -108h-277zM397 264l-17 319l-153 -319h170z" />
    <glyph glyph-name="Ccedilla" unicode="&#xc7;" horiz-adv-x="563" 
d="M342 -14l-6 -36q43 -4 65.5 -27.5t22.5 -60.5q0 -30 -16 -57t-50.5 -44.5t-85.5 -17.5q-33 0 -60 8.5t-45 22.5l41 65q27 -16 61 -16q23 0 37 9t15 26q0 19 -18.5 26t-66.5 7l24 96q-100 13 -158 86t-58 196q0 104 36.5 204.5t115 167.5t198.5 67q126 0 201 -80l-79 -77
q-28 23 -56 34.5t-62 11.5q-72 0 -117.5 -52t-65.5 -128t-20 -150q0 -85 34 -126t95 -41q39 0 72 15t72 43l58 -89q-83 -71 -184 -83z" />
    <glyph glyph-name="Egrave" unicode="&#xc8;" horiz-adv-x="520" 
d="M509 584h-247l-25 -179h214l-13 -106h-215l-27 -191h264l-16 -108h-409l97 692h407zM491 820l-38 -71l-218 81l60 109z" />
    <glyph glyph-name="Eacute" unicode="&#xc9;" horiz-adv-x="520" 
d="M509 584h-247l-25 -179h214l-13 -106h-215l-27 -191h264l-16 -108h-409l97 692h407zM499 831l-239 -82l-30 71l225 120z" />
    <glyph glyph-name="Ecircumflex" unicode="&#xca;" horiz-adv-x="520" 
d="M509 584h-247l-25 -179h214l-13 -106h-215l-27 -191h264l-16 -108h-409l97 692h407zM168 816l156 125h86l121 -125l-57 -60l-118 84l-140 -84z" />
    <glyph glyph-name="Edieresis" unicode="&#xcb;" horiz-adv-x="520" 
d="M509 584h-247l-25 -179h214l-13 -106h-215l-27 -191h264l-16 -108h-409l97 692h407zM189 788.5q-19 18.5 -19 47.5q0 35 24 58t60 23q31 0 50 -18t19 -47q0 -35 -24.5 -58.5t-59.5 -23.5q-31 0 -50 18.5zM413 788.5q-19 18.5 -19 47.5q0 35 24 58t60 23q31 0 49.5 -18
t18.5 -47q0 -35 -24.5 -58.5t-59.5 -23.5q-30 0 -49 18.5z" />
    <glyph glyph-name="Igrave" unicode="&#xcc;" horiz-adv-x="291" 
d="M181 0h-146l97 692h146zM358 820l-38 -71l-218 81l60 109z" />
    <glyph glyph-name="Iacute" unicode="&#xcd;" horiz-adv-x="291" 
d="M181 0h-146l97 692h146zM366 831l-239 -82l-30 71l225 120z" />
    </font>
</defs>
</svg>
