<?xml version="1.0" standalone="no"?>
<!DOCTYPE svg PUBLIC "-//W3C//DTD SVG 1.1//EN" "http://www.w3.org/Graphics/SVG/1.1/DTD/svg11.dtd" >
<svg xmlns="http://www.w3.org/2000/svg" xmlns:xlink="http://www.w3.org/1999/xlink" version="1.1">
<metadata>
Created by FontForge 20170731 at Tue Mar 20 17:49:12 2018
 By Aleksey,,,
Digitized data copyright 2012-2018 for FiraGO, bBox Type GmbH and HERE Europe B.V. All rights reserved, with Reserved Font Name "Fira" / Digitized data copyright 2012-2018 for Fira Sans The Mozilla Foundation, Telefonica S.A., Carrois Corporate GbR and bBox Type GmbH, with Reserved Font Name "Fira"
</metadata>
<defs>
<font id="FiraGO-ThinItalic" horiz-adv-x="0" >
  <font-face 
    font-family="FiraGO Thin"
    font-weight="100"
    font-style="italic"
    font-stretch="normal"
    units-per-em="1000"
    panose-1="2 11 3 3 5 0 0 2 0 4"
    ascent="800"
    descent="-200"
    x-height="519"
    cap-height="681"
    bbox="-749 -704 2506 1435"
    underline-thickness="50"
    underline-position="-150"
    slope="-8"
    unicode-range="U+000D-FEFF"
  />
<missing-glyph horiz-adv-x="666" 
d="M456 -350h-420l198 1400h420zM269 1012l-188 -1324h341l188 1324h-341zM424 426.5q23 -24.5 23 -65.5q0 -8 -2 -26q-7 -53 -33 -81.5t-77 -35.5l-7 -46q-1 -11 -9.5 -17t-17.5 -6q-11 0 -17.5 7t-5.5 18l11 83q53 3 75 20t28 58q1 7 1 20q0 23 -11.5 35.5t-40.5 12.5
t-53 -12l-13 -2q-12 0 -18 7t-4 17q2 19 32.5 28.5t64.5 9.5q51 0 74 -24.5zM316.5 111.5q8.5 -8.5 8.5 -22.5q0 -17 -11 -29t-27 -12t-24.5 11t-6.5 27q1 15 12 24.5t26 9.5q14 0 22.5 -8.5z" />
    <glyph glyph-name="fi" unicode="fi" horiz-adv-x="549" 
d="M394 0h-22l71 499h-267l-69 -494q-8 -63 -24.5 -99t-42.5 -57.5t-72 -43.5l-7 18q41 20 64 40t38 53.5t23 90.5l69 492h-90l2 20h90l14 98q8 58 47.5 89t102.5 31q68 0 128 -40l-10 -16q-58 36 -119 36q-114 0 -128 -103l-13 -95h289z" />
    <glyph glyph-name="fl" unicode="fl" horiz-adv-x="575" 
d="M491 19l6 -19q-28 -10 -48 -10q-31 0 -48 16.5t-17 48.5q0 6 2 20l87 614q-39 14 -73.5 21t-76.5 7q-117 0 -131 -103l-13 -95h147l-6 -20h-144l-69 -494q-8 -63 -24.5 -99t-42.5 -57.5t-72 -43.5l-7 18q41 20 64 40t38 53.5t23 90.5l69 492h-90l2 20h90l14 98
q8 58 48.5 89t105.5 31q79 0 152 -31l20 3l-89 -636q-1 -6 -1 -18q0 -44 43 -44q17 0 41 8z" />
    <glyph glyph-name="uniFDF2" unicode="&#x627;&#xfedf;&#xfee0;&#xfeea;" horiz-adv-x="1068" arabic-form="isolated" 
d="M543 744l-6 150l17 2l6 -152h-17zM975 1l-19 -2l-13 733l22 2zM461.5 593.5q-15.5 17.5 -15.5 51.5q0 29 9 58l15 -4q-8 -20 -8 -51q0 -53 42 -53q21 0 33 16t12 40v45h15v-46q0 -23 11 -38.5t32 -15.5q44 0 44 55q0 32 -17 69l15 5q19 -41 19 -78q0 -34 -16 -51.5
t-43 -17.5q-21 0 -34 11t-19 29q-6 -19 -19.5 -30.5t-34.5 -11.5q-25 0 -40.5 17.5zM768 621l11 -546q-14 -35 -43.5 -55t-72.5 -20t-71 18.5t-38 53.5q-12 -33 -38 -52.5t-68 -19.5q-51 0 -82.5 27.5t-36.5 73.5q-73 -61 -162 -61q-60 0 -97.5 25.5t-40.5 60.5
q0 83 78.5 147.5t211.5 90.5l-3 80l22 2l7 -323q1 -49 27.5 -75t75.5 -26q76 0 95 73l-11 432l20 2l10 -405q3 -102 100 -102q71 0 97 56l-12 541zM258.5 77.5q37.5 17.5 68.5 43.5l-8 224q-82 -16 -143.5 -49t-95 -78t-33.5 -97q12 -27 43 -44t79 -17q52 0 89.5 17.5z" />
    <glyph glyph-name="uniFEF5" unicode="&#xfedf;&#xfe82;" horiz-adv-x="630" arabic-form="isolated" 
d="M542 63q-38 -33 -98.5 -48t-160.5 -15h-173l1 20q115 68 189 133t116 136q-42 50 -96.5 99.5t-133.5 113.5l-103 82l23 9l97 -80q85 -72 133.5 -115.5t88.5 -91.5q54 104 54 244q0 25 -1 38l-6 145l22 2l5 -149q6 -171 -61 -294q92 -113 104 -229zM431 33.5
q57 12.5 92 37.5q-14 101 -95 203q-42 -70 -112 -131.5t-172 -121.5h137q93 0 150 12.5zM-3 701q10 22 27.5 35t36.5 13q10 0 21 -3.5t20 -7.5q22 -11 40 -11q16 0 28 5t33 18l7 -13q-19 -14 -35.5 -20.5t-35.5 -6.5q-15 0 -28 5t-15 6q-24 10 -36 10q-15 0 -27 -9.5
t-21 -25.5z" />
    <glyph glyph-name="uniFEF6" unicode="&#xfee0;&#xfe82;" horiz-adv-x="629" arabic-form="final" 
d="M644 11l-15 -11q-38 0 -67.5 20.5t-39.5 58.5q-26 -38 -78 -58.5t-137 -20.5h-218l-6 22h227q82 0 128 17l-299 497l26 3l28 -46q125 -207 174 -291.5t88 -155.5q35 17 61 53l-14 634l22 3l10 -614q2 -50 27.5 -75t69.5 -25zM47 636q10 22 27.5 35t36.5 13q10 0 21 -3.5
t20 -7.5q22 -11 40 -11q16 0 28 5t33 18l7 -13q-19 -14 -35.5 -20.5t-35.5 -6.5q-15 0 -28 5t-15 6q-24 10 -36 10q-15 0 -27 -9.5t-21 -25.5z" />
    <glyph glyph-name="uniFEF7" unicode="&#xfedf;&#xfe84;" horiz-adv-x="630" arabic-form="isolated" 
d="M542 63q-38 -33 -98.5 -48t-160.5 -15h-173l1 20q115 68 189 133t116 136q-42 50 -96.5 99.5t-133.5 113.5l-103 82l23 9l97 -80q85 -72 133.5 -115.5t88.5 -91.5q54 104 54 244q0 25 -1 38l-6 145l22 2l5 -149q6 -171 -61 -294q92 -113 104 -229zM431 33.5
q57 12.5 92 37.5q-14 101 -95 203q-42 -70 -112 -131.5t-172 -121.5h137q93 0 150 12.5zM193 736v-16l-181 -29v16l75 12q-28 16 -43.5 37t-15.5 44q0 30 22.5 50t63.5 20q29 0 55 -13l-4 -15q-26 13 -51 13q-35 0 -52.5 -16t-17.5 -39q0 -44 62 -78z" />
    <glyph glyph-name="uniFEF8" unicode="&#xfee0;&#xfe84;" horiz-adv-x="629" arabic-form="final" 
d="M644 11l-15 -11q-38 0 -67.5 20.5t-39.5 58.5q-26 -38 -78 -58.5t-137 -20.5h-218l-6 22h227q82 0 128 17l-299 497l26 3l28 -46q125 -207 174 -291.5t88 -155.5q35 17 61 53l-14 634l22 3l10 -614q2 -50 27.5 -75t69.5 -25zM243 671v-16l-181 -29v16l75 12
q-28 16 -43.5 37t-15.5 44q0 30 22.5 50t63.5 20q29 0 55 -13l-4 -15q-26 13 -51 13q-35 0 -52.5 -16t-17.5 -39q0 -44 62 -78z" />
    <glyph glyph-name="uniFEF9" unicode="&#xfedf;&#xfe88;" horiz-adv-x="630" arabic-form="isolated" 
d="M542 63q-38 -33 -98.5 -48t-160.5 -15h-173l1 20q115 68 189 133t116 136q-42 50 -96.5 99.5t-133.5 113.5l-103 82l23 9l97 -80q85 -72 133.5 -115.5t88.5 -91.5q54 104 54 244q0 25 -1 38l-6 145l22 2l5 -149q6 -171 -61 -294q92 -113 104 -229zM431 33.5
q57 12.5 92 37.5q-14 101 -95 203q-42 -70 -112 -131.5t-172 -121.5h137q93 0 150 12.5zM281 -195v-16l-181 -29v16l75 12q-28 16 -43.5 37t-15.5 44q0 30 22.5 50t63.5 20q29 0 55 -13l-4 -15q-26 13 -51 13q-35 0 -52.5 -16t-17.5 -39q0 -44 62 -78z" />
    <glyph glyph-name="uniFEFA" unicode="&#xfee0;&#xfe88;" horiz-adv-x="629" arabic-form="final" 
d="M644 11l-15 -11q-38 0 -67.5 20.5t-39.5 58.5q-26 -38 -78 -58.5t-137 -20.5h-218l-6 22h227q82 0 128 17l-299 497l26 3l28 -46q125 -207 174 -291.5t88 -155.5q35 17 61 53l-14 634l22 3l10 -614q2 -50 27.5 -75t69.5 -25zM281 -195v-16l-181 -29v16l75 12
q-28 16 -43.5 37t-15.5 44q0 30 22.5 50t63.5 20q29 0 55 -13l-4 -15q-26 13 -51 13q-35 0 -52.5 -16t-17.5 -39q0 -44 62 -78z" />
    <glyph glyph-name="uniFEFB" unicode="&#xfedf;&#xfe8e;" horiz-adv-x="630" arabic-form="isolated" 
d="M542 63q-38 -33 -98.5 -48t-160.5 -15h-173l1 20q115 68 189 133t116 136q-42 50 -96.5 99.5t-133.5 113.5l-103 82l23 9l97 -80q85 -72 133.5 -115.5t88.5 -91.5q54 104 54 244q0 25 -1 38l-6 145l22 2l5 -149q6 -171 -61 -294q92 -113 104 -229zM431 33.5
q57 12.5 92 37.5q-14 101 -95 203q-42 -70 -112 -131.5t-172 -121.5h137q93 0 150 12.5z" />
    <glyph glyph-name="uniFEFC" unicode="&#xfee0;&#xfe8e;" horiz-adv-x="629" arabic-form="final" 
d="M644 11l-15 -11q-38 0 -67.5 20.5t-39.5 58.5q-26 -38 -78 -58.5t-137 -20.5h-218l-6 22h227q82 0 128 17l-299 497l26 3l28 -46q125 -207 174 -291.5t88 -155.5q35 17 61 53l-14 634l22 3l10 -614q2 -50 27.5 -75t69.5 -25z" />
    <glyph glyph-name="f_f" unicode="ff" horiz-adv-x="599" 
d="M523.5 691.5q-31.5 -25.5 -39.5 -77.5l-13 -95h147l-6 -20h-144l-69 -494q-7 -55 -20.5 -88.5t-34 -54.5t-54.5 -40l-8 16q43 25 64.5 60.5t31.5 108.5l69 492h-272l-68 -494q-8 -63 -24.5 -99t-42.5 -57.5t-72 -43.5l-7 18q41 20 64 40t38 53.5t23 90.5l68 492h-89l2 20
h90l12 88q8 58 49.5 89t110.5 31q79 0 160 -43q19 26 48.5 39.5t66.5 13.5q60 0 112 -35l-10 -16q-27 16 -50.5 23.5t-51.5 7.5q-49 0 -80.5 -25.5zM463 617q5 31 16 52q-82 39 -149 39q-126 0 -140 -104l-12 -85h271z" />
    <glyph glyph-name="f_f_i" unicode="ffi" horiz-adv-x="841" 
d="M687 0h-22l70 499h-267l-69 -494q-7 -55 -20.5 -88.5t-34 -54.5t-54.5 -40l-8 16q43 25 64.5 60.5t31.5 108.5l69 492h-272l-68 -494q-8 -63 -24.5 -99t-42.5 -57.5t-72 -43.5l-7 18q41 20 64 40t38 53.5t23 90.5l68 492h-89l2 20h90l12 88q8 58 49.5 89t110.5 31
q79 0 160 -43q39 53 124 53q68 0 128 -40l-10 -16q-56 36 -119 36q-112 0 -128 -103l-13 -95h289zM463 617q5 31 16 52q-82 39 -149 39q-126 0 -140 -104l-12 -85h271z" />
    <glyph glyph-name="f_f_j" unicode="ffj" horiz-adv-x="845" 
d="M692 5q-8 -55 -21.5 -88.5t-33.5 -54t-54 -40.5l-9 16q43 25 64.5 60.5t31.5 108.5l69 492h-271l-69 -494q-7 -55 -20.5 -88.5t-34 -54.5t-54.5 -40l-8 16q43 25 64.5 60.5t31.5 108.5l69 492h-272l-68 -494q-8 -63 -24.5 -99t-42.5 -57.5t-72 -43.5l-7 18q41 20 64 40
t38 53.5t23 90.5l68 492h-89l2 20h90l12 88q8 58 49.5 89t110.5 31q79 0 160 -43q39 53 124 53q68 0 128 -40l-10 -16q-56 36 -119 36q-112 0 -128 -103l-13 -95h293zM463 617q5 31 16 52q-82 39 -149 39q-126 0 -140 -104l-12 -85h271z" />
    <glyph glyph-name="f_f_l" unicode="ffl" horiz-adv-x="868" 
d="M783 19l6 -19q-28 -10 -48 -10q-31 0 -48 16.5t-17 48.5q0 6 2 20l87 614q-39 14 -73.5 21t-76.5 7q-115 0 -131 -103l-13 -95h147l-6 -20h-144l-69 -494q-7 -55 -20.5 -88.5t-34 -54.5t-54.5 -40l-8 16q43 25 64.5 60.5t31.5 108.5l69 492h-272l-68 -494
q-8 -63 -24.5 -99t-42.5 -57.5t-72 -43.5l-7 18q41 20 64 40t38 53.5t23 90.5l68 492h-89l2 20h90l12 88q8 58 49.5 89t110.5 31q78 0 160 -43q41 53 128 53q79 0 152 -31l20 3l-89 -636q-1 -6 -1 -18q0 -44 44 -44q18 0 40 8zM463 617q5 32 17 52q-83 39 -150 39
q-126 0 -140 -104l-12 -85h271z" />
    <glyph glyph-name="f_j" unicode="fj" horiz-adv-x="553" 
d="M399 5q-7 -55 -20.5 -88.5t-34 -54.5t-54.5 -40l-8 16q43 25 64.5 60.5t31.5 108.5l69 492h-271l-69 -494q-8 -63 -24.5 -99t-42.5 -57.5t-72 -43.5l-7 18q41 20 64 40t38 53.5t23 90.5l69 492h-90l2 20h90l14 98q8 58 47.5 89t102.5 31q68 0 128 -40l-10 -16
q-58 36 -119 36q-114 0 -128 -103l-13 -95h293z" />
    <glyph glyph-name="uni0E240E45" unicode="&#xe24;&#xe45;" horiz-adv-x="903" 
d="M772 540.5q42 -36.5 42 -107.5q0 -18 -3 -39h-1l-56 -399l-27 -191l-22 4l27 187l57 409h1q2 20 2 29q0 62 -35.5 93t-116.5 31q-77 0 -164 -26q46 -38 46 -110q0 -18 -3 -36l-33 -239l-21 -146l-27 -192l-21 5l26 187l54 384q3 20 3 36q0 127 -154 127
q-76 0 -129.5 -30.5t-87.5 -69.5q82 -12 145 -47l-2 -19q-70 -11 -102 -48.5t-42 -102.5l-22 -153q-1 -6 -1 -16q0 -50 51 -50q22 0 39 5.5t20 6.5l4 -18q-19 -7 -33 -11t-32 -4q-34 0 -52.5 17.5t-18.5 51.5q0 12 1 19l22 153q21 144 143 161q-70 32 -146 40l3 18
q38 46 97.5 81.5t143.5 35.5q71 0 112 -25q47 16 90.5 25.5t90.5 9.5q90 0 132 -36.5z" />
    <glyph glyph-name="uni0E260E45" unicode="&#xe26;&#xe45;" horiz-adv-x="896" 
d="M765.5 540.5q41.5 -36.5 41.5 -109.5q0 -24 -2 -37h-1l-57 -399l-27 -191l-21 4l26 187l58 409h1q1 9 1 27q0 63 -35.5 94.5t-116.5 31.5q-78 0 -163 -26q46 -37 46 -110q0 -16 -3 -36l-34 -239l-20 -146l-27 -192l-22 5l27 187l54 384q3 20 3 36q0 127 -153 127
q-75 0 -128 -30.5t-87 -69.5q82 -12 145 -47l-2 -20q-47 -10 -73 -30.5t-37 -49.5t-17 -73l-15 -109q-7 -45 -14.5 -70t-25 -39t-49.5 -14q-10 0 -19 1l1 19q6 -1 13 -1q28 0 41.5 12t19 31.5t11.5 63.5l15 110q10 67 36 105.5t92 54.5q-70 33 -148 41l3 18q36 45 96 81
t143 36q69 0 111 -24q102 34 181 34q90 0 131.5 -36.5z" />
    <glyph glyph-name="uni06440671" unicode="&#xfedf;&#xfb51;" horiz-adv-x="630" 
d="M542 63q-38 -33 -98.5 -48t-160.5 -15h-173l1 20q115 68 189 133t116 136q-42 50 -96.5 99.5t-133.5 113.5l-103 82l23 9l97 -80q85 -72 133.5 -115.5t88.5 -91.5q54 104 54 244q0 25 -1 38l-6 145l22 2l5 -149q6 -171 -61 -294q92 -113 104 -229zM431 33.5
q57 12.5 92 37.5q-14 101 -95 203q-42 -70 -112 -131.5t-172 -121.5h137q93 0 150 12.5zM208 793q16 -16 16 -41q0 -31 -27 -48.5t-72 -17.5q-34 0 -94 20l-17 -44l-14 5l20 58l33 -10q47 94 109 94q30 0 46 -16zM186.5 715.5q21.5 12.5 21.5 35.5q0 18 -11 30t-36 12
q-52 0 -96 -81q35 -9 63 -9q37 0 58.5 12.5z" />
    <glyph glyph-name="uni06440671.fina" unicode="&#xfee0;&#xfb51;" horiz-adv-x="629" 
d="M644 11l-15 -11q-38 0 -67.5 20.5t-39.5 58.5q-26 -38 -78 -58.5t-137 -20.5h-218l-6 22h227q82 0 128 17l-299 497l26 3l28 -46q125 -207 174 -291.5t88 -155.5q35 17 61 53l-14 634l22 3l10 -614q2 -50 27.5 -75t69.5 -25zM258 728q16 -16 16 -41q0 -31 -27 -48.5
t-72 -17.5q-34 0 -94 20l-17 -44l-14 5l20 58l33 -10q47 94 109 94q30 0 46 -16zM236.5 650.5q21.5 12.5 21.5 35.5q0 18 -11 30t-36 12q-52 0 -96 -81q35 -9 63 -9q37 0 58.5 12.5z" />
    <glyph glyph-name="uni0E1B0E31" unicode="&#xe1b;&#xe31;" horiz-adv-x="603" 
d="M548 672l-16 -113l-49 -356q-30 -211 -216 -211q-82 0 -120.5 41.5t-38.5 117.5q0 28 4 53l32 234q3 21 3 41q0 40 -13 79l21 1q14 -40 14 -77q0 -20 -3 -44l-32 -233q-4 -36 -4 -50q0 -142 137 -142q90 0 135.5 50.5t58.5 142.5l49 353l16 111q-40 -2 -53 -2
q-87 0 -87 57q0 19 4 31t11 27h21q-15 -30 -15 -56q0 -21 16.5 -30.5t53.5 -9.5q14 0 52 2l12 86l21 -3l-11 -81q80 9 140 27l2 -18q-62 -19 -145 -28z" />
    <glyph glyph-name="uni0E1B0E49" unicode="&#xe1b;&#xe49;" horiz-adv-x="603" 
d="M562 772l-30 -213l-49 -356q-30 -211 -216 -211q-82 0 -120.5 41.5t-38.5 117.5q0 28 4 53l32 234q3 21 3 41q0 40 -13 79l21 1q14 -40 14 -77q0 -20 -3 -44l-32 -233q-4 -36 -4 -50q0 -142 137 -142q90 0 135.5 50.5t58.5 142.5l49 353l27 187q-46 -43 -107 -60.5
t-166 -19.5l-4 11q45 43 45 82q0 20 -12 30.5t-33 10.5q-12 0 -39 -5v15q19 7 43 7q28 0 45 -14.5t17 -42.5q0 -39 -35 -76q94 1 149 21.5t101 69.5z" />
    <glyph glyph-name="uni0E1B0E4A" unicode="&#xe1b;&#xe4a;" horiz-adv-x="603" 
d="M562 772l-30 -213l-49 -356q-30 -211 -216 -211q-82 0 -120.5 41.5t-38.5 117.5q0 28 4 53l32 234q3 21 3 41q0 40 -13 79l21 1q14 -40 14 -77q0 -20 -3 -44l-32 -233q-4 -36 -4 -50q0 -142 137 -142q90 0 135.5 50.5t58.5 142.5l49 353l26 179q-30 -37 -67 -53t-86 -16
q-14 0 -32 3q17 43 17 76q0 25 -12.5 38.5t-37.5 13.5q-33 0 -56 -27t-30 -71l-3 -20l-20 -2l3 24q2 16 2 24q0 33 -14.5 52.5t-42.5 19.5q-37 0 -55 -27t-18 -67q0 -25 1 -35h-18q-3 11 -3 35q0 51 25 81t68 30q38 0 54 -22.5t17 -51.5q8 29 31 51.5t60 22.5q35 0 52 -18.5
t17 -50.5q0 -31 -13 -63h10q50 0 90 22.5t66 67.5z" />
    <glyph glyph-name="uni0E1B0E4B" unicode="&#xe1b;&#xe4b;" horiz-adv-x="603" 
d="M562 772l-30 -213l-49 -356q-30 -211 -216 -211q-82 0 -120.5 41.5t-38.5 117.5q0 28 4 53l32 234q3 21 3 41q0 40 -13 79l21 1q14 -40 14 -77q0 -20 -3 -44l-32 -233q-4 -36 -4 -50q0 -142 137 -142q90 0 135.5 50.5t58.5 142.5l49 353l31 216zM474 738h-74l-9 -67h-20
l9 67h-76l5 17h74l8 60l20 2l-8 -62h74z" />
    <glyph glyph-name="uni0E1B0E4C" unicode="&#xe1b;&#xe4c;" horiz-adv-x="603" 
d="M639 723h-84l-23 -164l-49 -356q-30 -211 -216 -211q-82 0 -120.5 41.5t-38.5 117.5q0 28 4 53l32 234q3 21 3 41q0 40 -13 79l21 1q14 -40 14 -77q0 -20 -3 -44l-32 -233q-4 -36 -4 -50q0 -142 137 -142q90 0 135.5 50.5t58.5 142.5l49 353l24 164h-83
q-35 0 -49.5 -14.5t-14.5 -43.5q0 -21 1 -34h-20q-2 20 -2 34q0 36 21 56.5t65 20.5h84l5 33l21 -3l-4 -30h83z" />
    <glyph glyph-name="uni0E1B0E4D" unicode="&#xe1b;&#xe4d;" horiz-adv-x="603" 
d="M562 772l-30 -213l-49 -356q-30 -211 -216 -211q-82 0 -120.5 41.5t-38.5 117.5q0 28 4 53l32 234q3 21 3 41q0 40 -13 79l21 1q14 -40 14 -77q0 -20 -3 -44l-32 -233q-4 -36 -4 -50q0 -142 137 -142q90 0 135.5 50.5t58.5 142.5l49 353l31 216zM336 684.5
q-19 17.5 -19 48.5q0 34 22.5 60.5t63.5 26.5q31 0 50 -17.5t19 -47.5q0 -34 -22.5 -61t-63.5 -27q-31 0 -50 17.5zM436 706.5q16 21.5 16 48.5q0 24 -13 36t-36 12q-33 0 -49.5 -21.5t-16.5 -48.5q0 -24 12.5 -36t36.5 -12q34 0 50 21.5z" />
    <glyph glyph-name="uni0E1D0E31" unicode="&#xe1d;&#xe31;" horiz-adv-x="723" 
d="M668 672l-16 -113l-48 -344q-31 -225 -167 -225q-50 0 -77.5 33.5t-23.5 100.5q-17 -67 -50 -100.5t-87 -33.5q-52 0 -82 36.5t-30 116.5q0 33 6 75l14 97q18 134 55.5 193t110.5 59q37 0 55 -10l-6 -17q-21 8 -50 8q-61 0 -94 -55.5t-50 -178.5l-14 -99q-5 -45 -5 -71
q0 -133 91 -133q109 0 132 167l16 116l23 3l-17 -122q-4 -25 -4 -51q0 -60 24 -86.5t63 -26.5q116 0 145 204l48 344l16 111q-40 -2 -53 -2q-87 0 -87 57q0 19 4 31.5t11 26.5h21q-16 -32 -16 -56q0 -21 17 -30.5t54 -9.5q14 0 52 2l12 86l21 -3l-11 -81q80 9 140 27l2 -18
q-62 -19 -145 -28z" />
    <glyph glyph-name="uni0E1D0E49" unicode="&#xe1d;&#xe49;" horiz-adv-x="723" 
d="M682 772l-30 -213l-48 -344q-31 -225 -167 -225q-50 0 -77.5 33.5t-23.5 100.5q-17 -67 -50 -100.5t-87 -33.5q-52 0 -82 36.5t-30 116.5q0 33 6 75l14 97q18 134 55.5 193t110.5 59q37 0 55 -10l-6 -17q-21 8 -50 8q-61 0 -94 -55.5t-50 -178.5l-14 -99q-5 -45 -5 -71
q0 -133 91 -133q109 0 132 167l16 116l23 3l-17 -122q-4 -25 -4 -51q0 -60 24 -86.5t63 -26.5q116 0 145 204l48 344l27 187q-46 -44 -107.5 -61t-166.5 -19l-3 11q45 43 45 82q0 20 -12 30.5t-33 10.5q-11 0 -39 -5l-1 15q21 7 43 7q29 0 46 -14.5t17 -42.5q0 -39 -35 -76
q94 1 149 21.5t100 69.5l1 -1v1z" />
    <glyph glyph-name="uni0E1D0E4A" unicode="&#xe1d;&#xe4a;" horiz-adv-x="723" 
d="M682 772l-30 -213l-48 -344q-31 -225 -167 -225q-50 0 -77.5 33.5t-23.5 100.5q-17 -67 -50 -100.5t-87 -33.5q-52 0 -82 36.5t-30 116.5q0 33 6 75l14 97q18 134 55.5 193t110.5 59q37 0 55 -10l-6 -17q-21 8 -50 8q-61 0 -94 -55.5t-50 -178.5l-14 -99q-5 -45 -5 -71
q0 -133 91 -133q109 0 132 167l16 116l23 3l-17 -122q-4 -25 -4 -51q0 -60 24 -86.5t63 -26.5q116 0 145 204l48 344l26 179q-30 -37 -67 -53t-86 -16q-14 0 -32 3q17 43 17 76q0 25 -13 38.5t-37 13.5q-33 0 -56 -27t-30 -71l-3 -20l-21 -2l4 24q2 16 2 24q0 33 -14.5 52.5
t-42.5 19.5q-37 0 -55 -27t-18 -67q0 -25 1 -35h-18q-3 11 -3 35q0 51 24.5 81t67.5 30q38 0 54 -22t18 -52q8 29 31 51.5t60 22.5q34 0 51.5 -19t17.5 -50t-13 -63h10q50 0 90 22.5t66 67.5z" />
    <glyph glyph-name="uni0E1D0E4B" unicode="&#xe1d;&#xe4b;" horiz-adv-x="723" 
d="M682 772l-30 -213l-48 -344q-31 -225 -167 -225q-50 0 -77.5 33.5t-23.5 100.5q-17 -67 -50 -100.5t-87 -33.5q-52 0 -82 36.5t-30 116.5q0 33 6 75l14 97q18 134 55.5 193t110.5 59q37 0 55 -10l-6 -17q-21 8 -50 8q-61 0 -94 -55.5t-50 -178.5l-14 -99q-5 -45 -5 -71
q0 -133 91 -133q109 0 132 167l16 116l23 3l-17 -122q-4 -25 -4 -51q0 -60 24 -86.5t63 -26.5q116 0 145 204l48 344l31 216zM594 738h-74l-9 -67h-20l9 67h-76l5 17h74l8 60l20 2l-8 -62h74z" />
    <glyph glyph-name="uni0E1D0E4C" unicode="&#xe1d;&#xe4c;" horiz-adv-x="723" 
d="M759 723h-84l-23 -164l-48 -344q-31 -225 -167 -225q-50 0 -77.5 33.5t-23.5 100.5q-17 -67 -50 -100.5t-87 -33.5q-52 0 -82 36.5t-30 116.5q0 33 6 75l14 97q18 134 55.5 193t110.5 59q37 0 55 -10l-6 -17q-21 8 -50 8q-61 0 -94 -55.5t-50 -178.5l-14 -99
q-5 -45 -5 -71q0 -133 91 -133q109 0 132 167l16 116l23 3l-17 -122q-4 -25 -4 -51q0 -60 24 -86.5t63 -26.5q116 0 145 204l48 344l24 164h-83q-35 0 -49.5 -14.5t-14.5 -43.5q0 -21 1 -34h-20q-2 20 -2 34q0 77 86 77h84l5 33l21 -3l-4 -30h83z" />
    <glyph glyph-name="uni0E1D0E4D" unicode="&#xe1d;&#xe4d;" horiz-adv-x="723" 
d="M682 772l-30 -213l-48 -344q-31 -225 -167 -225q-50 0 -77.5 33.5t-23.5 100.5q-17 -67 -50 -100.5t-87 -33.5q-52 0 -82 36.5t-30 116.5q0 33 6 75l14 97q18 134 55.5 193t110.5 59q37 0 55 -10l-6 -17q-21 8 -50 8q-61 0 -94 -55.5t-50 -178.5l-14 -99q-5 -45 -5 -71
q0 -133 91 -133q109 0 132 167l16 116l23 3l-17 -122q-4 -25 -4 -51q0 -60 24 -86.5t63 -26.5q116 0 145 204l48 344l31 216zM456 684.5q-19 17.5 -19 48.5q0 34 22.5 60.5t63.5 26.5q31 0 50 -17.5t19 -47.5q0 -34 -22.5 -61t-63.5 -27q-31 0 -50 17.5zM556 706.5
q16 21.5 16 48.5q0 24 -13 36t-36 12q-33 0 -49.5 -21.5t-16.5 -48.5q0 -24 12.5 -36t36.5 -12q34 0 50 21.5z" />
    <glyph glyph-name="uni0E1F0E31" unicode="&#xe1f;&#xe31;" horiz-adv-x="763" 
d="M756 671l-35 -112l-174 -559h-29l-98 537l-249 -537h-28l-5 429q-1 48 -8 79t-21 54l20 3q15 -20 22 -53t8 -90l4 -397l247 534h27l98 -534l163 534l35 110q-15 -1 -41 -1q-87 0 -87 57q0 18 4 30t12 28h20q-15 -30 -15 -56q0 -21 16.5 -30.5t53.5 -9.5q27 0 43 2l27 86
h22l-26 -85q78 9 148 28l2 -18q-74 -22 -156 -29z" />
    <glyph glyph-name="uni0E1F0E49" unicode="&#xe1f;&#xe49;" horiz-adv-x="753" 
d="M788 775l-67 -216l-174 -559h-29l-98 537l-249 -537h-28l-5 429q-1 48 -8 79t-21 54l20 3q15 -20 22 -53t8 -90l4 -397l247 534h27l98 -534l163 534l32 104l9 26l7.5 22.5t10.5 29.5q-44 -41 -103.5 -57t-158.5 -17l-4 9q45 45 45 82q0 21 -12 31.5t-33 10.5
q-11 0 -39 -5l-1 15q21 7 43 7q28 0 45 -14.5t17 -42.5q0 -39 -35 -76q91 1 145.5 21.5t99.5 69.5h22z" />
    <glyph glyph-name="uni0E1F0E4A" unicode="&#xe1f;&#xe4a;" horiz-adv-x="753" 
d="M788 775l-67 -216l-174 -559h-29l-98 537l-249 -537h-28l-5 429q-1 48 -8 79t-21 54l20 3q15 -20 22 -53t8 -90l4 -397l247 534h27l98 -534l163 534l32 104q15 45 23 66q-28 -32 -62.5 -46t-79.5 -14q-11 0 -32 3q7 16 12 37.5t5 38.5q0 25 -12.5 38.5t-37.5 13.5
q-32 0 -55 -27t-30 -71l-3 -20l-21 -2l3 24q2 18 2 26q0 32 -14 51t-42 19q-38 0 -56 -28t-18 -72q0 -7 2 -29h-19q-3 14 -3 35q0 51 25 81t68 30q38 0 54 -22.5t17 -51.5q9 30 32 52t60 22q34 0 51.5 -19t17.5 -50q0 -29 -14 -63h11q48 0 87.5 22.5t64.5 67.5h22z" />
    <glyph glyph-name="uni0E1F0E4B" unicode="&#xe1f;&#xe4b;" horiz-adv-x="753" 
d="M788 775l-67 -216l-174 -559h-29l-98 537l-249 -537h-28l-5 429q-1 48 -8 79t-21 54l20 3q15 -20 22 -53t8 -90l4 -397l247 534h27l98 -534l163 534l68 216h22zM694 738h-74l-9 -67h-20l9 67h-76l5 17h74l8 60l20 2l-8 -62h74z" />
    <glyph glyph-name="uni0E1F0E4C" unicode="&#xe1f;&#xe4c;" horiz-adv-x="763" 
d="M859 723h-87l-225 -723h-29l-98 537l-249 -537h-28l-5 429q-1 48 -8 79t-21 54l20 3q15 -20 22 -53t8 -90l4 -397l247 534h27l98 -534l163 534l52 164h-80q-35 0 -49.5 -14.5t-14.5 -43.5q0 -21 1 -34h-19q-2 20 -2 34q0 77 85 77h85l10 33h22l-10 -33h83z" />
    <glyph glyph-name="uni0E1F0E4D" unicode="&#xe1f;&#xe4d;" horiz-adv-x="753" 
d="M788 775l-67 -216l-174 -559h-29l-98 537l-249 -537h-28l-5 429q-1 48 -8 79t-21 54l20 3q15 -20 22 -53t8 -90l4 -397l247 534h27l98 -534l163 534l68 216h22zM555 684.5q-19 17.5 -19 48.5q0 34 22.5 60.5t63.5 26.5q31 0 50 -17.5t19 -47.5q0 -34 -22.5 -61t-63.5 -27
q-31 0 -50 17.5zM655 706.5q16 21.5 16 48.5q0 24 -13 36t-36 12q-33 0 -49.5 -21.5t-16.5 -48.5q0 -24 12.5 -36t36.5 -12q34 0 50 21.5z" />
    <glyph glyph-name="uni0E310E4A" unicode="&#xe31;&#xe4a;" 
d="M-405 726q0 32 15 57h21q-16 -29 -16 -56q0 -21 17 -30.5t53 -9.5q44 0 99 7.5t106 23.5l2 -18q-54 -17 -110.5 -24.5t-100.5 -7.5q-86 0 -86 58zM66 939q-30 -53 -69.5 -79t-104.5 -26q-17 0 -25 2q6 14 11 34.5t5 33.5q0 47 -45 47q-30 0 -51 -24.5t-26 -62.5l-3 -19
l-19 -2l3 21q2 16 2 24q0 29 -12.5 46t-38.5 17q-33 0 -49.5 -24t-16.5 -60q0 -20 2 -32h-16q-4 14 -4 32q0 45 22.5 72.5t61.5 27.5q34 0 48.5 -20t15.5 -46q8 26 28.5 46t53.5 20q31 0 46.5 -16.5t15.5 -46.5q0 -26 -12 -56h6q58 0 94.5 26.5t60.5 71.5z" />
    <glyph glyph-name="uni0620.init" unicode="&#x620;" horiz-adv-x="251" 
d="M175 14q16 -19 16 -46q0 -31 -20.5 -51.5t-52.5 -20.5q-31 0 -52.5 21t-21.5 51q0 22 11 39q-27 -7 -55 -7l-15 12l17 10q46 0 87 16t66 46q1 138 -52 285l21 7q52 -150 51 -286q-7 -28 -41 -52q25 -5 41 -24zM159 -72q15 15 15 40t-15.5 39.5t-40.5 14.5t-40.5 -14.5
t-15.5 -39.5q0 -24 15.5 -39.5t40.5 -15.5q26 0 41 15z" />
    <glyph glyph-name="uni0620.medi" unicode="&#x620;" horiz-adv-x="289" 
d="M122 37q26 -5 42.5 -24.5t16.5 -46.5q0 -31 -20.5 -51.5t-52.5 -20.5t-53 21t-21 51q0 22 12 39q-28 -5 -47 -5l-14 10l16 12q42 0 82 17.5t52 42.5l-20 224h22l18 -223q13 -24 49 -42.5t86 -18.5l14 -11l-15 -11q-51 0 -90 19t-53 44q-10 -16 -24 -26zM148.5 5.5
q-15.5 14.5 -40.5 14.5t-40.5 -15t-15.5 -39q0 -25 15 -40t41 -15q27 0 41.5 15t14.5 40t-15.5 39.5z" />
    <glyph glyph-name="uni0620.fina" unicode="&#x620;" horiz-adv-x="699" 
d="M699 0q-33 0 -66 8.5t-72 24.5q21 -17 32 -41.5t11 -62.5q-5 -16 -38 -41t-90 -46.5t-129 -27.5q27 -22 27 -57q0 -30 -20.5 -51t-52.5 -21t-53 21t-21 51q0 36 28 57q-100 10 -146 64t-46 140q0 87 36 173l16 -5q-32 -85 -32 -166q0 -87 51.5 -136.5t164.5 -49.5
q110 0 182 31t104 61q0 44 -13.5 69.5t-53.5 48t-127 51.5l13 18q47 -16 125 -47q62 -25 95 -34.5t77 -9.5l13 -11zM341.5 -203q-15.5 15 -40.5 15t-40.5 -15t-15.5 -40q0 -24 15.5 -39.5t40.5 -15.5q26 0 41 15t15 40t-15.5 40z" />
    <glyph glyph-name="uni063B.init" unicode="&#x63b;" horiz-adv-x="454" 
d="M390 718l-363 -256q124 -78 206 -170.5t95 -188.5q-18 -25 -63 -48.5t-113.5 -39t-151.5 -15.5l-15 11l17 11q115 0 191 25.5t115 59.5q-14 90 -95.5 178.5t-206.5 166.5l4 21l381 269zM40 730l19 24l22 -18l-19 -24zM-65 723l19 24l22 -18l-20 -24z" />
    <glyph glyph-name="uni063B.medi" unicode="&#x63b;" horiz-adv-x="529" 
d="M543 12l-14 -12q-49 0 -83 15.5t-66.5 49t-93.5 108.5q-35 -84 -104.5 -128.5t-181.5 -44.5l-15 11l17 11q106 0 171.5 42.5t99.5 125.5l-211 262l4 21l382 269l-2 -25l-364 -256l166 -208q87 -109 126.5 -152t73.5 -61t83 -18zM92 730l19 24l22 -18l-19 -24zM-13 723
l19 24l22 -18l-20 -24z" />
    <glyph glyph-name="uni063B.fina" unicode="&#x63b;" horiz-adv-x="961" 
d="M976 12l-15 -12q-49 0 -82.5 15.5t-66 49t-93.5 108.5q-25 -59 -67.5 -99t-121 -63t-201.5 -23q-135 0 -200.5 43t-65.5 129q0 74 35 147l16 -6q-31 -68 -31 -139q0 -76 60.5 -114t187.5 -38q118 0 193.5 21.5t116.5 60.5t65 97l-211 263l4 21l381 269l-1 -25l-364 -256
l165 -208q88 -109 127.5 -152t73.5 -61t82 -18zM514 730l19 24l22 -18l-19 -24zM409 723l19 24l22 -18l-20 -24z" />
    <glyph glyph-name="uni063C.init" unicode="&#x63c;" horiz-adv-x="454" 
d="M390 718l-363 -256q124 -78 206 -170.5t95 -188.5q-18 -25 -63 -48.5t-113.5 -39t-151.5 -15.5l-15 11l17 11q115 0 191 25.5t115 59.5q-14 90 -95.5 178.5t-206.5 166.5l4 21l381 269zM167 -141l19 23l22 -18l-19 -23zM62 -148l19 23l22 -18l-20 -23zM119 -233l20 23
l21 -18l-19 -23z" />
    <glyph glyph-name="uni063C.medi" unicode="&#x63c;" horiz-adv-x="529" 
d="M543 12l-14 -12q-49 0 -83 15.5t-66.5 49t-93.5 108.5q-35 -84 -104.5 -128.5t-181.5 -44.5l-15 11l17 11q106 0 171.5 42.5t99.5 125.5l-211 262l4 21l382 269l-2 -25l-364 -256l166 -208q87 -109 126.5 -152t73.5 -61t83 -18zM301 -141l19 23l22 -18l-19 -23zM196 -148
l19 23l22 -18l-20 -23zM253 -233l20 23l21 -18l-19 -23z" />
    <glyph glyph-name="uni063C.fina" unicode="&#x63c;" horiz-adv-x="961" 
d="M976 12l-15 -12q-49 0 -82.5 15.5t-66 49t-93.5 108.5q-25 -59 -67.5 -99t-121 -63t-201.5 -23q-135 0 -200.5 43t-65.5 129q0 74 35 147l16 -6q-31 -68 -31 -139q0 -76 60.5 -114t187.5 -38q118 0 193.5 21.5t116.5 60.5t65 97l-211 263l4 21l381 269l-1 -25l-364 -256
l165 -208q88 -109 127.5 -152t73.5 -61t82 -18zM402 -141l19 23l22 -18l-19 -23zM297 -148l19 23l22 -18l-20 -23zM354 -233l20 23l21 -18l-19 -23z" />
    <glyph glyph-name="uni066E.init" unicode="&#x66e;" horiz-adv-x="251" 
d="M-15 12l17 10q46 0 87 16t66 46q1 138 -52 285l21 7q52 -150 51 -286q-7 -27 -36 -47.5t-67.5 -31.5t-71.5 -11z" />
    <glyph glyph-name="uni066E.medi" unicode="&#x66e;" horiz-adv-x="289" 
d="M304 11l-15 -11q-51 0 -90 19t-53 44q-15 -29 -60 -46t-87 -17l-14 10l16 12q42 0 82 17.5t52 42.5l-20 224h22l18 -223q13 -24 49 -42.5t86 -18.5z" />
    <glyph glyph-name="uni066E.fina" unicode="&#x66e;" horiz-adv-x="860" 
d="M875 12l-15 -12q-62 0 -95 28.5t-46 60.5q-136 -101 -390 -101q-135 0 -200.5 43t-65.5 129q0 74 35 147l16 -6q-31 -68 -31 -139q0 -76 60.5 -114t187.5 -38q125 0 222 26t158 73l-30 197h22l25 -180q5 -37 35.5 -70.5t99.5 -33.5z" />
    <glyph glyph-name="uni066F.init" unicode="&#x66f;" horiz-adv-x="449" 
d="M324 449.5q48 -78.5 48 -257.5q0 -39 -1 -60q-8 -25 -55.5 -56t-129 -53.5t-186.5 -22.5l-15 12l17 10q132 0 218.5 31.5t130.5 75.5q2 40 2 56q0 19 -2 49q-23 -20 -55.5 -30.5t-68.5 -10.5q-49 0 -89.5 20t-64.5 55t-24 79q0 46 23 88t59 67.5t74 25.5q71 0 119 -78.5z
M294.5 223q31.5 10 56.5 29q-8 137 -49 195.5t-98 58.5q-32 0 -63.5 -22.5t-51.5 -59t-20 -76.5q0 -60 46.5 -97.5t116.5 -37.5q31 0 62.5 10z" />
    <glyph glyph-name="uni066F.medi" unicode="&#x66f;" horiz-adv-x="456" 
d="M470 11l-14 -11h-16q-111 0 -204 41q-97 -41 -225 -41h-11l-15 11l17 11h12q114 0 199 30q-64 32 -102 80.5t-38 107.5q0 46 23 89.5t59 70.5t73 27q40 0 78 -27t62 -71t24 -92q0 -53 -34 -101.5t-98 -82.5q85 -31 180 -31h18zM132 135q39 -45 105 -73q66 28 100.5 73
t34.5 98q0 43 -21 83t-54.5 64.5t-67.5 24.5q-32 0 -64 -24.5t-52 -63.5t-20 -81q0 -56 39 -101z" />
    <glyph glyph-name="uni066F.fina" unicode="&#x66f;" horiz-adv-x="744" 
d="M744 0h-108q0 -40 -1 -62q-8 -41 -47.5 -81t-102.5 -66t-138 -26q-155 0 -219.5 54t-64.5 155q0 85 37 171l16 -5q-17 -43 -25 -82t-8 -83q0 -91 60 -139.5t207 -48.5q95 0 165 40t99 100q1 26 1 73h-94q-96 0 -152 43.5t-56 116.5q0 45 23 86.5t59.5 67t74.5 25.5
q156 0 165 -317h111l12 -11zM615 22q-7 295 -146 295q-32 0 -63.5 -22t-51.5 -58.5t-20 -75.5q0 -66 50.5 -102.5t141.5 -36.5h85h4z" />
    <glyph glyph-name="uni0676.fina" unicode="&#x676;" horiz-adv-x="509" 
d="M420 572v-16l-181 -29v16l75 12q-28 16 -43.5 37t-15.5 44q0 30 22.5 50t63.5 20q29 0 55 -13l-4 -15q-26 13 -51 13q-35 0 -52.5 -16t-17.5 -39q0 -44 62 -78zM509 0h-101q-18 -94 -100.5 -156.5t-236.5 -84.5l-8 22q286 39 324 219h-84q-101 0 -159 42.5t-58 111.5
q0 46 23 88t59.5 67.5t74.5 25.5q42 0 81 -33t64 -96t25 -149q0 -13 -2 -35h100l13 -11zM393 49q0 84 -22 144t-56.5 90t-72.5 30q-32 0 -64 -22.5t-52 -58.5t-20 -76q0 -62 52.5 -98t149.5 -36h83q2 18 2 27z" />
    <glyph glyph-name="uni0677.fina" unicode="&#x677;" horiz-adv-x="509" 
d="M509 0h-101q-18 -94 -100.5 -156.5t-236.5 -84.5l-8 22q286 39 324 219h-84q-101 0 -159 42.5t-58 111.5q0 46 23 88t59.5 67.5t74.5 25.5q42 0 81 -33t64 -96t25 -149q0 -13 -2 -35h100l13 -11zM393 49q0 84 -22 144t-56.5 90t-72.5 30q-32 0 -64 -22.5t-52 -58.5
t-20 -76q0 -62 52.5 -98t149.5 -36h83q2 18 2 27zM341 459v-16l-181 -29v16l75 12q-28 16 -43.5 37t-15.5 44q0 30 22.5 50t63.5 20q29 0 55 -13l-4 -15q-26 13 -51 13q-35 0 -52.5 -16t-17.5 -39q0 -44 62 -78zM308.5 805q17.5 -21 17.5 -52q0 -40 -42.5 -79t-106.5 -64
l-6 14q59 24 94 53q-40 11 -58.5 32t-18.5 48q0 31 20.5 50t48.5 19q34 0 51.5 -21zM311 752q0 25 -13.5 42t-40.5 17q-23 0 -38.5 -15t-15.5 -40q0 -51 74 -69q34 32 34 65z" />
    <glyph glyph-name="uni0678.init" unicode="&#x678;" horiz-adv-x="251" 
d="M238 612v-16l-181 -29v16l75 12q-28 16 -43.5 37t-15.5 44q0 30 22.5 50t63.5 20q29 0 55 -13l-4 -15q-26 13 -51 13q-35 0 -52.5 -16t-17.5 -39q0 -44 62 -78zM-15 12l17 10q46 0 87 16t66 46q1 138 -52 285l21 7q52 -150 51 -286q-7 -27 -36 -47.5t-67.5 -31.5
t-71.5 -11z" />
    <glyph glyph-name="uni0678.medi" unicode="&#x678;" horiz-adv-x="289" 
d="M273 526l-182 -29v16l75 12q-28 16 -43.5 37t-15.5 44q0 30 22.5 50t63.5 20q31 0 55 -13l-3 -15q-26 13 -52 13q-35 0 -52 -16t-17 -39q0 -44 62 -78l87 14v-16zM304 11l-15 -11q-51 0 -90 19t-53 44q-15 -29 -60 -46t-87 -17l-14 10l16 12q42 0 82 17.5t52 42.5
l-20 224h22l18 -223q13 -24 49 -42.5t86 -18.5z" />
    <glyph glyph-name="uni0678.fina" unicode="&#x678;" horiz-adv-x="699" 
d="M699 0q-33 0 -66 8.5t-72 24.5q21 -17 32 -41.5t11 -62.5q-5 -18 -45 -46.5t-108 -49.5t-154 -21q-121 0 -177.5 55.5t-56.5 150.5q0 87 36 173l16 -5q-32 -85 -32 -166q0 -87 51.5 -136.5t164.5 -49.5q110 0 182 31t104 61q0 44 -13.5 69.5t-53.5 48t-127 51.5l13 18
q47 -16 125 -47q62 -25 95 -34.5t77 -9.5l13 -11zM547 323v-16l-181 -29v16l75 12q-28 16 -43.5 37t-15.5 44q0 30 22.5 50t63.5 20q29 0 55 -13l-4 -15q-26 13 -51 13q-35 0 -52.5 -16t-17.5 -39q0 -44 62 -78z" />
    <glyph glyph-name="uni067C.init" unicode="&#x67c;" horiz-adv-x="251" 
d="M137 500l-22 18l19 24l22 -18zM32 493l-22 18l19 24l22 -18zM166.5 8q17.5 -20 17.5 -48q0 -31 -20.5 -51.5t-52.5 -20.5t-53 21t-21 51q0 27 17 46q-28 -6 -54 -6l-15 12l17 10q46 0 87 16t66 46q1 138 -52 285l21 7q52 -150 51 -286q-8 -33 -53 -59q27 -3 44.5 -23z
M152 -80q15 15 15 40t-15.5 39.5t-40.5 14.5t-40.5 -15t-15.5 -39t15 -39.5t41 -15.5t41 15z" />
    <glyph glyph-name="uni067C.medi" unicode="&#x67c;" horiz-adv-x="289" 
d="M151 423l-22 18l20 24l21 -18zM46 416l-22 18l19 24l22 -18zM122 37q27 -5 43.5 -24.5t16.5 -46.5q0 -31 -20.5 -51.5t-52.5 -20.5t-53 21t-21 51q0 22 12 39q-28 -5 -48 -5l-14 10l16 12q42 0 82 17.5t52 42.5l-20 224h22l18 -223q13 -24 49 -42.5t86 -18.5l14 -11
l-15 -11q-51 0 -90 19t-53 44q-6 -11 -24 -26zM149.5 5.5q-15.5 14.5 -40.5 14.5t-40.5 -15t-15.5 -39q0 -25 15.5 -40t40.5 -15q27 0 41.5 15t14.5 40t-15.5 39.5z" />
    <glyph glyph-name="uni067C.fina" unicode="&#x67c;" horiz-adv-x="860" 
d="M426 409l-22 18l19 24l22 -18zM321 402l-22 18l19 24l22 -18zM875 12l-15 -12q-62 0 -95 28.5t-46 60.5q-120 -88 -322 -99q29 -21 29 -58q0 -30 -20.5 -51t-52.5 -21t-53 21t-21 51q0 35 27 56q-243 7 -243 172q0 74 35 147l16 -6q-31 -68 -31 -139q0 -76 60.5 -114
t187.5 -38q125 0 222 26t158 73l-30 197h22l25 -180q5 -37 35.5 -70.5t99.5 -33.5zM393 -28.5q-16 15.5 -40 15.5q-25 0 -41 -15t-16 -40q0 -24 15.5 -39.5t41.5 -15.5t41 15.5t15 39.5t-16 39.5z" />
    <glyph glyph-name="uni067D.init" unicode="&#x67d;" horiz-adv-x="251" 
d="M-15 12l17 10q46 0 87 16t66 46q1 138 -52 285l21 7q52 -150 51 -286q-7 -27 -36 -47.5t-67.5 -31.5t-71.5 -11zM141 606l19 23l22 -18l-20 -23zM35 599l20 23l21 -18l-19 -23zM93 514l19 23l22 -18l-19 -23z" />
    <glyph glyph-name="uni067D.medi" unicode="&#x67d;" horiz-adv-x="289" 
d="M304 11l-15 -11q-51 0 -90 19t-53 44q-15 -29 -60 -46t-87 -17l-14 10l16 12q42 0 82 17.5t52 42.5l-20 224h22l18 -223q13 -24 49 -42.5t86 -18.5zM156 529l19 23l22 -18l-20 -23zM50 522l20 23l21 -18l-19 -23zM108 437l19 23l22 -18l-19 -23z" />
    <glyph glyph-name="uni067D.fina" unicode="&#x67d;" horiz-adv-x="860" 
d="M875 12l-15 -12q-62 0 -95 28.5t-46 60.5q-136 -101 -390 -101q-135 0 -200.5 43t-65.5 129q0 74 35 147l16 -6q-31 -68 -31 -139q0 -76 60.5 -114t187.5 -38q125 0 222 26t158 73l-30 197h22l25 -180q5 -37 35.5 -70.5t99.5 -33.5zM431 515l19 23l22 -18l-20 -23z
M325 508l20 23l21 -18l-19 -23zM383 423l19 23l22 -18l-19 -23z" />
    <glyph glyph-name="uni0681.init" unicode="&#x681;" horiz-adv-x="676" 
d="M323 390.5q49 -27.5 137 -91.5q106 -77 163 -112l-4 -17l-19 -3q-71 -9 -135.5 -29.5t-151.5 -56.5q-102 -41 -170 -61t-143 -20l-15 12l17 10q73 0 140.5 19.5t166.5 58.5q91 36 151.5 55.5t130.5 29.5q-62 41 -132 93q-87 64 -136 91t-100 27q-28 0 -52 -8.5t-50 -26.5
l-12 18q29 21 56 30t59 9q50 0 99 -27.5zM307 533v-16l-181 -29v16l75 12q-28 16 -43.5 37t-15.5 44q0 30 22.5 50t63.5 20q29 0 55 -13l-4 -15q-26 13 -51 13q-35 0 -52.5 -16t-17.5 -39q0 -44 62 -78z" />
    <glyph glyph-name="uni0681.medi" unicode="&#x681;" horiz-adv-x="764" 
d="M778 11l-14 -11q-96 0 -164.5 47t-94.5 148q-51 -11 -96.5 -32.5t-114.5 -60.5q-62 -34 -103.5 -54t-90 -34t-100.5 -14l-15 11l17 11q70 0 131.5 24t150.5 72q83 45 145 70.5t134 32.5q-49 21 -88 43t-94 56q-64 41 -102 58.5t-79 17.5q-28 0 -51.5 -8.5t-50.5 -26.5
l-10 19q28 20 54.5 29t58.5 9q43 0 82.5 -19t107.5 -62q60 -38 104.5 -63.5t101.5 -49.5l-3 -19l-28 -1q-23 -2 -44 -6q50 -176 244 -176zM308 537v-16l-181 -29v16l75 12q-28 16 -43.5 37t-15.5 44q0 30 22.5 50t63.5 20q29 0 55 -13l-4 -15q-26 13 -51 13q-35 0 -52.5 -16
t-17.5 -39q0 -44 62 -78z" />
    <glyph glyph-name="uni0681.fina" unicode="&#x681;" horiz-adv-x="701" 
d="M276.5 130.5q-84.5 -48.5 -132 -116t-47.5 -145.5q0 -84 53.5 -137t158.5 -53q65 0 124 11.5t106 30.5l8 -20q-48 -20 -109.5 -32t-130.5 -12q-114 0 -172 59.5t-58 151.5q0 93 62.5 171.5t170.5 129.5t242 66q-52 30 -103 63q-85 52 -132 74.5t-94 22.5q-28 0 -56.5 -9
t-52.5 -27l-11 19q52 39 120 39q48 0 95.5 -23t132.5 -76q10 -6 51 -32t82 -48l-4 -19l-13 -1q-42 -4 -81 -12q16 -102 70 -143t147 -41l12 -11l-14 -11q-99 0 -157.5 47t-74.5 156q-108 -24 -192.5 -72.5zM314 533v-16l-181 -29v16l75 12q-28 16 -43.5 37t-15.5 44
q0 30 22.5 50t63.5 20q29 0 55 -13l-4 -15q-26 13 -51 13q-35 0 -52.5 -16t-17.5 -39q0 -44 62 -78z" />
    <glyph glyph-name="uni0682.init" unicode="&#x682;" horiz-adv-x="676" 
d="M323 390.5q49 -27.5 137 -91.5q106 -77 163 -112l-4 -17l-19 -3q-71 -9 -135.5 -29.5t-151.5 -56.5q-102 -41 -170 -61t-143 -20l-15 12l17 10q73 0 140.5 19.5t166.5 58.5q91 36 151.5 55.5t130.5 29.5q-62 41 -132 93q-87 64 -136 91t-100 27q-28 0 -52 -8.5t-50 -26.5
l-12 18q29 21 56 30t59 9q50 0 99 -27.5zM184 613l19 24l22 -18l-19 -24zM199 511l19 23l22 -18l-19 -23z" />
    <glyph glyph-name="uni0682.medi" unicode="&#x682;" horiz-adv-x="764" 
d="M778 11l-14 -11q-96 0 -164.5 47t-94.5 148q-51 -11 -96.5 -32.5t-114.5 -60.5q-62 -34 -103.5 -54t-90 -34t-100.5 -14l-15 11l17 11q70 0 131.5 24t150.5 72q83 45 145 70.5t134 32.5q-49 21 -88 43t-94 56q-64 41 -102 58.5t-79 17.5q-28 0 -51.5 -8.5t-50.5 -26.5
l-10 19q28 20 54.5 29t58.5 9q43 0 82.5 -19t107.5 -62q60 -38 104.5 -63.5t101.5 -49.5l-3 -19l-28 -1q-23 -2 -44 -6q50 -176 244 -176zM186 617l19 24l22 -18l-19 -24zM201 515l19 23l22 -18l-19 -23z" />
    <glyph glyph-name="uni0682.fina" unicode="&#x682;" horiz-adv-x="701" 
d="M276.5 130.5q-84.5 -48.5 -132 -116t-47.5 -145.5q0 -84 53.5 -137t158.5 -53q65 0 124 11.5t106 30.5l8 -20q-48 -20 -109.5 -32t-130.5 -12q-114 0 -172 59.5t-58 151.5q0 93 62.5 171.5t170.5 129.5t242 66q-52 30 -103 63q-85 52 -132 74.5t-94 22.5q-28 0 -56.5 -9
t-52.5 -27l-11 19q52 39 120 39q48 0 95.5 -23t132.5 -76q10 -6 51 -32t82 -48l-4 -19l-13 -1q-42 -4 -81 -12q16 -102 70 -143t147 -41l12 -11l-14 -11q-99 0 -157.5 47t-74.5 156q-108 -24 -192.5 -72.5zM191 613l19 24l22 -18l-19 -24zM206 511l19 23l22 -18l-19 -23z
" />
    <glyph glyph-name="uni0685.init" unicode="&#x685;" horiz-adv-x="676" 
d="M323 390.5q49 -27.5 137 -91.5q106 -77 163 -112l-4 -17l-19 -3q-71 -9 -135.5 -29.5t-151.5 -56.5q-102 -41 -170 -61t-143 -20l-15 12l17 10q73 0 140.5 19.5t166.5 58.5q91 36 151.5 55.5t130.5 29.5q-62 41 -132 93q-87 64 -136 91t-100 27q-28 0 -52 -8.5t-50 -26.5
l-12 18q29 21 56 30t59 9q50 0 99 -27.5zM215 643l-19 -23l-22 18l19 23zM273 558l-20 -23l-21 18l19 23zM167 551l-19 -23l-22 18l20 23z" />
    <glyph glyph-name="uni0685.medi" unicode="&#x685;" horiz-adv-x="764" 
d="M778 11l-14 -11q-96 0 -164.5 47t-94.5 148q-51 -11 -96.5 -32.5t-114.5 -60.5q-62 -34 -103.5 -54t-90 -34t-100.5 -14l-15 11l17 11q70 0 131.5 24t150.5 72q83 45 145 70.5t134 32.5q-49 21 -88 43t-94 56q-64 41 -102 58.5t-79 17.5q-28 0 -51.5 -8.5t-50.5 -26.5
l-10 19q28 20 54.5 29t58.5 9q43 0 82.5 -19t107.5 -62q60 -38 104.5 -63.5t101.5 -49.5l-3 -19l-28 -1q-23 -2 -44 -6q50 -176 244 -176zM216 647l-19 -23l-22 18l19 23zM274 562l-20 -23l-21 18l19 23zM168 555l-19 -23l-22 18l20 23z" />
    <glyph glyph-name="uni0685.fina" unicode="&#x685;" horiz-adv-x="701" 
d="M276.5 130.5q-84.5 -48.5 -132 -116t-47.5 -145.5q0 -84 53.5 -137t158.5 -53q65 0 124 11.5t106 30.5l8 -20q-48 -20 -109.5 -32t-130.5 -12q-114 0 -172 59.5t-58 151.5q0 93 62.5 171.5t170.5 129.5t242 66q-52 30 -103 63q-85 52 -132 74.5t-94 22.5q-28 0 -56.5 -9
t-52.5 -27l-11 19q52 39 120 39q48 0 95.5 -23t132.5 -76q10 -6 51 -32t82 -48l-4 -19l-13 -1q-42 -4 -81 -12q16 -102 70 -143t147 -41l12 -11l-14 -11q-99 0 -157.5 47t-74.5 156q-108 -24 -192.5 -72.5zM222 643l-19 -23l-22 18l19 23zM280 558l-20 -23l-21 18l19 23z
M174 551l-19 -23l-22 18l20 23z" />
    <glyph glyph-name="uni0689.fina" unicode="&#x689;" horiz-adv-x="505" 
d="M520 11l-15 -11q-48 0 -76 17t-43 51q-57 -60 -144 -75q31 -21 31 -60q0 -31 -20.5 -51.5t-52.5 -20.5t-53 21t-21 51q0 35 27 56q-56 3 -124 29l8 21q36 -14 70 -21t76 -7q58 0 107.5 19t86.5 55l-153 380l23 10l142 -369q18 -47 43.5 -65.5t74.5 -18.5zM240 -28
q-16 15 -40 15q-25 0 -41 -15t-16 -39t15.5 -39.5t41.5 -15.5t41 15.5t15 39.5t-16 39z" />
    <glyph glyph-name="uni068A.fina" unicode="&#x68a;" horiz-adv-x="505" 
d="M520 11l-15 -11q-48 0 -76 17t-43 51q-77 -80 -204 -80q-44 0 -80 8t-73 22l8 21q36 -14 70 -21t76 -7q58 0 107.5 19t86.5 55l-153 380l23 10l142 -369q18 -47 43.5 -65.5t74.5 -18.5zM169 -131l21 26l27 -23l-22 -26z" />
    <glyph glyph-name="uni068B.fina" unicode="&#x68b;" horiz-adv-x="505" 
d="M520 11l-15 -11q-48 0 -76 17t-43 51q-77 -80 -204 -80q-44 0 -80 8t-73 22l8 21q36 -14 70 -21t76 -7q58 0 107.5 19t86.5 55l-153 380l23 10l142 -369q18 -47 43.5 -65.5t74.5 -18.5zM169 -131l21 26l27 -23l-22 -26zM261 687q17 -22 17 -63q-3 -20 -26.5 -38.5
t-66.5 -18.5h-127l2 15h20q4 8 19 33l-6 149h15l2 -131q26 39 51 57.5t53 18.5q30 0 47 -22zM238 593.5q20 11.5 27 26.5q0 73 -52 73q-31 0 -60.5 -27.5t-58.5 -83.5h89q35 0 55 11.5z" />
    <glyph glyph-name="uni068F.fina" unicode="&#x68f;" horiz-adv-x="505" 
d="M520 11l-15 -11q-48 0 -76 17t-43 51q-77 -80 -204 -80q-44 0 -80 8t-73 22l8 21q36 -14 70 -21t76 -7q58 0 107.5 19t86.5 55l-153 380l23 10l142 -369q18 -47 43.5 -65.5t74.5 -18.5zM197 719l19 23l22 -18l-20 -23zM91 712l20 23l21 -18l-19 -23zM149 627l19 23
l22 -18l-19 -23z" />
    <glyph glyph-name="uni0690.fina" unicode="&#x690;" horiz-adv-x="505" 
d="M520 11l-15 -11q-48 0 -76 17t-43 51q-77 -80 -204 -80q-44 0 -80 8t-73 22l8 21q36 -14 70 -21t76 -7q58 0 107.5 19t86.5 55l-153 380l23 10l142 -369q18 -47 43.5 -65.5t74.5 -18.5zM172 704l19 24l22 -18l-19 -24zM67 698l19 23l22 -18l-19 -23zM187 602l19 24
l22 -18l-19 -24zM82 595l19 24l22 -18l-19 -24z" />
    <glyph glyph-name="uni0692.fina" unicode="&#x692;" horiz-adv-x="409" 
d="M424 11l-15 -11q-32 0 -52 6.5t-37 25.5q-67 -151 -344 -284l-10 24q266 120 342 273q-10 50 -28 108.5t-37 107.5l24 9q11 -32 25.5 -86t29.5 -113q7 -27 28 -38t61 -11zM247 376l72 124l13 -6l-77 -137h-16l-77 137l13 6z" />
    <glyph glyph-name="uni0693.fina" unicode="&#x693;" horiz-adv-x="409" 
d="M424 11l-15 -11q-32 0 -52 6.5t-37 25.5q-35 -81 -130 -155h3q31 0 52 -20.5t21 -51.5t-20.5 -51.5t-52.5 -20.5t-53 21t-21 51q0 15 4 24q-64 -41 -147 -81l-10 24q266 120 342 273q-10 50 -28 108.5t-37 107.5l24 9q11 -32 25.5 -86t29.5 -113q7 -27 28 -38t61 -11z
M233 -156q-16 15 -40 15q-25 0 -41 -15t-16 -39t15.5 -39.5t41.5 -15.5t41 15.5t15 39.5t-16 39z" />
    <glyph glyph-name="uni0694.fina" unicode="&#x694;" horiz-adv-x="409" 
d="M424 11l-15 -11q-32 0 -52 6.5t-37 25.5q-67 -151 -344 -284l-10 24q266 120 342 273q-10 50 -28 108.5t-37 107.5l24 9q11 -32 25.5 -86t29.5 -113q7 -27 28 -38t61 -11zM193 -301l21 26l27 -23l-22 -26z" />
    <glyph glyph-name="uni0695.fina" unicode="&#x695;" horiz-adv-x="409" 
d="M424 11l-15 -11q-32 0 -52 6.5t-37 25.5q-67 -151 -344 -284l-10 24q266 120 342 273q-10 50 -28 108.5t-37 107.5l24 9q11 -32 25.5 -86t29.5 -113q7 -27 28 -38t61 -11zM224 -368l72 124l13 -6l-77 -137h-16l-77 137l13 6z" />
    <glyph glyph-name="uni0696.fina" unicode="&#x696;" horiz-adv-x="409" 
d="M424 11l-15 -11q-32 0 -52 6.5t-37 25.5q-67 -151 -344 -284l-10 24q266 120 342 273q-10 50 -28 108.5t-37 107.5l24 9q11 -32 25.5 -86t29.5 -113q7 -27 28 -38t61 -11zM193 -301l21 26l27 -23l-22 -26zM211 430l22 27l26 -23l-22 -27z" />
    <glyph glyph-name="uni0697.fina" unicode="&#x697;" horiz-adv-x="409" 
d="M424 11l-15 -11q-32 0 -52 6.5t-37 25.5q-67 -151 -344 -284l-10 24q266 120 342 273q-10 50 -28 108.5t-37 107.5l24 9q11 -32 25.5 -86t29.5 -113q7 -27 28 -38t61 -11zM251 428l19 24l22 -18l-19 -24zM146 421l19 24l22 -18l-20 -24z" />
    <glyph glyph-name="uni0699.fina" unicode="&#x699;" horiz-adv-x="409" 
d="M424 11l-15 -11q-32 0 -52 6.5t-37 25.5q-67 -151 -344 -284l-10 24q266 120 342 273q-10 50 -28 108.5t-37 107.5l24 9q11 -32 25.5 -86t29.5 -113q7 -27 28 -38t61 -11zM252 501l19 24l22 -18l-19 -24zM147 495l19 23l22 -18l-19 -23zM267 399l19 24l22 -18l-19 -24z
M162 392l19 24l22 -18l-19 -24z" />
    <glyph glyph-name="uni069A.init" unicode="&#x69a;" horiz-adv-x="729" 
d="M637 241q17 -68 17 -163q-4 -32 -43.5 -55t-86.5 -23q-46 0 -79.5 18t-48.5 43q-10 -28 -45.5 -44.5t-74.5 -16.5q-47 0 -80.5 18.5t-46.5 43.5q-10 -29 -50.5 -45.5t-99.5 -16.5l-14 10l16 12q61 0 95.5 16.5t41.5 43.5l-20 224h22l17 -223q14 -25 45 -43t76 -18
q41 0 71 17.5t36 42.5l-20 224h22l18 -223q13 -25 44 -43t76 -18q34 0 65 14.5t45 34.5q-1 94 -19 159.5t-50 135.5l22 9q32 -66 49 -134zM377 -131l21 26l27 -23l-22 -26zM349 443l22 27l26 -23l-22 -27z" />
    <glyph glyph-name="uni069A.medi" unicode="&#x69a;" horiz-adv-x="812" 
d="M812 0q-98 0 -166 56q-17 -26 -49.5 -41t-72.5 -15q-46 0 -79.5 18t-48.5 43q-10 -28 -45.5 -44.5t-74.5 -16.5q-47 0 -80.5 18.5t-46.5 43.5q-10 -29 -50.5 -45.5t-99.5 -16.5l-14 10l16 12q61 0 95.5 16.5t41.5 43.5l-20 224h22l17 -223q14 -25 45 -43t76 -18
q41 0 71 17.5t36 42.5l-20 224h22l18 -223q13 -25 44 -43t76 -18q35 0 65.5 14.5t44.5 34.5q-5 63 -16.5 131t-31.5 167l23 6q34 -170 44 -299q32 -26 66.5 -40t93.5 -14l12 -11zM370 -131l21 26l27 -23l-22 -26zM340 443l22 27l26 -23l-22 -27z" />
    <glyph glyph-name="uni069A.fina" unicode="&#x69a;" horiz-adv-x="1206" 
d="M1206 0q-99 0 -165 56q-18 -26 -49.5 -41t-72.5 -15q-47 0 -81 18.5t-47 43.5q-9 -28 -44.5 -45t-75.5 -17q-26 0 -50.5 9.5t-40.5 29.5q4 -38 4 -88q-3 -43 -40.5 -86t-102.5 -71.5t-144 -28.5q-121 0 -177.5 55.5t-56.5 150.5q0 87 36 173l16 -6q-32 -83 -32 -166
q0 -86 51.5 -135.5t164.5 -49.5q68 0 123 22t91.5 55.5t52.5 68.5q2 71 -8.5 127.5t-25.5 95.5t-39 90q-4 9 -7.5 16t-5.5 12l22 9q52 -115 71 -195q8 -33 34 -49.5t66 -16.5q41 0 70.5 17.5t36.5 42.5l-20 224h22l17 -223q14 -25 45 -43t76 -18q35 0 65.5 14.5t44.5 34.5
q-10 107 -48 298l22 6q35 -167 44 -299q33 -26 67.5 -40t93.5 -14l12 -11zM764 -131l21 26l27 -23l-22 -26zM735 443l22 27l26 -23l-22 -27z" />
    <glyph glyph-name="uni069B.init" unicode="&#x69b;" horiz-adv-x="729" 
d="M637 241q17 -68 17 -163q-4 -32 -43.5 -55t-86.5 -23q-46 0 -79.5 18t-48.5 43q-10 -28 -45.5 -44.5t-74.5 -16.5q-47 0 -80.5 18.5t-46.5 43.5q-10 -29 -50.5 -45.5t-99.5 -16.5l-14 10l16 12q61 0 95.5 16.5t41.5 43.5l-20 224h22l17 -223q14 -25 45 -43t76 -18
q41 0 71 17.5t36 42.5l-20 224h22l18 -223q13 -25 44 -43t76 -18q34 0 65 14.5t45 34.5q-1 94 -19 159.5t-50 135.5l22 9q32 -66 49 -134zM439 -141l19 23l22 -18l-19 -23zM334 -148l19 23l22 -18l-20 -23zM391 -233l20 23l21 -18l-19 -23z" />
    <glyph glyph-name="uni069B.medi" unicode="&#x69b;" horiz-adv-x="812" 
d="M812 0q-98 0 -166 56q-17 -26 -49.5 -41t-72.5 -15q-46 0 -79.5 18t-48.5 43q-10 -28 -45.5 -44.5t-74.5 -16.5q-47 0 -80.5 18.5t-46.5 43.5q-10 -29 -50.5 -45.5t-99.5 -16.5l-14 10l16 12q61 0 95.5 16.5t41.5 43.5l-20 224h22l17 -223q14 -25 45 -43t76 -18
q41 0 71 17.5t36 42.5l-20 224h22l18 -223q13 -25 44 -43t76 -18q35 0 65.5 14.5t44.5 34.5q-5 63 -16.5 131t-31.5 167l23 6q34 -170 44 -299q32 -26 66.5 -40t93.5 -14l12 -11zM432 -141l19 23l22 -18l-19 -23zM327 -148l19 23l22 -18l-20 -23zM384 -233l20 23l21 -18
l-19 -23z" />
    <glyph glyph-name="uni069B.fina" unicode="&#x69b;" horiz-adv-x="1206" 
d="M1206 0q-99 0 -165 56q-18 -26 -49.5 -41t-72.5 -15q-47 0 -81 18.5t-47 43.5q-9 -28 -44.5 -45t-75.5 -17q-26 0 -50.5 9.5t-40.5 29.5q4 -38 4 -88q-3 -43 -40.5 -86t-102.5 -71.5t-144 -28.5q-121 0 -177.5 55.5t-56.5 150.5q0 87 36 173l16 -6q-32 -83 -32 -166
q0 -86 51.5 -135.5t164.5 -49.5q68 0 123 22t91.5 55.5t52.5 68.5q2 71 -8.5 127.5t-25.5 95.5t-39 90q-4 9 -7.5 16t-5.5 12l22 9q52 -115 71 -195q8 -33 34 -49.5t66 -16.5q41 0 70.5 17.5t36.5 42.5l-20 224h22l17 -223q14 -25 45 -43t76 -18q35 0 65.5 14.5t44.5 34.5
q-10 107 -48 298l22 6q35 -167 44 -299q33 -26 67.5 -40t93.5 -14l12 -11zM826 -141l19 23l22 -18l-19 -23zM721 -148l19 23l22 -18l-20 -23zM778 -233l20 23l21 -18l-19 -23z" />
    <glyph glyph-name="uni069C.init" unicode="&#x69c;" horiz-adv-x="729" 
d="M637 241q17 -68 17 -163q-4 -32 -43.5 -55t-86.5 -23q-46 0 -79.5 18t-48.5 43q-10 -28 -45.5 -44.5t-74.5 -16.5q-47 0 -80.5 18.5t-46.5 43.5q-10 -29 -50.5 -45.5t-99.5 -16.5l-14 10l16 12q61 0 95.5 16.5t41.5 43.5l-20 224h22l17 -223q14 -25 45 -43t76 -18
q41 0 71 17.5t36 42.5l-20 224h22l18 -223q13 -25 44 -43t76 -18q34 0 65 14.5t45 34.5q-1 94 -19 159.5t-50 135.5l22 9q32 -66 49 -134zM384 544l-19 -23l-22 18l19 23zM442 459l-20 -23l-21 18l19 23zM336 452l-19 -23l-22 18l20 23zM439 -141l19 23l22 -18l-19 -23z
M334 -148l19 23l22 -18l-20 -23zM391 -233l20 23l21 -18l-19 -23z" />
    <glyph glyph-name="uni069C.medi" unicode="&#x69c;" horiz-adv-x="812" 
d="M812 0q-98 0 -166 56q-17 -26 -49.5 -41t-72.5 -15q-46 0 -79.5 18t-48.5 43q-10 -28 -45.5 -44.5t-74.5 -16.5q-47 0 -80.5 18.5t-46.5 43.5q-10 -29 -50.5 -45.5t-99.5 -16.5l-14 10l16 12q61 0 95.5 16.5t41.5 43.5l-20 224h22l17 -223q14 -25 45 -43t76 -18
q41 0 71 17.5t36 42.5l-20 224h22l18 -223q13 -25 44 -43t76 -18q35 0 65.5 14.5t44.5 34.5q-5 63 -16.5 131t-31.5 167l23 6q34 -170 44 -299q32 -26 66.5 -40t93.5 -14l12 -11zM376 544l-19 -23l-22 18l19 23zM434 459l-20 -23l-21 18l19 23zM328 452l-19 -23l-22 18
l20 23zM432 -141l19 23l22 -18l-19 -23zM327 -148l19 23l22 -18l-20 -23zM384 -233l20 23l21 -18l-19 -23z" />
    <glyph glyph-name="uni069C.fina" unicode="&#x69c;" horiz-adv-x="1206" 
d="M1206 0q-99 0 -165 56q-18 -26 -49.5 -41t-72.5 -15q-47 0 -81 18.5t-47 43.5q-9 -28 -44.5 -45t-75.5 -17q-26 0 -50.5 9.5t-40.5 29.5q4 -38 4 -88q-3 -43 -40.5 -86t-102.5 -71.5t-144 -28.5q-121 0 -177.5 55.5t-56.5 150.5q0 87 36 173l16 -6q-32 -83 -32 -166
q0 -86 51.5 -135.5t164.5 -49.5q68 0 123 22t91.5 55.5t52.5 68.5q2 71 -8.5 127.5t-25.5 95.5t-39 90q-4 9 -7.5 16t-5.5 12l22 9q52 -115 71 -195q8 -33 34 -49.5t66 -16.5q41 0 70.5 17.5t36.5 42.5l-20 224h22l17 -223q14 -25 45 -43t76 -18q35 0 65.5 14.5t44.5 34.5
q-10 107 -48 298l22 6q35 -167 44 -299q33 -26 67.5 -40t93.5 -14l12 -11zM770 544l-19 -23l-22 18l19 23zM828 459l-20 -23l-21 18l19 23zM722 452l-19 -23l-22 18l20 23zM826 -141l19 23l22 -18l-19 -23zM721 -148l19 23l22 -18l-20 -23zM778 -233l20 23l21 -18l-19 -23z
" />
    <glyph glyph-name="uni069D.init" unicode="&#x69d;" horiz-adv-x="894" 
d="M818 128q-16 -62 -104 -95t-273 -33h-160q-50 0 -88 19t-51 45q-15 -29 -58 -46.5t-85 -17.5l-14 10l16 12q42 0 80.5 18.5t49.5 42.5l-17 282h22l15 -277q11 -25 43.5 -44.5t78.5 -21.5q43 102 105 182.5t134.5 126.5t144.5 46q167 0 161 -249zM797 148q0 106 -37 156
t-101 50q-103 0 -201 -90.5t-166 -241.5h149q162 0 238 21t117 62q1 15 1 43zM178 -141l19 23l22 -18l-19 -23zM73 -148l19 23l22 -18l-20 -23z" />
    <glyph glyph-name="uni069D.medi" unicode="&#x69d;" horiz-adv-x="930" 
d="M945 11l-15 -11q-46 0 -79 24t-52 65q-33 -43 -119 -66t-239 -23h-160q-50 0 -88 19t-51 45q-15 -29 -58 -46.5t-85 -17.5l-14 10l16 12q42 0 80.5 18.5t49.5 42.5l-17 282h22l15 -277q11 -25 43.5 -44.5t78.5 -21.5q43 102 105 182.5t134.5 126.5t144.5 46
q167 0 161 -249l-6 -18q13 -37 45.5 -62.5t74.5 -25.5zM679 43q76 21 117 62q1 15 1 43q0 106 -37 156t-101 50q-103 0 -201 -90.5t-166 -241.5h149q162 0 238 21zM178 -141l19 23l22 -18l-19 -23zM73 -148l19 23l22 -18l-20 -23z" />
    <glyph glyph-name="uni069D.fina" unicode="&#x69d;" horiz-adv-x="1320" 
d="M1335 11l-15 -11q-46 0 -79 24t-52 65q-33 -43 -119 -66t-239 -23h-160q-26 0 -50.5 9.5t-40.5 29.5q4 -38 4 -88q-3 -43 -40.5 -86t-102.5 -71.5t-144 -28.5q-121 0 -177.5 55.5t-56.5 150.5q0 87 36 173l16 -6q-32 -83 -32 -166q0 -86 51.5 -135.5t164.5 -49.5
q68 0 123 22t91.5 55.5t52.5 68.5q2 71 -8.5 127.5t-25.5 95.5t-39 90q-4 9 -7.5 16t-5.5 12l22 9q52 -115 71 -195q14 -61 90 -66q43 102 105 182.5t134.5 126.5t144.5 46q167 0 161 -249l-6 -18q13 -37 45.5 -62.5t74.5 -25.5zM1069 43q76 21 117 62q1 15 1 43
q0 106 -37 156t-101 50q-103 0 -201 -90.5t-166 -241.5h149q162 0 238 21zM342 -364l19 23l22 -18l-19 -23zM237 -371l19 23l22 -18l-20 -23z" />
    <glyph glyph-name="uni069E.init" unicode="&#x69e;" horiz-adv-x="894" 
d="M571 566l-22 18l19 23l22 -18zM629 480l-22 18l19 24l22 -18zM524 474l-22 18l19 23l22 -18zM818 128q-16 -62 -104 -95t-273 -33h-160q-50 0 -88 19t-51 45q-15 -29 -58 -46.5t-85 -17.5l-14 10l16 12q42 0 80.5 18.5t49.5 42.5l-17 282h22l15 -277q11 -25 43.5 -44.5
t78.5 -21.5q43 102 105 182.5t134.5 126.5t144.5 46q167 0 161 -249zM797 148q0 106 -37 156t-101 50q-103 0 -201 -90.5t-166 -241.5h149q162 0 238 21t117 62q1 15 1 43z" />
    <glyph glyph-name="uni069E.medi" unicode="&#x69e;" horiz-adv-x="930" 
d="M571 566l-22 18l19 23l22 -18zM629 480l-22 18l19 24l22 -18zM524 474l-22 18l19 23l22 -18zM945 11l-15 -11q-46 0 -79 24t-52 65q-33 -43 -119 -66t-239 -23h-160q-50 0 -88 19t-51 45q-15 -29 -58 -46.5t-85 -17.5l-14 10l16 12q42 0 80.5 18.5t49.5 42.5l-17 282h22
l15 -277q11 -25 43.5 -44.5t78.5 -21.5q43 102 105 182.5t134.5 126.5t144.5 46q167 0 161 -249l-6 -18q13 -37 45.5 -62.5t74.5 -25.5zM679 43q76 21 117 62q1 15 1 43q0 106 -37 156t-101 50q-103 0 -201 -90.5t-166 -241.5h149q162 0 238 21z" />
    <glyph glyph-name="uni069E.fina" unicode="&#x69e;" horiz-adv-x="1320" 
d="M961 566l-22 18l19 23l22 -18zM1019 480l-22 18l19 24l22 -18zM914 474l-22 18l19 23l22 -18zM1335 11l-15 -11q-46 0 -79 24t-52 65q-33 -43 -119 -66t-239 -23h-160q-26 0 -50.5 9.5t-40.5 29.5q4 -38 4 -88q-3 -43 -40.5 -86t-102.5 -71.5t-144 -28.5
q-121 0 -177.5 55.5t-56.5 150.5q0 87 36 173l16 -6q-32 -83 -32 -166q0 -86 51.5 -135.5t164.5 -49.5q68 0 123 22t91.5 55.5t52.5 68.5q2 71 -8.5 127.5t-25.5 95.5t-39 90q-4 9 -7.5 16t-5.5 12l22 9q52 -115 71 -195q14 -61 90 -66q43 102 105 182.5t134.5 126.5
t144.5 46q167 0 161 -249l-6 -18q13 -37 45.5 -62.5t74.5 -25.5zM1069 43q76 21 117 62q1 15 1 43q0 106 -37 156t-101 50q-103 0 -201 -90.5t-166 -241.5h149q162 0 238 21z" />
    <glyph glyph-name="uni069F.init" unicode="&#x69f;" horiz-adv-x="762" 
d="M686 142q-16 -72 -103 -107t-274 -35h-309l-15 11l17 11h139q22 54 58 115l-12 595l22 3l9 -569q65 98 145.5 154.5t161.5 56.5q165 0 161 -235zM632 299.5q-37 54.5 -105 54.5q-103 0 -201 -90.5t-166 -241.5h149q117 0 188 12t109.5 34.5t60.5 58.5q2 118 -35 172.5z
M455 606l-19 -23l-22 18l19 23zM513 521l-20 -23l-21 18l19 23zM407 514l-19 -23l-22 18l20 23z" />
    <glyph glyph-name="uni069F.medi" unicode="&#x69f;" horiz-adv-x="798" 
d="M813 11l-15 -11q-48 0 -81 25.5t-52 67.5q-34 -47 -119 -70t-237 -23h-309l-15 11l17 11h139q22 54 58 115l-12 595l22 3l9 -569q65 98 145.5 154.5t161.5 56.5q165 0 161 -235q-3 -11 -8 -26q11 -39 44.5 -66.5t77.5 -27.5zM497 34q71 12 109.5 34.5t60.5 58.5
q2 118 -35 172.5t-105 54.5q-103 0 -201 -90.5t-166 -241.5h149q117 0 188 12zM455 606l-19 -23l-22 18l19 23zM513 521l-20 -23l-21 18l19 23zM407 514l-19 -23l-22 18l20 23z" />
    <glyph glyph-name="uni069F.fina" unicode="&#x69f;" horiz-adv-x="813" 
d="M828 11l-15 -11q-48 0 -81 25.5t-52 67.5q-34 -47 -119 -70t-237 -23h-268l5 22h95q22 54 58 115l-12 595l22 3l9 -569q65 98 145.5 154.5t161.5 56.5q165 0 161 -235q-3 -11 -8 -26q11 -39 44.5 -66.5t77.5 -27.5zM512 34q71 12 109.5 34.5t60.5 58.5q2 118 -35 172.5
t-105 54.5q-103 0 -201 -90.5t-166 -241.5h149q117 0 188 12zM470 606l-19 -23l-22 18l19 23zM528 521l-20 -23l-21 18l19 23zM422 514l-19 -23l-22 18l20 23z" />
    <glyph glyph-name="uni06A0.init" unicode="&#x6a0;" horiz-adv-x="523" 
d="M497 51q-129 -31 -212 -41t-213 -10h-72l-15 11l17 11h65q104 0 162 5q-77 42 -117 96.5t-40 118.5q0 68 44 111.5t130 43.5q31 0 66.5 -8.5t64.5 -25.5l-6 -21q-29 16 -62.5 24.5t-62.5 8.5q-77 0 -115 -37t-38 -96q0 -125 168 -213q50 5 100.5 15t132.5 29zM245 622
l-19 -23l-22 18l19 23zM303 537l-20 -23l-21 18l19 23zM197 530l-19 -23l-22 18l20 23z" />
    <glyph glyph-name="uni06A0.medi" unicode="&#x6a0;" horiz-adv-x="524" 
d="M539 10l-15 -10h-16q-124 0 -230 91q-2 2 -3 2q-65 -42 -135.5 -67.5t-121.5 -25.5h-18l-15 10l17 12h12q50 0 116 24t128 63q-20 19 -58 60q-6 6 -32 33.5t-56 54.5t-63 52l2 22q112 48 217 48q48 0 88.5 -9t65 -22t29.5 -26q0 -56 -43 -112t-114 -104
q51 -43 100.5 -63.5t117.5 -20.5h14zM144.5 254.5q31.5 -29.5 67.5 -68.5q31 -32 65 -65q70 46 113 99.5t43 102.5q-25 14 -70 24t-95 10q-103 0 -197 -41q42 -32 73.5 -61.5zM267 610l-19 -23l-22 18l19 23zM325 525l-20 -23l-21 18l19 23zM219 518l-19 -23l-22 18l20 23z
" />
    <glyph glyph-name="uni06A0.fina" unicode="&#x6a0;" horiz-adv-x="545" 
d="M124 -16.5q-51 -59.5 -51 -134.5q0 -46 24 -84.5t74.5 -62t127.5 -23.5q65 0 124.5 11.5t106.5 30.5l8 -20q-48 -20 -110 -32t-131 -12q-83 0 -138 26.5t-80.5 70t-25.5 94.5q0 81 53 144.5t155 128.5q-27 27 -41 43q-40 43 -74 75t-83 70l2 22q56 23 106 35.5t109 12.5
q49 0 90 -9t65.5 -22t28.5 -26q0 -57 -41.5 -102t-128.5 -101q66 -55 112.5 -76t117.5 -21h23l13 -11l-15 -11h-24q-69 0 -123 25t-122 82q-101 -64 -152 -123.5zM157 254.5q31 -29.5 73 -72.5q25 -27 49 -49q83 52 124.5 95t43.5 95q-18 12 -66 23t-101 11q-95 0 -195 -41
q41 -32 72 -61.5zM282 612l-19 -23l-22 18l19 23zM340 527l-20 -23l-21 18l19 23zM234 520l-19 -23l-22 18l20 23z" />
    <glyph glyph-name="uni06A1.init" unicode="&#x6a1;" horiz-adv-x="449" 
d="M324 449.5q48 -78.5 48 -257.5q0 -39 -1 -60q-8 -25 -55.5 -56t-129 -53.5t-186.5 -22.5l-15 12l17 10q132 0 218.5 31.5t130.5 75.5q2 40 2 56q0 19 -2 49q-23 -20 -55.5 -30.5t-68.5 -10.5q-49 0 -89.5 20t-64.5 55t-24 79q0 46 23 88t59 67.5t74 25.5q71 0 119 -78.5z
M294.5 223q31.5 10 56.5 29q-8 137 -49 195.5t-98 58.5q-32 0 -63.5 -22.5t-51.5 -59t-20 -76.5q0 -60 46.5 -97.5t116.5 -37.5q31 0 62.5 10z" />
    <glyph glyph-name="uni06A1.medi" unicode="&#x6a1;" horiz-adv-x="456" 
d="M470 11l-14 -11h-16q-111 0 -204 41q-97 -41 -225 -41h-11l-15 11l17 11h12q114 0 199 30q-64 32 -102 80.5t-38 107.5q0 46 23 89.5t59 70.5t73 27q40 0 78 -27t62 -71t24 -92q0 -53 -34 -101.5t-98 -82.5q85 -31 180 -31h18zM132 135q39 -45 105 -73q66 28 100.5 73
t34.5 98q0 43 -21 83t-54.5 64.5t-67.5 24.5q-32 0 -64 -24.5t-52 -63.5t-20 -81q0 -56 39 -101z" />
    <glyph glyph-name="uni06A1.fina" unicode="&#x6a1;" horiz-adv-x="925" 
d="M940 11l-15 -11h-16q-55 0 -110.5 11.5t-103.5 33.5q-135 -57 -354 -57h-12q-135 0 -200.5 43t-65.5 129q0 74 35 147l16 -6q-31 -68 -31 -139q0 -76 60.5 -114t187.5 -38h12q199 0 329 47q-61 33 -95.5 79.5t-34.5 103.5q0 46 23 89.5t59.5 70.5t73.5 27q39 0 77.5 -27
t62.5 -71t24 -92q0 -52 -35.5 -99t-106.5 -82q87 -34 189 -34h18zM598 138.5q36 -43.5 98 -72.5q72 31 108.5 74.5t36.5 92.5q0 43 -21 83t-54.5 64.5t-67.5 24.5q-32 0 -63.5 -24.5t-52 -63.5t-20.5 -81q0 -54 36 -97.5z" />
    <glyph glyph-name="uni06A2.init" unicode="&#x6a2;" horiz-adv-x="449" 
d="M324 449.5q48 -78.5 48 -257.5q0 -39 -1 -60q-8 -25 -55.5 -56t-129 -53.5t-186.5 -22.5l-15 12l17 10q132 0 218.5 31.5t130.5 75.5q2 40 2 56q0 19 -2 49q-23 -20 -55.5 -30.5t-68.5 -10.5q-49 0 -89.5 20t-64.5 55t-24 79q0 46 23 88t59 67.5t74 25.5q71 0 119 -78.5z
M294.5 223q31.5 10 56.5 29q-8 137 -49 195.5t-98 58.5q-32 0 -63.5 -22.5t-51.5 -59t-20 -76.5q0 -60 46.5 -97.5t116.5 -37.5q31 0 62.5 10zM168 -131l21 26l27 -23l-22 -26z" />
    <glyph glyph-name="uni06A2.medi" unicode="&#x6a2;" horiz-adv-x="456" 
d="M470 11l-14 -11h-16q-111 0 -204 41q-97 -41 -225 -41h-11l-15 11l17 11h12q114 0 199 30q-64 32 -102 80.5t-38 107.5q0 46 23 89.5t59 70.5t73 27q40 0 78 -27t62 -71t24 -92q0 -53 -34 -101.5t-98 -82.5q85 -31 180 -31h18zM132 135q39 -45 105 -73q66 28 100.5 73
t34.5 98q0 43 -21 83t-54.5 64.5t-67.5 24.5q-32 0 -64 -24.5t-52 -63.5t-20 -81q0 -56 39 -101zM202 -131l21 26l27 -23l-22 -26z" />
    <glyph glyph-name="uni06A2.fina" unicode="&#x6a2;" horiz-adv-x="925" 
d="M940 11l-15 -11h-16q-55 0 -110.5 11.5t-103.5 33.5q-135 -57 -354 -57h-12q-135 0 -200.5 43t-65.5 129q0 74 35 147l16 -6q-31 -68 -31 -139q0 -76 60.5 -114t187.5 -38h12q199 0 329 47q-61 33 -95.5 79.5t-34.5 103.5q0 46 23 89.5t59.5 70.5t73.5 27q39 0 77.5 -27
t62.5 -71t24 -92q0 -52 -35.5 -99t-106.5 -82q87 -34 189 -34h18zM598 138.5q36 -43.5 98 -72.5q72 31 108.5 74.5t36.5 92.5q0 43 -21 83t-54.5 64.5t-67.5 24.5q-32 0 -63.5 -24.5t-52 -63.5t-20.5 -81q0 -54 36 -97.5zM671 -131l21 26l27 -23l-22 -26z" />
    <glyph glyph-name="uni06A3.init" unicode="&#x6a3;" horiz-adv-x="449" 
d="M324 449.5q48 -78.5 48 -257.5q0 -39 -1 -60q-8 -25 -55.5 -56t-129 -53.5t-186.5 -22.5l-15 12l17 10q132 0 218.5 31.5t130.5 75.5q2 40 2 56q0 19 -2 49q-23 -20 -55.5 -30.5t-68.5 -10.5q-49 0 -89.5 20t-64.5 55t-24 79q0 46 23 88t59 67.5t74 25.5q71 0 119 -78.5z
M294.5 223q31.5 10 56.5 29q-8 137 -49 195.5t-98 58.5q-32 0 -63.5 -22.5t-51.5 -59t-20 -76.5q0 -60 46.5 -97.5t116.5 -37.5q31 0 62.5 10zM172 656l22 27l26 -23l-22 -27zM180 -131l21 26l27 -23l-22 -26z" />
    <glyph glyph-name="uni06A3.medi" unicode="&#x6a3;" horiz-adv-x="456" 
d="M470 11l-14 -11h-16q-111 0 -204 41q-97 -41 -225 -41h-11l-15 11l17 11h12q114 0 199 30q-64 32 -102 80.5t-38 107.5q0 46 23 89.5t59 70.5t73 27q40 0 78 -27t62 -71t24 -92q0 -53 -34 -101.5t-98 -82.5q85 -31 180 -31h18zM132 135q39 -45 105 -73q66 28 100.5 73
t34.5 98q0 43 -21 83t-54.5 64.5t-67.5 24.5q-32 0 -64 -24.5t-52 -63.5t-20 -81q0 -56 39 -101zM192 564l22 27l26 -23l-22 -27zM214 -131l21 26l27 -23l-22 -26z" />
    <glyph glyph-name="uni06A3.fina" unicode="&#x6a3;" horiz-adv-x="925" 
d="M940 11l-15 -11h-16q-55 0 -110.5 11.5t-103.5 33.5q-135 -57 -354 -57h-12q-135 0 -200.5 43t-65.5 129q0 74 35 147l16 -6q-31 -68 -31 -139q0 -76 60.5 -114t187.5 -38h12q199 0 329 47q-61 33 -95.5 79.5t-34.5 103.5q0 46 23 89.5t59.5 70.5t73.5 27q39 0 77.5 -27
t62.5 -71t24 -92q0 -52 -35.5 -99t-106.5 -82q87 -34 189 -34h18zM598 138.5q36 -43.5 98 -72.5q72 31 108.5 74.5t36.5 92.5q0 43 -21 83t-54.5 64.5t-67.5 24.5q-32 0 -63.5 -24.5t-52 -63.5t-20.5 -81q0 -54 36 -97.5zM661 566l22 27l26 -23l-22 -27zM684 -131l21 26
l27 -23l-22 -26z" />
    <glyph glyph-name="uni06A5.init" unicode="&#x6a5;" horiz-adv-x="449" 
d="M324 449.5q48 -78.5 48 -257.5q0 -39 -1 -60q-8 -25 -55.5 -56t-129 -53.5t-186.5 -22.5l-15 12l17 10q132 0 218.5 31.5t130.5 75.5q2 40 2 56q0 19 -2 49q-23 -20 -55.5 -30.5t-68.5 -10.5q-49 0 -89.5 20t-64.5 55t-24 79q0 46 23 88t59 67.5t74 25.5q71 0 119 -78.5z
M294.5 223q31.5 10 56.5 29q-8 137 -49 195.5t-98 58.5q-32 0 -63.5 -22.5t-51.5 -59t-20 -76.5q0 -60 46.5 -97.5t116.5 -37.5q31 0 62.5 10zM230 -141l19 23l22 -18l-19 -23zM125 -148l19 23l22 -18l-20 -23zM182 -233l20 23l21 -18l-19 -23z" />
    <glyph glyph-name="uni06A5.medi" unicode="&#x6a5;" horiz-adv-x="456" 
d="M470 11l-14 -11h-16q-111 0 -204 41q-97 -41 -225 -41h-11l-15 11l17 11h12q114 0 199 30q-64 32 -102 80.5t-38 107.5q0 46 23 89.5t59 70.5t73 27q40 0 78 -27t62 -71t24 -92q0 -53 -34 -101.5t-98 -82.5q85 -31 180 -31h18zM132 135q39 -45 105 -73q66 28 100.5 73
t34.5 98q0 43 -21 83t-54.5 64.5t-67.5 24.5q-32 0 -64 -24.5t-52 -63.5t-20 -81q0 -56 39 -101zM264 -141l19 23l22 -18l-19 -23zM159 -148l19 23l22 -18l-20 -23zM216 -233l20 23l21 -18l-19 -23z" />
    <glyph glyph-name="uni06A5.fina" unicode="&#x6a5;" horiz-adv-x="925" 
d="M940 11l-15 -11h-16q-55 0 -110.5 11.5t-103.5 33.5q-135 -57 -354 -57h-12q-135 0 -200.5 43t-65.5 129q0 74 35 147l16 -6q-31 -68 -31 -139q0 -76 60.5 -114t187.5 -38h12q199 0 329 47q-61 33 -95.5 79.5t-34.5 103.5q0 46 23 89.5t59.5 70.5t73.5 27q39 0 77.5 -27
t62.5 -71t24 -92q0 -52 -35.5 -99t-106.5 -82q87 -34 189 -34h18zM598 138.5q36 -43.5 98 -72.5q72 31 108.5 74.5t36.5 92.5q0 43 -21 83t-54.5 64.5t-67.5 24.5q-32 0 -63.5 -24.5t-52 -63.5t-20.5 -81q0 -54 36 -97.5zM733 -141l19 23l22 -18l-19 -23zM628 -148l19 23
l22 -18l-20 -23zM685 -233l20 23l21 -18l-19 -23z" />
    <glyph glyph-name="uni06A7.init" unicode="&#x6a7;" horiz-adv-x="449" 
d="M324 449.5q48 -78.5 48 -257.5q0 -39 -1 -60q-8 -25 -55.5 -56t-129 -53.5t-186.5 -22.5l-15 12l17 10q132 0 218.5 31.5t130.5 75.5q2 40 2 56q0 19 -2 49q-23 -20 -55.5 -30.5t-68.5 -10.5q-49 0 -89.5 20t-64.5 55t-24 79q0 46 23 88t59 67.5t74 25.5q71 0 119 -78.5z
M294.5 223q31.5 10 56.5 29q-8 137 -49 195.5t-98 58.5q-32 0 -63.5 -22.5t-51.5 -59t-20 -76.5q0 -60 46.5 -97.5t116.5 -37.5q31 0 62.5 10zM172 656l22 27l26 -23l-22 -27z" />
    <glyph glyph-name="uni06A7.medi" unicode="&#x6a7;" horiz-adv-x="456" 
d="M470 11l-14 -11h-16q-111 0 -204 41q-97 -41 -225 -41h-11l-15 11l17 11h12q114 0 199 30q-64 32 -102 80.5t-38 107.5q0 46 23 89.5t59 70.5t73 27q40 0 78 -27t62 -71t24 -92q0 -53 -34 -101.5t-98 -82.5q85 -31 180 -31h18zM132 135q39 -45 105 -73q66 28 100.5 73
t34.5 98q0 43 -21 83t-54.5 64.5t-67.5 24.5q-32 0 -64 -24.5t-52 -63.5t-20 -81q0 -56 39 -101zM192 564l22 27l26 -23l-22 -27z" />
    <glyph glyph-name="uni06A7.fina" unicode="&#x6a7;" horiz-adv-x="744" 
d="M744 0h-108q0 -40 -1 -62q-8 -41 -47.5 -81t-102.5 -66t-138 -26q-155 0 -219.5 54t-64.5 155q0 85 37 171l16 -5q-17 -43 -25 -82t-8 -83q0 -91 60 -139.5t207 -48.5q95 0 165 40t99 100q1 26 1 73h-94q-96 0 -152 43.5t-56 116.5q0 45 23 86.5t59.5 67t74.5 25.5
q156 0 165 -317h111l12 -11zM615 22q-7 295 -146 295q-32 0 -63.5 -22t-51.5 -58.5t-20 -75.5q0 -66 50.5 -102.5t141.5 -36.5h85h4zM433 464l22 27l26 -23l-22 -27z" />
    <glyph glyph-name="uni06A8.init" unicode="&#x6a8;" horiz-adv-x="449" 
d="M324 449.5q48 -78.5 48 -257.5q0 -39 -1 -60q-8 -25 -55.5 -56t-129 -53.5t-186.5 -22.5l-15 12l17 10q132 0 218.5 31.5t130.5 75.5q2 40 2 56q0 19 -2 49q-23 -20 -55.5 -30.5t-68.5 -10.5q-49 0 -89.5 20t-64.5 55t-24 79q0 46 23 88t59 67.5t74 25.5q71 0 119 -78.5z
M294.5 223q31.5 10 56.5 29q-8 137 -49 195.5t-98 58.5q-32 0 -63.5 -22.5t-51.5 -59t-20 -76.5q0 -60 46.5 -97.5t116.5 -37.5q31 0 62.5 10zM207 757l-19 -23l-22 18l19 23zM265 672l-20 -23l-21 18l19 23zM159 665l-19 -23l-22 18l20 23z" />
    <glyph glyph-name="uni06A8.medi" unicode="&#x6a8;" horiz-adv-x="456" 
d="M470 11l-14 -11h-16q-111 0 -204 41q-97 -41 -225 -41h-11l-15 11l17 11h12q114 0 199 30q-64 32 -102 80.5t-38 107.5q0 46 23 89.5t59 70.5t73 27q40 0 78 -27t62 -71t24 -92q0 -53 -34 -101.5t-98 -82.5q85 -31 180 -31h18zM132 135q39 -45 105 -73q66 28 100.5 73
t34.5 98q0 43 -21 83t-54.5 64.5t-67.5 24.5q-32 0 -64 -24.5t-52 -63.5t-20 -81q0 -56 39 -101zM227 665l-19 -23l-22 18l19 23zM285 580l-20 -23l-21 18l19 23zM179 573l-19 -23l-22 18l20 23z" />
    <glyph glyph-name="uni06A8.fina" unicode="&#x6a8;" horiz-adv-x="744" 
d="M744 0h-108q0 -40 -1 -62q-8 -41 -47.5 -81t-102.5 -66t-138 -26q-155 0 -219.5 54t-64.5 155q0 85 37 171l16 -5q-17 -43 -25 -82t-8 -83q0 -91 60 -139.5t207 -48.5q95 0 165 40t99 100q1 26 1 73h-94q-96 0 -152 43.5t-56 116.5q0 45 23 86.5t59.5 67t74.5 25.5
q156 0 165 -317h111l12 -11zM615 22q-7 295 -146 295q-32 0 -63.5 -22t-51.5 -58.5t-20 -75.5q0 -66 50.5 -102.5t141.5 -36.5h85h4zM469 565l-19 -23l-22 18l19 23zM527 480l-20 -23l-21 18l19 23zM421 473l-19 -23l-22 18l20 23z" />
    <glyph glyph-name="uni06AA.init" unicode="&#x6aa;" horiz-adv-x="1159" 
d="M1016 261q67 -45 67 -129q-4 -23 -30.5 -43t-67.5 -33q-170 -56 -559 -56h-426l-15 11l17 11h419q267 0 407.5 20t180.5 41.5t58 44.5q-2 78 -64 118.5t-201 40.5q-110 0 -270 -12q-144 -10 -219 -10q-137 0 -211 13l2 18q25 98 102.5 177.5t191.5 106.5l-2 -22
q-103 -26 -176 -98.5t-96 -163.5q81 -12 192 -12q76 0 220 10q160 12 266 12q147 0 214 -45z" />
    <glyph glyph-name="uni06AA.medi" unicode="&#x6aa;" horiz-adv-x="1178" 
d="M1178 0q-104 0 -174 63q-7 -4 -19 -7q-170 -56 -559 -56h-426l-15 11l17 11h419q267 0 407.5 20t180.5 41.5t58 44.5q-2 78 -64 118.5t-201 40.5q-110 0 -270 -12q-144 -10 -219 -10q-137 0 -211 13l2 18q25 98 102.5 177.5t191.5 106.5l-2 -22q-103 -26 -176 -98.5
t-96 -163.5q81 -12 192 -12q76 0 220 10q160 12 266 12q147 0 214 -45t67 -129q-6 -34 -59 -60q30 -24 64.5 -37t91.5 -13l12 -11z" />
    <glyph glyph-name="uni06AA.fina" unicode="&#x6aa;" horiz-adv-x="1248" 
d="M1248 0q-104 0 -174 63q-7 -4 -19 -7q-176 -56 -559 -56h-441l-6 22h442q267 0 407.5 20t180.5 41.5t58 44.5q-2 78 -64 118.5t-201 40.5q-109 0 -269 -12q-146 -10 -220 -10q-137 0 -211 13l2 18q26 98 103.5 177.5t190.5 106.5l-2 -22q-103 -26 -176 -98.5t-96 -163.5
q81 -12 192 -12q76 0 220 10q160 12 266 12q147 0 214 -45t67 -129q-6 -34 -59 -60q30 -24 65 -37t91 -13l13 -11z" />
    <glyph glyph-name="uni06AB.init" unicode="&#x6ab;" horiz-adv-x="454" 
d="M390 718l-363 -256q124 -78 206 -170.5t95 -188.5q-18 -25 -63 -48.5t-113.5 -39t-151.5 -15.5l-15 11l17 11q115 0 191 25.5t115 59.5q-14 90 -95.5 178.5t-206.5 166.5l4 21l381 269zM284 529q-21 21 -21 51q0 31 21 51.5t53 20.5q31 0 52 -20.5t21 -51.5t-20.5 -51.5
t-52.5 -20.5t-53 21zM378 540q15 15 15 40t-15.5 39.5t-40.5 14.5t-40.5 -14.5t-15.5 -39.5q0 -24 15 -39.5t41 -15.5t41 15z" />
    <glyph glyph-name="uni06AB.medi" unicode="&#x6ab;" horiz-adv-x="529" 
d="M543 12l-14 -12q-49 0 -83 15.5t-66.5 49t-93.5 108.5q-35 -84 -104.5 -128.5t-181.5 -44.5l-15 11l17 11q106 0 171.5 42.5t99.5 125.5l-211 262l4 21l382 269l-2 -25l-92 -65q30 -1 50.5 -21t20.5 -51q0 -30 -20.5 -51t-52.5 -21q-31 0 -52.5 21t-21.5 51q0 11 3 21
l-199 -140l166 -208q87 -109 126.5 -152t73.5 -61t83 -18zM392.5 620q-15.5 15 -40.5 15t-40.5 -15t-15.5 -40q0 -24 15.5 -39.5t40.5 -15.5q26 0 41 15t15 40t-15.5 40z" />
    <glyph glyph-name="uni06AB.fina" unicode="&#x6ab;" horiz-adv-x="961" 
d="M976 12l-15 -12q-49 0 -82.5 15.5t-66 49t-93.5 108.5q-25 -59 -67.5 -99t-121 -63t-201.5 -23q-135 0 -200.5 43t-65.5 129q0 74 35 147l16 -6q-31 -68 -31 -139q0 -76 60.5 -114t187.5 -38q118 0 193.5 21.5t116.5 60.5t65 97l-211 263l4 21l381 269l-1 -25l-92 -65
q30 -2 49.5 -22t19.5 -50t-20.5 -51t-52.5 -21t-53 21t-21 51q0 7 2 19l-196 -138l165 -208q88 -109 127.5 -152t73.5 -61t82 -18zM823 619.5q-16 15.5 -40 15.5q-25 0 -41 -15t-16 -40q0 -24 15.5 -39.5t41.5 -15.5t41 15.5t15 39.5t-16 39.5z" />
    <glyph glyph-name="uni06AC.init" unicode="&#x6ac;" horiz-adv-x="454" 
d="M390 718l-363 -256q124 -78 206 -170.5t95 -188.5q-18 -25 -63 -48.5t-113.5 -39t-151.5 -15.5l-15 11l17 11q115 0 191 25.5t115 59.5q-14 90 -95.5 178.5t-206.5 166.5l4 21l381 269zM0 732l22 27l26 -23l-22 -27z" />
    <glyph glyph-name="uni06AC.medi" unicode="&#x6ac;" horiz-adv-x="529" 
d="M543 12l-14 -12q-49 0 -83 15.5t-66.5 49t-93.5 108.5q-35 -84 -104.5 -128.5t-181.5 -44.5l-15 11l17 11q106 0 171.5 42.5t99.5 125.5l-211 262l4 21l382 269l-2 -25l-364 -256l166 -208q87 -109 126.5 -152t73.5 -61t83 -18zM51 732l22 27l26 -23l-22 -27z" />
    <glyph glyph-name="uni06AC.fina" unicode="&#x6ac;" horiz-adv-x="812" 
d="M827 12l-15 -12q-51 0 -81 29t-42 60q-63 -50 -150 -75.5t-210 -25.5q-135 0 -200.5 43t-65.5 129q0 74 35 147l16 -6q-31 -68 -31 -139q0 -76 60.5 -114t187.5 -38q120 0 205.5 26t147.5 75l-4 621l23 2v-608q0 -20 11 -44t36 -42t64 -18zM303 300q71 0 108 11t60 29
q0 17 -42 47.5t-92 47.5l5 18l151 87l-1 -19l-133 -76q49 -22 87 -50.5t38 -50.5q-6 -27 -54.5 -44t-122.5 -17zM656 868l22 27l26 -23l-22 -27z" />
    <glyph glyph-name="uni06AE.init" unicode="&#x6ae;" horiz-adv-x="454" 
d="M390 718l-363 -256q124 -78 206 -170.5t95 -188.5q-18 -25 -63 -48.5t-113.5 -39t-151.5 -15.5l-15 11l17 11q115 0 191 25.5t115 59.5q-14 90 -95.5 178.5t-206.5 166.5l4 21l381 269zM167 -141l19 23l22 -18l-19 -23zM62 -148l19 23l22 -18l-20 -23zM119 -233l20 23
l21 -18l-19 -23z" />
    <glyph glyph-name="uni06AE.medi" unicode="&#x6ae;" horiz-adv-x="529" 
d="M543 12l-14 -12q-49 0 -83 15.5t-66.5 49t-93.5 108.5q-35 -84 -104.5 -128.5t-181.5 -44.5l-15 11l17 11q106 0 171.5 42.5t99.5 125.5l-211 262l4 21l382 269l-2 -25l-364 -256l166 -208q87 -109 126.5 -152t73.5 -61t83 -18zM301 -141l19 23l22 -18l-19 -23zM196 -148
l19 23l22 -18l-20 -23zM253 -233l20 23l21 -18l-19 -23z" />
    <glyph glyph-name="uni06AE.fina" unicode="&#x6ae;" horiz-adv-x="812" 
d="M827 12l-15 -12q-51 0 -81 29t-42 60q-63 -50 -150 -75.5t-210 -25.5q-135 0 -200.5 43t-65.5 129q0 74 35 147l16 -6q-31 -68 -31 -139q0 -76 60.5 -114t187.5 -38q120 0 205.5 26t147.5 75l-4 621l23 2v-608q0 -20 11 -44t36 -42t64 -18zM303 300q71 0 108 11t60 29
q0 17 -42 47.5t-92 47.5l5 18l151 87l-1 -19l-133 -76q49 -22 87 -50.5t38 -50.5q-6 -27 -54.5 -44t-122.5 -17zM421 -141l19 23l22 -18l-19 -23zM316 -148l19 23l22 -18l-20 -23zM373 -233l20 23l21 -18l-19 -23z" />
    <glyph glyph-name="uni06B0.init" unicode="&#x6b0;" horiz-adv-x="454" 
d="M390 845l-377 -269l4 20l374 268zM10 473l381 269l-1 -24l-363 -256q124 -78 206 -170.5t95 -188.5q-18 -25 -63 -48.5t-113.5 -39t-151.5 -15.5l-15 11l17 11q115 0 191 25.5t115 59.5q-14 90 -95.5 178.5t-206.5 166.5zM292 537q-21 21 -21 51q0 31 21 51.5t53 20.5
q31 0 52 -20.5t21 -51.5t-20.5 -51.5t-52.5 -20.5t-53 21zM386 548q15 15 15 40t-15.5 39.5t-40.5 14.5t-40.5 -14.5t-15.5 -39.5q0 -24 15 -39.5t41 -15.5t41 15z" />
    <glyph glyph-name="uni06B0.medi" unicode="&#x6b0;" horiz-adv-x="529" 
d="M449 845l-376 -269l4 20l374 268zM543 12l-14 -12q-49 0 -83 15.5t-66.5 49t-93.5 108.5q-35 -84 -104.5 -128.5t-181.5 -44.5l-15 11l17 11q106 0 171.5 42.5t99.5 125.5l-211 262l4 21l382 269l-2 -25l-81 -57q29 -2 48.5 -22.5t19.5 -49.5q0 -30 -20.5 -51t-52.5 -21
t-53 21t-21 51q0 6 2 18l-206 -145l166 -208q87 -109 126.5 -152t73.5 -61t83 -18zM400 627q-16 15 -40 15q-25 0 -41 -15t-16 -39q0 -25 15.5 -40t41.5 -15t41 15t15 40q0 24 -16 39z" />
    <glyph glyph-name="uni06B0.fina" unicode="&#x6b0;" horiz-adv-x="961" 
d="M880 845l-377 -269l4 20l374 268zM976 12l-15 -12q-49 0 -82.5 15.5t-66 49t-93.5 108.5q-25 -59 -67.5 -99t-121 -63t-201.5 -23q-135 0 -200.5 43t-65.5 129q0 74 35 147l16 -6q-31 -68 -31 -139q0 -76 60.5 -114t187.5 -38q118 0 193.5 21.5t116.5 60.5t65 97
l-211 263l4 21l381 269l-1 -25l-93 -65q29 -3 47.5 -22.5t18.5 -49.5t-20.5 -51t-52.5 -21t-53 21t-21 51q0 6 2 16l-192 -135l165 -208q88 -109 127.5 -152t73.5 -61t82 -18zM758 632l-25 -18q-11 -14 -11 -34q0 -24 15.5 -39.5t41.5 -15.5t41 15.5t15 39.5t-16 39.5
t-40 15.5q-12 0 -21 -3z" />
    <glyph glyph-name="uni06B2.init" unicode="&#x6b2;" horiz-adv-x="454" 
d="M390 845l-377 -269l4 20l374 268zM10 473l381 269l-1 -24l-363 -256q124 -78 206 -170.5t95 -188.5q-18 -25 -63 -48.5t-113.5 -39t-151.5 -15.5l-15 11l17 11q115 0 191 25.5t115 59.5q-14 90 -95.5 178.5t-206.5 166.5zM167 -141l19 23l22 -18l-19 -23zM62 -148l19 23
l22 -18l-20 -23z" />
    <glyph glyph-name="uni06B2.medi" unicode="&#x6b2;" horiz-adv-x="529" 
d="M449 845l-376 -269l4 20l374 268zM543 12l-14 -12q-49 0 -83 15.5t-66.5 49t-93.5 108.5q-35 -84 -104.5 -128.5t-181.5 -44.5l-15 11l17 11q106 0 171.5 42.5t99.5 125.5l-211 262l4 21l382 269l-2 -25l-364 -256l166 -208q87 -109 126.5 -152t73.5 -61t83 -18z
M301 -141l19 23l22 -18l-19 -23zM196 -148l19 23l22 -18l-20 -23z" />
    <glyph glyph-name="uni06B2.fina" unicode="&#x6b2;" horiz-adv-x="961" 
d="M880 845l-377 -269l4 20l374 268zM976 12l-15 -12q-49 0 -82.5 15.5t-66 49t-93.5 108.5q-25 -59 -67.5 -99t-121 -63t-201.5 -23q-135 0 -200.5 43t-65.5 129q0 74 35 147l16 -6q-31 -68 -31 -139q0 -76 60.5 -114t187.5 -38q118 0 193.5 21.5t116.5 60.5t65 97
l-211 263l4 21l381 269l-1 -25l-364 -256l165 -208q88 -109 127.5 -152t73.5 -61t82 -18zM402 -141l19 23l22 -18l-19 -23zM297 -148l19 23l22 -18l-20 -23z" />
    <glyph glyph-name="uni06B4.init" unicode="&#x6b4;" horiz-adv-x="454" 
d="M390 845l-377 -269l4 20l374 268zM10 473l381 269l-1 -24l-363 -256q124 -78 206 -170.5t95 -188.5q-18 -25 -63 -48.5t-113.5 -39t-151.5 -15.5l-15 11l17 11q115 0 191 25.5t115 59.5q-14 90 -95.5 178.5t-206.5 166.5zM97 898l-19 -23l-22 18l19 23zM155 813l-20 -23
l-21 18l19 23zM49 806l-19 -23l-22 18l20 23z" />
    <glyph glyph-name="uni06B4.medi" unicode="&#x6b4;" horiz-adv-x="529" 
d="M449 845l-376 -269l4 20l374 268zM543 12l-14 -12q-49 0 -83 15.5t-66.5 49t-93.5 108.5q-35 -84 -104.5 -128.5t-181.5 -44.5l-15 11l17 11q106 0 171.5 42.5t99.5 125.5l-211 262l4 21l382 269l-2 -25l-364 -256l166 -208q87 -109 126.5 -152t73.5 -61t83 -18zM93 898
l-19 -23l-22 18l19 23zM151 813l-20 -23l-21 18l19 23zM45 806l-19 -23l-22 18l20 23z" />
    <glyph glyph-name="uni06B4.fina" unicode="&#x6b4;" horiz-adv-x="961" 
d="M880 845l-377 -269l4 20l374 268zM976 12l-15 -12q-49 0 -82.5 15.5t-66 49t-93.5 108.5q-25 -59 -67.5 -99t-121 -63t-201.5 -23q-135 0 -200.5 43t-65.5 129q0 74 35 147l16 -6q-31 -68 -31 -139q0 -76 60.5 -114t187.5 -38q118 0 193.5 21.5t116.5 60.5t65 97
l-211 263l4 21l381 269l-1 -25l-364 -256l165 -208q88 -109 127.5 -152t73.5 -61t82 -18zM554 898l-19 -23l-22 18l19 23zM612 813l-20 -23l-21 18l19 23zM506 806l-19 -23l-22 18l20 23z" />
    <glyph glyph-name="uni06B5.init" unicode="&#x6b5;" horiz-adv-x="214" 
d="M-15 11l17 11q31 0 57.5 14.5t41.5 42.5l-13 653l23 2l10 -656q-12 -33 -45 -55.5t-76 -22.5zM101 813l72 124l13 -6l-77 -137h-16l-77 137l13 6z" />
    <glyph glyph-name="uni06B5.medi" unicode="&#x6b5;" horiz-adv-x="236" 
d="M250 11l-15 -11q-43 0 -73.5 18t-43.5 51q-13 -32 -44 -50.5t-74 -18.5l-15 11l17 11q74 0 106 64l-2 647l22 2v-621q2 -45 30 -68.5t79 -23.5zM118 815l72 124l13 -6l-77 -137h-16l-77 137l13 6z" />
    <glyph glyph-name="uni06B5.fina" unicode="&#x6b5;" horiz-adv-x="697" 
d="M697 0q-41 0 -75.5 14.5t-59.5 36.5l1 -61q-21 -80 -90 -125.5t-176 -45.5q-121 0 -177.5 55.5t-56.5 150.5q0 87 36 173l16 -5q-32 -85 -32 -166q0 -87 51.5 -136.5t164.5 -49.5q100 0 162.5 40.5t82.5 112.5l-13 738l22 2l9 -657l1 1q26 -25 58 -40.5t78 -15.5l12 -11z
M543 813l72 124l13 -6l-77 -137h-16l-77 137l13 6z" />
    <glyph glyph-name="uni06B6.init" unicode="&#x6b6;" horiz-adv-x="214" 
d="M-15 11l17 11q31 0 57.5 14.5t41.5 42.5l-13 653l23 2l10 -656q-12 -33 -45 -55.5t-76 -22.5zM65 867l22 27l26 -23l-22 -27z" />
    <glyph glyph-name="uni06B6.medi" unicode="&#x6b6;" horiz-adv-x="236" 
d="M250 11l-15 -11q-43 0 -73.5 18t-43.5 51q-13 -32 -44 -50.5t-74 -18.5l-15 11l17 11q74 0 106 64l-2 647l22 2v-621q2 -45 30 -68.5t79 -23.5zM82 869l22 27l26 -23l-22 -27z" />
    <glyph glyph-name="uni06B6.fina" unicode="&#x6b6;" horiz-adv-x="697" 
d="M697 0q-41 0 -75.5 14.5t-59.5 36.5l1 -61q-21 -80 -90 -125.5t-176 -45.5q-121 0 -177.5 55.5t-56.5 150.5q0 87 36 173l16 -5q-32 -85 -32 -166q0 -87 51.5 -136.5t164.5 -49.5q100 0 162.5 40.5t82.5 112.5l-13 738l22 2l9 -657l1 1q26 -25 58 -40.5t78 -15.5l12 -11z
M507 867l22 27l26 -23l-22 -27z" />
    <glyph glyph-name="uni06B7.init" unicode="&#x6b7;" horiz-adv-x="214" 
d="M-15 11l17 11q31 0 57.5 14.5t41.5 42.5l-13 653l23 2l10 -656q-12 -33 -45 -55.5t-76 -22.5zM100 968l-19 -23l-22 18l19 23zM158 883l-20 -23l-21 18l19 23zM52 876l-19 -23l-22 18l20 23z" />
    <glyph glyph-name="uni06B7.medi" unicode="&#x6b7;" horiz-adv-x="236" 
d="M250 11l-15 -11q-43 0 -73.5 18t-43.5 51q-13 -32 -44 -50.5t-74 -18.5l-15 11l17 11q74 0 106 64l-2 647l22 2v-621q2 -45 30 -68.5t79 -23.5zM117 970l-19 -23l-22 18l19 23zM175 885l-20 -23l-21 18l19 23zM69 878l-19 -23l-22 18l20 23z" />
    <glyph glyph-name="uni06B7.fina" unicode="&#x6b7;" horiz-adv-x="697" 
d="M697 0q-41 0 -75.5 14.5t-59.5 36.5l1 -61q-21 -80 -90 -125.5t-176 -45.5q-121 0 -177.5 55.5t-56.5 150.5q0 87 36 173l16 -5q-32 -85 -32 -166q0 -87 51.5 -136.5t164.5 -49.5q100 0 162.5 40.5t82.5 112.5l-13 738l22 2l9 -657l1 1q26 -25 58 -40.5t78 -15.5l12 -11z
M542 968l-19 -23l-22 18l19 23zM600 883l-20 -23l-21 18l19 23zM494 876l-19 -23l-22 18l20 23z" />
    <glyph glyph-name="uni06B8.init" unicode="&#x6b8;" horiz-adv-x="214" 
d="M-15 11l17 11q31 0 57.5 14.5t41.5 42.5l-13 653l23 2l10 -656q-12 -33 -45 -55.5t-76 -22.5zM142 -141l19 23l22 -18l-19 -23zM37 -148l19 23l22 -18l-20 -23zM94 -233l20 23l21 -18l-19 -23z" />
    <glyph glyph-name="uni06B8.medi" unicode="&#x6b8;" horiz-adv-x="236" 
d="M250 11l-15 -11q-43 0 -73.5 18t-43.5 51q-13 -32 -44 -50.5t-74 -18.5l-15 11l17 11q74 0 106 64l-2 647l22 2v-621q2 -45 30 -68.5t79 -23.5zM149 -141l19 23l22 -18l-19 -23zM44 -148l19 23l22 -18l-20 -23zM101 -233l20 23l21 -18l-19 -23z" />
    <glyph glyph-name="uni06B8.fina" unicode="&#x6b8;" horiz-adv-x="697" 
d="M697 0q-41 0 -75.5 14.5t-59.5 36.5l1 -61q-21 -80 -90 -125.5t-176 -45.5q-121 0 -177.5 55.5t-56.5 150.5q0 87 36 173l16 -5q-32 -85 -32 -166q0 -87 51.5 -136.5t164.5 -49.5q100 0 162.5 40.5t82.5 112.5l-13 738l22 2l9 -657l1 1q26 -25 58 -40.5t78 -15.5l12 -11z
M327 -319l19 23l22 -18l-19 -23zM222 -326l19 23l22 -18l-20 -23zM279 -411l20 23l21 -18l-19 -23z" />
    <glyph glyph-name="uni06B9.init" unicode="&#x6b9;" horiz-adv-x="251" 
d="M-15 12l17 10q46 0 87 16t66 46q1 138 -52 285l21 7q52 -150 51 -286q-7 -27 -36 -47.5t-67.5 -31.5t-71.5 -11zM80 -131l21 26l27 -23l-22 -26zM75 520l22 27l26 -23l-22 -27z" />
    <glyph glyph-name="uni06B9.medi" unicode="&#x6b9;" horiz-adv-x="289" 
d="M304 11l-15 -11q-51 0 -90 19t-53 44q-15 -29 -60 -46t-87 -17l-14 10l16 12q42 0 82 17.5t52 42.5l-20 224h22l18 -223q13 -24 49 -42.5t86 -18.5zM121 -131l21 26l27 -23l-22 -26zM89 443l22 27l26 -23l-22 -27z" />
    <glyph glyph-name="uni06B9.fina" unicode="&#x6b9;" horiz-adv-x="671" 
d="M686 11l-15 -11q-26 0 -50.5 9.5t-40.5 29.5q4 -38 4 -88q-3 -43 -40.5 -86t-102.5 -71.5t-144 -28.5q-121 0 -177.5 55.5t-56.5 150.5q0 87 36 173l16 -6q-32 -83 -32 -166q0 -86 51.5 -135.5t164.5 -49.5q68 0 123 22t91.5 55.5t52.5 68.5q2 71 -8.5 127.5t-25.5 95.5
t-39 90q-4 9 -7.5 16t-5.5 12l22 9q52 -115 71 -195q8 -33 34 -49.5t66 -16.5zM280 -354l21 26l27 -23l-22 -26zM277 372l22 27l26 -23l-22 -27z" />
    <glyph glyph-name="uni06BC.init" unicode="&#x6bc;" horiz-adv-x="251" 
d="M102 497l-27 23l22 27l26 -23zM166.5 8q17.5 -20 17.5 -48q0 -31 -20.5 -51.5t-52.5 -20.5t-53 21t-21 51q0 27 17 46q-28 -6 -54 -6l-15 12l17 10q46 0 87 16t66 46q1 138 -52 285l21 7q52 -150 51 -286q-8 -33 -53 -59q27 -3 44.5 -23zM152 -80q15 15 15 40t-15.5 39.5
t-40.5 14.5t-40.5 -15t-15.5 -39t15 -39.5t41 -15.5t41 15z" />
    <glyph glyph-name="uni06BC.medi" unicode="&#x6bc;" horiz-adv-x="289" 
d="M116 420l-26 23l21 27l26 -23zM122 37q27 -5 43.5 -24.5t16.5 -46.5q0 -31 -20.5 -51.5t-52.5 -20.5t-53 21t-21 51q0 22 12 39q-28 -5 -48 -5l-14 10l16 12q42 0 82 17.5t52 42.5l-20 224h22l18 -223q13 -24 49 -42.5t86 -18.5l14 -11l-15 -11q-51 0 -90 19t-53 44
q-6 -11 -24 -26zM149.5 5.5q-15.5 14.5 -40.5 14.5t-40.5 -15t-15.5 -39q0 -25 15.5 -40t40.5 -15q27 0 41.5 15t14.5 40t-15.5 39.5z" />
    <glyph glyph-name="uni06BC.fina" unicode="&#x6bc;" horiz-adv-x="671" 
d="M303 349l-26 23l21 27l26 -23zM686 11l-15 -11q-26 0 -50.5 9.5t-40.5 29.5q4 -38 4 -88q-3 -39 -34.5 -78.5t-86.5 -68.5t-124 -37q23 -21 23 -53q0 -31 -20.5 -51.5t-52.5 -20.5t-53 21t-21 51q0 16 6.5 30.5t18.5 24.5q-92 13 -134.5 66t-42.5 136q0 87 36 173l16 -6
q-32 -83 -32 -166q0 -86 51.5 -135.5t164.5 -49.5q68 0 123 22t91.5 55.5t52.5 68.5q2 71 -8.5 127.5t-25.5 95.5t-39 90q-4 9 -7.5 16t-5.5 12l22 9q52 -115 71 -195q8 -33 34 -49.5t66 -16.5zM335.5 -253.5q-9.5 13.5 -26.5 18.5h-12q-17 0 -26 1q-18 -5 -28 -19t-10 -33
q0 -24 15.5 -39.5t40.5 -15.5q26 0 41 15t15 40q0 19 -9.5 32.5z" />
    <glyph glyph-name="uni06BD.init" unicode="&#x6bd;" horiz-adv-x="251" 
d="M-15 12l17 10q46 0 87 16t66 46q1 138 -52 285l21 7q52 -150 51 -286q-7 -27 -36 -47.5t-67.5 -31.5t-71.5 -11zM110 621l-19 -23l-22 18l19 23zM168 536l-20 -23l-21 18l19 23zM62 529l-19 -23l-22 18l20 23z" />
    <glyph glyph-name="uni06BD.medi" unicode="&#x6bd;" horiz-adv-x="289" 
d="M304 11l-15 -11q-51 0 -90 19t-53 44q-15 -29 -60 -46t-87 -17l-14 10l16 12q42 0 82 17.5t52 42.5l-20 224h22l18 -223q13 -24 49 -42.5t86 -18.5zM125 544l-19 -23l-22 18l19 23zM183 459l-20 -23l-21 18l19 23zM77 452l-19 -23l-22 18l20 23z" />
    <glyph glyph-name="uni06BD.fina" unicode="&#x6bd;" horiz-adv-x="671" 
d="M686 11l-15 -11q-26 0 -50.5 9.5t-40.5 29.5q4 -38 4 -88q-3 -43 -40.5 -86t-102.5 -71.5t-144 -28.5q-121 0 -177.5 55.5t-56.5 150.5q0 87 36 173l16 -6q-32 -83 -32 -166q0 -86 51.5 -135.5t164.5 -49.5q68 0 123 22t91.5 55.5t52.5 68.5q2 71 -8.5 127.5t-25.5 95.5
t-39 90q-4 9 -7.5 16t-5.5 12l22 9q52 -115 71 -195q8 -33 34 -49.5t66 -16.5zM312 473l-19 -23l-22 18l19 23zM370 388l-20 -23l-21 18l19 23zM264 381l-19 -23l-22 18l20 23z" />
    <glyph glyph-name="uni06BF.init" unicode="&#x6bf;" horiz-adv-x="676" 
d="M323 390.5q49 -27.5 137 -91.5q106 -77 163 -112l-4 -17l-19 -3q-71 -9 -135.5 -29.5t-151.5 -56.5q-102 -41 -170 -61t-143 -20l-15 12l17 10q73 0 140.5 19.5t166.5 58.5q91 36 151.5 55.5t130.5 29.5q-62 41 -132 93q-87 64 -136 91t-100 27q-28 0 -52 -8.5t-50 -26.5
l-12 18q29 21 56 30t59 9q50 0 99 -27.5zM324 -141l19 23l22 -18l-19 -23zM219 -148l19 23l22 -18l-20 -23zM276 -233l20 23l21 -18l-19 -23zM179 542l22 27l26 -23l-22 -27z" />
    <glyph glyph-name="uni06BF.medi" unicode="&#x6bf;" horiz-adv-x="764" 
d="M778 11l-14 -11q-96 0 -164.5 47t-94.5 148q-51 -11 -96.5 -32.5t-114.5 -60.5q-62 -34 -103.5 -54t-90 -34t-100.5 -14l-15 11l17 11q70 0 131.5 24t150.5 72q83 45 145 70.5t134 32.5q-49 21 -88 43t-94 56q-64 41 -102 58.5t-79 17.5q-28 0 -51.5 -8.5t-50.5 -26.5
l-10 19q28 20 54.5 29t58.5 9q43 0 82.5 -19t107.5 -62q60 -38 104.5 -63.5t101.5 -49.5l-3 -19l-28 -1q-23 -2 -44 -6q50 -176 244 -176zM403 -91l19 23l22 -18l-19 -23zM298 -98l19 23l22 -18l-20 -23zM355 -183l20 23l21 -18l-19 -23zM181 546l22 27l26 -23l-22 -27z" />
    <glyph glyph-name="uni06BF.fina" unicode="&#x6bf;" horiz-adv-x="701" 
d="M276.5 130.5q-84.5 -48.5 -132 -116t-47.5 -145.5q0 -84 53.5 -137t158.5 -53q65 0 124 11.5t106 30.5l8 -20q-48 -20 -109.5 -32t-130.5 -12q-114 0 -172 59.5t-58 151.5q0 93 62.5 171.5t170.5 129.5t242 66q-52 30 -103 63q-85 52 -132 74.5t-94 22.5q-28 0 -56.5 -9
t-52.5 -27l-11 19q52 39 120 39q48 0 95.5 -23t132.5 -76q10 -6 51 -32t82 -48l-4 -19l-13 -1q-42 -4 -81 -12q16 -102 70 -143t147 -41l12 -11l-14 -11q-99 0 -157.5 47t-74.5 156q-108 -24 -192.5 -72.5zM388 -32l19 24l22 -18l-19 -24zM283 -39l19 24l22 -18l-20 -24z
M340 -124l20 24l21 -18l-19 -24zM186 542l22 27l26 -23l-22 -27z" />
    <glyph glyph-name="uni06C2.fina" unicode="&#x6c2;" horiz-adv-x="531" 
d="M29 -24q39 128 84.5 187.5t103.5 59.5q43 0 68.5 -21t56.5 -66q26 -36 47.5 -59t57 -39t86.5 -16l12 -11l-14 -11q-56 0 -93.5 17t-59.5 40.5t-48 61.5q-28 42 -51 62t-62 20q-52 0 -91.5 -57.5t-74.5 -172.5zM308 339v-16l-181 -29v16l75 12q-28 16 -43.5 37t-15.5 44
q0 30 22.5 50t63.5 20q29 0 55 -13l-4 -15q-26 13 -51 13q-35 0 -52.5 -16t-17.5 -39q0 -44 62 -78z" />
    <glyph glyph-name="uni06C3.fina" unicode="&#x6c3;" horiz-adv-x="531" 
d="M29 -24q39 128 84.5 187.5t103.5 59.5q43 0 68.5 -21t56.5 -66q26 -36 47.5 -59t57 -39t86.5 -16l12 -11l-14 -11q-56 0 -93.5 17t-59.5 40.5t-48 61.5q-28 42 -51 62t-62 20q-52 0 -91.5 -57.5t-74.5 -172.5zM221 346l19 24l22 -18l-19 -24zM116 339l19 24l22 -18
l-20 -24z" />
    <glyph glyph-name="uni06C4.fina" unicode="&#x6c4;" horiz-adv-x="509" 
d="M509 0h-101q-18 -94 -100.5 -156.5t-236.5 -84.5l-8 22q42 6 79 15q-24 6 -38.5 25t-14.5 44q0 30 21.5 51t52.5 21t52 -20.5t21 -51.5q0 -25 -14 -44q139 57 165 179h-84q-101 0 -159 42.5t-58 111.5q0 46 23 88t59.5 67.5t74.5 25.5q42 0 81 -33t64 -96t25 -149
q0 -13 -2 -35h100l13 -11zM393 49q0 84 -22 144t-56.5 90t-72.5 30q-32 0 -64 -22.5t-52 -58.5t-20 -76q0 -62 52.5 -98t149.5 -36h83q2 18 2 27zM122 -175q15 -15 41 -15q27 0 41.5 15t14.5 40q0 24 -15.5 39t-40.5 15t-40.5 -15t-15.5 -39q0 -25 15 -40z" />
    <glyph glyph-name="uni06CA.fina" unicode="&#x6ca;" horiz-adv-x="509" 
d="M509 0h-101q-18 -94 -100.5 -156.5t-236.5 -84.5l-8 22q286 39 324 219h-84q-101 0 -159 42.5t-58 111.5q0 46 23 88t59.5 67.5t74.5 25.5q42 0 81 -33t64 -96t25 -149q0 -13 -2 -35h100l13 -11zM393 49q0 84 -22 144t-56.5 90t-72.5 30q-32 0 -64 -22.5t-52 -58.5
t-20 -76q0 -62 52.5 -98t149.5 -36h83q2 18 2 27zM254 466l19 24l22 -18l-19 -24zM149 459l19 24l22 -18l-20 -24z" />
    <glyph glyph-name="uni06CD.fina" unicode="&#x6cd;" horiz-adv-x="718" 
d="M718 0q-33 0 -66 8.5t-72 24.5q21 -17 31.5 -41t10.5 -63q-5 -18 -45 -46.5t-108 -49.5t-154 -21q-121 0 -177.5 55.5t-56.5 150.5q0 71 23 138q-41 -29 -101 -41l-2 12q32 8 63.5 24.5t53.5 39.5l15 -5q-32 -89 -32 -166q0 -87 51.5 -136.5t164.5 -49.5
q111 0 182.5 30.5t103.5 61.5q0 44 -13.5 69.5t-53.5 48t-127 51.5l14 18q35 -13 123 -47q62 -25 96 -34.5t78 -9.5l12 -11z" />
    <glyph glyph-name="uni06CE.init" unicode="&#x6ce;" horiz-adv-x="251" 
d="M-15 12l17 10q46 0 87 16t66 46q1 138 -52 285l21 7q52 -150 51 -286q-7 -27 -36 -47.5t-67.5 -31.5t-71.5 -11zM142 -141l19 23l22 -18l-19 -23zM37 -148l19 23l22 -18l-20 -23zM111 466l72 124l13 -6l-77 -137h-16l-77 137l13 6z" />
    <glyph glyph-name="uni06CE.medi" unicode="&#x6ce;" horiz-adv-x="289" 
d="M304 11l-15 -11q-51 0 -90 19t-53 44q-15 -29 -60 -46t-87 -17l-14 10l16 12q42 0 82 17.5t52 42.5l-20 224h22l18 -223q13 -24 49 -42.5t86 -18.5zM183 -141l19 23l22 -18l-19 -23zM78 -148l19 23l22 -18l-20 -23zM126 389l72 124l13 -6l-77 -137h-16l-77 137l13 6z" />
    <glyph glyph-name="uni06CE.fina" unicode="&#x6ce;" horiz-adv-x="699" 
d="M699 0q-33 0 -66 8.5t-72 24.5q21 -17 32 -41.5t11 -62.5q-5 -18 -45 -46.5t-108 -49.5t-154 -21q-121 0 -177.5 55.5t-56.5 150.5q0 87 36 173l16 -5q-32 -85 -32 -166q0 -87 51.5 -136.5t164.5 -49.5q110 0 182 31t104 61q0 44 -13.5 69.5t-53.5 48t-127 51.5l13 18
q47 -16 125 -47q62 -25 95 -34.5t77 -9.5l13 -11zM133 311l72 124l13 -6l-77 -137h-16l-77 137l13 6z" />
    <glyph glyph-name="uni06CF.fina" unicode="&#x6cf;" horiz-adv-x="509" 
d="M509 0h-101q-18 -94 -100.5 -156.5t-236.5 -84.5l-8 22q286 39 324 219h-84q-101 0 -159 42.5t-58 111.5q0 46 23 88t59.5 67.5t74.5 25.5q42 0 81 -33t64 -96t25 -149q0 -13 -2 -35h100l13 -11zM393 49q0 84 -22 144t-56.5 90t-72.5 30q-32 0 -64 -22.5t-52 -58.5
t-20 -76q0 -62 52.5 -98t149.5 -36h83q2 18 2 27zM214 468l22 27l26 -23l-22 -27z" />
    <glyph glyph-name="uni06D1.init" unicode="&#x6d1;" horiz-adv-x="251" 
d="M-15 12l17 10q46 0 87 16t66 46q1 138 -52 285l21 7q52 -150 51 -286q-7 -27 -36 -47.5t-67.5 -31.5t-71.5 -11zM142 -141l19 23l22 -18l-19 -23zM37 -148l19 23l22 -18l-20 -23zM94 -233l20 23l21 -18l-19 -23z" />
    <glyph glyph-name="uni06D1.medi" unicode="&#x6d1;" horiz-adv-x="289" 
d="M304 11l-15 -11q-51 0 -90 19t-53 44q-15 -29 -60 -46t-87 -17l-14 10l16 12q42 0 82 17.5t52 42.5l-20 224h22l18 -223q13 -24 49 -42.5t86 -18.5zM183 -141l19 23l22 -18l-19 -23zM78 -148l19 23l22 -18l-20 -23zM135 -233l20 23l21 -18l-19 -23z" />
    <glyph glyph-name="uni06D1.fina" unicode="&#x6d1;" horiz-adv-x="699" 
d="M699 0q-33 0 -66 8.5t-72 24.5q21 -17 32 -41.5t11 -62.5q-5 -18 -45 -46.5t-108 -49.5t-154 -21q-121 0 -177.5 55.5t-56.5 150.5q0 87 36 173l16 -5q-32 -85 -32 -166q0 -87 51.5 -136.5t164.5 -49.5q110 0 182 31t104 61q0 44 -13.5 69.5t-53.5 48t-127 51.5l13 18
q47 -16 125 -47q62 -25 95 -34.5t77 -9.5l13 -11zM332 -322l19 23l22 -18l-19 -23zM227 -329l19 23l22 -18l-20 -23zM284 -414l20 23l21 -18l-19 -23z" />
    <glyph glyph-name="uni06D5.fina" unicode="&#x6d5;" horiz-adv-x="482" 
d="M496 11l-14 -11h-7q-56 0 -90.5 26t-42.5 74q-30 -26 -74.5 -43t-93.5 -17q-37 0 -70.5 13t-53.5 33.5t-21 40.5q0 88 85 151t217 91l-4 112l21 3l10 -347q2 -59 30.5 -87t88.5 -28h7zM93 81q34 -20 83 -20q92 0 164 59l-8 228q-126 -26 -204.5 -83t-79.5 -139
q11 -25 45 -45z" />
    <glyph glyph-name="uni06EE.fina" unicode="&#x6ee;" horiz-adv-x="505" 
d="M520 11l-15 -11q-48 0 -76 17t-43 51q-77 -80 -204 -80q-44 0 -80 8t-73 22l8 21q36 -14 70 -21t76 -7q58 0 107.5 19t86.5 55l-153 380l23 10l142 -369q18 -47 43.5 -65.5t74.5 -18.5zM82 576l77 137h16l77 -137l-13 -6l-72 124l-72 -124z" />
    <glyph glyph-name="uni06FA.init" unicode="&#x6fa;" horiz-adv-x="729" 
d="M637 241q17 -68 17 -163q-4 -32 -43.5 -55t-86.5 -23q-46 0 -79.5 18t-48.5 43q-10 -28 -45.5 -44.5t-74.5 -16.5q-47 0 -80.5 18.5t-46.5 43.5q-10 -29 -50.5 -45.5t-99.5 -16.5l-14 10l16 12q61 0 95.5 16.5t41.5 43.5l-20 224h22l17 -223q14 -25 45 -43t76 -18
q41 0 71 17.5t36 42.5l-20 224h22l18 -223q13 -25 44 -43t76 -18q34 0 65 14.5t45 34.5q-1 94 -19 159.5t-50 135.5l22 9q32 -66 49 -134zM384 544l-19 -23l-22 18l19 23zM442 459l-20 -23l-21 18l19 23zM336 452l-19 -23l-22 18l20 23zM377 -131l21 26l27 -23l-22 -26z" />
    <glyph glyph-name="uni06FA.medi" unicode="&#x6fa;" horiz-adv-x="812" 
d="M812 0q-98 0 -166 56q-17 -26 -49.5 -41t-72.5 -15q-46 0 -79.5 18t-48.5 43q-10 -28 -45.5 -44.5t-74.5 -16.5q-47 0 -80.5 18.5t-46.5 43.5q-10 -29 -50.5 -45.5t-99.5 -16.5l-14 10l16 12q61 0 95.5 16.5t41.5 43.5l-20 224h22l17 -223q14 -25 45 -43t76 -18
q41 0 71 17.5t36 42.5l-20 224h22l18 -223q13 -25 44 -43t76 -18q35 0 65.5 14.5t44.5 34.5q-5 63 -16.5 131t-31.5 167l23 6q34 -170 44 -299q32 -26 66.5 -40t93.5 -14l12 -11zM376 544l-19 -23l-22 18l19 23zM434 459l-20 -23l-21 18l19 23zM328 452l-19 -23l-22 18
l20 23zM370 -131l21 26l27 -23l-22 -26z" />
    <glyph glyph-name="uni06FA.fina" unicode="&#x6fa;" horiz-adv-x="1206" 
d="M1206 0q-99 0 -165 56q-18 -26 -49.5 -41t-72.5 -15q-47 0 -81 18.5t-47 43.5q-9 -28 -44.5 -45t-75.5 -17q-26 0 -50.5 9.5t-40.5 29.5q4 -38 4 -88q-3 -43 -40.5 -86t-102.5 -71.5t-144 -28.5q-121 0 -177.5 55.5t-56.5 150.5q0 87 36 173l16 -6q-32 -83 -32 -166
q0 -86 51.5 -135.5t164.5 -49.5q68 0 123 22t91.5 55.5t52.5 68.5q2 71 -8.5 127.5t-25.5 95.5t-39 90q-4 9 -7.5 16t-5.5 12l22 9q52 -115 71 -195q8 -33 34 -49.5t66 -16.5q41 0 70.5 17.5t36.5 42.5l-20 224h22l17 -223q14 -25 45 -43t76 -18q35 0 65.5 14.5t44.5 34.5
q-10 107 -48 298l22 6q35 -167 44 -299q33 -26 67.5 -40t93.5 -14l12 -11zM770 544l-19 -23l-22 18l19 23zM828 459l-20 -23l-21 18l19 23zM722 452l-19 -23l-22 18l20 23zM764 -131l21 26l27 -23l-22 -26z" />
    <glyph glyph-name="uni06FB.init" unicode="&#x6fb;" horiz-adv-x="894" 
d="M582 465l-26 23l21 27l26 -23zM818 128q-16 -62 -104 -95t-273 -33h-160q-50 0 -88 19t-51 45q-15 -29 -58 -46.5t-85 -17.5l-14 10l16 12q42 0 80.5 18.5t49.5 42.5l-17 282h22l15 -277q11 -25 43.5 -44.5t78.5 -21.5q43 102 105 182.5t134.5 126.5t144.5 46
q167 0 161 -249zM797 148q0 106 -37 156t-101 50q-103 0 -201 -90.5t-166 -241.5h149q162 0 238 21t117 62q1 15 1 43zM447 -105l26 -23l-21 -26l-26 23z" />
    <glyph glyph-name="uni06FB.medi" unicode="&#x6fb;" horiz-adv-x="930" 
d="M582 465l-26 23l21 27l26 -23zM945 11l-15 -11q-46 0 -79 24t-52 65q-33 -43 -119 -66t-239 -23h-160q-50 0 -88 19t-51 45q-15 -29 -58 -46.5t-85 -17.5l-14 10l16 12q42 0 80.5 18.5t49.5 42.5l-17 282h22l15 -277q11 -25 43.5 -44.5t78.5 -21.5q43 102 105 182.5
t134.5 126.5t144.5 46q167 0 161 -249l-6 -18q13 -37 45.5 -62.5t74.5 -25.5zM679 43q76 21 117 62q1 15 1 43q0 106 -37 156t-101 50q-103 0 -201 -90.5t-166 -241.5h149q162 0 238 21zM447 -105l26 -23l-21 -26l-26 23z" />
    <glyph glyph-name="uni06FB.fina" unicode="&#x6fb;" horiz-adv-x="1320" 
d="M972 465l-26 23l21 27l26 -23zM1335 11l-15 -11q-46 0 -79 24t-52 65q-33 -43 -119 -66t-239 -23h-160q-26 0 -50.5 9.5t-40.5 29.5q4 -38 4 -88q-3 -43 -40.5 -86t-102.5 -71.5t-144 -28.5q-121 0 -177.5 55.5t-56.5 150.5q0 87 36 173l16 -6q-32 -83 -32 -166
q0 -86 51.5 -135.5t164.5 -49.5q68 0 123 22t91.5 55.5t52.5 68.5q2 71 -8.5 127.5t-25.5 95.5t-39 90q-4 9 -7.5 16t-5.5 12l22 9q52 -115 71 -195q14 -61 90 -66q43 102 105 182.5t134.5 126.5t144.5 46q167 0 161 -249l-6 -18q13 -37 45.5 -62.5t74.5 -25.5zM1069 43
q76 21 117 62q1 15 1 43q0 106 -37 156t-101 50q-103 0 -201 -90.5t-166 -241.5h149q162 0 238 21zM837 -105l26 -23l-21 -26l-26 23z" />
    <glyph glyph-name="uni06FC.init" unicode="&#x6fc;" horiz-adv-x="523" 
d="M497 51q-129 -31 -212 -41t-213 -10h-72l-15 11l17 11h65q104 0 162 5q-77 42 -117 96.5t-40 118.5q0 68 44 111.5t130 43.5q31 0 66.5 -8.5t64.5 -25.5l-6 -21q-29 16 -62.5 24.5t-62.5 8.5q-77 0 -115 -37t-38 -96q0 -125 168 -213q50 5 100.5 15t132.5 29zM209 521
l22 27l26 -23l-22 -27zM229 -131l21 26l27 -23l-22 -26z" />
    <glyph glyph-name="uni06FC.medi" unicode="&#x6fc;" horiz-adv-x="524" 
d="M539 10l-15 -10h-16q-124 0 -230 91q-2 2 -3 2q-65 -42 -135.5 -67.5t-121.5 -25.5h-18l-15 10l17 12h12q50 0 116 24t128 63q-20 19 -58 60q-6 6 -32 33.5t-56 54.5t-63 52l2 22q112 48 217 48q48 0 88.5 -9t65 -22t29.5 -26q0 -56 -43 -112t-114 -104
q51 -43 100.5 -63.5t117.5 -20.5h14zM144.5 254.5q31.5 -29.5 67.5 -68.5q31 -32 65 -65q70 46 113 99.5t43 102.5q-25 14 -70 24t-95 10q-103 0 -197 -41q42 -32 73.5 -61.5zM232 509l22 27l26 -23l-22 -27zM259 -131l21 26l27 -23l-22 -26z" />
    <glyph glyph-name="uni06FC.fina" unicode="&#x6fc;" horiz-adv-x="545" 
d="M124 -16.5q-51 -59.5 -51 -134.5q0 -46 24 -84.5t74.5 -62t127.5 -23.5q65 0 124.5 11.5t106.5 30.5l8 -20q-48 -20 -110 -32t-131 -12q-83 0 -138 26.5t-80.5 70t-25.5 94.5q0 81 53 144.5t155 128.5q-27 27 -41 43q-40 43 -74 75t-83 70l2 22q56 23 106 35.5t109 12.5
q49 0 90 -9t65.5 -22t28.5 -26q0 -57 -41.5 -102t-128.5 -101q66 -55 112.5 -76t117.5 -21h23l13 -11l-15 -11h-24q-69 0 -123 25t-122 82q-101 -64 -152 -123.5zM157 254.5q31 -29.5 73 -72.5q25 -27 49 -49q83 52 124.5 95t43.5 95q-18 12 -66 23t-101 11q-95 0 -195 -41
q41 -32 72 -61.5zM246 511l22 27l26 -23l-22 -27zM297 -115l21 26l27 -23l-22 -26z" />
    <glyph glyph-name="uni06FF.init" unicode="&#x6ff;" horiz-adv-x="628" 
d="M553 63q-3 -18 -24 -35.5t-55 -28.5t-75 -11q-48 0 -96 12t-89 35q-84 -35 -198 -35h-16l-15 11l17 11h11q101 0 177 27q-55 35 -87.5 85t-32.5 108q0 45 19.5 82.5t54.5 59.5t78 22q8 0 20 -2q-55 35 -130 74l11 20q430 -228 430 -435zM123.5 138q33.5 -47 90.5 -79
q66 28 99.5 75.5t33.5 103.5q0 63 -35.5 107t-89.5 44q-58 0 -95 -42.5t-37 -105.5q0 -56 33.5 -103zM482 24q36 14 54 37q-2 68 -54 138.5t-145 139.5q30 -44 30 -101t-33 -107.5t-96 -83.5q76 -37 161 -37q47 0 83 14zM270 525l77 137h16l77 -137l-13 -6l-72 124l-72 -124
z" />
    <glyph glyph-name="uni06FF.medi" unicode="&#x6ff;" horiz-adv-x="481" 
d="M481 0h-172q53 -19 84 -60.5t31 -108.5q-2 -18 -17.5 -36t-43.5 -29.5t-63 -11.5q-56 0 -99.5 31.5t-68 88t-25.5 126.5h-107l-15 11l17 11h105q1 77 32 150t79 118.5t99 45.5q44 0 73.5 -37t29.5 -97q0 -56 -36.5 -107t-97.5 -73h197l13 -11zM227 272.5
q-43 -41.5 -71 -109.5t-30 -141h81q56 0 99.5 25.5t68 66.5t24.5 86q0 50 -24.5 82t-60.5 32q-44 0 -87 -41.5zM378.5 -77q-25.5 39 -66.5 58t-89 19h-26h-71q2 -101 48.5 -162.5t123.5 -61.5q44 0 72 16.5t34 33.5q0 58 -25.5 97zM231 403l77 137h16l77 -137l-13 -6
l-72 124l-72 -124z" />
    <glyph glyph-name="uni06FF.fina" unicode="&#x6ff;" horiz-adv-x="554" 
d="M554 0h-172q53 -20 84 -61t31 -108q-2 -18 -17.5 -36t-43.5 -29.5t-63 -11.5q-56 0 -99.5 31.5t-68 88t-25.5 126.5q-42 1 -75 6.5t-62 19.5l10 19q27 -13 56.5 -17.5t70.5 -5.5q1 77 32 150t79 118.5t99 45.5q44 0 73.5 -37t29.5 -97q0 -56 -36.5 -107t-97.5 -73h197
l13 -11zM300 272.5q-43 -41.5 -71 -109.5t-30 -141h81q56 0 99.5 25.5t68 66.5t24.5 86q0 50 -24.5 82t-60.5 32q-44 0 -87 -41.5zM451.5 -77q-25.5 39 -66.5 58t-89 19h-97q2 -101 48.5 -162.5t123.5 -61.5q44 0 72 16.5t34 33.5q0 58 -25.5 97zM304 403l77 137h16l77 -137
l-13 -6l-72 124l-72 -124z" />
    <glyph glyph-name="uniFB51" unicode="&#x671;" horiz-adv-x="221" arabic-form="final" 
d="M91 701l22 2v-570q0 -58 28 -84.5t82 -26.5l13 -11l-15 -11q-61 0 -93.5 32.5t-33.5 99.5zM209 884q16 -16 16 -41q0 -31 -27 -48.5t-72 -17.5q-34 0 -94 20l-17 -44l-14 5l20 58l33 -10q47 94 109 94q30 0 46 -16zM187.5 806.5q21.5 12.5 21.5 35.5q0 18 -11 30t-36 12
q-52 0 -96 -81q35 -9 63 -9q37 0 58.5 12.5z" />
    <glyph glyph-name="uniFB53" unicode="&#x67b;" horiz-adv-x="860" arabic-form="final" 
d="M875 12l-15 -12q-62 0 -95 28.5t-46 60.5q-136 -101 -390 -101q-135 0 -200.5 43t-65.5 129q0 74 35 147l16 -6q-31 -68 -31 -139q0 -76 60.5 -114t187.5 -38q125 0 222 26t158 73l-30 197h22l25 -180q5 -37 35.5 -70.5t99.5 -33.5zM328 -133l19 24l22 -18l-19 -24z
M343 -235l19 23l22 -18l-19 -23z" />
    <glyph glyph-name="uniFB54" unicode="&#x67b;" horiz-adv-x="251" arabic-form="initial" 
d="M-15 12l17 10q46 0 87 16t66 46q1 138 -52 285l21 7q52 -150 51 -286q-7 -27 -36 -47.5t-67.5 -31.5t-71.5 -11zM87 -133l19 24l22 -18l-19 -24zM102 -235l19 23l22 -18l-19 -23z" />
    <glyph glyph-name="uniFB55" unicode="&#x67b;" horiz-adv-x="289" arabic-form="medial" 
d="M304 11l-15 -11q-51 0 -90 19t-53 44q-15 -29 -60 -46t-87 -17l-14 10l16 12q42 0 82 17.5t52 42.5l-20 224h22l18 -223q13 -24 49 -42.5t86 -18.5zM127 -133l19 24l22 -18l-19 -24zM142 -235l19 23l22 -18l-19 -23z" />
    <glyph glyph-name="uniFB57" unicode="&#x67e;" horiz-adv-x="860" arabic-form="final" 
d="M875 12l-15 -12q-62 0 -95 28.5t-46 60.5q-136 -101 -390 -101q-135 0 -200.5 43t-65.5 129q0 74 35 147l16 -6q-31 -68 -31 -139q0 -76 60.5 -114t187.5 -38q125 0 222 26t158 73l-30 197h22l25 -180q5 -37 35.5 -70.5t99.5 -33.5zM384 -141l19 23l22 -18l-19 -23z
M279 -148l19 23l22 -18l-20 -23zM336 -233l20 23l21 -18l-19 -23z" />
    <glyph glyph-name="uniFB58" unicode="&#x67e;" horiz-adv-x="251" arabic-form="initial" 
d="M-15 12l17 10q46 0 87 16t66 46q1 138 -52 285l21 7q52 -150 51 -286q-7 -27 -36 -47.5t-67.5 -31.5t-71.5 -11zM142 -141l19 23l22 -18l-19 -23zM37 -148l19 23l22 -18l-20 -23zM94 -233l20 23l21 -18l-19 -23z" />
    <glyph glyph-name="uniFB59" unicode="&#x67e;" horiz-adv-x="289" arabic-form="medial" 
d="M304 11l-15 -11q-51 0 -90 19t-53 44q-15 -29 -60 -46t-87 -17l-14 10l16 12q42 0 82 17.5t52 42.5l-20 224h22l18 -223q13 -24 49 -42.5t86 -18.5zM183 -141l19 23l22 -18l-19 -23zM78 -148l19 23l22 -18l-20 -23zM135 -233l20 23l21 -18l-19 -23z" />
    <glyph glyph-name="uniFB5B" unicode="&#x680;" horiz-adv-x="860" arabic-form="final" 
d="M875 12l-15 -12q-62 0 -95 28.5t-46 60.5q-136 -101 -390 -101q-135 0 -200.5 43t-65.5 129q0 74 35 147l16 -6q-31 -68 -31 -139q0 -76 60.5 -114t187.5 -38q125 0 222 26t158 73l-30 197h22l25 -180q5 -37 35.5 -70.5t99.5 -33.5zM381 -107l19 23l22 -18l-19 -23z
M276 -114l19 23l22 -18l-19 -23zM396 -210l19 24l22 -18l-19 -24zM291 -217l19 24l22 -18l-19 -24z" />
    <glyph glyph-name="uniFB5C" unicode="&#x680;" horiz-adv-x="251" arabic-form="initial" 
d="M-15 12l17 10q46 0 87 16t66 46q1 138 -52 285l21 7q52 -150 51 -286q-7 -27 -36 -47.5t-67.5 -31.5t-71.5 -11zM139 -107l19 23l22 -18l-19 -23zM34 -114l19 23l22 -18l-19 -23zM154 -210l19 24l22 -18l-19 -24zM49 -217l19 24l22 -18l-19 -24z" />
    <glyph glyph-name="uniFB5D" unicode="&#x680;" horiz-adv-x="289" arabic-form="medial" 
d="M304 11l-15 -11q-51 0 -90 19t-53 44q-15 -29 -60 -46t-87 -17l-14 10l16 12q42 0 82 17.5t52 42.5l-20 224h22l18 -223q13 -24 49 -42.5t86 -18.5zM180 -107l19 23l22 -18l-19 -23zM75 -114l19 23l22 -18l-19 -23zM195 -210l19 24l22 -18l-19 -24zM90 -217l19 24l22 -18
l-19 -24z" />
    <glyph glyph-name="uniFB5F" unicode="&#x67a;" horiz-adv-x="860" arabic-form="final" 
d="M875 12l-15 -12q-62 0 -95 28.5t-46 60.5q-136 -101 -390 -101q-135 0 -200.5 43t-65.5 129q0 74 35 147l16 -6q-31 -68 -31 -139q0 -76 60.5 -114t187.5 -38q125 0 222 26t158 73l-30 197h22l25 -180q5 -37 35.5 -70.5t99.5 -33.5zM369 500l19 24l22 -18l-19 -24z
M384 398l19 23l22 -18l-19 -23z" />
    <glyph glyph-name="uniFB60" unicode="&#x67a;" horiz-adv-x="251" arabic-form="initial" 
d="M-15 12l17 10q46 0 87 16t66 46q1 138 -52 285l21 7q52 -150 51 -286q-7 -27 -36 -47.5t-67.5 -31.5t-71.5 -11zM80 591l19 24l22 -18l-19 -24zM95 489l19 23l22 -18l-19 -23z" />
    <glyph glyph-name="uniFB61" unicode="&#x67a;" horiz-adv-x="289" arabic-form="medial" 
d="M304 11l-15 -11q-51 0 -90 19t-53 44q-15 -29 -60 -46t-87 -17l-14 10l16 12q42 0 82 17.5t52 42.5l-20 224h22l18 -223q13 -24 49 -42.5t86 -18.5zM94 514l19 24l22 -18l-19 -24zM109 412l19 23l22 -18l-19 -23z" />
    <glyph glyph-name="uniFB63" unicode="&#x67f;" horiz-adv-x="860" arabic-form="final" 
d="M875 12l-15 -12q-62 0 -95 28.5t-46 60.5q-136 -101 -390 -101q-135 0 -200.5 43t-65.5 129q0 74 35 147l16 -6q-31 -68 -31 -139q0 -76 60.5 -114t187.5 -38q125 0 222 26t158 73l-30 197h22l25 -180q5 -37 35.5 -70.5t99.5 -33.5zM406 500l19 24l22 -18l-19 -24z
M301 494l19 23l22 -18l-19 -23zM421 398l19 24l22 -18l-19 -24zM316 391l19 24l22 -18l-19 -24z" />
    <glyph glyph-name="uniFB64" unicode="&#x67f;" horiz-adv-x="251" arabic-form="initial" 
d="M-15 12l17 10q46 0 87 16t66 46q1 138 -52 285l21 7q52 -150 51 -286q-7 -27 -36 -47.5t-67.5 -31.5t-71.5 -11zM116 591l19 24l22 -18l-19 -24zM11 585l19 23l22 -18l-19 -23zM131 489l19 24l22 -18l-19 -24zM26 482l19 24l22 -18l-19 -24z" />
    <glyph glyph-name="uniFB65" unicode="&#x67f;" horiz-adv-x="289" arabic-form="medial" 
d="M304 11l-15 -11q-51 0 -90 19t-53 44q-15 -29 -60 -46t-87 -17l-14 10l16 12q42 0 82 17.5t52 42.5l-20 224h22l18 -223q13 -24 49 -42.5t86 -18.5zM131 514l19 24l22 -18l-19 -24zM26 508l19 23l22 -18l-19 -23zM146 412l19 24l22 -18l-19 -24zM41 405l19 24l22 -18
l-19 -24z" />
    <glyph glyph-name="uniFB67" unicode="&#x679;" horiz-adv-x="860" arabic-form="final" 
d="M875 12l-15 -12q-62 0 -95 28.5t-46 60.5q-136 -101 -390 -101q-135 0 -200.5 43t-65.5 129q0 74 35 147l16 -6q-31 -68 -31 -139q0 -76 60.5 -114t187.5 -38q125 0 222 26t158 73l-30 197h22l25 -180q5 -37 35.5 -70.5t99.5 -33.5zM495 483q17 -22 17 -63
q-3 -20 -26.5 -38.5t-66.5 -18.5h-127l2 15h20q4 8 19 33l-6 149h15l2 -131q26 39 51 57.5t53 18.5q30 0 47 -22zM472 389.5q20 11.5 27 26.5q0 73 -52 73q-31 0 -60.5 -27.5t-58.5 -83.5h89q35 0 55 11.5z" />
    <glyph glyph-name="uniFB68" unicode="&#x679;" horiz-adv-x="251" arabic-form="initial" 
d="M-15 12l17 10q46 0 87 16t66 46q1 138 -52 285l21 7q52 -150 51 -286q-7 -27 -36 -47.5t-67.5 -31.5t-71.5 -11zM205 574q17 -22 17 -63q-3 -20 -26.5 -38.5t-66.5 -18.5h-127l2 15h20q4 8 19 33l-6 149h15l2 -131q26 39 51 57.5t53 18.5q30 0 47 -22zM182 480.5
q20 11.5 27 26.5q0 73 -52 73q-31 0 -60.5 -27.5t-58.5 -83.5h89q35 0 55 11.5z" />
    <glyph glyph-name="uniFB69" unicode="&#x679;" horiz-adv-x="289" arabic-form="medial" 
d="M304 11l-15 -11q-51 0 -90 19t-53 44q-15 -29 -60 -46t-87 -17l-14 10l16 12q42 0 82 17.5t52 42.5l-20 224h22l18 -223q13 -24 49 -42.5t86 -18.5zM220 497q17 -22 17 -63q-3 -20 -26.5 -38.5t-66.5 -18.5h-127l2 15h20q4 8 19 33l-6 149h15l2 -131q26 39 51 57.5
t53 18.5q30 0 47 -22zM197 403.5q20 11.5 27 26.5q0 73 -52 73q-31 0 -60.5 -27.5t-58.5 -83.5h89q35 0 55 11.5z" />
    <glyph glyph-name="uniFB6B" unicode="&#x6a4;" horiz-adv-x="925" arabic-form="final" 
d="M940 11l-15 -11h-16q-55 0 -110.5 11.5t-103.5 33.5q-135 -57 -354 -57h-12q-135 0 -200.5 43t-65.5 129q0 74 35 147l16 -6q-31 -68 -31 -139q0 -76 60.5 -114t187.5 -38h12q199 0 329 47q-61 33 -95.5 79.5t-34.5 103.5q0 46 23 89.5t59.5 70.5t73.5 27q39 0 77.5 -27
t62.5 -71t24 -92q0 -52 -35.5 -99t-106.5 -82q87 -34 189 -34h18zM598 138.5q36 -43.5 98 -72.5q72 31 108.5 74.5t36.5 92.5q0 43 -21 83t-54.5 64.5t-67.5 24.5q-32 0 -63.5 -24.5t-52 -63.5t-20.5 -81q0 -54 36 -97.5zM697 667l-19 -23l-22 18l19 23zM755 582l-20 -23
l-21 18l19 23zM649 575l-19 -23l-22 18l20 23z" />
    <glyph glyph-name="uniFB6C" unicode="&#x6a4;" horiz-adv-x="449" arabic-form="initial" 
d="M324 449.5q48 -78.5 48 -257.5q0 -39 -1 -60q-8 -25 -55.5 -56t-129 -53.5t-186.5 -22.5l-15 12l17 10q132 0 218.5 31.5t130.5 75.5q2 40 2 56q0 19 -2 49q-23 -20 -55.5 -30.5t-68.5 -10.5q-49 0 -89.5 20t-64.5 55t-24 79q0 46 23 88t59 67.5t74 25.5q71 0 119 -78.5z
M294.5 223q31.5 10 56.5 29q-8 137 -49 195.5t-98 58.5q-32 0 -63.5 -22.5t-51.5 -59t-20 -76.5q0 -60 46.5 -97.5t116.5 -37.5q31 0 62.5 10zM207 757l-19 -23l-22 18l19 23zM265 672l-20 -23l-21 18l19 23zM159 665l-19 -23l-22 18l20 23z" />
    <glyph glyph-name="uniFB6D" unicode="&#x6a4;" horiz-adv-x="456" arabic-form="medial" 
d="M470 11l-14 -11h-16q-111 0 -204 41q-97 -41 -225 -41h-11l-15 11l17 11h12q114 0 199 30q-64 32 -102 80.5t-38 107.5q0 46 23 89.5t59 70.5t73 27q40 0 78 -27t62 -71t24 -92q0 -53 -34 -101.5t-98 -82.5q85 -31 180 -31h18zM132 135q39 -45 105 -73q66 28 100.5 73
t34.5 98q0 43 -21 83t-54.5 64.5t-67.5 24.5q-32 0 -64 -24.5t-52 -63.5t-20 -81q0 -56 39 -101zM227 665l-19 -23l-22 18l19 23zM285 580l-20 -23l-21 18l19 23zM179 573l-19 -23l-22 18l20 23z" />
    <glyph glyph-name="uniFB6F" unicode="&#x6a6;" horiz-adv-x="925" arabic-form="final" 
d="M940 11l-15 -11h-16q-55 0 -110.5 11.5t-103.5 33.5q-135 -57 -354 -57h-12q-135 0 -200.5 43t-65.5 129q0 74 35 147l16 -6q-31 -68 -31 -139q0 -76 60.5 -114t187.5 -38h12q199 0 329 47q-61 33 -95.5 79.5t-34.5 103.5q0 46 23 89.5t59.5 70.5t73.5 27q39 0 77.5 -27
t62.5 -71t24 -92q0 -52 -35.5 -99t-106.5 -82q87 -34 189 -34h18zM598 138.5q36 -43.5 98 -72.5q72 31 108.5 74.5t36.5 92.5q0 43 -21 83t-54.5 64.5t-67.5 24.5q-32 0 -63.5 -24.5t-52 -63.5t-20.5 -81q0 -54 36 -97.5zM703 637l19 24l22 -18l-19 -24zM598 631l19 23
l22 -18l-19 -23zM718 535l19 24l22 -18l-19 -24zM613 528l19 24l22 -18l-19 -24z" />
    <glyph glyph-name="uniFB70" unicode="&#x6a6;" horiz-adv-x="449" arabic-form="initial" 
d="M324 449.5q48 -78.5 48 -257.5q0 -39 -1 -60q-8 -25 -55.5 -56t-129 -53.5t-186.5 -22.5l-15 12l17 10q132 0 218.5 31.5t130.5 75.5q2 40 2 56q0 19 -2 49q-23 -20 -55.5 -30.5t-68.5 -10.5q-49 0 -89.5 20t-64.5 55t-24 79q0 46 23 88t59 67.5t74 25.5q71 0 119 -78.5z
M294.5 223q31.5 10 56.5 29q-8 137 -49 195.5t-98 58.5q-32 0 -63.5 -22.5t-51.5 -59t-20 -76.5q0 -60 46.5 -97.5t116.5 -37.5q31 0 62.5 10zM213 727l19 24l22 -18l-19 -24zM108 721l19 23l22 -18l-19 -23zM228 625l19 24l22 -18l-19 -24zM123 618l19 24l22 -18l-19 -24z
" />
    <glyph glyph-name="uniFB71" unicode="&#x6a6;" horiz-adv-x="456" arabic-form="medial" 
d="M470 11l-14 -11h-16q-111 0 -204 41q-97 -41 -225 -41h-11l-15 11l17 11h12q114 0 199 30q-64 32 -102 80.5t-38 107.5q0 46 23 89.5t59 70.5t73 27q40 0 78 -27t62 -71t24 -92q0 -53 -34 -101.5t-98 -82.5q85 -31 180 -31h18zM132 135q39 -45 105 -73q66 28 100.5 73
t34.5 98q0 43 -21 83t-54.5 64.5t-67.5 24.5q-32 0 -64 -24.5t-52 -63.5t-20 -81q0 -56 39 -101zM233 635l19 24l22 -18l-19 -24zM128 629l19 23l22 -18l-19 -23zM248 533l19 24l22 -18l-19 -24zM143 526l19 24l22 -18l-19 -24z" />
    <glyph glyph-name="uniFB73" unicode="&#x684;" horiz-adv-x="701" arabic-form="final" 
d="M276.5 130.5q-84.5 -48.5 -132 -116t-47.5 -145.5q0 -84 53.5 -137t158.5 -53q65 0 124 11.5t106 30.5l8 -20q-48 -20 -109.5 -32t-130.5 -12q-114 0 -172 59.5t-58 151.5q0 93 62.5 171.5t170.5 129.5t242 66q-52 30 -103 63q-85 52 -132 74.5t-94 22.5q-28 0 -56.5 -9
t-52.5 -27l-11 19q52 39 120 39q48 0 95.5 -23t132.5 -76q10 -6 51 -32t82 -48l-4 -19l-13 -1q-42 -4 -81 -12q16 -102 70 -143t147 -41l12 -11l-14 -11q-99 0 -157.5 47t-74.5 156q-108 -24 -192.5 -72.5zM333 -22l19 23l22 -18l-19 -23zM348 -125l19 24l22 -18l-19 -24z
" />
    <glyph glyph-name="uniFB74" unicode="&#x684;" horiz-adv-x="676" arabic-form="initial" 
d="M323 390.5q49 -27.5 137 -91.5q106 -77 163 -112l-4 -17l-19 -3q-71 -9 -135.5 -29.5t-151.5 -56.5q-102 -41 -170 -61t-143 -20l-15 12l17 10q73 0 140.5 19.5t166.5 58.5q91 36 151.5 55.5t130.5 29.5q-62 41 -132 93q-87 64 -136 91t-100 27q-28 0 -52 -8.5t-50 -26.5
l-12 18q29 21 56 30t59 9q50 0 99 -27.5zM268 -133l19 24l22 -18l-19 -24zM283 -235l19 23l22 -18l-19 -23z" />
    <glyph glyph-name="uniFB75" unicode="&#x684;" horiz-adv-x="764" arabic-form="medial" 
d="M778 11l-14 -11q-96 0 -164.5 47t-94.5 148q-51 -11 -96.5 -32.5t-114.5 -60.5q-62 -34 -103.5 -54t-90 -34t-100.5 -14l-15 11l17 11q70 0 131.5 24t150.5 72q83 45 145 70.5t134 32.5q-49 21 -88 43t-94 56q-64 41 -102 58.5t-79 17.5q-28 0 -51.5 -8.5t-50.5 -26.5
l-10 19q28 20 54.5 29t58.5 9q43 0 82.5 -19t107.5 -62q60 -38 104.5 -63.5t101.5 -49.5l-3 -19l-28 -1q-23 -2 -44 -6q50 -176 244 -176zM348 -83l19 24l22 -18l-19 -24zM363 -185l19 23l22 -18l-19 -23z" />
    <glyph glyph-name="uniFB77" unicode="&#x683;" horiz-adv-x="701" arabic-form="final" 
d="M276.5 130.5q-84.5 -48.5 -132 -116t-47.5 -145.5q0 -84 53.5 -137t158.5 -53q65 0 124 11.5t106 30.5l8 -20q-48 -20 -109.5 -32t-130.5 -12q-114 0 -172 59.5t-58 151.5q0 93 62.5 171.5t170.5 129.5t242 66q-52 30 -103 63q-85 52 -132 74.5t-94 22.5q-28 0 -56.5 -9
t-52.5 -27l-11 19q52 39 120 39q48 0 95.5 -23t132.5 -76q10 -6 51 -32t82 -48l-4 -19l-13 -1q-42 -4 -81 -12q16 -102 70 -143t147 -41l12 -11l-14 -11q-99 0 -157.5 47t-74.5 156q-108 -24 -192.5 -72.5zM388 -74l19 23l22 -18l-19 -23zM283 -81l19 23l22 -18l-20 -23z
" />
    <glyph glyph-name="uniFB78" unicode="&#x683;" horiz-adv-x="676" arabic-form="initial" 
d="M323 390.5q49 -27.5 137 -91.5q106 -77 163 -112l-4 -17l-19 -3q-71 -9 -135.5 -29.5t-151.5 -56.5q-102 -41 -170 -61t-143 -20l-15 12l17 10q73 0 140.5 19.5t166.5 58.5q91 36 151.5 55.5t130.5 29.5q-62 41 -132 93q-87 64 -136 91t-100 27q-28 0 -52 -8.5t-50 -26.5
l-12 18q29 21 56 30t59 9q50 0 99 -27.5zM324 -141l19 23l22 -18l-19 -23zM219 -148l19 23l22 -18l-20 -23z" />
    <glyph glyph-name="uniFB79" unicode="&#x683;" horiz-adv-x="764" arabic-form="medial" 
d="M778 11l-14 -11q-96 0 -164.5 47t-94.5 148q-51 -11 -96.5 -32.5t-114.5 -60.5q-62 -34 -103.5 -54t-90 -34t-100.5 -14l-15 11l17 11q70 0 131.5 24t150.5 72q83 45 145 70.5t134 32.5q-49 21 -88 43t-94 56q-64 41 -102 58.5t-79 17.5q-28 0 -51.5 -8.5t-50.5 -26.5
l-10 19q28 20 54.5 29t58.5 9q43 0 82.5 -19t107.5 -62q60 -38 104.5 -63.5t101.5 -49.5l-3 -19l-28 -1q-23 -2 -44 -6q50 -176 244 -176zM403 -91l19 23l22 -18l-19 -23zM298 -98l19 23l22 -18l-20 -23z" />
    <glyph glyph-name="uniFB7B" unicode="&#x686;" horiz-adv-x="701" arabic-form="final" 
d="M276.5 130.5q-84.5 -48.5 -132 -116t-47.5 -145.5q0 -84 53.5 -137t158.5 -53q65 0 124 11.5t106 30.5l8 -20q-48 -20 -109.5 -32t-130.5 -12q-114 0 -172 59.5t-58 151.5q0 93 62.5 171.5t170.5 129.5t242 66q-52 30 -103 63q-85 52 -132 74.5t-94 22.5q-28 0 -56.5 -9
t-52.5 -27l-11 19q52 39 120 39q48 0 95.5 -23t132.5 -76q10 -6 51 -32t82 -48l-4 -19l-13 -1q-42 -4 -81 -12q16 -102 70 -143t147 -41l12 -11l-14 -11q-99 0 -157.5 47t-74.5 156q-108 -24 -192.5 -72.5zM388 -32l19 24l22 -18l-19 -24zM283 -39l19 24l22 -18l-20 -24z
M340 -124l20 24l21 -18l-19 -24z" />
    <glyph glyph-name="uniFB7C" unicode="&#x686;" horiz-adv-x="676" arabic-form="initial" 
d="M323 390.5q49 -27.5 137 -91.5q106 -77 163 -112l-4 -17l-19 -3q-71 -9 -135.5 -29.5t-151.5 -56.5q-102 -41 -170 -61t-143 -20l-15 12l17 10q73 0 140.5 19.5t166.5 58.5q91 36 151.5 55.5t130.5 29.5q-62 41 -132 93q-87 64 -136 91t-100 27q-28 0 -52 -8.5t-50 -26.5
l-12 18q29 21 56 30t59 9q50 0 99 -27.5zM324 -141l19 23l22 -18l-19 -23zM219 -148l19 23l22 -18l-20 -23zM276 -233l20 23l21 -18l-19 -23z" />
    <glyph glyph-name="uniFB7D" unicode="&#x686;" horiz-adv-x="764" arabic-form="medial" 
d="M778 11l-14 -11q-96 0 -164.5 47t-94.5 148q-51 -11 -96.5 -32.5t-114.5 -60.5q-62 -34 -103.5 -54t-90 -34t-100.5 -14l-15 11l17 11q70 0 131.5 24t150.5 72q83 45 145 70.5t134 32.5q-49 21 -88 43t-94 56q-64 41 -102 58.5t-79 17.5q-28 0 -51.5 -8.5t-50.5 -26.5
l-10 19q28 20 54.5 29t58.5 9q43 0 82.5 -19t107.5 -62q60 -38 104.5 -63.5t101.5 -49.5l-3 -19l-28 -1q-23 -2 -44 -6q50 -176 244 -176zM403 -91l19 23l22 -18l-19 -23zM298 -98l19 23l22 -18l-20 -23zM355 -183l20 23l21 -18l-19 -23z" />
    <glyph glyph-name="uniFB7F" unicode="&#x687;" horiz-adv-x="701" arabic-form="final" 
d="M276.5 130.5q-84.5 -48.5 -132 -116t-47.5 -145.5q0 -84 53.5 -137t158.5 -53q65 0 124 11.5t106 30.5l8 -20q-48 -20 -109.5 -32t-130.5 -12q-114 0 -172 59.5t-58 151.5q0 93 62.5 171.5t170.5 129.5t242 66q-52 30 -103 63q-85 52 -132 74.5t-94 22.5q-28 0 -56.5 -9
t-52.5 -27l-11 19q52 39 120 39q48 0 95.5 -23t132.5 -76q10 -6 51 -32t82 -48l-4 -19l-13 -1q-42 -4 -81 -12q16 -102 70 -143t147 -41l12 -11l-14 -11q-99 0 -157.5 47t-74.5 156q-108 -24 -192.5 -72.5zM385 -15l19 24l22 -18l-19 -24zM280 -22l19 24l22 -18l-19 -24z
M400 -117l19 24l22 -18l-19 -24zM295 -124l19 24l22 -18l-19 -24z" />
    <glyph glyph-name="uniFB80" unicode="&#x687;" horiz-adv-x="676" arabic-form="initial" 
d="M323 390.5q49 -27.5 137 -91.5q106 -77 163 -112l-4 -17l-19 -3q-71 -9 -135.5 -29.5t-151.5 -56.5q-102 -41 -170 -61t-143 -20l-15 12l17 10q73 0 140.5 19.5t166.5 58.5q91 36 151.5 55.5t130.5 29.5q-62 41 -132 93q-87 64 -136 91t-100 27q-28 0 -52 -8.5t-50 -26.5
l-12 18q29 21 56 30t59 9q50 0 99 -27.5zM321 -107l19 23l22 -18l-19 -23zM216 -114l19 23l22 -18l-19 -23zM336 -210l19 24l22 -18l-19 -24zM231 -217l19 24l22 -18l-19 -24z" />
    <glyph glyph-name="uniFB81" unicode="&#x687;" horiz-adv-x="764" arabic-form="medial" 
d="M778 11l-14 -11q-96 0 -164.5 47t-94.5 148q-51 -11 -96.5 -32.5t-114.5 -60.5q-62 -34 -103.5 -54t-90 -34t-100.5 -14l-15 11l17 11q70 0 131.5 24t150.5 72q83 45 145 70.5t134 32.5q-49 21 -88 43t-94 56q-64 41 -102 58.5t-79 17.5q-28 0 -51.5 -8.5t-50.5 -26.5
l-10 19q28 20 54.5 29t58.5 9q43 0 82.5 -19t107.5 -62q60 -38 104.5 -63.5t101.5 -49.5l-3 -19l-28 -1q-23 -2 -44 -6q50 -176 244 -176zM400 -57l19 23l22 -18l-19 -23zM295 -64l19 23l22 -18l-19 -23zM415 -160l19 24l22 -18l-19 -24zM310 -167l19 24l22 -18l-19 -24z
" />
    <glyph glyph-name="uniFB83" unicode="&#x68d;" horiz-adv-x="505" arabic-form="final" 
d="M520 11l-15 -11q-48 0 -76 17t-43 51q-77 -80 -204 -80q-44 0 -80 8t-73 22l8 21q36 -14 70 -21t76 -7q58 0 107.5 19t86.5 55l-153 380l23 10l142 -369q18 -47 43.5 -65.5t74.5 -18.5zM231 -141l19 23l22 -18l-19 -23zM126 -148l19 23l22 -18l-20 -23z" />
    <glyph glyph-name="uniFB85" unicode="&#x68c;" horiz-adv-x="505" arabic-form="final" 
d="M520 11l-15 -11q-48 0 -76 17t-43 51q-77 -80 -204 -80q-44 0 -80 8t-73 22l8 21q36 -14 70 -21t76 -7q58 0 107.5 19t86.5 55l-153 380l23 10l142 -369q18 -47 43.5 -65.5t74.5 -18.5zM171 631l19 24l22 -18l-19 -24zM66 624l19 24l22 -18l-20 -24z" />
    <glyph glyph-name="uniFB87" unicode="&#x68e;" horiz-adv-x="505" arabic-form="final" 
d="M520 11l-15 -11q-48 0 -76 17t-43 51q-77 -80 -204 -80q-44 0 -80 8t-73 22l8 21q36 -14 70 -21t76 -7q58 0 107.5 19t86.5 55l-153 380l23 10l142 -369q18 -47 43.5 -65.5t74.5 -18.5zM166 734l-19 -23l-22 18l19 23zM224 649l-20 -23l-21 18l19 23zM118 642l-19 -23
l-22 18l20 23z" />
    <glyph glyph-name="uniFB89" unicode="&#x688;" horiz-adv-x="505" arabic-form="final" 
d="M520 11l-15 -11q-48 0 -76 17t-43 51q-77 -80 -204 -80q-44 0 -80 8t-73 22l8 21q36 -14 70 -21t76 -7q58 0 107.5 19t86.5 55l-153 380l23 10l142 -369q18 -47 43.5 -65.5t74.5 -18.5zM261 687q17 -22 17 -63q-3 -20 -26.5 -38.5t-66.5 -18.5h-127l2 15h20q4 8 19 33
l-6 149h15l2 -131q26 39 51 57.5t53 18.5q30 0 47 -22zM238 593.5q20 11.5 27 26.5q0 73 -52 73q-31 0 -60.5 -27.5t-58.5 -83.5h89q35 0 55 11.5z" />
    <glyph glyph-name="uniFB8B" unicode="&#x698;" horiz-adv-x="409" arabic-form="final" 
d="M424 11l-15 -11q-32 0 -52 6.5t-37 25.5q-67 -151 -344 -284l-10 24q266 120 342 273q-10 50 -28 108.5t-37 107.5l24 9q11 -32 25.5 -86t29.5 -113q7 -27 28 -38t61 -11zM246 531l-19 -23l-22 18l19 23zM304 446l-20 -23l-21 18l19 23zM198 439l-19 -23l-22 18l20 23z
" />
    <glyph glyph-name="uniFB8D" unicode="&#x691;" horiz-adv-x="409" arabic-form="final" 
d="M424 11l-15 -11q-32 0 -52 6.5t-37 25.5q-67 -151 -344 -284l-10 24q266 120 342 273q-10 50 -28 108.5t-37 107.5l24 9q11 -32 25.5 -86t29.5 -113q7 -27 28 -38t61 -11zM341 484q17 -22 17 -63q-3 -20 -26.5 -38.5t-66.5 -18.5h-127l2 15h20q4 8 19 33l-6 149h15
l2 -131q26 39 51 57.5t53 18.5q30 0 47 -22zM318 390.5q20 11.5 27 26.5q0 73 -52 73q-31 0 -60.5 -27.5t-58.5 -83.5h89q35 0 55 11.5z" />
    <glyph glyph-name="uniFB8F" unicode="&#x6a9;" horiz-adv-x="961" arabic-form="final" 
d="M976 12l-15 -12q-49 0 -82.5 15.5t-66 49t-93.5 108.5q-25 -59 -67.5 -99t-121 -63t-201.5 -23q-135 0 -200.5 43t-65.5 129q0 74 35 147l16 -6q-31 -68 -31 -139q0 -76 60.5 -114t187.5 -38q118 0 193.5 21.5t116.5 60.5t65 97l-211 263l4 21l381 269l-1 -25l-364 -256
l165 -208q88 -109 127.5 -152t73.5 -61t82 -18z" />
    <glyph glyph-name="uniFB90" unicode="&#x6a9;" horiz-adv-x="454" arabic-form="initial" 
d="M390 718l-363 -256q124 -78 206 -170.5t95 -188.5q-18 -25 -63 -48.5t-113.5 -39t-151.5 -15.5l-15 11l17 11q115 0 191 25.5t115 59.5q-14 90 -95.5 178.5t-206.5 166.5l4 21l381 269z" />
    <glyph glyph-name="uniFB91" unicode="&#x6a9;" horiz-adv-x="529" arabic-form="medial" 
d="M543 12l-14 -12q-49 0 -83 15.5t-66.5 49t-93.5 108.5q-35 -84 -104.5 -128.5t-181.5 -44.5l-15 11l17 11q106 0 171.5 42.5t99.5 125.5l-211 262l4 21l382 269l-2 -25l-364 -256l166 -208q87 -109 126.5 -152t73.5 -61t83 -18z" />
    <glyph glyph-name="uniFB93" unicode="&#x6af;" horiz-adv-x="961" arabic-form="final" 
d="M880 845l-377 -269l4 20l374 268zM976 12l-15 -12q-49 0 -82.5 15.5t-66 49t-93.5 108.5q-25 -59 -67.5 -99t-121 -63t-201.5 -23q-135 0 -200.5 43t-65.5 129q0 74 35 147l16 -6q-31 -68 -31 -139q0 -76 60.5 -114t187.5 -38q118 0 193.5 21.5t116.5 60.5t65 97
l-211 263l4 21l381 269l-1 -25l-364 -256l165 -208q88 -109 127.5 -152t73.5 -61t82 -18z" />
    <glyph glyph-name="uniFB94" unicode="&#x6af;" horiz-adv-x="454" arabic-form="initial" 
d="M390 845l-377 -269l4 20l374 268zM10 473l381 269l-1 -24l-363 -256q124 -78 206 -170.5t95 -188.5q-18 -25 -63 -48.5t-113.5 -39t-151.5 -15.5l-15 11l17 11q115 0 191 25.5t115 59.5q-14 90 -95.5 178.5t-206.5 166.5z" />
    <glyph glyph-name="uniFB95" unicode="&#x6af;" horiz-adv-x="529" arabic-form="medial" 
d="M449 845l-376 -269l4 20l374 268zM543 12l-14 -12q-49 0 -83 15.5t-66.5 49t-93.5 108.5q-35 -84 -104.5 -128.5t-181.5 -44.5l-15 11l17 11q106 0 171.5 42.5t99.5 125.5l-211 262l4 21l382 269l-2 -25l-364 -256l166 -208q87 -109 126.5 -152t73.5 -61t83 -18z" />
    <glyph glyph-name="uniFB97" unicode="&#x6b3;" horiz-adv-x="961" arabic-form="final" 
d="M880 845l-377 -269l4 20l374 268zM976 12l-15 -12q-49 0 -82.5 15.5t-66 49t-93.5 108.5q-25 -59 -67.5 -99t-121 -63t-201.5 -23q-135 0 -200.5 43t-65.5 129q0 74 35 147l16 -6q-31 -68 -31 -139q0 -76 60.5 -114t187.5 -38q118 0 193.5 21.5t116.5 60.5t65 97
l-211 263l4 21l381 269l-1 -25l-364 -256l165 -208q88 -109 127.5 -152t73.5 -61t82 -18zM347 -133l19 24l22 -18l-19 -24zM362 -235l19 23l22 -18l-19 -23z" />
    <glyph glyph-name="uniFB98" unicode="&#x6b3;" horiz-adv-x="454" arabic-form="initial" 
d="M390 845l-377 -269l4 20l374 268zM10 473l381 269l-1 -24l-363 -256q124 -78 206 -170.5t95 -188.5q-18 -25 -63 -48.5t-113.5 -39t-151.5 -15.5l-15 11l17 11q115 0 191 25.5t115 59.5q-14 90 -95.5 178.5t-206.5 166.5zM111 -133l19 24l22 -18l-19 -24zM126 -235l19 23
l22 -18l-19 -23z" />
    <glyph glyph-name="uniFB99" unicode="&#x6b3;" horiz-adv-x="529" arabic-form="medial" 
d="M449 845l-376 -269l4 20l374 268zM543 12l-14 -12q-49 0 -83 15.5t-66.5 49t-93.5 108.5q-35 -84 -104.5 -128.5t-181.5 -44.5l-15 11l17 11q106 0 171.5 42.5t99.5 125.5l-211 262l4 21l382 269l-2 -25l-364 -256l166 -208q87 -109 126.5 -152t73.5 -61t83 -18z
M245 -133l19 24l22 -18l-19 -24zM260 -235l19 23l22 -18l-19 -23z" />
    <glyph glyph-name="uniFB9B" unicode="&#x6b1;" horiz-adv-x="961" arabic-form="final" 
d="M880 845l-377 -269l4 20l374 268zM976 12l-15 -12q-49 0 -82.5 15.5t-66 49t-93.5 108.5q-25 -59 -67.5 -99t-121 -63t-201.5 -23q-135 0 -200.5 43t-65.5 129q0 74 35 147l16 -6q-31 -68 -31 -139q0 -76 60.5 -114t187.5 -38q118 0 193.5 21.5t116.5 60.5t65 97
l-211 263l4 21l381 269l-1 -25l-364 -256l165 -208q88 -109 127.5 -152t73.5 -61t82 -18zM559 795l19 24l22 -18l-19 -24zM454 788l19 24l22 -18l-20 -24z" />
    <glyph glyph-name="uniFB9C" unicode="&#x6b1;" horiz-adv-x="454" arabic-form="initial" 
d="M390 845l-377 -269l4 20l374 268zM10 473l381 269l-1 -24l-363 -256q124 -78 206 -170.5t95 -188.5q-18 -25 -63 -48.5t-113.5 -39t-151.5 -15.5l-15 11l17 11q115 0 191 25.5t115 59.5q-14 90 -95.5 178.5t-206.5 166.5zM102 795l19 24l22 -18l-19 -24zM-3 788l19 24
l22 -18l-20 -24z" />
    <glyph glyph-name="uniFB9D" unicode="&#x6b1;" horiz-adv-x="529" arabic-form="medial" 
d="M449 845l-376 -269l4 20l374 268zM543 12l-14 -12q-49 0 -83 15.5t-66.5 49t-93.5 108.5q-35 -84 -104.5 -128.5t-181.5 -44.5l-15 11l17 11q106 0 171.5 42.5t99.5 125.5l-211 262l4 21l382 269l-2 -25l-364 -256l166 -208q87 -109 126.5 -152t73.5 -61t83 -18zM98 795
l19 24l22 -18l-19 -24zM-7 788l19 24l22 -18l-20 -24z" />
    <glyph glyph-name="uniFB9F" unicode="&#x6ba;" horiz-adv-x="671" arabic-form="final" 
d="M686 11l-15 -11q-26 0 -50.5 9.5t-40.5 29.5q4 -38 4 -88q-3 -43 -40.5 -86t-102.5 -71.5t-144 -28.5q-121 0 -177.5 55.5t-56.5 150.5q0 87 36 173l16 -6q-32 -83 -32 -166q0 -86 51.5 -135.5t164.5 -49.5q68 0 123 22t91.5 55.5t52.5 68.5q2 71 -8.5 127.5t-25.5 95.5
t-39 90q-4 9 -7.5 16t-5.5 12l22 9q52 -115 71 -195q8 -33 34 -49.5t66 -16.5z" />
    <glyph glyph-name="uniFBA1" unicode="&#x6bb;" horiz-adv-x="671" arabic-form="final" 
d="M686 11l-15 -11q-26 0 -50.5 9.5t-40.5 29.5q4 -38 4 -88q-3 -43 -40.5 -86t-102.5 -71.5t-144 -28.5q-121 0 -177.5 55.5t-56.5 150.5q0 87 36 173l16 -6q-32 -83 -32 -166q0 -86 51.5 -135.5t164.5 -49.5q68 0 123 22t91.5 55.5t52.5 68.5q2 71 -8.5 127.5t-25.5 95.5
t-39 90q-4 9 -7.5 16t-5.5 12l22 9q52 -115 71 -195q8 -33 34 -49.5t66 -16.5zM407 426q17 -22 17 -63q-3 -20 -26.5 -38.5t-66.5 -18.5h-127l2 15h20q4 8 19 33l-6 149h15l2 -131q26 39 51 57.5t53 18.5q30 0 47 -22zM384 332.5q20 11.5 27 26.5q0 73 -52 73
q-31 0 -60.5 -27.5t-58.5 -83.5h89q35 0 55 11.5z" />
    <glyph glyph-name="uniFBA2" unicode="&#x6bb;" horiz-adv-x="251" arabic-form="initial" 
d="M-15 12l17 10q46 0 87 16t66 46q1 138 -52 285l21 7q52 -150 51 -286q-7 -27 -36 -47.5t-67.5 -31.5t-71.5 -11zM205 574q17 -22 17 -63q-3 -20 -26.5 -38.5t-66.5 -18.5h-127l2 15h20q4 8 19 33l-6 149h15l2 -131q26 39 51 57.5t53 18.5q30 0 47 -22zM182 480.5
q20 11.5 27 26.5q0 73 -52 73q-31 0 -60.5 -27.5t-58.5 -83.5h89q35 0 55 11.5z" />
    <glyph glyph-name="uniFBA3" unicode="&#x6bb;" horiz-adv-x="289" arabic-form="medial" 
d="M304 11l-15 -11q-51 0 -90 19t-53 44q-15 -29 -60 -46t-87 -17l-14 10l16 12q42 0 82 17.5t52 42.5l-20 224h22l18 -223q13 -24 49 -42.5t86 -18.5zM220 497q17 -22 17 -63q-3 -20 -26.5 -38.5t-66.5 -18.5h-127l2 15h20q4 8 19 33l-6 149h15l2 -131q26 39 51 57.5
t53 18.5q30 0 47 -22zM197 403.5q20 11.5 27 26.5q0 73 -52 73q-31 0 -60.5 -27.5t-58.5 -83.5h89q35 0 55 11.5z" />
    <glyph glyph-name="uniFBA5" unicode="&#x6c0;" horiz-adv-x="482" arabic-form="final" 
d="M496 11l-14 -11h-7q-56 0 -90.5 26t-42.5 74q-30 -26 -74.5 -43t-93.5 -17q-37 0 -70.5 13t-53.5 33.5t-21 40.5q0 88 85 151t217 91l-4 112l21 3l10 -347q2 -59 30.5 -87t88.5 -28h7zM93 81q34 -20 83 -20q92 0 164 59l-8 228q-126 -26 -204.5 -83t-79.5 -139
q11 -25 45 -45zM427 610v-16l-181 -29v16l75 12q-28 16 -43.5 37t-15.5 44q0 30 22.5 50t63.5 20q29 0 55 -13l-4 -15q-26 13 -51 13q-35 0 -52.5 -16t-17.5 -39q0 -44 62 -78z" />
    <glyph glyph-name="uniFBA7" unicode="&#x6c1;" horiz-adv-x="531" arabic-form="final" 
d="M29 -24q39 128 84.5 187.5t103.5 59.5q43 0 68.5 -21t56.5 -66q26 -36 47.5 -59t57 -39t86.5 -16l12 -11l-14 -11q-56 0 -93.5 17t-59.5 40.5t-48 61.5q-28 42 -51 62t-62 20q-52 0 -91.5 -57.5t-74.5 -172.5z" />
    <glyph glyph-name="uniFBA8" unicode="&#x6c1;" horiz-adv-x="251" arabic-form="initial" 
d="M-15 12l17 10q46 0 87 16t66 46q1 138 -52 285l21 7q52 -150 51 -286q-7 -27 -36 -47.5t-67.5 -31.5t-71.5 -11zM52 -240q10 111 62 193l14 -3q-23 -48 -36.5 -94.5t-16.5 -101.5z" />
    <glyph glyph-name="uniFBA9" unicode="&#x6c1;" horiz-adv-x="531" arabic-form="medial" 
d="M545 11l-14 -11h-24q-71 0 -114 -48.5t-43 -155.5q0 -31 5 -79l-17 -7q-77 76 -112.5 161.5t-35.5 172.5q0 33 5 66q-28 -61 -71.5 -85.5t-99.5 -24.5h-24l-15 11l17 11h24q65 0 113.5 43t75.5 149l15 59l27 -6l-10 -37q-16 -59 -24 -99.5t-8 -82.5q0 -77 26 -151
t91 -148q-2 36 -2 51q0 115 49 168.5t131 53.5h23z" />
    <glyph glyph-name="uniFBAB" unicode="&#x6be;" horiz-adv-x="554" arabic-form="final" 
d="M554 0h-172q53 -20 84 -61t31 -108q-2 -18 -17.5 -36t-43.5 -29.5t-63 -11.5q-56 0 -99.5 31.5t-68 88t-25.5 126.5q-42 1 -75 6.5t-62 19.5l10 19q27 -13 56.5 -17.5t70.5 -5.5q1 77 32 150t79 118.5t99 45.5q44 0 73.5 -37t29.5 -97q0 -56 -36.5 -107t-97.5 -73h197
l13 -11zM300 272.5q-43 -41.5 -71 -109.5t-30 -141h81q56 0 99.5 25.5t68 66.5t24.5 86q0 50 -24.5 82t-60.5 32q-44 0 -87 -41.5zM451.5 -77q-25.5 39 -66.5 58t-89 19h-97q2 -101 48.5 -162.5t123.5 -61.5q44 0 72 16.5t34 33.5q0 58 -25.5 97z" />
    <glyph glyph-name="uniFBAC" unicode="&#x6be;" horiz-adv-x="628" arabic-form="initial" 
d="M553 63q-3 -18 -24 -35.5t-55 -28.5t-75 -11q-48 0 -96 12t-89 35q-84 -35 -198 -35h-16l-15 11l17 11h11q101 0 177 27q-55 35 -87.5 85t-32.5 108q0 45 19.5 82.5t54.5 59.5t78 22q8 0 20 -2q-55 35 -130 74l11 20q430 -228 430 -435zM123.5 138q33.5 -47 90.5 -79
q66 28 99.5 75.5t33.5 103.5q0 63 -35.5 107t-89.5 44q-58 0 -95 -42.5t-37 -105.5q0 -56 33.5 -103zM482 24q36 14 54 37q-2 68 -54 138.5t-145 139.5q30 -44 30 -101t-33 -107.5t-96 -83.5q76 -37 161 -37q47 0 83 14z" />
    <glyph glyph-name="uniFBAD" unicode="&#x6be;" horiz-adv-x="481" arabic-form="medial" 
d="M481 0h-172q53 -19 84 -60.5t31 -108.5q-2 -18 -17.5 -36t-43.5 -29.5t-63 -11.5q-56 0 -99.5 31.5t-68 88t-25.5 126.5h-107l-15 11l17 11h105q1 77 32 150t79 118.5t99 45.5q44 0 73.5 -37t29.5 -97q0 -56 -36.5 -107t-97.5 -73h197l13 -11zM227 272.5
q-43 -41.5 -71 -109.5t-30 -141h81q56 0 99.5 25.5t68 66.5t24.5 86q0 50 -24.5 82t-60.5 32q-44 0 -87 -41.5zM378.5 -77q-25.5 39 -66.5 58t-89 19h-26h-71q2 -101 48.5 -162.5t123.5 -61.5q44 0 72 16.5t34 33.5q0 58 -25.5 97z" />
    <glyph glyph-name="uniFBAF" unicode="&#x6d2;" horiz-adv-x="719" arabic-form="final" 
d="M201 -234q-81 0 -118 21t-37 66q0 39 40.5 78t128 65t218.5 26h288l13 -11l-15 -11h-291q-124 0 -205.5 -22.5t-119 -56.5t-37.5 -68q0 -35 30 -50t100 -15h501l-7 -22h-489z" />
    <glyph glyph-name="uniFBB1" unicode="&#x6d3;" horiz-adv-x="719" arabic-form="final" 
d="M201 -234q-81 0 -118 21t-37 66q0 39 40.5 78t128 65t218.5 26h288l13 -11l-15 -11h-291q-124 0 -205.5 -22.5t-119 -56.5t-37.5 -68q0 -35 30 -50t100 -15h501l-7 -22h-489zM309 223v-16l-181 -29v16l75 12q-28 16 -43.5 37t-15.5 44q0 30 22.5 50t63.5 20q29 0 55 -13
l-4 -15q-26 13 -51 13q-35 0 -52.5 -16t-17.5 -39q0 -44 62 -78z" />
    <glyph glyph-name="uniFBD4" unicode="&#x6ad;" horiz-adv-x="812" arabic-form="final" 
d="M827 12l-15 -12q-51 0 -81 29t-42 60q-63 -50 -150 -75.5t-210 -25.5q-135 0 -200.5 43t-65.5 129q0 74 35 147l16 -6q-31 -68 -31 -139q0 -76 60.5 -114t187.5 -38q120 0 205.5 26t147.5 75l-4 621l23 2v-608q0 -20 11 -44t36 -42t64 -18zM303 300q71 0 108 11t60 29
q0 17 -42 47.5t-92 47.5l5 18l151 87l-1 -19l-133 -76q49 -22 87 -50.5t38 -50.5q-6 -27 -54.5 -44t-122.5 -17zM692 969l-19 -23l-22 18l19 23zM750 884l-20 -23l-21 18l19 23zM644 877l-19 -23l-22 18l20 23z" />
    <glyph glyph-name="uniFBD5" unicode="&#x6ad;" horiz-adv-x="454" arabic-form="initial" 
d="M390 718l-363 -256q124 -78 206 -170.5t95 -188.5q-18 -25 -63 -48.5t-113.5 -39t-151.5 -15.5l-15 11l17 11q115 0 191 25.5t115 59.5q-14 90 -95.5 178.5t-206.5 166.5l4 21l381 269zM35 833l-19 -23l-22 18l19 23zM93 748l-20 -23l-21 18l19 23zM-13 741l-19 -23
l-22 18l20 23z" />
    <glyph glyph-name="uniFBD6" unicode="&#x6ad;" horiz-adv-x="529" arabic-form="medial" 
d="M543 12l-14 -12q-49 0 -83 15.5t-66.5 49t-93.5 108.5q-35 -84 -104.5 -128.5t-181.5 -44.5l-15 11l17 11q106 0 171.5 42.5t99.5 125.5l-211 262l4 21l382 269l-2 -25l-364 -256l166 -208q87 -109 126.5 -152t73.5 -61t83 -18zM87 833l-19 -23l-22 18l19 23zM145 748
l-20 -23l-21 18l19 23zM39 741l-19 -23l-22 18l20 23z" />
    <glyph glyph-name="uniFBD8" unicode="&#x6c7;" horiz-adv-x="509" arabic-form="final" 
d="M509 0h-101q-18 -94 -100.5 -156.5t-236.5 -84.5l-8 22q286 39 324 219h-84q-101 0 -159 42.5t-58 111.5q0 46 23 88t59.5 67.5t74.5 25.5q42 0 81 -33t64 -96t25 -149q0 -13 -2 -35h100l13 -11zM393 49q0 84 -22 144t-56.5 90t-72.5 30q-32 0 -64 -22.5t-52 -58.5
t-20 -76q0 -62 52.5 -98t149.5 -36h83q2 18 2 27zM310.5 588q17.5 -21 17.5 -52q0 -40 -42.5 -79t-106.5 -64l-6 14q59 24 94 53q-40 11 -58.5 32t-18.5 48q0 31 20.5 50t48.5 19q34 0 51.5 -21zM313 535q0 25 -13.5 42t-40.5 17q-23 0 -38.5 -15t-15.5 -40q0 -51 74 -69
q34 32 34 65z" />
    <glyph glyph-name="uniFBDA" unicode="&#x6c6;" horiz-adv-x="509" arabic-form="final" 
d="M509 0h-101q-18 -94 -100.5 -156.5t-236.5 -84.5l-8 22q286 39 324 219h-84q-101 0 -159 42.5t-58 111.5q0 46 23 88t59.5 67.5t74.5 25.5q42 0 81 -33t64 -96t25 -149q0 -13 -2 -35h100l13 -11zM393 49q0 84 -22 144t-56.5 90t-72.5 30q-32 0 -64 -22.5t-52 -58.5
t-20 -76q0 -62 52.5 -98t149.5 -36h83q2 18 2 27zM250 414l72 124l13 -6l-77 -137h-16l-77 137l13 6z" />
    <glyph glyph-name="uniFBDC" unicode="&#x6c8;" horiz-adv-x="509" arabic-form="final" 
d="M509 0h-101q-18 -94 -100.5 -156.5t-236.5 -84.5l-8 22q286 39 324 219h-84q-101 0 -159 42.5t-58 111.5q0 46 23 88t59.5 67.5t74.5 25.5q42 0 81 -33t64 -96t25 -149q0 -13 -2 -35h100l13 -11zM393 49q0 84 -22 144t-56.5 90t-72.5 30q-32 0 -64 -22.5t-52 -58.5
t-20 -76q0 -62 52.5 -98t149.5 -36h83q2 18 2 27zM255 560l6 -152h-17l-6 150z" />
    <glyph glyph-name="uniFBDF" unicode="&#x6cb;" horiz-adv-x="509" arabic-form="final" 
d="M509 0h-101q-18 -94 -100.5 -156.5t-236.5 -84.5l-8 22q286 39 324 219h-84q-101 0 -159 42.5t-58 111.5q0 46 23 88t59.5 67.5t74.5 25.5q42 0 81 -33t64 -96t25 -149q0 -13 -2 -35h100l13 -11zM393 49q0 84 -22 144t-56.5 90t-72.5 30q-32 0 -64 -22.5t-52 -58.5
t-20 -76q0 -62 52.5 -98t149.5 -36h83q2 18 2 27zM249 569l-19 -23l-22 18l19 23zM307 484l-20 -23l-21 18l19 23zM201 477l-19 -23l-22 18l20 23z" />
    <glyph glyph-name="uniFBE1" unicode="&#x6c5;" horiz-adv-x="509" arabic-form="final" 
d="M509 0h-101q-18 -94 -100.5 -156.5t-236.5 -84.5l-8 22q158 21 240 86l-201 5l-9 20l231 -6q49 48 63 114h-84q-101 0 -159 42.5t-58 111.5q0 46 23 88t59.5 67.5t74.5 25.5q42 0 81 -33t64 -96t25 -149q0 -13 -2 -35h100l13 -11zM393 49q0 84 -22 144t-56.5 90t-72.5 30
q-32 0 -64 -22.5t-52 -58.5t-20 -76q0 -62 52.5 -98t149.5 -36h83q2 18 2 27z" />
    <glyph glyph-name="uniFBE3" unicode="&#x6c9;" horiz-adv-x="509" arabic-form="final" 
d="M509 0h-101q-18 -94 -100.5 -156.5t-236.5 -84.5l-8 22q286 39 324 219h-84q-101 0 -159 42.5t-58 111.5q0 46 23 88t59.5 67.5t74.5 25.5q42 0 81 -33t64 -96t25 -149q0 -13 -2 -35h100l13 -11zM393 49q0 84 -22 144t-56.5 90t-72.5 30q-32 0 -64 -22.5t-52 -58.5
t-20 -76q0 -62 52.5 -98t149.5 -36h83q2 18 2 27zM165 411l77 137h16l77 -137l-13 -6l-72 124l-72 -124z" />
    <glyph glyph-name="uniFBE5" unicode="&#x6d0;" horiz-adv-x="699" arabic-form="final" 
d="M699 0q-33 0 -66 8.5t-72 24.5q21 -17 32 -41.5t11 -62.5q-5 -18 -45 -46.5t-108 -49.5t-154 -21q-121 0 -177.5 55.5t-56.5 150.5q0 87 36 173l16 -5q-32 -85 -32 -166q0 -87 51.5 -136.5t164.5 -49.5q110 0 182 31t104 61q0 44 -13.5 69.5t-53.5 48t-127 51.5l13 18
q47 -16 125 -47q62 -25 95 -34.5t77 -9.5l13 -11zM277 -314l19 24l22 -18l-19 -24zM292 -416l19 23l22 -18l-19 -23z" />
    <glyph glyph-name="uniFBE6" unicode="&#x6d0;" horiz-adv-x="251" arabic-form="initial" 
d="M-15 12l17 10q46 0 87 16t66 46q1 138 -52 285l21 7q52 -150 51 -286q-7 -27 -36 -47.5t-67.5 -31.5t-71.5 -11zM87 -133l19 24l22 -18l-19 -24zM102 -235l19 23l22 -18l-19 -23z" />
    <glyph glyph-name="uniFBE7" unicode="&#x6d0;" horiz-adv-x="289" arabic-form="medial" 
d="M304 11l-15 -11q-51 0 -90 19t-53 44q-15 -29 -60 -46t-87 -17l-14 10l16 12q42 0 82 17.5t52 42.5l-20 224h22l18 -223q13 -24 49 -42.5t86 -18.5zM127 -133l19 24l22 -18l-19 -24zM142 -235l19 23l22 -18l-19 -23z" />
    <glyph glyph-name="uniFBE8" unicode="&#x649;" horiz-adv-x="251" arabic-form="initial" 
d="M-15 12l17 10q46 0 87 16t66 46q1 138 -52 285l21 7q52 -150 51 -286q-7 -27 -36 -47.5t-67.5 -31.5t-71.5 -11z" />
    <glyph glyph-name="uniFBE9" unicode="&#x649;" horiz-adv-x="289" arabic-form="medial" 
d="M304 11l-15 -11q-51 0 -90 19t-53 44q-15 -29 -60 -46t-87 -17l-14 10l16 12q42 0 82 17.5t52 42.5l-20 224h22l18 -223q13 -24 49 -42.5t86 -18.5z" />
    <glyph glyph-name="uniFBFD" unicode="&#x6cc;" horiz-adv-x="699" arabic-form="final" 
d="M699 0q-33 0 -66 8.5t-72 24.5q21 -17 32 -41.5t11 -62.5q-5 -18 -45 -46.5t-108 -49.5t-154 -21q-121 0 -177.5 55.5t-56.5 150.5q0 87 36 173l16 -5q-32 -85 -32 -166q0 -87 51.5 -136.5t164.5 -49.5q110 0 182 31t104 61q0 44 -13.5 69.5t-53.5 48t-127 51.5l13 18
q47 -16 125 -47q62 -25 95 -34.5t77 -9.5l13 -11z" />
    <glyph glyph-name="uniFBFE" unicode="&#x6cc;" horiz-adv-x="251" arabic-form="initial" 
d="M-15 12l17 10q46 0 87 16t66 46q1 138 -52 285l21 7q52 -150 51 -286q-7 -27 -36 -47.5t-67.5 -31.5t-71.5 -11zM142 -141l19 23l22 -18l-19 -23zM37 -148l19 23l22 -18l-20 -23z" />
    <glyph glyph-name="uniFBFF" unicode="&#x6cc;" horiz-adv-x="289" arabic-form="medial" 
d="M304 11l-15 -11q-51 0 -90 19t-53 44q-15 -29 -60 -46t-87 -17l-14 10l16 12q42 0 82 17.5t52 42.5l-20 224h22l18 -223q13 -24 49 -42.5t86 -18.5zM183 -141l19 23l22 -18l-19 -23zM78 -148l19 23l22 -18l-20 -23z" />
    <glyph glyph-name="uniFC5B" unicode="&#xfc5b;" horiz-adv-x="453" arabic-form="isolated" 
d="M29 8l6 23q75 -20 150 -20q71 0 120.5 23.5t65.5 59.5q-2 102 -54 191.5t-133 172.5l17 17q83 -88 134.5 -179t51.5 -190q-2 -34 -31 -61t-74.5 -42t-96.5 -15q-83 0 -156 20zM125 630l22 27l26 -23l-22 -27zM151 889l6 -152h-17l-6 150z" />
    <glyph glyph-name="uniFC5C" unicode="&#xfc5c;" horiz-adv-x="402" arabic-form="isolated" 
d="M-34 -228q88 39 161 90.5t120 97t61 67.5q1 53 -18.5 116.5t-60.5 163.5l23 9q38 -100 56.5 -163t17.5 -114q-3 -28 -51 -80.5t-128 -110t-171 -100.5zM231 559l6 -152h-17l-6 150z" />
    <glyph glyph-name="uniFC61" unicode="&#xfc61;" arabic-form="isolated" 
d="M245 664q0 -34 -16 -51.5t-43 -17.5q-21 0 -34 11t-19 29q-6 -19 -19.5 -30.5t-34.5 -11.5q-25 0 -40.5 17.5t-15.5 51.5q0 29 9 58l15 -4q-8 -20 -8 -51q0 -53 42 -53q21 0 33 16t12 40v45h15v-46q0 -23 11 -38.5t32 -15.5q44 0 44 55q0 32 -17 69l15 5q19 -41 19 -78z
M193.5 967q17.5 -21 17.5 -52q0 -40 -42.5 -79t-106.5 -64l-6 14q59 24 94 53q-40 11 -58.5 32t-18.5 48q0 31 20.5 50t48.5 19q34 0 51.5 -21zM196 914q0 25 -13.5 42t-40.5 17q-23 0 -38.5 -15t-15.5 -40q0 -51 74 -69q34 32 34 65z" />
    <glyph glyph-name="uniFC63" unicode="&#xfc63;" arabic-form="isolated" 
d="M245 664q0 -34 -16 -51.5t-43 -17.5q-21 0 -34 11t-19 29q-6 -19 -19.5 -30.5t-34.5 -11.5q-25 0 -40.5 17.5t-15.5 51.5q0 29 9 58l15 -4q-8 -20 -8 -51q0 -53 42 -53q21 0 33 16t12 40v45h15v-46q0 -23 11 -38.5t32 -15.5q44 0 44 55q0 32 -17 69l15 5q19 -41 19 -78z
M138 938l6 -152h-17l-6 150z" />
    <glyph glyph-name="uniFD3C" unicode="&#xfd3c;" horiz-adv-x="221" arabic-form="final" 
d="M91 701l22 2v-570q0 -58 28 -84.5t82 -26.5l13 -11l-15 -11q-61 0 -93.5 32.5t-33.5 99.5zM0 851l205 39l-1 -15l-205 -40zM0 776l205 39l-1 -15l-205 -40z" />
    <glyph glyph-name="uniFD3D" unicode="&#xfd3d;" horiz-adv-x="212" arabic-form="isolated" 
d="M94 -1l-13 625l22 2l10 -625zM-10 776l205 39l-1 -15l-205 -40zM-10 701l205 39l-1 -15l-205 -40z" />
    <glyph glyph-name="uniFE70" unicode="&#xfe70;" horiz-adv-x="600" arabic-form="isolated" 
d="M41 669l205 39l-1 -15l-205 -40zM41 594l205 39l-1 -15l-205 -40z" />
    <glyph glyph-name="uniFE72" unicode="&#xfe72;" horiz-adv-x="600" arabic-form="isolated" 
d="M291 766q18 -21 18 -48q0 -40 -40 -77.5t-102 -63.5l-15 7q-2 76 -36 76q-13 0 -24 -7.5t-25 -23.5l-9 11q16 18 29.5 27.5t27.5 9.5q23 0 37 -22t15 -62q53 25 83 51q-39 11 -57.5 31.5t-18.5 44.5q0 28 19.5 47.5t46.5 19.5q33 0 51 -21zM293 716q0 21 -14 37.5
t-39 16.5q-21 0 -35.5 -15t-14.5 -36t17.5 -38.5t54.5 -25.5q31 31 31 61z" />
    <glyph glyph-name="uniFE74" unicode="&#xfe74;" horiz-adv-x="600" arabic-form="isolated" 
d="M41 -87l205 39l-1 -15l-205 -40zM41 -162l205 39l-1 -15l-205 -40z" />
    <glyph glyph-name="uniFE76" unicode="&#xfe76;" horiz-adv-x="600" arabic-form="isolated" 
d="M41 615l205 39l-1 -15l-205 -40z" />
    <glyph glyph-name="uniFE78" unicode="&#xfe78;" horiz-adv-x="600" arabic-form="isolated" 
d="M162.5 776q17.5 -21 17.5 -52q0 -40 -42.5 -79t-106.5 -64l-6 14q59 24 94 53q-40 11 -58.5 32t-18.5 48q0 31 20.5 50t48.5 19q34 0 51.5 -21zM165 723q0 25 -13.5 42t-40.5 17q-23 0 -38.5 -15t-15.5 -40q0 -51 74 -69q34 32 34 65z" />
    <glyph glyph-name="uniFE7C" unicode="&#xfe7c;" horiz-adv-x="600" arabic-form="isolated" 
d="M245 664q0 -34 -16 -51.5t-43 -17.5q-21 0 -34 11t-19 29q-6 -19 -19.5 -30.5t-34.5 -11.5q-25 0 -40.5 17.5t-15.5 51.5q0 29 9 58l15 -4q-8 -20 -8 -51q0 -53 42 -53q21 0 33 16t12 40v45h15v-46q0 -23 11 -38.5t32 -15.5q44 0 44 55q0 32 -17 69l15 5q19 -41 19 -78z
" />
    <glyph glyph-name="uniFE7E" unicode="&#xfe7e;" horiz-adv-x="600" arabic-form="isolated" 
d="M165 609q-26 -25 -65 -25t-65 25t-26 64t26 64t65 25t65 -25t26 -64t-26 -64zM154 725.5q-21 20.5 -54 20.5t-54 -20.5t-21 -52.5t21 -52.5t54 -20.5t54 20.5t21 52.5t-21 52.5z" />
    <glyph glyph-name="uniFE82" unicode="&#x622;" horiz-adv-x="221" arabic-form="final" 
d="M91 701l22 2v-570q0 -58 28 -84.5t82 -26.5l13 -11l-15 -11q-61 0 -93.5 32.5t-33.5 99.5zM-2 792q10 22 27.5 35t36.5 13q10 0 21 -3.5t20 -7.5q22 -11 40 -11q16 0 28 5t33 18l7 -13q-19 -14 -35.5 -20.5t-35.5 -6.5q-15 0 -28 5t-15 6q-24 10 -36 10q-15 0 -27 -9.5
t-21 -25.5z" />
    <glyph glyph-name="uniFE84" unicode="&#x623;" horiz-adv-x="221" arabic-form="final" 
d="M91 701l22 2v-570q0 -58 28 -84.5t82 -26.5l13 -11l-15 -11q-61 0 -93.5 32.5t-33.5 99.5zM194 827v-16l-181 -29v16l75 12q-28 16 -43.5 37t-15.5 44q0 30 22.5 50t63.5 20q29 0 55 -13l-4 -15q-26 13 -51 13q-35 0 -52.5 -16t-17.5 -39q0 -44 62 -78z" />
    <glyph glyph-name="uniFE86" unicode="&#x624;" horiz-adv-x="509" arabic-form="final" 
d="M509 0h-101q-18 -94 -100.5 -156.5t-236.5 -84.5l-8 22q286 39 324 219h-84q-101 0 -159 42.5t-58 111.5q0 46 23 88t59.5 67.5t74.5 25.5q42 0 81 -33t64 -96t25 -149q0 -13 -2 -35h100l13 -11zM393 49q0 84 -22 144t-56.5 90t-72.5 30q-32 0 -64 -22.5t-52 -58.5
t-20 -76q0 -62 52.5 -98t149.5 -36h83q2 18 2 27zM341 459v-16l-181 -29v16l75 12q-28 16 -43.5 37t-15.5 44q0 30 22.5 50t63.5 20q29 0 55 -13l-4 -15q-26 13 -51 13q-35 0 -52.5 -16t-17.5 -39q0 -44 62 -78z" />
    <glyph glyph-name="uniFE88" unicode="&#x625;" horiz-adv-x="212" arabic-form="final" 
d="M80 733l24 2l9 -602q1 -59 25 -85t77 -26l12 -11l-15 -11q-59 0 -86.5 32t-29.5 100zM223 -195v-16l-181 -29v16l75 12q-28 16 -43.5 37t-15.5 44q0 30 22.5 50t63.5 20q29 0 55 -13l-4 -15q-26 13 -51 13q-35 0 -52.5 -16t-17.5 -39q0 -44 62 -78z" />
    <glyph glyph-name="uniFE8A" unicode="&#x626;" horiz-adv-x="699" arabic-form="final" 
d="M699 0q-33 0 -66 8.5t-72 24.5q21 -17 32 -41.5t11 -62.5q-5 -18 -45 -46.5t-108 -49.5t-154 -21q-121 0 -177.5 55.5t-56.5 150.5q0 87 36 173l16 -5q-32 -85 -32 -166q0 -87 51.5 -136.5t164.5 -49.5q110 0 182 31t104 61q0 44 -13.5 69.5t-53.5 48t-127 51.5l13 18
q47 -16 125 -47q62 -25 95 -34.5t77 -9.5l13 -11zM224 356v-16l-181 -29v16l75 12q-28 16 -43.5 37t-15.5 44q0 30 22.5 50t63.5 20q29 0 55 -13l-4 -15q-26 13 -51 13q-35 0 -52.5 -16t-17.5 -39q0 -44 62 -78z" />
    <glyph glyph-name="uniFE8B" unicode="&#x626;" horiz-adv-x="251" arabic-form="initial" 
d="M-15 12l17 10q46 0 87 16t66 46q1 138 -52 285l21 7q52 -150 51 -286q-7 -27 -36 -47.5t-67.5 -31.5t-71.5 -11zM202 511v-16l-181 -29v16l75 12q-28 16 -43.5 37t-15.5 44q0 30 22.5 50t63.5 20q29 0 55 -13l-4 -15q-26 13 -51 13q-35 0 -52.5 -16t-17.5 -39
q0 -44 62 -78z" />
    <glyph glyph-name="uniFE8C" unicode="&#x626;" horiz-adv-x="289" arabic-form="medial" 
d="M304 11l-15 -11q-51 0 -90 19t-53 44q-15 -29 -60 -46t-87 -17l-14 10l16 12q42 0 82 17.5t52 42.5l-20 224h22l18 -223q13 -24 49 -42.5t86 -18.5zM217 434v-16l-181 -29v16l75 12q-28 16 -43.5 37t-15.5 44q0 30 22.5 50t63.5 20q29 0 55 -13l-4 -15q-26 13 -51 13
q-35 0 -52.5 -16t-17.5 -39q0 -44 62 -78z" />
    <glyph glyph-name="uniFE8E" unicode="&#x627;" horiz-adv-x="212" arabic-form="final" 
d="M80 733l24 2l9 -602q1 -59 25 -85t77 -26l12 -11l-15 -11q-59 0 -86.5 32t-29.5 100z" />
    <glyph glyph-name="uniFE90" unicode="&#x628;" horiz-adv-x="860" arabic-form="final" 
d="M875 12l-15 -12q-62 0 -95 28.5t-46 60.5q-136 -101 -390 -101q-135 0 -200.5 43t-65.5 129q0 74 35 147l16 -6q-31 -68 -31 -139q0 -76 60.5 -114t187.5 -38q125 0 222 26t158 73l-30 197h22l25 -180q5 -37 35.5 -70.5t99.5 -33.5zM322 -131l21 26l27 -23l-22 -26z" />
    <glyph glyph-name="uniFE91" unicode="&#x628;" horiz-adv-x="251" arabic-form="initial" 
d="M-15 12l17 10q46 0 87 16t66 46q1 138 -52 285l21 7q52 -150 51 -286q-7 -27 -36 -47.5t-67.5 -31.5t-71.5 -11zM80 -131l21 26l27 -23l-22 -26z" />
    <glyph glyph-name="uniFE92" unicode="&#x628;" horiz-adv-x="289" arabic-form="medial" 
d="M304 11l-15 -11q-51 0 -90 19t-53 44q-15 -29 -60 -46t-87 -17l-14 10l16 12q42 0 82 17.5t52 42.5l-20 224h22l18 -223q13 -24 49 -42.5t86 -18.5zM121 -131l21 26l27 -23l-22 -26z" />
    <glyph glyph-name="uniFE94" unicode="&#x629;" horiz-adv-x="482" arabic-form="final" 
d="M496 11l-14 -11h-7q-56 0 -90.5 26t-42.5 74q-30 -26 -74.5 -43t-93.5 -17q-37 0 -70.5 13t-53.5 33.5t-21 40.5q0 88 85 151t217 91l-4 112l21 3l10 -347q2 -59 30.5 -87t88.5 -28h7zM93 81q34 -20 83 -20q92 0 164 59l-8 228q-126 -26 -204.5 -83t-79.5 -139
q11 -25 45 -45zM340 617l19 24l22 -18l-19 -24zM235 610l19 24l22 -18l-20 -24z" />
    <glyph glyph-name="uniFE96" unicode="&#x62a;" horiz-adv-x="860" arabic-form="final" 
d="M875 12l-15 -12q-62 0 -95 28.5t-46 60.5q-136 -101 -390 -101q-135 0 -200.5 43t-65.5 129q0 74 35 147l16 -6q-31 -68 -31 -139q0 -76 60.5 -114t187.5 -38q125 0 222 26t158 73l-30 197h22l25 -180q5 -37 35.5 -70.5t99.5 -33.5zM405 427l19 24l22 -18l-19 -24z
M300 420l19 24l22 -18l-20 -24z" />
    <glyph glyph-name="uniFE97" unicode="&#x62a;" horiz-adv-x="251" arabic-form="initial" 
d="M-15 12l17 10q46 0 87 16t66 46q1 138 -52 285l21 7q52 -150 51 -286q-7 -27 -36 -47.5t-67.5 -31.5t-71.5 -11zM115 518l19 24l22 -18l-19 -24zM10 511l19 24l22 -18l-20 -24z" />
    <glyph glyph-name="uniFE98" unicode="&#x62a;" horiz-adv-x="289" arabic-form="medial" 
d="M304 11l-15 -11q-51 0 -90 19t-53 44q-15 -29 -60 -46t-87 -17l-14 10l16 12q42 0 82 17.5t52 42.5l-20 224h22l18 -223q13 -24 49 -42.5t86 -18.5zM130 441l19 24l22 -18l-19 -24zM25 434l19 24l22 -18l-20 -24z" />
    <glyph glyph-name="uniFE9A" unicode="&#x62b;" horiz-adv-x="860" arabic-form="final" 
d="M875 12l-15 -12q-62 0 -95 28.5t-46 60.5q-136 -101 -390 -101q-135 0 -200.5 43t-65.5 129q0 74 35 147l16 -6q-31 -68 -31 -139q0 -76 60.5 -114t187.5 -38q125 0 222 26t158 73l-30 197h22l25 -180q5 -37 35.5 -70.5t99.5 -33.5zM400 530l-19 -23l-22 18l19 23z
M458 445l-20 -23l-21 18l19 23zM352 438l-19 -23l-22 18l20 23z" />
    <glyph glyph-name="uniFE9B" unicode="&#x62b;" horiz-adv-x="251" arabic-form="initial" 
d="M-15 12l17 10q46 0 87 16t66 46q1 138 -52 285l21 7q52 -150 51 -286q-7 -27 -36 -47.5t-67.5 -31.5t-71.5 -11zM110 621l-19 -23l-22 18l19 23zM168 536l-20 -23l-21 18l19 23zM62 529l-19 -23l-22 18l20 23z" />
    <glyph glyph-name="uniFE9C" unicode="&#x62b;" horiz-adv-x="289" arabic-form="medial" 
d="M304 11l-15 -11q-51 0 -90 19t-53 44q-15 -29 -60 -46t-87 -17l-14 10l16 12q42 0 82 17.5t52 42.5l-20 224h22l18 -223q13 -24 49 -42.5t86 -18.5zM125 544l-19 -23l-22 18l19 23zM183 459l-20 -23l-21 18l19 23zM77 452l-19 -23l-22 18l20 23z" />
    <glyph glyph-name="uniFE9E" unicode="&#x62c;" horiz-adv-x="701" arabic-form="final" 
d="M276.5 130.5q-84.5 -48.5 -132 -116t-47.5 -145.5q0 -84 53.5 -137t158.5 -53q65 0 124 11.5t106 30.5l8 -20q-48 -20 -109.5 -32t-130.5 -12q-114 0 -172 59.5t-58 151.5q0 93 62.5 171.5t170.5 129.5t242 66q-52 30 -103 63q-85 52 -132 74.5t-94 22.5q-28 0 -56.5 -9
t-52.5 -27l-11 19q52 39 120 39q48 0 95.5 -23t132.5 -76q10 -6 51 -32t82 -48l-4 -19l-13 -1q-42 -4 -81 -12q16 -102 70 -143t147 -41l12 -11l-14 -11q-99 0 -157.5 47t-74.5 156q-108 -24 -192.5 -72.5zM330 -77l21 26l27 -23l-22 -26z" />
    <glyph glyph-name="uniFE9F" unicode="&#x62c;" horiz-adv-x="676" arabic-form="initial" 
d="M323 390.5q49 -27.5 137 -91.5q106 -77 163 -112l-4 -17l-19 -3q-71 -9 -135.5 -29.5t-151.5 -56.5q-102 -41 -170 -61t-143 -20l-15 12l17 10q73 0 140.5 19.5t166.5 58.5q91 36 151.5 55.5t130.5 29.5q-62 41 -132 93q-87 64 -136 91t-100 27q-28 0 -52 -8.5t-50 -26.5
l-12 18q29 21 56 30t59 9q50 0 99 -27.5zM262 -131l21 26l27 -23l-22 -26z" />
    <glyph glyph-name="uniFEA0" unicode="&#x62c;" horiz-adv-x="764" arabic-form="medial" 
d="M778 11l-14 -11q-96 0 -164.5 47t-94.5 148q-51 -11 -96.5 -32.5t-114.5 -60.5q-62 -34 -103.5 -54t-90 -34t-100.5 -14l-15 11l17 11q70 0 131.5 24t150.5 72q83 45 145 70.5t134 32.5q-49 21 -88 43t-94 56q-64 41 -102 58.5t-79 17.5q-28 0 -51.5 -8.5t-50.5 -26.5
l-10 19q28 20 54.5 29t58.5 9q43 0 82.5 -19t107.5 -62q60 -38 104.5 -63.5t101.5 -49.5l-3 -19l-28 -1q-23 -2 -44 -6q50 -176 244 -176zM341 -81l21 26l27 -23l-22 -26z" />
    <glyph glyph-name="uniFEA2" unicode="&#x62d;" horiz-adv-x="701" arabic-form="final" 
d="M276.5 130.5q-84.5 -48.5 -132 -116t-47.5 -145.5q0 -84 53.5 -137t158.5 -53q65 0 124 11.5t106 30.5l8 -20q-48 -20 -109.5 -32t-130.5 -12q-114 0 -172 59.5t-58 151.5q0 93 62.5 171.5t170.5 129.5t242 66q-52 30 -103 63q-85 52 -132 74.5t-94 22.5q-28 0 -56.5 -9
t-52.5 -27l-11 19q52 39 120 39q48 0 95.5 -23t132.5 -76q10 -6 51 -32t82 -48l-4 -19l-13 -1q-42 -4 -81 -12q16 -102 70 -143t147 -41l12 -11l-14 -11q-99 0 -157.5 47t-74.5 156q-108 -24 -192.5 -72.5z" />
    <glyph glyph-name="uniFEA3" unicode="&#x62d;" horiz-adv-x="676" arabic-form="initial" 
d="M323 390.5q49 -27.5 137 -91.5q106 -77 163 -112l-4 -17l-19 -3q-71 -9 -135.5 -29.5t-151.5 -56.5q-102 -41 -170 -61t-143 -20l-15 12l17 10q73 0 140.5 19.5t166.5 58.5q91 36 151.5 55.5t130.5 29.5q-62 41 -132 93q-87 64 -136 91t-100 27q-28 0 -52 -8.5t-50 -26.5
l-12 18q29 21 56 30t59 9q50 0 99 -27.5z" />
    <glyph glyph-name="uniFEA4" unicode="&#x62d;" horiz-adv-x="764" arabic-form="medial" 
d="M778 11l-14 -11q-96 0 -164.5 47t-94.5 148q-51 -11 -96.5 -32.5t-114.5 -60.5q-62 -34 -103.5 -54t-90 -34t-100.5 -14l-15 11l17 11q70 0 131.5 24t150.5 72q83 45 145 70.5t134 32.5q-49 21 -88 43t-94 56q-64 41 -102 58.5t-79 17.5q-28 0 -51.5 -8.5t-50.5 -26.5
l-10 19q28 20 54.5 29t58.5 9q43 0 82.5 -19t107.5 -62q60 -38 104.5 -63.5t101.5 -49.5l-3 -19l-28 -1q-23 -2 -44 -6q50 -176 244 -176z" />
    <glyph glyph-name="uniFEA6" unicode="&#x62e;" horiz-adv-x="701" arabic-form="final" 
d="M276.5 130.5q-84.5 -48.5 -132 -116t-47.5 -145.5q0 -84 53.5 -137t158.5 -53q65 0 124 11.5t106 30.5l8 -20q-48 -20 -109.5 -32t-130.5 -12q-114 0 -172 59.5t-58 151.5q0 93 62.5 171.5t170.5 129.5t242 66q-52 30 -103 63q-85 52 -132 74.5t-94 22.5q-28 0 -56.5 -9
t-52.5 -27l-11 19q52 39 120 39q48 0 95.5 -23t132.5 -76q10 -6 51 -32t82 -48l-4 -19l-13 -1q-42 -4 -81 -12q16 -102 70 -143t147 -41l12 -11l-14 -11q-99 0 -157.5 47t-74.5 156q-108 -24 -192.5 -72.5zM186 542l22 27l26 -23l-22 -27z" />
    <glyph glyph-name="uniFEA7" unicode="&#x62e;" horiz-adv-x="676" arabic-form="initial" 
d="M323 390.5q49 -27.5 137 -91.5q106 -77 163 -112l-4 -17l-19 -3q-71 -9 -135.5 -29.5t-151.5 -56.5q-102 -41 -170 -61t-143 -20l-15 12l17 10q73 0 140.5 19.5t166.5 58.5q91 36 151.5 55.5t130.5 29.5q-62 41 -132 93q-87 64 -136 91t-100 27q-28 0 -52 -8.5t-50 -26.5
l-12 18q29 21 56 30t59 9q50 0 99 -27.5zM179 542l22 27l26 -23l-22 -27z" />
    <glyph glyph-name="uniFEA8" unicode="&#x62e;" horiz-adv-x="764" arabic-form="medial" 
d="M778 11l-14 -11q-96 0 -164.5 47t-94.5 148q-51 -11 -96.5 -32.5t-114.5 -60.5q-62 -34 -103.5 -54t-90 -34t-100.5 -14l-15 11l17 11q70 0 131.5 24t150.5 72q83 45 145 70.5t134 32.5q-49 21 -88 43t-94 56q-64 41 -102 58.5t-79 17.5q-28 0 -51.5 -8.5t-50.5 -26.5
l-10 19q28 20 54.5 29t58.5 9q43 0 82.5 -19t107.5 -62q60 -38 104.5 -63.5t101.5 -49.5l-3 -19l-28 -1q-23 -2 -44 -6q50 -176 244 -176zM181 546l22 27l26 -23l-22 -27z" />
    <glyph glyph-name="uniFEAA" unicode="&#x62f;" horiz-adv-x="505" arabic-form="final" 
d="M520 11l-15 -11q-48 0 -76 17t-43 51q-77 -80 -204 -80q-44 0 -80 8t-73 22l8 21q36 -14 70 -21t76 -7q58 0 107.5 19t86.5 55l-153 380l23 10l142 -369q18 -47 43.5 -65.5t74.5 -18.5z" />
    <glyph glyph-name="uniFEAC" unicode="&#x630;" horiz-adv-x="505" arabic-form="final" 
d="M520 11l-15 -11q-48 0 -76 17t-43 51q-77 -80 -204 -80q-44 0 -80 8t-73 22l8 21q36 -14 70 -21t76 -7q58 0 107.5 19t86.5 55l-153 380l23 10l142 -369q18 -47 43.5 -65.5t74.5 -18.5zM130 633l22 27l26 -23l-22 -27z" />
    <glyph glyph-name="uniFEAE" unicode="&#x631;" horiz-adv-x="409" arabic-form="final" 
d="M424 11l-15 -11q-32 0 -52 6.5t-37 25.5q-67 -151 -344 -284l-10 24q266 120 342 273q-10 50 -28 108.5t-37 107.5l24 9q11 -32 25.5 -86t29.5 -113q7 -27 28 -38t61 -11z" />
    <glyph glyph-name="uniFEB0" unicode="&#x632;" horiz-adv-x="409" arabic-form="final" 
d="M424 11l-15 -11q-32 0 -52 6.5t-37 25.5q-67 -151 -344 -284l-10 24q266 120 342 273q-10 50 -28 108.5t-37 107.5l24 9q11 -32 25.5 -86t29.5 -113q7 -27 28 -38t61 -11zM211 430l22 27l26 -23l-22 -27z" />
    <glyph glyph-name="uniFEB2" unicode="&#x633;" horiz-adv-x="1206" arabic-form="final" 
d="M1206 0q-99 0 -165 56q-18 -26 -49.5 -41t-72.5 -15q-47 0 -81 18.5t-47 43.5q-9 -28 -44.5 -45t-75.5 -17q-26 0 -50.5 9.5t-40.5 29.5q4 -38 4 -88q-3 -43 -40.5 -86t-102.5 -71.5t-144 -28.5q-121 0 -177.5 55.5t-56.5 150.5q0 87 36 173l16 -6q-32 -83 -32 -166
q0 -86 51.5 -135.5t164.5 -49.5q68 0 123 22t91.5 55.5t52.5 68.5q2 71 -8.5 127.5t-25.5 95.5t-39 90q-4 9 -7.5 16t-5.5 12l22 9q52 -115 71 -195q8 -33 34 -49.5t66 -16.5q41 0 70.5 17.5t36.5 42.5l-20 224h22l17 -223q14 -25 45 -43t76 -18q35 0 65.5 14.5t44.5 34.5
q-10 107 -48 298l22 6q35 -167 44 -299q33 -26 67.5 -40t93.5 -14l12 -11z" />
    <glyph glyph-name="uniFEB3" unicode="&#x633;" horiz-adv-x="729" arabic-form="initial" 
d="M637 241q17 -68 17 -163q-4 -32 -43.5 -55t-86.5 -23q-46 0 -79.5 18t-48.5 43q-10 -28 -45.5 -44.5t-74.5 -16.5q-47 0 -80.5 18.5t-46.5 43.5q-10 -29 -50.5 -45.5t-99.5 -16.5l-14 10l16 12q61 0 95.5 16.5t41.5 43.5l-20 224h22l17 -223q14 -25 45 -43t76 -18
q41 0 71 17.5t36 42.5l-20 224h22l18 -223q13 -25 44 -43t76 -18q34 0 65 14.5t45 34.5q-1 94 -19 159.5t-50 135.5l22 9q32 -66 49 -134z" />
    <glyph glyph-name="uniFEB4" unicode="&#x633;" horiz-adv-x="812" arabic-form="medial" 
d="M812 0q-98 0 -166 56q-17 -26 -49.5 -41t-72.5 -15q-46 0 -79.5 18t-48.5 43q-10 -28 -45.5 -44.5t-74.5 -16.5q-47 0 -80.5 18.5t-46.5 43.5q-10 -29 -50.5 -45.5t-99.5 -16.5l-14 10l16 12q61 0 95.5 16.5t41.5 43.5l-20 224h22l17 -223q14 -25 45 -43t76 -18
q41 0 71 17.5t36 42.5l-20 224h22l18 -223q13 -25 44 -43t76 -18q35 0 65.5 14.5t44.5 34.5q-5 63 -16.5 131t-31.5 167l23 6q34 -170 44 -299q32 -26 66.5 -40t93.5 -14l12 -11z" />
    <glyph glyph-name="uniFEB6" unicode="&#x634;" horiz-adv-x="1206" arabic-form="final" 
d="M1206 0q-99 0 -165 56q-18 -26 -49.5 -41t-72.5 -15q-47 0 -81 18.5t-47 43.5q-9 -28 -44.5 -45t-75.5 -17q-26 0 -50.5 9.5t-40.5 29.5q4 -38 4 -88q-3 -43 -40.5 -86t-102.5 -71.5t-144 -28.5q-121 0 -177.5 55.5t-56.5 150.5q0 87 36 173l16 -6q-32 -83 -32 -166
q0 -86 51.5 -135.5t164.5 -49.5q68 0 123 22t91.5 55.5t52.5 68.5q2 71 -8.5 127.5t-25.5 95.5t-39 90q-4 9 -7.5 16t-5.5 12l22 9q52 -115 71 -195q8 -33 34 -49.5t66 -16.5q41 0 70.5 17.5t36.5 42.5l-20 224h22l17 -223q14 -25 45 -43t76 -18q35 0 65.5 14.5t44.5 34.5
q-10 107 -48 298l22 6q35 -167 44 -299q33 -26 67.5 -40t93.5 -14l12 -11zM770 544l-19 -23l-22 18l19 23zM828 459l-20 -23l-21 18l19 23zM722 452l-19 -23l-22 18l20 23z" />
    <glyph glyph-name="uniFEB7" unicode="&#x634;" horiz-adv-x="729" arabic-form="initial" 
d="M637 241q17 -68 17 -163q-4 -32 -43.5 -55t-86.5 -23q-46 0 -79.5 18t-48.5 43q-10 -28 -45.5 -44.5t-74.5 -16.5q-47 0 -80.5 18.5t-46.5 43.5q-10 -29 -50.5 -45.5t-99.5 -16.5l-14 10l16 12q61 0 95.5 16.5t41.5 43.5l-20 224h22l17 -223q14 -25 45 -43t76 -18
q41 0 71 17.5t36 42.5l-20 224h22l18 -223q13 -25 44 -43t76 -18q34 0 65 14.5t45 34.5q-1 94 -19 159.5t-50 135.5l22 9q32 -66 49 -134zM384 544l-19 -23l-22 18l19 23zM442 459l-20 -23l-21 18l19 23zM336 452l-19 -23l-22 18l20 23z" />
    <glyph glyph-name="uniFEB8" unicode="&#x634;" horiz-adv-x="812" arabic-form="medial" 
d="M812 0q-98 0 -166 56q-17 -26 -49.5 -41t-72.5 -15q-46 0 -79.5 18t-48.5 43q-10 -28 -45.5 -44.5t-74.5 -16.5q-47 0 -80.5 18.5t-46.5 43.5q-10 -29 -50.5 -45.5t-99.5 -16.5l-14 10l16 12q61 0 95.5 16.5t41.5 43.5l-20 224h22l17 -223q14 -25 45 -43t76 -18
q41 0 71 17.5t36 42.5l-20 224h22l18 -223q13 -25 44 -43t76 -18q35 0 65.5 14.5t44.5 34.5q-5 63 -16.5 131t-31.5 167l23 6q34 -170 44 -299q32 -26 66.5 -40t93.5 -14l12 -11zM376 544l-19 -23l-22 18l19 23zM434 459l-20 -23l-21 18l19 23zM328 452l-19 -23l-22 18
l20 23z" />
    <glyph glyph-name="uniFEBA" unicode="&#x635;" horiz-adv-x="1320" arabic-form="final" 
d="M1335 11l-15 -11q-46 0 -79 24t-52 65q-33 -43 -119 -66t-239 -23h-160q-26 0 -50.5 9.5t-40.5 29.5q4 -38 4 -88q-3 -43 -40.5 -86t-102.5 -71.5t-144 -28.5q-121 0 -177.5 55.5t-56.5 150.5q0 87 36 173l16 -6q-32 -83 -32 -166q0 -86 51.5 -135.5t164.5 -49.5
q68 0 123 22t91.5 55.5t52.5 68.5q2 71 -8.5 127.5t-25.5 95.5t-39 90q-4 9 -7.5 16t-5.5 12l22 9q52 -115 71 -195q14 -61 90 -66q43 102 105 182.5t134.5 126.5t144.5 46q167 0 161 -249l-6 -18q13 -37 45.5 -62.5t74.5 -25.5zM1069 43q76 21 117 62q1 15 1 43
q0 106 -37 156t-101 50q-103 0 -201 -90.5t-166 -241.5h149q162 0 238 21z" />
    <glyph glyph-name="uniFEBB" unicode="&#x635;" horiz-adv-x="894" arabic-form="initial" 
d="M818 128q-16 -62 -104 -95t-273 -33h-160q-50 0 -88 19t-51 45q-15 -29 -58 -46.5t-85 -17.5l-14 10l16 12q42 0 80.5 18.5t49.5 42.5l-17 282h22l15 -277q11 -25 43.5 -44.5t78.5 -21.5q43 102 105 182.5t134.5 126.5t144.5 46q167 0 161 -249zM797 148q0 106 -37 156
t-101 50q-103 0 -201 -90.5t-166 -241.5h149q162 0 238 21t117 62q1 15 1 43z" />
    <glyph glyph-name="uniFEBC" unicode="&#x635;" horiz-adv-x="930" arabic-form="medial" 
d="M945 11l-15 -11q-46 0 -79 24t-52 65q-33 -43 -119 -66t-239 -23h-160q-50 0 -88 19t-51 45q-15 -29 -58 -46.5t-85 -17.5l-14 10l16 12q42 0 80.5 18.5t49.5 42.5l-17 282h22l15 -277q11 -25 43.5 -44.5t78.5 -21.5q43 102 105 182.5t134.5 126.5t144.5 46
q167 0 161 -249l-6 -18q13 -37 45.5 -62.5t74.5 -25.5zM679 43q76 21 117 62q1 15 1 43q0 106 -37 156t-101 50q-103 0 -201 -90.5t-166 -241.5h149q162 0 238 21z" />
    <glyph glyph-name="uniFEBE" unicode="&#x636;" horiz-adv-x="1320" arabic-form="final" 
d="M972 465l-26 23l21 27l26 -23zM1335 11l-15 -11q-46 0 -79 24t-52 65q-33 -43 -119 -66t-239 -23h-160q-26 0 -50.5 9.5t-40.5 29.5q4 -38 4 -88q-3 -43 -40.5 -86t-102.5 -71.5t-144 -28.5q-121 0 -177.5 55.5t-56.5 150.5q0 87 36 173l16 -6q-32 -83 -32 -166
q0 -86 51.5 -135.5t164.5 -49.5q68 0 123 22t91.5 55.5t52.5 68.5q2 71 -8.5 127.5t-25.5 95.5t-39 90q-4 9 -7.5 16t-5.5 12l22 9q52 -115 71 -195q14 -61 90 -66q43 102 105 182.5t134.5 126.5t144.5 46q167 0 161 -249l-6 -18q13 -37 45.5 -62.5t74.5 -25.5zM1069 43
q76 21 117 62q1 15 1 43q0 106 -37 156t-101 50q-103 0 -201 -90.5t-166 -241.5h149q162 0 238 21z" />
    <glyph glyph-name="uniFEBF" unicode="&#x636;" horiz-adv-x="894" arabic-form="initial" 
d="M582 465l-26 23l21 27l26 -23zM818 128q-16 -62 -104 -95t-273 -33h-160q-50 0 -88 19t-51 45q-15 -29 -58 -46.5t-85 -17.5l-14 10l16 12q42 0 80.5 18.5t49.5 42.5l-17 282h22l15 -277q11 -25 43.5 -44.5t78.5 -21.5q43 102 105 182.5t134.5 126.5t144.5 46
q167 0 161 -249zM797 148q0 106 -37 156t-101 50q-103 0 -201 -90.5t-166 -241.5h149q162 0 238 21t117 62q1 15 1 43z" />
    <glyph glyph-name="uniFEC0" unicode="&#x636;" horiz-adv-x="930" arabic-form="medial" 
d="M582 465l-26 23l21 27l26 -23zM945 11l-15 -11q-46 0 -79 24t-52 65q-33 -43 -119 -66t-239 -23h-160q-50 0 -88 19t-51 45q-15 -29 -58 -46.5t-85 -17.5l-14 10l16 12q42 0 80.5 18.5t49.5 42.5l-17 282h22l15 -277q11 -25 43.5 -44.5t78.5 -21.5q43 102 105 182.5
t134.5 126.5t144.5 46q167 0 161 -249l-6 -18q13 -37 45.5 -62.5t74.5 -25.5zM679 43q76 21 117 62q1 15 1 43q0 106 -37 156t-101 50q-103 0 -201 -90.5t-166 -241.5h149q162 0 238 21z" />
    <glyph glyph-name="uniFEC2" unicode="&#x637;" horiz-adv-x="813" arabic-form="final" 
d="M828 11l-15 -11q-48 0 -81 25.5t-52 67.5q-34 -47 -119 -70t-237 -23h-268l5 22h95q22 54 58 115l-12 595l22 3l9 -569q65 98 145.5 154.5t161.5 56.5q165 0 161 -235q-3 -11 -8 -26q11 -39 44.5 -66.5t77.5 -27.5zM512 34q71 12 109.5 34.5t60.5 58.5q2 118 -35 172.5
t-105 54.5q-103 0 -201 -90.5t-166 -241.5h149q117 0 188 12z" />
    <glyph glyph-name="uniFEC3" unicode="&#x637;" horiz-adv-x="762" arabic-form="initial" 
d="M686 142q-16 -72 -103 -107t-274 -35h-309l-15 11l17 11h139q22 54 58 115l-12 595l22 3l9 -569q65 98 145.5 154.5t161.5 56.5q165 0 161 -235zM632 299.5q-37 54.5 -105 54.5q-103 0 -201 -90.5t-166 -241.5h149q117 0 188 12t109.5 34.5t60.5 58.5q2 118 -35 172.5z
" />
    <glyph glyph-name="uniFEC4" unicode="&#x637;" horiz-adv-x="798" arabic-form="medial" 
d="M813 11l-15 -11q-48 0 -81 25.5t-52 67.5q-34 -47 -119 -70t-237 -23h-309l-15 11l17 11h139q22 54 58 115l-12 595l22 3l9 -569q65 98 145.5 154.5t161.5 56.5q165 0 161 -235q-3 -11 -8 -26q11 -39 44.5 -66.5t77.5 -27.5zM497 34q71 12 109.5 34.5t60.5 58.5
q2 118 -35 172.5t-105 54.5q-103 0 -201 -90.5t-166 -241.5h149q117 0 188 12z" />
    <glyph glyph-name="uniFEC6" unicode="&#x638;" horiz-adv-x="813" arabic-form="final" 
d="M828 11l-15 -11q-48 0 -81 25.5t-52 67.5q-34 -47 -119 -70t-237 -23h-268l5 22h95q22 54 58 115l-12 595l22 3l9 -569q65 98 145.5 154.5t161.5 56.5q165 0 161 -235q-3 -11 -8 -26q11 -39 44.5 -66.5t77.5 -27.5zM512 34q71 12 109.5 34.5t60.5 58.5q2 118 -35 172.5
t-105 54.5q-103 0 -201 -90.5t-166 -241.5h149q117 0 188 12zM435 505l22 27l26 -23l-22 -27z" />
    <glyph glyph-name="uniFEC7" unicode="&#x638;" horiz-adv-x="762" arabic-form="initial" 
d="M686 142q-16 -72 -103 -107t-274 -35h-309l-15 11l17 11h139q22 54 58 115l-12 595l22 3l9 -569q65 98 145.5 154.5t161.5 56.5q165 0 161 -235zM632 299.5q-37 54.5 -105 54.5q-103 0 -201 -90.5t-166 -241.5h149q117 0 188 12t109.5 34.5t60.5 58.5q2 118 -35 172.5z
M420 505l22 27l26 -23l-22 -27z" />
    <glyph glyph-name="uniFEC8" unicode="&#x638;" horiz-adv-x="798" arabic-form="medial" 
d="M813 11l-15 -11q-48 0 -81 25.5t-52 67.5q-34 -47 -119 -70t-237 -23h-309l-15 11l17 11h139q22 54 58 115l-12 595l22 3l9 -569q65 98 145.5 154.5t161.5 56.5q165 0 161 -235q-3 -11 -8 -26q11 -39 44.5 -66.5t77.5 -27.5zM497 34q71 12 109.5 34.5t60.5 58.5
q2 118 -35 172.5t-105 54.5q-103 0 -201 -90.5t-166 -241.5h149q117 0 188 12zM420 505l22 27l26 -23l-22 -27z" />
    <glyph glyph-name="uniFECA" unicode="&#x639;" horiz-adv-x="545" arabic-form="final" 
d="M124 -16.5q-51 -59.5 -51 -134.5q0 -46 24 -84.5t74.5 -62t127.5 -23.5q65 0 124.5 11.5t106.5 30.5l8 -20q-48 -20 -110 -32t-131 -12q-83 0 -138 26.5t-80.5 70t-25.5 94.5q0 81 53 144.5t155 128.5q-27 27 -41 43q-40 43 -74 75t-83 70l2 22q56 23 106 35.5t109 12.5
q49 0 90 -9t65.5 -22t28.5 -26q0 -57 -41.5 -102t-128.5 -101q66 -55 112.5 -76t117.5 -21h23l13 -11l-15 -11h-24q-69 0 -123 25t-122 82q-101 -64 -152 -123.5zM157 254.5q31 -29.5 73 -72.5q25 -27 49 -49q83 52 124.5 95t43.5 95q-18 12 -66 23t-101 11q-95 0 -195 -41
q41 -32 72 -61.5z" />
    <glyph glyph-name="uniFECB" unicode="&#x639;" horiz-adv-x="523" arabic-form="initial" 
d="M497 51q-129 -31 -212 -41t-213 -10h-72l-15 11l17 11h65q104 0 162 5q-77 42 -117 96.5t-40 118.5q0 68 44 111.5t130 43.5q31 0 66.5 -8.5t64.5 -25.5l-6 -21q-29 16 -62.5 24.5t-62.5 8.5q-77 0 -115 -37t-38 -96q0 -125 168 -213q50 5 100.5 15t132.5 29z" />
    <glyph glyph-name="uniFECC" unicode="&#x639;" horiz-adv-x="524" arabic-form="medial" 
d="M539 10l-15 -10h-16q-124 0 -230 91q-2 2 -3 2q-65 -42 -135.5 -67.5t-121.5 -25.5h-18l-15 10l17 12h12q50 0 116 24t128 63q-20 19 -58 60q-6 6 -32 33.5t-56 54.5t-63 52l2 22q112 48 217 48q48 0 88.5 -9t65 -22t29.5 -26q0 -56 -43 -112t-114 -104
q51 -43 100.5 -63.5t117.5 -20.5h14zM144.5 254.5q31.5 -29.5 67.5 -68.5q31 -32 65 -65q70 46 113 99.5t43 102.5q-25 14 -70 24t-95 10q-103 0 -197 -41q42 -32 73.5 -61.5z" />
    <glyph glyph-name="uniFECE" unicode="&#x63a;" horiz-adv-x="545" arabic-form="final" 
d="M124 -16.5q-51 -59.5 -51 -134.5q0 -46 24 -84.5t74.5 -62t127.5 -23.5q65 0 124.5 11.5t106.5 30.5l8 -20q-48 -20 -110 -32t-131 -12q-83 0 -138 26.5t-80.5 70t-25.5 94.5q0 81 53 144.5t155 128.5q-27 27 -41 43q-40 43 -74 75t-83 70l2 22q56 23 106 35.5t109 12.5
q49 0 90 -9t65.5 -22t28.5 -26q0 -57 -41.5 -102t-128.5 -101q66 -55 112.5 -76t117.5 -21h23l13 -11l-15 -11h-24q-69 0 -123 25t-122 82q-101 -64 -152 -123.5zM157 254.5q31 -29.5 73 -72.5q25 -27 49 -49q83 52 124.5 95t43.5 95q-18 12 -66 23t-101 11q-95 0 -195 -41
q41 -32 72 -61.5zM246 511l22 27l26 -23l-22 -27z" />
    <glyph glyph-name="uniFECF" unicode="&#x63a;" horiz-adv-x="523" arabic-form="initial" 
d="M497 51q-129 -31 -212 -41t-213 -10h-72l-15 11l17 11h65q104 0 162 5q-77 42 -117 96.5t-40 118.5q0 68 44 111.5t130 43.5q31 0 66.5 -8.5t64.5 -25.5l-6 -21q-29 16 -62.5 24.5t-62.5 8.5q-77 0 -115 -37t-38 -96q0 -125 168 -213q50 5 100.5 15t132.5 29zM209 521
l22 27l26 -23l-22 -27z" />
    <glyph glyph-name="uniFED0" unicode="&#x63a;" horiz-adv-x="524" arabic-form="medial" 
d="M539 10l-15 -10h-16q-124 0 -230 91q-2 2 -3 2q-65 -42 -135.5 -67.5t-121.5 -25.5h-18l-15 10l17 12h12q50 0 116 24t128 63q-20 19 -58 60q-6 6 -32 33.5t-56 54.5t-63 52l2 22q112 48 217 48q48 0 88.5 -9t65 -22t29.5 -26q0 -56 -43 -112t-114 -104
q51 -43 100.5 -63.5t117.5 -20.5h14zM144.5 254.5q31.5 -29.5 67.5 -68.5q31 -32 65 -65q70 46 113 99.5t43 102.5q-25 14 -70 24t-95 10q-103 0 -197 -41q42 -32 73.5 -61.5zM232 509l22 27l26 -23l-22 -27z" />
    <glyph glyph-name="uniFED2" unicode="&#x641;" horiz-adv-x="925" arabic-form="final" 
d="M940 11l-15 -11h-16q-55 0 -110.5 11.5t-103.5 33.5q-135 -57 -354 -57h-12q-135 0 -200.5 43t-65.5 129q0 74 35 147l16 -6q-31 -68 -31 -139q0 -76 60.5 -114t187.5 -38h12q199 0 329 47q-61 33 -95.5 79.5t-34.5 103.5q0 46 23 89.5t59.5 70.5t73.5 27q39 0 77.5 -27
t62.5 -71t24 -92q0 -52 -35.5 -99t-106.5 -82q87 -34 189 -34h18zM598 138.5q36 -43.5 98 -72.5q72 31 108.5 74.5t36.5 92.5q0 43 -21 83t-54.5 64.5t-67.5 24.5q-32 0 -63.5 -24.5t-52 -63.5t-20.5 -81q0 -54 36 -97.5zM661 566l22 27l26 -23l-22 -27z" />
    <glyph glyph-name="uniFED3" unicode="&#x641;" horiz-adv-x="449" arabic-form="initial" 
d="M324 449.5q48 -78.5 48 -257.5q0 -39 -1 -60q-8 -25 -55.5 -56t-129 -53.5t-186.5 -22.5l-15 12l17 10q132 0 218.5 31.5t130.5 75.5q2 40 2 56q0 19 -2 49q-23 -20 -55.5 -30.5t-68.5 -10.5q-49 0 -89.5 20t-64.5 55t-24 79q0 46 23 88t59 67.5t74 25.5q71 0 119 -78.5z
M294.5 223q31.5 10 56.5 29q-8 137 -49 195.5t-98 58.5q-32 0 -63.5 -22.5t-51.5 -59t-20 -76.5q0 -60 46.5 -97.5t116.5 -37.5q31 0 62.5 10zM172 656l22 27l26 -23l-22 -27z" />
    <glyph glyph-name="uniFED4" unicode="&#x641;" horiz-adv-x="456" arabic-form="medial" 
d="M470 11l-14 -11h-16q-111 0 -204 41q-97 -41 -225 -41h-11l-15 11l17 11h12q114 0 199 30q-64 32 -102 80.5t-38 107.5q0 46 23 89.5t59 70.5t73 27q40 0 78 -27t62 -71t24 -92q0 -53 -34 -101.5t-98 -82.5q85 -31 180 -31h18zM132 135q39 -45 105 -73q66 28 100.5 73
t34.5 98q0 43 -21 83t-54.5 64.5t-67.5 24.5q-32 0 -64 -24.5t-52 -63.5t-20 -81q0 -56 39 -101zM192 564l22 27l26 -23l-22 -27z" />
    <glyph glyph-name="uniFED6" unicode="&#x642;" horiz-adv-x="744" arabic-form="final" 
d="M744 0h-108q0 -40 -1 -62q-8 -41 -47.5 -81t-102.5 -66t-138 -26q-155 0 -219.5 54t-64.5 155q0 85 37 171l16 -5q-17 -43 -25 -82t-8 -83q0 -91 60 -139.5t207 -48.5q95 0 165 40t99 100q1 26 1 73h-94q-96 0 -152 43.5t-56 116.5q0 45 23 86.5t59.5 67t74.5 25.5
q156 0 165 -317h111l12 -11zM615 22q-7 295 -146 295q-32 0 -63.5 -22t-51.5 -58.5t-20 -75.5q0 -66 50.5 -102.5t141.5 -36.5h85h4zM474 462l19 24l22 -18l-19 -24zM369 455l19 24l22 -18l-20 -24z" />
    <glyph glyph-name="uniFED7" unicode="&#x642;" horiz-adv-x="449" arabic-form="initial" 
d="M324 449.5q48 -78.5 48 -257.5q0 -39 -1 -60q-8 -25 -55.5 -56t-129 -53.5t-186.5 -22.5l-15 12l17 10q132 0 218.5 31.5t130.5 75.5q2 40 2 56q0 19 -2 49q-23 -20 -55.5 -30.5t-68.5 -10.5q-49 0 -89.5 20t-64.5 55t-24 79q0 46 23 88t59 67.5t74 25.5q71 0 119 -78.5z
M294.5 223q31.5 10 56.5 29q-8 137 -49 195.5t-98 58.5q-32 0 -63.5 -22.5t-51.5 -59t-20 -76.5q0 -60 46.5 -97.5t116.5 -37.5q31 0 62.5 10zM212 654l19 24l22 -18l-19 -24zM107 647l19 24l22 -18l-20 -24z" />
    <glyph glyph-name="uniFED8" unicode="&#x642;" horiz-adv-x="456" arabic-form="medial" 
d="M470 11l-14 -11h-16q-111 0 -204 41q-97 -41 -225 -41h-11l-15 11l17 11h12q114 0 199 30q-64 32 -102 80.5t-38 107.5q0 46 23 89.5t59 70.5t73 27q40 0 78 -27t62 -71t24 -92q0 -53 -34 -101.5t-98 -82.5q85 -31 180 -31h18zM132 135q39 -45 105 -73q66 28 100.5 73
t34.5 98q0 43 -21 83t-54.5 64.5t-67.5 24.5q-32 0 -64 -24.5t-52 -63.5t-20 -81q0 -56 39 -101zM232 562l19 24l22 -18l-19 -24zM127 555l19 24l22 -18l-20 -24z" />
    <glyph glyph-name="uniFEDA" unicode="&#x643;" horiz-adv-x="812" arabic-form="final" 
d="M827 12l-15 -12q-51 0 -81 29t-42 60q-63 -50 -150 -75.5t-210 -25.5q-135 0 -200.5 43t-65.5 129q0 74 35 147l16 -6q-31 -68 -31 -139q0 -76 60.5 -114t187.5 -38q120 0 205.5 26t147.5 75l-4 621l23 2v-608q0 -20 11 -44t36 -42t64 -18zM303 300q71 0 108 11t60 29
q0 17 -42 47.5t-92 47.5l5 18l151 87l-1 -19l-133 -76q49 -22 87 -50.5t38 -50.5q-6 -27 -54.5 -44t-122.5 -17z" />
    <glyph glyph-name="uniFEDB" unicode="&#x643;" horiz-adv-x="454" arabic-form="initial" 
d="M390 718l-363 -256q124 -78 206 -170.5t95 -188.5q-18 -25 -63 -48.5t-113.5 -39t-151.5 -15.5l-15 11l17 11q115 0 191 25.5t115 59.5q-14 90 -95.5 178.5t-206.5 166.5l4 21l381 269z" />
    <glyph glyph-name="uniFEDC" unicode="&#x643;" horiz-adv-x="529" arabic-form="medial" 
d="M543 12l-14 -12q-49 0 -83 15.5t-66.5 49t-93.5 108.5q-35 -84 -104.5 -128.5t-181.5 -44.5l-15 11l17 11q106 0 171.5 42.5t99.5 125.5l-211 262l4 21l382 269l-2 -25l-364 -256l166 -208q87 -109 126.5 -152t73.5 -61t83 -18z" />
    <glyph glyph-name="uniFEDE" unicode="&#x644;" horiz-adv-x="697" arabic-form="final" 
d="M697 0q-41 0 -75.5 14.5t-59.5 36.5l1 -61q-21 -80 -90 -125.5t-176 -45.5q-121 0 -177.5 55.5t-56.5 150.5q0 87 36 173l16 -5q-32 -85 -32 -166q0 -87 51.5 -136.5t164.5 -49.5q100 0 162.5 40.5t82.5 112.5l-13 738l22 2l9 -657l1 1q26 -25 58 -40.5t78 -15.5l12 -11z
" />
    <glyph glyph-name="uniFEDF" unicode="&#x644;" horiz-adv-x="214" arabic-form="initial" 
d="M-15 11l17 11q31 0 57.5 14.5t41.5 42.5l-13 653l23 2l10 -656q-12 -33 -45 -55.5t-76 -22.5z" />
    <glyph glyph-name="uniFEE0" unicode="&#x644;" horiz-adv-x="236" arabic-form="medial" 
d="M250 11l-15 -11q-43 0 -73.5 18t-43.5 51q-13 -32 -44 -50.5t-74 -18.5l-15 11l17 11q74 0 106 64l-2 647l22 2v-621q2 -45 30 -68.5t79 -23.5z" />
    <glyph glyph-name="uniFEE2" unicode="&#x645;" horiz-adv-x="665" arabic-form="final" 
d="M665 0q-47 0 -85 16.5t-64 40.5q-14 -27 -51 -48t-82 -21q-48 0 -89 15.5t-87 42.5q-26 15 -42 22t-29 7q-26 0 -39.5 -24.5t-13.5 -80.5q0 -53 12.5 -121.5t38.5 -177.5l-24 -10q-47 189 -47 308q0 68 18 99t54 31q15 0 33 -9q41 101 72.5 159t63.5 85t72 27
q41 0 74.5 -34.5t52.5 -98.5t19 -150q29 -26 62 -41t83 -15l13 -11zM454 26.5q30 16.5 47 38.5q0 84 -16.5 146t-45.5 95t-66 33q-34 0 -61.5 -25.5t-56.5 -79.5t-69 -152q8 -4 24 -14q51 -28 88 -43t83 -15q43 0 73 16.5z" />
    <glyph glyph-name="uniFEE3" unicode="&#x645;" horiz-adv-x="578" arabic-form="initial" 
d="M430 327q33 -34 52.5 -98.5t19.5 -151.5q-3 -20 -22 -41t-50 -34.5t-70 -13.5q-50 0 -99.5 16.5t-118.5 60.5q-28 -36 -59.5 -50.5t-78.5 -14.5h-4l-15 11l17 11h6q42 0 69 12.5t50 43.5t54 94q38 76 62.5 114.5t51 56.5t62.5 18q40 0 73 -34zM433.5 25q26.5 15 47.5 40
q0 85 -17 147t-46 94.5t-64 32.5q-29 0 -52.5 -17t-48 -56.5t-59.5 -112.5q-20 -41 -40 -72q68 -42 113.5 -56.5t91.5 -14.5q48 0 74.5 15z" />
    <glyph glyph-name="uniFEE4" unicode="&#x645;" horiz-adv-x="645" arabic-form="medial" 
d="M645 0q-47 0 -85.5 16.5t-64.5 41.5q-14 -29 -50 -49.5t-85 -20.5q-50 0 -99.5 16.5t-118.5 60.5q-28 -36 -59.5 -50.5t-78.5 -14.5h-4l-15 11l17 11h6q42 0 69 12.5t50 43.5t54 94q38 76 62.5 114.5t51 56.5t62.5 18q40 0 73 -34t52.5 -98.5t19.5 -150.5q29 -26 62 -41
t83 -15l13 -11zM433.5 25q26.5 15 47.5 40q0 85 -17 147t-46 94.5t-64 32.5q-29 0 -52.5 -17t-48 -56.5t-59.5 -112.5q-20 -41 -40 -72q68 -42 113.5 -56.5t91.5 -14.5q48 0 74.5 15z" />
    <glyph glyph-name="uniFEE6" unicode="&#x646;" horiz-adv-x="671" arabic-form="final" 
d="M686 11l-15 -11q-26 0 -50.5 9.5t-40.5 29.5q4 -38 4 -88q-3 -43 -40.5 -86t-102.5 -71.5t-144 -28.5q-121 0 -177.5 55.5t-56.5 150.5q0 87 36 173l16 -6q-32 -83 -32 -166q0 -86 51.5 -135.5t164.5 -49.5q68 0 123 22t91.5 55.5t52.5 68.5q2 71 -8.5 127.5t-25.5 95.5
t-39 90q-4 9 -7.5 16t-5.5 12l22 9q52 -115 71 -195q8 -33 34 -49.5t66 -16.5zM277 372l22 27l26 -23l-22 -27z" />
    <glyph glyph-name="uniFEE7" unicode="&#x646;" horiz-adv-x="251" arabic-form="initial" 
d="M-15 12l17 10q46 0 87 16t66 46q1 138 -52 285l21 7q52 -150 51 -286q-7 -27 -36 -47.5t-67.5 -31.5t-71.5 -11zM75 520l22 27l26 -23l-22 -27z" />
    <glyph glyph-name="uniFEE8" unicode="&#x646;" horiz-adv-x="289" arabic-form="medial" 
d="M304 11l-15 -11q-51 0 -90 19t-53 44q-15 -29 -60 -46t-87 -17l-14 10l16 12q42 0 82 17.5t52 42.5l-20 224h22l18 -223q13 -24 49 -42.5t86 -18.5zM89 443l22 27l26 -23l-22 -27z" />
    <glyph glyph-name="uniFEEA" unicode="&#x647;" horiz-adv-x="482" arabic-form="final" 
d="M496 11l-14 -11h-7q-56 0 -90.5 26t-42.5 74q-30 -26 -74.5 -43t-93.5 -17q-37 0 -70.5 13t-53.5 33.5t-21 40.5q0 88 85 151t217 91l-4 112l21 3l10 -347q2 -59 30.5 -87t88.5 -28h7zM93 81q34 -20 83 -20q92 0 164 59l-8 228q-126 -26 -204.5 -83t-79.5 -139
q11 -25 45 -45z" />
    <glyph glyph-name="uniFEEB" unicode="&#x647;" horiz-adv-x="628" arabic-form="initial" 
d="M553 63q-3 -18 -24 -35.5t-55 -28.5t-75 -11q-48 0 -96 12t-89 35q-84 -35 -198 -35h-16l-15 11l17 11h11q101 0 177 27q-55 35 -87.5 85t-32.5 108q0 45 19.5 82.5t54.5 59.5t78 22q8 0 20 -2q-55 35 -130 74l11 20q430 -228 430 -435zM123.5 138q33.5 -47 90.5 -79
q66 28 99.5 75.5t33.5 103.5q0 63 -35.5 107t-89.5 44q-58 0 -95 -42.5t-37 -105.5q0 -56 33.5 -103zM482 24q36 14 54 37q-2 68 -54 138.5t-145 139.5q30 -44 30 -101t-33 -107.5t-96 -83.5q76 -37 161 -37q47 0 83 14z" />
    <glyph glyph-name="uniFEEC" unicode="&#x647;" horiz-adv-x="481" arabic-form="medial" 
d="M481 0h-172q53 -19 84 -60.5t31 -108.5q-2 -18 -17.5 -36t-43.5 -29.5t-63 -11.5q-56 0 -99.5 31.5t-68 88t-25.5 126.5h-107l-15 11l17 11h105q1 77 32 150t79 118.5t99 45.5q44 0 73.5 -37t29.5 -97q0 -56 -36.5 -107t-97.5 -73h197l13 -11zM227 272.5
q-43 -41.5 -71 -109.5t-30 -141h81q56 0 99.5 25.5t68 66.5t24.5 86q0 50 -24.5 82t-60.5 32q-44 0 -87 -41.5zM378.5 -77q-25.5 39 -66.5 58t-89 19h-26h-71q2 -101 48.5 -162.5t123.5 -61.5q44 0 72 16.5t34 33.5q0 58 -25.5 97z" />
    <glyph glyph-name="uniFEEE" unicode="&#x648;" horiz-adv-x="509" arabic-form="final" 
d="M509 0h-101q-18 -94 -100.5 -156.5t-236.5 -84.5l-8 22q286 39 324 219h-84q-101 0 -159 42.5t-58 111.5q0 46 23 88t59.5 67.5t74.5 25.5q42 0 81 -33t64 -96t25 -149q0 -13 -2 -35h100l13 -11zM393 49q0 84 -22 144t-56.5 90t-72.5 30q-32 0 -64 -22.5t-52 -58.5
t-20 -76q0 -62 52.5 -98t149.5 -36h83q2 18 2 27z" />
    <glyph glyph-name="uniFEF0" unicode="&#x649;" horiz-adv-x="699" arabic-form="final" 
d="M699 0q-33 0 -66 8.5t-72 24.5q21 -17 32 -41.5t11 -62.5q-5 -18 -45 -46.5t-108 -49.5t-154 -21q-121 0 -177.5 55.5t-56.5 150.5q0 87 36 173l16 -5q-32 -85 -32 -166q0 -87 51.5 -136.5t164.5 -49.5q110 0 182 31t104 61q0 44 -13.5 69.5t-53.5 48t-127 51.5l13 18
q47 -16 125 -47q62 -25 95 -34.5t77 -9.5l13 -11z" />
    <glyph glyph-name="uniFEF2" unicode="&#x64a;" horiz-adv-x="699" arabic-form="final" 
d="M699 0q-33 0 -66 8.5t-72 24.5q21 -17 32 -41.5t11 -62.5q-5 -18 -45 -46.5t-108 -49.5t-154 -21q-121 0 -177.5 55.5t-56.5 150.5q0 87 36 173l16 -5q-32 -85 -32 -166q0 -87 51.5 -136.5t164.5 -49.5q110 0 182 31t104 61q0 44 -13.5 69.5t-53.5 48t-127 51.5l13 18
q47 -16 125 -47q62 -25 95 -34.5t77 -9.5l13 -11zM332 -322l19 23l22 -18l-19 -23zM227 -329l19 23l22 -18l-20 -23z" />
    <glyph glyph-name="uniFEF3" unicode="&#x64a;" horiz-adv-x="251" arabic-form="initial" 
d="M-15 12l17 10q46 0 87 16t66 46q1 138 -52 285l21 7q52 -150 51 -286q-7 -27 -36 -47.5t-67.5 -31.5t-71.5 -11zM142 -141l19 23l22 -18l-19 -23zM37 -148l19 23l22 -18l-20 -23z" />
    <glyph glyph-name="uniFEF4" unicode="&#x64a;" horiz-adv-x="289" arabic-form="medial" 
d="M304 11l-15 -11q-51 0 -90 19t-53 44q-15 -29 -60 -46t-87 -17l-14 10l16 12q42 0 82 17.5t52 42.5l-20 224h22l18 -223q13 -24 49 -42.5t86 -18.5zM183 -141l19 23l22 -18l-19 -23zM78 -148l19 23l22 -18l-20 -23z" />
    <glyph glyph-name=".notdef" horiz-adv-x="666" 
d="M456 -350h-420l198 1400h420zM269 1012l-188 -1324h341l188 1324h-341zM424 426.5q23 -24.5 23 -65.5q0 -8 -2 -26q-7 -53 -33 -81.5t-77 -35.5l-7 -46q-1 -11 -9.5 -17t-17.5 -6q-11 0 -17.5 7t-5.5 18l11 83q53 3 75 20t28 58q1 7 1 20q0 23 -11.5 35.5t-40.5 12.5
t-53 -12l-13 -2q-12 0 -18 7t-4 17q2 19 32.5 28.5t64.5 9.5q51 0 74 -24.5zM316.5 111.5q8.5 -8.5 8.5 -22.5q0 -17 -11 -29t-27 -12t-24.5 11t-6.5 27q1 15 12 24.5t26 9.5q14 0 22.5 -8.5z" />
    <glyph glyph-name=".null" 
 />
    <glyph glyph-name="nonmarkingreturn" unicode="&#xd;" horiz-adv-x="296" 
 />
    <glyph glyph-name="space" unicode=" " horiz-adv-x="296" 
 />
    <glyph glyph-name="exclam" unicode="!" horiz-adv-x="238" 
d="M167 681h21l-66 -479h-21zM71 -2q-6 6 -6 15q0 11 7 18t18 7q10 0 16 -6.5t6 -15.5q0 -11 -7 -17.5t-18 -6.5q-10 0 -16 6z" />
    <glyph glyph-name="quotedbl" unicode="&#x22;" horiz-adv-x="327" 
d="M142 681h23l-36 -240h-18zM280 681h23l-36 -240h-18z" />
    <glyph glyph-name="numbersign" unicode="#" horiz-adv-x="488" 
d="M418 459l-65 -239h78l-4 -20h-80l-54 -200h-25l54 200h-209l-54 -200h-24l54 200h-82l3 20h85l65 239h-80l2 20h83l50 183h24l-50 -183h209l50 183h25l-50 -183h80l-2 -20h-83zM328 220l65 239h-209l-65 -239h209z" />
    <glyph glyph-name="dollar" unicode="$" horiz-adv-x="523" 
d="M182 610.5q-47 -40.5 -47 -106.5q0 -50 33 -80.5t112 -56.5q84 -28 124 -67.5t40 -101.5q0 -51 -21.5 -97t-69.5 -77t-123 -34l-19 -136h-20l19 136q-55 1 -101.5 22t-81.5 57l15 14q32 -34 75.5 -53t96.5 -19q75 0 121.5 27.5t66.5 69.5t20 89q0 54 -35 88.5t-113 61.5
q-87 29 -124 64.5t-37 92.5q0 72 51 118.5t143 47.5l19 141h20l-19 -141q47 -3 83.5 -20t70.5 -48l-15 -15q-34 33 -71 48.5t-83 15.5q-83 0 -130 -40.5z" />
    <glyph glyph-name="percent" unicode="%" horiz-adv-x="760" 
d="M107 -4l18 -11l559 699l-18 11zM128 394.5q-31 33.5 -31 91.5q0 42 16 85t51.5 72.5t89.5 29.5q55 0 85.5 -33t30.5 -92q0 -42 -16 -85t-51.5 -72.5t-89.5 -29.5t-85 33.5zM292 408q30 28 43 67t13 75q0 48 -23 76t-70 28q-49 0 -79.5 -28t-43 -67t-12.5 -75
q0 -47 23 -75.5t70 -28.5q49 0 79 28zM440.5 23.5q-30.5 33.5 -30.5 92.5q0 42 16 84.5t51.5 72t89.5 29.5t85 -33t31 -91q0 -42 -16 -85.5t-51.5 -73t-89.5 -29.5q-55 0 -85.5 33.5zM604.5 37q30.5 28 43.5 67.5t13 74.5q0 48 -23 76t-71 28q-49 0 -79.5 -28t-43 -66.5
t-12.5 -74.5q0 -48 23.5 -76.5t70.5 -28.5q48 0 78.5 28z" />
    <glyph glyph-name="ampersand" unicode="&#x26;" horiz-adv-x="719" 
d="M454.5 656.5q40.5 -35.5 40.5 -89.5q0 -41 -16.5 -72t-58.5 -62.5t-120 -71.5l205 -221q30 46 52.5 92t45.5 104l20 -8q-26 -63 -49.5 -110.5t-55.5 -92.5l110 -119l-20 -13l-104 115q-46 -57 -103 -87.5t-131 -30.5q-80 0 -128 44t-48 114q0 66 38.5 117.5t134.5 100.5
q-41 46 -60.5 85.5t-19.5 81.5q0 40 19 76.5t57 59.5t90 23q61 0 101.5 -35.5zM272.5 651.5q-32.5 -20.5 -48 -52.5t-15.5 -66q0 -37 17 -73.5t61 -84.5q75 38 115 67.5t55 58.5t15 66q0 48 -34 76.5t-85 28.5q-48 0 -80.5 -20.5zM152.5 258q-35.5 -49 -35.5 -111
q0 -60 40.5 -98t112.5 -38q69 0 122.5 28.5t97.5 83.5l-209 229q-93 -45 -128.5 -94z" />
    <glyph glyph-name="quotesingle" unicode="'" horiz-adv-x="189" 
d="M142 681h23l-36 -240h-18z" />
    <glyph glyph-name="parenleft" unicode="(" horiz-adv-x="325" 
d="M334 820q-84 -103 -134.5 -188t-77.5 -181.5t-27 -216.5q0 -71 14 -130.5t36 -108.5t58 -116l-16 -8q-39 69 -62 118.5t-37.5 110.5t-14.5 134q0 123 28 221.5t80.5 184.5t139.5 190z" />
    <glyph glyph-name="parenright" unicode=")" horiz-adv-x="325" 
d="M225.5 710q22.5 -49 37 -109.5t14.5 -133.5q0 -124 -27.5 -222.5t-80 -184.5t-139.5 -190l-14 10q84 103 135 188.5t77.5 181.5t26.5 217q0 71 -14 130.5t-36 109t-57 114.5l16 8q39 -70 61.5 -119z" />
    <glyph glyph-name="asterisk" unicode="*" horiz-adv-x="432" 
d="M272 557l77 -128l-19 -13l-73 130l-110 -130l-18 13l114 127l-145 47l8 19l144 -50l22 160h22l-24 -160l156 52l5 -21z" />
    <glyph glyph-name="plus" unicode="+" horiz-adv-x="485" 
d="M266 341h153l-3 -21h-153l-22 -155h-23l22 155h-154l4 21h153l22 155h23z" />
    <glyph glyph-name="comma" unicode="," horiz-adv-x="161" 
d="M63 31.5q6 -6.5 6 -15.5q0 -7 -3.5 -15.5t-9.5 -18.5l-60 -112h-18l56 124q-12 4 -12 20q0 10 7.5 17t17.5 7t16 -6.5z" />
    <glyph glyph-name="hyphen" unicode="-" horiz-adv-x="399" 
d="M87 323h243l-3 -21h-243z" />
    <glyph glyph-name="period" unicode="." horiz-adv-x="163" 
d="M29 -2q-6 6 -6 15q0 11 7 18t18 7q10 0 16 -6.5t6 -15.5q0 -11 -7 -17.5t-18 -6.5q-10 0 -16 6z" />
    <glyph glyph-name="slash" unicode="/" horiz-adv-x="520" 
d="M461 792l-357 -887l-19 5l356 888z" />
    <glyph glyph-name="zero" unicode="0" horiz-adv-x="541" 
d="M188 603q-57 -70 -84 -175.5t-27 -212.5q0 -111 40 -168t115 -57q84 0 141 69.5t84 175t27 212.5q0 112 -39 169t-115 57q-85 0 -142 -70zM461 449q0 -105 -25 -205.5t-76.5 -166.5t-127.5 -66q-132 0 -132 203q0 104 25 205t77 167t128 66q131 0 131 -203z" />
    <glyph glyph-name="one" unicode="1" horiz-adv-x="393" 
d="M223 0h-22l89 634l-188 -110l-10 18l206 119h18z" />
    <glyph glyph-name="two" unicode="2" horiz-adv-x="464" 
d="M386.5 632.5q41.5 -40.5 41.5 -105.5q0 -60 -28.5 -115.5t-107 -140.5t-249.5 -250l329 1l-8 -22h-353l3 22q176 168 256.5 255.5t107.5 140t27 108.5q0 58 -35 92t-96 34q-50 0 -90.5 -20t-78.5 -59l-17 14q44 44 88.5 65t97.5 21q71 0 112.5 -40.5z" />
    <glyph glyph-name="three" unicode="3" horiz-adv-x="474" 
d="M383 635q39 -38 39 -103q0 -40 -17.5 -79t-54.5 -66.5t-90 -33.5q60 -2 97 -39.5t37 -106.5q0 -50 -23.5 -100t-73.5 -83.5t-125 -33.5q-57 0 -97.5 20.5t-72.5 62.5l17 13q30 -41 66 -58t86 -17q72 0 116.5 31t64 76.5t19.5 90.5q0 67 -38.5 100t-108.5 33h-38l6 20h32
q57 0 96.5 25t59.5 64.5t20 81.5q0 56 -33.5 88.5t-92.5 32.5q-45 0 -85 -16.5t-84 -52.5l-12 15q43 37 87 55t95 18q69 0 108 -38z" />
    <glyph glyph-name="four" unicode="4" horiz-adv-x="503" 
d="M453 187h-94l-26 -187h-22l27 187h-297l3 18l270 468l19 -8l-265 -458h273l32 211h19l-30 -211h94z" />
    <glyph glyph-name="five" unicode="5" horiz-adv-x="474" 
d="M443 641h-280l-38 -265q61 39 128 39q74 0 115.5 -45.5t41.5 -122.5q0 -59 -23.5 -118t-75 -99t-130.5 -40q-104 0 -165 76l17 13q26 -34 62 -51t87 -17q71 0 117.5 37t67.5 91.5t21 107.5q0 70 -36.5 109t-98.5 39q-39 0 -69 -9.5t-65 -31.5h-18l42 307h306z" />
    <glyph glyph-name="six" unicode="6" horiz-adv-x="514" 
d="M411.5 386q40.5 -41 40.5 -119q0 -60 -22.5 -124t-70.5 -108.5t-121 -44.5q-85 0 -124.5 57.5t-39.5 155.5q0 111 34.5 220t99.5 179.5t152 70.5q33 0 57.5 -9.5t47.5 -28.5l-14 -16q-40 34 -92 34q-63 0 -115.5 -45t-88 -123t-51.5 -175q40 54 90.5 85.5t110.5 31.5
q66 0 106.5 -41zM348 53q43 42 62 101.5t19 111.5q0 69 -34 105t-91 36q-110 0 -203 -132q-4 -35 -4 -74q0 -90 34 -140t107 -50q67 0 110 42z" />
    <glyph glyph-name="seven" unicode="7" horiz-adv-x="432" 
d="M443 643l-365 -649l-22 8l361 639h-325l2 20h351z" />
    <glyph glyph-name="eight" unicode="8" horiz-adv-x="526" 
d="M421 279.5q31 -35.5 31 -89.5q0 -59 -28.5 -104.5t-80 -70.5t-117.5 -25q-83 0 -130.5 43t-47.5 113q0 68 42.5 124.5t141.5 91.5q-55 24 -80 56.5t-25 81.5q0 51 27 90.5t71.5 61t94.5 21.5q65 0 108.5 -36.5t43.5 -101.5q0 -63 -34.5 -107t-116.5 -83q69 -30 100 -65.5
zM173.5 424.5q24.5 -29.5 83.5 -53.5l45 -18q80 38 114 81.5t34 101.5q0 56 -36.5 86.5t-93.5 30.5q-45 0 -84.5 -19t-63 -54t-23.5 -80q0 -46 24.5 -75.5zM330 32.5q46 21.5 72.5 62t26.5 96.5q0 53 -31.5 84.5t-104.5 61.5l-38 15q-106 -38 -145 -90t-39 -117
q0 -63 42 -98.5t114 -35.5q57 0 103 21.5z" />
    <glyph glyph-name="nine" unicode="9" horiz-adv-x="508" 
d="M462 480q0 -174 -82 -305.5t-293 -189.5l-5 18q146 45 233.5 129t115.5 231q-40 -53 -89.5 -80.5t-105.5 -27.5q-67 0 -108.5 46.5t-41.5 124.5q0 57 23 114t72 95t122 38q159 0 159 -193zM342 306q48 30 92 88q5 40 5 85q0 85 -32.5 129.5t-103.5 44.5q-68 0 -111.5 -36
t-63.5 -88t-20 -103q0 -70 35 -110t95 -40q56 0 104 30z" />
    <glyph glyph-name="colon" unicode=":" horiz-adv-x="163" 
d="M29 -2q-6 6 -6 15q0 11 7 18t18 7q10 0 16 -6.5t6 -15.5q0 -11 -7 -17.5t-18 -6.5q-10 0 -16 6zM88 413q-6 6 -6 15q0 11 7 18t18 7q10 0 16 -6.5t6 -15.5q0 -11 -7 -17.5t-18 -6.5q-10 0 -16 6z" />
    <glyph glyph-name="semicolon" unicode=";" horiz-adv-x="163" 
d="M63 31.5q6 -6.5 6 -15.5q0 -7 -3.5 -15.5t-9.5 -18.5l-60 -112h-18l56 124q-12 4 -12 20q0 10 7.5 17t17.5 7t16 -6.5zM88 413q-6 6 -6 15q0 11 7 18t18 7q10 0 16 -6.5t6 -15.5q0 -11 -7 -17.5t-18 -6.5q-10 0 -16 6z" />
    <glyph glyph-name="less" unicode="&#x3c;" horiz-adv-x="493" 
d="M446 484l-332 -152l289 -155l-11 -18l-303 166l2 16l349 162z" />
    <glyph glyph-name="equal" unicode="=" horiz-adv-x="486" 
d="M101 420h330l-3 -21h-330zM78 262h330l-3 -21h-330z" />
    <glyph glyph-name="greater" unicode="&#x3e;" horiz-adv-x="495" 
d="M427 341l-2 -16l-351 -166l-7 19l334 156l-290 151l11 18z" />
    <glyph glyph-name="question" unicode="?" horiz-adv-x="441" 
d="M390.5 658.5q35.5 -32.5 35.5 -82.5q0 -43 -17 -74.5t-41.5 -52t-64.5 -46.5q-52 -34 -77 -61.5t-25 -70.5q0 -20 7 -53l-19 -5q-10 32 -10 59q0 34 14.5 59.5t36.5 43.5t58 42q38 25 61 44.5t38.5 47.5t15.5 66q0 43 -29.5 70t-81.5 27q-50 0 -89 -18.5t-82 -59.5
l-15 14q44 43 87.5 63t98.5 20q63 0 98.5 -32.5zM169 -3q-6 6 -6 15q0 11 7 18t18 7q10 0 16 -6.5t6 -15.5q0 -11 -7 -17.5t-18 -6.5q-10 0 -16 6z" />
    <glyph glyph-name="at" unicode="@" horiz-adv-x="1020" 
d="M770.5 648.5q79.5 -43.5 119.5 -119t40 -170.5q0 -83 -22.5 -162t-69.5 -130.5t-117 -51.5q-47 0 -73.5 33t-26.5 90q-64 -121 -166 -121q-61 0 -99.5 43t-38.5 123q0 67 25 134.5t78 113.5t133 46q67 0 126 -34l-35 -260q-3 -21 -3 -42q0 -48 19 -77.5t61 -29.5
q62 0 104.5 49.5t62.5 124.5t20 151q0 90 -38 161t-112.5 111t-180.5 40q-156 0 -260.5 -77.5t-154 -192t-49.5 -225.5q0 -108 45.5 -187.5t127 -122t186.5 -42.5q99 0 189 32l4 -20q-96 -33 -194 -33q-110 0 -196.5 45.5t-135 129.5t-48.5 197q0 117 51.5 236.5t161 200
t273.5 80.5q114 0 193.5 -43.5zM550 73.5q43 36.5 69 95.5l38 261q-50 26 -103 26q-74 0 -122.5 -44t-70 -107.5t-21.5 -124.5q0 -69 31.5 -106t84.5 -37q51 0 94 36.5z" />
    <glyph glyph-name="A" unicode="A" horiz-adv-x="557" 
d="M428 203h-315l-98 -203h-24l333 681h27l142 -681h-24zM424 224l-89 438l-212 -438h301z" />
    <glyph glyph-name="B" unicode="B" horiz-adv-x="587" 
d="M477 318.5q40 -36.5 40 -103.5q0 -55 -24 -103.5t-81 -80t-149 -31.5h-177l96 681h147q95 0 146.5 -36.5t51.5 -108.5q0 -71 -43 -118.5t-113 -56.5q66 -6 106 -42.5zM161 370h166q54 0 94 22t62 59.5t22 83.5q0 63 -45 94t-129 31h-129zM441 77.5q53 56.5 53 138.5
q0 65 -44 99.5t-119 34.5h-173l-46 -329h154q122 0 175 56.5z" />
    <glyph glyph-name="C" unicode="C" horiz-adv-x="538" 
d="M490.5 676.5q35.5 -14.5 65.5 -43.5l-14 -16q-31 28 -61.5 40.5t-76.5 12.5q-104 0 -171 -64.5t-97 -159t-30 -188.5q0 -119 54 -182.5t146 -63.5q53 0 90.5 15.5t74.5 43.5l13 -18q-81 -63 -179 -63q-101 0 -161.5 69.5t-60.5 197.5q0 100 32.5 199.5t104.5 167
t183 67.5q52 0 87.5 -14.5z" />
    <glyph glyph-name="D" unicode="D" horiz-adv-x="619" 
d="M489 627q71 -54 71 -196q0 -112 -34.5 -209.5t-112.5 -159.5t-200 -62h-127l96 681h121q115 0 186 -54zM202 660l-90 -639h104q114 0 186 59.5t103.5 152.5t31.5 199q0 133 -65.5 180.5t-172.5 47.5h-97z" />
    <glyph glyph-name="E" unicode="E" horiz-adv-x="494" 
d="M497 660h-295l-41 -290h255l-3 -21h-255l-46 -328h306l-4 -21h-328l96 681h321z" />
    <glyph glyph-name="F" unicode="F" horiz-adv-x="471" 
d="M492 660h-290l-43 -304h251l-3 -21h-251l-47 -335h-23l96 681h316z" />
    <glyph glyph-name="G" unicode="G" horiz-adv-x="605" 
d="M493.5 676.5q38.5 -14.5 74.5 -44.5l-14 -15q-33 27 -68 40t-81 13q-97 0 -164 -61t-100.5 -156t-33.5 -196q0 -121 55 -183t154 -62q48 0 87 10.5t77 30.5l40 280h-145v21h171l-44 -314q-93 -50 -186 -50q-109 0 -171 69t-62 200q0 106 37 205.5t110 163t175 63.5
q50 0 88.5 -14.5z" />
    <glyph glyph-name="H" unicode="H" horiz-adv-x="660" 
d="M86 0l96 681h23l-44 -309h369l43 309h23l-96 -681h-23l50 351h-369l-49 -351h-23z" />
    <glyph glyph-name="I" unicode="I" horiz-adv-x="268" 
d="M109 0h-23l96 681h23z" />
    <glyph glyph-name="J" unicode="J" horiz-adv-x="278" 
d="M137 87q-8 -53 -22.5 -84.5t-45.5 -55t-89 -47.5l-6 17q50 22 78 44t41.5 51.5t20.5 77.5l83 591h23z" />
    <glyph glyph-name="K" unicode="K" horiz-adv-x="510" 
d="M182 681h23l-96 -681h-23zM164 367l356 314h29l-357 -316l277 -365h-27z" />
    <glyph glyph-name="L" unicode="L" horiz-adv-x="452" 
d="M112 22h289l-8 -22h-307l96 681h23z" />
    <glyph glyph-name="M" unicode="M" horiz-adv-x="762" 
d="M647 0h-22l10 346q5 203 12 317l-280 -579h-22l-119 578q-8 -37 -45 -186q-22 -84 -31 -123l-87 -353h-22l169 681h33l116 -571l274 571h35z" />
    <glyph glyph-name="N" unicode="N" horiz-adv-x="661" 
d="M502 0h-28l-277 658q-2 -41 -22 -182l-67 -476h-22l96 681h29l276 -656q7 78 22 180l66 476h22z" />
    <glyph glyph-name="O" unicode="O" horiz-adv-x="689" 
d="M570 623q60 -68 60 -196q0 -99 -31.5 -199t-104 -169t-186.5 -69q-105 0 -165 69.5t-60 197.5q0 96 32.5 196t105 169t183.5 69q106 0 166 -68zM233 604.5q-67 -66.5 -97 -162t-30 -186.5q0 -118 53.5 -181t148.5 -63q108 0 175 66.5t95 161.5t28 187q0 119 -53 181.5
t-149 62.5q-104 0 -171 -66.5z" />
    <glyph glyph-name="P" unicode="P" horiz-adv-x="558" 
d="M480.5 641.5q54.5 -39.5 54.5 -122.5q0 -102 -63.5 -169.5t-211.5 -67.5h-111l-40 -282h-23l96 681h137q107 0 161.5 -39.5zM454.5 364q56.5 61 56.5 155q0 75 -48 108t-146 33h-115l-50 -357h111q135 0 191.5 61z" />
    <glyph glyph-name="Q" unicode="Q" horiz-adv-x="674" 
d="M605.5 251.5q-24.5 -89.5 -80.5 -158.5t-143 -89q65 -2 116 -17.5t87 -50.5l-17 -18q-43 42 -101.5 57.5t-155.5 14.5h-3q-105 0 -165 69.5t-60 197.5q0 96 32.5 196t105 169t183.5 69q106 0 166 -68t60 -196q0 -86 -24.5 -175.5zM160 75q54 -63 148 -63q108 0 175 66.5
t95 161.5t28 188q0 118 -53 180.5t-149 62.5q-104 0 -171 -66.5t-97 -162.5t-30 -187q0 -117 54 -180z" />
    <glyph glyph-name="R" unicode="R" horiz-adv-x="572" 
d="M486 397q-47 -58 -141 -71l146 -326h-25l-145 324h-166l-46 -324h-23l96 681h154q197 0 197 -150q0 -76 -47 -134zM302 345q72 0 118.5 27t67.5 69t21 90q0 64 -41.5 96.5t-134.5 32.5h-131l-44 -315h144z" />
    <glyph glyph-name="S" unicode="S" horiz-adv-x="536" 
d="M420.5 673q40.5 -18 74.5 -52l-14 -15q-33 34 -70 49.5t-87 15.5q-58 0 -99.5 -20.5t-63 -55t-21.5 -74.5q0 -55 33.5 -85.5t116.5 -56.5q88 -29 128 -69.5t40 -109.5q0 -49 -25 -97.5t-78.5 -80.5t-132.5 -32q-64 0 -110 21t-84 62l15 14q35 -37 77 -56t101 -19
q75 0 123 29.5t69.5 72.5t21.5 86q0 61 -36 96.5t-118 62.5q-91 30 -127.5 65.5t-36.5 96.5q0 44 23.5 83t70.5 63t113 24q56 0 96.5 -18z" />
    <glyph glyph-name="T" unicode="T" horiz-adv-x="476" 
d="M515 659h-210l-93 -659h-22l93 659h-210l2 22h447z" />
    <glyph glyph-name="U" unicode="U" horiz-adv-x="641" 
d="M521 207q-14 -100 -73 -158.5t-163 -58.5q-93 0 -138 45.5t-45 124.5q0 14 4 48l66 473h23l-66 -472q-3 -24 -3 -46q0 -72 38.5 -111.5t120.5 -39.5q95 0 148 53.5t65 144.5l66 471h23z" />
    <glyph glyph-name="V" unicode="V" horiz-adv-x="534" 
d="M244 0h-28l-129 681h23l123 -660l308 660h24z" />
    <glyph glyph-name="W" unicode="W" horiz-adv-x="790" 
d="M556 0h-26l-79 659l-264 -659h-27l-63 681h23l58 -655l262 655h28l78 -657l242 657h23z" />
    <glyph glyph-name="X" unicode="X" horiz-adv-x="486" 
d="M270 370l162 -370h-24l-154 353l-249 -353h-25l261 370l-141 311h25l132 -295l214 295h25z" />
    <glyph glyph-name="Y" unicode="Y" horiz-adv-x="494" 
d="M261 271l-38 -271h-23l38 270l-158 411h25l146 -388l254 388h27z" />
    <glyph glyph-name="Z" unicode="Z" horiz-adv-x="509" 
d="M8 21l479 639h-352l3 21h380l-2 -19l-480 -640h376l-6 -22h-401z" />
    <glyph glyph-name="bracketleft" unicode="[" horiz-adv-x="312" 
d="M303 779h-107l-123 -868h107l-2 -17h-127l128 902h126z" />
    <glyph glyph-name="backslash" unicode="\" horiz-adv-x="520" 
d="M337 -90l-21 -5l-107 887l20 6z" />
    <glyph glyph-name="bracketright" unicode="]" horiz-adv-x="312" 
d="M158 -106h-127l2 17h107l123 868h-107l2 17h127z" />
    <glyph glyph-name="asciicircum" unicode="^" horiz-adv-x="524" 
d="M484 527h-27l-120 269l-195 -269h-29l219 296h16z" />
    <glyph glyph-name="underscore" unicode="_" horiz-adv-x="520" 
d="M-5 -79h436l-3 -21h-436z" />
    <glyph glyph-name="grave" unicode="`" horiz-adv-x="244" 
d="M272 669l-9 -15l-166 84l13 23z" />
    <glyph glyph-name="a" unicode="a" horiz-adv-x="548" 
d="M406 518.5q34 -10.5 67 -30.5l-54 -376q-4 -32 -4 -44q0 -23 8 -38t28 -23l-7 -17q-25 10 -37 28.5t-12 49.5q0 7 2 29q-31 -50 -75 -78.5t-94 -28.5q-75 0 -117.5 53.5t-42.5 146.5q0 78 26.5 156t85 130.5t148.5 52.5q44 0 78 -10.5zM192.5 460q-53.5 -50 -78 -123.5
t-24.5 -145.5q0 -85 36 -132.5t102 -47.5q102 0 172 124l49 342q-53 33 -121 33q-82 0 -135.5 -50z" />
    <glyph glyph-name="b" unicode="b" horiz-adv-x="565" 
d="M458.5 480.5q39.5 -48.5 39.5 -141.5q0 -78 -25 -158t-82 -135.5t-146 -55.5q-43 0 -78.5 7.5t-81.5 26.5l100 709l22 3l-41 -300q79 93 179 93q74 0 113.5 -48.5zM247.5 483.5q-42.5 -25.5 -86.5 -75.5l-51 -369q33 -14 63.5 -21t70.5 -7q83 0 135 53t74.5 128.5
t22.5 146.5q0 83 -33.5 126.5t-97.5 43.5q-55 0 -97.5 -25.5z" />
    <glyph glyph-name="c" unicode="c" horiz-adv-x="464" 
d="M449 479l-14 -14q-46 44 -116 44q-76 0 -127.5 -47.5t-75.5 -119.5t-24 -145q0 -91 41.5 -138.5t113.5 -47.5t135 48l12 -16q-68 -53 -148 -53q-81 0 -129 54t-48 153q0 78 27 154.5t83.5 127t140.5 50.5q79 0 129 -50z" />
    <glyph glyph-name="d" unicode="d" horiz-adv-x="569" 
d="M518 733l-104 -733h-18l15 130q-36 -63 -81 -101.5t-108 -38.5q-71 0 -112.5 53t-41.5 147q0 76 24.5 154t79.5 131.5t139 53.5q55 0 90 -24t54 -60l41 291zM185.5 459q-49.5 -50 -72.5 -123.5t-23 -144.5q0 -86 35.5 -133t97.5 -47q61 0 105.5 41t88.5 119l34 245
q-42 93 -140 93q-76 0 -125.5 -50z" />
    <glyph glyph-name="e" unicode="e" horiz-adv-x="509" 
d="M374 274q-97 -49 -284 -60v-18q0 -92 41 -138.5t113 -46.5q45 0 79.5 13.5t75.5 42.5l12 -16q-41 -31 -80.5 -46t-86.5 -15q-83 0 -129.5 53t-46.5 152q0 76 28 153t87 129t145 52q65 0 104 -32t39 -86q0 -88 -97 -137zM205 468q-51 -41 -78.5 -103.5t-34.5 -130.5
q356 21 356 176q0 46 -31.5 72.5t-88.5 26.5q-72 0 -123 -41z" />
    <glyph glyph-name="f" unicode="f" horiz-adv-x="307" 
d="M230.5 691.5q-31.5 -25.5 -38.5 -77.5l-13 -95h147l-6 -20h-144l-69 -494q-8 -63 -24.5 -99t-42.5 -57.5t-72 -43.5l-7 18q41 20 64 40t38 53.5t23 90.5l69 492h-90l2 20h90l14 98q8 57 45 88.5t92 31.5q63 0 116 -35l-10 -16q-28 16 -51.5 23.5t-53.5 7.5
q-47 0 -78.5 -25.5z" />
    <glyph glyph-name="g" unicode="g" horiz-adv-x="555" 
d="M406.5 518.5q33.5 -10.5 67.5 -30.5l-71 -493q-28 -192 -193 -192q-84 0 -164 47l9 17q37 -21 73.5 -32.5t81.5 -11.5q67 0 112.5 40t58.5 130l17 115q-31 -51 -75 -79.5t-94 -28.5q-75 0 -117.5 55t-42.5 148q0 74 26.5 149t84.5 126t146 51q47 0 80.5 -10.5z
M192.5 461.5q-52.5 -48.5 -77 -120t-23.5 -140.5q0 -83 36 -131.5t101 -48.5q103 0 174 123l48 333q-53 33 -125 33q-81 0 -133.5 -48.5z" />
    <glyph glyph-name="h" unicode="h" horiz-adv-x="581" 
d="M457.5 498q29.5 -31 29.5 -90q0 -18 -3 -39l-52 -369h-22l52 367q3 21 3 39q0 104 -99 104q-62 0 -115.5 -49.5t-102.5 -145.5l-45 -315h-22l104 733l22 3l-53 -377q42 84 97.5 127t117.5 43q59 0 88.5 -31z" />
    <glyph glyph-name="i" unicode="i" horiz-adv-x="258" 
d="M103 0h-22l74 519h22zM177 689.5q-5 4.5 -5 12.5q0 9 6 15.5t15 6.5t14 -5t5 -13t-6 -14.5t-16 -6.5q-8 0 -13 4.5z" />
    <glyph glyph-name="j" unicode="j" horiz-adv-x="258" 
d="M-41 -178q40 20 63.5 40t38 54t22.5 91l72 512h22l-72 -514q-9 -63 -25.5 -99t-42.5 -57.5t-72 -43.5zM177 689.5q-5 4.5 -5 12.5q0 9 6 15.5t15 6.5t14 -5t5 -13t-6 -14.5t-16 -6.5q-8 0 -13 4.5z" />
    <glyph glyph-name="k" unicode="k" horiz-adv-x="505" 
d="M152 347q45 92 100 137t115 45q51 0 80.5 -28t29.5 -77q0 -125 -182 -184l121 -240h-24l-125 250q188 54 188 174q0 40 -22 63t-67 23q-122 0 -221 -212l-42 -298h-22l104 733l22 3z" />
    <glyph glyph-name="l" unicode="l" horiz-adv-x="276" 
d="M108 73q-1 -6 -1 -17q0 -45 44 -45q17 0 41 8l5 -19q-26 -10 -47 -10q-31 0 -48 16.5t-17 48.5q0 6 2 20l92 658l22 3z" />
    <glyph glyph-name="m" unicode="m" horiz-adv-x="847" 
d="M725.5 498.5q26.5 -30.5 26.5 -87.5q0 -19 -3 -42l-51 -369h-22l51 367q3 23 3 42q0 50 -21 75.5t-62 25.5q-55 0 -104.5 -48.5t-97.5 -144.5l-45 -317h-22l52 367q3 23 3 41q0 50 -21.5 76t-61.5 26q-106 0 -202 -195l-45 -315h-22l74 519h18l-20 -161q43 85 93 128
t106 43q50 0 76.5 -30.5t26.5 -87.5q0 -19 -3 -42l-1 -4q42 81 93 122.5t105 41.5q50 0 76.5 -30.5z" />
    <glyph glyph-name="n" unicode="n" horiz-adv-x="581" 
d="M457 497.5q30 -31.5 30 -90.5q0 -18 -3 -38l-52 -369h-22l52 367q3 21 3 38q0 105 -97 105q-62 0 -116.5 -50t-103.5 -145l-45 -315h-22l74 519h18l-20 -161q44 85 99 128t117 43q58 0 88 -31.5z" />
    <glyph glyph-name="o" unicode="o" horiz-adv-x="561" 
d="M115 44q-46 54 -46 152q0 75 25 151.5t81 129t143 52.5q83 0 129 -52t46 -150q0 -74 -24.5 -151.5t-80.5 -131.5t-144 -54q-83 0 -129 54zM375 61q51 50 73.5 122.5t22.5 143.5q0 88 -39.5 135t-113.5 47q-80 0 -131 -50.5t-73.5 -122.5t-22.5 -141q0 -88 40 -136
t113 -48q80 0 131 50z" />
    <glyph glyph-name="p" unicode="p" horiz-adv-x="564" 
d="M155 519h19l-10 -82q82 92 180 92q75 0 114.5 -49t39.5 -141q0 -78 -25.5 -158t-82.5 -135.5t-146 -55.5q-71 0 -138 27l-30 -211l-22 -3zM378.5 64q52.5 53 75 128.5t22.5 146.5q0 84 -33.5 127t-98.5 43q-55 0 -97.5 -25.5t-85.5 -75.5l-52 -369q63 -28 134 -28
q83 0 135.5 53z" />
    <glyph glyph-name="q" unicode="q" horiz-adv-x="556" 
d="M398 97q-31 -51 -75 -79t-96 -28q-75 0 -117 53.5t-42 146.5q0 78 26.5 156t85 130.5t148.5 52.5q45 0 80 -10.5t68 -30.5l-97 -682l-22 -3zM403 135l49 342q-51 33 -124 33q-82 0 -135.5 -50t-78 -123.5t-24.5 -145.5q0 -85 36 -132.5t102 -47.5q104 0 175 124z" />
    <glyph glyph-name="r" unicode="r" horiz-adv-x="362" 
d="M381 522l-6 -19q-20 6 -42 6q-60 0 -102.5 -44.5t-81.5 -140.5l-46 -324h-22l74 519h19l-21 -148q32 80 75 119t105 39q22 0 48 -7z" />
    <glyph glyph-name="s" unicode="s" horiz-adv-x="449" 
d="M335 516q36 -13 67 -40l-15 -14q-30 24 -61 35.5t-73 11.5q-64 0 -104.5 -30t-40.5 -81q0 -39 26.5 -64.5t98.5 -47.5q78 -25 110.5 -57.5t32.5 -85.5q0 -66 -48.5 -109.5t-138.5 -43.5q-58 0 -98.5 17.5t-74.5 48.5l13 14q35 -29 71 -44t87 -15q73 0 119.5 33.5
t46.5 97.5q0 46 -27.5 74t-101.5 51q-78 25 -108.5 55.5t-30.5 75.5q0 58 48 94.5t120 36.5q46 0 82 -13z" />
    <glyph glyph-name="t" unicode="t" horiz-adv-x="324" 
d="M114 118q-2 -20 -2 -29q0 -79 77 -79q45 0 95 27l8 -17q-53 -30 -105 -30q-46 0 -71.5 25.5t-25.5 73.5q0 8 2 28l53 382h-85l2 20h86l24 131l17 2l-19 -133h144l-6 -20h-140z" />
    <glyph glyph-name="u" unicode="u" horiz-adv-x="576" 
d="M126.5 22.5q-31.5 32.5 -31.5 92.5q0 17 3 35l51 369h22l-51 -369q-3 -19 -3 -36q0 -51 26.5 -77t73.5 -26q64 0 118 51.5t94 141.5l44 315h22l-73 -519h-17l21 164q-35 -80 -90 -127t-121 -47q-57 0 -88.5 32.5z" />
    <glyph glyph-name="v" unicode="v" horiz-adv-x="447" 
d="M206 0h-29l-117 519h23l110 -500l242 500h26z" />
    <glyph glyph-name="w" unicode="w" horiz-adv-x="680" 
d="M474 0h-28l-71 497l-210 -497h-30l-65 519h22l61 -498l211 498h28l71 -498l198 498h23z" />
    <glyph glyph-name="x" unicode="x" horiz-adv-x="433" 
d="M232 277l147 -277h-25l-137 263l-210 -263h-26l224 279l-125 240h24l116 -226l180 226h27z" />
    <glyph glyph-name="y" unicode="y" horiz-adv-x="444" 
d="M205 -2q-30 -61 -55.5 -96t-61 -58t-92.5 -39l-2 19q53 15 84.5 35.5t53 51t51.5 89.5h-10l-113 519h23l108 -503l242 503h25z" />
    <glyph glyph-name="z" unicode="z" horiz-adv-x="400" 
d="M402 501l-380 -480h305l-5 -21h-332l3 18l381 481h-287l3 20h315z" />
    <glyph glyph-name="braceleft" unicode="{" horiz-adv-x="328" 
d="M321 801q-42 0 -64.5 -22t-29.5 -68l-38 -271q-6 -44 -27 -65t-61 -26q32 -5 48 -20.5t16 -47.5q0 -6 -2 -24l-38 -271q-2 -20 -2 -27q0 -32 16.5 -47t52.5 -15l-1 -17q-88 0 -88 80q0 7 2 23l40 284q1 5 1 15q0 57 -71 57l2 20q37 0 61.5 18t30.5 56l39 283
q7 53 35.5 77.5t78.5 24.5z" />
    <glyph glyph-name="bar" unicode="|" horiz-adv-x="413" 
d="M168 -98h-22l125 899h22z" />
    <glyph glyph-name="braceright" unicode="}" horiz-adv-x="328" 
d="M32 -103q42 0 64.5 22t29.5 68l38 271q6 44 27 65t61 26q-32 5 -48 20.5t-16 47.5q0 6 2 24l38 271q2 20 2 27q0 32 -16.5 47t-52.5 15l1 17q41 0 64.5 -20t23.5 -61q0 -6 -2 -22l-40 -284q-1 -5 -1 -15q0 -57 71 -57l-2 -20q-37 0 -61 -18t-30 -56l-40 -283
q-14 -102 -113 -102v17z" />
    <glyph glyph-name="asciitilde" unicode="~" horiz-adv-x="457" 
d="M274.5 287q-16.5 7 -41.5 22q-22 13 -36.5 19.5t-29.5 6.5q-24 0 -40 -10.5t-36 -32.5l-14 10q22 27 42.5 41t47.5 14q19 0 36.5 -7.5t40.5 -21.5q23 -13 36.5 -19.5t28.5 -6.5q22 0 37.5 10t35.5 32l14 -10q-22 -27 -41.5 -40.5t-45.5 -13.5q-18 0 -34.5 7z" />
    <glyph glyph-name="uni00A0" unicode="&#xa0;" horiz-adv-x="297" 
 />
    <glyph glyph-name="exclamdown" unicode="&#xa1;" horiz-adv-x="238" 
d="M129.5 412.5q-6.5 6.5 -6.5 14.5q0 11 7 18t18 7q10 0 16 -6t6 -16q0 -11 -7 -17.5t-18 -6.5q-9 0 -15.5 6.5zM69 -192h-21l63 444h21z" />
    <glyph glyph-name="cent" unicode="&#xa2;" horiz-adv-x="464" 
d="M191.5 461.5q-51.5 -47.5 -75.5 -119.5t-24 -145q0 -91 41.5 -138.5t113.5 -47.5t135 48l12 -16q-68 -53 -148 -53h-2l-19 -136h-20l19 137q-72 8 -113.5 61.5t-41.5 144.5q0 75 25 149t77.5 125t130.5 57l20 148h19l-20 -147q40 0 71 -12t57 -38l-14 -14q-46 44 -116 44
q-76 0 -127.5 -47.5z" />
    <glyph glyph-name="sterling" unicode="&#xa3;" horiz-adv-x="498" 
d="M434.5 656q32.5 -17 57.5 -51l-17 -12q-22 30 -49.5 44.5t-69.5 14.5q-65 0 -105 -41t-49 -107l-19 -140h215l-3 -21h-215l-29 -207q-7 -48 -27 -72.5t-61 -42.5h338l-7 -21h-368l2 21q50 21 72.5 45.5t28.5 69.5l29 207h-63l2 21h63l20 142q10 73 56 120t120 47
q46 0 78.5 -17z" />
    <glyph glyph-name="currency" unicode="&#xa4;" horiz-adv-x="560" 
d="M407 213l80 -79l-15 -15l-81 80q-44 -38 -111 -38q-65 0 -111 38l-81 -80l-15 15l81 80q-22 24 -34 57t-12 69q0 73 44 125l-79 79l15 15l79 -80q46 41 113 41t113 -40l79 79l15 -15l-79 -79q22 -24 33.5 -56t11.5 -69q0 -75 -46 -127zM170.5 225q40.5 -44 109.5 -44
q71 0 111 44t40 115t-39.5 115.5t-111.5 44.5q-70 0 -110 -44.5t-40 -115.5t40.5 -115z" />
    <glyph glyph-name="yen" unicode="&#xa5;" horiz-adv-x="485" 
d="M275 328h122l-2 -20h-133l-16 -118h132l-3 -22h-132l-24 -168h-23l24 168h-132l3 22h132l16 118h-131l2 20h123l-156 333h27l149 -331l241 331h26z" />
    <glyph glyph-name="brokenbar" unicode="&#xa6;" horiz-adv-x="413" 
d="M243 443h-22l51 358h22zM168 -98h-22l50 360h22z" />
    <glyph glyph-name="section" unicode="&#xa7;" horiz-adv-x="531" 
d="M222.5 620.5q-34.5 -31.5 -34.5 -76.5q0 -40 25 -64t96 -50q70 -26 99 -56t29 -76q0 -44 -23 -77t-79 -65q25 -17 36 -38t11 -49q0 -56 -43 -94.5t-126 -38.5q-45 0 -81 11t-69 33l13 17q55 -40 137 -40q77 0 112 32t35 80q0 36 -25.5 61t-90.5 49q-76 28 -107 56.5
t-31 74.5q0 43 25 76t83 67q-27 18 -38 39.5t-11 51.5q0 34 18.5 63.5t55 47t88.5 17.5q43 0 76 -11t66 -32l-12 -17q-30 21 -60.5 30.5t-69.5 9.5q-70 0 -104.5 -31.5zM390.5 362q-24.5 27 -87.5 50q-48 18 -73 32q-56 -34 -78.5 -64t-22.5 -70q0 -38 27 -63.5t96 -50.5
q39 -14 67 -30q56 32 76 62.5t20 69.5q0 37 -24.5 64z" />
    <glyph glyph-name="dieresis" unicode="&#xa8;" horiz-adv-x="265" 
d="M96 677.5q-5 4.5 -5 12.5q0 9 6 15.5t15 6.5t14 -5t5 -13t-6.5 -14.5t-15.5 -6.5q-8 0 -13 4.5zM261 677.5q-5 4.5 -5 12.5q0 9 6 15.5t16 6.5q8 0 13 -5t5 -13q0 -9 -6 -15t-16 -6q-8 0 -13 4.5z" />
    <glyph glyph-name="copyright" unicode="&#xa9;" horiz-adv-x="810" 
d="M572.5 685.5q63.5 -36.5 99.5 -101.5t36 -149q0 -82 -36 -147.5t-99.5 -102.5t-142.5 -37t-142.5 36.5t-99.5 101.5t-36 149q0 82 36 147.5t99.5 102.5t142.5 37t142.5 -36.5zM298.5 667q-58.5 -34 -91.5 -94.5t-33 -137.5q0 -78 33 -138.5t91.5 -94t132.5 -33.5
q73 0 131 34t91 94.5t33 137.5q0 78 -33 138.5t-91 94t-131 33.5q-74 0 -132.5 -34zM477.5 598.5q20.5 -7.5 38.5 -21.5l-11 -15q-16 12 -33 18t-42 6q-26 0 -51 -14.5t-42 -48t-17 -86.5q0 -75 30.5 -113.5t79.5 -38.5q28 0 48 7.5t37 21.5l10 -17q-40 -32 -95 -32
q-59 0 -96 46t-37 126q0 57 20 95t50.5 56t62.5 18q27 0 47.5 -7.5z" />
    <glyph glyph-name="ordfeminine" unicode="&#xaa;" horiz-adv-x="505" 
d="M139 305.5q-29 28.5 -29 74.5q0 62 47 99.5t132 37.5h96l6 45q2 18 2 24q0 39 -21.5 57t-66.5 18q-55 0 -120 -24l-6 19q69 25 127 25q109 0 109 -93q0 -7 -2 -25l-27 -196q-3 -18 -3 -32q0 -15 6 -26t22 -17l-6 -15q-25 7 -34 23.5t-8 48.5q-29 -37 -63.5 -54.5
t-79.5 -17.5q-52 0 -81 28.5zM366 378l16 118h-93q-77 0 -116.5 -30.5t-39.5 -85.5q0 -39 23 -61t64 -22q89 0 146 81zM54 21h330l-3 -21h-330z" />
    <glyph glyph-name="guillemotleft" unicode="&#xab;" horiz-adv-x="533" 
d="M288 494l-169 -206l112 -205l-16 -9l-122 207l1 14l180 208zM477 494l-169 -206l112 -205l-16 -9l-122 207l1 14l180 208z" />
    <glyph glyph-name="logicalnot" unicode="&#xac;" horiz-adv-x="496" 
d="M409 198h-23l15 111h-316l3 21h339z" />
    <glyph glyph-name="uni00AD" unicode="&#xad;" horiz-adv-x="399" 
d="M87 323h243l-3 -21h-243z" />
    <glyph glyph-name="registered" unicode="&#xae;" horiz-adv-x="637" 
d="M466 692.5q51 -28.5 80 -78.5t29 -112q0 -61 -28.5 -112.5t-79.5 -81.5t-115 -30q-63 0 -113.5 28.5t-79.5 79t-29 112.5q0 61 28.5 112t79.5 81t114 30t114 -28.5zM456.5 324.5q46.5 27.5 72.5 74.5t26 103t-26.5 102t-72.5 72t-104 26q-57 0 -103.5 -27.5t-72.5 -74
t-26 -102.5q0 -57 26.5 -102.5t73 -72t102.5 -26.5q58 0 104.5 27.5zM378 489l74 -120h-27l-69 118h-55v-118h-22v269h60q102 0 102 -78q0 -58 -63 -71zM301 506h55q63 0 63 54q0 31 -19 44.5t-57 13.5h-42v-112z" />
    <glyph glyph-name="macron" unicode="&#xaf;" horiz-adv-x="267" 
d="M90 685l3 21h207l-3 -21h-207z" />
    <glyph glyph-name="degree" unicode="&#xb0;" horiz-adv-x="520" 
d="M157 442.5q-33 31.5 -33 87.5q0 46 21.5 83t56.5 57.5t74 20.5q53 0 85.5 -31t32.5 -86q0 -47 -21 -84.5t-56 -58t-75 -20.5q-52 0 -85 31.5zM334.5 471.5q36.5 39.5 36.5 102.5q0 45 -25 71t-70 26q-35 0 -65 -18t-47.5 -50t-17.5 -73q0 -46 26 -72t70 -26
q56 0 92.5 39.5z" />
    <glyph glyph-name="plusminus" unicode="&#xb1;" horiz-adv-x="487" 
d="M44 21h330l-3 -21h-330zM267 341h153l-3 -21h-153l-22 -155h-23l22 155h-154l4 21h153l22 155h23z" />
    <glyph glyph-name="uni00B2" unicode="&#xb2;" horiz-adv-x="400" 
d="M336.5 711.5q26.5 -26.5 26.5 -67.5q0 -44 -25 -85.5t-64 -79.5t-115 -104q-2 -2 -38 -32h211l-7 -21h-233l3 21l36 32q78 68 118.5 107.5t65.5 80t25 81.5q0 35 -20.5 54.5t-57.5 19.5q-58 0 -109 -49l-15 14q31 29 61 42t64 13q47 0 73.5 -26.5z" />
    <glyph glyph-name="uni00B3" unicode="&#xb3;" horiz-adv-x="400" 
d="M341 716q27 -24 27 -64q0 -46 -29.5 -76t-73.5 -35q38 -2 61.5 -24t23.5 -62q0 -61 -41 -100.5t-107 -39.5q-36 0 -63 13.5t-49 39.5l16 11q20 -24 43 -34t53 -10q58 0 92 34t34 87q0 38 -24 56t-68 18h-26l5 19h20q45 0 78 29t33 75q0 31 -21.5 49t-57.5 18
q-29 0 -54.5 -9t-53.5 -30l-12 14q28 23 57 34t64 11q46 0 73 -24z" />
    <glyph glyph-name="acute" unicode="&#xb4;" horiz-adv-x="247" 
d="M283 738l-190 -84l-7 15l188 92z" />
    <glyph glyph-name="uni00B5" unicode="&#xb5;" horiz-adv-x="582" 
d="M437 88q0 -44 10 -89l-20 -3q-11 50 -11 90q0 9 2 37q-40 -62 -88 -97.5t-109 -35.5q-94 0 -111 78q-5 -54 -16 -133l-18 -127l-22 -2l101 713h22l-53 -378q-3 -18 -3 -33q0 -51 28 -74t73 -23q58 0 107.5 38t89.5 105l52 365h22l-49 -350q-7 -43 -7 -81z" />
    <glyph glyph-name="paragraph" unicode="&#xb6;" horiz-adv-x="686" 
d="M576 681l-122 -873l-23 -4l120 857h-142l-120 -853l-22 -4l71 502q-101 3 -146.5 45.5t-45.5 112.5q0 101 67 159t179 58h184z" />
    <glyph glyph-name="periodcentered" unicode="&#xb7;" horiz-adv-x="163" 
d="M73 310q-6 6 -6 15q0 11 7 18t18 7q10 0 16 -6.5t6 -15.5q0 -11 -7 -17.5t-18 -6.5q-10 0 -16 6z" />
    <glyph glyph-name="cedilla" unicode="&#xb8;" horiz-adv-x="214" 
d="M43 -74q43 -3 63.5 -18.5t20.5 -45.5q0 -34 -26 -54t-67 -20q-40 0 -67 18l10 16q23 -14 57 -14q32 0 51 14t19 40q0 25 -19 35.5t-64 11.5l20 100h17z" />
    <glyph glyph-name="uni00B9" unicode="&#xb9;" horiz-adv-x="400" 
d="M249 322h-21l54 385l-118 -65l-10 16l136 74h17z" />
    <glyph glyph-name="ordmasculine" unicode="&#xba;" horiz-adv-x="500" 
d="M414.5 641q37.5 -40 37.5 -115q0 -68 -23.5 -125t-69 -90.5t-106.5 -33.5q-68 0 -105.5 41.5t-37.5 115.5q0 67 23.5 123.5t68.5 90t106 33.5q69 0 106.5 -40zM212.5 630q-39.5 -31 -59.5 -83t-20 -113q0 -66 31 -101.5t89 -35.5q57 0 96.5 32t59.5 84.5t20 114.5
q0 65 -31 99t-89 34q-57 0 -96.5 -31zM51 21h330l-3 -21h-329z" />
    <glyph glyph-name="guillemotright" unicode="&#xbb;" horiz-adv-x="533" 
d="M260 295l-2 -14l-180 -207l-14 9l169 205l-111 206l16 9zM449 295l-2 -14l-180 -207l-14 9l169 205l-111 206l16 9z" />
    <glyph glyph-name="onequarter" unicode="&#xbc;" horiz-adv-x="892" 
d="M242 271h-21l54 385l-118 -65l-10 16l136 74h17zM725 733l-519 -799l-17 9l519 799zM807 112h-59l-16 -112h-21l16 112h-192l2 18l173 288l18 -7l-167 -279h169l20 127h19l-18 -127h59z" />
    </font>
</defs>
</svg>
