<?xml version="1.0" standalone="no"?>
<!DOCTYPE svg PUBLIC "-//W3C//DTD SVG 1.1//EN" "http://www.w3.org/Graphics/SVG/1.1/DTD/svg11.dtd" >
<svg xmlns="http://www.w3.org/2000/svg" xmlns:xlink="http://www.w3.org/1999/xlink" version="1.1">
<metadata>
Created by FontForge 20170731 at Tue Mar 20 17:39:20 2018
 By Aleksey,,,
Digitized data copyright 2012-2018 for FiraGO, bBox Type GmbH and HERE Europe B.V. All rights reserved, with Reserved Font Name "Fira" / Digitized data copyright 2012-2018 for Fira Sans The Mozilla Foundation, Telefonica S.A., Carrois Corporate GbR and bBox Type GmbH, with Reserved Font Name "Fira"
</metadata>
<defs>
<font id="FiraGO-Eight" horiz-adv-x="0" >
  <font-face 
    font-family="FiraGO Eight"
    font-weight="100"
    font-stretch="normal"
    units-per-em="1000"
    panose-1="2 11 2 3 5 0 0 2 0 4"
    ascent="800"
    descent="-200"
    x-height="518"
    cap-height="680"
    bbox="-694 -701 2415 1248"
    underline-thickness="50"
    underline-position="-150"
    unicode-range="U+000D-FEFF"
  />
<missing-glyph horiz-adv-x="666" 
d="M543 -350h-420v1400h420v-1400zM136 1037v-1374h394v1374h-394zM409.5 419q25.5 -32 25.5 -83q0 -53 -22.5 -82t-72.5 -36v-45q0 -11 -7.5 -17.5t-17.5 -6.5t-17.5 6.5t-7.5 17.5v84q53 3 72 19.5t19 57.5q0 33 -13 51t-48 18q-29 0 -52 -11q-8 -3 -13 -3
q-11 0 -17.5 6.5t-6.5 16.5q0 19 29.5 29t63.5 10q60 0 85.5 -32zM340 110q10 -10 10 -25q0 -16 -10 -26.5t-25 -10.5t-25 10.5t-10 26.5q0 15 10 25t25 10t25 -10z" />
    <glyph glyph-name="fi" unicode="fi" horiz-adv-x="542" 
d="M379 698l-4 -6q-66 35 -127 35q-57 0 -86 -28t-29 -87v-94h286v-518h-8v510h-278v-510h-8v510h-91v8h91v95q0 121 123 121q64 0 131 -36z" />
    <glyph glyph-name="fl" unicode="fl" horiz-adv-x="576" 
d="M518 -1q-19 -8 -43 -8q-31 0 -47 19.5t-16 56.5v630q-85 30 -161 30q-56 0 -87 -28t-31 -82v-99h150l-1 -8h-149v-510h-8v510h-91v8h91v100q0 56 33 86t92 30q78 0 163 -30l7 1v-638q0 -69 56 -69q21 0 40 8z" />
    <glyph glyph-name="uniFDF2" unicode="&#x627;&#xfedf;&#xfee0;&#xfeea;" horiz-adv-x="1057" arabic-form="isolated" 
d="M555 745h-6v146l6 1v-147zM959 731v-731h-8v731h8zM461 601q-14 16 -14 49q0 31 10 54l5 -1q-3 -8 -5.5 -23t-2.5 -29q0 -59 46 -59q23 0 35.5 17.5t12.5 42.5v47h6v-47q0 -25 12.5 -42.5t35.5 -17.5q48 0 48 60q0 20 -4.5 36t-13.5 36l6 3q11 -23 15 -39.5t4 -36.5
q0 -33 -14.5 -49.5t-39.5 -16.5q-22 0 -35.5 14t-16.5 35q-3 -21 -16.5 -35t-35.5 -14q-24 0 -38 16zM759 613h8v-505q0 -54 -28.5 -81t-82.5 -27q-46 0 -73.5 20.5t-33.5 60.5q-6 -40 -33.5 -60.5t-74.5 -20.5q-58 0 -85 32t-29 101q-21 -39 -61 -65t-96 -26q-68 0 -104 34
t-36 86q0 75 76 123t221 55v98l7 1v-293q0 -74 25.5 -106t81.5 -32q104 0 104 101v412l7 1v-413q0 -51 27 -76t77 -25q103 0 103 101v504zM327 333q-143 -7 -216.5 -52.5t-73.5 -118.5q0 -48 34.5 -80t99.5 -32q56 0 96 27t60 67v189z" />
    <glyph glyph-name="uniFEF5" unicode="&#xfedf;&#xfe82;" horiz-adv-x="612" arabic-form="isolated" 
d="M495.5 194.5q23.5 -41.5 23.5 -82.5q0 -55 -46.5 -83.5t-138.5 -28.5h-230v7q114 68 190 135.5t120 144.5l-33 34l-293 293l9 2l289 -291q17 -16 32 -32q68 123 68 292v146l7 1v-148q0 -173 -70 -296q49 -52 72.5 -93.5zM512 112q0 39 -23 78.5t-70 90.5
q-44 -76 -118.5 -143t-183.5 -130h217q178 0 178 104zM-2 699q10 22 25 37t32 15q13 0 23.5 -4.5t23.5 -13.5q2 -1 11 -6.5t17.5 -8t16.5 -2.5q14 0 25.5 5.5t26.5 19.5l3 -6q-28 -25 -56 -25q-21 0 -46 17q-2 1 -11 6.5t-17.5 8t-16.5 2.5q-15 0 -28.5 -13.5t-22.5 -33.5z
" />
    <glyph glyph-name="uniFEF6" unicode="&#xfee0;&#xfe82;" horiz-adv-x="640" arabic-form="final" 
d="M645 4l-5 -4q-54 0 -84 28t-33 96q-8 -68 -54.5 -96t-142.5 -28h-237l-1 8h239q79 0 122 18l-289 504l8 1l167 -292q73 -127 119 -211q34 17 50.5 49.5t16.5 85.5v568l7 1v-583q0 -79 28.5 -110t84.5 -31zM70 630q10 22 25 37t32 15q13 0 23.5 -4.5t23.5 -13.5
q2 -1 11 -6.5t17.5 -8t16.5 -2.5q14 0 25.5 5.5t26.5 19.5l3 -6q-28 -25 -56 -25q-21 0 -46 17q-2 1 -11 6.5t-17.5 8t-16.5 2.5q-15 0 -28.5 -13.5t-22.5 -33.5z" />
    <glyph glyph-name="uniFEF7" unicode="&#xfedf;&#xfe84;" horiz-adv-x="612" arabic-form="isolated" 
d="M495.5 194.5q23.5 -41.5 23.5 -82.5q0 -55 -46.5 -83.5t-138.5 -28.5h-230v7q114 68 190 135.5t120 144.5l-33 34l-293 293l9 2l289 -291q17 -16 32 -32q68 123 68 292v146l7 1v-148q0 -173 -70 -296q49 -52 72.5 -93.5zM512 112q0 39 -23 78.5t-70 90.5
q-44 -76 -118.5 -143t-183.5 -130h217q178 0 178 104zM186 716l-173 -27l-1 6l83 13q-31 16 -47.5 37.5t-16.5 45.5q0 28 21 47t61 19q29 0 52 -13l-3 -5q-23 12 -49 12q-37 0 -56.5 -17.5t-19.5 -42.5q0 -23 17.5 -44.5t48.5 -37.5l83 13v-6z" />
    <glyph glyph-name="uniFEF8" unicode="&#xfee0;&#xfe84;" horiz-adv-x="640" arabic-form="final" 
d="M645 4l-5 -4q-54 0 -84 28t-33 96q-8 -68 -54.5 -96t-142.5 -28h-237l-1 8h239q79 0 122 18l-289 504l8 1l167 -292q73 -127 119 -211q34 17 50.5 49.5t16.5 85.5v568l7 1v-583q0 -79 28.5 -110t84.5 -31zM258 647l-173 -27l-1 6l83 13q-31 16 -47.5 37.5t-16.5 45.5
q0 28 21 47t61 19q29 0 52 -13l-3 -5q-23 12 -49 12q-37 0 -56.5 -17.5t-19.5 -42.5q0 -23 17.5 -44.5t48.5 -37.5l83 13v-6z" />
    <glyph glyph-name="uniFEF9" unicode="&#xfedf;&#xfe88;" horiz-adv-x="612" arabic-form="isolated" 
d="M495.5 194.5q23.5 -41.5 23.5 -82.5q0 -55 -46.5 -83.5t-138.5 -28.5h-230v7q114 68 190 135.5t120 144.5l-33 34l-293 293l9 2l289 -291q17 -16 32 -32q68 123 68 292v146l7 1v-148q0 -173 -70 -296q49 -52 72.5 -93.5zM512 112q0 39 -23 78.5t-70 90.5
q-44 -76 -118.5 -143t-183.5 -130h217q178 0 178 104zM276 -207l-173 -27l-1 6l83 13q-31 16 -47.5 37.5t-16.5 45.5q0 28 21 47t61 19q29 0 52 -13l-3 -5q-23 12 -49 12q-37 0 -56.5 -17.5t-19.5 -42.5q0 -23 17.5 -44.5t48.5 -37.5l83 13v-6z" />
    <glyph glyph-name="uniFEFA" unicode="&#xfee0;&#xfe88;" horiz-adv-x="640" arabic-form="final" 
d="M645 4l-5 -4q-54 0 -84 28t-33 96q-8 -68 -54.5 -96t-142.5 -28h-237l-1 8h239q79 0 122 18l-289 504l8 1l167 -292q73 -127 119 -211q34 17 50.5 49.5t16.5 85.5v568l7 1v-583q0 -79 28.5 -110t84.5 -31zM276 -207l-173 -27l-1 6l83 13q-31 16 -47.5 37.5t-16.5 45.5
q0 28 21 47t61 19q29 0 52 -13l-3 -5q-23 12 -49 12q-37 0 -56.5 -17.5t-19.5 -42.5q0 -23 17.5 -44.5t48.5 -37.5l83 13v-6z" />
    <glyph glyph-name="uniFEFB" unicode="&#xfedf;&#xfe8e;" horiz-adv-x="612" arabic-form="isolated" 
d="M495.5 194.5q23.5 -41.5 23.5 -82.5q0 -55 -46.5 -83.5t-138.5 -28.5h-230v7q114 68 190 135.5t120 144.5l-33 34l-293 293l9 2l289 -291q17 -16 32 -32q68 123 68 292v146l7 1v-148q0 -173 -70 -296q49 -52 72.5 -93.5zM512 112q0 39 -23 78.5t-70 90.5
q-44 -76 -118.5 -143t-183.5 -130h217q178 0 178 104z" />
    <glyph glyph-name="uniFEFC" unicode="&#xfee0;&#xfe8e;" horiz-adv-x="640" arabic-form="final" 
d="M645 4l-5 -4q-54 0 -84 28t-33 96q-8 -68 -54.5 -96t-142.5 -28h-237l-1 8h239q79 0 122 18l-289 504l8 1l167 -292q73 -127 119 -211q34 17 50.5 49.5t16.5 85.5v568l7 1v-583q0 -79 28.5 -110t84.5 -31z" />
    <glyph glyph-name="f_f" unicode="ff" horiz-adv-x="578" 
d="M439.5 699q-29.5 -28 -29.5 -82v-99h150l-1 -8h-149v-510h-8v510h-269v-510h-8v510h-91v8h91v90q0 56 33 86t92 30q43 0 83.5 -9.5t84.5 -29.5q15 24 40.5 36.5t58.5 12.5q60 0 112 -32l-3 -7q-52 32 -109 32q-48 0 -77.5 -28zM402 618q0 32 13 60q-43 20 -82 29.5
t-82 9.5q-56 0 -87 -28t-31 -82v-89h269v100z" />
    <glyph glyph-name="f_f_i" unicode="ffi" horiz-adv-x="819" 
d="M696 518v-518h-8v510h-278v-510h-8v510h-269v-510h-8v510h-91v8h91v90q0 56 33 86t92 30q82 0 168 -40q28 50 107 50q65 0 130 -36l-3 -6q-66 35 -127 35q-58 0 -86.5 -28t-28.5 -87v-94h286zM415 678q-43 20 -82 29.5t-82 9.5q-56 0 -87 -28t-31 -82v-89h269v95
q0 40 13 65z" />
    <glyph glyph-name="f_f_j" unicode="ffj" horiz-adv-x="819" 
d="M696 3q0 -60 -10.5 -95.5t-31.5 -57t-60 -42.5l-3 6q37 19 57 40t30 56t10 93v507h-278v-510h-8v510h-269v-510h-8v510h-91v8h91v90q0 56 33 86t92 30q82 0 168 -40q28 50 107 50q65 0 130 -36l-3 -6q-66 35 -127 35q-58 0 -86.5 -28t-28.5 -87v-94h286v-515zM415 678
q-43 20 -82 29.5t-82 9.5q-56 0 -87 -28t-31 -82v-89h269v95q0 40 13 65z" />
    <glyph glyph-name="f_f_l" unicode="ffl" horiz-adv-x="853" 
d="M795 -1q-19 -8 -43 -8q-31 0 -47 19.5t-16 56.5v630q-85 30 -161 30q-56 0 -87 -28t-31 -82v-99h150l-1 -8h-149v-510h-8v510h-269v-510h-8v510h-91v8h91v90q0 56 33 86t92 30q44 0 84.5 -10t84.5 -30q30 50 108 50t163 -30l7 1v-638q0 -69 56 -69q21 0 40 8zM415 678
q-43 20 -82 29.5t-82 9.5q-56 0 -87 -28t-31 -82v-89h269v100q0 32 13 60z" />
    <glyph glyph-name="f_j" unicode="fj" horiz-adv-x="542" 
d="M419 3q0 -60 -10.5 -95.5t-31.5 -57t-60 -42.5l-3 6q37 19 57 40t30 56t10 93v507h-278v-510h-8v510h-91v8h91v95q0 121 123 121q64 0 131 -36l-4 -6q-66 35 -127 35q-57 0 -86 -28t-29 -87v-94h286v-515z" />
    <glyph glyph-name="uni0E240E45" unicode="&#xe24;&#xe45;" horiz-adv-x="882" 
d="M725.5 536.5q43.5 -39.5 43.5 -116.5v-599l-8 1v597q0 74 -40.5 111.5t-135.5 37.5q-82 0 -175 -31q71 -42 71 -149v-577l-8 1v575q0 171 -185 171q-65 0 -120 -33.5t-84 -76.5q82 -12 151 -49v-6q-62 -13 -90 -52.5t-28 -112.5v-146q0 -42 15 -63t46 -21q28 0 55 11
l2 -7q-16 -6 -28 -8.5t-30 -2.5q-68 0 -68 90v147q0 74 28.5 115.5t88.5 53.5q-74 36 -150 45v6q29 46 86.5 82t125.5 36q69 0 114 -24q102 34 183 34q97 0 140.5 -39.5z" />
    <glyph glyph-name="uni0E260E45" unicode="&#xe26;&#xe45;" horiz-adv-x="878" 
d="M721.5 536.5q43.5 -39.5 43.5 -116.5v-599l-8 1v597q0 74 -40.5 111.5t-135.5 37.5q-82 0 -175 -31q71 -42 71 -149v-577l-8 1v575q0 171 -185 171q-65 0 -119.5 -33.5t-83.5 -76.5q82 -12 151 -49v-7q-53 -14 -78 -51.5t-25 -106.5v-112q0 -47 -3.5 -71.5t-18.5 -39
t-48 -14.5l-17 1v7l14 -1q32 0 46 13.5t16.5 36t2.5 69.5v112q0 69 26 108t78 52q-76 38 -152 47v6q28 46 86 82t125 36q69 0 114 -24q102 34 183 34q97 0 140.5 -39.5z" />
    <glyph glyph-name="uni06440671" unicode="&#xfedf;&#xfb51;" horiz-adv-x="612" 
d="M495.5 194.5q23.5 -41.5 23.5 -82.5q0 -55 -46.5 -83.5t-138.5 -28.5h-230v7q114 68 190 135.5t120 144.5l-33 34l-293 293l9 2l289 -291q17 -16 32 -32q68 123 68 292v146l7 1v-148q0 -173 -70 -296q49 -52 72.5 -93.5zM512 112q0 39 -23 78.5t-70 90.5
q-44 -76 -118.5 -143t-183.5 -130h217q178 0 178 104zM204.5 803.5q14.5 -15.5 14.5 -37.5q0 -28 -25.5 -44.5t-68.5 -16.5q-35 0 -101 22l-17 -47l-5 2l18 52l33 -10q47 95 107 95q30 0 44.5 -15.5zM190 726q23 15 23 40q0 19 -12.5 33t-40.5 14q-56 0 -102 -90
q37 -12 68 -12q41 0 64 15z" />
    <glyph glyph-name="uni06440671.fina" unicode="&#xfee0;&#xfb51;" horiz-adv-x="640" 
d="M645 4l-5 -4q-54 0 -84 28t-33 96q-8 -68 -54.5 -96t-142.5 -28h-237l-1 8h239q79 0 122 18l-289 504l8 1l167 -292q73 -127 119 -211q34 17 50.5 49.5t16.5 85.5v568l7 1v-583q0 -79 28.5 -110t84.5 -31zM276.5 734.5q14.5 -15.5 14.5 -37.5q0 -28 -25.5 -44.5
t-68.5 -16.5q-35 0 -101 22l-17 -47l-5 2l18 52l33 -10q47 95 107 95q30 0 44.5 -15.5zM262 657q23 15 23 40q0 19 -12.5 33t-40.5 14q-56 0 -102 -90q37 -12 68 -12q41 0 64 15z" />
    <glyph glyph-name="uni0E1B0E31" unicode="&#xe1b;&#xe31;" horiz-adv-x="596" 
d="M482 677v-470q0 -99 -42 -156.5t-133 -57.5q-93 0 -135.5 57.5t-42.5 156.5v228q0 35 -5.5 63.5t-16.5 57.5l8 1q22 -54 22 -110v0v-239q0 -97 40.5 -152.5t129.5 -55.5q88 0 127.5 55.5t39.5 152.5v468q-19 -2 -46 -2q-52 0 -74.5 13t-22.5 46q0 23 9 41h7
q-8 -19 -8 -41q0 -29 20 -40.5t70 -11.5q27 0 45 2v84l8 -1v-82q78 8 142 29l2 -7q-67 -22 -144 -29z" />
    <glyph glyph-name="uni0E1B0E49" unicode="&#xe1b;&#xe49;" horiz-adv-x="596" 
d="M482 766v-559q0 -99 -42 -156.5t-133 -57.5q-93 0 -135.5 57.5t-42.5 156.5v228q0 35 -5.5 63.5t-16.5 57.5l8 1q22 -54 22 -110v0v-239q0 -97 40.5 -152.5t129.5 -55.5q88 0 127.5 55.5t39.5 152.5v549q-44 -49 -101.5 -66.5t-167.5 -18.5l-3 4q37 31 37 73
q0 26 -15 41.5t-41 15.5q-17 0 -41 -6v6q19 7 42 7q28 0 45.5 -17.5t17.5 -46.5q0 -40 -32 -70q105 1 159.5 19t99.5 69v0v0z" />
    <glyph glyph-name="uni0E1B0E4A" unicode="&#xe1b;&#xe4a;" horiz-adv-x="596" 
d="M482 766v-559q0 -99 -42 -156.5t-133 -57.5q-93 0 -135.5 57.5t-42.5 156.5v228q0 35 -5.5 63.5t-16.5 57.5l8 1q22 -54 22 -110v0v-239q0 -97 40.5 -152.5t129.5 -55.5q88 0 127.5 55.5t39.5 152.5v545q-22 -40 -61.5 -59t-98.5 -19q-12 0 -19 1q7 25 7 56
q0 33 -17.5 53.5t-51.5 20.5t-55 -28.5t-21 -67.5v-24l-7 -1v25q0 40 -19.5 68t-56.5 28q-34 0 -51.5 -22t-17.5 -54q0 -22 8 -54h-7q-3 7 -5.5 21.5t-2.5 32.5q0 35 19.5 59t56.5 24q38 0 56.5 -24t23.5 -57q4 32 24 56.5t56 24.5q37 0 56.5 -23t19.5 -58q0 -28 -7 -51h11
q121 0 160 86z" />
    <glyph glyph-name="uni0E1B0E4B" unicode="&#xe1b;&#xe4b;" horiz-adv-x="596" 
d="M482 766v-559q0 -99 -42 -156.5t-133 -57.5q-93 0 -135.5 57.5t-42.5 156.5v228q0 35 -5.5 63.5t-16.5 57.5l8 1q22 -54 22 -110v0v-239q0 -97 40.5 -152.5t129.5 -55.5q88 0 127.5 55.5t39.5 152.5v559zM408 739h-76v-63h-8v63h-76l1 7h75v59l8 1v-60h76v-7z" />
    <glyph glyph-name="uni0E1B0E4C" unicode="&#xe1b;&#xe4c;" horiz-adv-x="596" 
d="M577 727h-95v-520q0 -99 -42 -156.5t-133 -57.5q-93 0 -135.5 57.5t-42.5 156.5v228q0 35 -5.5 63.5t-16.5 57.5l8 1q22 -54 22 -110v0v-239q0 -97 40.5 -152.5t129.5 -55.5q88 0 127.5 55.5t39.5 152.5v519h-75q-60 0 -60 -50q0 -22 3 -40h-7q-4 22 -4 41q0 25 17 40.5
t51 15.5h75v33l8 -1v-32h95v-7z" />
    <glyph glyph-name="uni0E1B0E4D" unicode="&#xe1b;&#xe4d;" horiz-adv-x="596" 
d="M482 766v-559q0 -99 -42 -156.5t-133 -57.5q-93 0 -135.5 57.5t-42.5 156.5v228q0 35 -5.5 63.5t-16.5 57.5l8 1q22 -54 22 -110v0v-239q0 -97 40.5 -152.5t129.5 -55.5q88 0 127.5 55.5t39.5 152.5v559zM382 795q19 -19 19 -51q0 -31 -19 -51t-51 -20t-51 19t-19 51
q0 31 19.5 51t50.5 20q32 0 51 -19zM285.5 789.5q-16.5 -17.5 -16.5 -46.5t16 -46t46 -17q29 0 45.5 17.5t16.5 46.5t-16 46t-46 17q-29 0 -45.5 -17.5z" />
    <glyph glyph-name="uni0E1D0E31" unicode="&#xe1d;&#xe31;" horiz-adv-x="714" 
d="M600 677v-441q0 -245 -133 -245q-52 0 -81.5 38t-32.5 117q-5 -79 -35.5 -117t-81.5 -38q-59 0 -95 56.5t-36 188.5v91q0 130 37 184.5t97 54.5q24 0 42 -9l-1 -6q-21 8 -41 8q-56 0 -91 -53t-35 -179v-91q0 -129 34 -183.5t89 -54.5q52 0 82.5 43t30.5 135v114l8 1v-117
q0 -92 29.5 -134t80.5 -42q55 0 90 53.5t35 183.5v441q-19 -2 -46 -2q-52 0 -74.5 13t-22.5 46q0 26 9 41h7q-8 -19 -8 -41q0 -29 20 -40.5t70 -11.5q27 0 45 2v84l8 -1v-82q78 8 142 29l1 -7q-66 -21 -143 -29z" />
    <glyph glyph-name="uni0E1D0E49" unicode="&#xe1d;&#xe49;" horiz-adv-x="714" 
d="M600 766v-530q0 -245 -133 -245q-52 0 -81.5 38t-32.5 117q-5 -79 -35.5 -117t-81.5 -38q-59 0 -95 56.5t-36 188.5v91q0 130 37 184.5t97 54.5q24 0 42 -9l-1 -6q-21 8 -41 8q-56 0 -91 -53t-35 -179v-91q0 -129 34 -183.5t89 -54.5q52 0 82.5 43t30.5 135v114l8 1v-117
q0 -92 29.5 -134t80.5 -42q55 0 90 53.5t35 183.5v522q-44 -49 -101.5 -66.5t-167.5 -18.5l-3 4q37 31 37 73q0 26 -15 41.5t-41 15.5q-17 0 -41 -6v6q19 7 42 7q28 0 45.5 -17.5t17.5 -46.5q0 -40 -32 -70q105 1 159.5 19t99.5 69v0v0z" />
    <glyph glyph-name="uni0E1D0E4A" unicode="&#xe1d;&#xe4a;" horiz-adv-x="714" 
d="M600 766v-530q0 -245 -133 -245q-52 0 -81.5 38t-32.5 117q-5 -79 -35.5 -117t-81.5 -38q-59 0 -95 56.5t-36 188.5v91q0 130 37 184.5t97 54.5q24 0 42 -9l-1 -6q-21 8 -41 8q-56 0 -91 -53t-35 -179v-91q0 -129 34 -183.5t89 -54.5q52 0 82.5 43t30.5 135v114l8 1v-117
q0 -92 29.5 -134t80.5 -42q55 0 90 53.5t35 183.5v518q-23 -40 -62 -59t-98 -19q-12 0 -19 1q7 25 7 56q0 33 -17.5 53.5t-51.5 20.5t-55 -28.5t-21 -67.5v-24l-7 -1v25q0 40 -19.5 68t-56.5 28q-34 0 -51.5 -22t-17.5 -54q0 -22 8 -54h-7q-3 7 -5.5 21.5t-2.5 32.5
q0 34 19 58.5t56 24.5q39 0 57.5 -24t22.5 -57q5 32 25.5 56.5t55.5 24.5q37 0 56.5 -23t19.5 -58q0 -28 -7 -51h11q121 0 160 86z" />
    <glyph glyph-name="uni0E1D0E4B" unicode="&#xe1d;&#xe4b;" horiz-adv-x="714" 
d="M600 766v-530q0 -245 -133 -245q-52 0 -81.5 38t-32.5 117q-5 -79 -35.5 -117t-81.5 -38q-59 0 -95 56.5t-36 188.5v91q0 130 37 184.5t97 54.5q24 0 42 -9l-1 -6q-21 8 -41 8q-56 0 -91 -53t-35 -179v-91q0 -129 34 -183.5t89 -54.5q52 0 82.5 43t30.5 135v114l8 1v-117
q0 -92 29.5 -134t80.5 -42q55 0 90 53.5t35 183.5v532zM526 739h-76v-63h-8v63h-76l1 7h75v59l8 1v-60h76v-7z" />
    <glyph glyph-name="uni0E1D0E4C" unicode="&#xe1d;&#xe4c;" horiz-adv-x="714" 
d="M694 727h-94v-491q0 -245 -133 -245q-52 0 -81.5 38t-32.5 117q-5 -79 -35.5 -117t-81.5 -38q-59 0 -95 56.5t-36 188.5v91q0 130 37 184.5t97 54.5q24 0 42 -9l-1 -6q-21 8 -41 8q-56 0 -91 -53t-35 -179v-91q0 -129 34 -183.5t89 -54.5q52 0 82.5 43t30.5 135v114l8 1
v-117q0 -92 29.5 -134t80.5 -42q55 0 90 53.5t35 183.5v492h-75q-60 0 -60 -50q0 -22 3 -40h-7q-4 22 -4 41q0 25 17 40.5t51 15.5h75v33l8 -1v-32h94v-7z" />
    <glyph glyph-name="uni0E1D0E4D" unicode="&#xe1d;&#xe4d;" horiz-adv-x="714" 
d="M600 766v-530q0 -245 -133 -245q-52 0 -81.5 38t-32.5 117q-5 -79 -35.5 -117t-81.5 -38q-59 0 -95 56.5t-36 188.5v91q0 130 37 184.5t97 54.5q24 0 42 -9l-1 -6q-21 8 -41 8q-56 0 -91 -53t-35 -179v-91q0 -129 34 -183.5t89 -54.5q52 0 82.5 43t30.5 135v114l8 1v-117
q0 -92 29.5 -134t80.5 -42q55 0 90 53.5t35 183.5v532zM500 795q19 -19 19 -51q0 -31 -19 -51t-51 -20t-51 19t-19 51q0 31 19.5 51t50.5 20q32 0 51 -19zM403.5 789.5q-16.5 -17.5 -16.5 -46.5t16 -46t46 -17q29 0 45.5 17.5t16.5 46.5t-16 46t-46 17q-29 0 -45.5 -17.5z
" />
    <glyph glyph-name="uni0E1F0E31" unicode="&#xe1f;&#xe31;" horiz-adv-x="767" 
d="M693 676l-20 -118l-91 -558h-10l-189 550l-191 -550h-9l-59 449q-10 78 -38 113l8 2q26 -33 38 -115l56 -440l190 549h9l190 -549l88 549l20 118q-16 -2 -38 -2q-52 0 -74.5 13t-22.5 46q0 25 8 41h8q-9 -18 -9 -41q0 -29 20 -40.5t71 -11.5q22 0 38 2l14 84h8l-14 -84
q83 8 149 30l1 -7q-67 -22 -151 -30z" />
    <glyph glyph-name="uni0E1F0E49" unicode="&#xe1f;&#xe49;" horiz-adv-x="757" 
d="M708 767l-35 -209l-91 -558h-10l-189 550l-191 -550h-9l-59 449q-10 78 -38 113l8 2q26 -33 38 -115l56 -440l190 549h9l190 -549l88 549l18 108l15 82l1 9q-44 -49 -100 -66.5t-163 -18.5l-2 4q37 32 37 72q0 26 -15.5 42t-41.5 16q-18 0 -40 -6l-1 6q21 7 42 7
q29 0 46 -17.5t17 -46.5q0 -41 -31 -70q102 1 155.5 19.5t96.5 69.5l1 -1h8z" />
    <glyph glyph-name="uni0E1F0E4A" unicode="&#xe1f;&#xe4a;" horiz-adv-x="757" 
d="M708 767l-35 -209l-91 -558h-10l-189 550l-191 -550h-9l-59 449q-10 78 -38 113l8 2q26 -33 38 -115l56 -440l190 549h9l190 -549l88 549l18 108q8 45 16 85q-42 -76 -155 -76q-13 0 -19 1q7 25 7 56q0 33 -17.5 53.5t-51.5 20.5t-55 -28.5t-21 -67.5v-24l-8 -1v25
q0 40 -19 68t-57 28q-33 0 -50.5 -22t-17.5 -54q0 -33 8 -54h-7q-3 7 -6 22t-3 32q0 34 19.5 58.5t56.5 24.5q39 0 57.5 -24t22.5 -57q4 32 24.5 56.5t55.5 24.5q38 0 57.5 -23t19.5 -58q0 -28 -7 -51h11q117 0 156 86h8z" />
    <glyph glyph-name="uni0E1F0E4B" unicode="&#xe1f;&#xe4b;" horiz-adv-x="757" 
d="M708 767l-35 -209l-91 -558h-10l-189 550l-191 -550h-9l-59 449q-10 78 -38 113l8 2q26 -33 38 -115l56 -440l190 549h9l190 -549l88 549l35 209h8zM626 739h-76v-63h-8v63h-76l1 7h75v59l8 1v-60h76v-7z" />
    <glyph glyph-name="uni0E1F0E4C" unicode="&#xe1f;&#xe4c;" horiz-adv-x="767" 
d="M795 727h-93l-29 -169l-91 -558h-10l-189 550l-191 -550h-9l-59 449q-10 78 -38 113l8 2q26 -33 38 -115l56 -440l190 549h9l190 -549l88 549l29 169h-76q-32 0 -46.5 -13.5t-14.5 -36.5q0 -22 3 -40h-7q-3 17 -3 41q0 25 16.5 40.5t50.5 15.5h78l5 33h8l-5 -33h92v-7z
" />
    <glyph glyph-name="uni0E1F0E4D" unicode="&#xe1f;&#xe4d;" horiz-adv-x="757" 
d="M708 767l-35 -209l-91 -558h-10l-189 550l-191 -550h-9l-59 449q-10 78 -38 113l8 2q26 -33 38 -115l56 -440l190 549h9l190 -549l88 549l35 209h8zM600 795q19 -19 19 -51q0 -31 -19 -51t-51 -20t-51 19t-19 51q0 31 19.5 51t50.5 20q32 0 51 -19zM503.5 789.5
q-16.5 -17.5 -16.5 -46.5t16 -46t46 -17q29 0 45.5 17.5t16.5 46.5t-16 46t-46 17q-29 0 -45.5 -17.5z" />
    <glyph glyph-name="uni0E310E4A" unicode="&#xe31;&#xe4a;" 
d="M-438.5 687q-22.5 13 -22.5 46q0 23 9 41h8q-9 -18 -9 -41q0 -29 20.5 -40.5t70.5 -11.5q32 0 85 8t100 23l1 -6q-48 -16 -102 -24t-86 -8q-52 0 -74.5 13zM-30 924q-21 -52 -59 -77.5t-97 -25.5q-12 0 -18 1q7 23 7 50q0 30 -16 49t-46 19q-31 0 -49.5 -26t-18.5 -61
v-22l-7 -1v23q0 36 -17.5 61.5t-51.5 25.5q-30 0 -45.5 -20t-15.5 -49q0 -21 7 -49h-7q-7 25 -7 49q0 31 17.5 53t50.5 22q34 0 51 -21.5t21 -51.5q4 29 22.5 51t49.5 22q34 0 51.5 -21t17.5 -52q0 -24 -6 -46h10q112 0 150 99z" />
    <glyph glyph-name="uni0620.init" unicode="&#x620;" horiz-adv-x="256" 
d="M170 3q20 -20 20 -48t-19.5 -48.5t-49.5 -20.5t-50.5 20.5t-20.5 48.5q0 30 25 52q-29 -7 -75 -7l-5 4l6 4q95 0 132 33.5t37 107.5q0 108 -39 219l8 3q39 -111 39 -222q0 -47 -13 -78t-44 -48v0q29 0 49 -20zM166.5 -89q17.5 18 17.5 44t-18 44t-45 18t-45.5 -18.5
t-18.5 -43.5t18 -43.5t46 -18.5t45.5 18z" />
    <glyph glyph-name="uni0620.medi" unicode="&#x620;" horiz-adv-x="295" 
d="M300 4l-5 -4q-58 0 -99 31t-49 79q-6 -51 -46 -80h9q29 0 49 -20t20 -48t-19.5 -48.5t-49.5 -20.5t-50.5 20.5t-20.5 48.5q0 27 19 46q-27 -8 -58 -8l-5 4l6 4q66 0 104 34.5t38 93.5v169h8v-169q0 -57 41.5 -92.5t102.5 -35.5zM155 6q-18 18 -45 18t-45.5 -18.5
t-18.5 -43.5t18 -43.5t46 -18.5t45.5 18t17.5 44t-18 44z" />
    <glyph glyph-name="uni0620.fina" unicode="&#x620;" horiz-adv-x="708" 
d="M708 0q-37 0 -64.5 7.5t-68.5 25.5q19 -11 27 -23.5t8 -30.5q0 -35 -30.5 -70.5t-93 -61t-153.5 -30.5q19 -8 30.5 -25t11.5 -38q0 -27 -20 -47.5t-50 -20.5t-50 20.5t-20 47.5q0 20 11.5 37.5t29.5 25.5q-108 5 -158 58t-50 138q0 89 34 172l6 -2q-33 -79 -33 -169
q0 -87 53.5 -138.5t169.5 -51.5q99 0 168 24.5t103 60.5t34 71q0 20 -13 34.5t-53 33.5t-124 48l3 7q61 -21 142 -56q51 -22 80.5 -30.5t69.5 -8.5l5 -4zM350 -202q-18 18 -45 18t-45 -18t-18 -44q0 -25 18 -43.5t45 -18.5q28 0 45.5 18t17.5 44t-18 44z" />
    <glyph glyph-name="uni063B.init" unicode="&#x63b;" horiz-adv-x="455" 
d="M386 730l-371 -270q153 -58 225.5 -121t72.5 -134q0 -103 -88 -154t-225 -51l-5 4l6 4q135 0 220 48.5t85 149.5q0 67 -72.5 129t-226.5 121l1 8l379 275zM-36 714.5q-3 2.5 -3 6.5t3 6.5t7 2.5t6.5 -2.5t2.5 -6.5t-2.5 -6.5t-6.5 -2.5t-7 2.5zM84.5 714.5
q-2.5 2.5 -2.5 6.5t2.5 6.5t6.5 2.5t7 -2.5t3 -6.5t-3 -6.5t-7 -2.5t-6.5 2.5z" />
    <glyph glyph-name="uni063B.medi" unicode="&#x63b;" horiz-adv-x="540" 
d="M545 4l-5 -4q-53 0 -93.5 22.5t-87.5 75.5t-144 177q19 -35 19 -81q0 -94 -58 -144t-176 -50l-5 4l6 4q114 0 170 48.5t56 138.5q0 64 -36 107l-124 154l1 8l379 275l-1 -9l-372 -270l134 -166l17 -21q102 -126 145.5 -174.5t81 -69.5t88.5 -21zM20 714.5q-3 2.5 -3 6.5
t3 6.5t7 2.5t6.5 -2.5t2.5 -6.5t-2.5 -6.5t-6.5 -2.5t-7 2.5zM140.5 714.5q-2.5 2.5 -2.5 6.5t2.5 6.5t6.5 2.5t7 -2.5t3 -6.5t-3 -6.5t-7 -2.5t-6.5 2.5z" />
    <glyph glyph-name="uni063B.fina" unicode="&#x63b;" horiz-adv-x="971" 
d="M976 4l-5 -4q-53 0 -93 22.5t-86.5 75t-145.5 177.5q19 -34 19 -81q0 -69 -30 -114t-103.5 -68.5t-200.5 -23.5q-263 0 -263 168q0 72 35 145l6 -3q-34 -72 -34 -142q0 -160 257 -160q125 0 196.5 22.5t100.5 66t29 110.5q0 64 -35 107l-125 154l1 8l380 275l-2 -9
l-372 -270l134 -166l16 -20q102 -127 146 -175.5t81.5 -69.5t89.5 -21zM449 714.5q-3 2.5 -3 6.5t3 6.5t7 2.5t6.5 -2.5t2.5 -6.5t-2.5 -6.5t-6.5 -2.5t-7 2.5zM569.5 714.5q-2.5 2.5 -2.5 6.5t2.5 6.5t6.5 2.5t7 -2.5t3 -6.5t-3 -6.5t-7 -2.5t-6.5 2.5z" />
    <glyph glyph-name="uni063C.init" unicode="&#x63c;" horiz-adv-x="455" 
d="M386 730l-371 -270q153 -58 225.5 -121t72.5 -134q0 -103 -88 -154t-225 -51l-5 4l6 4q135 0 220 48.5t85 149.5q0 67 -72.5 129t-226.5 121l1 8l379 275zM66.5 -149.5q-2.5 2.5 -2.5 5.5q0 4 2.5 6.5t6.5 2.5q9 0 9 -9q0 -8 -9 -8q-4 0 -6.5 2.5zM186 -144q0 9 9 9
q4 0 6.5 -2.5t2.5 -6.5q0 -3 -2.5 -5.5t-6.5 -2.5q-9 0 -9 8zM127.5 -240.5q-2.5 2.5 -2.5 6.5t2.5 6.5t6.5 2.5q9 0 9 -9t-9 -9q-4 0 -6.5 2.5z" />
    <glyph glyph-name="uni063C.medi" unicode="&#x63c;" horiz-adv-x="540" 
d="M545 4l-5 -4q-53 0 -93.5 22.5t-87.5 75.5t-144 177q19 -35 19 -81q0 -94 -58 -144t-176 -50l-5 4l6 4q114 0 170 48.5t56 138.5q0 64 -36 107l-124 154l1 8l379 275l-1 -9l-372 -270l134 -166l17 -21q102 -126 145.5 -174.5t81 -69.5t88.5 -21zM200.5 -149.5
q-2.5 2.5 -2.5 5.5q0 4 2.5 6.5t6.5 2.5q9 0 9 -9q0 -8 -9 -8q-4 0 -6.5 2.5zM320 -144q0 9 9 9q4 0 6.5 -2.5t2.5 -6.5q0 -3 -2.5 -5.5t-6.5 -2.5q-9 0 -9 8zM261.5 -240.5q-2.5 2.5 -2.5 6.5t2.5 6.5t6.5 2.5q9 0 9 -9t-9 -9q-4 0 -6.5 2.5z" />
    <glyph glyph-name="uni063C.fina" unicode="&#x63c;" horiz-adv-x="971" 
d="M976 4l-5 -4q-53 0 -93 22.5t-86.5 75t-145.5 177.5q19 -34 19 -81q0 -69 -30 -114t-103.5 -68.5t-200.5 -23.5q-263 0 -263 168q0 72 35 145l6 -3q-34 -72 -34 -142q0 -160 257 -160q125 0 196.5 22.5t100.5 66t29 110.5q0 64 -35 107l-125 154l1 8l380 275l-2 -9
l-372 -270l134 -166l16 -20q102 -127 146 -175.5t81.5 -69.5t89.5 -21zM305.5 -149.5q-2.5 2.5 -2.5 5.5q0 4 2.5 6.5t6.5 2.5q9 0 9 -9q0 -8 -9 -8q-4 0 -6.5 2.5zM425 -144q0 9 9 9q4 0 6.5 -2.5t2.5 -6.5q0 -3 -2.5 -5.5t-6.5 -2.5q-9 0 -9 8zM366.5 -240.5
q-2.5 2.5 -2.5 6.5t2.5 6.5t6.5 2.5q9 0 9 -9t-9 -9q-4 0 -6.5 2.5z" />
    <glyph glyph-name="uni066E.init" unicode="&#x66e;" horiz-adv-x="256" 
d="M133 41.5q37 33.5 37 107.5q0 108 -39 219l8 3q39 -111 39 -222q0 -78 -39.5 -113.5t-138.5 -35.5l-5 4l6 4q95 0 132 33.5z" />
    <glyph glyph-name="uni066E.medi" unicode="&#x66e;" horiz-adv-x="295" 
d="M300 4l-5 -4q-58 0 -99 31t-49 79q-6 -49 -45 -79.5t-102 -30.5l-5 4l6 4q66 0 104 34.5t38 93.5v169h8v-169q0 -57 41.5 -92.5t102.5 -35.5z" />
    <glyph glyph-name="uni066E.fina" unicode="&#x66e;" horiz-adv-x="859" 
d="M864 4l-5 -4q-68 0 -100.5 32t-40.5 62q-62 -51 -161 -78.5t-226 -27.5q-263 0 -263 168q0 72 35 145l6 -3q-34 -72 -34 -142q0 -160 257 -160q125 0 223.5 27.5t159.5 77.5v204h7v-197q0 -14 13 -37.5t44 -43t81 -19.5z" />
    <glyph glyph-name="uni066F.init" unicode="&#x66f;" horiz-adv-x="447" 
d="M325.5 453.5q43.5 -67.5 43.5 -202.5q0 -92 -35.5 -146.5t-115.5 -79.5t-218 -25l-5 4l6 4q133 0 211 23t113 73.5t37 137.5q-27 -19 -68 -31.5t-77 -12.5q-75 0 -120.5 43t-45.5 114q0 41 18.5 79.5t53.5 62.5t81 24q78 0 121.5 -67.5zM294 218q41 12 68 31v2
q0 132 -41.5 197t-116.5 65q-44 0 -77 -23t-50.5 -59.5t-17.5 -75.5q0 -68 43.5 -108.5t116.5 -40.5q34 0 75 12z" />
    <glyph glyph-name="uni066F.medi" unicode="&#x66f;" horiz-adv-x="470" 
d="M475 4l-5 -4h-16q-55 0 -109.5 12t-102.5 35q-97 -47 -229 -47h-13l-5 4l6 4h12q126 0 221 44q-69 34 -109.5 87t-40.5 117q0 44 20 83t54.5 62.5t76.5 23.5q49 0 85.5 -24.5t56 -64t19.5 -84.5q0 -57 -38 -110.5t-108 -89.5q93 -44 204 -44h17zM132 140.5
q41 -51.5 110 -85.5q70 34 108 87t38 110q0 43 -18 81t-52.5 61t-81.5 23q-41 0 -74 -22.5t-52 -59.5t-19 -79q0 -64 41 -115.5z" />
    <glyph glyph-name="uni066F.fina" unicode="&#x66f;" horiz-adv-x="755" 
d="M755 0h-117q-13 -108 -78.5 -171.5t-206.5 -63.5q-149 0 -217 51.5t-68 153.5q0 83 36 168l6 -2q-18 -43 -26.5 -82.5t-8.5 -83.5q0 -98 66.5 -147.5t212.5 -49.5q138 0 201 61t76 166h-97q-101 -1 -155.5 43t-54.5 117q0 44 18.5 82.5t53 61.5t80.5 23q77 0 121.5 -68
t44.5 -192q0 -30 -3 -59h116l5 -4zM631 8q3 29 3 59q0 121 -42 186.5t-116 65.5q-44 0 -77 -22t-50.5 -58.5t-17.5 -78.5q0 -70 52.5 -111.5t152.5 -40.5h92h3z" />
    <glyph glyph-name="uni0676.fina" unicode="&#x676;" horiz-adv-x="519" 
d="M373 560l-173 -27l-1 6l83 13q-31 16 -47.5 37.5t-16.5 45.5q0 28 21 47t61 19q29 0 52 -13l-3 -5q-23 12 -49 12q-37 0 -56.5 -17.5t-19.5 -42.5q0 -23 17.5 -44.5t48.5 -37.5l83 13v-6zM519 0h-118q-21 -94 -100 -151t-231 -86l-2 8q149 28 227 83.5t98 145.5h-91
q-105 0 -157.5 42.5t-52.5 116.5q0 43 20 82t54.5 62.5t77.5 23.5q74 0 120 -63.5t46 -179.5q0 -42 -7 -76h116l5 -4zM395 8q7 32 7 76q0 113 -43.5 174t-114.5 61q-41 0 -74 -22.5t-52 -59t-19 -77.5q0 -71 50.5 -111.5t153.5 -40.5h89h3z" />
    <glyph glyph-name="uni0677.fina" unicode="&#x677;" horiz-adv-x="519" 
d="M519 0h-118q-21 -94 -100 -151t-231 -86l-2 8q149 28 227 83.5t98 145.5h-91q-105 0 -157.5 42.5t-52.5 116.5q0 43 20 82t54.5 62.5t77.5 23.5q74 0 120 -63.5t46 -179.5q0 -42 -7 -76h116l5 -4zM395 8q7 32 7 76q0 113 -43.5 174t-114.5 61q-41 0 -74 -22.5t-52 -59
t-19 -77.5q0 -71 50.5 -111.5t153.5 -40.5h89h3zM338 438l-173 -27l-1 6l83 13q-31 16 -47.5 37.5t-16.5 45.5q0 28 21 47t61 19q29 0 52 -13l-3 -5q-23 12 -49 12q-37 0 -56.5 -17.5t-19.5 -42.5q0 -23 17.5 -44.5t48.5 -37.5l83 13v-6zM305.5 798q16.5 -20 16.5 -50
q0 -39 -41.5 -75.5t-101.5 -60.5l-2 5q59 24 97 57q-41 8 -60.5 29.5t-19.5 48.5q0 30 18.5 48t45.5 18q31 0 47.5 -20zM316 747q0 28 -14.5 46.5t-43.5 18.5q-24 0 -41 -16.5t-17 -43.5q0 -26 19 -45.5t59 -28.5q38 35 38 69z" />
    <glyph glyph-name="uni0678.init" unicode="&#x678;" horiz-adv-x="256" 
d="M223 600l-173 -27l-1 6l83 13q-31 16 -47.5 37.5t-16.5 45.5q0 28 21 47t61 19q29 0 52 -13l-3 -5q-23 12 -49 12q-37 0 -56.5 -17.5t-19.5 -42.5q0 -23 17.5 -44.5t48.5 -37.5l83 13v-6zM133 41.5q37 33.5 37 107.5q0 108 -39 219l8 3q39 -111 39 -222
q0 -78 -39.5 -113.5t-138.5 -35.5l-5 4l6 4q95 0 132 33.5z" />
    <glyph glyph-name="uni0678.medi" unicode="&#x678;" horiz-adv-x="295" 
d="M70 509l83 13q-31 16 -47.5 37.5t-16.5 45.5q0 28 21 47t61 19q29 0 52 -13l-3 -5q-22 12 -49 12q-37 0 -56.5 -17.5t-19.5 -42.5q0 -23 17.5 -44.5t48.5 -37.5l83 13v-6l-173 -27zM300 4l-5 -4q-58 0 -99 31t-49 79q-6 -49 -45 -79.5t-102 -30.5l-5 4l6 4q66 0 104 34.5
t38 93.5v169h8v-169q0 -57 41.5 -92.5t102.5 -35.5z" />
    <glyph glyph-name="uni0678.fina" unicode="&#x678;" horiz-adv-x="708" 
d="M708 0q-37 0 -64.5 7.5t-68.5 25.5q19 -11 27 -23.5t8 -30.5q0 -38 -34.5 -75.5t-105.5 -62.5t-172 -25q-119 0 -174.5 53.5t-55.5 143.5q0 89 34 172l6 -2q-33 -79 -33 -169q0 -87 53.5 -138.5t169.5 -51.5q99 0 168 24.5t103 60.5t34 71q0 20 -13 34.5t-53 33.5
t-124 48l3 7q61 -21 142 -56q51 -22 80.5 -30.5t69.5 -8.5l5 -4zM532 311l-173 -27l-1 6l83 13q-31 16 -47.5 37.5t-16.5 45.5q0 28 21 47t61 19q29 0 52 -13l-3 -5q-23 12 -49 12q-37 0 -56.5 -17.5t-19.5 -42.5q0 -23 17.5 -44.5t48.5 -37.5l83 13v-6z" />
    <glyph glyph-name="uni067C.init" unicode="&#x67c;" horiz-adv-x="259" 
d="M57 514q0 3 2.5 6t6.5 3t6.5 -3t2.5 -6q0 -9 -9 -9t-9 9zM193.5 520q2.5 -3 2.5 -6q0 -9 -9 -9t-9 9q0 3 2.5 6t6.5 3t6.5 -3zM167 1.5q19 -19.5 19 -47.5q0 -27 -19.5 -47.5t-49.5 -20.5t-50.5 20.5t-20.5 47.5q0 31 24 52q-30 -6 -70 -6l-5 4l6 4q95 0 132 33.5
t37 107.5q0 108 -39 219l8 3q39 -111 39 -222q0 -48 -13.5 -78.5t-44.5 -47.5q28 -2 47 -21.5zM162.5 -89.5q17.5 18.5 17.5 43.5q0 26 -18.5 44t-44.5 18q-10 0 -15 -1l-13 -5q-17 -8 -26.5 -22.5t-9.5 -33.5q0 -25 18 -43.5t46 -18.5t45.5 18.5z" />
    <glyph glyph-name="uni067C.medi" unicode="&#x67c;" horiz-adv-x="295" 
d="M78 435q0 9 9 9q4 0 6.5 -2.5t2.5 -6.5t-2.5 -6.5t-6.5 -2.5q-9 0 -9 9zM199 435q0 9 9 9q4 0 6.5 -2.5t2.5 -6.5t-2.5 -6.5t-6.5 -2.5q-9 0 -9 9zM300 4l-5 -4q-58 0 -99 31t-49 79q-6 -51 -46 -80h9q29 0 49 -20t20 -48t-19.5 -48.5t-49.5 -20.5t-50.5 20.5t-20.5 48.5
q0 27 19 46q-27 -8 -58 -8l-5 4l6 4q66 0 104 34.5t38 93.5v169h8v-169q0 -57 41.5 -92.5t102.5 -35.5zM155 6q-18 18 -45 18t-45.5 -18.5t-18.5 -43.5t18 -43.5t46 -18.5t45.5 18t17.5 44t-18 44z" />
    <glyph glyph-name="uni067C.fina" unicode="&#x67c;" horiz-adv-x="859" 
d="M332 423q0 3 2.5 6t6.5 3t6.5 -3t2.5 -6q0 -9 -9 -9t-9 9zM453 423q0 3 2.5 6t6.5 3t6.5 -3t2.5 -6q0 -9 -9 -9t-9 9zM864 4l-5 -4q-68 0 -100.5 32t-40.5 62q-56 -46 -141.5 -73t-196.5 -32q19 -7 31 -24.5t12 -38.5q0 -28 -19.5 -48.5t-49.5 -20.5t-50.5 20.5
t-20.5 48.5q0 20 11.5 37t29.5 25q-256 3 -256 168q0 72 35 145l6 -3q-34 -72 -34 -142q0 -160 257 -160q125 0 223.5 27.5t159.5 77.5v204h7v-197q0 -14 13 -37.5t44 -43t81 -19.5zM398.5 -30q-18.5 18 -44.5 18q-27 0 -45.5 -18.5t-18.5 -43.5t18 -43.5t46 -18.5t45.5 18
t17.5 44t-18.5 44z" />
    <glyph glyph-name="uni067D.init" unicode="&#x67d;" horiz-adv-x="256" 
d="M133 41.5q37 33.5 37 107.5q0 108 -39 219l8 3q39 -111 39 -222q0 -78 -39.5 -113.5t-138.5 -35.5l-5 4l6 4q95 0 132 33.5zM59.5 578.5q-2.5 2.5 -2.5 6.5q0 3 2.5 6t6.5 3t6.5 -3t2.5 -6q0 -9 -9 -9q-4 0 -6.5 2.5zM179 585q0 3 2.5 6t6.5 3t6.5 -3t2.5 -6
q0 -4 -2.5 -6.5t-6.5 -2.5q-9 0 -9 9zM120.5 487.5q-2.5 2.5 -2.5 6.5t2.5 6.5t6.5 2.5q9 0 9 -9t-9 -9q-4 0 -6.5 2.5z" />
    <glyph glyph-name="uni067D.medi" unicode="&#x67d;" horiz-adv-x="295" 
d="M300 4l-5 -4q-58 0 -99 31t-49 79q-6 -49 -45 -79.5t-102 -30.5l-5 4l6 4q66 0 104 34.5t38 93.5v169h8v-169q0 -57 41.5 -92.5t102.5 -35.5zM79.5 500.5q-2.5 2.5 -2.5 6.5q0 3 2.5 6t6.5 3t6.5 -3t2.5 -6q0 -9 -9 -9q-4 0 -6.5 2.5zM199 507q0 3 2.5 6t6.5 3t6.5 -3
t2.5 -6q0 -4 -2.5 -6.5t-6.5 -2.5q-9 0 -9 9zM140.5 409.5q-2.5 2.5 -2.5 6.5t2.5 6.5t6.5 2.5q9 0 9 -9t-9 -9q-4 0 -6.5 2.5z" />
    <glyph glyph-name="uni067D.fina" unicode="&#x67d;" horiz-adv-x="859" 
d="M864 4l-5 -4q-68 0 -100.5 32t-40.5 62q-62 -51 -161 -78.5t-226 -27.5q-263 0 -263 168q0 72 35 145l6 -3q-34 -72 -34 -142q0 -160 257 -160q125 0 223.5 27.5t159.5 77.5v204h7v-197q0 -14 13 -37.5t44 -43t81 -19.5zM334.5 487.5q-2.5 2.5 -2.5 6.5q0 3 2.5 6t6.5 3
t6.5 -3t2.5 -6q0 -9 -9 -9q-4 0 -6.5 2.5zM454 494q0 3 2.5 6t6.5 3t6.5 -3t2.5 -6q0 -4 -2.5 -6.5t-6.5 -2.5q-9 0 -9 9zM395.5 396.5q-2.5 2.5 -2.5 6.5t2.5 6.5t6.5 2.5q9 0 9 -9t-9 -9q-4 0 -6.5 2.5z" />
    <glyph glyph-name="uni0681.init" unicode="&#x681;" horiz-adv-x="690" 
d="M283 401.5q28 -10.5 50 -27.5t56 -47q57 -52 110 -86.5t136 -58.5l-1 -8l-10 -1q-99 -1 -177.5 -25.5t-179.5 -70.5q-87 -39 -144 -58t-123 -19l-5 4l6 4q64 0 119.5 18.5t143.5 57.5q99 46 178 70.5t178 25.5q-80 24 -129.5 57t-107.5 84q-49 44 -82.5 63.5t-81.5 19.5
q-31 0 -57.5 -7t-57.5 -26l-4 7q32 19 59.5 26.5t59.5 7.5q36 0 64 -10.5zM305 512l-173 -27l-1 6l83 13q-31 16 -47.5 37.5t-16.5 45.5q0 28 21 47t61 19q29 0 52 -13l-3 -5q-23 12 -49 12q-37 0 -56.5 -17.5t-19.5 -42.5q0 -23 17.5 -44.5t48.5 -37.5l83 13v-6z" />
    <glyph glyph-name="uni0681.medi" unicode="&#x681;" horiz-adv-x="750" 
d="M755 4l-5 -4q-201 0 -237 198q-50 -12 -97 -34t-116 -60q-64 -35 -106.5 -55.5t-92 -34.5t-101.5 -14l-5 4l6 4q72 0 135.5 25.5t157.5 76.5q92 51 158 77t140 28q-80 23 -129 52t-102 71q-43 35 -73 50.5t-75 15.5q-34 0 -60.5 -7t-60.5 -25l-4 7q36 19 63 26t62 7
q47 0 79 -16t75 -52q54 -44 105.5 -74t136.5 -54l-2 -7l-8 -1q-41 0 -79 -9q18 -101 77 -146t154 -45zM300 513l-173 -27l-1 6l83 13q-31 16 -47.5 37.5t-16.5 45.5q0 28 21 47t61 19q29 0 52 -13l-3 -5q-23 12 -49 12q-37 0 -56.5 -17.5t-19.5 -42.5q0 -23 17.5 -44.5
t48.5 -37.5l83 13v-6z" />
    <glyph glyph-name="uni0681.fina" unicode="&#x681;" horiz-adv-x="709" 
d="M193.5 127.5q-100.5 -78.5 -100.5 -214.5q0 -66 32.5 -122.5t98.5 -90.5t161 -34q60 0 118.5 13t95.5 32l3 -8q-38 -19 -97.5 -32t-120.5 -13q-97 0 -164.5 35t-101 93.5t-33.5 126.5q0 155 125.5 236.5t348.5 83.5q-64 20 -106 45.5t-86 61.5q-43 34 -72 49t-73 15
q-35 0 -61.5 -7t-57.5 -26l-4 7q33 20 60.5 27t63.5 7q44 0 75 -16t75 -51q49 -40 92.5 -66t111.5 -44l-1 -8l-8 -1q-44 0 -83 -3q11 -118 67 -166.5t158 -48.5l4 -4l-5 -4q-104 0 -162 51t-69 171q-184 -16 -284.5 -94.5zM308 512l-173 -27l-1 6l83 13q-31 16 -47.5 37.5
t-16.5 45.5q0 28 21 47t61 19q29 0 52 -13l-3 -5q-23 12 -49 12q-37 0 -56.5 -17.5t-19.5 -42.5q0 -23 17.5 -44.5t48.5 -37.5l83 13v-6z" />
    <glyph glyph-name="uni0682.init" unicode="&#x682;" horiz-adv-x="690" 
d="M283 401.5q28 -10.5 50 -27.5t56 -47q57 -52 110 -86.5t136 -58.5l-1 -8l-10 -1q-99 -1 -177.5 -25.5t-179.5 -70.5q-87 -39 -144 -58t-123 -19l-5 4l6 4q64 0 119.5 18.5t143.5 57.5q99 46 178 70.5t178 25.5q-80 24 -129.5 57t-107.5 84q-49 44 -82.5 63.5t-81.5 19.5
q-31 0 -57.5 -7t-57.5 -26l-4 7q32 19 59.5 26.5t59.5 7.5q36 0 64 -10.5zM212 606.5q-3 2.5 -3 6.5t3 7t6 3q4 0 6.5 -3t2.5 -7t-2.5 -6.5t-6.5 -2.5q-3 0 -6 2.5zM212 486q-3 3 -3 7t3 6.5t6 2.5q4 0 6.5 -2.5t2.5 -6.5t-2.5 -7t-6.5 -3q-3 0 -6 3z" />
    <glyph glyph-name="uni0682.medi" unicode="&#x682;" horiz-adv-x="750" 
d="M755 4l-5 -4q-201 0 -237 198q-50 -12 -97 -34t-116 -60q-64 -35 -106.5 -55.5t-92 -34.5t-101.5 -14l-5 4l6 4q72 0 135.5 25.5t157.5 76.5q92 51 158 77t140 28q-80 23 -129 52t-102 71q-43 35 -73 50.5t-75 15.5q-34 0 -60.5 -7t-60.5 -25l-4 7q36 19 63 26t62 7
q47 0 79 -16t75 -52q54 -44 105.5 -74t136.5 -54l-2 -7l-8 -1q-41 0 -79 -9q18 -101 77 -146t154 -45zM207 607.5q-3 2.5 -3 6.5t3 7t6 3q4 0 6.5 -3t2.5 -7t-2.5 -6.5t-6.5 -2.5q-3 0 -6 2.5zM207 487q-3 3 -3 7t3 6.5t6 2.5q4 0 6.5 -2.5t2.5 -6.5t-2.5 -7t-6.5 -3
q-3 0 -6 3z" />
    <glyph glyph-name="uni0682.fina" unicode="&#x682;" horiz-adv-x="709" 
d="M193.5 127.5q-100.5 -78.5 -100.5 -214.5q0 -66 32.5 -122.5t98.5 -90.5t161 -34q60 0 118.5 13t95.5 32l3 -8q-38 -19 -97.5 -32t-120.5 -13q-97 0 -164.5 35t-101 93.5t-33.5 126.5q0 155 125.5 236.5t348.5 83.5q-64 20 -106 45.5t-86 61.5q-43 34 -72 49t-73 15
q-35 0 -61.5 -7t-57.5 -26l-4 7q33 20 60.5 27t63.5 7q44 0 75 -16t75 -51q49 -40 92.5 -66t111.5 -44l-1 -8l-8 -1q-44 0 -83 -3q11 -118 67 -166.5t158 -48.5l4 -4l-5 -4q-104 0 -162 51t-69 171q-184 -16 -284.5 -94.5zM216 606.5q-3 2.5 -3 6.5t3 7t6 3q4 0 6.5 -3
t2.5 -7t-2.5 -6.5t-6.5 -2.5q-3 0 -6 2.5zM216 486q-3 3 -3 7t3 6.5t6 2.5q4 0 6.5 -2.5t2.5 -6.5t-2.5 -7t-6.5 -3q-3 0 -6 3z" />
    <glyph glyph-name="uni0685.init" unicode="&#x685;" horiz-adv-x="690" 
d="M283 401.5q28 -10.5 50 -27.5t56 -47q57 -52 110 -86.5t136 -58.5l-1 -8l-10 -1q-99 -1 -177.5 -25.5t-179.5 -70.5q-87 -39 -144 -58t-123 -19l-5 4l6 4q64 0 119.5 18.5t143.5 57.5q99 46 178 70.5t178 25.5q-80 24 -129.5 57t-107.5 84q-49 44 -82.5 63.5t-81.5 19.5
q-31 0 -57.5 -7t-57.5 -26l-4 7q32 19 59.5 26.5t59.5 7.5q36 0 64 -10.5zM212.5 573.5q-2.5 2.5 -2.5 6.5q0 3 2.5 6t6.5 3t6.5 -3t2.5 -6q0 -9 -9 -9q-4 0 -6.5 2.5zM151.5 482.5q-2.5 2.5 -2.5 6.5q0 3 2.5 6t6.5 3t6.5 -3t2.5 -6q0 -9 -9 -9q-4 0 -6.5 2.5zM271 489
q0 3 2.5 6t6.5 3t6.5 -3t2.5 -6q0 -4 -2.5 -6.5t-6.5 -2.5q-9 0 -9 9z" />
    <glyph glyph-name="uni0685.medi" unicode="&#x685;" horiz-adv-x="750" 
d="M755 4l-5 -4q-201 0 -237 198q-50 -12 -97 -34t-116 -60q-64 -35 -106.5 -55.5t-92 -34.5t-101.5 -14l-5 4l6 4q72 0 135.5 25.5t157.5 76.5q92 51 158 77t140 28q-80 23 -129 52t-102 71q-43 35 -73 50.5t-75 15.5q-34 0 -60.5 -7t-60.5 -25l-4 7q36 19 63 26t62 7
q47 0 79 -16t75 -52q54 -44 105.5 -74t136.5 -54l-2 -7l-8 -1q-41 0 -79 -9q18 -101 77 -146t154 -45zM207.5 574.5q-2.5 2.5 -2.5 6.5q0 3 2.5 6t6.5 3t6.5 -3t2.5 -6q0 -9 -9 -9q-4 0 -6.5 2.5zM146.5 483.5q-2.5 2.5 -2.5 6.5q0 3 2.5 6t6.5 3t6.5 -3t2.5 -6q0 -9 -9 -9
q-4 0 -6.5 2.5zM266 490q0 3 2.5 6t6.5 3t6.5 -3t2.5 -6q0 -4 -2.5 -6.5t-6.5 -2.5q-9 0 -9 9z" />
    <glyph glyph-name="uni0685.fina" unicode="&#x685;" horiz-adv-x="709" 
d="M193.5 127.5q-100.5 -78.5 -100.5 -214.5q0 -66 32.5 -122.5t98.5 -90.5t161 -34q60 0 118.5 13t95.5 32l3 -8q-38 -19 -97.5 -32t-120.5 -13q-97 0 -164.5 35t-101 93.5t-33.5 126.5q0 155 125.5 236.5t348.5 83.5q-64 20 -106 45.5t-86 61.5q-43 34 -72 49t-73 15
q-35 0 -61.5 -7t-57.5 -26l-4 7q33 20 60.5 27t63.5 7q44 0 75 -16t75 -51q49 -40 92.5 -66t111.5 -44l-1 -8l-8 -1q-44 0 -83 -3q11 -118 67 -166.5t158 -48.5l4 -4l-5 -4q-104 0 -162 51t-69 171q-184 -16 -284.5 -94.5zM215.5 573.5q-2.5 2.5 -2.5 6.5q0 3 2.5 6t6.5 3
t6.5 -3t2.5 -6q0 -9 -9 -9q-4 0 -6.5 2.5zM154.5 482.5q-2.5 2.5 -2.5 6.5q0 3 2.5 6t6.5 3t6.5 -3t2.5 -6q0 -9 -9 -9q-4 0 -6.5 2.5zM274 489q0 3 2.5 6t6.5 3t6.5 -3t2.5 -6q0 -4 -2.5 -6.5t-6.5 -2.5q-9 0 -9 9z" />
    <glyph glyph-name="uni0689.fina" unicode="&#x689;" horiz-adv-x="504" 
d="M509 4l-5 -4q-50 0 -77.5 20t-44.5 60q-25 -36 -68 -59t-95 -30q21 -8 33.5 -25.5t12.5 -39.5q0 -28 -19.5 -48.5t-49.5 -20.5t-50.5 20.5t-20.5 48.5q0 20 11.5 37t29.5 25q-36 1 -67 9t-69 23l2 8q38 -16 72.5 -24t75.5 -8q60 0 114.5 24.5t84.5 66.5l-148 378l8 4
l146 -377q18 -45 44.5 -64.5t74.5 -19.5zM240.5 -30q-18.5 18 -44.5 18q-27 0 -45.5 -18t-18.5 -44q0 -25 18 -43.5t46 -18.5t45.5 18t17.5 44t-18.5 44z" />
    <glyph glyph-name="uni068A.fina" unicode="&#x68a;" horiz-adv-x="504" 
d="M509 4l-5 -4q-50 0 -77.5 20t-44.5 60q-30 -43 -85.5 -67.5t-116.5 -24.5q-41 0 -76 8t-74 24l2 8q38 -16 72.5 -24t75.5 -8q60 0 114.5 24.5t84.5 66.5l-148 378l8 4l146 -377q18 -45 44.5 -64.5t74.5 -19.5zM187 -137q0 9 9 9t9 -9t-9 -9t-9 9z" />
    <glyph glyph-name="uni068B.fina" unicode="&#x68b;" horiz-adv-x="504" 
d="M509 4l-5 -4q-50 0 -77.5 20t-44.5 60q-30 -43 -85.5 -67.5t-116.5 -24.5q-41 0 -76 8t-74 24l2 8q38 -16 72.5 -24t75.5 -8q60 0 114.5 24.5t84.5 66.5l-148 378l8 4l146 -377q18 -45 44.5 -64.5t74.5 -19.5zM187 -137q0 9 9 9t9 -9t-9 -9t-9 9zM259 682q17 -18 17 -48
t-21.5 -50t-64.5 -20h-137v6h21q8 17 20 36v152h6v-143q55 85 113 85q29 0 46 -18zM249.5 588q20.5 18 20.5 46t-15.5 44t-41.5 16q-69 0 -133 -124h109q40 0 60.5 18z" />
    <glyph glyph-name="uni068F.fina" unicode="&#x68f;" horiz-adv-x="504" 
d="M509 4l-5 -4q-50 0 -77.5 20t-44.5 60q-30 -43 -85.5 -67.5t-116.5 -24.5q-41 0 -76 8t-74 24l2 8q38 -16 72.5 -24t75.5 -8q60 0 114.5 24.5t84.5 66.5l-148 378l8 4l146 -377q18 -45 44.5 -64.5t74.5 -19.5zM96.5 685.5q-2.5 2.5 -2.5 6.5q0 3 2.5 6t6.5 3t6.5 -3
t2.5 -6q0 -9 -9 -9q-4 0 -6.5 2.5zM216 692q0 3 2.5 6t6.5 3t6.5 -3t2.5 -6q0 -4 -2.5 -6.5t-6.5 -2.5q-9 0 -9 9zM157.5 594.5q-2.5 2.5 -2.5 6.5t2.5 6.5t6.5 2.5q9 0 9 -9t-9 -9q-4 0 -6.5 2.5z" />
    <glyph glyph-name="uni0690.fina" unicode="&#x690;" horiz-adv-x="504" 
d="M509 4l-5 -4q-50 0 -77.5 20t-44.5 60q-30 -43 -85.5 -67.5t-116.5 -24.5q-41 0 -76 8t-74 24l2 8q38 -16 72.5 -24t75.5 -8q60 0 114.5 24.5t84.5 66.5l-148 378l8 4l146 -377q18 -45 44.5 -64.5t74.5 -19.5zM95 684q0 9 9 9q4 0 6.5 -2.5t2.5 -6.5t-2.5 -6.5t-6.5 -2.5
q-9 0 -9 9zM217.5 677.5q-2.5 2.5 -2.5 6.5t2.5 6.5t6.5 2.5q9 0 9 -9t-9 -9q-4 0 -6.5 2.5zM97.5 568q-2.5 3 -2.5 6q0 9 9 9q4 0 6.5 -2.5t2.5 -6.5q0 -3 -2.5 -6t-6.5 -3t-6.5 3zM217.5 568q-2.5 3 -2.5 6q0 4 2.5 6.5t6.5 2.5q9 0 9 -9q0 -3 -2.5 -6t-6.5 -3t-6.5 3z
" />
    <glyph glyph-name="uni0692.fina" unicode="&#x692;" horiz-adv-x="355" 
d="M361 4l-6 -4q-85 0 -102 80q1 -3 1 -7q-1 -115 -62.5 -189t-205.5 -124l-3 8q142 49 203 121.5t61 184.5q0 95 -35 219l8 2q25 -93 32 -180q8 -107 104 -107zM197 411l76 131l5 -2l-78 -136h-6l-78 136l6 2z" />
    <glyph glyph-name="uni0693.fina" unicode="&#x693;" horiz-adv-x="355" 
d="M361 4l-6 -4q-85 0 -102 80q1 -3 1 -7q-1 -115 -62.5 -189t-205.5 -124l-3 8q142 49 203 121.5t61 184.5q0 95 -35 219l8 2q25 -93 32 -180q8 -107 104 -107zM157 -266q-20 20 -20 48t20 48.5t50 20.5q29 0 49.5 -20t20.5 -49q0 -28 -19.5 -48t-50.5 -20q-30 0 -50 20z
M252.5 -262q17.5 18 17.5 44t-18 44t-45 18t-45.5 -18t-18.5 -44q0 -25 18 -43.5t46 -18.5t45.5 18z" />
    <glyph glyph-name="uni0694.fina" unicode="&#x694;" horiz-adv-x="355" 
d="M361 4l-6 -4q-85 0 -102 80q1 -3 1 -7q-1 -115 -62.5 -189t-205.5 -124l-3 8q142 49 203 121.5t61 184.5q0 95 -35 219l8 2q25 -93 32 -180q8 -107 104 -107zM168 -307q0 9 9 9t9 -9t-9 -9t-9 9z" />
    <glyph glyph-name="uni0695.fina" unicode="&#x695;" horiz-adv-x="355" 
d="M361 4l-6 -4q-85 0 -102 80q1 -3 1 -7q-1 -115 -62.5 -189t-205.5 -124l-3 8q142 49 203 121.5t61 184.5q0 95 -35 219l8 2q25 -93 32 -180q8 -107 104 -107zM177 -378l76 131l5 -2l-78 -136h-6l-78 136l6 2z" />
    <glyph glyph-name="uni0696.fina" unicode="&#x696;" horiz-adv-x="355" 
d="M361 4l-6 -4q-85 0 -102 80q1 -3 1 -7q-1 -115 -62.5 -189t-205.5 -124l-3 8q142 49 203 121.5t61 184.5q0 95 -35 219l8 2q25 -93 32 -180q8 -107 104 -107zM168 -307q0 9 9 9t9 -9t-9 -9t-9 9zM188 429q0 9 9 9t9 -9t-9 -9t-9 9z" />
    <glyph glyph-name="uni0697.fina" unicode="&#x697;" horiz-adv-x="355" 
d="M361 4l-6 -4q-85 0 -102 80q1 -3 1 -7q-1 -115 -62.5 -189t-205.5 -124l-3 8q142 49 203 121.5t61 184.5q0 95 -35 219l8 2q25 -93 32 -180q8 -107 104 -107zM130 460.5q-3 2.5 -3 6.5t3 6.5t7 2.5t6.5 -2.5t2.5 -6.5t-2.5 -6.5t-6.5 -2.5t-7 2.5zM250.5 460.5
q-2.5 2.5 -2.5 6.5t2.5 6.5t6.5 2.5t7 -2.5t3 -6.5t-3 -6.5t-7 -2.5t-6.5 2.5z" />
    <glyph glyph-name="uni0699.fina" unicode="&#x699;" horiz-adv-x="355" 
d="M361 4l-6 -4q-85 0 -102 80q1 -3 1 -7q-1 -115 -62.5 -189t-205.5 -124l-3 8q142 49 203 121.5t61 184.5q0 95 -35 219l8 2q25 -93 32 -180q8 -107 104 -107zM128 531q0 9 9 9q4 0 6.5 -2.5t2.5 -6.5t-2.5 -6.5t-6.5 -2.5q-9 0 -9 9zM250.5 524.5q-2.5 2.5 -2.5 6.5
t2.5 6.5t6.5 2.5q9 0 9 -9t-9 -9q-4 0 -6.5 2.5zM130.5 415q-2.5 3 -2.5 6q0 9 9 9q4 0 6.5 -2.5t2.5 -6.5q0 -3 -2.5 -6t-6.5 -3t-6.5 3zM250.5 415q-2.5 3 -2.5 6q0 4 2.5 6.5t6.5 2.5q9 0 9 -9q0 -3 -2.5 -6t-6.5 -3t-6.5 3z" />
    <glyph glyph-name="uni069A.init" unicode="&#x69a;" horiz-adv-x="791" 
d="M713 150q0 -75 -33.5 -112.5t-98.5 -37.5q-58 0 -94.5 29.5t-42.5 77.5q-6 -48 -38 -77.5t-90 -29.5q-61 0 -93.5 28.5t-38.5 78.5q-7 -50 -50 -78.5t-134 -28.5l-5 4l6 4q95 0 137 32.5t42 93.5v171h8v-169q0 -62 32.5 -95t96.5 -33q60 0 91 34.5t31 93.5v169h8v-169
q0 -60 36.5 -94t98.5 -34q61 0 92.5 35.5t31.5 105.5q0 108 -39 219l7 3q39 -111 39 -221zM441 -137q0 9 9 9t9 -9t-9 -9t-9 9zM434 381q0 9 9 9t9 -9t-9 -9t-9 9z" />
    <glyph glyph-name="uni069A.medi" unicode="&#x69a;" horiz-adv-x="892" 
d="M897 4l-5 -4q-76 0 -119.5 26.5t-53.5 86.5q-7 -55 -42 -84t-94 -29t-96 29.5t-44 77.5q-6 -48 -38 -77.5t-91 -29.5t-95.5 29.5t-42.5 78.5q-8 -50 -51.5 -79t-124.5 -29l-5 4l6 4q84 0 127.5 33.5t43.5 92.5v171h8v-169q0 -60 36 -94t98 -34t93.5 34t31.5 94v169h8
v-169q0 -60 36.5 -94t99.5 -34t97 34.5t34 97.5v228h7v-208q1 -82 43.5 -117t127.5 -35zM434 -137q0 9 9 9t9 -9t-9 -9t-9 9zM434 397q0 9 9 9t9 -9t-9 -9t-9 9z" />
    <glyph glyph-name="uni069A.fina" unicode="&#x69a;" horiz-adv-x="1264" 
d="M1269 4l-5 -4q-76 0 -119.5 26.5t-52.5 86.5q-7 -54 -43 -83.5t-94 -29.5q-59 0 -95.5 29t-43.5 77q-5 -47 -37 -76.5t-90 -29.5q-48 0 -76 19t-37 48v-8q0 -153 -64 -223.5t-214 -70.5q-119 0 -174.5 53.5t-55.5 143.5q0 89 34 172l6 -2q-33 -81 -33 -170
q0 -87 53.5 -138t169.5 -51q100 0 159 31t85.5 93t26.5 161q0 40 -12 87t-38 126l8 4q17 -55 29 -98.5t19 -85.5q7 -37 34 -60t81 -23q60 0 91 34t31 94v169h7v-169q0 -60 36.5 -94t99.5 -34t97 34.5t34 97.5v211h7v-191v0q1 -82 43.5 -117t127.5 -35zM806 -137q0 9 9 9
t9 -9t-9 -9t-9 9zM807 398q0 9 9 9t9 -9t-9 -9t-9 9z" />
    <glyph glyph-name="uni069B.init" unicode="&#x69b;" horiz-adv-x="791" 
d="M713 150q0 -75 -33.5 -112.5t-98.5 -37.5q-58 0 -94.5 29.5t-42.5 77.5q-6 -48 -38 -77.5t-90 -29.5q-61 0 -93.5 28.5t-38.5 78.5q-7 -50 -50 -78.5t-134 -28.5l-5 4l6 4q95 0 137 32.5t42 93.5v171h8v-169q0 -62 32.5 -95t96.5 -33q60 0 91 34.5t31 93.5v169h8v-169
q0 -60 36.5 -94t98.5 -34q61 0 92.5 35.5t31.5 105.5q0 108 -39 219l7 3q39 -111 39 -221zM382.5 -149.5q-2.5 2.5 -2.5 5.5q0 4 2.5 6.5t6.5 2.5q9 0 9 -9q0 -8 -9 -8q-4 0 -6.5 2.5zM502 -144q0 9 9 9q4 0 6.5 -2.5t2.5 -6.5q0 -3 -2.5 -5.5t-6.5 -2.5q-9 0 -9 8z
M443.5 -240.5q-2.5 2.5 -2.5 6.5t2.5 6.5t6.5 2.5q9 0 9 -9t-9 -9q-4 0 -6.5 2.5z" />
    <glyph glyph-name="uni069B.medi" unicode="&#x69b;" horiz-adv-x="892" 
d="M897 4l-5 -4q-76 0 -119.5 26.5t-53.5 86.5q-7 -55 -42 -84t-94 -29t-96 29.5t-44 77.5q-6 -48 -38 -77.5t-91 -29.5t-95.5 29.5t-42.5 78.5q-8 -50 -51.5 -79t-124.5 -29l-5 4l6 4q84 0 127.5 33.5t43.5 92.5v171h8v-169q0 -60 36 -94t98 -34t93.5 34t31.5 94v169h8
v-169q0 -60 36.5 -94t99.5 -34t97 34.5t34 97.5v228h7v-208q1 -82 43.5 -117t127.5 -35zM375.5 -149.5q-2.5 2.5 -2.5 5.5q0 4 2.5 6.5t6.5 2.5q9 0 9 -9q0 -8 -9 -8q-4 0 -6.5 2.5zM495 -144q0 9 9 9q4 0 6.5 -2.5t2.5 -6.5q0 -3 -2.5 -5.5t-6.5 -2.5q-9 0 -9 8z
M436.5 -240.5q-2.5 2.5 -2.5 6.5t2.5 6.5t6.5 2.5q9 0 9 -9t-9 -9q-4 0 -6.5 2.5z" />
    <glyph glyph-name="uni069B.fina" unicode="&#x69b;" horiz-adv-x="1264" 
d="M1269 4l-5 -4q-76 0 -119.5 26.5t-52.5 86.5q-7 -54 -43 -83.5t-94 -29.5q-59 0 -95.5 29t-43.5 77q-5 -47 -37 -76.5t-90 -29.5q-48 0 -76 19t-37 48v-8q0 -153 -64 -223.5t-214 -70.5q-119 0 -174.5 53.5t-55.5 143.5q0 89 34 172l6 -2q-33 -81 -33 -170
q0 -87 53.5 -138t169.5 -51q100 0 159 31t85.5 93t26.5 161q0 40 -12 87t-38 126l8 4q17 -55 29 -98.5t19 -85.5q7 -37 34 -60t81 -23q60 0 91 34t31 94v169h7v-169q0 -60 36.5 -94t99.5 -34t97 34.5t34 97.5v211h7v-191v0q1 -82 43.5 -117t127.5 -35zM747.5 -149.5
q-2.5 2.5 -2.5 5.5q0 4 2.5 6.5t6.5 2.5q9 0 9 -9q0 -8 -9 -8q-4 0 -6.5 2.5zM867 -144q0 9 9 9q4 0 6.5 -2.5t2.5 -6.5q0 -3 -2.5 -5.5t-6.5 -2.5q-9 0 -9 8zM808.5 -240.5q-2.5 2.5 -2.5 6.5t2.5 6.5t6.5 2.5q9 0 9 -9t-9 -9q-4 0 -6.5 2.5z" />
    <glyph glyph-name="uni069C.init" unicode="&#x69c;" horiz-adv-x="791" 
d="M713 150q0 -75 -33.5 -112.5t-98.5 -37.5q-58 0 -94.5 29.5t-42.5 77.5q-6 -48 -38 -77.5t-90 -29.5q-61 0 -93.5 28.5t-38.5 78.5q-7 -50 -50 -78.5t-134 -28.5l-5 4l6 4q95 0 137 32.5t42 93.5v171h8v-169q0 -62 32.5 -95t96.5 -33q60 0 91 34.5t31 93.5v169h8v-169
q0 -60 36.5 -94t98.5 -34q61 0 92.5 35.5t31.5 105.5q0 108 -39 219l7 3q39 -111 39 -221zM436.5 462.5q-2.5 2.5 -2.5 6.5q0 3 2.5 6t6.5 3t6.5 -3t2.5 -6q0 -9 -9 -9q-4 0 -6.5 2.5zM375.5 371.5q-2.5 2.5 -2.5 6.5q0 3 2.5 6t6.5 3t6.5 -3t2.5 -6q0 -9 -9 -9
q-4 0 -6.5 2.5zM495 378q0 3 2.5 6t6.5 3t6.5 -3t2.5 -6q0 -4 -2.5 -6.5t-6.5 -2.5q-9 0 -9 9zM382.5 -149.5q-2.5 2.5 -2.5 5.5q0 4 2.5 6.5t6.5 2.5q9 0 9 -9q0 -8 -9 -8q-4 0 -6.5 2.5zM502 -144q0 9 9 9q4 0 6.5 -2.5t2.5 -6.5q0 -3 -2.5 -5.5t-6.5 -2.5q-9 0 -9 8z
M443.5 -240.5q-2.5 2.5 -2.5 6.5t2.5 6.5t6.5 2.5q9 0 9 -9t-9 -9q-4 0 -6.5 2.5z" />
    <glyph glyph-name="uni069C.medi" unicode="&#x69c;" horiz-adv-x="892" 
d="M897 4l-5 -4q-76 0 -119.5 26.5t-53.5 86.5q-7 -55 -42 -84t-94 -29t-96 29.5t-44 77.5q-6 -48 -38 -77.5t-91 -29.5t-95.5 29.5t-42.5 78.5q-8 -50 -51.5 -79t-124.5 -29l-5 4l6 4q84 0 127.5 33.5t43.5 92.5v171h8v-169q0 -60 36 -94t98 -34t93.5 34t31.5 94v169h8
v-169q0 -60 36.5 -94t99.5 -34t97 34.5t34 97.5v228h7v-208q1 -82 43.5 -117t127.5 -35zM436.5 478.5q-2.5 2.5 -2.5 6.5q0 3 2.5 6t6.5 3t6.5 -3t2.5 -6q0 -9 -9 -9q-4 0 -6.5 2.5zM375.5 387.5q-2.5 2.5 -2.5 6.5q0 3 2.5 6t6.5 3t6.5 -3t2.5 -6q0 -9 -9 -9q-4 0 -6.5 2.5
zM495 394q0 3 2.5 6t6.5 3t6.5 -3t2.5 -6q0 -4 -2.5 -6.5t-6.5 -2.5q-9 0 -9 9zM375.5 -149.5q-2.5 2.5 -2.5 5.5q0 4 2.5 6.5t6.5 2.5q9 0 9 -9q0 -8 -9 -8q-4 0 -6.5 2.5zM495 -144q0 9 9 9q4 0 6.5 -2.5t2.5 -6.5q0 -3 -2.5 -5.5t-6.5 -2.5q-9 0 -9 8zM436.5 -240.5
q-2.5 2.5 -2.5 6.5t2.5 6.5t6.5 2.5q9 0 9 -9t-9 -9q-4 0 -6.5 2.5z" />
    <glyph glyph-name="uni069C.fina" unicode="&#x69c;" horiz-adv-x="1264" 
d="M1269 4l-5 -4q-76 0 -119.5 26.5t-52.5 86.5q-7 -54 -43 -83.5t-94 -29.5q-59 0 -95.5 29t-43.5 77q-5 -47 -37 -76.5t-90 -29.5q-48 0 -76 19t-37 48v-8q0 -153 -64 -223.5t-214 -70.5q-119 0 -174.5 53.5t-55.5 143.5q0 89 34 172l6 -2q-33 -81 -33 -170
q0 -87 53.5 -138t169.5 -51q100 0 159 31t85.5 93t26.5 161q0 40 -12 87t-38 126l8 4q17 -55 29 -98.5t19 -85.5q7 -37 34 -60t81 -23q60 0 91 34t31 94v169h7v-169q0 -60 36.5 -94t99.5 -34t97 34.5t34 97.5v211h7v-191v0q1 -82 43.5 -117t127.5 -35zM809.5 479.5
q-2.5 2.5 -2.5 6.5q0 3 2.5 6t6.5 3t6.5 -3t2.5 -6q0 -9 -9 -9q-4 0 -6.5 2.5zM748.5 388.5q-2.5 2.5 -2.5 6.5q0 3 2.5 6t6.5 3t6.5 -3t2.5 -6q0 -9 -9 -9q-4 0 -6.5 2.5zM868 395q0 3 2.5 6t6.5 3t6.5 -3t2.5 -6q0 -4 -2.5 -6.5t-6.5 -2.5q-9 0 -9 9zM747.5 -149.5
q-2.5 2.5 -2.5 5.5q0 4 2.5 6.5t6.5 2.5q9 0 9 -9q0 -8 -9 -8q-4 0 -6.5 2.5zM867 -144q0 9 9 9q4 0 6.5 -2.5t2.5 -6.5q0 -3 -2.5 -5.5t-6.5 -2.5q-9 0 -9 8zM808.5 -240.5q-2.5 2.5 -2.5 6.5t2.5 6.5t6.5 2.5q9 0 9 -9t-9 -9q-4 0 -6.5 2.5z" />
    <glyph glyph-name="uni069D.init" unicode="&#x69d;" horiz-adv-x="908" 
d="M783 356q47 -56 47 -153q0 -79 -34.5 -122.5t-113 -62t-219.5 -18.5h-177q-56 0 -95.5 30t-47.5 77q-6 -48 -44 -77.5t-99 -29.5l-5 4l6 4q65 0 101.5 33.5t36.5 91.5v231h8v-231q0 -56 38.5 -90t97.5 -35q57 185 146 294.5t207 109.5q100 0 147 -56zM678 25.5
q77 17.5 111 59.5t34 118q0 94 -45.5 147.5t-141.5 53.5q-115 0 -202 -107t-143 -289h172q138 0 215 17.5zM75 -150.5q-3 2.5 -3 6.5t3 6.5t7 2.5t6.5 -2.5t2.5 -6.5t-2.5 -6.5t-6.5 -2.5t-7 2.5zM195.5 -150.5q-2.5 2.5 -2.5 6.5t2.5 6.5t6.5 2.5t7 -2.5t3 -6.5t-3 -6.5
t-7 -2.5t-6.5 2.5z" />
    <glyph glyph-name="uni069D.medi" unicode="&#x69d;" horiz-adv-x="952" 
d="M957 4l-5 -4q-58 0 -94.5 19.5t-66.5 55.5q-36 -41 -113.5 -58t-214.5 -17h-177q-56 0 -95.5 30t-47.5 77q-6 -48 -44 -77.5t-99 -29.5l-5 4l6 4q65 0 101.5 33.5t36.5 91.5v231h8v-231q0 -56 38.5 -90t97.5 -35q57 185 146 294.5t207 109.5q100 0 147 -56t47 -153
q0 -79 -34 -122q28 -35 64 -54t93 -19zM678 25.5q77 17.5 111 59.5t34 118q0 94 -45.5 147.5t-141.5 53.5q-115 0 -202 -107t-143 -289h172q138 0 215 17.5zM75 -150.5q-3 2.5 -3 6.5t3 6.5t7 2.5t6.5 -2.5t2.5 -6.5t-2.5 -6.5t-6.5 -2.5t-7 2.5zM195.5 -150.5
q-2.5 2.5 -2.5 6.5t2.5 6.5t6.5 2.5t7 -2.5t3 -6.5t-3 -6.5t-7 -2.5t-6.5 2.5z" />
    <glyph glyph-name="uni069D.fina" unicode="&#x69d;" horiz-adv-x="1355" 
d="M1360 4l-5 -4q-58 0 -94.5 19.5t-66.5 55.5q-36 -41 -113.5 -58t-214.5 -17h-177v1q-48 0 -76 19t-37 48v-8q0 -153 -64 -223.5t-214 -70.5q-119 0 -174.5 53.5t-55.5 143.5q0 89 34 172l6 -2q-33 -81 -33 -170q0 -87 53.5 -138t169.5 -51q100 0 159 31t85.5 93t26.5 161
q0 40 -12 87t-38 126l8 4q17 -55 29 -98.5t19 -85.5q6 -36 32.5 -59t79.5 -24q56 184 145.5 293.5t206.5 109.5q100 0 147.5 -56t47.5 -153q0 -78 -35 -122q28 -35 64 -54t93 -19zM1081 25.5q77 17.5 111 59.5t34 118q0 94 -45.5 147.5t-141.5 53.5q-115 0 -202 -107
t-143 -289h172q138 0 215 17.5zM242 -376.5q-3 2.5 -3 6.5t3 6.5t7 2.5t6.5 -2.5t2.5 -6.5t-2.5 -6.5t-6.5 -2.5t-7 2.5zM362.5 -376.5q-2.5 2.5 -2.5 6.5t2.5 6.5t6.5 2.5t7 -2.5t3 -6.5t-3 -6.5t-7 -2.5t-6.5 2.5z" />
    <glyph glyph-name="uni069E.init" unicode="&#x69e;" horiz-adv-x="908" 
d="M590.5 569q-2.5 3 -2.5 6q0 9 9 9q4 0 6.5 -2.5t2.5 -6.5q0 -3 -2.5 -6t-6.5 -3t-6.5 3zM529.5 478.5q-2.5 2.5 -2.5 6.5q0 3 2.5 5.5t6.5 2.5q9 0 9 -8q0 -9 -9 -9q-4 0 -6.5 2.5zM649 485q0 8 9 8q4 0 6.5 -2.5t2.5 -5.5q0 -4 -2.5 -6.5t-6.5 -2.5q-9 0 -9 9zM783 356
q47 -56 47 -153q0 -79 -34.5 -122.5t-113 -62t-219.5 -18.5h-177q-56 0 -95.5 30t-47.5 77q-6 -48 -44 -77.5t-99 -29.5l-5 4l6 4q65 0 101.5 33.5t36.5 91.5v231h8v-231q0 -56 38.5 -90t97.5 -35q57 185 146 294.5t207 109.5q100 0 147 -56zM678 25.5q77 17.5 111 59.5
t34 118q0 94 -45.5 147.5t-141.5 53.5q-115 0 -202 -107t-143 -289h172q138 0 215 17.5z" />
    <glyph glyph-name="uni069E.medi" unicode="&#x69e;" horiz-adv-x="952" 
d="M590.5 569q-2.5 3 -2.5 6q0 9 9 9q4 0 6.5 -2.5t2.5 -6.5q0 -3 -2.5 -6t-6.5 -3t-6.5 3zM529.5 478.5q-2.5 2.5 -2.5 6.5q0 3 2.5 5.5t6.5 2.5q9 0 9 -8q0 -9 -9 -9q-4 0 -6.5 2.5zM649 485q0 8 9 8q4 0 6.5 -2.5t2.5 -5.5q0 -4 -2.5 -6.5t-6.5 -2.5q-9 0 -9 9zM957 4
l-5 -4q-58 0 -94.5 19.5t-66.5 55.5q-36 -41 -113.5 -58t-214.5 -17h-177q-56 0 -95.5 30t-47.5 77q-6 -48 -44 -77.5t-99 -29.5l-5 4l6 4q65 0 101.5 33.5t36.5 91.5v231h8v-231q0 -56 38.5 -90t97.5 -35q57 185 146 294.5t207 109.5q100 0 147 -56t47 -153q0 -79 -34 -122
q28 -35 64 -54t93 -19zM678 25.5q77 17.5 111 59.5t34 118q0 94 -45.5 147.5t-141.5 53.5q-115 0 -202 -107t-143 -289h172q138 0 215 17.5z" />
    <glyph glyph-name="uni069E.fina" unicode="&#x69e;" horiz-adv-x="1355" 
d="M993.5 569q-2.5 3 -2.5 6q0 9 9 9q4 0 6.5 -2.5t2.5 -6.5q0 -3 -2.5 -6t-6.5 -3t-6.5 3zM932.5 478.5q-2.5 2.5 -2.5 6.5q0 3 2.5 5.5t6.5 2.5q9 0 9 -8q0 -9 -9 -9q-4 0 -6.5 2.5zM1052 485q0 8 9 8q4 0 6.5 -2.5t2.5 -5.5q0 -4 -2.5 -6.5t-6.5 -2.5q-9 0 -9 9zM1360 4
l-5 -4q-58 0 -94.5 19.5t-66.5 55.5q-36 -41 -113.5 -58t-214.5 -17h-177v1q-48 0 -76 19t-37 48v-8q0 -153 -64 -223.5t-214 -70.5q-119 0 -174.5 53.5t-55.5 143.5q0 89 34 172l6 -2q-33 -81 -33 -170q0 -87 53.5 -138t169.5 -51q100 0 159 31t85.5 93t26.5 161
q0 40 -12 87t-38 126l8 4q17 -55 29 -98.5t19 -85.5q6 -36 32.5 -59t79.5 -24q56 184 145.5 293.5t206.5 109.5q100 0 147.5 -56t47.5 -153q0 -78 -35 -122q28 -35 64 -54t93 -19zM1081 25.5q77 17.5 111 59.5t34 118q0 94 -45.5 147.5t-141.5 53.5q-115 0 -202 -107
t-143 -289h172q138 0 215 17.5z" />
    <glyph glyph-name="uni069F.init" unicode="&#x69f;" horiz-adv-x="828" 
d="M703.5 356q47.5 -56 47.5 -153q0 -79 -34.5 -122.5t-113.5 -62t-220 -18.5h-383l-5 4l6 4h203q20 66 40 113v610l8 1v-593q56 128 133 200.5t171 72.5q100 0 147.5 -56zM598 25.5q77 17.5 111 59.5t34 118q0 94 -45.5 147.5t-141.5 53.5q-114 0 -201 -107t-144 -289h172
q138 0 215 17.5zM498.5 569.5q-2.5 2.5 -2.5 6.5q0 3 2.5 6t6.5 3t6.5 -3t2.5 -6q0 -9 -9 -9q-4 0 -6.5 2.5zM437.5 478.5q-2.5 2.5 -2.5 6.5q0 3 2.5 6t6.5 3t6.5 -3t2.5 -6q0 -9 -9 -9q-4 0 -6.5 2.5zM557 485q0 3 2.5 6t6.5 3t6.5 -3t2.5 -6q0 -4 -2.5 -6.5t-6.5 -2.5
q-9 0 -9 9z" />
    <glyph glyph-name="uni069F.medi" unicode="&#x69f;" horiz-adv-x="872" 
d="M878 4l-6 -4q-58 0 -94.5 19.5t-65.5 55.5q-37 -41 -115 -58t-214 -17h-383l-5 4l6 4h203q20 66 40 113v610l8 1v-593q56 128 133 200.5t171 72.5q100 0 147.5 -56t47.5 -153q0 -78 -35 -122q28 -35 64 -54t93 -19zM598 25.5q77 17.5 111 59.5t34 118q0 94 -45.5 147.5
t-141.5 53.5q-114 0 -201 -107t-144 -289h172q138 0 215 17.5zM498.5 569.5q-2.5 2.5 -2.5 6.5q0 3 2.5 6t6.5 3t6.5 -3t2.5 -6q0 -9 -9 -9q-4 0 -6.5 2.5zM437.5 478.5q-2.5 2.5 -2.5 6.5q0 3 2.5 6t6.5 3t6.5 -3t2.5 -6q0 -9 -9 -9q-4 0 -6.5 2.5zM557 485q0 3 2.5 6
t6.5 3t6.5 -3t2.5 -6q0 -4 -2.5 -6.5t-6.5 -2.5q-9 0 -9 9z" />
    <glyph glyph-name="uni069F.fina" unicode="&#x69f;" horiz-adv-x="854" 
d="M859 4l-5 -4q-58 0 -94.5 19.5t-66.5 55.5q-36 -41 -113.5 -58t-214.5 -17h-317l1 8h137q20 66 40 113v610l8 1v-593q56 128 132.5 200.5t171.5 72.5q100 0 147.5 -56t47.5 -153q0 -78 -35 -122q28 -35 64 -54t93 -19zM580 25.5q77 17.5 111 59.5t34 118
q0 94 -45.5 147.5t-141.5 53.5q-115 0 -202 -107t-143 -289h172q138 0 215 17.5zM480.5 569.5q-2.5 2.5 -2.5 6.5q0 3 2.5 6t6.5 3t6.5 -3t2.5 -6q0 -9 -9 -9q-4 0 -6.5 2.5zM419.5 478.5q-2.5 2.5 -2.5 6.5q0 3 2.5 6t6.5 3t6.5 -3t2.5 -6q0 -9 -9 -9q-4 0 -6.5 2.5z
M539 485q0 3 2.5 6t6.5 3t6.5 -3t2.5 -6q0 -4 -2.5 -6.5t-6.5 -2.5q-9 0 -9 9z" />
    <glyph glyph-name="uni06A0.init" unicode="&#x6a0;" horiz-adv-x="516" 
d="M487 51q-132 -31 -213.5 -41t-214.5 -10h-59l-5 4l6 4h56q105 0 181 6q-85 47 -126 97.5t-41 116.5q0 67 45 113t130 46q32 0 67 -9.5t65 -27.5l-3 -7q-29 17 -63.5 26.5t-65.5 9.5q-82 0 -125 -43.5t-43 -107.5q0 -65 42 -114.5t130 -98.5q53 6 106 16t130 28z
M239.5 548.5q-2.5 2.5 -2.5 6.5q0 3 2.5 6t6.5 3t6.5 -3t2.5 -6q0 -9 -9 -9q-4 0 -6.5 2.5zM178.5 457.5q-2.5 2.5 -2.5 6.5q0 3 2.5 6t6.5 3t6.5 -3t2.5 -6q0 -9 -9 -9q-4 0 -6.5 2.5zM298 464q0 3 2.5 6t6.5 3t6.5 -3t2.5 -6q0 -4 -2.5 -6.5t-6.5 -2.5q-9 0 -9 9z" />
    <glyph glyph-name="uni06A0.medi" unicode="&#x6a0;" horiz-adv-x="538" 
d="M543 4l-5 -4h-16q-118 0 -224 88q-70 -40 -151 -64t-132 -24h-15l-5 4l6 4h12q51 0 131 23.5t149 61.5q-28 23 -78 73q-45 44 -80 76t-82 68v8q55 23 108 36.5t116 13.5q83 0 126.5 -26t43.5 -74q0 -49 -38.5 -94t-102.5 -82q50 -41 102.5 -62.5t114.5 -21.5h16z
M137 249.5q32 -28.5 82 -76.5q46 -46 81 -76q64 37 102 80.5t38 90.5q0 45 -41.5 68.5t-121.5 23.5q-106 0 -217 -47q45 -35 77 -63.5zM270.5 531.5q-2.5 2.5 -2.5 6.5q0 3 2.5 6t6.5 3t6.5 -3t2.5 -6q0 -9 -9 -9q-4 0 -6.5 2.5zM209.5 440.5q-2.5 2.5 -2.5 6.5q0 3 2.5 6
t6.5 3t6.5 -3t2.5 -6q0 -9 -9 -9q-4 0 -6.5 2.5zM329 447q0 3 2.5 6t6.5 3t6.5 -3t2.5 -6q0 -4 -2.5 -6.5t-6.5 -2.5q-9 0 -9 9z" />
    <glyph glyph-name="uni06A0.fina" unicode="&#x6a0;" horiz-adv-x="547" 
d="M78 -125q0 -58 32.5 -105.5t94 -75.5t143.5 -28q58 0 107 12t85 31l3 -7q-36 -20 -86 -32t-110 -12q-84 0 -147 29.5t-96.5 78.5t-33.5 108q0 85 52 146t145 98l-49 47q-80 82 -160 145l1 8q117 50 226 50q168 0 168 -101q0 -44 -41 -79.5t-131 -71.5l21 -18
q55 -46 108 -68t119 -22h19l4 -4l-5 -4h-19q-66 0 -122.5 23t-110.5 70l-23 20q-194 -79 -194 -238zM285 360q-104 0 -219 -47q45 -35 77 -64.5t80 -76.5l52 -51q89 36 129.5 70t40.5 76q0 93 -160 93zM269.5 538.5q-2.5 2.5 -2.5 6.5q0 3 2.5 6t6.5 3t6.5 -3t2.5 -6
q0 -9 -9 -9q-4 0 -6.5 2.5zM208.5 447.5q-2.5 2.5 -2.5 6.5q0 3 2.5 6t6.5 3t6.5 -3t2.5 -6q0 -9 -9 -9q-4 0 -6.5 2.5zM328 454q0 3 2.5 6t6.5 3t6.5 -3t2.5 -6q0 -4 -2.5 -6.5t-6.5 -2.5q-9 0 -9 9z" />
    <glyph glyph-name="uni06A1.init" unicode="&#x6a1;" horiz-adv-x="447" 
d="M325.5 453.5q43.5 -67.5 43.5 -202.5q0 -92 -35.5 -146.5t-115.5 -79.5t-218 -25l-5 4l6 4q133 0 211 23t113 73.5t37 137.5q-27 -19 -68 -31.5t-77 -12.5q-75 0 -120.5 43t-45.5 114q0 41 18.5 79.5t53.5 62.5t81 24q78 0 121.5 -67.5zM294 218q41 12 68 31v2
q0 132 -41.5 197t-116.5 65q-44 0 -77 -23t-50.5 -59.5t-17.5 -75.5q0 -68 43.5 -108.5t116.5 -40.5q34 0 75 12z" />
    <glyph glyph-name="uni06A1.medi" unicode="&#x6a1;" horiz-adv-x="470" 
d="M475 4l-5 -4h-16q-55 0 -109.5 12t-102.5 35q-97 -47 -229 -47h-13l-5 4l6 4h12q126 0 221 44q-69 34 -109.5 87t-40.5 117q0 44 20 83t54.5 62.5t76.5 23.5q49 0 85.5 -24.5t56 -64t19.5 -84.5q0 -57 -38 -110.5t-108 -89.5q93 -44 204 -44h17zM132 140.5
q41 -51.5 110 -85.5q70 34 108 87t38 110q0 43 -18 81t-52.5 61t-81.5 23q-41 0 -74 -22.5t-52 -59.5t-19 -79q0 -64 41 -115.5z" />
    <glyph glyph-name="uni06A1.fina" unicode="&#x6a1;" horiz-adv-x="957" 
d="M962 4l-5 -4h-17q-57 0 -113.5 13.5t-105.5 38.5q-141 -64 -390 -64q-263 0 -263 168q0 72 35 145l6 -3q-34 -72 -34 -142q0 -160 257 -160q241 0 381 60q-65 36 -104 89.5t-39 116.5q0 45 20 85.5t55 64.5t77 24q49 0 85.5 -24t56 -64t19.5 -86q0 -59 -37 -113t-117 -93
q47 -23 101.5 -35.5t109.5 -12.5h18zM616.5 146.5q38.5 -51.5 104.5 -86.5q81 37 117.5 90t36.5 112q0 44 -18 82t-53 61t-82 23q-40 0 -73 -23t-52 -61.5t-19 -81.5q0 -64 38.5 -115.5z" />
    <glyph glyph-name="uni06A2.init" unicode="&#x6a2;" horiz-adv-x="447" 
d="M325.5 453.5q43.5 -67.5 43.5 -202.5q0 -92 -35.5 -146.5t-115.5 -79.5t-218 -25l-5 4l6 4q133 0 211 23t113 73.5t37 137.5q-27 -19 -68 -31.5t-77 -12.5q-75 0 -120.5 43t-45.5 114q0 41 18.5 79.5t53.5 62.5t81 24q78 0 121.5 -67.5zM294 218q41 12 68 31v2
q0 132 -41.5 197t-116.5 65q-44 0 -77 -23t-50.5 -59.5t-17.5 -75.5q0 -68 43.5 -108.5t116.5 -40.5q34 0 75 12zM187 -137q0 9 9 9t9 -9t-9 -9t-9 9z" />
    <glyph glyph-name="uni06A2.medi" unicode="&#x6a2;" horiz-adv-x="470" 
d="M475 4l-5 -4h-16q-55 0 -109.5 12t-102.5 35q-97 -47 -229 -47h-13l-5 4l6 4h12q126 0 221 44q-69 34 -109.5 87t-40.5 117q0 44 20 83t54.5 62.5t76.5 23.5q49 0 85.5 -24.5t56 -64t19.5 -84.5q0 -57 -38 -110.5t-108 -89.5q93 -44 204 -44h17zM132 140.5
q41 -51.5 110 -85.5q70 34 108 87t38 110q0 43 -18 81t-52.5 61t-81.5 23q-41 0 -74 -22.5t-52 -59.5t-19 -79q0 -64 41 -115.5zM231 -137q0 9 9 9t9 -9t-9 -9t-9 9z" />
    <glyph glyph-name="uni06A2.fina" unicode="&#x6a2;" horiz-adv-x="957" 
d="M962 4l-5 -4h-17q-57 0 -113.5 13.5t-105.5 38.5q-141 -64 -390 -64q-263 0 -263 168q0 72 35 145l6 -3q-34 -72 -34 -142q0 -160 257 -160q241 0 381 60q-65 36 -104 89.5t-39 116.5q0 45 20 85.5t55 64.5t77 24q49 0 85.5 -24t56 -64t19.5 -86q0 -59 -37 -113t-117 -93
q47 -23 101.5 -35.5t109.5 -12.5h18zM616.5 146.5q38.5 -51.5 104.5 -86.5q81 37 117.5 90t36.5 112q0 44 -18 82t-53 61t-82 23q-40 0 -73 -23t-52 -61.5t-19 -81.5q0 -64 38.5 -115.5zM712 -137q0 9 9 9t9 -9t-9 -9t-9 9z" />
    <glyph glyph-name="uni06A3.init" unicode="&#x6a3;" horiz-adv-x="447" 
d="M325.5 453.5q43.5 -67.5 43.5 -202.5q0 -92 -35.5 -146.5t-115.5 -79.5t-218 -25l-5 4l6 4q133 0 211 23t113 73.5t37 137.5q-27 -19 -68 -31.5t-77 -12.5q-75 0 -120.5 43t-45.5 114q0 41 18.5 79.5t53.5 62.5t81 24q78 0 121.5 -67.5zM294 218q41 12 68 31v2
q0 132 -41.5 197t-116.5 65q-44 0 -77 -23t-50.5 -59.5t-17.5 -75.5q0 -68 43.5 -108.5t116.5 -40.5q34 0 75 12zM195 610q0 9 9 9t9 -9t-9 -9t-9 9zM197 -137q0 9 9 9t9 -9t-9 -9t-9 9z" />
    <glyph glyph-name="uni06A3.medi" unicode="&#x6a3;" horiz-adv-x="470" 
d="M475 4l-5 -4h-16q-55 0 -109.5 12t-102.5 35q-97 -47 -229 -47h-13l-5 4l6 4h12q126 0 221 44q-69 34 -109.5 87t-40.5 117q0 44 20 83t54.5 62.5t76.5 23.5q49 0 85.5 -24.5t56 -64t19.5 -84.5q0 -57 -38 -110.5t-108 -89.5q93 -44 204 -44h17zM132 140.5
q41 -51.5 110 -85.5q70 34 108 87t38 110q0 43 -18 81t-52.5 61t-81.5 23q-41 0 -74 -22.5t-52 -59.5t-19 -79q0 -64 41 -115.5zM226 515q0 9 9 9t9 -9t-9 -9t-9 9zM231 -137q0 9 9 9t9 -9t-9 -9t-9 9z" />
    <glyph glyph-name="uni06A3.fina" unicode="&#x6a3;" horiz-adv-x="957" 
d="M962 4l-5 -4h-17q-57 0 -113.5 13.5t-105.5 38.5q-141 -64 -390 -64q-263 0 -263 168q0 72 35 145l6 -3q-34 -72 -34 -142q0 -160 257 -160q241 0 381 60q-65 36 -104 89.5t-39 116.5q0 45 20 85.5t55 64.5t77 24q49 0 85.5 -24t56 -64t19.5 -86q0 -59 -37 -113t-117 -93
q47 -23 101.5 -35.5t109.5 -12.5h18zM616.5 146.5q38.5 -51.5 104.5 -86.5q81 37 117.5 90t36.5 112q0 44 -18 82t-53 61t-82 23q-40 0 -73 -23t-52 -61.5t-19 -81.5q0 -64 38.5 -115.5zM713 517q0 9 9 9t9 -9t-9 -9t-9 9zM710 -137q0 9 9 9t9 -9t-9 -9t-9 9z" />
    <glyph glyph-name="uni06A5.init" unicode="&#x6a5;" horiz-adv-x="447" 
d="M325.5 453.5q43.5 -67.5 43.5 -202.5q0 -92 -35.5 -146.5t-115.5 -79.5t-218 -25l-5 4l6 4q133 0 211 23t113 73.5t37 137.5q-27 -19 -68 -31.5t-77 -12.5q-75 0 -120.5 43t-45.5 114q0 41 18.5 79.5t53.5 62.5t81 24q78 0 121.5 -67.5zM294 218q41 12 68 31v2
q0 132 -41.5 197t-116.5 65q-44 0 -77 -23t-50.5 -59.5t-17.5 -75.5q0 -68 43.5 -108.5t116.5 -40.5q34 0 75 12zM128.5 -149.5q-2.5 2.5 -2.5 5.5q0 4 2.5 6.5t6.5 2.5q9 0 9 -9q0 -8 -9 -8q-4 0 -6.5 2.5zM248 -144q0 9 9 9q4 0 6.5 -2.5t2.5 -6.5q0 -3 -2.5 -5.5
t-6.5 -2.5q-9 0 -9 8zM189.5 -240.5q-2.5 2.5 -2.5 6.5t2.5 6.5t6.5 2.5q9 0 9 -9t-9 -9q-4 0 -6.5 2.5z" />
    <glyph glyph-name="uni06A5.medi" unicode="&#x6a5;" horiz-adv-x="470" 
d="M475 4l-5 -4h-16q-55 0 -109.5 12t-102.5 35q-97 -47 -229 -47h-13l-5 4l6 4h12q126 0 221 44q-69 34 -109.5 87t-40.5 117q0 44 20 83t54.5 62.5t76.5 23.5q49 0 85.5 -24.5t56 -64t19.5 -84.5q0 -57 -38 -110.5t-108 -89.5q93 -44 204 -44h17zM132 140.5
q41 -51.5 110 -85.5q70 34 108 87t38 110q0 43 -18 81t-52.5 61t-81.5 23q-41 0 -74 -22.5t-52 -59.5t-19 -79q0 -64 41 -115.5zM172.5 -149.5q-2.5 2.5 -2.5 5.5q0 4 2.5 6.5t6.5 2.5q9 0 9 -9q0 -8 -9 -8q-4 0 -6.5 2.5zM292 -144q0 9 9 9q4 0 6.5 -2.5t2.5 -6.5
q0 -3 -2.5 -5.5t-6.5 -2.5q-9 0 -9 8zM233.5 -240.5q-2.5 2.5 -2.5 6.5t2.5 6.5t6.5 2.5q9 0 9 -9t-9 -9q-4 0 -6.5 2.5z" />
    <glyph glyph-name="uni06A5.fina" unicode="&#x6a5;" horiz-adv-x="957" 
d="M962 4l-5 -4h-17q-57 0 -113.5 13.5t-105.5 38.5q-141 -64 -390 -64q-263 0 -263 168q0 72 35 145l6 -3q-34 -72 -34 -142q0 -160 257 -160q241 0 381 60q-65 36 -104 89.5t-39 116.5q0 45 20 85.5t55 64.5t77 24q49 0 85.5 -24t56 -64t19.5 -86q0 -59 -37 -113t-117 -93
q47 -23 101.5 -35.5t109.5 -12.5h18zM616.5 146.5q38.5 -51.5 104.5 -86.5q81 37 117.5 90t36.5 112q0 44 -18 82t-53 61t-82 23q-40 0 -73 -23t-52 -61.5t-19 -81.5q0 -64 38.5 -115.5zM653.5 -149.5q-2.5 2.5 -2.5 5.5q0 4 2.5 6.5t6.5 2.5q9 0 9 -9q0 -8 -9 -8
q-4 0 -6.5 2.5zM773 -144q0 9 9 9q4 0 6.5 -2.5t2.5 -6.5q0 -3 -2.5 -5.5t-6.5 -2.5q-9 0 -9 8zM714.5 -240.5q-2.5 2.5 -2.5 6.5t2.5 6.5t6.5 2.5q9 0 9 -9t-9 -9q-4 0 -6.5 2.5z" />
    <glyph glyph-name="uni06A7.init" unicode="&#x6a7;" horiz-adv-x="447" 
d="M325.5 453.5q43.5 -67.5 43.5 -202.5q0 -92 -35.5 -146.5t-115.5 -79.5t-218 -25l-5 4l6 4q133 0 211 23t113 73.5t37 137.5q-27 -19 -68 -31.5t-77 -12.5q-75 0 -120.5 43t-45.5 114q0 41 18.5 79.5t53.5 62.5t81 24q78 0 121.5 -67.5zM294 218q41 12 68 31v2
q0 132 -41.5 197t-116.5 65q-44 0 -77 -23t-50.5 -59.5t-17.5 -75.5q0 -68 43.5 -108.5t116.5 -40.5q34 0 75 12zM195 610q0 9 9 9t9 -9t-9 -9t-9 9z" />
    <glyph glyph-name="uni06A7.medi" unicode="&#x6a7;" horiz-adv-x="470" 
d="M475 4l-5 -4h-16q-55 0 -109.5 12t-102.5 35q-97 -47 -229 -47h-13l-5 4l6 4h12q126 0 221 44q-69 34 -109.5 87t-40.5 117q0 44 20 83t54.5 62.5t76.5 23.5q49 0 85.5 -24.5t56 -64t19.5 -84.5q0 -57 -38 -110.5t-108 -89.5q93 -44 204 -44h17zM132 140.5
q41 -51.5 110 -85.5q70 34 108 87t38 110q0 43 -18 81t-52.5 61t-81.5 23q-41 0 -74 -22.5t-52 -59.5t-19 -79q0 -64 41 -115.5zM226 515q0 9 9 9t9 -9t-9 -9t-9 9z" />
    <glyph glyph-name="uni06A7.fina" unicode="&#x6a7;" horiz-adv-x="755" 
d="M755 0h-117q-13 -108 -78.5 -171.5t-206.5 -63.5q-149 0 -217 51.5t-68 153.5q0 83 36 168l6 -2q-18 -43 -26.5 -82.5t-8.5 -83.5q0 -98 66.5 -147.5t212.5 -49.5q138 0 201 61t76 166h-97q-101 -1 -155.5 43t-54.5 117q0 44 18.5 82.5t53 61.5t80.5 23q77 0 121.5 -68
t44.5 -192q0 -30 -3 -59h116l5 -4zM631 8q3 29 3 59q0 121 -42 186.5t-116 65.5q-44 0 -77 -22t-50.5 -58.5t-17.5 -78.5q0 -70 52.5 -111.5t152.5 -40.5h92h3zM468 417q0 9 9 9t9 -9t-9 -9t-9 9z" />
    <glyph glyph-name="uni06A8.init" unicode="&#x6a8;" horiz-adv-x="447" 
d="M325.5 453.5q43.5 -67.5 43.5 -202.5q0 -92 -35.5 -146.5t-115.5 -79.5t-218 -25l-5 4l6 4q133 0 211 23t113 73.5t37 137.5q-27 -19 -68 -31.5t-77 -12.5q-75 0 -120.5 43t-45.5 114q0 41 18.5 79.5t53.5 62.5t81 24q78 0 121.5 -67.5zM294 218q41 12 68 31v2
q0 132 -41.5 197t-116.5 65q-44 0 -77 -23t-50.5 -59.5t-17.5 -75.5q0 -68 43.5 -108.5t116.5 -40.5q34 0 75 12zM197.5 691.5q-2.5 2.5 -2.5 6.5q0 3 2.5 6t6.5 3t6.5 -3t2.5 -6q0 -9 -9 -9q-4 0 -6.5 2.5zM136.5 600.5q-2.5 2.5 -2.5 6.5q0 3 2.5 6t6.5 3t6.5 -3t2.5 -6
q0 -9 -9 -9q-4 0 -6.5 2.5zM256 607q0 3 2.5 6t6.5 3t6.5 -3t2.5 -6q0 -4 -2.5 -6.5t-6.5 -2.5q-9 0 -9 9z" />
    <glyph glyph-name="uni06A8.medi" unicode="&#x6a8;" horiz-adv-x="470" 
d="M475 4l-5 -4h-16q-55 0 -109.5 12t-102.5 35q-97 -47 -229 -47h-13l-5 4l6 4h12q126 0 221 44q-69 34 -109.5 87t-40.5 117q0 44 20 83t54.5 62.5t76.5 23.5q49 0 85.5 -24.5t56 -64t19.5 -84.5q0 -57 -38 -110.5t-108 -89.5q93 -44 204 -44h17zM132 140.5
q41 -51.5 110 -85.5q70 34 108 87t38 110q0 43 -18 81t-52.5 61t-81.5 23q-41 0 -74 -22.5t-52 -59.5t-19 -79q0 -64 41 -115.5zM228.5 595.5q-2.5 2.5 -2.5 6.5q0 3 2.5 6t6.5 3t6.5 -3t2.5 -6q0 -9 -9 -9q-4 0 -6.5 2.5zM167.5 504.5q-2.5 2.5 -2.5 6.5q0 3 2.5 6t6.5 3
t6.5 -3t2.5 -6q0 -9 -9 -9q-4 0 -6.5 2.5zM287 511q0 3 2.5 6t6.5 3t6.5 -3t2.5 -6q0 -4 -2.5 -6.5t-6.5 -2.5q-9 0 -9 9z" />
    <glyph glyph-name="uni06A8.fina" unicode="&#x6a8;" horiz-adv-x="755" 
d="M755 0h-117q-13 -108 -78.5 -171.5t-206.5 -63.5q-149 0 -217 51.5t-68 153.5q0 83 36 168l6 -2q-18 -43 -26.5 -82.5t-8.5 -83.5q0 -98 66.5 -147.5t212.5 -49.5q138 0 201 61t76 166h-97q-101 -1 -155.5 43t-54.5 117q0 44 18.5 82.5t53 61.5t80.5 23q77 0 121.5 -68
t44.5 -192q0 -30 -3 -59h116l5 -4zM631 8q3 29 3 59q0 121 -42 186.5t-116 65.5q-44 0 -77 -22t-50.5 -58.5t-17.5 -78.5q0 -70 52.5 -111.5t152.5 -40.5h92h3zM470.5 498.5q-2.5 2.5 -2.5 6.5q0 3 2.5 6t6.5 3t6.5 -3t2.5 -6q0 -9 -9 -9q-4 0 -6.5 2.5zM409.5 407.5
q-2.5 2.5 -2.5 6.5q0 3 2.5 6t6.5 3t6.5 -3t2.5 -6q0 -9 -9 -9q-4 0 -6.5 2.5zM529 414q0 3 2.5 6t6.5 3t6.5 -3t2.5 -6q0 -4 -2.5 -6.5t-6.5 -2.5q-9 0 -9 9z" />
    <glyph glyph-name="uni06AA.init" unicode="&#x6aa;" horiz-adv-x="1171" 
d="M1025 258q69 -40 69 -99q0 -39 -27 -63.5t-71 -40.5q-151 -55 -545 -55h-451l-5 4l6 4h448q264 0 404.5 21.5t187 54.5t46.5 75q0 35 -28 64.5t-89.5 48.5t-158.5 19q-89 0 -169 -5.5t-100 -6.5q-118 -10 -214 -10q-142 0 -211 12v7q15 62 54.5 121t99 103t131.5 60
l-2 -8q-68 -16 -125.5 -59t-96.5 -100.5t-53 -117.5q78 -11 203 -11q73 0 215 10q156 12 268 12q145 0 214 -40z" />
    <glyph glyph-name="uni06AA.medi" unicode="&#x6aa;" horiz-adv-x="1264" 
d="M1269 4l-5 -4q-82 0 -126 31.5t-48 101.5q-16 -49 -94 -78q-151 -55 -545 -55h-451l-5 4l6 4h448q264 0 404.5 21.5t187 54.5t46.5 75q0 35 -28 64.5t-89.5 48.5t-158.5 19q-89 0 -169 -5.5t-100 -6.5q-118 -10 -214 -10q-142 0 -211 12v7q15 62 54.5 121t99 103
t131.5 60l-2 -8q-68 -16 -125.5 -59t-96.5 -100.5t-53 -117.5q78 -11 203 -11q73 0 215 10q156 12 268 12q98 0 161.5 -19t92 -50.5t28.5 -68.5h1q0 -83 42.5 -117.5t128.5 -34.5z" />
    <glyph glyph-name="uni06AA.fina" unicode="&#x6aa;" horiz-adv-x="1321" 
d="M1326 4l-5 -4q-82 0 -126 31.5t-49 101.5q-15 -49 -93 -78q-151 -55 -545 -55h-456l-2 8h456q264 0 404.5 21.5t186.5 54.5t46 75q0 35 -28 64.5t-89.5 48.5t-158.5 19q-89 0 -169 -5.5t-99 -6.5q-118 -10 -215 -10q-140 0 -211 12l1 7q15 61 54.5 120.5t99 103.5
t130.5 60l-1 -8q-68 -16 -125.5 -59t-96.5 -100.5t-54 -117.5q78 -11 204 -11q74 0 214 10q158 12 268 12q145 0 213.5 -39.5t69.5 -98.5v0q1 -82 43.5 -117t127.5 -35z" />
    <glyph glyph-name="uni06AB.init" unicode="&#x6ab;" horiz-adv-x="455" 
d="M386 730l-117 -85q9 3 19 3q29 0 49.5 -20t20.5 -49q0 -27 -20 -47.5t-50 -20.5t-50 20.5t-20 47.5q0 20 11 37l-214 -156q153 -58 225.5 -121t72.5 -134q0 -103 -88 -154t-225 -51l-5 4l6 4q135 0 220 48.5t85 149.5q0 67 -72.5 129t-226.5 121l1 8l379 275zM333 623
q-18 18 -45 18t-45.5 -18t-18.5 -44q0 -25 18.5 -43.5t45.5 -18.5q28 0 45.5 18.5t17.5 43.5q0 26 -18 44z" />
    <glyph glyph-name="uni06AB.medi" unicode="&#x6ab;" horiz-adv-x="540" 
d="M545 4l-5 -4q-53 0 -93.5 22.5t-87.5 75.5t-144 177q19 -35 19 -81q0 -94 -58 -144t-176 -50l-5 4l6 4q114 0 170 48.5t56 138.5q0 64 -36 107l-124 154l1 8l379 275l-1 -9l-116 -84q12 2 18 2q29 0 49 -20t20 -49q0 -27 -19.5 -47.5t-49.5 -20.5t-50.5 20.5t-20.5 47.5
q0 19 11 36l-214 -155l134 -166l17 -21q102 -126 145.5 -174.5t81 -69.5t88.5 -21zM393 623q-18 18 -45 18t-45.5 -18t-18.5 -44q0 -25 18 -43.5t46 -18.5t45.5 18.5t17.5 43.5q0 26 -18 44z" />
    <glyph glyph-name="uni06AB.fina" unicode="&#x6ab;" horiz-adv-x="971" 
d="M976 4l-5 -4q-53 0 -93 22.5t-86.5 75t-145.5 177.5q19 -34 19 -81q0 -69 -30 -114t-103.5 -68.5t-200.5 -23.5q-263 0 -263 168q0 72 35 145l6 -3q-34 -72 -34 -142q0 -160 257 -160q125 0 196.5 22.5t100.5 66t29 110.5q0 64 -35 107l-125 154l1 8l380 275l-2 -9
l-115 -84q10 2 17 2q29 0 49 -20t20 -49q0 -27 -19.5 -47.5t-49.5 -20.5t-50.5 20.5t-20.5 47.5q0 18 10 35l-213 -154l134 -166l16 -20q102 -127 146 -175.5t81.5 -69.5t89.5 -21zM823.5 623q-18.5 18 -44.5 18q-27 0 -45.5 -18t-18.5 -44q0 -25 18 -43.5t46 -18.5
t45.5 18.5t17.5 43.5q0 26 -18.5 44z" />
    <glyph glyph-name="uni06AC.init" unicode="&#x6ac;" horiz-adv-x="455" 
d="M386 730l-371 -270q153 -58 225.5 -121t72.5 -134q0 -103 -88 -154t-225 -51l-5 4l6 4q135 0 220 48.5t85 149.5q0 67 -72.5 129t-226.5 121l1 8l379 275zM22 683q0 9 9 9t9 -9t-9 -9t-9 9z" />
    <glyph glyph-name="uni06AC.medi" unicode="&#x6ac;" horiz-adv-x="540" 
d="M545 4l-5 -4q-53 0 -93.5 22.5t-87.5 75.5t-144 177q19 -35 19 -81q0 -94 -58 -144t-176 -50l-5 4l6 4q114 0 170 48.5t56 138.5q0 64 -36 107l-124 154l1 8l379 275l-1 -9l-372 -270l134 -166l17 -21q102 -126 145.5 -174.5t81 -69.5t88.5 -21zM78 683q0 9 9 9t9 -9
t-9 -9t-9 9z" />
    <glyph glyph-name="uni06AC.fina" unicode="&#x6ac;" horiz-adv-x="851" 
d="M857 4l-6 -4q-47 0 -77 18t-44 39.5t-17 36.5q-61 -51 -158.5 -78.5t-223.5 -27.5q-263 0 -263 168q0 72 35 145l6 -3q-34 -72 -34 -142q0 -160 257 -160q124 0 221.5 28t157.5 78v629h7v-623q0 -14 12.5 -37.5t42.5 -43t79 -19.5zM431 311.5q44 17.5 44 50.5
q0 25 -31.5 44.5t-102.5 35.5l2 7l147 83v-7l-140 -79q70 -17 100.5 -37t30.5 -47q0 -37 -46 -56t-127 -19l-2 7q81 0 125 17.5zM706 821q0 9 9 9t9 -9t-9 -9t-9 9z" />
    <glyph glyph-name="uni06AE.init" unicode="&#x6ae;" horiz-adv-x="455" 
d="M386 730l-371 -270q153 -58 225.5 -121t72.5 -134q0 -103 -88 -154t-225 -51l-5 4l6 4q135 0 220 48.5t85 149.5q0 67 -72.5 129t-226.5 121l1 8l379 275zM66.5 -149.5q-2.5 2.5 -2.5 5.5q0 4 2.5 6.5t6.5 2.5q9 0 9 -9q0 -8 -9 -8q-4 0 -6.5 2.5zM186 -144q0 9 9 9
q4 0 6.5 -2.5t2.5 -6.5q0 -3 -2.5 -5.5t-6.5 -2.5q-9 0 -9 8zM127.5 -240.5q-2.5 2.5 -2.5 6.5t2.5 6.5t6.5 2.5q9 0 9 -9t-9 -9q-4 0 -6.5 2.5z" />
    <glyph glyph-name="uni06AE.medi" unicode="&#x6ae;" horiz-adv-x="540" 
d="M545 4l-5 -4q-53 0 -93.5 22.5t-87.5 75.5t-144 177q19 -35 19 -81q0 -94 -58 -144t-176 -50l-5 4l6 4q114 0 170 48.5t56 138.5q0 64 -36 107l-124 154l1 8l379 275l-1 -9l-372 -270l134 -166l17 -21q102 -126 145.5 -174.5t81 -69.5t88.5 -21zM200.5 -149.5
q-2.5 2.5 -2.5 5.5q0 4 2.5 6.5t6.5 2.5q9 0 9 -9q0 -8 -9 -8q-4 0 -6.5 2.5zM320 -144q0 9 9 9q4 0 6.5 -2.5t2.5 -6.5q0 -3 -2.5 -5.5t-6.5 -2.5q-9 0 -9 8zM261.5 -240.5q-2.5 2.5 -2.5 6.5t2.5 6.5t6.5 2.5q9 0 9 -9t-9 -9q-4 0 -6.5 2.5z" />
    <glyph glyph-name="uni06AE.fina" unicode="&#x6ae;" horiz-adv-x="851" 
d="M857 4l-6 -4q-47 0 -77 18t-44 39.5t-17 36.5q-61 -51 -158.5 -78.5t-223.5 -27.5q-263 0 -263 168q0 72 35 145l6 -3q-34 -72 -34 -142q0 -160 257 -160q124 0 221.5 28t157.5 78v629h7v-623q0 -14 12.5 -37.5t42.5 -43t79 -19.5zM431 311.5q44 17.5 44 50.5
q0 25 -31.5 44.5t-102.5 35.5l2 7l147 83v-7l-140 -79q70 -17 100.5 -37t30.5 -47q0 -37 -46 -56t-127 -19l-2 7q81 0 125 17.5zM330.5 -149.5q-2.5 2.5 -2.5 5.5q0 4 2.5 6.5t6.5 2.5q9 0 9 -9q0 -8 -9 -8q-4 0 -6.5 2.5zM450 -144q0 9 9 9q4 0 6.5 -2.5t2.5 -6.5
q0 -3 -2.5 -5.5t-6.5 -2.5q-9 0 -9 8zM391.5 -240.5q-2.5 2.5 -2.5 6.5t2.5 6.5t6.5 2.5q9 0 9 -9t-9 -9q-4 0 -6.5 2.5z" />
    <glyph glyph-name="uni06B0.init" unicode="&#x6b0;" horiz-adv-x="455" 
d="M374 848l-375 -276l2 9l374 275zM386 730l-113 -82q10 2 17 2q29 0 49.5 -20t20.5 -48t-19.5 -48.5t-50.5 -20.5q-29 0 -49.5 20.5t-20.5 48.5q0 17 10 35l-215 -157q153 -58 225.5 -121t72.5 -134q0 -103 -88 -154t-225 -51l-5 4l6 4q135 0 220 48.5t85 149.5
q0 67 -72.5 129t-226.5 121l1 8l379 275zM335 625.5q-18 17.5 -45 17.5t-45 -18t-18 -43t18 -43.5t45 -18.5q28 0 45.5 18t17.5 44t-18 43.5z" />
    <glyph glyph-name="uni06B0.medi" unicode="&#x6b0;" horiz-adv-x="540" 
d="M434 848l-375 -276l1 9l374 275v-8zM545 4l-5 -4q-53 0 -93.5 22.5t-87.5 75.5t-144 177q19 -35 19 -81q0 -94 -58 -144t-176 -50l-5 4l6 4q114 0 170 48.5t56 138.5q0 64 -36 107l-124 154l1 8l379 275l-1 -9l-112 -82q10 2 16 2q29 0 49.5 -20t20.5 -48t-19.5 -48.5
t-50.5 -20.5q-30 0 -50 20.5t-20 48.5q0 19 9 34l-215 -156l134 -166l17 -21q102 -126 145.5 -174.5t81 -69.5t88.5 -21zM395 625.5q-18 17.5 -45 17.5t-45.5 -18t-18.5 -43t18 -43.5t46 -18.5t45.5 18t17.5 44t-18 43.5z" />
    <glyph glyph-name="uni06B0.fina" unicode="&#x6b0;" horiz-adv-x="971" 
d="M858 848l-375 -276l1 9l374 275v-8zM976 4l-5 -4q-53 0 -93 22.5t-86.5 75t-145.5 177.5q19 -34 19 -81q0 -69 -30 -114t-103.5 -68.5t-200.5 -23.5q-263 0 -263 168q0 72 35 145l6 -3q-34 -72 -34 -142q0 -160 257 -160q125 0 196.5 22.5t100.5 66t29 110.5
q0 64 -35 107l-125 154l1 8l225 163q7 7 19 14l136 98l-2 -9l-114 -83q4 1 12 1q29 0 49 -20t20 -49q0 -27 -19.5 -47.5t-49.5 -20.5t-50.5 20.5t-20.5 47.5q0 14 7 30l-206 -149l134 -166l16 -20q102 -127 146 -175.5t81.5 -69.5t89.5 -21zM747 635l-20 -14
q-16 -18 -16 -42q0 -25 18 -43.5t46 -18.5t45.5 18.5t17.5 43.5q0 26 -18.5 44t-44.5 18q-16 0 -28 -6z" />
    <glyph glyph-name="uni06B2.init" unicode="&#x6b2;" horiz-adv-x="455" 
d="M374 848l-375 -276l2 9l374 275zM386 730l-371 -270q153 -58 225.5 -121t72.5 -134q0 -103 -88 -154t-225 -51l-5 4l6 4q135 0 220 48.5t85 149.5q0 67 -72.5 129t-226.5 121l1 8l379 275zM67 -150.5q-3 2.5 -3 6.5t3 6.5t7 2.5t6.5 -2.5t2.5 -6.5t-2.5 -6.5t-6.5 -2.5
t-7 2.5zM187.5 -150.5q-2.5 2.5 -2.5 6.5t2.5 6.5t6.5 2.5t7 -2.5t3 -6.5t-3 -6.5t-7 -2.5t-6.5 2.5z" />
    <glyph glyph-name="uni06B2.medi" unicode="&#x6b2;" horiz-adv-x="540" 
d="M434 848l-375 -276l1 9l374 275v-8zM545 4l-5 -4q-53 0 -93.5 22.5t-87.5 75.5t-144 177q19 -35 19 -81q0 -94 -58 -144t-176 -50l-5 4l6 4q114 0 170 48.5t56 138.5q0 64 -36 107l-124 154l1 8l379 275l-1 -9l-372 -270l134 -166l17 -21q102 -126 145.5 -174.5t81 -69.5
t88.5 -21zM201 -150.5q-3 2.5 -3 6.5t3 6.5t7 2.5t6.5 -2.5t2.5 -6.5t-2.5 -6.5t-6.5 -2.5t-7 2.5zM321.5 -150.5q-2.5 2.5 -2.5 6.5t2.5 6.5t6.5 2.5t7 -2.5t3 -6.5t-3 -6.5t-7 -2.5t-6.5 2.5z" />
    <glyph glyph-name="uni06B2.fina" unicode="&#x6b2;" horiz-adv-x="967" 
d="M858 848l-375 -276l1 9l374 275v-8zM976 4l-5 -4q-53 0 -93 22.5t-86.5 75t-145.5 177.5q19 -34 19 -81q0 -69 -30 -114t-103.5 -68.5t-200.5 -23.5q-263 0 -263 168q0 72 35 145l6 -3q-34 -72 -34 -142q0 -160 257 -160q125 0 196.5 22.5t100.5 66t29 110.5
q0 64 -35 107l-125 154l1 8l380 275l-2 -9l-372 -270l134 -166l16 -20q102 -127 146 -175.5t81.5 -69.5t89.5 -21zM302 -150.5q-3 2.5 -3 6.5t3 6.5t7 2.5t6.5 -2.5t2.5 -6.5t-2.5 -6.5t-6.5 -2.5t-7 2.5zM422.5 -150.5q-2.5 2.5 -2.5 6.5t2.5 6.5t6.5 2.5t7 -2.5t3 -6.5
t-3 -6.5t-7 -2.5t-6.5 2.5z" />
    <glyph glyph-name="uni06B4.init" unicode="&#x6b4;" horiz-adv-x="455" 
d="M374 848l-375 -276l2 9l374 275zM386 730l-371 -270q153 -58 225.5 -121t72.5 -134q0 -103 -88 -154t-225 -51l-5 4l6 4q135 0 220 48.5t85 149.5q0 67 -72.5 129t-226.5 121l1 8l379 275zM65.5 861.5q-2.5 2.5 -2.5 6.5q0 3 2.5 6t6.5 3t6.5 -3t2.5 -6q0 -9 -9 -9
q-4 0 -6.5 2.5zM4.5 770.5q-2.5 2.5 -2.5 6.5q0 3 2.5 6t6.5 3t6.5 -3t2.5 -6q0 -9 -9 -9q-4 0 -6.5 2.5zM124 777q0 3 2.5 6t6.5 3t6.5 -3t2.5 -6q0 -4 -2.5 -6.5t-6.5 -2.5q-9 0 -9 9z" />
    <glyph glyph-name="uni06B4.medi" unicode="&#x6b4;" horiz-adv-x="540" 
d="M434 848l-375 -276l1 9l374 275v-8zM545 4l-5 -4q-53 0 -93.5 22.5t-87.5 75.5t-144 177q19 -35 19 -81q0 -94 -58 -144t-176 -50l-5 4l6 4q114 0 170 48.5t56 138.5q0 64 -36 107l-124 154l1 8l379 275l-1 -9l-372 -270l134 -166l17 -21q102 -126 145.5 -174.5t81 -69.5
t88.5 -21zM101.5 861.5q-2.5 2.5 -2.5 6.5q0 3 2.5 6t6.5 3t6.5 -3t2.5 -6q0 -9 -9 -9q-4 0 -6.5 2.5zM40.5 770.5q-2.5 2.5 -2.5 6.5q0 3 2.5 6t6.5 3t6.5 -3t2.5 -6q0 -9 -9 -9q-4 0 -6.5 2.5zM160 777q0 3 2.5 6t6.5 3t6.5 -3t2.5 -6q0 -4 -2.5 -6.5t-6.5 -2.5q-9 0 -9 9
z" />
    <glyph glyph-name="uni06B4.fina" unicode="&#x6b4;" horiz-adv-x="967" 
d="M858 848l-375 -276l1 9l374 275v-8zM976 4l-5 -4q-53 0 -93 22.5t-86.5 75t-145.5 177.5q19 -34 19 -81q0 -69 -30 -114t-103.5 -68.5t-200.5 -23.5q-263 0 -263 168q0 72 35 145l6 -3q-34 -72 -34 -142q0 -160 257 -160q125 0 196.5 22.5t100.5 66t29 110.5
q0 64 -35 107l-125 154l1 8l380 275l-2 -9l-372 -270l134 -166l16 -20q102 -127 146 -175.5t81.5 -69.5t89.5 -21zM554.5 861.5q-2.5 2.5 -2.5 6.5q0 3 2.5 6t6.5 3t6.5 -3t2.5 -6q0 -9 -9 -9q-4 0 -6.5 2.5zM493.5 770.5q-2.5 2.5 -2.5 6.5q0 3 2.5 6t6.5 3t6.5 -3t2.5 -6
q0 -9 -9 -9q-4 0 -6.5 2.5zM613 777q0 3 2.5 6t6.5 3t6.5 -3t2.5 -6q0 -4 -2.5 -6.5t-6.5 -2.5q-9 0 -9 9z" />
    <glyph glyph-name="uni06B5.init" unicode="&#x6b5;" horiz-adv-x="218" 
d="M-5 4l6 4q52 0 81.5 27t29.5 83v613h8v-613q0 -61 -32 -89.5t-88 -28.5zM116 802l76 131l5 -2l-78 -136h-6l-78 136l6 2z" />
    <glyph glyph-name="uni06B5.medi" unicode="&#x6b5;" horiz-adv-x="232" 
d="M237 4l-5 -4q-49 0 -79.5 22.5t-36.5 66.5q-7 -44 -37 -66.5t-79 -22.5l-5 4l6 4q53 0 82 27t29 83v613l8 1v-614q0 -56 29.5 -83t82.5 -27zM116 803l76 131l5 -2l-78 -136h-6l-78 136l6 2z" />
    <glyph glyph-name="uni06B5.fina" unicode="&#x6b5;" horiz-adv-x="701" 
d="M706 4l-5 -4q-67 0 -101 26t-43 80v-26q0 -130 -63 -192.5t-196 -62.5q-119 0 -174.5 53.5t-55.5 143.5q0 88 34 173l6 -3q-33 -79 -33 -169q0 -87 53.5 -138.5t169.5 -51.5q131 0 191 60.5t60 186.5v651h8v-564q1 -84 32.5 -121.5t111.5 -37.5zM553 802l76 131l5 -2
l-78 -136h-6l-78 136l6 2z" />
    <glyph glyph-name="uni06B6.init" unicode="&#x6b6;" horiz-adv-x="218" 
d="M-5 4l6 4q52 0 81.5 27t29.5 83v613h8v-613q0 -61 -32 -89.5t-88 -28.5zM107 820q0 9 9 9t9 -9t-9 -9t-9 9z" />
    <glyph glyph-name="uni06B6.medi" unicode="&#x6b6;" horiz-adv-x="232" 
d="M237 4l-5 -4q-49 0 -79.5 22.5t-36.5 66.5q-7 -44 -37 -66.5t-79 -22.5l-5 4l6 4q53 0 82 27t29 83v613l8 1v-614q0 -56 29.5 -83t82.5 -27zM107 821q0 9 9 9t9 -9t-9 -9t-9 9z" />
    <glyph glyph-name="uni06B6.fina" unicode="&#x6b6;" horiz-adv-x="701" 
d="M706 4l-5 -4q-67 0 -101 26t-43 80v-26q0 -130 -63 -192.5t-196 -62.5q-119 0 -174.5 53.5t-55.5 143.5q0 88 34 173l6 -3q-33 -79 -33 -169q0 -87 53.5 -138.5t169.5 -51.5q131 0 191 60.5t60 186.5v651h8v-564q1 -84 32.5 -121.5t111.5 -37.5zM544 820q0 9 9 9t9 -9
t-9 -9t-9 9z" />
    <glyph glyph-name="uni06B7.init" unicode="&#x6b7;" horiz-adv-x="218" 
d="M-5 4l6 4q52 0 81.5 27t29.5 83v613h8v-613q0 -61 -32 -89.5t-88 -28.5zM109.5 901.5q-2.5 2.5 -2.5 6.5q0 3 2.5 6t6.5 3t6.5 -3t2.5 -6q0 -9 -9 -9q-4 0 -6.5 2.5zM48.5 810.5q-2.5 2.5 -2.5 6.5q0 3 2.5 6t6.5 3t6.5 -3t2.5 -6q0 -9 -9 -9q-4 0 -6.5 2.5zM168 817
q0 3 2.5 6t6.5 3t6.5 -3t2.5 -6q0 -4 -2.5 -6.5t-6.5 -2.5q-9 0 -9 9z" />
    <glyph glyph-name="uni06B7.medi" unicode="&#x6b7;" horiz-adv-x="232" 
d="M237 4l-5 -4q-49 0 -79.5 22.5t-36.5 66.5q-7 -44 -37 -66.5t-79 -22.5l-5 4l6 4q53 0 82 27t29 83v613l8 1v-614q0 -56 29.5 -83t82.5 -27zM109.5 902.5q-2.5 2.5 -2.5 6.5q0 3 2.5 6t6.5 3t6.5 -3t2.5 -6q0 -9 -9 -9q-4 0 -6.5 2.5zM48.5 811.5q-2.5 2.5 -2.5 6.5
q0 3 2.5 6t6.5 3t6.5 -3t2.5 -6q0 -9 -9 -9q-4 0 -6.5 2.5zM168 818q0 3 2.5 6t6.5 3t6.5 -3t2.5 -6q0 -4 -2.5 -6.5t-6.5 -2.5q-9 0 -9 9z" />
    <glyph glyph-name="uni06B7.fina" unicode="&#x6b7;" horiz-adv-x="701" 
d="M706 4l-5 -4q-67 0 -101 26t-43 80v-26q0 -130 -63 -192.5t-196 -62.5q-119 0 -174.5 53.5t-55.5 143.5q0 88 34 173l6 -3q-33 -79 -33 -169q0 -87 53.5 -138.5t169.5 -51.5q131 0 191 60.5t60 186.5v651h8v-564q1 -84 32.5 -121.5t111.5 -37.5zM546.5 901.5
q-2.5 2.5 -2.5 6.5q0 3 2.5 6t6.5 3t6.5 -3t2.5 -6q0 -9 -9 -9q-4 0 -6.5 2.5zM485.5 810.5q-2.5 2.5 -2.5 6.5q0 3 2.5 6t6.5 3t6.5 -3t2.5 -6q0 -9 -9 -9q-4 0 -6.5 2.5zM605 817q0 3 2.5 6t6.5 3t6.5 -3t2.5 -6q0 -4 -2.5 -6.5t-6.5 -2.5q-9 0 -9 9z" />
    <glyph glyph-name="uni06B8.init" unicode="&#x6b8;" horiz-adv-x="218" 
d="M-5 4l6 4q52 0 81.5 27t29.5 83v613h8v-613q0 -61 -32 -89.5t-88 -28.5zM48.5 -149.5q-2.5 2.5 -2.5 5.5q0 4 2.5 6.5t6.5 2.5q9 0 9 -9q0 -8 -9 -8q-4 0 -6.5 2.5zM168 -144q0 9 9 9q4 0 6.5 -2.5t2.5 -6.5q0 -3 -2.5 -5.5t-6.5 -2.5q-9 0 -9 8zM109.5 -240.5
q-2.5 2.5 -2.5 6.5t2.5 6.5t6.5 2.5q9 0 9 -9t-9 -9q-4 0 -6.5 2.5z" />
    <glyph glyph-name="uni06B8.medi" unicode="&#x6b8;" horiz-adv-x="232" 
d="M237 4l-5 -4q-49 0 -79.5 22.5t-36.5 66.5q-7 -44 -37 -66.5t-79 -22.5l-5 4l6 4q53 0 82 27t29 83v613l8 1v-614q0 -56 29.5 -83t82.5 -27zM48.5 -149.5q-2.5 2.5 -2.5 5.5q0 4 2.5 6.5t6.5 2.5q9 0 9 -9q0 -8 -9 -8q-4 0 -6.5 2.5zM168 -144q0 9 9 9q4 0 6.5 -2.5
t2.5 -6.5q0 -3 -2.5 -5.5t-6.5 -2.5q-9 0 -9 8zM109.5 -240.5q-2.5 2.5 -2.5 6.5t2.5 6.5t6.5 2.5q9 0 9 -9t-9 -9q-4 0 -6.5 2.5z" />
    <glyph glyph-name="uni06B8.fina" unicode="&#x6b8;" horiz-adv-x="701" 
d="M706 4l-5 -4q-67 0 -101 26t-43 80v-26q0 -130 -63 -192.5t-196 -62.5q-119 0 -174.5 53.5t-55.5 143.5q0 88 34 173l6 -3q-33 -79 -33 -169q0 -87 53.5 -138.5t169.5 -51.5q131 0 191 60.5t60 186.5v651h8v-564q1 -84 32.5 -121.5t111.5 -37.5zM229.5 -322.5
q-2.5 2.5 -2.5 5.5q0 4 2.5 6.5t6.5 2.5q9 0 9 -9q0 -8 -9 -8q-4 0 -6.5 2.5zM349 -317q0 9 9 9q4 0 6.5 -2.5t2.5 -6.5q0 -3 -2.5 -5.5t-6.5 -2.5q-9 0 -9 8zM290.5 -413.5q-2.5 2.5 -2.5 6.5t2.5 6.5t6.5 2.5q9 0 9 -9t-9 -9q-4 0 -6.5 2.5z" />
    <glyph glyph-name="uni06B9.init" unicode="&#x6b9;" horiz-adv-x="256" 
d="M133 41.5q37 33.5 37 107.5q0 108 -39 219l8 3q39 -111 39 -222q0 -78 -39.5 -113.5t-138.5 -35.5l-5 4l6 4q95 0 132 33.5zM108 -137q0 9 9 9t9 -9t-9 -9t-9 9zM118 475q0 9 9 9t9 -9t-9 -9t-9 9z" />
    <glyph glyph-name="uni06B9.medi" unicode="&#x6b9;" horiz-adv-x="295" 
d="M300 4l-5 -4q-58 0 -99 31t-49 79q-6 -49 -45 -79.5t-102 -30.5l-5 4l6 4q66 0 104 34.5t38 93.5v169h8v-169q0 -57 41.5 -92.5t102.5 -35.5zM137 -137q0 9 9 9t9 -9t-9 -9t-9 9zM138 397q0 9 9 9t9 -9t-9 -9t-9 9z" />
    <glyph glyph-name="uni06B9.fina" unicode="&#x6b9;" horiz-adv-x="689" 
d="M694 4l-5 -4q-48 0 -76 19t-37 48v-8q0 -153 -64 -223.5t-214 -70.5q-119 0 -174.5 53.5t-55.5 143.5q0 89 34 172l6 -2q-33 -81 -33 -170q0 -87 53.5 -138t169.5 -51q100 0 159 31t85.5 93t26.5 161q0 40 -12 87t-38 126l8 4q17 -55 29 -98.5t19 -85.5q7 -37 34 -60
t81 -23zM300 -364q0 9 9 9t9 -9t-9 -9t-9 9zM306 318q0 9 9 9t9 -9t-9 -9t-9 9z" />
    <glyph glyph-name="uni06BC.init" unicode="&#x6bc;" horiz-adv-x="256" 
d="M120 469q-3 3 -3 7q0 3 3 6t7 3t6.5 -3t2.5 -6q0 -4 -2.5 -7t-6.5 -3t-7 3zM167 1.5q19 -19.5 19 -47.5q0 -27 -19.5 -47.5t-49.5 -20.5t-50.5 20.5t-20.5 47.5q0 31 24 52q-30 -6 -70 -6l-5 4l6 4q95 0 132 33.5t37 107.5q0 108 -39 219l8 3q39 -111 39 -222
q0 -48 -13.5 -78.5t-44.5 -47.5q28 -2 47 -21.5zM162.5 -89.5q17.5 18.5 17.5 43.5q0 26 -18.5 44t-44.5 18q-10 0 -15 -1l-13 -5q-17 -8 -26.5 -22.5t-9.5 -33.5q0 -25 18 -43.5t46 -18.5t45.5 18.5z" />
    <glyph glyph-name="uni06BC.medi" unicode="&#x6bc;" horiz-adv-x="295" 
d="M138 397q0 4 2.5 7t6.5 3t7 -3t3 -7t-3 -6.5t-7 -2.5q-9 0 -9 9zM300 4l-5 -4q-58 0 -99 31t-49 79q-6 -51 -46 -80h9q29 0 49 -20t20 -48t-19.5 -48.5t-49.5 -20.5t-50.5 20.5t-20.5 48.5q0 27 19 46q-27 -8 -58 -8l-5 4l6 4q66 0 104 34.5t38 93.5v169h8v-169
q0 -57 41.5 -92.5t102.5 -35.5zM155 6q-18 18 -45 18t-45.5 -18.5t-18.5 -43.5t18 -43.5t46 -18.5t45.5 18t17.5 44t-18 44z" />
    <glyph glyph-name="uni06BC.fina" unicode="&#x6bc;" horiz-adv-x="689" 
d="M308.5 312q-2.5 3 -2.5 6q0 4 2.5 7t6.5 3t6.5 -3t2.5 -7q0 -3 -2.5 -6t-6.5 -3t-6.5 3zM694 4l-5 -4q-48 0 -76 19t-37 48v-8q0 -143 -56 -214t-186 -79q15 -9 23.5 -24t8.5 -34q0 -27 -19.5 -47.5t-49.5 -20.5t-50.5 20.5t-20.5 47.5q0 18 9 33.5t25 25.5
q-100 9 -146 61t-46 134q0 89 34 172l6 -2q-33 -81 -33 -170q0 -82 48 -132.5t152 -55.5q10 3 22 3q13 0 22 -4q136 5 193 73.5t57 211.5q0 40 -12 87t-38 126l8 4q17 -55 29 -98.5t19 -85.5q7 -37 34 -60t81 -23zM349 -257.5q-11 15.5 -28 22.5h-23q-17 0 -25 1
q-18 -8 -29 -23.5t-11 -34.5q0 -25 18 -43.5t46 -18.5t45.5 18.5t17.5 43.5q0 19 -11 34.5z" />
    <glyph glyph-name="uni06BD.init" unicode="&#x6bd;" horiz-adv-x="256" 
d="M133 41.5q37 33.5 37 107.5q0 108 -39 219l8 3q39 -111 39 -222q0 -78 -39.5 -113.5t-138.5 -35.5l-5 4l6 4q95 0 132 33.5zM120.5 556.5q-2.5 2.5 -2.5 6.5q0 3 2.5 6t6.5 3t6.5 -3t2.5 -6q0 -9 -9 -9q-4 0 -6.5 2.5zM59.5 465.5q-2.5 2.5 -2.5 6.5q0 3 2.5 6t6.5 3
t6.5 -3t2.5 -6q0 -9 -9 -9q-4 0 -6.5 2.5zM179 472q0 3 2.5 6t6.5 3t6.5 -3t2.5 -6q0 -4 -2.5 -6.5t-6.5 -2.5q-9 0 -9 9z" />
    <glyph glyph-name="uni06BD.medi" unicode="&#x6bd;" horiz-adv-x="295" 
d="M300 4l-5 -4q-58 0 -99 31t-49 79q-6 -49 -45 -79.5t-102 -30.5l-5 4l6 4q66 0 104 34.5t38 93.5v169h8v-169q0 -57 41.5 -92.5t102.5 -35.5zM140.5 478.5q-2.5 2.5 -2.5 6.5q0 3 2.5 6t6.5 3t6.5 -3t2.5 -6q0 -9 -9 -9q-4 0 -6.5 2.5zM79.5 387.5q-2.5 2.5 -2.5 6.5
q0 3 2.5 6t6.5 3t6.5 -3t2.5 -6q0 -9 -9 -9q-4 0 -6.5 2.5zM199 394q0 3 2.5 6t6.5 3t6.5 -3t2.5 -6q0 -4 -2.5 -6.5t-6.5 -2.5q-9 0 -9 9z" />
    <glyph glyph-name="uni06BD.fina" unicode="&#x6bd;" horiz-adv-x="689" 
d="M694 4l-5 -4q-48 0 -76 19t-37 48v-8q0 -153 -64 -223.5t-214 -70.5q-119 0 -174.5 53.5t-55.5 143.5q0 89 34 172l6 -2q-33 -81 -33 -170q0 -87 53.5 -138t169.5 -51q100 0 159 31t85.5 93t26.5 161q0 40 -12 87t-38 126l8 4q17 -55 29 -98.5t19 -85.5q7 -37 34 -60
t81 -23zM308.5 399.5q-2.5 2.5 -2.5 6.5q0 3 2.5 6t6.5 3t6.5 -3t2.5 -6q0 -9 -9 -9q-4 0 -6.5 2.5zM247.5 308.5q-2.5 2.5 -2.5 6.5q0 3 2.5 6t6.5 3t6.5 -3t2.5 -6q0 -9 -9 -9q-4 0 -6.5 2.5zM367 315q0 3 2.5 6t6.5 3t6.5 -3t2.5 -6q0 -4 -2.5 -6.5t-6.5 -2.5q-9 0 -9 9z
" />
    <glyph glyph-name="uni06BF.init" unicode="&#x6bf;" horiz-adv-x="690" 
d="M283 401.5q28 -10.5 50 -27.5t56 -47q57 -52 110 -86.5t136 -58.5l-1 -8l-10 -1q-99 -1 -177.5 -25.5t-179.5 -70.5q-87 -39 -144 -58t-123 -19l-5 4l6 4q64 0 119.5 18.5t143.5 57.5q99 46 178 70.5t178 25.5q-80 24 -129.5 57t-107.5 84q-49 44 -82.5 63.5t-81.5 19.5
q-31 0 -57.5 -7t-57.5 -26l-4 7q32 19 59.5 26.5t59.5 7.5q36 0 64 -10.5zM228.5 -149.5q-2.5 2.5 -2.5 5.5q0 4 2.5 6.5t6.5 2.5q9 0 9 -9q0 -8 -9 -8q-4 0 -6.5 2.5zM348 -144q0 9 9 9q4 0 6.5 -2.5t2.5 -6.5q0 -3 -2.5 -5.5t-6.5 -2.5q-9 0 -9 8zM289.5 -240.5
q-2.5 2.5 -2.5 6.5t2.5 6.5t6.5 2.5q9 0 9 -9t-9 -9q-4 0 -6.5 2.5zM210 492q0 9 9 9t9 -9t-9 -9t-9 9z" />
    <glyph glyph-name="uni06BF.medi" unicode="&#x6bf;" horiz-adv-x="750" 
d="M755 4l-5 -4q-201 0 -237 198q-50 -12 -97 -34t-116 -60q-64 -35 -106.5 -55.5t-92 -34.5t-101.5 -14l-5 4l6 4q72 0 135.5 25.5t157.5 76.5q92 51 158 77t140 28q-80 23 -129 52t-102 71q-43 35 -73 50.5t-75 15.5q-34 0 -60.5 -7t-60.5 -25l-4 7q36 19 63 26t62 7
q47 0 79 -16t75 -52q54 -44 105.5 -74t136.5 -54l-2 -7l-8 -1q-41 0 -79 -9q18 -101 77 -146t154 -45zM301.5 -99.5q-2.5 2.5 -2.5 5.5q0 4 2.5 6.5t6.5 2.5q9 0 9 -9q0 -8 -9 -8q-4 0 -6.5 2.5zM421 -94q0 9 9 9q4 0 6.5 -2.5t2.5 -6.5q0 -3 -2.5 -5.5t-6.5 -2.5q-9 0 -9 8
zM362.5 -190.5q-2.5 2.5 -2.5 6.5t2.5 6.5t6.5 2.5q9 0 9 -9t-9 -9q-4 0 -6.5 2.5zM205 494q0 9 9 9t9 -9t-9 -9t-9 9z" />
    <glyph glyph-name="uni06BF.fina" unicode="&#x6bf;" horiz-adv-x="709" 
d="M193.5 127.5q-100.5 -78.5 -100.5 -214.5q0 -66 32.5 -122.5t98.5 -90.5t161 -34q60 0 118.5 13t95.5 32l3 -8q-38 -19 -97.5 -32t-120.5 -13q-97 0 -164.5 35t-101 93.5t-33.5 126.5q0 155 125.5 236.5t348.5 83.5q-64 20 -106 45.5t-86 61.5q-43 34 -72 49t-73 15
q-35 0 -61.5 -7t-57.5 -26l-4 7q33 20 60.5 27t63.5 7q44 0 75 -16t75 -51q49 -40 92.5 -66t111.5 -44l-1 -8l-8 -1q-44 0 -83 -3q11 -118 67 -166.5t158 -48.5l4 -4l-5 -4q-104 0 -162 51t-69 171q-184 -16 -284.5 -94.5zM284.5 -42.5q-2.5 2.5 -2.5 6.5t2.5 6.5t6.5 2.5
q9 0 9 -9t-9 -9q-4 0 -6.5 2.5zM404 -36q0 9 9 9q4 0 6.5 -2.5t2.5 -6.5t-2.5 -6.5t-6.5 -2.5q-9 0 -9 9zM345.5 -133.5q-2.5 2.5 -2.5 6.5t2.5 6.5t6.5 2.5q9 0 9 -9t-9 -9q-4 0 -6.5 2.5zM213 492q0 9 9 9t9 -9t-9 -9t-9 9z" />
    <glyph glyph-name="uni06C2.fina" unicode="&#x6c2;" horiz-adv-x="549" 
d="M30 -23q41 114 95 172.5t111 58.5q40 0 65 -20.5t55 -63.5q27 -37 48.5 -60t57 -39.5t87.5 -16.5l5 -4l-5 -4q-54 0 -91 17t-60 40.5t-49 61.5q-29 41 -52 61t-61 20q-55 0 -107.5 -59t-90.5 -166zM322 309l-173 -27l-1 6l83 13q-31 16 -47.5 37.5t-16.5 45.5q0 28 21 47
t61 19q29 0 52 -13l-3 -5q-23 12 -49 12q-37 0 -56.5 -17.5t-19.5 -42.5q0 -23 17.5 -44.5t48.5 -37.5l83 13v-6z" />
    <glyph glyph-name="uni06C3.fina" unicode="&#x6c3;" horiz-adv-x="549" 
d="M30 -23q41 114 95 172.5t111 58.5q40 0 65 -20.5t55 -63.5q27 -37 48.5 -60t57 -39.5t87.5 -16.5l5 -4l-5 -4q-54 0 -91 17t-60 40.5t-49 61.5q-29 41 -52 61t-61 20q-55 0 -107.5 -59t-90.5 -166zM169 320.5q-3 2.5 -3 6.5t3 6.5t7 2.5t6.5 -2.5t2.5 -6.5t-2.5 -6.5
t-6.5 -2.5t-7 2.5zM289.5 320.5q-2.5 2.5 -2.5 6.5t2.5 6.5t6.5 2.5t7 -2.5t3 -6.5t-3 -6.5t-7 -2.5t-6.5 2.5z" />
    <glyph glyph-name="uni06C4.fina" unicode="&#x6c4;" horiz-adv-x="519" 
d="M519 0h-118q-21 -94 -100 -151t-231 -86l-2 8q47 8 95 23q-28 1 -47 21.5t-19 46.5q0 28 20.5 48.5t50.5 20.5q29 0 49 -20t20 -49q0 -30 -21 -50q77 31 120 77.5t57 110.5h-91q-105 0 -157.5 42.5t-52.5 116.5q0 43 20 82t54.5 62.5t77.5 23.5q74 0 120 -63.5t46 -179.5
q0 -42 -7 -76h116l5 -4zM395 8q7 32 7 76q0 113 -43.5 174t-114.5 61q-41 0 -74 -22.5t-52 -59t-19 -77.5q0 -71 50.5 -111.5t153.5 -40.5h89h3zM122 -181.5q18 -18.5 46 -18.5t45.5 18t17.5 44t-18 44t-45 18t-45.5 -18t-18.5 -44q0 -25 18 -43.5z" />
    <glyph glyph-name="uni06CA.fina" unicode="&#x6ca;" horiz-adv-x="519" 
d="M519 0h-118q-21 -94 -100 -151t-231 -86l-2 8q149 28 227 83.5t98 145.5h-91q-105 0 -157.5 42.5t-52.5 116.5q0 43 20 82t54.5 62.5t77.5 23.5q74 0 120 -63.5t46 -179.5q0 -42 -7 -76h116l5 -4zM395 8q7 32 7 76q0 113 -43.5 174t-114.5 61q-41 0 -74 -22.5t-52 -59
t-19 -77.5q0 -71 50.5 -111.5t153.5 -40.5h89h3zM184 449.5q-3 2.5 -3 6.5t3 6.5t7 2.5t6.5 -2.5t2.5 -6.5t-2.5 -6.5t-6.5 -2.5t-7 2.5zM304.5 449.5q-2.5 2.5 -2.5 6.5t2.5 6.5t6.5 2.5t7 -2.5t3 -6.5t-3 -6.5t-7 -2.5t-6.5 2.5z" />
    <glyph glyph-name="uni06CD.fina" unicode="&#x6cd;" horiz-adv-x="722" 
d="M722 0q-37 0 -64.5 7.5t-68.5 25.5q19 -11 27 -23.5t8 -30.5q0 -38 -34.5 -75.5t-105.5 -62.5t-172 -25q-119 0 -174.5 53.5t-55.5 143.5q0 84 28 158q-21 -19 -50 -33t-58 -20l-2 4q31 7 62.5 23.5t53.5 39.5l6 -2q-33 -79 -33 -169q0 -87 53.5 -138.5t169.5 -51.5
q99 0 168 24.5t103 60.5t34 71q0 20 -13 34.5t-53.5 33.5t-124.5 48l4 7q61 -21 142 -56q51 -22 80.5 -30.5t69.5 -8.5l5 -4z" />
    <glyph glyph-name="uni06CE.init" unicode="&#x6ce;" horiz-adv-x="256" 
d="M133 41.5q37 33.5 37 107.5q0 108 -39 219l8 3q39 -111 39 -222q0 -78 -39.5 -113.5t-138.5 -35.5l-5 4l6 4q95 0 132 33.5zM50 -150.5q-3 2.5 -3 6.5t3 6.5t7 2.5t6.5 -2.5t2.5 -6.5t-2.5 -6.5t-6.5 -2.5t-7 2.5zM170.5 -150.5q-2.5 2.5 -2.5 6.5t2.5 6.5t6.5 2.5
t7 -2.5t3 -6.5t-3 -6.5t-7 -2.5t-6.5 2.5zM127 457l76 131l5 -2l-78 -136h-6l-78 136l6 2z" />
    <glyph glyph-name="uni06CE.medi" unicode="&#x6ce;" horiz-adv-x="295" 
d="M300 4l-5 -4q-58 0 -99 31t-49 79q-6 -49 -45 -79.5t-102 -30.5l-5 4l6 4q66 0 104 34.5t38 93.5v169h8v-169q0 -57 41.5 -92.5t102.5 -35.5zM79 -150.5q-3 2.5 -3 6.5t3 6.5t7 2.5t6.5 -2.5t2.5 -6.5t-2.5 -6.5t-6.5 -2.5t-7 2.5zM199.5 -150.5q-2.5 2.5 -2.5 6.5
t2.5 6.5t6.5 2.5t7 -2.5t3 -6.5t-3 -6.5t-7 -2.5t-6.5 2.5zM147 379l76 131l5 -2l-78 -136h-6l-78 136l6 2z" />
    <glyph glyph-name="uni06CE.fina" unicode="&#x6ce;" horiz-adv-x="708" 
d="M708 0q-37 0 -64.5 7.5t-68.5 25.5q19 -11 27 -23.5t8 -30.5q0 -38 -34.5 -75.5t-105.5 -62.5t-172 -25q-119 0 -174.5 53.5t-55.5 143.5q0 89 34 172l6 -2q-33 -79 -33 -169q0 -87 53.5 -138.5t169.5 -51.5q99 0 168 24.5t103 60.5t34 71q0 20 -13 34.5t-53 33.5
t-124 48l3 7q61 -21 142 -56q51 -22 80.5 -30.5t69.5 -8.5l5 -4zM137 297l76 131l5 -2l-78 -136h-6l-78 136l6 2z" />
    <glyph glyph-name="uni06CF.fina" unicode="&#x6cf;" horiz-adv-x="519" 
d="M519 0h-118q-21 -94 -100 -151t-231 -86l-2 8q149 28 227 83.5t98 145.5h-91q-105 0 -157.5 42.5t-52.5 116.5q0 43 20 82t54.5 62.5t77.5 23.5q74 0 120 -63.5t46 -179.5q0 -42 -7 -76h116l5 -4zM395 8q7 32 7 76q0 113 -43.5 174t-114.5 61q-41 0 -74 -22.5t-52 -59
t-19 -77.5q0 -71 50.5 -111.5t153.5 -40.5h89h3zM242 418q0 9 9 9t9 -9t-9 -9t-9 9z" />
    <glyph glyph-name="uni06D1.init" unicode="&#x6d1;" horiz-adv-x="256" 
d="M133 41.5q37 33.5 37 107.5q0 108 -39 219l8 3q39 -111 39 -222q0 -78 -39.5 -113.5t-138.5 -35.5l-5 4l6 4q95 0 132 33.5zM49.5 -149.5q-2.5 2.5 -2.5 5.5q0 4 2.5 6.5t6.5 2.5q9 0 9 -9q0 -8 -9 -8q-4 0 -6.5 2.5zM169 -144q0 9 9 9q4 0 6.5 -2.5t2.5 -6.5
q0 -3 -2.5 -5.5t-6.5 -2.5q-9 0 -9 8zM110.5 -240.5q-2.5 2.5 -2.5 6.5t2.5 6.5t6.5 2.5q9 0 9 -9t-9 -9q-4 0 -6.5 2.5z" />
    <glyph glyph-name="uni06D1.medi" unicode="&#x6d1;" horiz-adv-x="295" 
d="M300 4l-5 -4q-58 0 -99 31t-49 79q-6 -49 -45 -79.5t-102 -30.5l-5 4l6 4q66 0 104 34.5t38 93.5v169h8v-169q0 -57 41.5 -92.5t102.5 -35.5zM78.5 -149.5q-2.5 2.5 -2.5 5.5q0 4 2.5 6.5t6.5 2.5q9 0 9 -9q0 -8 -9 -8q-4 0 -6.5 2.5zM198 -144q0 9 9 9q4 0 6.5 -2.5
t2.5 -6.5q0 -3 -2.5 -5.5t-6.5 -2.5q-9 0 -9 8zM139.5 -240.5q-2.5 2.5 -2.5 6.5t2.5 6.5t6.5 2.5q9 0 9 -9t-9 -9q-4 0 -6.5 2.5z" />
    <glyph glyph-name="uni06D1.fina" unicode="&#x6d1;" horiz-adv-x="708" 
d="M708 0q-37 0 -64.5 7.5t-68.5 25.5q19 -11 27 -23.5t8 -30.5q0 -38 -34.5 -75.5t-105.5 -62.5t-172 -25q-119 0 -174.5 53.5t-55.5 143.5q0 89 34 172l6 -2q-33 -79 -33 -169q0 -87 53.5 -138.5t169.5 -51.5q99 0 168 24.5t103 60.5t34 71q0 20 -13 34.5t-53 33.5
t-124 48l3 7q61 -21 142 -56q51 -22 80.5 -30.5t69.5 -8.5l5 -4zM237.5 -329.5q-2.5 2.5 -2.5 5.5q0 4 2.5 6.5t6.5 2.5q9 0 9 -9q0 -8 -9 -8q-4 0 -6.5 2.5zM357 -324q0 9 9 9q4 0 6.5 -2.5t2.5 -6.5q0 -3 -2.5 -5.5t-6.5 -2.5q-9 0 -9 8zM298.5 -420.5q-2.5 2.5 -2.5 6.5
t2.5 6.5t6.5 2.5q9 0 9 -9t-9 -9q-4 0 -6.5 2.5z" />
    <glyph glyph-name="uni06D5.fina" unicode="&#x6d5;" horiz-adv-x="477" 
d="M482 4l-5 -4h-5q-128 0 -132 141q-20 -44 -65 -71.5t-103 -27.5q-68 0 -105 34.5t-37 86.5q0 83 77.5 132.5t231.5 56.5v127l8 1v-325q0 -75 31.5 -111t94.5 -36h4zM274.5 78.5q44.5 28.5 64.5 72.5v193q-150 -7 -226 -54t-76 -126q0 -49 35 -81.5t100 -32.5
q58 0 102.5 28.5z" />
    <glyph glyph-name="uni06EE.fina" unicode="&#x6ee;" horiz-adv-x="504" 
d="M509 4l-5 -4q-50 0 -77.5 20t-44.5 60q-30 -43 -85.5 -67.5t-116.5 -24.5q-41 0 -76 8t-74 24l2 8q38 -16 72.5 -24t75.5 -8q60 0 114.5 24.5t84.5 66.5l-148 378l8 4l146 -377q18 -45 44.5 -64.5t74.5 -19.5zM83 570l78 135h6l78 -135l-5 -3l-76 131l-75 -131z" />
    <glyph glyph-name="uni06FA.init" unicode="&#x6fa;" horiz-adv-x="791" 
d="M713 150q0 -75 -33.5 -112.5t-98.5 -37.5q-58 0 -94.5 29.5t-42.5 77.5q-6 -48 -38 -77.5t-90 -29.5q-61 0 -93.5 28.5t-38.5 78.5q-7 -50 -50 -78.5t-134 -28.5l-5 4l6 4q95 0 137 32.5t42 93.5v171h8v-169q0 -62 32.5 -95t96.5 -33q60 0 91 34.5t31 93.5v169h8v-169
q0 -60 36.5 -94t98.5 -34q61 0 92.5 35.5t31.5 105.5q0 108 -39 219l7 3q39 -111 39 -221zM436.5 462.5q-2.5 2.5 -2.5 6.5q0 3 2.5 6t6.5 3t6.5 -3t2.5 -6q0 -9 -9 -9q-4 0 -6.5 2.5zM375.5 371.5q-2.5 2.5 -2.5 6.5q0 3 2.5 6t6.5 3t6.5 -3t2.5 -6q0 -9 -9 -9
q-4 0 -6.5 2.5zM495 378q0 3 2.5 6t6.5 3t6.5 -3t2.5 -6q0 -4 -2.5 -6.5t-6.5 -2.5q-9 0 -9 9zM441 -137q0 9 9 9t9 -9t-9 -9t-9 9z" />
    <glyph glyph-name="uni06FA.medi" unicode="&#x6fa;" horiz-adv-x="892" 
d="M897 4l-5 -4q-76 0 -119.5 26.5t-53.5 86.5q-7 -55 -42 -84t-94 -29t-96 29.5t-44 77.5q-6 -48 -38 -77.5t-91 -29.5t-95.5 29.5t-42.5 78.5q-8 -50 -51.5 -79t-124.5 -29l-5 4l6 4q84 0 127.5 33.5t43.5 92.5v171h8v-169q0 -60 36 -94t98 -34t93.5 34t31.5 94v169h8
v-169q0 -60 36.5 -94t99.5 -34t97 34.5t34 97.5v228h7v-208q1 -82 43.5 -117t127.5 -35zM436.5 478.5q-2.5 2.5 -2.5 6.5q0 3 2.5 6t6.5 3t6.5 -3t2.5 -6q0 -9 -9 -9q-4 0 -6.5 2.5zM375.5 387.5q-2.5 2.5 -2.5 6.5q0 3 2.5 6t6.5 3t6.5 -3t2.5 -6q0 -9 -9 -9q-4 0 -6.5 2.5
zM495 394q0 3 2.5 6t6.5 3t6.5 -3t2.5 -6q0 -4 -2.5 -6.5t-6.5 -2.5q-9 0 -9 9zM434 -137q0 9 9 9t9 -9t-9 -9t-9 9z" />
    <glyph glyph-name="uni06FA.fina" unicode="&#x6fa;" horiz-adv-x="1264" 
d="M1269 4l-5 -4q-76 0 -119.5 26.5t-52.5 86.5q-7 -54 -43 -83.5t-94 -29.5q-59 0 -95.5 29t-43.5 77q-5 -47 -37 -76.5t-90 -29.5q-48 0 -76 19t-37 48v-8q0 -153 -64 -223.5t-214 -70.5q-119 0 -174.5 53.5t-55.5 143.5q0 89 34 172l6 -2q-33 -81 -33 -170
q0 -87 53.5 -138t169.5 -51q100 0 159 31t85.5 93t26.5 161q0 40 -12 87t-38 126l8 4q17 -55 29 -98.5t19 -85.5q7 -37 34 -60t81 -23q60 0 91 34t31 94v169h7v-169q0 -60 36.5 -94t99.5 -34t97 34.5t34 97.5v211h7v-191v0q1 -82 43.5 -117t127.5 -35zM809.5 479.5
q-2.5 2.5 -2.5 6.5q0 3 2.5 6t6.5 3t6.5 -3t2.5 -6q0 -9 -9 -9q-4 0 -6.5 2.5zM748.5 388.5q-2.5 2.5 -2.5 6.5q0 3 2.5 6t6.5 3t6.5 -3t2.5 -6q0 -9 -9 -9q-4 0 -6.5 2.5zM868 395q0 3 2.5 6t6.5 3t6.5 -3t2.5 -6q0 -4 -2.5 -6.5t-6.5 -2.5q-9 0 -9 9zM806 -137q0 9 9 9
t9 -9t-9 -9t-9 9z" />
    <glyph glyph-name="uni06FB.init" unicode="&#x6fb;" horiz-adv-x="908" 
d="M590 481.5q-3 2.5 -3 6.5t3 6.5t7 2.5q9 0 9 -9t-9 -9q-4 0 -7 2.5zM783 356q47 -56 47 -153q0 -79 -34.5 -122.5t-113 -62t-219.5 -18.5h-177q-56 0 -95.5 30t-47.5 77q-6 -48 -44 -77.5t-99 -29.5l-5 4l6 4q65 0 101.5 33.5t36.5 91.5v231h8v-231q0 -56 38.5 -90
t97.5 -35q57 185 146 294.5t207 109.5q100 0 147 -56zM678 25.5q77 17.5 111 59.5t34 118q0 94 -45.5 147.5t-141.5 53.5q-115 0 -202 -107t-143 -289h172q138 0 215 17.5zM476 -137q0 -9 -9 -9t-9 9t9 9t9 -9z" />
    <glyph glyph-name="uni06FB.medi" unicode="&#x6fb;" horiz-adv-x="952" 
d="M590 481.5q-3 2.5 -3 6.5t3 6.5t7 2.5q9 0 9 -9t-9 -9q-4 0 -7 2.5zM957 4l-5 -4q-58 0 -94.5 19.5t-66.5 55.5q-36 -41 -113.5 -58t-214.5 -17h-177q-56 0 -95.5 30t-47.5 77q-6 -48 -44 -77.5t-99 -29.5l-5 4l6 4q65 0 101.5 33.5t36.5 91.5v231h8v-231q0 -56 38.5 -90
t97.5 -35q57 185 146 294.5t207 109.5q100 0 147 -56t47 -153q0 -79 -34 -122q28 -35 64 -54t93 -19zM678 25.5q77 17.5 111 59.5t34 118q0 94 -45.5 147.5t-141.5 53.5q-115 0 -202 -107t-143 -289h172q138 0 215 17.5zM476 -137q0 -9 -9 -9t-9 9t9 9t9 -9z" />
    <glyph glyph-name="uni06FB.fina" unicode="&#x6fb;" horiz-adv-x="1355" 
d="M991 488q0 9 9 9t9 -9t-9 -9t-9 9zM1360 4l-5 -4q-58 0 -94.5 19.5t-66.5 55.5q-36 -41 -113.5 -58t-214.5 -17h-177v1q-48 0 -76 19t-37 48v-8q0 -153 -64 -223.5t-214 -70.5q-119 0 -174.5 53.5t-55.5 143.5q0 89 34 172l6 -2q-33 -81 -33 -170q0 -87 53.5 -138
t169.5 -51q100 0 159 31t85.5 93t26.5 161q0 40 -12 87t-38 126l8 4q17 -55 29 -98.5t19 -85.5q6 -36 32.5 -59t79.5 -24q56 184 145.5 293.5t206.5 109.5q100 0 147.5 -56t47.5 -153q0 -78 -35 -122q28 -35 64 -54t93 -19zM1081 25.5q77 17.5 111 59.5t34 118
q0 94 -45.5 147.5t-141.5 53.5q-115 0 -202 -107t-143 -289h172q138 0 215 17.5zM877 -130.5q3 -2.5 3 -6.5t-3 -6.5t-7 -2.5q-9 0 -9 9t9 9q4 0 7 -2.5z" />
    <glyph glyph-name="uni06FC.init" unicode="&#x6fc;" horiz-adv-x="516" 
d="M487 51q-132 -31 -213.5 -41t-214.5 -10h-59l-5 4l6 4h56q105 0 181 6q-85 47 -126 97.5t-41 116.5q0 67 45 113t130 46q32 0 67 -9.5t65 -27.5l-3 -7q-29 17 -63.5 26.5t-65.5 9.5q-82 0 -125 -43.5t-43 -107.5q0 -65 42 -114.5t130 -98.5q53 6 106 16t130 28zM237 468
q0 9 9 9t9 -9t-9 -9t-9 9zM251 -137q0 9 9 9t9 -9t-9 -9t-9 9z" />
    <glyph glyph-name="uni06FC.medi" unicode="&#x6fc;" horiz-adv-x="538" 
d="M543 4l-5 -4h-16q-118 0 -224 88q-70 -40 -151 -64t-132 -24h-15l-5 4l6 4h12q51 0 131 23.5t149 61.5q-28 23 -78 73q-45 44 -80 76t-82 68v8q55 23 108 36.5t116 13.5q83 0 126.5 -26t43.5 -74q0 -49 -38.5 -94t-102.5 -82q50 -41 102.5 -62.5t114.5 -21.5h16z
M137 249.5q32 -28.5 82 -76.5q46 -46 81 -76q64 37 102 80.5t38 90.5q0 45 -41.5 68.5t-121.5 23.5q-106 0 -217 -47q45 -35 77 -63.5zM268 450q0 9 9 9t9 -9t-9 -9t-9 9zM281 -137q0 9 9 9t9 -9t-9 -9t-9 9z" />
    <glyph glyph-name="uni06FC.fina" unicode="&#x6fc;" horiz-adv-x="547" 
d="M78 -125q0 -58 32.5 -105.5t94 -75.5t143.5 -28q58 0 107 12t85 31l3 -7q-36 -20 -86 -32t-110 -12q-84 0 -147 29.5t-96.5 78.5t-33.5 108q0 85 52 146t145 98l-49 47q-80 82 -160 145l1 8q117 50 226 50q168 0 168 -101q0 -44 -41 -79.5t-131 -71.5l21 -18
q55 -46 108 -68t119 -22h19l4 -4l-5 -4h-19q-66 0 -122.5 23t-110.5 70l-23 20q-194 -79 -194 -238zM285 360q-104 0 -219 -47q45 -35 77 -64.5t80 -76.5l52 -51q89 36 129.5 70t40.5 76q0 93 -160 93zM267 457q0 9 9 9t9 -9t-9 -9t-9 9zM309 -114q0 9 9 9t9 -9t-9 -9t-9 9z
" />
    <glyph glyph-name="uni06FF.init" unicode="&#x6ff;" horiz-adv-x="631" 
d="M432 301q122 -96 122 -168q0 -43 -25 -76t-62.5 -51t-73.5 -18q-39 0 -84 14t-87 39q-89 -41 -210 -41h-12l-5 4l6 4h10q119 0 203 38q-60 38 -97 90.5t-37 111.5q0 45 19.5 82.5t54 59t76.5 21.5q13 0 33 -4q-77 45 -140 76l4 7q183 -93 305 -189zM125 138
q38 -52 98 -88q69 33 105 85t36 109q0 43 -17 80t-47.5 58.5t-69.5 21.5q-40 0 -73 -21t-51.5 -56.5t-18.5 -78.5q0 -58 38 -110zM462.5 12.5q35.5 16.5 59.5 47.5t24 72q0 47 -59 108t-161 127q21 -23 33 -55t12 -67q0 -58 -36 -111.5t-105 -88.5q40 -23 83 -36t80 -13
q34 0 69.5 16.5zM278 519l78 135h6l78 -135l-5 -3l-76 131l-75 -131z" />
    <glyph glyph-name="uni06FF.medi" unicode="&#x6ff;" horiz-adv-x="469" 
d="M469 0h-213q63 -12 103.5 -46.5t40.5 -93.5q0 -42 -28 -72.5t-82 -30.5q-57 0 -100 31.5t-66 87t-23 124.5h-101l-5 4l6 4h100q0 84 28 156t75 114.5t101 42.5q43 0 71 -28t28 -84q0 -40 -20.5 -83t-57 -75t-82.5 -43h226l4 -4zM208 272q-45 -41 -72.5 -111t-27.5 -153
h91q56 0 101 31t70.5 77.5t25.5 91.5q0 53 -26 79t-66 26q-51 0 -96 -41zM336.5 -36q-56.5 36 -134.5 36h-94q1 -68 23 -121.5t62.5 -83.5t95.5 -30q52 0 78 28t26 67q0 68 -56.5 104zM223 389l78 135h6l78 -135l-5 -3l-76 131l-75 -131z" />
    <glyph glyph-name="uni06FF.fina" unicode="&#x6ff;" horiz-adv-x="549" 
d="M549 0h-213q63 -12 103.5 -46.5t40.5 -93.5q0 -42 -28 -72.5t-82 -30.5q-57 0 -100 31.5t-66 87t-23 124.5q-42 1 -72.5 6t-60.5 18l4 7q30 -13 60 -18t69 -5q0 84 28 156t75 114.5t101 42.5q43 0 71 -28t28 -84q0 -40 -20.5 -83t-57 -75t-82.5 -43h226l4 -4zM288 272
q-45 -41 -72.5 -111t-27.5 -153h2h89q56 0 101 31t70.5 77.5t25.5 91.5q0 53 -26 79t-66 26q-51 0 -96 -41zM416.5 -36q-56.5 36 -134.5 36h-94q1 -68 23 -121.5t62.5 -83.5t95.5 -30q52 0 78 28t26 67q0 68 -56.5 104zM304 389l78 135h6l78 -135l-5 -3l-76 131l-75 -131z
" />
    <glyph glyph-name="uniFB51" unicode="&#x671;" horiz-adv-x="218" arabic-form="final" 
d="M98 644l7 1v-527q0 -56 30 -83t83 -27l5 -4l-5 -4q-56 0 -88 29t-32 89v526zM206.5 843.5q14.5 -15.5 14.5 -37.5q0 -28 -25.5 -44.5t-68.5 -16.5q-35 0 -101 22l-17 -47l-5 2l18 52l33 -10q47 95 107 95q30 0 44.5 -15.5zM192 766q23 15 23 40q0 19 -12.5 33t-40.5 14
q-56 0 -102 -90q37 -12 68 -12q41 0 64 15z" />
    <glyph glyph-name="uniFB53" unicode="&#x67b;" horiz-adv-x="859" arabic-form="final" 
d="M864 4l-5 -4q-68 0 -100.5 32t-40.5 62q-62 -51 -161 -78.5t-226 -27.5q-263 0 -263 168q0 72 35 145l6 -3q-34 -72 -34 -142q0 -160 257 -160q125 0 223.5 27.5t159.5 77.5v204h7v-197q0 -14 13 -37.5t44 -43t81 -19.5zM347 -124.5q-3 2.5 -3 6.5t3 6.5t6 2.5q9 0 9 -9
t-9 -9q-3 0 -6 2.5zM347 -245.5q-3 2.5 -3 6.5t3 6.5t6 2.5q9 0 9 -9t-9 -9q-3 0 -6 2.5z" />
    <glyph glyph-name="uniFB54" unicode="&#x67b;" horiz-adv-x="256" arabic-form="initial" 
d="M133 41.5q37 33.5 37 107.5q0 108 -39 219l8 3q39 -111 39 -222q0 -78 -39.5 -113.5t-138.5 -35.5l-5 4l6 4q95 0 132 33.5zM110 -124.5q-3 2.5 -3 6.5t3 6.5t6 2.5q9 0 9 -9t-9 -9q-3 0 -6 2.5zM110 -245.5q-3 2.5 -3 6.5t3 6.5t6 2.5q9 0 9 -9t-9 -9q-3 0 -6 2.5z" />
    <glyph glyph-name="uniFB55" unicode="&#x67b;" horiz-adv-x="295" arabic-form="medial" 
d="M300 4l-5 -4q-58 0 -99 31t-49 79q-6 -49 -45 -79.5t-102 -30.5l-5 4l6 4q66 0 104 34.5t38 93.5v169h8v-169q0 -57 41.5 -92.5t102.5 -35.5zM140 -124.5q-3 2.5 -3 6.5t3 6.5t6 2.5q9 0 9 -9t-9 -9q-3 0 -6 2.5zM140 -245.5q-3 2.5 -3 6.5t3 6.5t6 2.5q9 0 9 -9t-9 -9
q-3 0 -6 2.5z" />
    <glyph glyph-name="uniFB57" unicode="&#x67e;" horiz-adv-x="859" arabic-form="final" 
d="M864 4l-5 -4q-68 0 -100.5 32t-40.5 62q-62 -51 -161 -78.5t-226 -27.5q-263 0 -263 168q0 72 35 145l6 -3q-34 -72 -34 -142q0 -160 257 -160q125 0 223.5 27.5t159.5 77.5v204h7v-197q0 -14 13 -37.5t44 -43t81 -19.5zM286.5 -149.5q-2.5 2.5 -2.5 5.5q0 4 2.5 6.5
t6.5 2.5q9 0 9 -9q0 -8 -9 -8q-4 0 -6.5 2.5zM406 -144q0 9 9 9q4 0 6.5 -2.5t2.5 -6.5q0 -3 -2.5 -5.5t-6.5 -2.5q-9 0 -9 8zM347.5 -240.5q-2.5 2.5 -2.5 6.5t2.5 6.5t6.5 2.5q9 0 9 -9t-9 -9q-4 0 -6.5 2.5z" />
    <glyph glyph-name="uniFB58" unicode="&#x67e;" horiz-adv-x="256" arabic-form="initial" 
d="M133 41.5q37 33.5 37 107.5q0 108 -39 219l8 3q39 -111 39 -222q0 -78 -39.5 -113.5t-138.5 -35.5l-5 4l6 4q95 0 132 33.5zM49.5 -149.5q-2.5 2.5 -2.5 5.5q0 4 2.5 6.5t6.5 2.5q9 0 9 -9q0 -8 -9 -8q-4 0 -6.5 2.5zM169 -144q0 9 9 9q4 0 6.5 -2.5t2.5 -6.5
q0 -3 -2.5 -5.5t-6.5 -2.5q-9 0 -9 8zM110.5 -240.5q-2.5 2.5 -2.5 6.5t2.5 6.5t6.5 2.5q9 0 9 -9t-9 -9q-4 0 -6.5 2.5z" />
    <glyph glyph-name="uniFB59" unicode="&#x67e;" horiz-adv-x="295" arabic-form="medial" 
d="M300 4l-5 -4q-58 0 -99 31t-49 79q-6 -49 -45 -79.5t-102 -30.5l-5 4l6 4q66 0 104 34.5t38 93.5v169h8v-169q0 -57 41.5 -92.5t102.5 -35.5zM78.5 -149.5q-2.5 2.5 -2.5 5.5q0 4 2.5 6.5t6.5 2.5q9 0 9 -9q0 -8 -9 -8q-4 0 -6.5 2.5zM198 -144q0 9 9 9q4 0 6.5 -2.5
t2.5 -6.5q0 -3 -2.5 -5.5t-6.5 -2.5q-9 0 -9 8zM139.5 -240.5q-2.5 2.5 -2.5 6.5t2.5 6.5t6.5 2.5q9 0 9 -9t-9 -9q-4 0 -6.5 2.5z" />
    <glyph glyph-name="uniFB5B" unicode="&#x680;" horiz-adv-x="859" arabic-form="final" 
d="M864 4l-5 -4q-68 0 -100.5 32t-40.5 62q-62 -51 -161 -78.5t-226 -27.5q-263 0 -263 168q0 72 35 145l6 -3q-34 -72 -34 -142q0 -160 257 -160q125 0 223.5 27.5t159.5 77.5v204h7v-197q0 -14 13 -37.5t44 -43t81 -19.5zM285 -103q0 9 9 9q4 0 6.5 -2.5t2.5 -6.5
t-2.5 -6.5t-6.5 -2.5q-9 0 -9 9zM407.5 -109.5q-2.5 2.5 -2.5 6.5t2.5 6.5t6.5 2.5q9 0 9 -9t-9 -9q-4 0 -6.5 2.5zM285 -213q0 9 9 9q4 0 6.5 -2.5t2.5 -6.5q0 -3 -2.5 -5.5t-6.5 -2.5q-9 0 -9 8zM407.5 -218.5q-2.5 2.5 -2.5 5.5q0 4 2.5 6.5t6.5 2.5q9 0 9 -9q0 -8 -9 -8
q-4 0 -6.5 2.5z" />
    <glyph glyph-name="uniFB5C" unicode="&#x680;" horiz-adv-x="256" arabic-form="initial" 
d="M133 41.5q37 33.5 37 107.5q0 108 -39 219l8 3q39 -111 39 -222q0 -78 -39.5 -113.5t-138.5 -35.5l-5 4l6 4q95 0 132 33.5zM48 -103q0 9 9 9q4 0 6.5 -2.5t2.5 -6.5t-2.5 -6.5t-6.5 -2.5q-9 0 -9 9zM170.5 -109.5q-2.5 2.5 -2.5 6.5t2.5 6.5t6.5 2.5q9 0 9 -9t-9 -9
q-4 0 -6.5 2.5zM48 -213q0 9 9 9q4 0 6.5 -2.5t2.5 -6.5q0 -3 -2.5 -5.5t-6.5 -2.5q-9 0 -9 8zM170.5 -218.5q-2.5 2.5 -2.5 5.5q0 4 2.5 6.5t6.5 2.5q9 0 9 -9q0 -8 -9 -8q-4 0 -6.5 2.5z" />
    <glyph glyph-name="uniFB5D" unicode="&#x680;" horiz-adv-x="295" arabic-form="medial" 
d="M300 4l-5 -4q-58 0 -99 31t-49 79q-6 -49 -45 -79.5t-102 -30.5l-5 4l6 4q66 0 104 34.5t38 93.5v169h8v-169q0 -57 41.5 -92.5t102.5 -35.5zM77 -103q0 9 9 9q4 0 6.5 -2.5t2.5 -6.5t-2.5 -6.5t-6.5 -2.5q-9 0 -9 9zM199.5 -109.5q-2.5 2.5 -2.5 6.5t2.5 6.5t6.5 2.5
q9 0 9 -9t-9 -9q-4 0 -6.5 2.5zM77 -213q0 9 9 9q4 0 6.5 -2.5t2.5 -6.5q0 -3 -2.5 -5.5t-6.5 -2.5q-9 0 -9 8zM199.5 -218.5q-2.5 2.5 -2.5 5.5q0 4 2.5 6.5t6.5 2.5q9 0 9 -9q0 -8 -9 -8q-4 0 -6.5 2.5z" />
    <glyph glyph-name="uniFB5F" unicode="&#x67a;" horiz-adv-x="859" arabic-form="final" 
d="M864 4l-5 -4q-68 0 -100.5 32t-40.5 62q-62 -51 -161 -78.5t-226 -27.5q-263 0 -263 168q0 72 35 145l6 -3q-34 -72 -34 -142q0 -160 257 -160q125 0 223.5 27.5t159.5 77.5v204h7v-197q0 -14 13 -37.5t44 -43t81 -19.5zM395 498.5q-3 2.5 -3 6.5t3 7t6 3q4 0 6.5 -3
t2.5 -7t-2.5 -6.5t-6.5 -2.5q-3 0 -6 2.5zM395 378q-3 3 -3 7t3 6.5t6 2.5q4 0 6.5 -2.5t2.5 -6.5t-2.5 -7t-6.5 -3q-3 0 -6 3z" />
    <glyph glyph-name="uniFB60" unicode="&#x67a;" horiz-adv-x="256" arabic-form="initial" 
d="M133 41.5q37 33.5 37 107.5q0 108 -39 219l8 3q39 -111 39 -222q0 -78 -39.5 -113.5t-138.5 -35.5l-5 4l6 4q95 0 132 33.5zM120 589.5q-3 2.5 -3 6.5t3 7t6 3q4 0 6.5 -3t2.5 -7t-2.5 -6.5t-6.5 -2.5q-3 0 -6 2.5zM120 469q-3 3 -3 7t3 6.5t6 2.5q4 0 6.5 -2.5t2.5 -6.5
t-2.5 -7t-6.5 -3q-3 0 -6 3z" />
    <glyph glyph-name="uniFB61" unicode="&#x67a;" horiz-adv-x="295" arabic-form="medial" 
d="M300 4l-5 -4q-58 0 -99 31t-49 79q-6 -49 -45 -79.5t-102 -30.5l-5 4l6 4q66 0 104 34.5t38 93.5v169h8v-169q0 -57 41.5 -92.5t102.5 -35.5zM141 511.5q-3 2.5 -3 6.5t3 7t6 3q4 0 6.5 -3t2.5 -7t-2.5 -6.5t-6.5 -2.5q-3 0 -6 2.5zM141 391q-3 3 -3 7t3 6.5t6 2.5
q4 0 6.5 -2.5t2.5 -6.5t-2.5 -7t-6.5 -3q-3 0 -6 3z" />
    <glyph glyph-name="uniFB63" unicode="&#x67f;" horiz-adv-x="859" arabic-form="final" 
d="M864 4l-5 -4q-68 0 -100.5 32t-40.5 62q-62 -51 -161 -78.5t-226 -27.5q-263 0 -263 168q0 72 35 145l6 -3q-34 -72 -34 -142q0 -160 257 -160q125 0 223.5 27.5t159.5 77.5v204h7v-197q0 -14 13 -37.5t44 -43t81 -19.5zM333 486q0 9 9 9q4 0 6.5 -2.5t2.5 -6.5
t-2.5 -6.5t-6.5 -2.5q-9 0 -9 9zM455.5 479.5q-2.5 2.5 -2.5 6.5t2.5 6.5t6.5 2.5q9 0 9 -9t-9 -9q-4 0 -6.5 2.5zM335.5 370q-2.5 3 -2.5 6q0 9 9 9q4 0 6.5 -2.5t2.5 -6.5q0 -3 -2.5 -6t-6.5 -3t-6.5 3zM455.5 370q-2.5 3 -2.5 6q0 4 2.5 6.5t6.5 2.5q9 0 9 -9
q0 -3 -2.5 -6t-6.5 -3t-6.5 3z" />
    <glyph glyph-name="uniFB64" unicode="&#x67f;" horiz-adv-x="256" arabic-form="initial" 
d="M133 41.5q37 33.5 37 107.5q0 108 -39 219l8 3q39 -111 39 -222q0 -78 -39.5 -113.5t-138.5 -35.5l-5 4l6 4q95 0 132 33.5zM58 577q0 9 9 9q4 0 6.5 -2.5t2.5 -6.5t-2.5 -6.5t-6.5 -2.5q-9 0 -9 9zM180.5 570.5q-2.5 2.5 -2.5 6.5t2.5 6.5t6.5 2.5q9 0 9 -9t-9 -9
q-4 0 -6.5 2.5zM60.5 461q-2.5 3 -2.5 6q0 9 9 9q4 0 6.5 -2.5t2.5 -6.5q0 -3 -2.5 -6t-6.5 -3t-6.5 3zM180.5 461q-2.5 3 -2.5 6q0 4 2.5 6.5t6.5 2.5q9 0 9 -9q0 -3 -2.5 -6t-6.5 -3t-6.5 3z" />
    <glyph glyph-name="uniFB65" unicode="&#x67f;" horiz-adv-x="295" arabic-form="medial" 
d="M300 4l-5 -4q-58 0 -99 31t-49 79q-6 -49 -45 -79.5t-102 -30.5l-5 4l6 4q66 0 104 34.5t38 93.5v169h8v-169q0 -57 41.5 -92.5t102.5 -35.5zM78 499q0 9 9 9q4 0 6.5 -2.5t2.5 -6.5t-2.5 -6.5t-6.5 -2.5q-9 0 -9 9zM200.5 492.5q-2.5 2.5 -2.5 6.5t2.5 6.5t6.5 2.5
q9 0 9 -9t-9 -9q-4 0 -6.5 2.5zM80.5 383q-2.5 3 -2.5 6q0 9 9 9q4 0 6.5 -2.5t2.5 -6.5q0 -3 -2.5 -6t-6.5 -3t-6.5 3zM200.5 383q-2.5 3 -2.5 6q0 4 2.5 6.5t6.5 2.5q9 0 9 -9q0 -3 -2.5 -6t-6.5 -3t-6.5 3z" />
    <glyph glyph-name="uniFB67" unicode="&#x679;" horiz-adv-x="859" arabic-form="final" 
d="M864 4l-5 -4q-68 0 -100.5 32t-40.5 62q-62 -51 -161 -78.5t-226 -27.5q-263 0 -263 168q0 72 35 145l6 -3q-34 -72 -34 -142q0 -160 257 -160q125 0 223.5 27.5t159.5 77.5v204h7v-197q0 -14 13 -37.5t44 -43t81 -19.5zM497 484q17 -18 17 -48t-21.5 -50t-64.5 -20h-137
v6h21q8 17 20 36v152h6v-143q55 85 113 85q29 0 46 -18zM487.5 390q20.5 18 20.5 46t-15.5 44t-41.5 16q-69 0 -133 -124h109q40 0 60.5 18z" />
    <glyph glyph-name="uniFB68" unicode="&#x679;" horiz-adv-x="256" arabic-form="initial" 
d="M133 41.5q37 33.5 37 107.5q0 108 -39 219l8 3q39 -111 39 -222q0 -78 -39.5 -113.5t-138.5 -35.5l-5 4l6 4q95 0 132 33.5zM222 575q17 -18 17 -48t-21.5 -50t-64.5 -20h-137v6h21q8 17 20 36v152h6v-143q55 85 113 85q29 0 46 -18zM212.5 481q20.5 18 20.5 46t-15.5 44
t-41.5 16q-69 0 -133 -124h109q40 0 60.5 18z" />
    <glyph glyph-name="uniFB69" unicode="&#x679;" horiz-adv-x="295" arabic-form="medial" 
d="M300 4l-5 -4q-58 0 -99 31t-49 79q-6 -49 -45 -79.5t-102 -30.5l-5 4l6 4q66 0 104 34.5t38 93.5v169h8v-169q0 -57 41.5 -92.5t102.5 -35.5zM242 497q17 -18 17 -48t-21.5 -50t-64.5 -20h-137v6h21q8 17 20 36v152h6v-143q55 85 113 85q29 0 46 -18zM232.5 403
q20.5 18 20.5 46t-15.5 44t-41.5 16q-69 0 -133 -124h109q40 0 60.5 18z" />
    <glyph glyph-name="uniFB6B" unicode="&#x6a4;" horiz-adv-x="957" arabic-form="final" 
d="M962 4l-5 -4h-17q-57 0 -113.5 13.5t-105.5 38.5q-141 -64 -390 -64q-263 0 -263 168q0 72 35 145l6 -3q-34 -72 -34 -142q0 -160 257 -160q241 0 381 60q-65 36 -104 89.5t-39 116.5q0 45 20 85.5t55 64.5t77 24q49 0 85.5 -24t56 -64t19.5 -86q0 -59 -37 -113t-117 -93
q47 -23 101.5 -35.5t109.5 -12.5h18zM616.5 146.5q38.5 -51.5 104.5 -86.5q81 37 117.5 90t36.5 112q0 44 -18 82t-53 61t-82 23q-40 0 -73 -23t-52 -61.5t-19 -81.5q0 -64 38.5 -115.5zM715.5 598.5q-2.5 2.5 -2.5 6.5q0 3 2.5 6t6.5 3t6.5 -3t2.5 -6q0 -9 -9 -9
q-4 0 -6.5 2.5zM654.5 507.5q-2.5 2.5 -2.5 6.5q0 3 2.5 6t6.5 3t6.5 -3t2.5 -6q0 -9 -9 -9q-4 0 -6.5 2.5zM774 514q0 3 2.5 6t6.5 3t6.5 -3t2.5 -6q0 -4 -2.5 -6.5t-6.5 -2.5q-9 0 -9 9z" />
    <glyph glyph-name="uniFB6C" unicode="&#x6a4;" horiz-adv-x="447" arabic-form="initial" 
d="M325.5 453.5q43.5 -67.5 43.5 -202.5q0 -92 -35.5 -146.5t-115.5 -79.5t-218 -25l-5 4l6 4q133 0 211 23t113 73.5t37 137.5q-27 -19 -68 -31.5t-77 -12.5q-75 0 -120.5 43t-45.5 114q0 41 18.5 79.5t53.5 62.5t81 24q78 0 121.5 -67.5zM294 218q41 12 68 31v2
q0 132 -41.5 197t-116.5 65q-44 0 -77 -23t-50.5 -59.5t-17.5 -75.5q0 -68 43.5 -108.5t116.5 -40.5q34 0 75 12zM197.5 691.5q-2.5 2.5 -2.5 6.5q0 3 2.5 6t6.5 3t6.5 -3t2.5 -6q0 -9 -9 -9q-4 0 -6.5 2.5zM136.5 600.5q-2.5 2.5 -2.5 6.5q0 3 2.5 6t6.5 3t6.5 -3t2.5 -6
q0 -9 -9 -9q-4 0 -6.5 2.5zM256 607q0 3 2.5 6t6.5 3t6.5 -3t2.5 -6q0 -4 -2.5 -6.5t-6.5 -2.5q-9 0 -9 9z" />
    <glyph glyph-name="uniFB6D" unicode="&#x6a4;" horiz-adv-x="470" arabic-form="medial" 
d="M475 4l-5 -4h-16q-55 0 -109.5 12t-102.5 35q-97 -47 -229 -47h-13l-5 4l6 4h12q126 0 221 44q-69 34 -109.5 87t-40.5 117q0 44 20 83t54.5 62.5t76.5 23.5q49 0 85.5 -24.5t56 -64t19.5 -84.5q0 -57 -38 -110.5t-108 -89.5q93 -44 204 -44h17zM132 140.5
q41 -51.5 110 -85.5q70 34 108 87t38 110q0 43 -18 81t-52.5 61t-81.5 23q-41 0 -74 -22.5t-52 -59.5t-19 -79q0 -64 41 -115.5zM228.5 595.5q-2.5 2.5 -2.5 6.5q0 3 2.5 6t6.5 3t6.5 -3t2.5 -6q0 -9 -9 -9q-4 0 -6.5 2.5zM167.5 504.5q-2.5 2.5 -2.5 6.5q0 3 2.5 6t6.5 3
t6.5 -3t2.5 -6q0 -9 -9 -9q-4 0 -6.5 2.5zM287 511q0 3 2.5 6t6.5 3t6.5 -3t2.5 -6q0 -4 -2.5 -6.5t-6.5 -2.5q-9 0 -9 9z" />
    <glyph glyph-name="uniFB6F" unicode="&#x6a6;" horiz-adv-x="957" arabic-form="final" 
d="M962 4l-5 -4h-17q-57 0 -113.5 13.5t-105.5 38.5q-141 -64 -390 -64q-263 0 -263 168q0 72 35 145l6 -3q-34 -72 -34 -142q0 -160 257 -160q241 0 381 60q-65 36 -104 89.5t-39 116.5q0 45 20 85.5t55 64.5t77 24q49 0 85.5 -24t56 -64t19.5 -86q0 -59 -37 -113t-117 -93
q47 -23 101.5 -35.5t109.5 -12.5h18zM616.5 146.5q38.5 -51.5 104.5 -86.5q81 37 117.5 90t36.5 112q0 44 -18 82t-53 61t-82 23q-40 0 -73 -23t-52 -61.5t-19 -81.5q0 -64 38.5 -115.5zM653 619q0 9 9 9q4 0 6.5 -2.5t2.5 -6.5t-2.5 -6.5t-6.5 -2.5q-9 0 -9 9zM775.5 612.5
q-2.5 2.5 -2.5 6.5t2.5 6.5t6.5 2.5q9 0 9 -9t-9 -9q-4 0 -6.5 2.5zM655.5 503q-2.5 3 -2.5 6q0 9 9 9q4 0 6.5 -2.5t2.5 -6.5q0 -3 -2.5 -6t-6.5 -3t-6.5 3zM775.5 503q-2.5 3 -2.5 6q0 4 2.5 6.5t6.5 2.5q9 0 9 -9q0 -3 -2.5 -6t-6.5 -3t-6.5 3z" />
    <glyph glyph-name="uniFB70" unicode="&#x6a6;" horiz-adv-x="447" arabic-form="initial" 
d="M325.5 453.5q43.5 -67.5 43.5 -202.5q0 -92 -35.5 -146.5t-115.5 -79.5t-218 -25l-5 4l6 4q133 0 211 23t113 73.5t37 137.5q-27 -19 -68 -31.5t-77 -12.5q-75 0 -120.5 43t-45.5 114q0 41 18.5 79.5t53.5 62.5t81 24q78 0 121.5 -67.5zM294 218q41 12 68 31v2
q0 132 -41.5 197t-116.5 65q-44 0 -77 -23t-50.5 -59.5t-17.5 -75.5q0 -68 43.5 -108.5t116.5 -40.5q34 0 75 12zM135 712q0 9 9 9q4 0 6.5 -2.5t2.5 -6.5t-2.5 -6.5t-6.5 -2.5q-9 0 -9 9zM257.5 705.5q-2.5 2.5 -2.5 6.5t2.5 6.5t6.5 2.5q9 0 9 -9t-9 -9q-4 0 -6.5 2.5z
M137.5 596q-2.5 3 -2.5 6q0 9 9 9q4 0 6.5 -2.5t2.5 -6.5q0 -3 -2.5 -6t-6.5 -3t-6.5 3zM257.5 596q-2.5 3 -2.5 6q0 4 2.5 6.5t6.5 2.5q9 0 9 -9q0 -3 -2.5 -6t-6.5 -3t-6.5 3z" />
    <glyph glyph-name="uniFB71" unicode="&#x6a6;" horiz-adv-x="470" arabic-form="medial" 
d="M475 4l-5 -4h-16q-55 0 -109.5 12t-102.5 35q-97 -47 -229 -47h-13l-5 4l6 4h12q126 0 221 44q-69 34 -109.5 87t-40.5 117q0 44 20 83t54.5 62.5t76.5 23.5q49 0 85.5 -24.5t56 -64t19.5 -84.5q0 -57 -38 -110.5t-108 -89.5q93 -44 204 -44h17zM132 140.5
q41 -51.5 110 -85.5q70 34 108 87t38 110q0 43 -18 81t-52.5 61t-81.5 23q-41 0 -74 -22.5t-52 -59.5t-19 -79q0 -64 41 -115.5zM166 616q0 9 9 9q4 0 6.5 -2.5t2.5 -6.5t-2.5 -6.5t-6.5 -2.5q-9 0 -9 9zM288.5 609.5q-2.5 2.5 -2.5 6.5t2.5 6.5t6.5 2.5q9 0 9 -9t-9 -9
q-4 0 -6.5 2.5zM168.5 500q-2.5 3 -2.5 6q0 9 9 9q4 0 6.5 -2.5t2.5 -6.5q0 -3 -2.5 -6t-6.5 -3t-6.5 3zM288.5 500q-2.5 3 -2.5 6q0 4 2.5 6.5t6.5 2.5q9 0 9 -9q0 -3 -2.5 -6t-6.5 -3t-6.5 3z" />
    <glyph glyph-name="uniFB73" unicode="&#x684;" horiz-adv-x="709" arabic-form="final" 
d="M193.5 127.5q-100.5 -78.5 -100.5 -214.5q0 -66 32.5 -122.5t98.5 -90.5t161 -34q60 0 118.5 13t95.5 32l3 -8q-38 -19 -97.5 -32t-120.5 -13q-97 0 -164.5 35t-101 93.5t-33.5 126.5q0 155 125.5 236.5t348.5 83.5q-64 20 -106 45.5t-86 61.5q-43 34 -72 49t-73 15
q-35 0 -61.5 -7t-57.5 -26l-4 7q33 20 60.5 27t63.5 7q44 0 75 -16t75 -51q49 -40 92.5 -66t111.5 -44l-1 -8l-8 -1q-44 0 -83 -3q11 -118 67 -166.5t158 -48.5l4 -4l-5 -4q-104 0 -162 51t-69 171q-184 -16 -284.5 -94.5zM345 -22.5q-3 2.5 -3 6.5t3 6.5t6 2.5q9 0 9 -9
t-9 -9q-3 0 -6 2.5zM345 -143.5q-3 2.5 -3 6.5t3 6.5t6 2.5q9 0 9 -9t-9 -9q-3 0 -6 2.5z" />
    <glyph glyph-name="uniFB74" unicode="&#x684;" horiz-adv-x="690" arabic-form="initial" 
d="M283 401.5q28 -10.5 50 -27.5t56 -47q57 -52 110 -86.5t136 -58.5l-1 -8l-10 -1q-99 -1 -177.5 -25.5t-179.5 -70.5q-87 -39 -144 -58t-123 -19l-5 4l6 4q64 0 119.5 18.5t143.5 57.5q99 46 178 70.5t178 25.5q-80 24 -129.5 57t-107.5 84q-49 44 -82.5 63.5t-81.5 19.5
q-31 0 -57.5 -7t-57.5 -26l-4 7q32 19 59.5 26.5t59.5 7.5q36 0 64 -10.5zM289 -124.5q-3 2.5 -3 6.5t3 6.5t6 2.5q9 0 9 -9t-9 -9q-3 0 -6 2.5zM289 -245.5q-3 2.5 -3 6.5t3 6.5t6 2.5q9 0 9 -9t-9 -9q-3 0 -6 2.5z" />
    <glyph glyph-name="uniFB75" unicode="&#x684;" horiz-adv-x="750" arabic-form="medial" 
d="M755 4l-5 -4q-201 0 -237 198q-50 -12 -97 -34t-116 -60q-64 -35 -106.5 -55.5t-92 -34.5t-101.5 -14l-5 4l6 4q72 0 135.5 25.5t157.5 76.5q92 51 158 77t140 28q-80 23 -129 52t-102 71q-43 35 -73 50.5t-75 15.5q-34 0 -60.5 -7t-60.5 -25l-4 7q36 19 63 26t62 7
q47 0 79 -16t75 -52q54 -44 105.5 -74t136.5 -54l-2 -7l-8 -1q-41 0 -79 -9q18 -101 77 -146t154 -45zM362 -74.5q-3 2.5 -3 6.5t3 6.5t6 2.5q9 0 9 -9t-9 -9q-3 0 -6 2.5zM362 -195.5q-3 2.5 -3 6.5t3 6.5t6 2.5q9 0 9 -9t-9 -9q-3 0 -6 2.5z" />
    <glyph glyph-name="uniFB77" unicode="&#x683;" horiz-adv-x="709" arabic-form="final" 
d="M193.5 127.5q-100.5 -78.5 -100.5 -214.5q0 -66 32.5 -122.5t98.5 -90.5t161 -34q60 0 118.5 13t95.5 32l3 -8q-38 -19 -97.5 -32t-120.5 -13q-97 0 -164.5 35t-101 93.5t-33.5 126.5q0 155 125.5 236.5t348.5 83.5q-64 20 -106 45.5t-86 61.5q-43 34 -72 49t-73 15
q-35 0 -61.5 -7t-57.5 -26l-4 7q33 20 60.5 27t63.5 7q44 0 75 -16t75 -51q49 -40 92.5 -66t111.5 -44l-1 -8l-8 -1q-44 0 -83 -3q11 -118 67 -166.5t158 -48.5l4 -4l-5 -4q-104 0 -162 51t-69 171q-184 -16 -284.5 -94.5zM285 -87.5q-3 2.5 -3 6.5t3 6.5t7 2.5t6.5 -2.5
t2.5 -6.5t-2.5 -6.5t-6.5 -2.5t-7 2.5zM405.5 -87.5q-2.5 2.5 -2.5 6.5t2.5 6.5t6.5 2.5t7 -2.5t3 -6.5t-3 -6.5t-7 -2.5t-6.5 2.5z" />
    <glyph glyph-name="uniFB78" unicode="&#x683;" horiz-adv-x="690" arabic-form="initial" 
d="M283 401.5q28 -10.5 50 -27.5t56 -47q57 -52 110 -86.5t136 -58.5l-1 -8l-10 -1q-99 -1 -177.5 -25.5t-179.5 -70.5q-87 -39 -144 -58t-123 -19l-5 4l6 4q64 0 119.5 18.5t143.5 57.5q99 46 178 70.5t178 25.5q-80 24 -129.5 57t-107.5 84q-49 44 -82.5 63.5t-81.5 19.5
q-31 0 -57.5 -7t-57.5 -26l-4 7q32 19 59.5 26.5t59.5 7.5q36 0 64 -10.5zM229 -150.5q-3 2.5 -3 6.5t3 6.5t7 2.5t6.5 -2.5t2.5 -6.5t-2.5 -6.5t-6.5 -2.5t-7 2.5zM349.5 -150.5q-2.5 2.5 -2.5 6.5t2.5 6.5t6.5 2.5t7 -2.5t3 -6.5t-3 -6.5t-7 -2.5t-6.5 2.5z" />
    <glyph glyph-name="uniFB79" unicode="&#x683;" horiz-adv-x="750" arabic-form="medial" 
d="M755 4l-5 -4q-201 0 -237 198q-50 -12 -97 -34t-116 -60q-64 -35 -106.5 -55.5t-92 -34.5t-101.5 -14l-5 4l6 4q72 0 135.5 25.5t157.5 76.5q92 51 158 77t140 28q-80 23 -129 52t-102 71q-43 35 -73 50.5t-75 15.5q-34 0 -60.5 -7t-60.5 -25l-4 7q36 19 63 26t62 7
q47 0 79 -16t75 -52q54 -44 105.5 -74t136.5 -54l-2 -7l-8 -1q-41 0 -79 -9q18 -101 77 -146t154 -45zM302 -100.5q-3 2.5 -3 6.5t3 6.5t7 2.5t6.5 -2.5t2.5 -6.5t-2.5 -6.5t-6.5 -2.5t-7 2.5zM422.5 -100.5q-2.5 2.5 -2.5 6.5t2.5 6.5t6.5 2.5t7 -2.5t3 -6.5t-3 -6.5
t-7 -2.5t-6.5 2.5z" />
    <glyph glyph-name="uniFB7B" unicode="&#x686;" horiz-adv-x="709" arabic-form="final" 
d="M193.5 127.5q-100.5 -78.5 -100.5 -214.5q0 -66 32.5 -122.5t98.5 -90.5t161 -34q60 0 118.5 13t95.5 32l3 -8q-38 -19 -97.5 -32t-120.5 -13q-97 0 -164.5 35t-101 93.5t-33.5 126.5q0 155 125.5 236.5t348.5 83.5q-64 20 -106 45.5t-86 61.5q-43 34 -72 49t-73 15
q-35 0 -61.5 -7t-57.5 -26l-4 7q33 20 60.5 27t63.5 7q44 0 75 -16t75 -51q49 -40 92.5 -66t111.5 -44l-1 -8l-8 -1q-44 0 -83 -3q11 -118 67 -166.5t158 -48.5l4 -4l-5 -4q-104 0 -162 51t-69 171q-184 -16 -284.5 -94.5zM284.5 -42.5q-2.5 2.5 -2.5 6.5t2.5 6.5t6.5 2.5
q9 0 9 -9t-9 -9q-4 0 -6.5 2.5zM404 -36q0 9 9 9q4 0 6.5 -2.5t2.5 -6.5t-2.5 -6.5t-6.5 -2.5q-9 0 -9 9zM345.5 -133.5q-2.5 2.5 -2.5 6.5t2.5 6.5t6.5 2.5q9 0 9 -9t-9 -9q-4 0 -6.5 2.5z" />
    <glyph glyph-name="uniFB7C" unicode="&#x686;" horiz-adv-x="690" arabic-form="initial" 
d="M283 401.5q28 -10.5 50 -27.5t56 -47q57 -52 110 -86.5t136 -58.5l-1 -8l-10 -1q-99 -1 -177.5 -25.5t-179.5 -70.5q-87 -39 -144 -58t-123 -19l-5 4l6 4q64 0 119.5 18.5t143.5 57.5q99 46 178 70.5t178 25.5q-80 24 -129.5 57t-107.5 84q-49 44 -82.5 63.5t-81.5 19.5
q-31 0 -57.5 -7t-57.5 -26l-4 7q32 19 59.5 26.5t59.5 7.5q36 0 64 -10.5zM228.5 -149.5q-2.5 2.5 -2.5 5.5q0 4 2.5 6.5t6.5 2.5q9 0 9 -9q0 -8 -9 -8q-4 0 -6.5 2.5zM348 -144q0 9 9 9q4 0 6.5 -2.5t2.5 -6.5q0 -3 -2.5 -5.5t-6.5 -2.5q-9 0 -9 8zM289.5 -240.5
q-2.5 2.5 -2.5 6.5t2.5 6.5t6.5 2.5q9 0 9 -9t-9 -9q-4 0 -6.5 2.5z" />
    <glyph glyph-name="uniFB7D" unicode="&#x686;" horiz-adv-x="750" arabic-form="medial" 
d="M755 4l-5 -4q-201 0 -237 198q-50 -12 -97 -34t-116 -60q-64 -35 -106.5 -55.5t-92 -34.5t-101.5 -14l-5 4l6 4q72 0 135.5 25.5t157.5 76.5q92 51 158 77t140 28q-80 23 -129 52t-102 71q-43 35 -73 50.5t-75 15.5q-34 0 -60.5 -7t-60.5 -25l-4 7q36 19 63 26t62 7
q47 0 79 -16t75 -52q54 -44 105.5 -74t136.5 -54l-2 -7l-8 -1q-41 0 -79 -9q18 -101 77 -146t154 -45zM301.5 -99.5q-2.5 2.5 -2.5 5.5q0 4 2.5 6.5t6.5 2.5q9 0 9 -9q0 -8 -9 -8q-4 0 -6.5 2.5zM421 -94q0 9 9 9q4 0 6.5 -2.5t2.5 -6.5q0 -3 -2.5 -5.5t-6.5 -2.5q-9 0 -9 8
zM362.5 -190.5q-2.5 2.5 -2.5 6.5t2.5 6.5t6.5 2.5q9 0 9 -9t-9 -9q-4 0 -6.5 2.5z" />
    <glyph glyph-name="uniFB7F" unicode="&#x687;" horiz-adv-x="709" arabic-form="final" 
d="M193.5 127.5q-100.5 -78.5 -100.5 -214.5q0 -66 32.5 -122.5t98.5 -90.5t161 -34q60 0 118.5 13t95.5 32l3 -8q-38 -19 -97.5 -32t-120.5 -13q-97 0 -164.5 35t-101 93.5t-33.5 126.5q0 155 125.5 236.5t348.5 83.5q-64 20 -106 45.5t-86 61.5q-43 34 -72 49t-73 15
q-35 0 -61.5 -7t-57.5 -26l-4 7q33 20 60.5 27t63.5 7q44 0 75 -16t75 -51q49 -40 92.5 -66t111.5 -44l-1 -8l-8 -1q-44 0 -83 -3q11 -118 67 -166.5t158 -48.5l4 -4l-5 -4q-104 0 -162 51t-69 171q-184 -16 -284.5 -94.5zM283 -17q0 9 9 9q4 0 6.5 -2.5t2.5 -6.5
q0 -3 -2.5 -5.5t-6.5 -2.5q-9 0 -9 8zM405.5 -22.5q-2.5 2.5 -2.5 5.5q0 4 2.5 6.5t6.5 2.5q9 0 9 -9q0 -8 -9 -8q-4 0 -6.5 2.5zM283 -127q0 9 9 9q4 0 6.5 -2.5t2.5 -6.5q0 -3 -2.5 -5.5t-6.5 -2.5q-9 0 -9 8zM405.5 -132.5q-2.5 2.5 -2.5 5.5q0 4 2.5 6.5t6.5 2.5
q9 0 9 -9q0 -8 -9 -8q-4 0 -6.5 2.5z" />
    <glyph glyph-name="uniFB80" unicode="&#x687;" horiz-adv-x="690" arabic-form="initial" 
d="M283 401.5q28 -10.5 50 -27.5t56 -47q57 -52 110 -86.5t136 -58.5l-1 -8l-10 -1q-99 -1 -177.5 -25.5t-179.5 -70.5q-87 -39 -144 -58t-123 -19l-5 4l6 4q64 0 119.5 18.5t143.5 57.5q99 46 178 70.5t178 25.5q-80 24 -129.5 57t-107.5 84q-49 44 -82.5 63.5t-81.5 19.5
q-31 0 -57.5 -7t-57.5 -26l-4 7q32 19 59.5 26.5t59.5 7.5q36 0 64 -10.5zM227 -103q0 9 9 9q4 0 6.5 -2.5t2.5 -6.5t-2.5 -6.5t-6.5 -2.5q-9 0 -9 9zM349.5 -109.5q-2.5 2.5 -2.5 6.5t2.5 6.5t6.5 2.5q9 0 9 -9t-9 -9q-4 0 -6.5 2.5zM227 -213q0 9 9 9q4 0 6.5 -2.5
t2.5 -6.5q0 -3 -2.5 -5.5t-6.5 -2.5q-9 0 -9 8zM349.5 -218.5q-2.5 2.5 -2.5 5.5q0 4 2.5 6.5t6.5 2.5q9 0 9 -9q0 -8 -9 -8q-4 0 -6.5 2.5z" />
    <glyph glyph-name="uniFB81" unicode="&#x687;" horiz-adv-x="750" arabic-form="medial" 
d="M755 4l-5 -4q-201 0 -237 198q-50 -12 -97 -34t-116 -60q-64 -35 -106.5 -55.5t-92 -34.5t-101.5 -14l-5 4l6 4q72 0 135.5 25.5t157.5 76.5q92 51 158 77t140 28q-80 23 -129 52t-102 71q-43 35 -73 50.5t-75 15.5q-34 0 -60.5 -7t-60.5 -25l-4 7q36 19 63 26t62 7
q47 0 79 -16t75 -52q54 -44 105.5 -74t136.5 -54l-2 -7l-8 -1q-41 0 -79 -9q18 -101 77 -146t154 -45zM300 -53q0 9 9 9q4 0 6.5 -2.5t2.5 -6.5t-2.5 -6.5t-6.5 -2.5q-9 0 -9 9zM422.5 -59.5q-2.5 2.5 -2.5 6.5t2.5 6.5t6.5 2.5q9 0 9 -9t-9 -9q-4 0 -6.5 2.5zM300 -163
q0 9 9 9q4 0 6.5 -2.5t2.5 -6.5q0 -3 -2.5 -5.5t-6.5 -2.5q-9 0 -9 8zM422.5 -168.5q-2.5 2.5 -2.5 5.5q0 4 2.5 6.5t6.5 2.5q9 0 9 -9q0 -8 -9 -8q-4 0 -6.5 2.5z" />
    <glyph glyph-name="uniFB83" unicode="&#x68d;" horiz-adv-x="504" arabic-form="final" 
d="M509 4l-5 -4q-50 0 -77.5 20t-44.5 60q-30 -43 -85.5 -67.5t-116.5 -24.5q-41 0 -76 8t-74 24l2 8q38 -16 72.5 -24t75.5 -8q60 0 114.5 24.5t84.5 66.5l-148 378l8 4l146 -377q18 -45 44.5 -64.5t74.5 -19.5zM129 -150.5q-3 2.5 -3 6.5t3 6.5t7 2.5t6.5 -2.5t2.5 -6.5
t-2.5 -6.5t-6.5 -2.5t-7 2.5zM249.5 -150.5q-2.5 2.5 -2.5 6.5t2.5 6.5t6.5 2.5t7 -2.5t3 -6.5t-3 -6.5t-7 -2.5t-6.5 2.5z" />
    <glyph glyph-name="uniFB85" unicode="&#x68c;" horiz-adv-x="504" arabic-form="final" 
d="M509 4l-5 -4q-50 0 -77.5 20t-44.5 60q-30 -43 -85.5 -67.5t-116.5 -24.5q-41 0 -76 8t-74 24l2 8q38 -16 72.5 -24t75.5 -8q60 0 114.5 24.5t84.5 66.5l-148 378l8 4l146 -377q18 -45 44.5 -64.5t74.5 -19.5zM97 613.5q-3 2.5 -3 6.5t3 6.5t7 2.5t6.5 -2.5t2.5 -6.5
t-2.5 -6.5t-6.5 -2.5t-7 2.5zM217.5 613.5q-2.5 2.5 -2.5 6.5t2.5 6.5t6.5 2.5t7 -2.5t3 -6.5t-3 -6.5t-7 -2.5t-6.5 2.5z" />
    <glyph glyph-name="uniFB87" unicode="&#x68e;" horiz-adv-x="504" arabic-form="final" 
d="M509 4l-5 -4q-50 0 -77.5 20t-44.5 60q-30 -43 -85.5 -67.5t-116.5 -24.5q-41 0 -76 8t-74 24l2 8q38 -16 72.5 -24t75.5 -8q60 0 114.5 24.5t84.5 66.5l-148 378l8 4l146 -377q18 -45 44.5 -64.5t74.5 -19.5zM157.5 663.5q-2.5 2.5 -2.5 6.5q0 3 2.5 6t6.5 3t6.5 -3
t2.5 -6q0 -9 -9 -9q-4 0 -6.5 2.5zM96.5 572.5q-2.5 2.5 -2.5 6.5q0 3 2.5 6t6.5 3t6.5 -3t2.5 -6q0 -9 -9 -9q-4 0 -6.5 2.5zM216 579q0 3 2.5 6t6.5 3t6.5 -3t2.5 -6q0 -4 -2.5 -6.5t-6.5 -2.5q-9 0 -9 9z" />
    <glyph glyph-name="uniFB89" unicode="&#x688;" horiz-adv-x="504" arabic-form="final" 
d="M509 4l-5 -4q-50 0 -77.5 20t-44.5 60q-30 -43 -85.5 -67.5t-116.5 -24.5q-41 0 -76 8t-74 24l2 8q38 -16 72.5 -24t75.5 -8q60 0 114.5 24.5t84.5 66.5l-148 378l8 4l146 -377q18 -45 44.5 -64.5t74.5 -19.5zM259 682q17 -18 17 -48t-21.5 -50t-64.5 -20h-137v6h21
q8 17 20 36v152h6v-143q55 85 113 85q29 0 46 -18zM249.5 588q20.5 18 20.5 46t-15.5 44t-41.5 16q-69 0 -133 -124h109q40 0 60.5 18z" />
    <glyph glyph-name="uniFB8B" unicode="&#x698;" horiz-adv-x="355" arabic-form="final" 
d="M361 4l-6 -4q-85 0 -102 80q1 -3 1 -7q-1 -115 -62.5 -189t-205.5 -124l-3 8q142 49 203 121.5t61 184.5q0 95 -35 219l8 2q25 -93 32 -180q8 -107 104 -107zM190.5 510.5q-2.5 2.5 -2.5 6.5q0 3 2.5 6t6.5 3t6.5 -3t2.5 -6q0 -9 -9 -9q-4 0 -6.5 2.5zM129.5 419.5
q-2.5 2.5 -2.5 6.5q0 3 2.5 6t6.5 3t6.5 -3t2.5 -6q0 -9 -9 -9q-4 0 -6.5 2.5zM249 426q0 3 2.5 6t6.5 3t6.5 -3t2.5 -6q0 -4 -2.5 -6.5t-6.5 -2.5q-9 0 -9 9z" />
    <glyph glyph-name="uniFB8D" unicode="&#x691;" horiz-adv-x="355" arabic-form="final" 
d="M361 4l-6 -4q-85 0 -102 80q1 -3 1 -7q-1 -115 -62.5 -189t-205.5 -124l-3 8q142 49 203 121.5t61 184.5q0 95 -35 219l8 2q25 -93 32 -180q8 -107 104 -107zM292 529q17 -18 17 -48t-21.5 -50t-64.5 -20h-137v6h21q8 17 20 36v152h6v-143q55 85 113 85q29 0 46 -18z
M282.5 435q20.5 18 20.5 46t-15.5 44t-41.5 16q-69 0 -133 -124h109q40 0 60.5 18z" />
    <glyph glyph-name="uniFB8F" unicode="&#x6a9;" horiz-adv-x="971" arabic-form="final" 
d="M976 4l-5 -4q-53 0 -93 22.5t-86.5 75t-145.5 177.5q19 -34 19 -81q0 -69 -30 -114t-103.5 -68.5t-200.5 -23.5q-263 0 -263 168q0 72 35 145l6 -3q-34 -72 -34 -142q0 -160 257 -160q125 0 196.5 22.5t100.5 66t29 110.5q0 64 -35 107l-125 154l1 8l380 275l-2 -9
l-372 -270l134 -166l16 -20q102 -127 146 -175.5t81.5 -69.5t89.5 -21z" />
    <glyph glyph-name="uniFB90" unicode="&#x6a9;" horiz-adv-x="455" arabic-form="initial" 
d="M386 730l-371 -270q153 -58 225.5 -121t72.5 -134q0 -103 -88 -154t-225 -51l-5 4l6 4q135 0 220 48.5t85 149.5q0 67 -72.5 129t-226.5 121l1 8l379 275z" />
    <glyph glyph-name="uniFB91" unicode="&#x6a9;" horiz-adv-x="540" arabic-form="medial" 
d="M545 4l-5 -4q-53 0 -93.5 22.5t-87.5 75.5t-144 177q19 -35 19 -81q0 -94 -58 -144t-176 -50l-5 4l6 4q114 0 170 48.5t56 138.5q0 64 -36 107l-124 154l1 8l379 275l-1 -9l-372 -270l134 -166l17 -21q102 -126 145.5 -174.5t81 -69.5t88.5 -21z" />
    <glyph glyph-name="uniFB93" unicode="&#x6af;" horiz-adv-x="971" arabic-form="final" 
d="M858 848l-375 -276l1 9l374 275v-8zM976 4l-5 -4q-53 0 -93 22.5t-86.5 75t-145.5 177.5q19 -34 19 -81q0 -69 -30 -114t-103.5 -68.5t-200.5 -23.5q-263 0 -263 168q0 72 35 145l6 -3q-34 -72 -34 -142q0 -160 257 -160q125 0 196.5 22.5t100.5 66t29 110.5
q0 64 -35 107l-125 154l1 8l380 275l-2 -9l-372 -270l134 -166l16 -20q102 -127 146 -175.5t81.5 -69.5t89.5 -21z" />
    <glyph glyph-name="uniFB94" unicode="&#x6af;" horiz-adv-x="455" arabic-form="initial" 
d="M374 848l-375 -276l2 9l374 275zM386 730l-371 -270q153 -58 225.5 -121t72.5 -134q0 -103 -88 -154t-225 -51l-5 4l6 4q135 0 220 48.5t85 149.5q0 67 -72.5 129t-226.5 121l1 8l379 275z" />
    <glyph glyph-name="uniFB95" unicode="&#x6af;" horiz-adv-x="540" arabic-form="medial" 
d="M434 848l-375 -276l1 9l374 275v-8zM545 4l-5 -4q-53 0 -93.5 22.5t-87.5 75.5t-144 177q19 -35 19 -81q0 -94 -58 -144t-176 -50l-5 4l6 4q114 0 170 48.5t56 138.5q0 64 -36 107l-124 154l1 8l379 275l-1 -9l-372 -270l134 -166l17 -21q102 -126 145.5 -174.5t81 -69.5
t88.5 -21z" />
    <glyph glyph-name="uniFB97" unicode="&#x6b3;" horiz-adv-x="967" arabic-form="final" 
d="M858 848l-375 -276l1 9l374 275v-8zM976 4l-5 -4q-53 0 -93 22.5t-86.5 75t-145.5 177.5q19 -34 19 -81q0 -69 -30 -114t-103.5 -68.5t-200.5 -23.5q-263 0 -263 168q0 72 35 145l6 -3q-34 -72 -34 -142q0 -160 257 -160q125 0 196.5 22.5t100.5 66t29 110.5
q0 64 -35 107l-125 154l1 8l380 275l-2 -9l-372 -270l134 -166l16 -20q102 -127 146 -175.5t81.5 -69.5t89.5 -21zM363 -124.5q-3 2.5 -3 6.5t3 6.5t6 2.5q9 0 9 -9t-9 -9q-3 0 -6 2.5zM363 -245.5q-3 2.5 -3 6.5t3 6.5t6 2.5q9 0 9 -9t-9 -9q-3 0 -6 2.5z" />
    <glyph glyph-name="uniFB98" unicode="&#x6b3;" horiz-adv-x="455" arabic-form="initial" 
d="M374 848l-375 -276l2 9l374 275zM386 730l-371 -270q153 -58 225.5 -121t72.5 -134q0 -103 -88 -154t-225 -51l-5 4l6 4q135 0 220 48.5t85 149.5q0 67 -72.5 129t-226.5 121l1 8l379 275zM127 -124.5q-3 2.5 -3 6.5t3 6.5t6 2.5q9 0 9 -9t-9 -9q-3 0 -6 2.5zM127 -245.5
q-3 2.5 -3 6.5t3 6.5t6 2.5q9 0 9 -9t-9 -9q-3 0 -6 2.5z" />
    <glyph glyph-name="uniFB99" unicode="&#x6b3;" horiz-adv-x="540" arabic-form="medial" 
d="M434 848l-375 -276l1 9l374 275v-8zM545 4l-5 -4q-53 0 -93.5 22.5t-87.5 75.5t-144 177q19 -35 19 -81q0 -94 -58 -144t-176 -50l-5 4l6 4q114 0 170 48.5t56 138.5q0 64 -36 107l-124 154l1 8l379 275l-1 -9l-372 -270l134 -166l17 -21q102 -126 145.5 -174.5t81 -69.5
t88.5 -21zM261 -124.5q-3 2.5 -3 6.5t3 6.5t6 2.5q9 0 9 -9t-9 -9q-3 0 -6 2.5zM261 -245.5q-3 2.5 -3 6.5t3 6.5t6 2.5q9 0 9 -9t-9 -9q-3 0 -6 2.5z" />
    <glyph glyph-name="uniFB9B" unicode="&#x6b1;" horiz-adv-x="967" arabic-form="final" 
d="M858 848l-375 -276l1 9l374 275v-8zM976 4l-5 -4q-53 0 -93 22.5t-86.5 75t-145.5 177.5q19 -34 19 -81q0 -69 -30 -114t-103.5 -68.5t-200.5 -23.5q-263 0 -263 168q0 72 35 145l6 -3q-34 -72 -34 -142q0 -160 257 -160q125 0 196.5 22.5t100.5 66t29 110.5
q0 64 -35 107l-125 154l1 8l380 275l-2 -9l-372 -270l134 -166l16 -20q102 -127 146 -175.5t81.5 -69.5t89.5 -21zM494 811.5q-3 2.5 -3 6.5t3 6.5t7 2.5t6.5 -2.5t2.5 -6.5t-2.5 -6.5t-6.5 -2.5t-7 2.5zM614.5 811.5q-2.5 2.5 -2.5 6.5t2.5 6.5t6.5 2.5t7 -2.5t3 -6.5
t-3 -6.5t-7 -2.5t-6.5 2.5z" />
    <glyph glyph-name="uniFB9C" unicode="&#x6b1;" horiz-adv-x="455" arabic-form="initial" 
d="M374 848l-375 -276l2 9l374 275zM386 730l-371 -270q153 -58 225.5 -121t72.5 -134q0 -103 -88 -154t-225 -51l-5 4l6 4q135 0 220 48.5t85 149.5q0 67 -72.5 129t-226.5 121l1 8l379 275zM5 811.5q-3 2.5 -3 6.5t3 6.5t7 2.5t6.5 -2.5t2.5 -6.5t-2.5 -6.5t-6.5 -2.5
t-7 2.5zM125.5 811.5q-2.5 2.5 -2.5 6.5t2.5 6.5t6.5 2.5t7 -2.5t3 -6.5t-3 -6.5t-7 -2.5t-6.5 2.5z" />
    <glyph glyph-name="uniFB9D" unicode="&#x6b1;" horiz-adv-x="540" arabic-form="medial" 
d="M434 848l-375 -276l1 9l374 275v-8zM545 4l-5 -4q-53 0 -93.5 22.5t-87.5 75.5t-144 177q19 -35 19 -81q0 -94 -58 -144t-176 -50l-5 4l6 4q114 0 170 48.5t56 138.5q0 64 -36 107l-124 154l1 8l379 275l-1 -9l-372 -270l134 -166l17 -21q102 -126 145.5 -174.5t81 -69.5
t88.5 -21zM41 811.5q-3 2.5 -3 6.5t3 6.5t7 2.5t6.5 -2.5t2.5 -6.5t-2.5 -6.5t-6.5 -2.5t-7 2.5zM161.5 811.5q-2.5 2.5 -2.5 6.5t2.5 6.5t6.5 2.5t7 -2.5t3 -6.5t-3 -6.5t-7 -2.5t-6.5 2.5z" />
    <glyph glyph-name="uniFB9F" unicode="&#x6ba;" horiz-adv-x="689" arabic-form="final" 
d="M694 4l-5 -4q-48 0 -76 19t-37 48v-8q0 -153 -64 -223.5t-214 -70.5q-119 0 -174.5 53.5t-55.5 143.5q0 89 34 172l6 -2q-33 -81 -33 -170q0 -87 53.5 -138t169.5 -51q100 0 159 31t85.5 93t26.5 161q0 40 -12 87t-38 126l8 4q17 -55 29 -98.5t19 -85.5q7 -37 34 -60
t81 -23z" />
    <glyph glyph-name="uniFBA1" unicode="&#x6bb;" horiz-adv-x="689" arabic-form="final" 
d="M694 4l-5 -4q-48 0 -76 19t-37 48v-8q0 -153 -64 -223.5t-214 -70.5q-119 0 -174.5 53.5t-55.5 143.5q0 89 34 172l6 -2q-33 -81 -33 -170q0 -87 53.5 -138t169.5 -51q100 0 159 31t85.5 93t26.5 161q0 40 -12 87t-38 126l8 4q17 -55 29 -98.5t19 -85.5q7 -37 34 -60
t81 -23zM410 418q17 -18 17 -48t-21.5 -50t-64.5 -20h-137v6h21q8 17 20 36v152h6v-143q55 85 113 85q29 0 46 -18zM400.5 324q20.5 18 20.5 46t-15.5 44t-41.5 16q-69 0 -133 -124h109q40 0 60.5 18z" />
    <glyph glyph-name="uniFBA2" unicode="&#x6bb;" horiz-adv-x="256" arabic-form="initial" 
d="M133 41.5q37 33.5 37 107.5q0 108 -39 219l8 3q39 -111 39 -222q0 -78 -39.5 -113.5t-138.5 -35.5l-5 4l6 4q95 0 132 33.5zM222 575q17 -18 17 -48t-21.5 -50t-64.5 -20h-137v6h21q8 17 20 36v152h6v-143q55 85 113 85q29 0 46 -18zM212.5 481q20.5 18 20.5 46t-15.5 44
t-41.5 16q-69 0 -133 -124h109q40 0 60.5 18z" />
    <glyph glyph-name="uniFBA3" unicode="&#x6bb;" horiz-adv-x="295" arabic-form="medial" 
d="M300 4l-5 -4q-58 0 -99 31t-49 79q-6 -49 -45 -79.5t-102 -30.5l-5 4l6 4q66 0 104 34.5t38 93.5v169h8v-169q0 -57 41.5 -92.5t102.5 -35.5zM242 497q17 -18 17 -48t-21.5 -50t-64.5 -20h-137v6h21q8 17 20 36v152h6v-143q55 85 113 85q29 0 46 -18zM232.5 403
q20.5 18 20.5 46t-15.5 44t-41.5 16q-69 0 -133 -124h109q40 0 60.5 18z" />
    <glyph glyph-name="uniFBA5" unicode="&#x6c0;" horiz-adv-x="477" arabic-form="final" 
d="M482 4l-5 -4h-5q-128 0 -132 141q-20 -44 -65 -71.5t-103 -27.5q-68 0 -105 34.5t-37 86.5q0 83 77.5 132.5t231.5 56.5v127l8 1v-325q0 -75 31.5 -111t94.5 -36h4zM274.5 78.5q44.5 28.5 64.5 72.5v193q-150 -7 -226 -54t-76 -126q0 -49 35 -81.5t100 -32.5
q58 0 102.5 28.5zM428 592l-173 -27l-1 6l83 13q-31 16 -47.5 37.5t-16.5 45.5q0 28 21 47t61 19q29 0 52 -13l-3 -5q-23 12 -49 12q-37 0 -56.5 -17.5t-19.5 -42.5q0 -23 17.5 -44.5t48.5 -37.5l83 13v-6z" />
    <glyph glyph-name="uniFBA7" unicode="&#x6c1;" horiz-adv-x="549" arabic-form="final" 
d="M30 -23q41 114 95 172.5t111 58.5q40 0 65 -20.5t55 -63.5q27 -37 48.5 -60t57 -39.5t87.5 -16.5l5 -4l-5 -4q-54 0 -91 17t-60 40.5t-49 61.5q-29 41 -52 61t-61 20q-55 0 -107.5 -59t-90.5 -166z" />
    <glyph glyph-name="uniFBA8" unicode="&#x6c1;" horiz-adv-x="256" arabic-form="initial" 
d="M133 41.5q37 33.5 37 107.5q0 108 -39 219l8 3q39 -111 39 -222q0 -78 -39.5 -113.5t-138.5 -35.5l-5 4l6 4q95 0 132 33.5zM89 -186q-3 3 -3 7t3 12l18 86h5l-13 -88q8 -3 8 -10q0 -10 -10 -10q-5 0 -8 3z" />
    <glyph glyph-name="uniFBA9" unicode="&#x6c1;" horiz-adv-x="522" arabic-form="medial" 
d="M527 4l-5 -4h-22q-71 0 -114.5 -51.5t-43.5 -163.5q0 -32 3 -69l-7 -3q-75 73 -107.5 157t-32.5 169q0 55 11 105q-29 -82 -75.5 -113t-111.5 -31h-22l-5 4l6 4h22q71 0 120.5 41t75.5 148l16 65l8 -3q-21 -81 -29.5 -123.5t-8.5 -95.5q0 -80 30.5 -161t101.5 -154
q-3 33 -3 61q0 115 46 168.5t121 53.5h22z" />
    <glyph glyph-name="uniFBAB" unicode="&#x6be;" horiz-adv-x="549" arabic-form="final" 
d="M549 0h-213q63 -12 103.5 -46.5t40.5 -93.5q0 -42 -28 -72.5t-82 -30.5q-57 0 -100 31.5t-66 87t-23 124.5q-42 1 -72.5 6t-60.5 18l4 7q30 -13 60 -18t69 -5q0 84 28 156t75 114.5t101 42.5q43 0 71 -28t28 -84q0 -40 -20.5 -83t-57 -75t-82.5 -43h226l4 -4zM288 272
q-45 -41 -72.5 -111t-27.5 -153h2h89q56 0 101 31t70.5 77.5t25.5 91.5q0 53 -26 79t-66 26q-51 0 -96 -41zM416.5 -36q-56.5 36 -134.5 36h-94q1 -68 23 -121.5t62.5 -83.5t95.5 -30q52 0 78 28t26 67q0 68 -56.5 104z" />
    <glyph glyph-name="uniFBAC" unicode="&#x6be;" horiz-adv-x="631" arabic-form="initial" 
d="M432 301q122 -96 122 -168q0 -43 -25 -76t-62.5 -51t-73.5 -18q-39 0 -84 14t-87 39q-89 -41 -210 -41h-12l-5 4l6 4h10q119 0 203 38q-60 38 -97 90.5t-37 111.5q0 45 19.5 82.5t54 59t76.5 21.5q13 0 33 -4q-77 45 -140 76l4 7q183 -93 305 -189zM125 138
q38 -52 98 -88q69 33 105 85t36 109q0 43 -17 80t-47.5 58.5t-69.5 21.5q-40 0 -73 -21t-51.5 -56.5t-18.5 -78.5q0 -58 38 -110zM462.5 12.5q35.5 16.5 59.5 47.5t24 72q0 47 -59 108t-161 127q21 -23 33 -55t12 -67q0 -58 -36 -111.5t-105 -88.5q40 -23 83 -36t80 -13
q34 0 69.5 16.5z" />
    <glyph glyph-name="uniFBAD" unicode="&#x6be;" horiz-adv-x="469" arabic-form="medial" 
d="M469 0h-213q63 -12 103.5 -46.5t40.5 -93.5q0 -42 -28 -72.5t-82 -30.5q-57 0 -100 31.5t-66 87t-23 124.5h-101l-5 4l6 4h100q0 84 28 156t75 114.5t101 42.5q43 0 71 -28t28 -84q0 -40 -20.5 -83t-57 -75t-82.5 -43h226l4 -4zM208 272q-45 -41 -72.5 -111t-27.5 -153
h91q56 0 101 31t70.5 77.5t25.5 91.5q0 53 -26 79t-66 26q-51 0 -96 -41zM336.5 -36q-56.5 36 -134.5 36h-94q1 -68 23 -121.5t62.5 -83.5t95.5 -30q52 0 78 28t26 67q0 68 -56.5 104z" />
    <glyph glyph-name="uniFBAF" unicode="&#x6d2;" horiz-adv-x="711" arabic-form="final" 
d="M200 -228q-80 0 -115.5 17.5t-35.5 59.5q0 37 29 73t94 61t167 25h373l5 -4l-6 -4h-374q-98 0 -161.5 -23.5t-91.5 -58t-28 -69.5q0 -38 33 -53.5t110 -15.5h488l-3 -8h-484z" />
    <glyph glyph-name="uniFBB1" unicode="&#x6d3;" horiz-adv-x="711" arabic-form="final" 
d="M200 -228q-80 0 -115.5 17.5t-35.5 59.5q0 37 29 73t94 61t167 25h373l5 -4l-6 -4h-374q-98 0 -161.5 -23.5t-91.5 -58t-28 -69.5q0 -38 33 -53.5t110 -15.5h488l-3 -8h-484zM300 201l-173 -27l-1 6l83 13q-31 16 -47.5 37.5t-16.5 45.5q0 28 21 47t61 19q29 0 52 -13
l-3 -5q-23 12 -49 12q-37 0 -56.5 -17.5t-19.5 -42.5q0 -23 17.5 -44.5t48.5 -37.5l83 13v-6z" />
    <glyph glyph-name="uniFBD4" unicode="&#x6ad;" horiz-adv-x="851" arabic-form="final" 
d="M857 4l-6 -4q-47 0 -77 18t-44 39.5t-17 36.5q-61 -51 -158.5 -78.5t-223.5 -27.5q-263 0 -263 168q0 72 35 145l6 -3q-34 -72 -34 -142q0 -160 257 -160q124 0 221.5 28t157.5 78v629h7v-623q0 -14 12.5 -37.5t42.5 -43t79 -19.5zM431 311.5q44 17.5 44 50.5
q0 25 -31.5 44.5t-102.5 35.5l2 7l147 83v-7l-140 -79q70 -17 100.5 -37t30.5 -47q0 -37 -46 -56t-127 -19l-2 7q81 0 125 17.5zM708.5 902.5q-2.5 2.5 -2.5 6.5q0 3 2.5 6t6.5 3t6.5 -3t2.5 -6q0 -9 -9 -9q-4 0 -6.5 2.5zM647.5 811.5q-2.5 2.5 -2.5 6.5q0 3 2.5 6t6.5 3
t6.5 -3t2.5 -6q0 -9 -9 -9q-4 0 -6.5 2.5zM767 818q0 3 2.5 6t6.5 3t6.5 -3t2.5 -6q0 -4 -2.5 -6.5t-6.5 -2.5q-9 0 -9 9z" />
    <glyph glyph-name="uniFBD5" unicode="&#x6ad;" horiz-adv-x="455" arabic-form="initial" 
d="M386 730l-371 -270q153 -58 225.5 -121t72.5 -134q0 -103 -88 -154t-225 -51l-5 4l6 4q135 0 220 48.5t85 149.5q0 67 -72.5 129t-226.5 121l1 8l379 275zM24.5 764.5q-2.5 2.5 -2.5 6.5q0 3 2.5 6t6.5 3t6.5 -3t2.5 -6q0 -9 -9 -9q-4 0 -6.5 2.5zM-36.5 673.5
q-2.5 2.5 -2.5 6.5q0 3 2.5 6t6.5 3t6.5 -3t2.5 -6q0 -9 -9 -9q-4 0 -6.5 2.5zM83 680q0 3 2.5 6t6.5 3t6.5 -3t2.5 -6q0 -4 -2.5 -6.5t-6.5 -2.5q-9 0 -9 9z" />
    <glyph glyph-name="uniFBD6" unicode="&#x6ad;" horiz-adv-x="540" arabic-form="medial" 
d="M545 4l-5 -4q-53 0 -93.5 22.5t-87.5 75.5t-144 177q19 -35 19 -81q0 -94 -58 -144t-176 -50l-5 4l6 4q114 0 170 48.5t56 138.5q0 64 -36 107l-124 154l1 8l379 275l-1 -9l-372 -270l134 -166l17 -21q102 -126 145.5 -174.5t81 -69.5t88.5 -21zM80.5 764.5
q-2.5 2.5 -2.5 6.5q0 3 2.5 6t6.5 3t6.5 -3t2.5 -6q0 -9 -9 -9q-4 0 -6.5 2.5zM19.5 673.5q-2.5 2.5 -2.5 6.5q0 3 2.5 6t6.5 3t6.5 -3t2.5 -6q0 -9 -9 -9q-4 0 -6.5 2.5zM139 680q0 3 2.5 6t6.5 3t6.5 -3t2.5 -6q0 -4 -2.5 -6.5t-6.5 -2.5q-9 0 -9 9z" />
    <glyph glyph-name="uniFBD8" unicode="&#x6c7;" horiz-adv-x="519" arabic-form="final" 
d="M519 0h-118q-21 -94 -100 -151t-231 -86l-2 8q149 28 227 83.5t98 145.5h-91q-105 0 -157.5 42.5t-52.5 116.5q0 43 20 82t54.5 62.5t77.5 23.5q74 0 120 -63.5t46 -179.5q0 -42 -7 -76h116l5 -4zM395 8q7 32 7 76q0 113 -43.5 174t-114.5 61q-41 0 -74 -22.5t-52 -59
t-19 -77.5q0 -71 50.5 -111.5t153.5 -40.5h89h3zM307.5 581q16.5 -20 16.5 -50q0 -39 -41.5 -75.5t-101.5 -60.5l-2 5q59 24 97 57q-41 8 -60.5 29.5t-19.5 48.5q0 30 18.5 48t45.5 18q31 0 47.5 -20zM318 530q0 28 -14.5 46.5t-43.5 18.5q-24 0 -41 -16.5t-17 -43.5
q0 -26 19 -45.5t59 -28.5q38 35 38 69z" />
    <glyph glyph-name="uniFBDA" unicode="&#x6c6;" horiz-adv-x="519" arabic-form="final" 
d="M519 0h-118q-21 -94 -100 -151t-231 -86l-2 8q149 28 227 83.5t98 145.5h-91q-105 0 -157.5 42.5t-52.5 116.5q0 43 20 82t54.5 62.5t77.5 23.5q74 0 120 -63.5t46 -179.5q0 -42 -7 -76h116l5 -4zM395 8q7 32 7 76q0 113 -43.5 174t-114.5 61q-41 0 -74 -22.5t-52 -59
t-19 -77.5q0 -71 50.5 -111.5t153.5 -40.5h89h3zM251 400l76 131l5 -2l-78 -136h-6l-78 136l6 2z" />
    <glyph glyph-name="uniFBDC" unicode="&#x6c8;" horiz-adv-x="519" arabic-form="final" 
d="M519 0h-118q-21 -94 -100 -151t-231 -86l-2 8q149 28 227 83.5t98 145.5h-91q-105 0 -157.5 42.5t-52.5 116.5q0 43 20 82t54.5 62.5t77.5 23.5q74 0 120 -63.5t46 -179.5q0 -42 -7 -76h116l5 -4zM395 8q7 32 7 76q0 113 -43.5 174t-114.5 61q-41 0 -74 -22.5t-52 -59
t-19 -77.5q0 -71 50.5 -111.5t153.5 -40.5h89h3zM254 552v-147h-6v146z" />
    <glyph glyph-name="uniFBDF" unicode="&#x6cb;" horiz-adv-x="519" arabic-form="final" 
d="M519 0h-118q-21 -94 -100 -151t-231 -86l-2 8q149 28 227 83.5t98 145.5h-91q-105 0 -157.5 42.5t-52.5 116.5q0 43 20 82t54.5 62.5t77.5 23.5q74 0 120 -63.5t46 -179.5q0 -42 -7 -76h116l5 -4zM395 8q7 32 7 76q0 113 -43.5 174t-114.5 61q-41 0 -74 -22.5t-52 -59
t-19 -77.5q0 -71 50.5 -111.5t153.5 -40.5h89h3zM244.5 499.5q-2.5 2.5 -2.5 6.5q0 3 2.5 6t6.5 3t6.5 -3t2.5 -6q0 -9 -9 -9q-4 0 -6.5 2.5zM183.5 408.5q-2.5 2.5 -2.5 6.5q0 3 2.5 6t6.5 3t6.5 -3t2.5 -6q0 -9 -9 -9q-4 0 -6.5 2.5zM303 415q0 3 2.5 6t6.5 3t6.5 -3
t2.5 -6q0 -4 -2.5 -6.5t-6.5 -2.5q-9 0 -9 9z" />
    <glyph glyph-name="uniFBE1" unicode="&#x6c5;" horiz-adv-x="519" arabic-form="final" 
d="M519 0h-118q-21 -94 -100 -151t-231 -86l-2 8q164 32 241 94l-203 5l-4 7l215 -5q60 52 76 128h-91q-105 0 -157.5 42.5t-52.5 116.5q0 43 20 82t54.5 62.5t77.5 23.5q74 0 120 -63.5t46 -179.5q0 -42 -7 -76h116l5 -4zM395 8q7 32 7 76q0 113 -43.5 174t-114.5 61
q-41 0 -74 -22.5t-52 -59t-19 -77.5q0 -71 50.5 -111.5t153.5 -40.5h89h3z" />
    <glyph glyph-name="uniFBE3" unicode="&#x6c9;" horiz-adv-x="519" arabic-form="final" 
d="M519 0h-118q-21 -94 -100 -151t-231 -86l-2 8q149 28 227 83.5t98 145.5h-91q-105 0 -157.5 42.5t-52.5 116.5q0 43 20 82t54.5 62.5t77.5 23.5q74 0 120 -63.5t46 -179.5q0 -42 -7 -76h116l5 -4zM395 8q7 32 7 76q0 113 -43.5 174t-114.5 61q-41 0 -74 -22.5t-52 -59
t-19 -77.5q0 -71 50.5 -111.5t153.5 -40.5h89h3zM170 406l78 135h6l78 -135l-5 -3l-76 131l-75 -131z" />
    <glyph glyph-name="uniFBE5" unicode="&#x6d0;" horiz-adv-x="708" arabic-form="final" 
d="M708 0q-37 0 -64.5 7.5t-68.5 25.5q19 -11 27 -23.5t8 -30.5q0 -38 -34.5 -75.5t-105.5 -62.5t-172 -25q-119 0 -174.5 53.5t-55.5 143.5q0 89 34 172l6 -2q-33 -79 -33 -169q0 -87 53.5 -138.5t169.5 -51.5q99 0 168 24.5t103 60.5t34 71q0 20 -13 34.5t-53 33.5
t-124 48l3 7q61 -21 142 -56q51 -22 80.5 -30.5t69.5 -8.5l5 -4zM299 -304.5q-3 2.5 -3 6.5t3 6.5t6 2.5q9 0 9 -9t-9 -9q-3 0 -6 2.5zM299 -425.5q-3 2.5 -3 6.5t3 6.5t6 2.5q9 0 9 -9t-9 -9q-3 0 -6 2.5z" />
    <glyph glyph-name="uniFBE6" unicode="&#x6d0;" horiz-adv-x="256" arabic-form="initial" 
d="M133 41.5q37 33.5 37 107.5q0 108 -39 219l8 3q39 -111 39 -222q0 -78 -39.5 -113.5t-138.5 -35.5l-5 4l6 4q95 0 132 33.5zM110 -124.5q-3 2.5 -3 6.5t3 6.5t6 2.5q9 0 9 -9t-9 -9q-3 0 -6 2.5zM110 -245.5q-3 2.5 -3 6.5t3 6.5t6 2.5q9 0 9 -9t-9 -9q-3 0 -6 2.5z" />
    <glyph glyph-name="uniFBE7" unicode="&#x6d0;" horiz-adv-x="295" arabic-form="medial" 
d="M300 4l-5 -4q-58 0 -99 31t-49 79q-6 -49 -45 -79.5t-102 -30.5l-5 4l6 4q66 0 104 34.5t38 93.5v169h8v-169q0 -57 41.5 -92.5t102.5 -35.5zM140 -124.5q-3 2.5 -3 6.5t3 6.5t6 2.5q9 0 9 -9t-9 -9q-3 0 -6 2.5zM140 -245.5q-3 2.5 -3 6.5t3 6.5t6 2.5q9 0 9 -9t-9 -9
q-3 0 -6 2.5z" />
    <glyph glyph-name="uniFBE8" unicode="&#x649;" horiz-adv-x="256" arabic-form="initial" 
d="M133 41.5q37 33.5 37 107.5q0 108 -39 219l8 3q39 -111 39 -222q0 -78 -39.5 -113.5t-138.5 -35.5l-5 4l6 4q95 0 132 33.5z" />
    <glyph glyph-name="uniFBE9" unicode="&#x649;" horiz-adv-x="295" arabic-form="medial" 
d="M300 4l-5 -4q-58 0 -99 31t-49 79q-6 -49 -45 -79.5t-102 -30.5l-5 4l6 4q66 0 104 34.5t38 93.5v169h8v-169q0 -57 41.5 -92.5t102.5 -35.5z" />
    <glyph glyph-name="uniFBFD" unicode="&#x6cc;" horiz-adv-x="708" arabic-form="final" 
d="M708 0q-37 0 -64.5 7.5t-68.5 25.5q19 -11 27 -23.5t8 -30.5q0 -38 -34.5 -75.5t-105.5 -62.5t-172 -25q-119 0 -174.5 53.5t-55.5 143.5q0 89 34 172l6 -2q-33 -79 -33 -169q0 -87 53.5 -138.5t169.5 -51.5q99 0 168 24.5t103 60.5t34 71q0 20 -13 34.5t-53 33.5
t-124 48l3 7q61 -21 142 -56q51 -22 80.5 -30.5t69.5 -8.5l5 -4z" />
    <glyph glyph-name="uniFBFE" unicode="&#x6cc;" horiz-adv-x="256" arabic-form="initial" 
d="M133 41.5q37 33.5 37 107.5q0 108 -39 219l8 3q39 -111 39 -222q0 -78 -39.5 -113.5t-138.5 -35.5l-5 4l6 4q95 0 132 33.5zM50 -150.5q-3 2.5 -3 6.5t3 6.5t7 2.5t6.5 -2.5t2.5 -6.5t-2.5 -6.5t-6.5 -2.5t-7 2.5zM170.5 -150.5q-2.5 2.5 -2.5 6.5t2.5 6.5t6.5 2.5
t7 -2.5t3 -6.5t-3 -6.5t-7 -2.5t-6.5 2.5z" />
    <glyph glyph-name="uniFBFF" unicode="&#x6cc;" horiz-adv-x="295" arabic-form="medial" 
d="M300 4l-5 -4q-58 0 -99 31t-49 79q-6 -49 -45 -79.5t-102 -30.5l-5 4l6 4q66 0 104 34.5t38 93.5v169h8v-169q0 -57 41.5 -92.5t102.5 -35.5zM79 -150.5q-3 2.5 -3 6.5t3 6.5t7 2.5t6.5 -2.5t2.5 -6.5t-2.5 -6.5t-6.5 -2.5t-7 2.5zM199.5 -150.5q-2.5 2.5 -2.5 6.5
t2.5 6.5t6.5 2.5t7 -2.5t3 -6.5t-3 -6.5t-7 -2.5t-6.5 2.5z" />
    <glyph glyph-name="uniFC5B" unicode="&#xfc5b;" horiz-adv-x="450" arabic-form="isolated" 
d="M30 8l2 8q72 -20 160 -20q83 0 133 32t50 88q0 85 -50.5 171t-132.5 177l6 5q83 -91 133.5 -178.5t50.5 -174.5q0 -60 -52 -94t-138 -34q-90 0 -162 20zM150 582q0 9 9 9t9 -9t-9 -9t-9 9zM162 825v-147h-6v146z" />
    <glyph glyph-name="uniFC5C" unicode="&#xfc5c;" horiz-adv-x="332" arabic-form="isolated" 
d="M-17 -232q141 48 202.5 119.5t61.5 176.5q0 64 -10.5 118.5t-28.5 110.5l8 2q17 -56 27.5 -110.5t10.5 -119.5q0 -108 -62 -181.5t-206 -123.5zM196 563v-147h-6v146z" />
    <glyph glyph-name="uniFC61" unicode="&#xfc61;" arabic-form="isolated" 
d="M235 699.5q4 -16.5 4 -36.5q0 -33 -14.5 -49.5t-39.5 -16.5q-22 0 -35.5 14t-16.5 35q-3 -21 -16.5 -35t-35.5 -14q-24 0 -38 16t-14 49q0 29 9 54l6 -1q-3 -8 -5.5 -23t-2.5 -29q0 -59 46 -59q23 0 35.5 17.5t12.5 42.5v47h6v-47q0 -25 12.5 -42.5t35.5 -17.5t35.5 15
t12.5 45q0 20 -4.5 36t-13.5 36l6 3q11 -23 15 -39.5zM188.5 967q16.5 -20 16.5 -50q0 -39 -41.5 -75.5t-101.5 -60.5l-2 5q59 24 97 57q-41 8 -60.5 29.5t-19.5 48.5q0 30 18.5 48t45.5 18q31 0 47.5 -20zM199 916q0 28 -14.5 46.5t-43.5 18.5q-24 0 -41 -16.5t-17 -43.5
q0 -26 19 -45.5t59 -28.5q38 35 38 69z" />
    <glyph glyph-name="uniFC63" unicode="&#xfc63;" arabic-form="isolated" 
d="M235 699.5q4 -16.5 4 -36.5q0 -33 -14.5 -49.5t-39.5 -16.5q-22 0 -35.5 14t-16.5 35q-3 -21 -16.5 -35t-35.5 -14q-24 0 -38 16t-14 49q0 29 9 54l6 -1q-3 -8 -5.5 -23t-2.5 -29q0 -59 46 -59q23 0 35.5 17.5t12.5 42.5v47h6v-47q0 -25 12.5 -42.5t35.5 -17.5t35.5 15
t12.5 45q0 20 -4.5 36t-13.5 36l6 3q11 -23 15 -39.5zM136 938v-147h-6v146z" />
    <glyph glyph-name="uniFD3C" unicode="&#xfd3c;" horiz-adv-x="218" arabic-form="final" 
d="M98 644l7 1v-527q0 -56 30 -83t83 -27l5 -4l-5 -4q-56 0 -88 29t-32 89v526zM1 786l200 39v-6l-200 -39v6zM1 711l200 39v-6l-200 -39v6z" />
    <glyph glyph-name="uniFD3D" unicode="&#xfd3d;" horiz-adv-x="220" arabic-form="isolated" 
d="M98 0v621l7 1v-622h-7zM1 763l200 39v-6l-200 -39v6zM1 688l200 39v-6l-200 -39v6z" />
    <glyph glyph-name="uniFE70" unicode="&#xfe70;" horiz-adv-x="600" arabic-form="isolated" 
d="M43 659l200 39v-6l-200 -39v6zM43 584l200 39v-6l-200 -39v6z" />
    <glyph glyph-name="uniFE72" unicode="&#xfe72;" horiz-adv-x="600" arabic-form="isolated" 
d="M286.5 760q16.5 -20 16.5 -45q0 -38 -40 -72.5t-99 -58.5l-6 3q-2 81 -40 81q-13 0 -24 -8t-26 -24l-4 4q15 16 27.5 25t26.5 9q22 0 33.5 -21.5t12.5 -62.5q59 25 94 56q-41 8 -59.5 27.5t-18.5 43.5q0 25 17 44t42 19q31 0 47.5 -20zM297 715q0 22 -15 40.5t-43 18.5
q-23 0 -38 -17.5t-15 -40.5q0 -22 18 -40t58 -26q35 33 35 65z" />
    <glyph glyph-name="uniFE74" unicode="&#xfe74;" horiz-adv-x="600" arabic-form="isolated" 
d="M43 -90l200 39v-6l-200 -39v6zM43 -165l200 39v-6l-200 -39v6z" />
    <glyph glyph-name="uniFE76" unicode="&#xfe76;" horiz-adv-x="600" arabic-form="isolated" 
d="M43 612l200 39v-6l-200 -39v6z" />
    <glyph glyph-name="uniFE78" unicode="&#xfe78;" horiz-adv-x="600" arabic-form="isolated" 
d="M158.5 773q16.5 -20 16.5 -50q0 -39 -41.5 -75.5t-101.5 -60.5l-2 5q59 24 97 57q-41 8 -60.5 29.5t-19.5 48.5q0 30 18.5 48t45.5 18q31 0 47.5 -20zM169 722q0 28 -14.5 46.5t-43.5 18.5q-24 0 -41 -16.5t-17 -43.5q0 -26 19 -45.5t59 -28.5q38 35 38 69z" />
    <glyph glyph-name="uniFE7C" unicode="&#xfe7c;" horiz-adv-x="600" arabic-form="isolated" 
d="M235 699.5q4 -16.5 4 -36.5q0 -33 -14.5 -49.5t-39.5 -16.5q-22 0 -35.5 14t-16.5 35q-3 -21 -16.5 -35t-35.5 -14q-24 0 -38 16t-14 49q0 29 9 54l6 -1q-3 -8 -5.5 -23t-2.5 -29q0 -59 46 -59q23 0 35.5 17.5t12.5 42.5v47h6v-47q0 -25 12.5 -42.5t35.5 -17.5t35.5 15
t12.5 45q0 20 -4.5 36t-13.5 36l6 3q11 -23 15 -39.5z" />
    <glyph glyph-name="uniFE7E" unicode="&#xfe7e;" horiz-adv-x="600" arabic-form="isolated" 
d="M164.5 609.5q-25.5 -24.5 -64.5 -24.5t-64.5 24.5t-25.5 63.5t25.5 63.5t64.5 24.5t64.5 -24.5t25.5 -63.5t-25.5 -63.5zM159.5 731.5q-23.5 22.5 -59.5 22.5t-59.5 -22.5t-23.5 -58.5t23.5 -58.5t59.5 -22.5t59.5 22.5t23.5 58.5t-23.5 58.5z" />
    <glyph glyph-name="uniFE82" unicode="&#x622;" horiz-adv-x="218" arabic-form="final" 
d="M98 644l7 1v-527q0 -56 30 -83t83 -27l5 -4l-5 -4q-56 0 -88 29t-32 89v526zM0 739q10 22 25 37t32 15q13 0 23.5 -4.5t23.5 -13.5q2 -1 11 -6.5t17.5 -8t16.5 -2.5q14 0 25.5 5.5t26.5 19.5l3 -6q-28 -25 -56 -25q-21 0 -46 17q-2 1 -11 6.5t-17.5 8t-16.5 2.5
q-15 0 -28.5 -13.5t-22.5 -33.5z" />
    <glyph glyph-name="uniFE84" unicode="&#x623;" horiz-adv-x="218" arabic-form="final" 
d="M98 644l7 1v-527q0 -56 30 -83t83 -27l5 -4l-5 -4q-56 0 -88 29t-32 89v526zM188 756l-173 -27l-1 6l83 13q-31 16 -47.5 37.5t-16.5 45.5q0 28 21 47t61 19q29 0 52 -13l-3 -5q-23 12 -49 12q-37 0 -56.5 -17.5t-19.5 -42.5q0 -23 17.5 -44.5t48.5 -37.5l83 13v-6z" />
    <glyph glyph-name="uniFE86" unicode="&#x624;" horiz-adv-x="519" arabic-form="final" 
d="M519 0h-118q-21 -94 -100 -151t-231 -86l-2 8q149 28 227 83.5t98 145.5h-91q-105 0 -157.5 42.5t-52.5 116.5q0 43 20 82t54.5 62.5t77.5 23.5q74 0 120 -63.5t46 -179.5q0 -42 -7 -76h116l5 -4zM395 8q7 32 7 76q0 113 -43.5 174t-114.5 61q-41 0 -74 -22.5t-52 -59
t-19 -77.5q0 -71 50.5 -111.5t153.5 -40.5h89h3zM338 438l-173 -27l-1 6l83 13q-31 16 -47.5 37.5t-16.5 45.5q0 28 21 47t61 19q29 0 52 -13l-3 -5q-23 12 -49 12q-37 0 -56.5 -17.5t-19.5 -42.5q0 -23 17.5 -44.5t48.5 -37.5l83 13v-6z" />
    <glyph glyph-name="uniFE88" unicode="&#x625;" horiz-adv-x="215" arabic-form="final" 
d="M98 731h7v-613q0 -110 111 -110l4 -4l-5 -4q-55 0 -86 29t-31 89v613zM203 -207l-173 -27l-1 6l83 13q-31 16 -47.5 37.5t-16.5 45.5q0 28 21 47t61 19q29 0 52 -13l-3 -5q-23 12 -49 12q-37 0 -56.5 -17.5t-19.5 -42.5q0 -23 17.5 -44.5t48.5 -37.5l83 13v-6z" />
    <glyph glyph-name="uniFE8A" unicode="&#x626;" horiz-adv-x="708" arabic-form="final" 
d="M708 0q-37 0 -64.5 7.5t-68.5 25.5q19 -11 27 -23.5t8 -30.5q0 -38 -34.5 -75.5t-105.5 -62.5t-172 -25q-119 0 -174.5 53.5t-55.5 143.5q0 89 34 172l6 -2q-33 -79 -33 -169q0 -87 53.5 -138.5t169.5 -51.5q99 0 168 24.5t103 60.5t34 71q0 20 -13 34.5t-53 33.5
t-124 48l3 7q61 -21 142 -56q51 -22 80.5 -30.5t69.5 -8.5l5 -4zM223 335l-173 -27l-1 6l83 13q-31 16 -47.5 37.5t-16.5 45.5q0 28 21 47t61 19q29 0 52 -13l-3 -5q-23 12 -49 12q-37 0 -56.5 -17.5t-19.5 -42.5q0 -23 17.5 -44.5t48.5 -37.5l83 13v-6z" />
    <glyph glyph-name="uniFE8B" unicode="&#x626;" horiz-adv-x="256" arabic-form="initial" 
d="M133 41.5q37 33.5 37 107.5q0 108 -39 219l8 3q39 -111 39 -222q0 -78 -39.5 -113.5t-138.5 -35.5l-5 4l6 4q95 0 132 33.5zM213 495l-173 -27l-1 6l83 13q-31 16 -47.5 37.5t-16.5 45.5q0 28 21 47t61 19q29 0 52 -13l-3 -5q-23 12 -49 12q-37 0 -56.5 -17.5
t-19.5 -42.5q0 -23 17.5 -44.5t48.5 -37.5l83 13v-6z" />
    <glyph glyph-name="uniFE8C" unicode="&#x626;" horiz-adv-x="295" arabic-form="medial" 
d="M300 4l-5 -4q-58 0 -99 31t-49 79q-6 -49 -45 -79.5t-102 -30.5l-5 4l6 4q66 0 104 34.5t38 93.5v169h8v-169q0 -57 41.5 -92.5t102.5 -35.5zM233 417l-173 -27l-1 6l83 13q-31 16 -47.5 37.5t-16.5 45.5q0 28 21 47t61 19q29 0 52 -13l-3 -5q-23 12 -49 12
q-37 0 -56.5 -17.5t-19.5 -42.5q0 -23 17.5 -44.5t48.5 -37.5l83 13v-6z" />
    <glyph glyph-name="uniFE8E" unicode="&#x627;" horiz-adv-x="215" arabic-form="final" 
d="M98 731h7v-613q0 -110 111 -110l4 -4l-5 -4q-55 0 -86 29t-31 89v613z" />
    <glyph glyph-name="uniFE90" unicode="&#x628;" horiz-adv-x="859" arabic-form="final" 
d="M864 4l-5 -4q-68 0 -100.5 32t-40.5 62q-62 -51 -161 -78.5t-226 -27.5q-263 0 -263 168q0 72 35 145l6 -3q-34 -72 -34 -142q0 -160 257 -160q125 0 223.5 27.5t159.5 77.5v204h7v-197q0 -14 13 -37.5t44 -43t81 -19.5zM345 -137q0 9 9 9t9 -9t-9 -9t-9 9z" />
    <glyph glyph-name="uniFE91" unicode="&#x628;" horiz-adv-x="256" arabic-form="initial" 
d="M133 41.5q37 33.5 37 107.5q0 108 -39 219l8 3q39 -111 39 -222q0 -78 -39.5 -113.5t-138.5 -35.5l-5 4l6 4q95 0 132 33.5zM108 -137q0 9 9 9t9 -9t-9 -9t-9 9z" />
    <glyph glyph-name="uniFE92" unicode="&#x628;" horiz-adv-x="295" arabic-form="medial" 
d="M300 4l-5 -4q-58 0 -99 31t-49 79q-6 -49 -45 -79.5t-102 -30.5l-5 4l6 4q66 0 104 34.5t38 93.5v169h8v-169q0 -57 41.5 -92.5t102.5 -35.5zM137 -137q0 9 9 9t9 -9t-9 -9t-9 9z" />
    <glyph glyph-name="uniFE94" unicode="&#x629;" horiz-adv-x="477" arabic-form="final" 
d="M482 4l-5 -4h-5q-128 0 -132 141q-20 -44 -65 -71.5t-103 -27.5q-68 0 -105 34.5t-37 86.5q0 83 77.5 132.5t231.5 56.5v127l8 1v-325q0 -75 31.5 -111t94.5 -36h4zM274.5 78.5q44.5 28.5 64.5 72.5v193q-150 -7 -226 -54t-76 -126q0 -49 35 -81.5t100 -32.5
q58 0 102.5 28.5zM275 603.5q-3 2.5 -3 6.5t3 6.5t7 2.5t6.5 -2.5t2.5 -6.5t-2.5 -6.5t-6.5 -2.5t-7 2.5zM395.5 603.5q-2.5 2.5 -2.5 6.5t2.5 6.5t6.5 2.5t7 -2.5t3 -6.5t-3 -6.5t-7 -2.5t-6.5 2.5z" />
    <glyph glyph-name="uniFE96" unicode="&#x62a;" horiz-adv-x="859" arabic-form="final" 
d="M864 4l-5 -4q-68 0 -100.5 32t-40.5 62q-62 -51 -161 -78.5t-226 -27.5q-263 0 -263 168q0 72 35 145l6 -3q-34 -72 -34 -142q0 -160 257 -160q125 0 223.5 27.5t159.5 77.5v204h7v-197q0 -14 13 -37.5t44 -43t81 -19.5zM335 415.5q-3 2.5 -3 6.5t3 6.5t7 2.5t6.5 -2.5
t2.5 -6.5t-2.5 -6.5t-6.5 -2.5t-7 2.5zM455.5 415.5q-2.5 2.5 -2.5 6.5t2.5 6.5t6.5 2.5t7 -2.5t3 -6.5t-3 -6.5t-7 -2.5t-6.5 2.5z" />
    <glyph glyph-name="uniFE97" unicode="&#x62a;" horiz-adv-x="256" arabic-form="initial" 
d="M133 41.5q37 33.5 37 107.5q0 108 -39 219l8 3q39 -111 39 -222q0 -78 -39.5 -113.5t-138.5 -35.5l-5 4l6 4q95 0 132 33.5zM60 506.5q-3 2.5 -3 6.5t3 6.5t7 2.5t6.5 -2.5t2.5 -6.5t-2.5 -6.5t-6.5 -2.5t-7 2.5zM180.5 506.5q-2.5 2.5 -2.5 6.5t2.5 6.5t6.5 2.5t7 -2.5
t3 -6.5t-3 -6.5t-7 -2.5t-6.5 2.5z" />
    <glyph glyph-name="uniFE98" unicode="&#x62a;" horiz-adv-x="295" arabic-form="medial" 
d="M300 4l-5 -4q-58 0 -99 31t-49 79q-6 -49 -45 -79.5t-102 -30.5l-5 4l6 4q66 0 104 34.5t38 93.5v169h8v-169q0 -57 41.5 -92.5t102.5 -35.5zM80 428.5q-3 2.5 -3 6.5t3 6.5t7 2.5t6.5 -2.5t2.5 -6.5t-2.5 -6.5t-6.5 -2.5t-7 2.5zM200.5 428.5q-2.5 2.5 -2.5 6.5t2.5 6.5
t6.5 2.5t7 -2.5t3 -6.5t-3 -6.5t-7 -2.5t-6.5 2.5z" />
    <glyph glyph-name="uniFE9A" unicode="&#x62b;" horiz-adv-x="859" arabic-form="final" 
d="M864 4l-5 -4q-68 0 -100.5 32t-40.5 62q-62 -51 -161 -78.5t-226 -27.5q-263 0 -263 168q0 72 35 145l6 -3q-34 -72 -34 -142q0 -160 257 -160q125 0 223.5 27.5t159.5 77.5v204h7v-197q0 -14 13 -37.5t44 -43t81 -19.5zM395.5 465.5q-2.5 2.5 -2.5 6.5q0 3 2.5 6t6.5 3
t6.5 -3t2.5 -6q0 -9 -9 -9q-4 0 -6.5 2.5zM334.5 374.5q-2.5 2.5 -2.5 6.5q0 3 2.5 6t6.5 3t6.5 -3t2.5 -6q0 -9 -9 -9q-4 0 -6.5 2.5zM454 381q0 3 2.5 6t6.5 3t6.5 -3t2.5 -6q0 -4 -2.5 -6.5t-6.5 -2.5q-9 0 -9 9z" />
    <glyph glyph-name="uniFE9B" unicode="&#x62b;" horiz-adv-x="256" arabic-form="initial" 
d="M133 41.5q37 33.5 37 107.5q0 108 -39 219l8 3q39 -111 39 -222q0 -78 -39.5 -113.5t-138.5 -35.5l-5 4l6 4q95 0 132 33.5zM120.5 556.5q-2.5 2.5 -2.5 6.5q0 3 2.5 6t6.5 3t6.5 -3t2.5 -6q0 -9 -9 -9q-4 0 -6.5 2.5zM59.5 465.5q-2.5 2.5 -2.5 6.5q0 3 2.5 6t6.5 3
t6.5 -3t2.5 -6q0 -9 -9 -9q-4 0 -6.5 2.5zM179 472q0 3 2.5 6t6.5 3t6.5 -3t2.5 -6q0 -4 -2.5 -6.5t-6.5 -2.5q-9 0 -9 9z" />
    <glyph glyph-name="uniFE9C" unicode="&#x62b;" horiz-adv-x="295" arabic-form="medial" 
d="M300 4l-5 -4q-58 0 -99 31t-49 79q-6 -49 -45 -79.5t-102 -30.5l-5 4l6 4q66 0 104 34.5t38 93.5v169h8v-169q0 -57 41.5 -92.5t102.5 -35.5zM140.5 478.5q-2.5 2.5 -2.5 6.5q0 3 2.5 6t6.5 3t6.5 -3t2.5 -6q0 -9 -9 -9q-4 0 -6.5 2.5zM79.5 387.5q-2.5 2.5 -2.5 6.5
q0 3 2.5 6t6.5 3t6.5 -3t2.5 -6q0 -9 -9 -9q-4 0 -6.5 2.5zM199 394q0 3 2.5 6t6.5 3t6.5 -3t2.5 -6q0 -4 -2.5 -6.5t-6.5 -2.5q-9 0 -9 9z" />
    <glyph glyph-name="uniFE9E" unicode="&#x62c;" horiz-adv-x="709" arabic-form="final" 
d="M193.5 127.5q-100.5 -78.5 -100.5 -214.5q0 -66 32.5 -122.5t98.5 -90.5t161 -34q60 0 118.5 13t95.5 32l3 -8q-38 -19 -97.5 -32t-120.5 -13q-97 0 -164.5 35t-101 93.5t-33.5 126.5q0 155 125.5 236.5t348.5 83.5q-64 20 -106 45.5t-86 61.5q-43 34 -72 49t-73 15
q-35 0 -61.5 -7t-57.5 -26l-4 7q33 20 60.5 27t63.5 7q44 0 75 -16t75 -51q49 -40 92.5 -66t111.5 -44l-1 -8l-8 -1q-44 0 -83 -3q11 -118 67 -166.5t158 -48.5l4 -4l-5 -4q-104 0 -162 51t-69 171q-184 -16 -284.5 -94.5zM343 -80q0 9 9 9t9 -9t-9 -9t-9 9z" />
    <glyph glyph-name="uniFE9F" unicode="&#x62c;" horiz-adv-x="690" arabic-form="initial" 
d="M283 401.5q28 -10.5 50 -27.5t56 -47q57 -52 110 -86.5t136 -58.5l-1 -8l-10 -1q-99 -1 -177.5 -25.5t-179.5 -70.5q-87 -39 -144 -58t-123 -19l-5 4l6 4q64 0 119.5 18.5t143.5 57.5q99 46 178 70.5t178 25.5q-80 24 -129.5 57t-107.5 84q-49 44 -82.5 63.5t-81.5 19.5
q-31 0 -57.5 -7t-57.5 -26l-4 7q32 19 59.5 26.5t59.5 7.5q36 0 64 -10.5zM287 -137q0 9 9 9t9 -9t-9 -9t-9 9z" />
    <glyph glyph-name="uniFEA0" unicode="&#x62c;" horiz-adv-x="750" arabic-form="medial" 
d="M755 4l-5 -4q-201 0 -237 198q-50 -12 -97 -34t-116 -60q-64 -35 -106.5 -55.5t-92 -34.5t-101.5 -14l-5 4l6 4q72 0 135.5 25.5t157.5 76.5q92 51 158 77t140 28q-80 23 -129 52t-102 71q-43 35 -73 50.5t-75 15.5q-34 0 -60.5 -7t-60.5 -25l-4 7q36 19 63 26t62 7
q47 0 79 -16t75 -52q54 -44 105.5 -74t136.5 -54l-2 -7l-8 -1q-41 0 -79 -9q18 -101 77 -146t154 -45zM360 -87q0 9 9 9t9 -9t-9 -9t-9 9z" />
    <glyph glyph-name="uniFEA2" unicode="&#x62d;" horiz-adv-x="709" arabic-form="final" 
d="M193.5 127.5q-100.5 -78.5 -100.5 -214.5q0 -66 32.5 -122.5t98.5 -90.5t161 -34q60 0 118.5 13t95.5 32l3 -8q-38 -19 -97.5 -32t-120.5 -13q-97 0 -164.5 35t-101 93.5t-33.5 126.5q0 155 125.5 236.5t348.5 83.5q-64 20 -106 45.5t-86 61.5q-43 34 -72 49t-73 15
q-35 0 -61.5 -7t-57.5 -26l-4 7q33 20 60.5 27t63.5 7q44 0 75 -16t75 -51q49 -40 92.5 -66t111.5 -44l-1 -8l-8 -1q-44 0 -83 -3q11 -118 67 -166.5t158 -48.5l4 -4l-5 -4q-104 0 -162 51t-69 171q-184 -16 -284.5 -94.5z" />
    <glyph glyph-name="uniFEA3" unicode="&#x62d;" horiz-adv-x="690" arabic-form="initial" 
d="M283 401.5q28 -10.5 50 -27.5t56 -47q57 -52 110 -86.5t136 -58.5l-1 -8l-10 -1q-99 -1 -177.5 -25.5t-179.5 -70.5q-87 -39 -144 -58t-123 -19l-5 4l6 4q64 0 119.5 18.5t143.5 57.5q99 46 178 70.5t178 25.5q-80 24 -129.5 57t-107.5 84q-49 44 -82.5 63.5t-81.5 19.5
q-31 0 -57.5 -7t-57.5 -26l-4 7q32 19 59.5 26.5t59.5 7.5q36 0 64 -10.5z" />
    <glyph glyph-name="uniFEA4" unicode="&#x62d;" horiz-adv-x="750" arabic-form="medial" 
d="M755 4l-5 -4q-201 0 -237 198q-50 -12 -97 -34t-116 -60q-64 -35 -106.5 -55.5t-92 -34.5t-101.5 -14l-5 4l6 4q72 0 135.5 25.5t157.5 76.5q92 51 158 77t140 28q-80 23 -129 52t-102 71q-43 35 -73 50.5t-75 15.5q-34 0 -60.5 -7t-60.5 -25l-4 7q36 19 63 26t62 7
q47 0 79 -16t75 -52q54 -44 105.5 -74t136.5 -54l-2 -7l-8 -1q-41 0 -79 -9q18 -101 77 -146t154 -45z" />
    <glyph glyph-name="uniFEA6" unicode="&#x62e;" horiz-adv-x="709" arabic-form="final" 
d="M193.5 127.5q-100.5 -78.5 -100.5 -214.5q0 -66 32.5 -122.5t98.5 -90.5t161 -34q60 0 118.5 13t95.5 32l3 -8q-38 -19 -97.5 -32t-120.5 -13q-97 0 -164.5 35t-101 93.5t-33.5 126.5q0 155 125.5 236.5t348.5 83.5q-64 20 -106 45.5t-86 61.5q-43 34 -72 49t-73 15
q-35 0 -61.5 -7t-57.5 -26l-4 7q33 20 60.5 27t63.5 7q44 0 75 -16t75 -51q49 -40 92.5 -66t111.5 -44l-1 -8l-8 -1q-44 0 -83 -3q11 -118 67 -166.5t158 -48.5l4 -4l-5 -4q-104 0 -162 51t-69 171q-184 -16 -284.5 -94.5zM213 492q0 9 9 9t9 -9t-9 -9t-9 9z" />
    <glyph glyph-name="uniFEA7" unicode="&#x62e;" horiz-adv-x="690" arabic-form="initial" 
d="M283 401.5q28 -10.5 50 -27.5t56 -47q57 -52 110 -86.5t136 -58.5l-1 -8l-10 -1q-99 -1 -177.5 -25.5t-179.5 -70.5q-87 -39 -144 -58t-123 -19l-5 4l6 4q64 0 119.5 18.5t143.5 57.5q99 46 178 70.5t178 25.5q-80 24 -129.5 57t-107.5 84q-49 44 -82.5 63.5t-81.5 19.5
q-31 0 -57.5 -7t-57.5 -26l-4 7q32 19 59.5 26.5t59.5 7.5q36 0 64 -10.5zM210 492q0 9 9 9t9 -9t-9 -9t-9 9z" />
    <glyph glyph-name="uniFEA8" unicode="&#x62e;" horiz-adv-x="750" arabic-form="medial" 
d="M755 4l-5 -4q-201 0 -237 198q-50 -12 -97 -34t-116 -60q-64 -35 -106.5 -55.5t-92 -34.5t-101.5 -14l-5 4l6 4q72 0 135.5 25.5t157.5 76.5q92 51 158 77t140 28q-80 23 -129 52t-102 71q-43 35 -73 50.5t-75 15.5q-34 0 -60.5 -7t-60.5 -25l-4 7q36 19 63 26t62 7
q47 0 79 -16t75 -52q54 -44 105.5 -74t136.5 -54l-2 -7l-8 -1q-41 0 -79 -9q18 -101 77 -146t154 -45zM205 494q0 9 9 9t9 -9t-9 -9t-9 9z" />
    <glyph glyph-name="uniFEAA" unicode="&#x62f;" horiz-adv-x="504" arabic-form="final" 
d="M509 4l-5 -4q-50 0 -77.5 20t-44.5 60q-30 -43 -85.5 -67.5t-116.5 -24.5q-41 0 -76 8t-74 24l2 8q38 -16 72.5 -24t75.5 -8q60 0 114.5 24.5t84.5 66.5l-148 378l8 4l146 -377q18 -45 44.5 -64.5t74.5 -19.5z" />
    <glyph glyph-name="uniFEAC" unicode="&#x630;" horiz-adv-x="504" arabic-form="final" 
d="M509 4l-5 -4q-50 0 -77.5 20t-44.5 60q-30 -43 -85.5 -67.5t-116.5 -24.5q-41 0 -76 8t-74 24l2 8q38 -16 72.5 -24t75.5 -8q60 0 114.5 24.5t84.5 66.5l-148 378l8 4l146 -377q18 -45 44.5 -64.5t74.5 -19.5zM155 582q0 9 9 9t9 -9t-9 -9t-9 9z" />
    <glyph glyph-name="uniFEAE" unicode="&#x631;" horiz-adv-x="355" arabic-form="final" 
d="M361 4l-6 -4q-85 0 -102 80q1 -3 1 -7q-1 -115 -62.5 -189t-205.5 -124l-3 8q142 49 203 121.5t61 184.5q0 95 -35 219l8 2q25 -93 32 -180q8 -107 104 -107z" />
    <glyph glyph-name="uniFEB0" unicode="&#x632;" horiz-adv-x="355" arabic-form="final" 
d="M361 4l-6 -4q-85 0 -102 80q1 -3 1 -7q-1 -115 -62.5 -189t-205.5 -124l-3 8q142 49 203 121.5t61 184.5q0 95 -35 219l8 2q25 -93 32 -180q8 -107 104 -107zM188 429q0 9 9 9t9 -9t-9 -9t-9 9z" />
    <glyph glyph-name="uniFEB2" unicode="&#x633;" horiz-adv-x="1264" arabic-form="final" 
d="M1269 4l-5 -4q-76 0 -119.5 26.5t-52.5 86.5q-7 -54 -43 -83.5t-94 -29.5q-59 0 -95.5 29t-43.5 77q-5 -47 -37 -76.5t-90 -29.5q-48 0 -76 19t-37 48v-8q0 -153 -64 -223.5t-214 -70.5q-119 0 -174.5 53.5t-55.5 143.5q0 89 34 172l6 -2q-33 -81 -33 -170
q0 -87 53.5 -138t169.5 -51q100 0 159 31t85.5 93t26.5 161q0 40 -12 87t-38 126l8 4q17 -55 29 -98.5t19 -85.5q7 -37 34 -60t81 -23q60 0 91 34t31 94v169h7v-169q0 -60 36.5 -94t99.5 -34t97 34.5t34 97.5v211h7v-191v0q1 -82 43.5 -117t127.5 -35z" />
    <glyph glyph-name="uniFEB3" unicode="&#x633;" horiz-adv-x="791" arabic-form="initial" 
d="M713 150q0 -75 -33.5 -112.5t-98.5 -37.5q-58 0 -94.5 29.5t-42.5 77.5q-6 -48 -38 -77.5t-90 -29.5q-61 0 -93.5 28.5t-38.5 78.5q-7 -50 -50 -78.5t-134 -28.5l-5 4l6 4q95 0 137 32.5t42 93.5v171h8v-169q0 -62 32.5 -95t96.5 -33q60 0 91 34.5t31 93.5v169h8v-169
q0 -60 36.5 -94t98.5 -34q61 0 92.5 35.5t31.5 105.5q0 108 -39 219l7 3q39 -111 39 -221z" />
    <glyph glyph-name="uniFEB4" unicode="&#x633;" horiz-adv-x="892" arabic-form="medial" 
d="M897 4l-5 -4q-76 0 -119.5 26.5t-53.5 86.5q-7 -55 -42 -84t-94 -29t-96 29.5t-44 77.5q-6 -48 -38 -77.5t-91 -29.5t-95.5 29.5t-42.5 78.5q-8 -50 -51.5 -79t-124.5 -29l-5 4l6 4q84 0 127.5 33.5t43.5 92.5v171h8v-169q0 -60 36 -94t98 -34t93.5 34t31.5 94v169h8
v-169q0 -60 36.5 -94t99.5 -34t97 34.5t34 97.5v228h7v-208q1 -82 43.5 -117t127.5 -35z" />
    <glyph glyph-name="uniFEB6" unicode="&#x634;" horiz-adv-x="1264" arabic-form="final" 
d="M1269 4l-5 -4q-76 0 -119.5 26.5t-52.5 86.5q-7 -54 -43 -83.5t-94 -29.5q-59 0 -95.5 29t-43.5 77q-5 -47 -37 -76.5t-90 -29.5q-48 0 -76 19t-37 48v-8q0 -153 -64 -223.5t-214 -70.5q-119 0 -174.5 53.5t-55.5 143.5q0 89 34 172l6 -2q-33 -81 -33 -170
q0 -87 53.5 -138t169.5 -51q100 0 159 31t85.5 93t26.5 161q0 40 -12 87t-38 126l8 4q17 -55 29 -98.5t19 -85.5q7 -37 34 -60t81 -23q60 0 91 34t31 94v169h7v-169q0 -60 36.5 -94t99.5 -34t97 34.5t34 97.5v211h7v-191v0q1 -82 43.5 -117t127.5 -35zM809.5 479.5
q-2.5 2.5 -2.5 6.5q0 3 2.5 6t6.5 3t6.5 -3t2.5 -6q0 -9 -9 -9q-4 0 -6.5 2.5zM748.5 388.5q-2.5 2.5 -2.5 6.5q0 3 2.5 6t6.5 3t6.5 -3t2.5 -6q0 -9 -9 -9q-4 0 -6.5 2.5zM868 395q0 3 2.5 6t6.5 3t6.5 -3t2.5 -6q0 -4 -2.5 -6.5t-6.5 -2.5q-9 0 -9 9z" />
    <glyph glyph-name="uniFEB7" unicode="&#x634;" horiz-adv-x="791" arabic-form="initial" 
d="M713 150q0 -75 -33.5 -112.5t-98.5 -37.5q-58 0 -94.5 29.5t-42.5 77.5q-6 -48 -38 -77.5t-90 -29.5q-61 0 -93.5 28.5t-38.5 78.5q-7 -50 -50 -78.5t-134 -28.5l-5 4l6 4q95 0 137 32.5t42 93.5v171h8v-169q0 -62 32.5 -95t96.5 -33q60 0 91 34.5t31 93.5v169h8v-169
q0 -60 36.5 -94t98.5 -34q61 0 92.5 35.5t31.5 105.5q0 108 -39 219l7 3q39 -111 39 -221zM436.5 462.5q-2.5 2.5 -2.5 6.5q0 3 2.5 6t6.5 3t6.5 -3t2.5 -6q0 -9 -9 -9q-4 0 -6.5 2.5zM375.5 371.5q-2.5 2.5 -2.5 6.5q0 3 2.5 6t6.5 3t6.5 -3t2.5 -6q0 -9 -9 -9
q-4 0 -6.5 2.5zM495 378q0 3 2.5 6t6.5 3t6.5 -3t2.5 -6q0 -4 -2.5 -6.5t-6.5 -2.5q-9 0 -9 9z" />
    <glyph glyph-name="uniFEB8" unicode="&#x634;" horiz-adv-x="892" arabic-form="medial" 
d="M897 4l-5 -4q-76 0 -119.5 26.5t-53.5 86.5q-7 -55 -42 -84t-94 -29t-96 29.5t-44 77.5q-6 -48 -38 -77.5t-91 -29.5t-95.5 29.5t-42.5 78.5q-8 -50 -51.5 -79t-124.5 -29l-5 4l6 4q84 0 127.5 33.5t43.5 92.5v171h8v-169q0 -60 36 -94t98 -34t93.5 34t31.5 94v169h8
v-169q0 -60 36.5 -94t99.5 -34t97 34.5t34 97.5v228h7v-208q1 -82 43.5 -117t127.5 -35zM436.5 478.5q-2.5 2.5 -2.5 6.5q0 3 2.5 6t6.5 3t6.5 -3t2.5 -6q0 -9 -9 -9q-4 0 -6.5 2.5zM375.5 387.5q-2.5 2.5 -2.5 6.5q0 3 2.5 6t6.5 3t6.5 -3t2.5 -6q0 -9 -9 -9q-4 0 -6.5 2.5
zM495 394q0 3 2.5 6t6.5 3t6.5 -3t2.5 -6q0 -4 -2.5 -6.5t-6.5 -2.5q-9 0 -9 9z" />
    <glyph glyph-name="uniFEBA" unicode="&#x635;" horiz-adv-x="1355" arabic-form="final" 
d="M1360 4l-5 -4q-58 0 -94.5 19.5t-66.5 55.5q-36 -41 -113.5 -58t-214.5 -17h-177v1q-48 0 -76 19t-37 48v-8q0 -153 -64 -223.5t-214 -70.5q-119 0 -174.5 53.5t-55.5 143.5q0 89 34 172l6 -2q-33 -81 -33 -170q0 -87 53.5 -138t169.5 -51q100 0 159 31t85.5 93t26.5 161
q0 40 -12 87t-38 126l8 4q17 -55 29 -98.5t19 -85.5q6 -36 32.5 -59t79.5 -24q56 184 145.5 293.5t206.5 109.5q100 0 147.5 -56t47.5 -153q0 -78 -35 -122q28 -35 64 -54t93 -19zM1081 25.5q77 17.5 111 59.5t34 118q0 94 -45.5 147.5t-141.5 53.5q-115 0 -202 -107
t-143 -289h172q138 0 215 17.5z" />
    <glyph glyph-name="uniFEBB" unicode="&#x635;" horiz-adv-x="908" arabic-form="initial" 
d="M783 356q47 -56 47 -153q0 -79 -34.5 -122.5t-113 -62t-219.5 -18.5h-177q-56 0 -95.5 30t-47.5 77q-6 -48 -44 -77.5t-99 -29.5l-5 4l6 4q65 0 101.5 33.5t36.5 91.5v231h8v-231q0 -56 38.5 -90t97.5 -35q57 185 146 294.5t207 109.5q100 0 147 -56zM678 25.5
q77 17.5 111 59.5t34 118q0 94 -45.5 147.5t-141.5 53.5q-115 0 -202 -107t-143 -289h172q138 0 215 17.5z" />
    <glyph glyph-name="uniFEBC" unicode="&#x635;" horiz-adv-x="952" arabic-form="medial" 
d="M957 4l-5 -4q-58 0 -94.5 19.5t-66.5 55.5q-36 -41 -113.5 -58t-214.5 -17h-177q-56 0 -95.5 30t-47.5 77q-6 -48 -44 -77.5t-99 -29.5l-5 4l6 4q65 0 101.5 33.5t36.5 91.5v231h8v-231q0 -56 38.5 -90t97.5 -35q57 185 146 294.5t207 109.5q100 0 147 -56t47 -153
q0 -79 -34 -122q28 -35 64 -54t93 -19zM678 25.5q77 17.5 111 59.5t34 118q0 94 -45.5 147.5t-141.5 53.5q-115 0 -202 -107t-143 -289h172q138 0 215 17.5z" />
    <glyph glyph-name="uniFEBE" unicode="&#x636;" horiz-adv-x="1355" arabic-form="final" 
d="M991 488q0 9 9 9t9 -9t-9 -9t-9 9zM1360 4l-5 -4q-58 0 -94.5 19.5t-66.5 55.5q-36 -41 -113.5 -58t-214.5 -17h-177v1q-48 0 -76 19t-37 48v-8q0 -153 -64 -223.5t-214 -70.5q-119 0 -174.5 53.5t-55.5 143.5q0 89 34 172l6 -2q-33 -81 -33 -170q0 -87 53.5 -138
t169.5 -51q100 0 159 31t85.5 93t26.5 161q0 40 -12 87t-38 126l8 4q17 -55 29 -98.5t19 -85.5q6 -36 32.5 -59t79.5 -24q56 184 145.5 293.5t206.5 109.5q100 0 147.5 -56t47.5 -153q0 -78 -35 -122q28 -35 64 -54t93 -19zM1081 25.5q77 17.5 111 59.5t34 118
q0 94 -45.5 147.5t-141.5 53.5q-115 0 -202 -107t-143 -289h172q138 0 215 17.5z" />
    <glyph glyph-name="uniFEBF" unicode="&#x636;" horiz-adv-x="908" arabic-form="initial" 
d="M590 481.5q-3 2.5 -3 6.5t3 6.5t7 2.5q9 0 9 -9t-9 -9q-4 0 -7 2.5zM783 356q47 -56 47 -153q0 -79 -34.5 -122.5t-113 -62t-219.5 -18.5h-177q-56 0 -95.5 30t-47.5 77q-6 -48 -44 -77.5t-99 -29.5l-5 4l6 4q65 0 101.5 33.5t36.5 91.5v231h8v-231q0 -56 38.5 -90
t97.5 -35q57 185 146 294.5t207 109.5q100 0 147 -56zM678 25.5q77 17.5 111 59.5t34 118q0 94 -45.5 147.5t-141.5 53.5q-115 0 -202 -107t-143 -289h172q138 0 215 17.5z" />
    <glyph glyph-name="uniFEC0" unicode="&#x636;" horiz-adv-x="952" arabic-form="medial" 
d="M590 481.5q-3 2.5 -3 6.5t3 6.5t7 2.5q9 0 9 -9t-9 -9q-4 0 -7 2.5zM957 4l-5 -4q-58 0 -94.5 19.5t-66.5 55.5q-36 -41 -113.5 -58t-214.5 -17h-177q-56 0 -95.5 30t-47.5 77q-6 -48 -44 -77.5t-99 -29.5l-5 4l6 4q65 0 101.5 33.5t36.5 91.5v231h8v-231q0 -56 38.5 -90
t97.5 -35q57 185 146 294.5t207 109.5q100 0 147 -56t47 -153q0 -79 -34 -122q28 -35 64 -54t93 -19zM678 25.5q77 17.5 111 59.5t34 118q0 94 -45.5 147.5t-141.5 53.5q-115 0 -202 -107t-143 -289h172q138 0 215 17.5z" />
    <glyph glyph-name="uniFEC2" unicode="&#x637;" horiz-adv-x="854" arabic-form="final" 
d="M859 4l-5 -4q-58 0 -94.5 19.5t-66.5 55.5q-36 -41 -113.5 -58t-214.5 -17h-317l1 8h137q20 66 40 113v610l8 1v-593q56 128 132.5 200.5t171.5 72.5q100 0 147.5 -56t47.5 -153q0 -78 -35 -122q28 -35 64 -54t93 -19zM580 25.5q77 17.5 111 59.5t34 118
q0 94 -45.5 147.5t-141.5 53.5q-115 0 -202 -107t-143 -289h172q138 0 215 17.5z" />
    <glyph glyph-name="uniFEC3" unicode="&#x637;" horiz-adv-x="829" arabic-form="initial" 
d="M703.5 356q47.5 -56 47.5 -153q0 -79 -34.5 -122.5t-113.5 -62t-220 -18.5h-383l-5 4l6 4h203q20 66 40 113v610l8 1v-593q56 128 133 200.5t171 72.5q100 0 147.5 -56zM598 25.5q77 17.5 111 59.5t34 118q0 94 -45.5 147.5t-141.5 53.5q-114 0 -201 -107t-144 -289h172
q138 0 215 17.5z" />
    <glyph glyph-name="uniFEC4" unicode="&#x637;" horiz-adv-x="872" arabic-form="medial" 
d="M878 4l-6 -4q-58 0 -94.5 19.5t-65.5 55.5q-37 -41 -115 -58t-214 -17h-383l-5 4l6 4h203q20 66 40 113v610l8 1v-593q56 128 133 200.5t171 72.5q100 0 147.5 -56t47.5 -153q0 -78 -35 -122q28 -35 64 -54t93 -19zM598 25.5q77 17.5 111 59.5t34 118q0 94 -45.5 147.5
t-141.5 53.5q-114 0 -201 -107t-144 -289h172q138 0 215 17.5z" />
    <glyph glyph-name="uniFEC6" unicode="&#x638;" horiz-adv-x="854" arabic-form="final" 
d="M859 4l-5 -4q-58 0 -94.5 19.5t-66.5 55.5q-36 -41 -113.5 -58t-214.5 -17h-317l1 8h137q20 66 40 113v610l8 1v-593q56 128 132.5 200.5t171.5 72.5q100 0 147.5 -56t47.5 -153q0 -78 -35 -122q28 -35 64 -54t93 -19zM580 25.5q77 17.5 111 59.5t34 118
q0 94 -45.5 147.5t-141.5 53.5q-115 0 -202 -107t-143 -289h172q138 0 215 17.5zM478 488q0 9 9 9t9 -9t-9 -9t-9 9z" />
    <glyph glyph-name="uniFEC7" unicode="&#x638;" horiz-adv-x="828" arabic-form="initial" 
d="M703.5 356q47.5 -56 47.5 -153q0 -79 -34.5 -122.5t-113.5 -62t-220 -18.5h-383l-5 4l6 4h203q20 66 40 113v610l8 1v-593q56 128 133 200.5t171 72.5q100 0 147.5 -56zM598 25.5q77 17.5 111 59.5t34 118q0 94 -45.5 147.5t-141.5 53.5q-114 0 -201 -107t-144 -289h172
q138 0 215 17.5zM496 488q0 9 9 9t9 -9t-9 -9t-9 9z" />
    <glyph glyph-name="uniFEC8" unicode="&#x638;" horiz-adv-x="872" arabic-form="medial" 
d="M878 4l-6 -4q-58 0 -94.5 19.5t-65.5 55.5q-37 -41 -115 -58t-214 -17h-383l-5 4l6 4h203q20 66 40 113v610l8 1v-593q56 128 133 200.5t171 72.5q100 0 147.5 -56t47.5 -153q0 -78 -35 -122q28 -35 64 -54t93 -19zM598 25.5q77 17.5 111 59.5t34 118q0 94 -45.5 147.5
t-141.5 53.5q-114 0 -201 -107t-144 -289h172q138 0 215 17.5zM496 488q0 9 9 9t9 -9t-9 -9t-9 9z" />
    <glyph glyph-name="uniFECA" unicode="&#x639;" horiz-adv-x="547" arabic-form="final" 
d="M78 -125q0 -58 32.5 -105.5t94 -75.5t143.5 -28q58 0 107 12t85 31l3 -7q-36 -20 -86 -32t-110 -12q-84 0 -147 29.5t-96.5 78.5t-33.5 108q0 85 52 146t145 98l-49 47q-80 82 -160 145l1 8q117 50 226 50q168 0 168 -101q0 -44 -41 -79.5t-131 -71.5l21 -18
q55 -46 108 -68t119 -22h19l4 -4l-5 -4h-19q-66 0 -122.5 23t-110.5 70l-23 20q-194 -79 -194 -238zM285 360q-104 0 -219 -47q45 -35 77 -64.5t80 -76.5l52 -51q89 36 129.5 70t40.5 76q0 93 -160 93z" />
    <glyph glyph-name="uniFECB" unicode="&#x639;" horiz-adv-x="516" arabic-form="initial" 
d="M487 51q-132 -31 -213.5 -41t-214.5 -10h-59l-5 4l6 4h56q105 0 181 6q-85 47 -126 97.5t-41 116.5q0 67 45 113t130 46q32 0 67 -9.5t65 -27.5l-3 -7q-29 17 -63.5 26.5t-65.5 9.5q-82 0 -125 -43.5t-43 -107.5q0 -65 42 -114.5t130 -98.5q53 6 106 16t130 28z" />
    <glyph glyph-name="uniFECC" unicode="&#x639;" horiz-adv-x="538" arabic-form="medial" 
d="M543 4l-5 -4h-16q-118 0 -224 88q-70 -40 -151 -64t-132 -24h-15l-5 4l6 4h12q51 0 131 23.5t149 61.5q-28 23 -78 73q-45 44 -80 76t-82 68v8q55 23 108 36.5t116 13.5q83 0 126.5 -26t43.5 -74q0 -49 -38.5 -94t-102.5 -82q50 -41 102.5 -62.5t114.5 -21.5h16z
M137 249.5q32 -28.5 82 -76.5q46 -46 81 -76q64 37 102 80.5t38 90.5q0 45 -41.5 68.5t-121.5 23.5q-106 0 -217 -47q45 -35 77 -63.5z" />
    <glyph glyph-name="uniFECE" unicode="&#x63a;" horiz-adv-x="547" arabic-form="final" 
d="M78 -125q0 -58 32.5 -105.5t94 -75.5t143.5 -28q58 0 107 12t85 31l3 -7q-36 -20 -86 -32t-110 -12q-84 0 -147 29.5t-96.5 78.5t-33.5 108q0 85 52 146t145 98l-49 47q-80 82 -160 145l1 8q117 50 226 50q168 0 168 -101q0 -44 -41 -79.5t-131 -71.5l21 -18
q55 -46 108 -68t119 -22h19l4 -4l-5 -4h-19q-66 0 -122.5 23t-110.5 70l-23 20q-194 -79 -194 -238zM285 360q-104 0 -219 -47q45 -35 77 -64.5t80 -76.5l52 -51q89 36 129.5 70t40.5 76q0 93 -160 93zM267 457q0 9 9 9t9 -9t-9 -9t-9 9z" />
    <glyph glyph-name="uniFECF" unicode="&#x63a;" horiz-adv-x="516" arabic-form="initial" 
d="M487 51q-132 -31 -213.5 -41t-214.5 -10h-59l-5 4l6 4h56q105 0 181 6q-85 47 -126 97.5t-41 116.5q0 67 45 113t130 46q32 0 67 -9.5t65 -27.5l-3 -7q-29 17 -63.5 26.5t-65.5 9.5q-82 0 -125 -43.5t-43 -107.5q0 -65 42 -114.5t130 -98.5q53 6 106 16t130 28zM237 468
q0 9 9 9t9 -9t-9 -9t-9 9z" />
    <glyph glyph-name="uniFED0" unicode="&#x63a;" horiz-adv-x="538" arabic-form="medial" 
d="M543 4l-5 -4h-16q-118 0 -224 88q-70 -40 -151 -64t-132 -24h-15l-5 4l6 4h12q51 0 131 23.5t149 61.5q-28 23 -78 73q-45 44 -80 76t-82 68v8q55 23 108 36.5t116 13.5q83 0 126.5 -26t43.5 -74q0 -49 -38.5 -94t-102.5 -82q50 -41 102.5 -62.5t114.5 -21.5h16z
M137 249.5q32 -28.5 82 -76.5q46 -46 81 -76q64 37 102 80.5t38 90.5q0 45 -41.5 68.5t-121.5 23.5q-106 0 -217 -47q45 -35 77 -63.5zM268 450q0 9 9 9t9 -9t-9 -9t-9 9z" />
    <glyph glyph-name="uniFED2" unicode="&#x641;" horiz-adv-x="957" arabic-form="final" 
d="M962 4l-5 -4h-17q-57 0 -113.5 13.5t-105.5 38.5q-141 -64 -390 -64q-263 0 -263 168q0 72 35 145l6 -3q-34 -72 -34 -142q0 -160 257 -160q241 0 381 60q-65 36 -104 89.5t-39 116.5q0 45 20 85.5t55 64.5t77 24q49 0 85.5 -24t56 -64t19.5 -86q0 -59 -37 -113t-117 -93
q47 -23 101.5 -35.5t109.5 -12.5h18zM616.5 146.5q38.5 -51.5 104.5 -86.5q81 37 117.5 90t36.5 112q0 44 -18 82t-53 61t-82 23q-40 0 -73 -23t-52 -61.5t-19 -81.5q0 -64 38.5 -115.5zM713 517q0 9 9 9t9 -9t-9 -9t-9 9z" />
    <glyph glyph-name="uniFED3" unicode="&#x641;" horiz-adv-x="447" arabic-form="initial" 
d="M325.5 453.5q43.5 -67.5 43.5 -202.5q0 -92 -35.5 -146.5t-115.5 -79.5t-218 -25l-5 4l6 4q133 0 211 23t113 73.5t37 137.5q-27 -19 -68 -31.5t-77 -12.5q-75 0 -120.5 43t-45.5 114q0 41 18.5 79.5t53.5 62.5t81 24q78 0 121.5 -67.5zM294 218q41 12 68 31v2
q0 132 -41.5 197t-116.5 65q-44 0 -77 -23t-50.5 -59.5t-17.5 -75.5q0 -68 43.5 -108.5t116.5 -40.5q34 0 75 12zM195 610q0 9 9 9t9 -9t-9 -9t-9 9z" />
    <glyph glyph-name="uniFED4" unicode="&#x641;" horiz-adv-x="470" arabic-form="medial" 
d="M475 4l-5 -4h-16q-55 0 -109.5 12t-102.5 35q-97 -47 -229 -47h-13l-5 4l6 4h12q126 0 221 44q-69 34 -109.5 87t-40.5 117q0 44 20 83t54.5 62.5t76.5 23.5q49 0 85.5 -24.5t56 -64t19.5 -84.5q0 -57 -38 -110.5t-108 -89.5q93 -44 204 -44h17zM132 140.5
q41 -51.5 110 -85.5q70 34 108 87t38 110q0 43 -18 81t-52.5 61t-81.5 23q-41 0 -74 -22.5t-52 -59.5t-19 -79q0 -64 41 -115.5zM226 515q0 9 9 9t9 -9t-9 -9t-9 9z" />
    <glyph glyph-name="uniFED6" unicode="&#x642;" horiz-adv-x="755" arabic-form="final" 
d="M755 0h-117q-13 -108 -78.5 -171.5t-206.5 -63.5q-149 0 -217 51.5t-68 153.5q0 83 36 168l6 -2q-18 -43 -26.5 -82.5t-8.5 -83.5q0 -98 66.5 -147.5t212.5 -49.5q138 0 201 61t76 166h-97q-101 -1 -155.5 43t-54.5 117q0 44 18.5 82.5t53 61.5t80.5 23q77 0 121.5 -68
t44.5 -192q0 -30 -3 -59h116l5 -4zM631 8q3 29 3 59q0 121 -42 186.5t-116 65.5q-44 0 -77 -22t-50.5 -58.5t-17.5 -78.5q0 -70 52.5 -111.5t152.5 -40.5h92h3zM410 448.5q-3 2.5 -3 6.5t3 6.5t7 2.5t6.5 -2.5t2.5 -6.5t-2.5 -6.5t-6.5 -2.5t-7 2.5zM530.5 448.5
q-2.5 2.5 -2.5 6.5t2.5 6.5t6.5 2.5t7 -2.5t3 -6.5t-3 -6.5t-7 -2.5t-6.5 2.5z" />
    <glyph glyph-name="uniFED7" unicode="&#x642;" horiz-adv-x="447" arabic-form="initial" 
d="M325.5 453.5q43.5 -67.5 43.5 -202.5q0 -92 -35.5 -146.5t-115.5 -79.5t-218 -25l-5 4l6 4q133 0 211 23t113 73.5t37 137.5q-27 -19 -68 -31.5t-77 -12.5q-75 0 -120.5 43t-45.5 114q0 41 18.5 79.5t53.5 62.5t81 24q78 0 121.5 -67.5zM294 218q41 12 68 31v2
q0 132 -41.5 197t-116.5 65q-44 0 -77 -23t-50.5 -59.5t-17.5 -75.5q0 -68 43.5 -108.5t116.5 -40.5q34 0 75 12zM137 641.5q-3 2.5 -3 6.5t3 6.5t7 2.5t6.5 -2.5t2.5 -6.5t-2.5 -6.5t-6.5 -2.5t-7 2.5zM257.5 641.5q-2.5 2.5 -2.5 6.5t2.5 6.5t6.5 2.5t7 -2.5t3 -6.5
t-3 -6.5t-7 -2.5t-6.5 2.5z" />
    <glyph glyph-name="uniFED8" unicode="&#x642;" horiz-adv-x="470" arabic-form="medial" 
d="M475 4l-5 -4h-16q-55 0 -109.5 12t-102.5 35q-97 -47 -229 -47h-13l-5 4l6 4h12q126 0 221 44q-69 34 -109.5 87t-40.5 117q0 44 20 83t54.5 62.5t76.5 23.5q49 0 85.5 -24.5t56 -64t19.5 -84.5q0 -57 -38 -110.5t-108 -89.5q93 -44 204 -44h17zM132 140.5
q41 -51.5 110 -85.5q70 34 108 87t38 110q0 43 -18 81t-52.5 61t-81.5 23q-41 0 -74 -22.5t-52 -59.5t-19 -79q0 -64 41 -115.5zM168 545.5q-3 2.5 -3 6.5t3 6.5t7 2.5t6.5 -2.5t2.5 -6.5t-2.5 -6.5t-6.5 -2.5t-7 2.5zM288.5 545.5q-2.5 2.5 -2.5 6.5t2.5 6.5t6.5 2.5
t7 -2.5t3 -6.5t-3 -6.5t-7 -2.5t-6.5 2.5z" />
    <glyph glyph-name="uniFEDA" unicode="&#x643;" horiz-adv-x="851" arabic-form="final" 
d="M857 4l-6 -4q-47 0 -77 18t-44 39.5t-17 36.5q-61 -51 -158.5 -78.5t-223.5 -27.5q-263 0 -263 168q0 72 35 145l6 -3q-34 -72 -34 -142q0 -160 257 -160q124 0 221.5 28t157.5 78v629h7v-623q0 -14 12.5 -37.5t42.5 -43t79 -19.5zM431 311.5q44 17.5 44 50.5
q0 25 -31.5 44.5t-102.5 35.5l2 7l147 83v-7l-140 -79q70 -17 100.5 -37t30.5 -47q0 -37 -46 -56t-127 -19l-2 7q81 0 125 17.5z" />
    <glyph glyph-name="uniFEDB" unicode="&#x643;" horiz-adv-x="455" arabic-form="initial" 
d="M386 730l-371 -270q153 -58 225.5 -121t72.5 -134q0 -103 -88 -154t-225 -51l-5 4l6 4q135 0 220 48.5t85 149.5q0 67 -72.5 129t-226.5 121l1 8l379 275z" />
    <glyph glyph-name="uniFEDC" unicode="&#x643;" horiz-adv-x="540" arabic-form="medial" 
d="M545 4l-5 -4q-53 0 -93.5 22.5t-87.5 75.5t-144 177q19 -35 19 -81q0 -94 -58 -144t-176 -50l-5 4l6 4q114 0 170 48.5t56 138.5q0 64 -36 107l-124 154l1 8l379 275l-1 -9l-372 -270l134 -166l17 -21q102 -126 145.5 -174.5t81 -69.5t88.5 -21z" />
    <glyph glyph-name="uniFEDE" unicode="&#x644;" horiz-adv-x="701" arabic-form="final" 
d="M706 4l-5 -4q-67 0 -101 26t-43 80v-26q0 -130 -63 -192.5t-196 -62.5q-119 0 -174.5 53.5t-55.5 143.5q0 88 34 173l6 -3q-33 -79 -33 -169q0 -87 53.5 -138.5t169.5 -51.5q131 0 191 60.5t60 186.5v651h8v-564q1 -84 32.5 -121.5t111.5 -37.5z" />
    <glyph glyph-name="uniFEDF" unicode="&#x644;" horiz-adv-x="218" arabic-form="initial" 
d="M-5 4l6 4q52 0 81.5 27t29.5 83v613h8v-613q0 -61 -32 -89.5t-88 -28.5z" />
    <glyph glyph-name="uniFEE0" unicode="&#x644;" horiz-adv-x="232" arabic-form="medial" 
d="M237 4l-5 -4q-49 0 -79.5 22.5t-36.5 66.5q-7 -44 -37 -66.5t-79 -22.5l-5 4l6 4q53 0 82 27t29 83v613l8 1v-614q0 -56 29.5 -83t82.5 -27z" />
    <glyph glyph-name="uniFEE2" unicode="&#x645;" horiz-adv-x="680" arabic-form="final" 
d="M685 4l-5 -4q-73 0 -110 29.5t-45 91.5q-8 -61 -41 -97t-85 -36q-44 0 -83.5 18t-90.5 52q-34 22 -55 33t-39 11q-56 0 -56 -108q0 -128 45 -321l-8 -1q-44 186 -44 322q0 117 63 117q14 0 36 -10q41 94 72 145.5t63.5 74t75.5 22.5q66 0 107 -48t42 -130v0
q1 -83 36.5 -120t117.5 -37zM488 40.5q32 44.5 32 117.5q0 82 -39 129.5t-104 47.5q-41 0 -72 -22t-60.5 -72t-70.5 -143q21 -11 53 -33q51 -33 89.5 -51t81.5 -18q58 0 90 44.5z" />
    <glyph glyph-name="uniFEE3" unicode="&#x645;" horiz-adv-x="598" arabic-form="initial" 
d="M481.5 295q39.5 -48 39.5 -134q0 -77 -33.5 -125t-95.5 -48q-51 0 -100 24.5t-134 82.5q-34 -55 -67 -75t-88 -20h-3l-5 4l6 4h4q45 0 73.5 13.5t52.5 46.5t60 101t62 104t55.5 53t71.5 17q62 0 101.5 -48zM482 42q31 46 31 119q0 83 -37 128.5t-96 45.5q-41 0 -70 -16.5
t-54 -52t-60 -103.5q-23 -44 -34 -61q84 -57 132.5 -81.5t96.5 -24.5q60 0 91 46z" />
    <glyph glyph-name="uniFEE4" unicode="&#x645;" horiz-adv-x="673" arabic-form="medial" 
d="M678 4l-5 -4q-74 0 -110.5 29.5t-44.5 92.5q-8 -61 -40 -97.5t-86 -36.5q-51 0 -100 24.5t-134 82.5q-34 -55 -67 -75t-88 -20h-3l-5 4l6 4h4q45 0 73.5 13.5t52.5 46.5t60 101t62 104t55.5 53t71.5 17q61 0 100.5 -46.5t40.5 -131.5v0q0 -83 35.5 -120t117.5 -37z
M482 42q31 46 31 119q0 83 -37 128.5t-96 45.5q-41 0 -70 -16.5t-54 -52t-60 -103.5q-23 -44 -34 -61q84 -57 132.5 -81.5t96.5 -24.5q60 0 91 46z" />
    <glyph glyph-name="uniFEE6" unicode="&#x646;" horiz-adv-x="689" arabic-form="final" 
d="M694 4l-5 -4q-48 0 -76 19t-37 48v-8q0 -153 -64 -223.5t-214 -70.5q-119 0 -174.5 53.5t-55.5 143.5q0 89 34 172l6 -2q-33 -81 -33 -170q0 -87 53.5 -138t169.5 -51q100 0 159 31t85.5 93t26.5 161q0 40 -12 87t-38 126l8 4q17 -55 29 -98.5t19 -85.5q7 -37 34 -60
t81 -23zM306 318q0 9 9 9t9 -9t-9 -9t-9 9z" />
    <glyph glyph-name="uniFEE7" unicode="&#x646;" horiz-adv-x="256" arabic-form="initial" 
d="M133 41.5q37 33.5 37 107.5q0 108 -39 219l8 3q39 -111 39 -222q0 -78 -39.5 -113.5t-138.5 -35.5l-5 4l6 4q95 0 132 33.5zM118 475q0 9 9 9t9 -9t-9 -9t-9 9z" />
    <glyph glyph-name="uniFEE8" unicode="&#x646;" horiz-adv-x="295" arabic-form="medial" 
d="M300 4l-5 -4q-58 0 -99 31t-49 79q-6 -49 -45 -79.5t-102 -30.5l-5 4l6 4q66 0 104 34.5t38 93.5v169h8v-169q0 -57 41.5 -92.5t102.5 -35.5zM138 397q0 9 9 9t9 -9t-9 -9t-9 9z" />
    <glyph glyph-name="uniFEEA" unicode="&#x647;" horiz-adv-x="477" arabic-form="final" 
d="M482 4l-5 -4h-5q-128 0 -132 141q-20 -44 -65 -71.5t-103 -27.5q-68 0 -105 34.5t-37 86.5q0 83 77.5 132.5t231.5 56.5v127l8 1v-325q0 -75 31.5 -111t94.5 -36h4zM274.5 78.5q44.5 28.5 64.5 72.5v193q-150 -7 -226 -54t-76 -126q0 -49 35 -81.5t100 -32.5
q58 0 102.5 28.5z" />
    <glyph glyph-name="uniFEEB" unicode="&#x647;" horiz-adv-x="631" arabic-form="initial" 
d="M432 301q122 -96 122 -168q0 -43 -25 -76t-62.5 -51t-73.5 -18q-39 0 -84 14t-87 39q-89 -41 -210 -41h-12l-5 4l6 4h10q119 0 203 38q-60 38 -97 90.5t-37 111.5q0 45 19.5 82.5t54 59t76.5 21.5q13 0 33 -4q-77 45 -140 76l4 7q183 -93 305 -189zM125 138
q38 -52 98 -88q69 33 105 85t36 109q0 43 -17 80t-47.5 58.5t-69.5 21.5q-40 0 -73 -21t-51.5 -56.5t-18.5 -78.5q0 -58 38 -110zM462.5 12.5q35.5 16.5 59.5 47.5t24 72q0 47 -59 108t-161 127q21 -23 33 -55t12 -67q0 -58 -36 -111.5t-105 -88.5q40 -23 83 -36t80 -13
q34 0 69.5 16.5z" />
    <glyph glyph-name="uniFEEC" unicode="&#x647;" horiz-adv-x="469" arabic-form="medial" 
d="M469 0h-213q63 -12 103.5 -46.5t40.5 -93.5q0 -42 -28 -72.5t-82 -30.5q-57 0 -100 31.5t-66 87t-23 124.5h-101l-5 4l6 4h100q0 84 28 156t75 114.5t101 42.5q43 0 71 -28t28 -84q0 -40 -20.5 -83t-57 -75t-82.5 -43h226l4 -4zM208 272q-45 -41 -72.5 -111t-27.5 -153
h91q56 0 101 31t70.5 77.5t25.5 91.5q0 53 -26 79t-66 26q-51 0 -96 -41zM336.5 -36q-56.5 36 -134.5 36h-94q1 -68 23 -121.5t62.5 -83.5t95.5 -30q52 0 78 28t26 67q0 68 -56.5 104z" />
    <glyph glyph-name="uniFEEE" unicode="&#x648;" horiz-adv-x="519" arabic-form="final" 
d="M519 0h-118q-21 -94 -100 -151t-231 -86l-2 8q149 28 227 83.5t98 145.5h-91q-105 0 -157.5 42.5t-52.5 116.5q0 43 20 82t54.5 62.5t77.5 23.5q74 0 120 -63.5t46 -179.5q0 -42 -7 -76h116l5 -4zM395 8q7 32 7 76q0 113 -43.5 174t-114.5 61q-41 0 -74 -22.5t-52 -59
t-19 -77.5q0 -71 50.5 -111.5t153.5 -40.5h89h3z" />
    <glyph glyph-name="uniFEF0" unicode="&#x649;" horiz-adv-x="708" arabic-form="final" 
d="M708 0q-37 0 -64.5 7.5t-68.5 25.5q19 -11 27 -23.5t8 -30.5q0 -38 -34.5 -75.5t-105.5 -62.5t-172 -25q-119 0 -174.5 53.5t-55.5 143.5q0 89 34 172l6 -2q-33 -79 -33 -169q0 -87 53.5 -138.5t169.5 -51.5q99 0 168 24.5t103 60.5t34 71q0 20 -13 34.5t-53 33.5
t-124 48l3 7q61 -21 142 -56q51 -22 80.5 -30.5t69.5 -8.5l5 -4z" />
    <glyph glyph-name="uniFEF2" unicode="&#x64a;" horiz-adv-x="708" arabic-form="final" 
d="M708 0q-37 0 -64.5 7.5t-68.5 25.5q19 -11 27 -23.5t8 -30.5q0 -38 -34.5 -75.5t-105.5 -62.5t-172 -25q-119 0 -174.5 53.5t-55.5 143.5q0 89 34 172l6 -2q-33 -79 -33 -169q0 -87 53.5 -138.5t169.5 -51.5q99 0 168 24.5t103 60.5t34 71q0 20 -13 34.5t-53 33.5
t-124 48l3 7q61 -21 142 -56q51 -22 80.5 -30.5t69.5 -8.5l5 -4zM238 -330.5q-3 2.5 -3 6.5t3 6.5t7 2.5t6.5 -2.5t2.5 -6.5t-2.5 -6.5t-6.5 -2.5t-7 2.5zM358.5 -330.5q-2.5 2.5 -2.5 6.5t2.5 6.5t6.5 2.5t7 -2.5t3 -6.5t-3 -6.5t-7 -2.5t-6.5 2.5z" />
    <glyph glyph-name="uniFEF3" unicode="&#x64a;" horiz-adv-x="256" arabic-form="initial" 
d="M133 41.5q37 33.5 37 107.5q0 108 -39 219l8 3q39 -111 39 -222q0 -78 -39.5 -113.5t-138.5 -35.5l-5 4l6 4q95 0 132 33.5zM50 -150.5q-3 2.5 -3 6.5t3 6.5t7 2.5t6.5 -2.5t2.5 -6.5t-2.5 -6.5t-6.5 -2.5t-7 2.5zM170.5 -150.5q-2.5 2.5 -2.5 6.5t2.5 6.5t6.5 2.5
t7 -2.5t3 -6.5t-3 -6.5t-7 -2.5t-6.5 2.5z" />
    <glyph glyph-name="uniFEF4" unicode="&#x64a;" horiz-adv-x="295" arabic-form="medial" 
d="M300 4l-5 -4q-58 0 -99 31t-49 79q-6 -49 -45 -79.5t-102 -30.5l-5 4l6 4q66 0 104 34.5t38 93.5v169h8v-169q0 -57 41.5 -92.5t102.5 -35.5zM79 -150.5q-3 2.5 -3 6.5t3 6.5t7 2.5t6.5 -2.5t2.5 -6.5t-2.5 -6.5t-6.5 -2.5t-7 2.5zM199.5 -150.5q-2.5 2.5 -2.5 6.5
t2.5 6.5t6.5 2.5t7 -2.5t3 -6.5t-3 -6.5t-7 -2.5t-6.5 2.5z" />
    <glyph glyph-name=".notdef" horiz-adv-x="666" 
d="M543 -350h-420v1400h420v-1400zM136 1037v-1374h394v1374h-394zM409.5 419q25.5 -32 25.5 -83q0 -53 -22.5 -82t-72.5 -36v-45q0 -11 -7.5 -17.5t-17.5 -6.5t-17.5 6.5t-7.5 17.5v84q53 3 72 19.5t19 57.5q0 33 -13 51t-48 18q-29 0 -52 -11q-8 -3 -13 -3
q-11 0 -17.5 6.5t-6.5 16.5q0 19 29.5 29t63.5 10q60 0 85.5 -32zM340 110q10 -10 10 -25q0 -16 -10 -26.5t-25 -10.5t-25 10.5t-10 26.5q0 15 10 25t25 10t25 -10z" />
    <glyph glyph-name=".null" 
 />
    <glyph glyph-name="nonmarkingreturn" unicode="&#xd;" horiz-adv-x="306" 
 />
    <glyph glyph-name="space" unicode=" " horiz-adv-x="306" 
 />
    <glyph glyph-name="exclam" unicode="!" horiz-adv-x="235" 
d="M121 192h-7v488h7v-488zM126.5 14.5q3.5 -3.5 3.5 -8.5t-3.5 -8t-8.5 -3t-8.5 3t-3.5 8t3.5 8.5t8.5 3.5t8.5 -3.5z" />
    <glyph glyph-name="quotedbl" unicode="&#x22;" horiz-adv-x="319" 
d="M88 680h8l-1 -235h-6zM223 680h8l-1 -235h-6z" />
    <glyph glyph-name="numbersign" unicode="#" horiz-adv-x="482" 
d="M381 464l-32 -247h81v-7h-82l-28 -210h-8l28 210h-227l-28 -210h-8l28 210h-90v7h91l33 247h-87v7h88l25 191h8l-25 -191h226l25 191h8l-25 -191h85v-7h-86zM341 217l32 247h-226l-33 -247h227z" />
    <glyph glyph-name="dollar" unicode="$" horiz-adv-x="527" 
d="M397.5 43q-52.5 -51 -138.5 -52v-136h-7v136q-62 0 -106.5 19.5t-83.5 56.5l5 6q39 -37 82 -56t104 -19q56 0 99 22.5t66.5 62t23.5 91.5q0 50 -18.5 82.5t-57 54.5t-104.5 43q-69 22 -106.5 43.5t-54 50t-16.5 72.5q0 65 47 107t124 42v138h7v-138q54 -1 91.5 -17
t72.5 -46l-5 -6q-35 31 -73.5 46.5t-92.5 15.5q-74 0 -118.5 -40.5t-44.5 -101.5q0 -42 15.5 -69.5t52 -47.5t104.5 -42q67 -21 106.5 -44t59 -56.5t19.5 -86.5q0 -80 -52.5 -131z" />
    <glyph glyph-name="percent" unicode="%" horiz-adv-x="750" 
d="M609 688l-457 -699l-7 3l458 700zM288 631q34 -40 34 -111t-33.5 -113t-93.5 -42q-59 0 -93 41.5t-34 110.5q0 72 33.5 113t93.5 41q59 0 93 -40zM107 625q-31 -39 -31 -108q0 -66 31.5 -105.5t87.5 -39.5q57 0 88 40.5t31 107.5t-31.5 105.5t-87.5 38.5q-57 0 -88 -39z
M648 257q34 -40 34 -111t-34 -113t-94 -42q-59 0 -93 41.5t-34 110.5q0 72 33.5 113t93.5 41t94 -40zM466 251q-31 -39 -31 -108q0 -66 31.5 -105.5t87.5 -39.5q57 0 88 40.5t31 107.5q0 68 -31 106t-88 38t-88 -39z" />
    <glyph glyph-name="ampersand" unicode="&#x26;" horiz-adv-x="714" 
d="M407 651q39 -40 39 -102q0 -41 -19.5 -72t-54 -56.5t-95.5 -59.5l252 -238q26 51 42.5 104t29.5 122l8 -2q-14 -70 -31 -124t-44 -105l124 -116l-7 -5l-121 115q-77 -121 -223 -121q-56 0 -99.5 22t-68 60.5t-24.5 86.5q0 68 36.5 114t113.5 88q-61 58 -83.5 95t-22.5 91
q0 62 41.5 102.5t104.5 40.5t102 -40zM206 645.5q-39 -38.5 -39 -97.5q0 -36 9 -61.5t30.5 -52.5t65.5 -68q60 34 94 59t53 55t19 69q0 60 -37 97.5t-96 37.5q-60 0 -99 -38.5zM158.5 271q-35.5 -46 -35.5 -111q0 -46 23.5 -83t65 -58t95.5 -21q73 0 126 30t92 89l-254 241
q-77 -41 -112.5 -87z" />
    <glyph glyph-name="quotesingle" unicode="'" horiz-adv-x="184" 
d="M88 680h8l-1 -235h-6z" />
    <glyph glyph-name="parenleft" unicode="(" horiz-adv-x="328" 
d="M251 823q-57 -84 -90 -144.5t-54.5 -141.5t-21.5 -187t21.5 -187t54.5 -141.5t90 -144.5l-6 -3q-58 83 -91.5 144.5t-55 143t-21.5 188.5t21.5 188.5t55 143t91.5 144.5z" />
    <glyph glyph-name="parenright" unicode=")" horiz-adv-x="328" 
d="M174.5 681.5q33.5 -61.5 55 -143t21.5 -188.5t-21.5 -188.5t-55 -143t-91.5 -144.5l-6 3q57 84 90 144.5t54.5 141.5t21.5 187t-21.5 187t-54.5 141.5t-90 144.5l6 3q58 -83 91.5 -144.5z" />
    <glyph glyph-name="asterisk" unicode="*" horiz-adv-x="429" 
d="M220 563l94 -129l-7 -5l-92 130l-94 -130l-7 5l95 128l-152 49l3 7l151 -50v161h8l-1 -160l152 49l2 -7z" />
    <glyph glyph-name="plus" unicode="+" horiz-adv-x="480" 
d="M244 335h153v-8h-153v-156h-8v156h-153v8h153v155h8v-155z" />
    <glyph glyph-name="comma" unicode="," horiz-adv-x="133" 
d="M78 6q0 -5 -4 -15l-38 -106h-7l34 110q-8 3 -8 11q0 12 11 12q12 0 12 -12z" />
    <glyph glyph-name="hyphen" unicode="-" horiz-adv-x="400" 
d="M83 316h234v-8h-234v8z" />
    <glyph glyph-name="period" unicode="." horiz-adv-x="133" 
d="M78 6q0 -11 -12 -11q-5 0 -8 3t-3 8q0 12 11 12q12 0 12 -12z" />
    <glyph glyph-name="slash" unicode="/" horiz-adv-x="520" 
d="M380 793l-232 -886l-8 3l232 885z" />
    <glyph glyph-name="zero" unicode="0" horiz-adv-x="538" 
d="M459 331q0 -340 -190 -340t-190 340t190 340t190 -340zM87 331q0 -333 182 -333q181 0 181 333q0 166 -44.5 249t-136.5 83q-182 0 -182 -332z" />
    <glyph glyph-name="one" unicode="1" horiz-adv-x="387" 
d="M250 0h-8v651l-180 -115l-4 7l185 117h7v-660z" />
    <glyph glyph-name="two" unicode="2" horiz-adv-x="463" 
d="M309 649q38 -22 58 -59.5t20 -82.5q0 -64 -25 -118.5t-79 -121.5t-186 -216l-37 -43h337l-2 -8h-346v8l21 23q143 162 200 232t83 125t26 118q0 68 -43 112.5t-116 44.5q-52 0 -90.5 -21t-73.5 -64l-7 4q38 45 77.5 67t93.5 22q51 0 89 -22z" />
    <glyph glyph-name="three" unicode="3" horiz-adv-x="471" 
d="M334.5 627q43.5 -44 43.5 -114q0 -73 -41 -113.5t-100 -46.5q70 -3 115 -47.5t45 -126.5q0 -84 -51 -136t-135 -52q-58 0 -99 19t-79 62l6 5q37 -43 76.5 -61t95.5 -18q80 0 128.5 50.5t48.5 130.5q0 83 -47 126.5t-129 43.5h-35l1 7h36q41 0 76.5 17.5t57.5 52.5t22 86
q0 68 -41.5 109.5t-112.5 41.5q-91 0 -159 -69l-5 5q69 72 164 72q75 0 118.5 -44z" />
    <glyph glyph-name="four" unicode="4" horiz-adv-x="496" 
d="M456 193h-94v-193h-8v193h-300v8l208 470l7 -3l-207 -467h292l1 217h7v-217h94v-8z" />
    <glyph glyph-name="five" unicode="5" horiz-adv-x="471" 
d="M382 653h-284v-287q57 45 130 45q83 0 129.5 -52.5t46.5 -145.5q0 -100 -50 -161t-141 -61q-102 0 -165 73l6 5q29 -34 69.5 -52.5t89.5 -18.5q87 0 135 59.5t48 155.5q0 90 -44.5 140t-123.5 50q-40 0 -69.5 -11t-61.5 -34h-7v302h293z" />
    <glyph glyph-name="six" unicode="6" horiz-adv-x="507" 
d="M398 372.5q45 -51.5 45 -150.5q0 -109 -45 -170t-127 -61q-98 0 -145 82.5t-47 213.5q0 113 25.5 200t75.5 135.5t121 48.5q58 0 102 -36l-5 -6q-40 34 -97 34q-68 0 -116 -47.5t-72.5 -130.5t-25.5 -190q77 129 190 129q76 0 121 -51.5zM392.5 58q42.5 60 42.5 164
q0 96 -43 145.5t-116 49.5q-110 0 -189 -133q1 -128 46 -207t138 -79q79 0 121.5 60z" />
    <glyph glyph-name="seven" unicode="7" horiz-adv-x="434" 
d="M386 654l-281 -659l-8 3l281 655h-335v7h343v-6z" />
    <glyph glyph-name="eight" unicode="8" horiz-adv-x="524" 
d="M421 268q35 -38 35 -103q0 -78 -52.5 -126t-139.5 -48q-91 0 -143.5 48t-52.5 130q0 69 39 116t117 79q-69 27 -97.5 62t-28.5 88q0 47 22.5 82.5t60 55t81.5 19.5q70 0 118 -42t48 -116q0 -57 -29.5 -96.5t-98.5 -75.5q86 -35 121 -73zM137 426.5q31 -33.5 103 -61.5
l53 -21q68 36 97.5 73.5t29.5 94.5q0 71 -45 111t-113 40q-42 0 -78 -18.5t-57 -52.5t-21 -79q0 -53 31 -86.5zM397.5 44.5q50.5 45.5 50.5 120.5q0 47 -18.5 78t-55 53.5t-101.5 48.5l-40 16q-81 -34 -119 -79.5t-38 -112.5q0 -78 50.5 -124t137.5 -46q83 0 133.5 45.5z
" />
    <glyph glyph-name="nine" unicode="9" horiz-adv-x="502" 
d="M384.5 599.5q43.5 -71.5 43.5 -205.5q0 -119 -35 -198t-101 -127.5t-167 -80.5l-2 7q98 31 162 77t98.5 121t36.5 187q-69 -121 -186 -121q-49 0 -87.5 24.5t-60.5 70t-22 106.5q0 64 23.5 111.5t65 73.5t93.5 26q95 0 138.5 -71.5zM420 392q-1 134 -42 202.5t-132 68.5
q-50 0 -89.5 -24.5t-62 -70.5t-22.5 -109q0 -58 21 -101.5t58 -67t84 -23.5q115 0 185 125z" />
    <glyph glyph-name="colon" unicode=":" horiz-adv-x="133" 
d="M78 6q0 -11 -12 -11q-5 0 -8 3t-3 8q0 12 11 12q12 0 12 -12zM78 431q0 -11 -12 -11q-5 0 -8 3t-3 8q0 12 11 12q12 0 12 -12z" />
    <glyph glyph-name="semicolon" unicode=";" horiz-adv-x="133" 
d="M78 6q0 -5 -4 -15l-38 -106h-7l34 110q-8 3 -8 11q0 12 11 12q12 0 12 -12zM78 431q0 -11 -12 -11q-5 0 -8 3t-3 8q0 12 11 12q12 0 12 -12z" />
    <glyph glyph-name="less" unicode="&#x3c;" horiz-adv-x="496" 
d="M409 485l-313 -152l313 -156l-4 -7l-318 160v6l318 156z" />
    <glyph glyph-name="equal" unicode="=" horiz-adv-x="480" 
d="M83 411h314v-8h-314v8zM83 259h314v-8h-314v8z" />
    <glyph glyph-name="greater" unicode="&#x3e;" horiz-adv-x="496" 
d="M409 336v-6l-319 -160l-3 7l313 156l-313 152l3 7z" />
    <glyph glyph-name="question" unicode="?" horiz-adv-x="446" 
d="M339 652.5q41 -37.5 41 -96.5q0 -33 -12 -57t-29 -40t-48 -38t-50.5 -39.5t-32.5 -45t-13 -65.5v-79h-7v80q0 40 13.5 68t33 45.5t50.5 39.5q30 22 47 37t28.5 38.5t11.5 55.5q0 56 -38.5 91.5t-99.5 35.5q-50 0 -89 -19.5t-73 -59.5l-6 5q35 41 75.5 61t92.5 20
q64 0 105 -37.5zM200.5 14.5q3.5 -3.5 3.5 -8.5t-3.5 -8t-8.5 -3t-8.5 3t-3.5 8t3.5 8.5t8.5 3.5t8.5 -3.5z" />
    <glyph glyph-name="at" unicode="@" horiz-adv-x="1020" 
d="M739.5 638.5q87.5 -52.5 131 -139.5t43.5 -190q0 -158 -46 -226.5t-113 -68.5q-49 0 -80 37t-35 103q-22 -67 -60 -102.5t-90 -35.5q-70 0 -114 55.5t-44 159.5q0 82 26 137t69 81t94 26q66 0 126 -33v-264q0 -75 29 -116t79 -41q65 0 108 66.5t43 221.5q0 102 -43 187
t-128 136.5t-207 51.5q-121 0 -215.5 -60t-146.5 -161t-52 -220q0 -134 53 -231t146.5 -147.5t212.5 -50.5q47 0 94.5 8.5t85.5 22.5l2 -7q-39 -15 -86.5 -23.5t-95.5 -8.5q-121 0 -216 51.5t-149.5 150.5t-54.5 235q0 121 53 223.5t149.5 163.5t219.5 61q124 0 211.5 -52.5
zM640 168v2l-1 2v266q-56 29 -118 29q-50 0 -91 -25.5t-65.5 -78.5t-24.5 -132q0 -101 41.5 -154t109.5 -53q52 0 90 38.5t58 107.5z" />
    <glyph glyph-name="A" unicode="A" horiz-adv-x="556" 
d="M441 210h-326l-74 -210h-8l240 680h9l242 -680h-9zM438 218l-161 456l-159 -456h320z" />
    <glyph glyph-name="B" unicode="B" horiz-adv-x="583" 
d="M468.5 310q50.5 -46 50.5 -127q0 -94 -61.5 -138.5t-166.5 -44.5h-163v680h136q106 0 162 -43t56 -124q0 -62 -39 -103t-99 -50q74 -4 124.5 -50zM136 673v-309h177q46 0 82.5 19.5t57 53.5t20.5 76q0 77 -53 118.5t-154 41.5h-130zM451.5 49.5q58.5 41.5 58.5 133.5
q0 81 -53.5 127t-138.5 46h-182v-348h156q101 0 159.5 41.5z" />
    <glyph glyph-name="C" unicode="C" horiz-adv-x="532" 
d="M429.5 675q35.5 -15 67.5 -42l-4 -6q-33 27 -67 41.5t-83 14.5q-75 0 -131.5 -37.5t-88.5 -115t-32 -191.5q0 -109 31.5 -185.5t88 -115.5t130.5 -39q54 0 91 16t69 43l5 -7q-33 -27 -71.5 -43.5t-93.5 -16.5q-77 0 -135 40.5t-90.5 119t-32.5 188.5q0 116 33 194.5
t91.5 117.5t135.5 39q51 0 86.5 -15z" />
    <glyph glyph-name="D" unicode="D" horiz-adv-x="615" 
d="M450 608.5q82 -71.5 82 -260.5q0 -192 -83 -270t-206 -78h-115v680h109q131 0 213 -71.5zM136 673v-665h108q121 0 200.5 76t79.5 264q0 186 -80 255.5t-207 69.5h-101z" />
    <glyph glyph-name="E" unicode="E" horiz-adv-x="495" 
d="M437 673h-301v-309h258v-7h-258v-349h311v-8h-319v680h310z" />
    <glyph glyph-name="F" unicode="F" horiz-adv-x="470" 
d="M128 680h305l-1 -7h-296v-323h256v-8h-256v-342h-8v680z" />
    <glyph glyph-name="G" unicode="G" horiz-adv-x="601" 
d="M429.5 676.5q37.5 -13.5 75.5 -42.5l-5 -6q-36 28 -73 41.5t-82 13.5q-65 0 -123 -37t-94.5 -113.5t-36.5 -187.5q0 -167 70 -256.5t192 -89.5q87 0 162 45v294h-149l-1 8h158v-306q-83 -49 -170 -49q-82 0 -143 40.5t-94 120t-33 193.5q0 113 37.5 191t97 116t127.5 38
q47 0 84.5 -13.5z" />
    <glyph glyph-name="H" unicode="H" horiz-adv-x="656" 
d="M520 357h-384v-357h-8v680h8v-315h384v315h8v-680h-8v357z" />
    <glyph glyph-name="I" unicode="I" horiz-adv-x="264" 
d="M136 0h-8v680h8v-680z" />
    <glyph glyph-name="J" unicode="J" horiz-adv-x="275" 
d="M153 86q0 -50 -9.5 -81t-35.5 -54.5t-77 -44.5l-3 7q48 20 73 42.5t34.5 52.5t9.5 78v594h8v-594z" />
    <glyph glyph-name="K" unicode="K" horiz-adv-x="506" 
d="M136 1h-8v679h8v-679zM150 366l344 -366h-10l-345 366l329 314h10z" />
    <glyph glyph-name="L" unicode="L" horiz-adv-x="448" 
d="M136 8h288l-1 -8h-295v680h8v-672z" />
    <glyph glyph-name="M" unicode="M" horiz-adv-x="758" 
d="M676 0h-8l-41 351l-19 158l-18 162l-207 -586h-8l-208 586q-8 -77 -19 -164q-8 -76 -17 -148l-40 -359h-8l77 680h12l207 -585l206 585h12z" />
    <glyph glyph-name="N" unicode="N" horiz-adv-x="656" 
d="M528 0h-10l-383 671q1 -26 1 -125v-546h-8v680h11l382 -671l-1 148v523h8v-680z" />
    <glyph glyph-name="O" unicode="O" horiz-adv-x="688" 
d="M482.5 649q58.5 -41 90.5 -119.5t32 -189.5q0 -165 -68.5 -257t-193.5 -92q-79 0 -138 41t-90.5 119t-31.5 187t32.5 188.5t91.5 121.5t136 42q81 0 139.5 -41zM211 642q-57 -41 -88.5 -119t-31.5 -185q0 -106 30.5 -182.5t87.5 -116.5t134 -40q122 0 187.5 89t65.5 252
q0 164 -67 253.5t-186 89.5q-75 0 -132 -41z" />
    <glyph glyph-name="P" unicode="P" horiz-adv-x="554" 
d="M433 633.5q58 -46.5 58 -148.5q0 -197 -240 -197h-115v-288h-8v680h127q120 0 178 -46.5zM483 484q0 99 -56 144t-172 45h-119v-377h116q231 0 231 188z" />
    <glyph glyph-name="Q" unicode="Q" horiz-adv-x="688" 
d="M520.5 -18.5q55.5 -14.5 99.5 -50.5l-6 -6q-47 38 -105.5 52.5t-159.5 13.5h-6q-79 0 -138 41t-90.5 119t-31.5 187t32.5 188.5t91.5 121.5t136 42q81 0 139.5 -41t90.5 -119.5t32 -189.5q0 -154 -57.5 -242.5t-162.5 -100.5q80 -1 135.5 -15.5zM121.5 155.5
q30.5 -76.5 87.5 -116.5t134 -40q122 0 187.5 89t65.5 252q0 164 -67 253.5t-186 89.5q-75 0 -132 -41t-88.5 -119t-31.5 -185q0 -106 30.5 -182.5z" />
    <glyph glyph-name="R" unicode="R" horiz-adv-x="564" 
d="M312 331h-176v-331h-8v680h141q115 0 166 -45t51 -130q0 -83 -47 -125t-118 -48l192 -332h-11zM300 339q77 0 127.5 41t50.5 125q0 82 -49 125t-161 43h-132v-334h164z" />
    <glyph glyph-name="S" unicode="S" horiz-adv-x="539" 
d="M362.5 673.5q40.5 -16.5 76.5 -48.5l-5 -7q-35 32 -74.5 48.5t-95.5 16.5q-50 0 -89 -19t-60 -52.5t-21 -74.5q0 -44 16.5 -72t53.5 -49.5t107 -43.5t110.5 -45t60.5 -58.5t20 -89.5q0 -55 -25.5 -97.5t-71.5 -66.5t-106 -24q-64 0 -110 20t-87 59l5 6q40 -38 84 -57.5
t108 -19.5q57 0 101.5 22.5t69 63.5t24.5 94q0 52 -19.5 85.5t-58.5 56t-108 44.5q-71 23 -109.5 45t-55.5 51.5t-17 75.5q0 43 22.5 78t63 55t92.5 20q58 0 98.5 -16.5z" />
    <glyph glyph-name="T" unicode="T" horiz-adv-x="473" 
d="M454 672h-213v-672h-9v672h-213v8h436z" />
    <glyph glyph-name="U" unicode="U" horiz-adv-x="636" 
d="M518 206q0 -99 -48.5 -157t-151.5 -58q-104 0 -152 58t-48 157v474h8v-473q0 -96 46 -152t146 -56t146 56t46 152v473h8v-474z" />
    <glyph glyph-name="V" unicode="V" horiz-adv-x="526" 
d="M269 0h-10l-226 680h9l222 -672l221 672h8z" />
    <glyph glyph-name="W" unicode="W" horiz-adv-x="780" 
d="M578 0h-10l-178 672l-178 -672h-9l-160 680h9l156 -671l177 671h10l178 -671l156 671h8z" />
    <glyph glyph-name="X" unicode="X" horiz-adv-x="473" 
d="M454 0h-9l-210 365v0l-207 -365h-9l211 370l-182 310h9l178 -305v0l179 305h8l-181 -310z" />
    <glyph glyph-name="Y" unicode="Y" horiz-adv-x="484" 
d="M247 271v-271h-9v271l-214 409h9l210 -401l208 401h9z" />
    <glyph glyph-name="Z" unicode="Z" horiz-adv-x="506" 
d="M456 673l-402 -665h386l-1 -8h-395v8l401 665h-364v7h375v-7z" />
    <glyph glyph-name="bracketleft" unicode="[" horiz-adv-x="311" 
d="M223 785h-108v-880h108v-7h-115v894h115v-7z" />
    <glyph glyph-name="backslash" unicode="\" horiz-adv-x="520" 
d="M380 -90l-8 -3l-232 886l8 2z" />
    <glyph glyph-name="bracketright" unicode="]" horiz-adv-x="311" 
d="M203 -102h-115v7h107v880h-107v7h115v-894z" />
    <glyph glyph-name="asciicircum" unicode="^" horiz-adv-x="527" 
d="M433 527h-9l-164 282l-164 -282h-10l171 292h6z" />
    <glyph glyph-name="underscore" unicode="_" horiz-adv-x="520" 
d="M50 -83h420v-8h-420v8z" />
    <glyph glyph-name="grave" unicode="`" horiz-adv-x="233" 
d="M203 666l-3 -6l-170 82l3 9z" />
    <glyph glyph-name="a" unicode="a" horiz-adv-x="525" 
d="M410.5 31q10.5 -24 40.5 -34l-3 -6q-31 10 -43 33.5t-13 75.5q-27 -54 -69 -81.5t-102 -27.5q-72 0 -112 42.5t-40 111.5q0 76 53.5 118t146.5 42h123v66q0 73 -32 111t-106 38q-65 0 -145 -33l-3 7q83 34 148 34q77 0 111.5 -40t34.5 -116v-262q0 -55 10.5 -79z
M323.5 26.5q40.5 28.5 68.5 85.5v186h-121q-91 0 -142.5 -40t-51.5 -113q0 -66 38 -106.5t106 -40.5q62 0 102.5 28.5z" />
    <glyph glyph-name="b" unicode="b" horiz-adv-x="563" 
d="M439 459q46 -69 46 -195q0 -128 -47.5 -200.5t-136.5 -72.5q-104 0 -170 102l-1 -93h-7v731l8 1v-306q34 48 76 75t98 27q88 0 134 -69zM431.5 68.5q45.5 70.5 45.5 195.5q0 124 -44 190t-128 66q-56 0 -96.5 -26.5t-77.5 -77.5v-313q33 -51 74 -78t95 -27
q86 0 131.5 70.5z" />
    </font>
</defs>
</svg>
